<svg width="24" height="24" viewBox="0 0 24 24" fill="none" xmlns="http://www.w3.org/2000/svg">
<g clip-path="url(#clip0_271_2548)">
<path fill-rule="evenodd" clip-rule="evenodd" d="M4.5 5C4.5 3.34315 5.84315 2 7.5 2H15.5C17.1569 2 18.5 3.34315 18.5 5V19C18.5 20.6569 17.1569 22 15.5 22H7.5C5.84315 22 4.5 20.6569 4.5 19V5ZM7.5 4C6.94772 4 6.5 4.44772 6.5 5V19C6.5 19.5523 6.94772 20 7.5 20H15.5C16.0523 20 16.5 19.5523 16.5 19V5C16.5 4.44772 16.0523 4 15.5 4H7.5ZM10.5 18C10.5 17.4477 10.9477 17 11.5 17H11.51C12.0623 17 12.51 17.4477 12.51 18C12.51 18.5523 12.0623 19 11.51 19H11.5C10.9477 19 10.5 18.5523 10.5 18Z" fill="#121826"/>
</g>
<defs>
<clipPath id="clip0_271_2548">
<rect width="22.4" height="22.4" fill="white" transform="translate(0.799805 0.800781)"/>
</clipPath>
</defs>
</svg>
