<svg width="26" height="24" viewBox="0 0 26 24" fill="none" xmlns="http://www.w3.org/2000/svg">
<path d="M5.00019 15.2008C5.00019 16.0844 5.71654 16.8008 6.60019 16.8008C7.48385 16.8008 8.20019 16.0844 8.20019 15.2008L8.2002 6.26352L10.2688 8.33215C10.8937 8.95699 11.9067 8.95699 12.5316 8.33215C13.1564 7.70731 13.1564 6.69425 12.5316 6.06941L7.73157 1.26941C7.43151 0.969352 7.02454 0.800781 6.6002 0.800781C6.17585 0.800781 5.76888 0.969352 5.46883 1.26941L0.668825 6.06941C0.0439856 6.69425 0.0439855 7.70731 0.668824 8.33215C1.29366 8.95699 2.30673 8.95699 2.93157 8.33215L5.00019 6.26352L5.00019 15.2008Z" fill="#039AE4"/>
<path d="M21.0002 8.80078C21.0002 7.91713 20.2839 7.20078 19.4002 7.20078C18.5165 7.20078 17.8002 7.91713 17.8002 8.80078L17.8002 17.738L15.7316 15.6694C15.1067 15.0446 14.0937 15.0446 13.4688 15.6694C12.844 16.2942 12.844 17.3073 13.4688 17.9321L18.2688 22.7322C18.5689 23.0322 18.9758 23.2008 19.4002 23.2008C19.8245 23.2008 20.2315 23.0322 20.5316 22.7322L25.3316 17.9322C25.9564 17.3073 25.9564 16.2943 25.3316 15.6694C24.7067 15.0446 23.6937 15.0446 23.0688 15.6694L21.0002 17.738V8.80078Z" fill="#039AE4"/>
</svg>
