<svg width="400" height="400" viewBox="0 0 400 400" fill="none" xmlns="http://www.w3.org/2000/svg">
<path d="M63.0881 0H62.2881V108.424H63.0881V0Z" fill="#C7C7C7"/>
<path d="M100.336 144.72L97.312 151.377H28.056L25.04 144.72L54.52 124.312H70.856L100.336 144.72Z" fill="#EBEBEB"/>
<path d="M72.9042 104.648L70.8562 124.312H54.5202L52.4722 104.648H72.9042Z" fill="#DBDBDB"/>
<path d="M100.336 144.721L97.3042 151.377H28.0562L25.0322 144.721H100.336Z" fill="#DBDBDB"/>
<path d="M143.928 0H143.128V86.952H143.928V0Z" fill="#C7C7C7"/>
<path d="M181.176 123.24L178.152 129.904H108.896L105.88 123.24L135.36 102.832H151.696L181.176 123.24Z" fill="#EBEBEB"/>
<path d="M153.744 83.1758L151.696 102.832H135.36L133.312 83.1758H153.744Z" fill="#DBDBDB"/>
<path d="M181.176 123.248L178.144 129.904H108.896L105.872 123.248H181.176Z" fill="#DBDBDB"/>
<path d="M38.8001 178.672L30.9041 191.4L34.8241 193.8C35.3735 194.157 35.8136 194.659 36.0959 195.251C36.3782 195.842 36.4918 196.5 36.4241 197.152C36.3599 197.878 36.3359 198.607 36.3521 199.336C36.3745 200 36.213 200.656 35.8855 201.234C35.5579 201.811 35.0771 202.287 34.4961 202.608L30.4961 204.776L37.6001 218.008L41.6001 215.84C42.1692 215.535 42.8113 215.392 43.4561 215.427C44.101 215.463 44.7237 215.675 45.2561 216.04C45.9095 216.496 46.5879 216.916 47.2881 217.296C47.8568 217.609 48.3272 218.074 48.6466 218.639C48.9659 219.205 49.1215 219.847 49.0961 220.496L48.9521 225.08L63.9281 225.544L64.0641 220.944C64.0852 220.294 64.2863 219.663 64.6451 219.12C65.0038 218.578 65.5062 218.146 66.0961 217.872C66.4481 217.704 66.7921 217.528 67.1361 217.344C67.4801 217.16 67.8161 216.968 68.1441 216.768C68.6963 216.428 69.3318 216.249 69.9801 216.249C70.6284 216.249 71.2639 216.428 71.8161 216.768L75.7441 219.168L83.6321 206.44L79.7041 204C79.154 203.643 78.7134 203.142 78.431 202.55C78.1487 201.958 78.0355 201.3 78.1041 200.648C78.1682 199.925 78.1922 199.198 78.1761 198.472C78.1545 197.808 78.3172 197.15 78.6462 196.573C78.9752 195.995 79.4576 195.52 80.0401 195.2L84.0401 193.032L76.9601 179.832L72.9121 182C72.3249 182.307 71.6638 182.445 71.0027 182.399C70.3416 182.352 69.7064 182.123 69.1681 181.736C68.5681 181.32 67.9441 180.936 67.3121 180.592C66.7294 180.288 66.2431 179.828 65.9081 179.262C65.5731 178.697 65.4027 178.049 65.4161 177.392L65.6001 172.8L50.6321 172.328L50.4881 176.928C50.4611 177.585 50.2523 178.221 49.8851 178.766C49.5179 179.312 49.0066 179.744 48.4081 180.016C48.0721 180.168 47.7441 180.336 47.4161 180.512C47.0881 180.688 46.7681 180.872 46.4561 181.064C45.8942 181.409 45.2476 181.592 44.5881 181.592C43.9286 181.592 43.282 181.409 42.7201 181.064L38.8001 178.672ZM50.1121 188.976C52.1954 187.481 54.6945 186.677 57.2585 186.675C59.8225 186.674 62.3226 187.475 64.4077 188.968C66.4927 190.46 68.0581 192.568 68.8839 194.995C69.7097 197.422 69.7544 200.047 69.0119 202.501C68.2693 204.956 66.7768 207.115 64.7438 208.678C62.7108 210.24 60.2395 211.127 57.677 211.213C55.1144 211.298 52.5893 210.58 50.4563 209.157C48.3232 207.734 46.6893 205.679 45.7841 203.28C44.8301 200.752 44.7372 197.98 45.5197 195.393C46.3023 192.807 47.9165 190.551 50.1121 188.976Z" fill="#EBEBEB"/>
<path d="M367.2 54.3995C366.865 54.203 366.591 53.9171 366.409 53.5738C366.226 53.2305 366.143 52.8433 366.168 52.4555C366.168 52.2395 366.168 52.0235 366.168 51.8075C366.168 51.5915 366.168 51.3675 366.168 51.1515C366.143 50.7636 366.226 50.3764 366.409 50.0331C366.591 49.6898 366.865 49.404 367.2 49.2075L369.544 47.8555L365.144 40.2155L362.768 41.5995C362.431 41.7933 362.046 41.8885 361.657 41.8744C361.268 41.8603 360.891 41.7373 360.568 41.5195C360.2 41.2875 359.824 41.0635 359.432 40.8635C359.086 40.6897 358.795 40.4237 358.59 40.0948C358.385 39.7659 358.275 39.3869 358.272 38.9995V36.2715H349.472V38.9675C349.463 39.3513 349.348 39.7251 349.141 40.0481C348.933 40.3712 348.641 40.6311 348.296 40.7995C347.904 40.9995 347.496 41.2235 347.16 41.4555C346.838 41.6733 346.461 41.7963 346.072 41.8104C345.683 41.8245 345.298 41.7293 344.96 41.5355L342.616 40.1835L338.208 47.8235L340.56 49.1835C340.902 49.3793 341.182 49.6682 341.366 50.0167C341.55 50.3651 341.631 50.7586 341.6 51.1515C341.6 51.3675 341.6 51.5835 341.6 51.7995C341.6 52.0155 341.6 52.2315 341.6 52.4475C341.626 52.8375 341.542 53.2269 341.359 53.5718C341.175 53.9168 340.898 54.2034 340.56 54.3995L338.208 55.7515L342.616 63.3915L344.952 62.0395C345.29 61.8463 345.674 61.7507 346.062 61.7634C346.451 61.7762 346.828 61.8967 347.152 62.1115C347.521 62.3545 347.903 62.5762 348.296 62.7755C348.642 62.9497 348.932 63.216 349.135 63.545C349.339 63.8739 349.447 64.2528 349.448 64.6395V67.3355H358.248V64.6315C358.251 64.2441 358.361 63.8651 358.566 63.5362C358.771 63.2073 359.062 62.9413 359.408 62.7675C359.801 62.5665 360.183 62.3448 360.552 62.1035C360.875 61.8885 361.251 61.7678 361.638 61.7551C362.025 61.7424 362.408 61.8381 362.744 62.0315L365.088 63.3835L369.488 55.7435L367.2 54.3995ZM353.888 59.0315C352.464 59.0315 351.072 58.6092 349.888 57.8181C348.704 57.0269 347.781 55.9024 347.236 54.5868C346.691 53.2712 346.549 51.8235 346.827 50.4268C347.104 49.0302 347.79 47.7473 348.797 46.7403C349.804 45.7334 351.087 45.0476 352.484 44.7698C353.88 44.492 355.328 44.6346 356.644 45.1796C357.959 45.7245 359.084 46.6473 359.875 47.8314C360.666 49.0154 361.088 50.4075 361.088 51.8315C361.087 52.7784 360.899 53.7157 360.536 54.5899C360.172 55.4641 359.639 56.2579 358.968 56.926C358.297 57.594 357.501 58.1232 356.625 58.4831C355.749 58.843 354.811 59.0266 353.864 59.0235L353.888 59.0315Z" fill="#EBEBEB"/>
<path d="M168.736 255.088C168.423 254.904 168.163 254.643 167.981 254.329C167.798 254.015 167.7 253.659 167.696 253.296C167.696 252.936 167.696 252.584 167.696 252.224C167.657 251.863 167.679 251.498 167.76 251.144C167.849 250.79 168.031 250.467 168.288 250.208C168.56 249.97 168.861 249.769 169.184 249.608L171.048 248.52V248.56L166.6 240.944H166.704L164.256 242.384C163.806 242.609 163.292 242.671 162.8 242.56C162.338 242.416 161.899 242.206 161.496 241.936L160.888 241.592C160.664 241.475 160.461 241.321 160.288 241.136C159.934 240.767 159.719 240.286 159.68 239.776V236.936L159.864 237.12L151.064 237.2L151.336 236.936V239.784C151.311 240.193 151.182 240.588 150.96 240.932C150.739 241.277 150.433 241.559 150.072 241.752L149.472 242.112L148.872 242.464C148.64 242.61 148.386 242.718 148.12 242.784C147.581 242.902 147.018 242.838 146.52 242.6L144.04 241.184L144.52 241.056L140.144 248.712L140 248.176L142.48 249.6C142.829 249.84 143.112 250.163 143.304 250.54C143.495 250.918 143.589 251.337 143.576 251.76V252.464V253.16C143.581 253.431 143.543 253.701 143.464 253.96C143.298 254.5 142.95 254.966 142.48 255.28L140 256.704L140.136 256.2L144.504 263.856L144.056 263.736L146.544 262.336C147.044 262.102 147.607 262.043 148.144 262.168C148.401 262.235 148.647 262.34 148.872 262.48L149.48 262.84L150.08 263.192C150.313 263.32 150.524 263.485 150.704 263.68C151.065 264.074 151.279 264.579 151.312 265.112V267.968L151.096 267.752L159.896 267.84L159.768 267.968V265.128C159.806 264.63 160.016 264.161 160.36 263.8C160.723 263.482 161.127 263.213 161.56 263C161.96 262.738 162.393 262.531 162.848 262.384C163.325 262.27 163.827 262.33 164.264 262.552L166.72 263.976H166.664L171.096 256.352L168.736 255.088ZM168.736 255.088L171.08 256.432L166.704 264.08V264.12L164.24 262.72C163.823 262.518 163.348 262.467 162.896 262.576C162.435 262.715 161.997 262.926 161.6 263.2C161.183 263.411 160.798 263.681 160.456 264C160.146 264.335 159.962 264.768 159.936 265.224V268.056V268.184H159.808L151.008 268.272H150.8V268V265.176C150.767 264.76 150.592 264.367 150.304 264.064C150.159 263.915 149.992 263.788 149.808 263.688L149.184 263.336L148.56 262.984C148.385 262.878 148.193 262.802 147.992 262.76C147.59 262.67 147.17 262.721 146.8 262.904L144.4 264.336L144.12 264.504L143.952 264.216L139.512 256.6L139.328 256.28L139.648 256.096L142.048 254.68C142.367 254.461 142.602 254.139 142.712 253.768C142.767 253.581 142.794 253.387 142.792 253.192V252.472V251.752C142.794 251.557 142.767 251.363 142.712 251.176C142.6 250.808 142.363 250.491 142.04 250.28L139.64 248.856L139.296 248.664L139.496 248.328L143.928 240.712L144.112 240.4L144.416 240.576L146.816 241.992C147.173 242.168 147.58 242.216 147.968 242.128C148.164 242.087 148.351 242.011 148.52 241.904L149.144 241.552L149.776 241.2C149.954 241.106 150.116 240.984 150.256 240.84C150.539 240.545 150.709 240.16 150.736 239.752V236.944V236.664H151L159.8 236.744H160V236.928V239.752C160.03 240.192 160.207 240.61 160.504 240.936C160.841 241.255 161.22 241.524 161.632 241.736C162.009 242.005 162.425 242.215 162.864 242.36C163.302 242.464 163.762 242.416 164.168 242.224L166.64 240.84L166.704 240.8V240.864L171.08 248.52L169.208 249.592C168.887 249.748 168.588 249.947 168.32 250.184C168.064 250.434 167.881 250.749 167.792 251.096C167.708 251.447 167.684 251.809 167.72 252.168C167.72 252.528 167.72 252.888 167.72 253.24C167.712 253.61 167.802 253.976 167.98 254.301C168.159 254.625 168.419 254.897 168.736 255.088Z" fill="#EBEBEB"/>
<path d="M155.424 259.72C154.199 259.715 152.994 259.407 151.916 258.823C150.839 258.239 149.923 257.397 149.25 256.373C148.577 255.349 148.168 254.174 148.06 252.954C147.951 251.733 148.147 250.505 148.628 249.378C149.11 248.251 149.863 247.261 150.82 246.496C151.778 245.731 152.909 245.215 154.115 244.994C155.32 244.773 156.561 244.853 157.728 245.229C158.894 245.604 159.95 246.262 160.8 247.144C162.175 248.582 162.924 250.507 162.88 252.496C162.816 254.424 162.006 256.252 160.621 257.595C159.237 258.938 157.385 259.691 155.456 259.696L155.424 259.72ZM155.424 259.72C156.361 259.719 157.288 259.531 158.151 259.167C159.014 258.802 159.795 258.269 160.449 257.598C161.103 256.927 161.616 256.132 161.957 255.26C162.299 254.388 162.464 253.456 162.44 252.52C162.386 250.693 161.622 248.958 160.311 247.684C159 246.41 157.244 245.697 155.416 245.696C153.553 245.696 151.767 246.436 150.449 247.753C149.132 249.071 148.392 250.857 148.392 252.72C148.392 254.583 149.132 256.369 150.449 257.687C151.767 259.004 153.553 259.744 155.416 259.744L155.424 259.72Z" fill="#EBEBEB"/>
<path d="M24.6079 350.208L68.4559 350.016L112.304 349.944L200 349.816L287.696 349.944L331.544 350.016L375.392 350.208L331.544 350.408L287.696 350.48L200 350.608L112.304 350.48L68.4559 350.408L24.6079 350.208Z" fill="#263238"/>
<path d="M368.224 72.0078H235.584V206.072H368.224V72.0078Z" fill="#EBEBEB"/>
<path d="M296.568 63.9188C300.992 58.7268 308.568 57.4788 315.896 58.9588C323.224 60.4388 332 64.1348 332.8 76.3908C333.456 86.3428 330.4 96.0468 330.4 107.151C330.4 118.255 342.968 145.303 322.856 158.503C304.784 170.359 268.168 159.471 267.04 135.063C266.152 115.719 289.096 97.8308 291.512 90.1748C293.928 82.5188 291.72 69.5988 296.568 63.9188Z" fill="#263238"/>
<path d="M293.264 74.8398C293.128 80.3758 292.328 85.9758 290.064 91.1998C289.477 92.5229 288.709 93.7586 287.784 94.8718C286.896 95.9918 285.952 97.0478 285.008 98.0718C283.104 100.144 281.224 102.2 279.408 104.336C275.801 108.521 272.821 113.207 270.56 118.248C268.392 123.312 267.201 128.741 267.048 134.248C266.823 131.469 266.906 128.673 267.296 125.912C267.729 123.137 268.444 120.413 269.432 117.784C271.516 112.516 274.469 107.635 278.168 103.344C279.984 101.176 281.912 99.1038 283.832 97.0558C285.752 95.0078 287.696 93.0558 288.888 90.6558C290.111 88.202 291.042 85.6138 291.664 82.9438C292.366 80.2785 292.9 77.5719 293.264 74.8398Z" fill="#263238"/>
<path d="M332.296 84.752C332.16 90.4 331.8 96.04 331.952 101.648C332.018 104.441 332.253 107.227 332.656 109.992C333.072 112.712 333.888 115.432 334.568 118.184C335.248 120.936 335.856 123.728 336.304 126.544C336.737 129.373 336.919 132.235 336.848 135.096C336.718 137.971 336.179 140.813 335.248 143.536C334.174 146.213 332.571 148.645 330.536 150.688C332.319 148.496 333.676 145.988 334.536 143.296C335.282 140.619 335.653 137.851 335.64 135.072C335.413 129.478 334.538 123.929 333.032 118.536C332.392 115.792 331.576 113.072 331.184 110.184C330.817 107.354 330.672 104.5 330.752 101.648C330.921 95.9897 331.437 90.3471 332.296 84.752Z" fill="#263238"/>
<path d="M303.2 132.248C284.8 152.504 269.784 162.232 254.984 162.232C240.912 162.232 210.848 128.064 208.64 123.56C206.736 119.672 231.416 98.3997 235.208 101.048C241.608 105.48 262.136 131.136 264.312 131.256C266.488 131.376 274.504 126.08 293.808 117.04C305.536 111.56 316 118.208 303.2 132.248Z" fill="#DD6A57"/>
<path d="M211.504 126.928C208.8 124 197.448 109.384 195.2 104.616C192.952 99.8477 187.504 85.6557 190.984 83.5677C194.464 81.4797 196.384 85.5037 196.384 85.5037C196.384 85.5037 195.032 79.1517 198.728 77.3677C202.424 75.5837 205.208 81.9437 205.208 81.9437C205.208 81.9437 204.296 75.3197 208.104 73.7997C211.912 72.2797 213.656 79.1597 213.656 79.1597C213.656 79.1597 212.536 73.1357 216.2 73.2077C220.608 73.2957 221.416 84.6317 224.288 89.7117C224.936 90.8637 239.16 112.112 239.16 112.112L211.504 126.928Z" fill="#DD6A57"/>
<path d="M213.504 78.5754C214.12 86.9034 215.832 90.4474 220.704 97.0634C220.8 97.1914 220.632 97.3594 220.52 97.2394C215.136 91.1914 212.352 87.0634 213.08 78.5834C213.136 78.1674 213.472 78.1754 213.504 78.5754Z" fill="#263238"/>
<path d="M205.184 81.2874C206.576 89.8874 208.384 93.7434 213.016 101.047C213.08 101.151 212.912 101.271 212.84 101.175C207.712 94.3834 205.024 90.1994 204.76 81.4234C204.744 81.0234 205.12 80.8874 205.184 81.2874Z" fill="#263238"/>
<path d="M196.64 85.8707C198.592 94.1027 200.408 98.4147 205.8 104.927C205.928 105.087 205.712 105.287 205.576 105.143C199.432 99.0307 197.128 93.6627 196.4 85.9427C196.352 85.4307 196.52 85.3507 196.64 85.8707Z" fill="#263238"/>
<path d="M245.504 114.143C245.504 114.143 245.32 103.671 244.224 99.0875C243.128 94.5035 232.8 78.9355 229.272 80.9835C224.768 83.6235 228.976 93.7835 231.672 98.5035C231.672 98.5035 221.272 104.615 222.688 112.567C224.104 120.519 245.504 114.143 245.504 114.143Z" fill="#DD6A57"/>
<path d="M228.272 82.1105C225.872 87.4865 229.872 93.4465 232.152 98.2065C232.189 98.275 232.209 98.3512 232.21 98.4289C232.211 98.5066 232.194 98.5834 232.159 98.6531C232.125 98.7227 232.074 98.7831 232.012 98.8293C231.949 98.8755 231.877 98.906 231.8 98.9185C227.592 101.774 222.496 107.014 222.432 112.374C222.432 112.406 222.419 112.437 222.397 112.459C222.374 112.482 222.344 112.494 222.312 112.494C222.28 112.494 222.25 112.482 222.227 112.459C222.205 112.437 222.192 112.406 222.192 112.374C221.48 106.614 226.064 101.046 230.864 98.2225C228.464 93.3665 224.728 87.2225 228.224 82.0625L228.272 82.1105Z" fill="#263238"/>
<path d="M271.472 125.367L286.256 152.951C286.256 152.951 306.304 133.487 309.504 125.367C312.704 117.247 309.256 111.351 294.992 115.695C286.843 118.11 278.962 121.351 271.472 125.367Z" fill="#039AE4"/>
<path d="M289.672 147.199C288.944 145.703 288.304 144.159 287.544 142.671C286.784 141.183 286.024 139.711 285.232 138.255C283.632 135.311 282.032 132.359 280.368 129.455C279.424 127.855 278.432 126.207 277.4 124.655C277.36 124.583 277.224 124.655 277.264 124.711C279.976 130.783 283.264 136.599 286.544 142.375C287.496 144.047 288.576 145.639 289.568 147.287C289.6 147.327 289.712 147.255 289.672 147.199Z" fill="#263238"/>
<path d="M309.504 125.366C306.304 133.486 286.256 152.95 286.256 152.95L276.296 134.398L309.152 116.23C311.04 118.198 311.016 121.534 309.504 125.366Z" fill="#263238"/>
<path d="M274.84 171.807C274.84 171.807 266.712 191.263 269.584 206.063H359.2C356.288 165.831 336.232 131.255 324.384 120.063C314.832 111.039 304.776 111.847 297.776 116.463C296.128 117.559 277.944 142.687 275.976 146.663C268.168 162.351 274.84 171.807 274.84 171.807Z" fill="#0073AD"/>
<path d="M298.4 115.279C298.4 115.279 292.8 131.383 296.048 132.223C304.128 134.303 314.968 121.111 315.616 119.767C315.776 119.423 316.496 110.407 317.032 103.391C317.376 98.8794 317.64 95.1914 317.64 95.1914L297.704 102.031L298.344 114.391L298.4 115.279Z" fill="#DD6A57"/>
<path d="M297.672 102.031L298.312 114.391C302.368 113.823 311.288 111.623 317 103.391C317.344 98.8794 317.608 95.1914 317.608 95.1914L315.112 95.9914L297.672 102.031Z" fill="#263238"/>
<path d="M282.824 84.727C282.584 91.007 283.208 96.087 284.736 99.463C286.045 102.347 288.128 104.811 290.754 106.582C293.379 108.353 296.444 109.361 299.608 109.495C302.008 109.583 308.92 108.951 313.92 105.143C317.808 102.183 320.152 96.847 321.48 87.463C324.52 66.007 314.704 58.791 305.032 57.927C295.36 57.063 283.624 63.079 282.824 84.727Z" fill="#DD6A57"/>
<path d="M288.368 79.9429C288.872 79.8709 289.336 79.7269 289.824 79.6149C290.355 79.5672 290.856 79.3514 291.256 78.9989C291.356 78.8619 291.41 78.6966 291.41 78.5269C291.41 78.3572 291.356 78.1919 291.256 78.0549C291.007 77.8234 290.701 77.6622 290.369 77.5877C290.038 77.5132 289.692 77.5281 289.368 77.6309C288.678 77.7406 288.054 78.1027 287.616 78.6469C287.513 78.7729 287.45 78.9274 287.437 79.0898C287.424 79.2522 287.461 79.4147 287.543 79.5556C287.624 79.6965 287.747 79.8091 287.895 79.8783C288.042 79.9475 288.207 79.9701 288.368 79.9429Z" fill="#263238"/>
<path d="M302.504 80.4793C302.013 80.3928 301.527 80.2807 301.048 80.1433C300.517 80.0991 300.016 79.8796 299.624 79.5193C299.524 79.3823 299.47 79.217 299.47 79.0473C299.47 78.8776 299.524 78.7123 299.624 78.5753C299.875 78.3444 300.183 78.1848 300.516 78.1131C300.85 78.0414 301.196 78.0601 301.52 78.1673C302.215 78.2785 302.844 78.6468 303.28 79.1993C303.38 79.3273 303.439 79.4827 303.449 79.645C303.459 79.8072 303.419 79.9686 303.334 80.1076C303.25 80.2466 303.126 80.3566 302.977 80.423C302.829 80.4894 302.664 80.5091 302.504 80.4793Z" fill="#263238"/>
<path d="M298.968 85.8869C298.968 85.8309 299.08 85.9589 299.08 86.0229C298.96 87.4869 299.08 89.2229 300.384 89.7509C300.384 89.7509 300.384 89.8389 300.384 89.8309C298.752 89.5269 298.624 87.2549 298.968 85.8869Z" fill="#263238"/>
<path d="M300.36 84.4069C302.76 84.3429 302.696 89.1029 300.488 89.1669C298.28 89.2309 298.4 84.4629 300.36 84.4069Z" fill="#263238"/>
<path d="M301.296 84.6707C301.704 84.9427 302.096 85.4227 302.608 85.4707C303.12 85.5187 303.632 85.0387 304.016 84.5587C304.056 84.5107 304.096 84.5587 304.096 84.6147C304.096 85.5267 303.744 86.4627 302.76 86.5907C301.776 86.7187 301.24 85.8867 301.016 84.9907C300.976 84.7987 301.128 84.5587 301.296 84.6707Z" fill="#263238"/>
<path d="M291.088 85.2639C291.088 85.2079 290.976 85.3359 290.976 85.3919C290.976 86.8719 290.824 88.5919 289.488 89.0559C289.448 89.0559 289.448 89.1439 289.488 89.1359C291.128 88.9119 291.368 86.6559 291.088 85.2639Z" fill="#263238"/>
<path d="M289.776 83.72C287.376 83.536 287.208 88.296 289.408 88.464C291.608 88.632 291.76 83.88 289.776 83.72Z" fill="#263238"/>
<path d="M288.8 83.9998C288.416 84.2398 288 84.6798 287.576 84.6958C287.152 84.7118 286.688 84.1758 286.376 83.6718C286.376 83.6158 286.304 83.6718 286.296 83.7198C286.24 84.6318 286.496 85.5838 287.368 85.7998C288.24 86.0158 288.776 85.2318 289.024 84.3358C289.04 84.1598 288.92 83.9038 288.8 83.9998Z" fill="#263238"/>
<path d="M298.824 97.3439C298.48 97.7039 298.144 98.1919 297.616 98.2559C297.067 98.26 296.523 98.1539 296.016 97.9439C296.006 97.9354 295.994 97.9311 295.981 97.9318C295.968 97.9326 295.956 97.9384 295.948 97.9479C295.939 97.9575 295.935 97.97 295.936 97.9828C295.937 97.9955 295.942 98.0074 295.952 98.0159C296.174 98.2983 296.468 98.5156 296.803 98.6451C297.138 98.7746 297.502 98.8115 297.856 98.7519C298.151 98.6595 298.414 98.4834 298.611 98.2448C298.809 98.0062 298.933 97.7155 298.968 97.4079C298.973 97.3897 298.97 97.3704 298.962 97.3535C298.954 97.3366 298.94 97.3231 298.923 97.3155C298.906 97.3078 298.886 97.3065 298.868 97.3117C298.85 97.3169 298.834 97.3283 298.824 97.3439Z" fill="#263238"/>
<path d="M292.8 91.8782C292.8 91.8782 292.448 94.0782 292.432 95.1182C292.432 95.2142 292.68 95.2622 293.032 95.2942C293.032 95.2942 293.032 95.2942 293.072 95.2942C293.955 95.4688 294.869 95.3986 295.715 95.0912C296.561 94.7838 297.307 94.2509 297.872 93.5502C297.944 93.4542 297.816 93.3422 297.72 93.4062C296.376 94.2818 294.786 94.7025 293.184 94.6062C293.12 94.3102 293.912 90.8622 293.744 90.8462C292.925 90.897 292.118 91.0613 291.344 91.3342C291.944 86.7342 293.272 82.2702 293.792 77.6862C293.792 77.5262 293.576 77.4702 293.528 77.6142C291.8 82.1902 291 87.4702 290.256 92.1982C290.192 92.7982 292.352 92.0542 292.8 91.8782Z" fill="#263238"/>
<path d="M293.696 94.7513C294.208 95.5355 294.913 96.1746 295.744 96.6073C296.202 96.8255 296.716 96.8981 297.216 96.8153C298.312 96.6153 298.416 95.6313 298.288 94.7753C298.21 94.3197 298.081 93.8742 297.904 93.4473C296.677 94.3199 295.202 94.7768 293.696 94.7513Z" fill="#263238"/>
<path d="M295.744 96.608C296.202 96.8262 296.716 96.8988 297.216 96.816C298.312 96.616 298.416 95.632 298.288 94.776C297.72 94.7505 297.159 94.9176 296.698 95.25C296.236 95.5824 295.9 96.0609 295.744 96.608Z" fill="#FF98B9"/>
<path d="M321.088 85.5351C318.728 85.6071 312.032 79.7191 310.816 68.4071C310.816 68.4071 312.616 78.4871 313.512 79.9031C314.408 81.3191 309.768 76.5831 308.656 67.4791C308.656 67.4791 303.936 71.5911 299.728 73.1911C295.52 74.7911 292.888 74.9991 292.528 74.7111C292.168 74.4231 298.352 71.8471 299.888 69.7191C299.888 69.7191 288.904 76.1191 283.656 76.9831C283.048 77.0791 284.072 67.6311 291.76 61.5511C299.448 55.4711 310.016 56.9911 313.808 60.0311C313.808 60.0311 317.952 60.2471 322.944 65.8871C327.936 71.5271 323.624 85.4551 321.088 85.5351Z" fill="#263238"/>
<path d="M317.976 88.991C317.976 88.991 322.368 82.007 325.512 83.543C328.656 85.079 325.592 95.039 322.064 96.551C321.625 96.7779 321.144 96.9134 320.651 96.9494C320.159 96.9854 319.663 96.921 319.196 96.7603C318.729 96.5995 318.299 96.3456 317.932 96.014C317.566 95.6824 317.271 95.28 317.064 94.831L317.976 88.991Z" fill="#DD6A57"/>
<path d="M324.56 86.3984C324.624 86.3984 324.632 86.4704 324.56 86.4944C322.088 87.6384 320.88 90.0464 320.064 92.5184C320.776 91.5424 321.768 90.9824 323.064 91.8144C323.128 91.8544 323.064 91.9664 323 91.9504C322.555 91.8416 322.087 91.8705 321.658 92.0333C321.23 92.1962 320.861 92.4853 320.6 92.8624C320.169 93.5091 319.804 94.198 319.512 94.9184C319.408 95.1504 318.992 95.0544 319.072 94.7904C319.068 94.7693 319.068 94.7476 319.072 94.7264C318.848 91.4944 321.128 86.8704 324.56 86.3984Z" fill="#263238"/>
<path d="M331.32 124.455C340.184 134.687 365.032 171.727 359.272 181.735C353.744 191.335 341.208 194.039 333.992 181.143C328.8 171.919 320.072 144.399 317.904 131.199C316.144 120.511 323.128 114.991 331.32 124.455Z" fill="#DD6A57"/>
<path d="M323.04 157.246L352.416 146.454C352.416 146.454 335.928 123.886 328.336 119.59C320.744 115.294 314.424 117.886 316.744 132.614C317.993 141.019 320.102 149.273 323.04 157.246Z" fill="#039AE4"/>
<path d="M347.2 142.263C345.6 142.783 344 143.199 342.4 143.743C340.8 144.287 339.264 144.839 337.712 145.423C334.568 146.591 331.432 147.759 328.32 149.015C326.576 149.719 324.832 150.479 323.128 151.279C323.048 151.279 323.08 151.447 323.128 151.423C329.528 149.583 335.736 147.135 341.912 144.695C343.704 143.983 345.424 143.095 347.192 142.383C347.312 142.351 347.256 142.239 347.2 142.263Z" fill="#263238"/>
<path d="M324.696 156.56C324.114 156.689 323.544 156.865 322.992 157.088C322.192 155.352 320.296 147.72 319.856 145.76C318.976 141.856 318.256 137.912 317.336 134.008C317.336 133.896 317.12 133.928 317.136 134.008C317.408 136.176 317.744 138.336 318.12 140.48C317.72 139.456 317.32 138.424 317.008 137.376C317.011 137.369 317.013 137.361 317.012 137.353C317.011 137.345 317.009 137.337 317.004 137.331C317 137.324 316.994 137.318 316.987 137.315C316.98 137.311 316.972 137.309 316.964 137.309C316.956 137.309 316.948 137.311 316.941 137.315C316.934 137.318 316.928 137.324 316.924 137.331C316.92 137.337 316.917 137.345 316.916 137.353C316.916 137.361 316.917 137.369 316.92 137.376C317.284 138.678 317.73 139.955 318.256 141.2C318.568 145.2 322.208 157.912 322.312 157.864C323.135 157.491 323.936 157.071 324.712 156.608C324.8 156.632 324.8 156.552 324.696 156.56Z" fill="#263238"/>
<path d="M310.168 81.2544L301.808 116.942C301.448 117.99 301.984 118.83 303.008 118.814L318.968 122.062C319.527 122.011 320.06 121.802 320.505 121.459C320.95 121.116 321.288 120.654 321.48 120.126L329.84 84.4384C330.2 83.3904 329.664 82.5504 328.64 82.5744L312.68 79.3184C312.121 79.3695 311.588 79.5787 311.143 79.9215C310.698 80.2643 310.36 80.7266 310.168 81.2544Z" fill="#A6A6A6"/>
<path d="M311.536 81.4555L303.2 117.144C302.84 118.192 303.376 119.032 304.4 119.016L320.36 122.264C320.918 122.213 321.451 122.005 321.895 121.664C322.34 121.322 322.679 120.862 322.872 120.336L331.2 84.6475C331.56 83.5915 331.024 82.7595 330 82.7755L314.048 79.5195C313.49 79.5735 312.958 79.7837 312.513 80.1262C312.069 80.4686 311.73 80.9293 311.536 81.4555Z" fill="#DBDBDB"/>
<path d="M316.592 82.9904C316.6 83.3104 316.511 83.6255 316.338 83.8948C316.165 84.1641 315.915 84.3753 315.621 84.5011C315.326 84.6268 315.001 84.6614 314.687 84.6002C314.373 84.5391 314.084 84.3851 313.858 84.1581C313.632 83.9312 313.48 83.6417 313.42 83.3271C313.361 83.0126 313.397 82.6874 313.524 82.3936C313.651 82.0999 313.864 81.851 314.134 81.6793C314.404 81.5076 314.72 81.4209 315.04 81.4304C315.452 81.4325 315.847 81.5978 316.138 81.8901C316.429 82.1825 316.592 82.578 316.592 82.9904Z" fill="#263238"/>
<path d="M338.256 184.375C343.448 193.975 357.192 188.503 359.272 181.735C364.152 165.855 361.128 139.455 358.216 124.711C357.28 119.967 325.056 124.711 325.248 129.839C325.472 136.039 328.08 165.495 338.256 184.375Z" fill="#DD6A57"/>
<path d="M357.856 131.758C359.479 124.763 359.577 117.499 358.144 110.462C356.448 102.79 350.904 86.5184 328.616 79.2624C323.328 77.5344 314.568 78.8224 322.216 84.7744C327.624 89.0064 332.328 90.0544 335.016 93.0944C335.016 93.0944 324.072 96.0544 322.552 101.414C321.221 106.106 320.224 110.886 319.568 115.718C320.425 116.04 321.301 116.307 322.192 116.518C321.722 121.185 322.808 125.877 325.28 129.862L357.856 131.758Z" fill="#DD6A57"/>
<path d="M355.352 103.399C352.04 100.999 344.952 95.8953 337.68 93.7993C329.616 91.3993 313.464 89.0793 311.784 95.0393C310.552 99.4153 316.64 100.863 316.64 100.863C316.64 100.863 309.76 101.295 309.512 105.487C309.288 109.311 314.064 110.151 314.064 110.151C314.064 110.151 309.936 111.127 310.424 114.855C311.016 119.327 319.584 116.543 324.104 120.559C325.12 121.439 355.352 103.399 355.352 103.399Z" fill="#DD6A57"/>
<path d="M336.608 102.704C333.12 100.912 324.144 98.8877 316.768 100.72C316.6 100.72 316.544 100.904 316.704 100.904C323.384 100.723 330.062 101.352 336.592 102.776C336.632 102.792 336.648 102.72 336.608 102.704Z" fill="#263238"/>
<path d="M334 110.767C330.8 109.535 321.48 107.855 314.072 109.967C313.904 110.015 313.856 110.167 314.016 110.159C320.687 109.626 327.397 109.857 334.016 110.847C334.027 110.845 334.036 110.839 334.042 110.83C334.048 110.821 334.05 110.81 334.048 110.799C334.046 110.788 334.04 110.779 334.031 110.773C334.022 110.767 334.011 110.765 334 110.767Z" fill="#263238"/>
<path d="M335.312 177.688C335.072 176.888 334.84 176.088 334.584 175.36C334.056 173.76 333.6 172.16 333.136 170.56C332.192 167.36 331.288 164.112 330.496 160.848C328.915 154.342 327.716 147.749 326.904 141.104C326.68 139.264 326.488 137.424 326.288 135.584C326.088 133.744 326.024 131.832 325.672 129.984C325.672 129.888 324.736 128.48 324.368 127.784C323.986 127.06 323.652 126.311 323.368 125.544C322.77 123.977 322.364 122.344 322.16 120.68C322.156 120.669 322.149 120.66 322.139 120.654C322.13 120.648 322.119 120.645 322.108 120.645C322.097 120.645 322.086 120.648 322.076 120.654C322.067 120.66 322.06 120.669 322.056 120.68C321.952 122.574 322.191 124.471 322.76 126.28C323.253 127.793 324.104 129.165 325.24 130.28C325.24 130.52 325.296 133.48 325.392 135.136C325.488 136.792 325.64 138.448 325.824 140.096C326.2 143.408 326.664 146.712 327.248 150C328.389 156.651 329.977 163.218 332 169.656C332 169.76 332.072 169.864 332.104 169.968C332.104 170.208 332.104 170.448 332.104 170.688C332.116 171.279 332.164 171.87 332.248 172.456C332.412 173.621 332.699 174.766 333.104 175.872C333.1 175.881 333.099 175.892 333.1 175.902C333.102 175.912 333.105 175.922 333.111 175.931C333.117 175.939 333.125 175.946 333.134 175.951C333.143 175.956 333.154 175.958 333.164 175.958C333.174 175.958 333.184 175.956 333.194 175.951C333.203 175.946 333.211 175.939 333.216 175.931C333.222 175.922 333.226 175.912 333.227 175.902C333.229 175.892 333.227 175.881 333.224 175.872C332.94 174.715 332.747 173.538 332.648 172.352L332.504 171.136C332.944 172.432 333.408 173.728 333.864 175.016C334.184 175.912 334.512 176.784 334.88 177.656C335.248 178.528 335.536 179.376 335.968 180.184C335.968 180.248 336.096 180.184 336.08 180.136C335.88 179.28 335.56 178.496 335.312 177.688Z" fill="#263238"/>
<path d="M235.584 206.063V184.559L211.144 206.063H235.584Z" fill="#EBEBEB"/>
<path d="M109.976 251.657C117.016 282.289 131.576 319.009 137.792 324.969C145.656 332.505 197.68 346.329 200.272 346.609C206.672 347.257 219.576 301.009 212.728 300.009C202.328 298.505 164.44 296.449 162.176 294.121C159.912 291.793 143.832 271.521 127.4 248.745C116.056 233.009 105.6 232.649 109.976 251.657Z" fill="#EB9481"/>
<path d="M195.12 344.112C195.88 344.497 206.752 349.969 213.472 351.913C218.488 353.368 233.032 357.168 235.184 351.8C236.656 348.152 228.36 344.912 222.552 342.488C219.488 341.208 215.712 338.008 216.616 336.04C218.216 332.6 226.08 336.04 231.264 339.064C241.288 344.888 254.64 355.376 260.76 350.264C263.072 348.344 260.384 344.84 256.456 341.408C262.856 345.408 269.64 348.688 272.288 346.656C273.816 345.496 273.888 343.904 273.04 342.096C275.008 342.736 276.744 342.608 277.96 341.296C280.032 339.12 279.024 335.92 276.752 332.632C277.142 332.592 277.517 332.459 277.845 332.245C278.173 332.031 278.446 331.741 278.64 331.4C283.032 324.704 261.04 305.48 253.448 303.68C231.088 298.36 207.52 299.352 207.52 299.352C198.736 306.4 195.096 344.097 195.12 344.112Z" fill="#EB9481"/>
<path d="M228 323.529C233.324 324.361 238.41 326.316 242.92 329.265C248.592 333.009 252.352 337.393 257.104 341.801C257.123 341.826 257.132 341.857 257.131 341.888C257.13 341.919 257.118 341.949 257.097 341.973C257.077 341.996 257.049 342.012 257.018 342.017C256.987 342.022 256.955 342.017 256.928 342.001C254.664 339.905 245.272 332.017 242.848 330.225C238.463 326.926 233.386 324.666 228 323.617C227.928 323.609 227.944 323.513 228 323.529Z" fill="#263238"/>
<path d="M232.168 314.033C238.048 315.633 244.072 317.233 249.528 320.049C255.496 323.089 260.168 328.049 264.728 332.849C267.491 335.713 270.187 338.646 272.816 341.649C272.92 341.777 272.752 341.977 272.64 341.849C267.979 336.921 263.179 332.121 258.24 327.449C253.669 323.11 248.286 319.717 242.4 317.465C239.04 316.177 235.584 315.161 232.128 314.137C232.08 314.121 232.104 314.017 232.168 314.033Z" fill="#263238"/>
<path d="M238.448 305.737C244.16 306.913 249.144 307.913 254.2 310.969C260.896 315.025 267.36 321.849 269.624 324.273C272.128 326.945 274.544 329.697 276.912 332.489C277.008 332.601 276.816 332.777 276.712 332.665C271.285 326.543 265.467 320.779 259.296 315.409C256.392 312.809 253.106 310.672 249.552 309.073C245.949 307.659 242.231 306.556 238.44 305.777C238.44 305.777 238.4 305.729 238.448 305.737Z" fill="#263238"/>
<path d="M203.92 297.513L187.92 348.201C187.92 348.201 144.6 335.833 136.72 327.297C128.84 318.761 114.192 274.681 109.896 253.313C105.6 231.945 116.4 232.513 126.328 245.945C136.256 259.377 160.976 292.065 162.328 292.777C163.68 293.489 203.92 297.513 203.92 297.513Z" fill="#039AE4"/>
<path opacity="0.1" d="M203.92 297.513L187.92 348.201C187.92 348.201 144.6 335.833 136.72 327.297C128.84 318.761 114.192 274.681 109.896 253.313C105.6 231.945 116.4 232.513 126.328 245.945C136.256 259.377 160.976 292.065 162.328 292.777C163.68 293.489 203.92 297.513 203.92 297.513Z" fill="black"/>
<path d="M183.76 325.681C185.704 319.705 187.688 313.745 189.4 307.697C190.376 304.265 191.368 300.825 192.312 297.385C192.352 297.249 192.136 297.177 192.088 297.305C189.904 303.225 187.728 309.169 185.816 315.185C183.904 321.201 181.96 327.185 180.136 333.161C179.104 336.585 178.168 340.025 177.344 343.505C177.344 343.569 177.44 343.609 177.464 343.545C179.848 337.697 181.808 331.697 183.76 325.681Z" fill="#263238"/>
<path d="M166.072 341.233L164.152 340.561C160.544 339.273 156.864 337.889 153.4 336.473C152.952 336.297 152.512 336.113 152.08 335.929C151.384 335.641 150.688 335.345 150.016 335.049L149.008 334.609L148.648 334.449L147.608 333.969C146.232 333.337 144.928 332.705 143.712 332.065L142.912 331.617C141.011 330.639 139.219 329.462 137.568 328.105C137.416 327.969 137.264 327.833 137.128 327.697C136.992 327.561 136.848 327.425 136.728 327.297C128.808 318.761 114.2 274.681 109.904 253.313L109.76 252.577V252.417C109.472 250.817 109.216 248.785 109.008 246.609C108.408 235.977 113.44 234.241 119.656 238.913C135.152 272.169 158.888 327.121 166.072 341.233Z" fill="#263238"/>
<path d="M143.6 349.745L49.1997 350.241C49.2797 348.209 62.7197 288.769 73.4077 266.833C87.1117 238.705 94.2077 236.433 98.3917 234.929C103.792 232.993 113.408 233.953 115.688 235.033C118.28 236.241 126.52 250.625 129.472 261.177C135.376 282.401 144.928 348.449 143.6 349.745Z" fill="#EBEBEB"/>
<path d="M93.5518 237.153C93.5518 237.153 105.552 281.593 106.152 284.545C107.056 288.833 113.04 350.017 113.04 350.017L47.2397 350.241C47.2397 350.241 61.5997 293.601 72.2877 268.801C83.9517 241.601 93.5518 237.153 93.5518 237.153Z" fill="#039AE4"/>
<g opacity="0.1">
<path d="M93.5518 237.153C93.5518 237.153 105.552 281.593 106.152 284.545C107.056 288.833 113.04 350.017 113.04 350.017L47.2397 350.241C47.2397 350.241 61.5997 293.601 72.2877 268.801C83.9517 241.601 93.5518 237.153 93.5518 237.153Z" fill="black"/>
</g>
<path d="M116.552 235.721C116.904 237.137 127.968 273.241 128.736 282.241C129.592 292.225 137.16 350.241 137.16 350.241H146.76C146.76 350.241 132.864 266.889 129.048 258.081C121.24 240.105 116.552 235.721 116.552 235.721Z" fill="#039AE4"/>
<path opacity="0.1" d="M116.552 235.721C116.904 237.137 127.968 273.241 128.736 282.241C129.592 292.225 137.16 350.241 137.16 350.241H146.76C146.76 350.241 132.864 266.889 129.048 258.081C121.24 240.105 116.552 235.721 116.552 235.721Z" fill="black"/>
<path d="M81.128 247.545C65.32 264.481 26.888 328.737 39.08 340.457C51.272 352.177 118.96 336.401 137.968 327.337C143.624 324.649 122.136 289.385 115.488 288.561C109.952 287.881 81.664 300.817 80.84 299.193C79.92 297.353 84.416 283.777 91.24 259.193C99.072 230.857 88.12 240.057 81.128 247.545Z" fill="#EB9481"/>
<path d="M143.584 277.185C157.328 275.265 161.184 276.889 171.896 269.113C178.944 264.009 185.232 266.321 181.208 274.425C174.632 287.689 157.416 293.881 150.808 294.313L143.584 277.185Z" fill="#EB9481"/>
<path d="M107.072 290.401C107.072 290.401 122.52 281.825 136.968 278.337C146.952 275.937 169.272 273.097 190.632 295.137C195.696 300.361 199.208 311.401 187.84 305.873C179.76 301.945 175.84 297.017 170.712 295.585C170.712 295.585 173.512 310.153 168.08 315.025C163.332 319.282 158.287 323.196 152.984 326.737C152.112 325.916 151.294 325.04 150.536 324.113C150.536 324.113 145.032 328.185 134.68 327.193L107.072 290.401Z" fill="#EB9481"/>
<path d="M146.872 277.601C151.672 280.089 161.68 285.537 168.336 292.849C175.736 300.977 187.792 318.609 181.736 324.049C177.304 328.009 172.136 321.649 172.136 321.649C172.136 321.649 175.584 329.993 170.792 332.689C166.432 335.153 162.704 330.017 162.704 330.017C162.704 330.017 163.928 335.433 159.264 336.993C153.664 338.865 152.016 327.201 144.696 324.193C143.024 323.473 146.872 277.601 146.872 277.601Z" fill="#EB9481"/>
<path d="M158.456 299.201C162.56 302.281 170.096 311.665 172.176 321.385C172.224 321.609 172.088 321.761 172 321.569C168.386 313.614 163.819 306.127 158.4 299.273C158.336 299.201 158.4 299.201 158.456 299.201Z" fill="#263238"/>
<path d="M150.472 306.905C153.744 309.929 161.08 319.945 162.848 329.873C162.888 330.097 162.736 330.241 162.664 330.041C159.46 321.912 155.346 314.172 150.4 306.969C150.352 306.921 150.4 306.865 150.472 306.905Z" fill="#263238"/>
<path d="M170.712 295.488C175.192 296.808 178.104 299.008 181.912 301.632C183.766 302.957 185.691 304.177 187.68 305.288C189.504 306.272 192.2 307.76 194.136 306.216C195.224 305.36 195.208 303.816 194.936 302.56C194.389 300.742 193.557 299.022 192.472 297.464C192.472 297.4 192.528 297.328 192.576 297.384C193.624 298.804 194.524 300.327 195.264 301.928C195.748 303.026 195.891 304.245 195.672 305.424C195.008 307.888 192.096 308.216 190.072 307.536C188.845 307.086 187.666 306.515 186.552 305.832C185.464 305.208 184.408 304.536 183.352 303.832C181.224 302.392 179.184 300.832 177.072 299.368C175.02 297.991 172.882 296.746 170.672 295.64C170.655 295.632 170.642 295.619 170.634 295.602C170.626 295.585 170.624 295.566 170.629 295.548C170.634 295.53 170.645 295.514 170.66 295.503C170.675 295.492 170.693 295.487 170.712 295.488Z" fill="#263238"/>
<path d="M180.096 311.249C178.936 308.697 172.656 298.057 170.624 295.593C170.616 295.58 170.613 295.566 170.615 295.552C170.616 295.537 170.623 295.524 170.633 295.514C170.643 295.504 170.656 295.497 170.671 295.496C170.685 295.494 170.699 295.497 170.712 295.505C174.208 298.817 179.816 307.609 181.112 310.425C182.408 313.241 183.896 316.769 183.896 319.865C183.896 324.545 180.792 325.465 179.648 325.665C178.279 325.912 176.866 325.681 175.648 325.009C174.222 324.138 172.992 322.983 172.032 321.617C171.984 321.553 172.072 321.465 172.128 321.529C173.728 323.377 176.448 325.193 178.984 324.857C179.546 324.803 180.092 324.638 180.59 324.37C181.087 324.102 181.526 323.737 181.88 323.297C182.573 322.171 182.84 320.834 182.632 319.529C182.258 316.646 181.4 313.846 180.096 311.249Z" fill="#263238"/>
<path d="M107.072 290.401L128.736 336.001C128.736 336.001 43.9998 355.025 36.6878 340.273C29.3758 325.521 62.2878 267.793 77.1118 250.977C94.3038 231.489 96.4958 238.121 92.7118 255.393C88.7118 273.473 81.0878 299.617 81.0878 299.617L107.072 290.401Z" fill="#039AE4"/>
<path opacity="0.1" d="M107.072 290.401L128.736 336.001C128.736 336.001 43.9998 355.025 36.6878 340.273C29.3758 325.521 62.2878 267.793 77.1118 250.977C94.3038 231.489 96.4958 238.121 92.7118 255.393C88.7118 273.473 81.0878 299.617 81.0878 299.617L107.072 290.401Z" fill="black"/>
<path d="M55.3356 311.752C63.1515 306.324 71.7341 302.094 80.7996 299.2C83.3676 298.4 85.9596 297.64 88.5516 296.896C88.6316 296.896 88.6636 297 88.5516 297.024C84.0308 298.487 79.5992 300.213 75.2796 302.192C70.9649 304.112 66.6982 306.11 62.4796 308.184C60.0796 309.36 57.7436 310.648 55.3916 311.904C55.3758 311.901 55.3611 311.894 55.3489 311.883C55.3367 311.873 55.3274 311.859 55.3218 311.844C55.3163 311.829 55.3146 311.812 55.317 311.796C55.3194 311.78 55.3258 311.765 55.3356 311.752Z" fill="#263238"/>
<path d="M106.848 290.281C106.424 290.393 83.2476 298.049 82.4876 298.401C82.5836 298.049 86.7436 285.729 87.3676 283.921C87.4236 283.745 87.4796 283.561 87.5436 283.385C87.9596 282.585 88.3916 281.785 88.7836 280.985C89.2796 279.937 89.7756 278.873 90.2636 277.785H90.2156L88.6156 280.881C88.3676 281.353 88.1356 281.841 87.9036 282.329C88.3116 281.057 88.7036 279.777 89.0956 278.489C89.7196 276.449 90.2796 274.385 90.8316 272.321C90.8316 272.249 90.7516 272.233 90.7276 272.321C89.4956 275.913 88.1516 279.465 86.9116 283.057C85.6716 286.649 80.9036 299.857 80.9436 299.857C80.9836 299.857 106.464 290.849 106.96 290.649C106.984 290.642 107.006 290.63 107.026 290.613C107.045 290.597 107.061 290.578 107.073 290.555C107.085 290.533 107.093 290.509 107.095 290.484C107.097 290.458 107.095 290.433 107.088 290.409C107.08 290.385 107.068 290.362 107.052 290.343C107.036 290.323 107.016 290.307 106.994 290.295C106.972 290.283 106.947 290.276 106.922 290.273C106.897 290.271 106.872 290.274 106.848 290.281Z" fill="#263238"/>
<path d="M108.408 320.001C106.008 314.921 103.68 309.809 101.112 304.801C99.6475 301.961 98.1995 299.113 96.7115 296.289C96.6555 296.185 96.4635 296.289 96.5115 296.377C98.7035 301.577 100.912 306.777 103.344 311.889C105.776 317.001 108.144 322.049 110.616 327.089C112.024 329.953 113.52 332.771 115.104 335.545C115.104 335.601 115.232 335.545 115.208 335.545C113.192 330.249 110.816 325.137 108.408 320.001Z" fill="#263238"/>
<path d="M129.832 336.705C128.984 335.297 127.912 333.281 127.008 331.905C126.768 331.545 126.488 331.617 126.68 331.993C127.328 333.273 127.864 334.705 128.496 335.993C127.312 336.233 126.096 336.441 124.928 336.689C123.552 336.977 122.184 337.273 120.808 337.553C118.109 338.086 115.41 338.62 112.712 339.153C107.24 340.172 101.746 341.068 96.2317 341.841C85.1839 343.459 74.0596 344.503 62.9037 344.969C59.7837 345.081 56.6557 345.137 53.5357 345.097C50.4581 345.105 47.382 344.956 44.3197 344.649C44.2317 344.649 44.2157 344.785 44.3197 344.801C46.9548 345.358 49.6298 345.706 52.3197 345.841C55.1437 345.977 57.9757 346.041 60.8077 346.009C66.4077 345.945 72.0637 345.577 77.6717 345.065C88.7917 344.041 99.8797 342.537 110.872 340.593C113.954 340.06 117.029 339.481 120.096 338.857C121.648 338.545 123.192 338.233 124.736 337.889C126.28 337.545 129.976 336.945 129.832 336.705Z" fill="#263238"/>
<path d="M116.568 252.305C110.968 253.849 100.944 245.569 96.8479 238.705C96.5679 238.233 97.1199 233.145 97.4959 226.929C97.7119 223.161 97.8559 218.929 97.7119 215.105C97.7119 214.305 122.056 220.081 122.056 220.081C122.056 220.081 119.976 228.225 120.264 234.929C120.289 235.468 120.364 236.004 120.488 236.529C120.51 236.613 120.526 236.699 120.536 236.785C121.136 239.753 121.984 250.809 116.568 252.305Z" fill="#EB9481"/>
<path d="M99.1997 215.201C100.56 221.665 105.184 237.225 118.064 237.041C118.89 237.033 119.714 236.958 120.528 236.817C120.538 236.729 120.538 236.641 120.528 236.553C120.409 236.027 120.331 235.492 120.296 234.953C120.016 228.241 122.088 220.089 122.088 220.089C122.088 220.089 104.472 215.929 99.1997 215.201Z" fill="#263238"/>
<path d="M124.96 203.561C124.688 209.465 128.672 214.441 133.856 214.681C139.04 214.921 143.456 210.313 143.72 204.409C143.984 198.505 140 193.529 134.824 193.297C129.648 193.065 125.224 197.657 124.96 203.561Z" fill="#455A64"/>
<path d="M142.769 204.734C143.066 198.166 138.634 192.631 132.869 192.37C127.105 192.109 122.191 197.222 121.894 203.79C121.597 210.357 126.029 215.893 131.793 216.154C137.558 216.415 142.471 211.302 142.769 204.734Z" fill="#C7C7C7"/>
<path d="M100.888 184.474C96.6956 192.378 96.4316 217.506 101.36 224.082C108.504 233.602 122.544 237.098 131.2 228.002C139.624 219.154 139.384 186.402 133.664 180.186C125.256 171.01 107.08 172.802 100.888 184.474Z" fill="#EB9481"/>
<path d="M121.784 203.896C121.784 203.832 121.648 203.984 121.656 204.056C121.744 205.744 121.568 207.696 120.056 208.288C120.008 208.288 120.016 208.392 120.056 208.384C121.928 208.08 122.136 205.488 121.784 203.896Z" fill="#263238"/>
<path d="M120.232 202.169C117.504 202.025 117.416 207.489 119.936 207.617C122.456 207.745 122.52 202.289 120.232 202.169Z" fill="#263238"/>
<path d="M131.256 204.105C131.256 204.041 131.384 204.193 131.384 204.257C131.304 205.953 131.496 207.905 132.984 208.489C133.032 208.489 132.984 208.593 132.984 208.585C131.136 208.289 130.904 205.697 131.256 204.105Z" fill="#263238"/>
<path d="M132.8 202.4C135.52 202.232 135.648 207.696 133.12 207.848C130.592 208 130.512 202.496 132.8 202.4Z" fill="#263238"/>
<path d="M117.784 197.801C118.584 197.761 119.248 197.593 120.008 197.481C120.809 197.466 121.583 197.185 122.208 196.681C122.375 196.489 122.474 196.246 122.488 195.991C122.503 195.736 122.432 195.484 122.288 195.273C121.938 194.905 121.496 194.637 121.008 194.496C120.52 194.356 120.004 194.348 119.512 194.473C118.469 194.556 117.496 195.027 116.784 195.793C116.634 195.977 116.541 196.2 116.515 196.435C116.489 196.67 116.532 196.908 116.637 197.119C116.742 197.331 116.907 197.508 117.11 197.629C117.313 197.75 117.547 197.81 117.784 197.801Z" fill="#263238"/>
<path d="M135.368 198.401C134.638 198.241 133.916 198.04 133.208 197.801C132.421 197.706 131.687 197.355 131.12 196.801C130.976 196.59 130.907 196.337 130.923 196.082C130.939 195.827 131.039 195.585 131.208 195.393C131.599 195.065 132.071 194.847 132.574 194.762C133.077 194.676 133.594 194.725 134.072 194.905C135.095 195.12 136.002 195.708 136.616 196.553C136.736 196.754 136.796 196.985 136.789 197.219C136.782 197.453 136.709 197.68 136.579 197.873C136.448 198.067 136.264 198.22 136.05 198.313C135.836 198.407 135.599 198.437 135.368 198.401Z" fill="#263238"/>
<path d="M118.696 219.585C119.096 219.985 119.496 220.537 120.104 220.601C120.733 220.595 121.354 220.459 121.928 220.201C121.939 220.198 121.951 220.199 121.962 220.203C121.973 220.207 121.983 220.214 121.991 220.223C121.998 220.232 122.003 220.243 122.004 220.255C122.006 220.266 122.005 220.278 122 220.289C121.755 220.619 121.424 220.876 121.043 221.033C120.663 221.189 120.247 221.239 119.84 221.177C119.496 221.081 119.188 220.885 118.955 220.615C118.721 220.344 118.573 220.011 118.528 219.657C118.504 219.561 118.632 219.521 118.696 219.585Z" fill="#263238"/>
<path d="M120.56 214.545C120.978 215.221 121.531 215.803 122.185 216.255C122.839 216.706 123.58 217.018 124.36 217.169C125.04 217.314 125.738 217.36 126.432 217.305C126.566 217.3 126.7 217.286 126.832 217.265L127.2 217.209C127.29 217.194 127.374 217.15 127.437 217.083C127.501 217.017 127.541 216.932 127.552 216.841C127.556 216.782 127.556 216.723 127.552 216.665V216.513C127.608 215.209 127.552 213.225 127.552 213.225C128.024 213.473 130.44 214.609 130.408 213.929C130.168 208.281 129.896 202.009 128.464 196.449C128.456 196.413 128.436 196.382 128.408 196.359C128.379 196.337 128.344 196.324 128.308 196.324C128.272 196.324 128.236 196.337 128.208 196.359C128.18 196.382 128.16 196.413 128.152 196.449C128.152 201.881 129.144 207.273 129.248 212.729C128.391 212.314 127.481 212.021 126.544 211.857C126.36 211.913 126.792 215.689 126.72 216.273C126.722 216.294 126.722 216.315 126.72 216.337C124.52 216.577 122.88 215.889 120.784 214.385C120.592 214.297 120.456 214.401 120.56 214.545Z" fill="#263238"/>
<path d="M125.672 216.626C124.944 217.546 123.991 218.263 122.904 218.706C122.304 218.928 121.65 218.958 121.032 218.794C119.688 218.41 119.672 217.194 119.936 216.114C120.083 215.557 120.296 215.02 120.568 214.514C122.001 215.743 123.789 216.483 125.672 216.626Z" fill="#263238"/>
<path d="M122.904 218.705C122.304 218.927 121.65 218.958 121.032 218.793C119.688 218.409 119.672 217.193 119.936 216.113C121.384 216.289 122.8 217.297 122.904 218.705Z" fill="#FF98B9"/>
<path opacity="0.2" d="M97.7437 202.217C99.3917 201.953 103.344 196.377 105.016 194.161C106.688 191.945 107.656 180.065 107.808 177.361C104.874 179.02 102.471 181.478 100.88 184.449C99.0077 188.001 97.9277 194.985 97.7437 202.217Z" fill="#263238"/>
<path d="M128.248 187.201C127.271 188.273 126.036 189.077 124.662 189.538C123.287 189.998 121.817 190.1 120.392 189.833C118.937 189.566 117.575 188.931 116.436 187.988C115.296 187.046 114.416 185.828 113.88 184.449C113.88 184.361 113.72 184.409 113.752 184.489C114.184 185.991 115.019 187.345 116.165 188.407C117.311 189.469 118.726 190.197 120.256 190.513C121.776 190.743 123.33 190.568 124.761 190.006C126.192 189.445 127.45 188.516 128.408 187.313C128.413 187.293 128.412 187.271 128.405 187.251C128.398 187.231 128.384 187.214 128.367 187.202C128.349 187.189 128.329 187.183 128.307 187.183C128.286 187.183 128.265 187.189 128.248 187.201Z" fill="#263238"/>
<path d="M120.12 165.905C115.184 165.857 110.576 168.441 108.664 171.737C107.602 173.615 107.207 175.798 107.544 177.929C107.544 178.017 107.728 178.001 107.72 177.929C107.678 176.051 108.143 174.196 109.065 172.559C109.987 170.922 111.332 169.563 112.96 168.625C114.742 167.533 116.753 166.869 118.836 166.686C120.918 166.502 123.014 166.805 124.96 167.569C126.856 168.271 128.439 169.627 129.424 171.393C129.52 171.577 129.888 171.473 129.816 171.289C128.568 168.153 124.576 165.945 120.12 165.905Z" fill="#263238"/>
<path d="M148.4 177.498C147.668 175.039 146.093 172.918 143.952 171.506C140.984 169.538 137.552 169.706 134.16 169.946C134.141 169.946 134.122 169.953 134.109 169.967C134.095 169.98 134.088 169.999 134.088 170.018C134.088 170.037 134.095 170.055 134.109 170.069C134.122 170.082 134.141 170.09 134.16 170.09C137.056 169.898 140.008 169.866 142.616 171.314C144.787 172.489 146.483 174.38 147.416 176.666C148.304 179.01 148.315 181.596 147.448 183.948C146.581 186.3 144.893 188.259 142.696 189.466C141.414 190.128 140.011 190.521 138.572 190.621C137.133 190.722 135.689 190.527 134.328 190.05C134.216 190.01 134.136 190.162 134.24 190.21C136.078 190.934 138.082 191.133 140.027 190.783C141.972 190.434 143.782 189.55 145.253 188.231C146.724 186.911 147.799 185.209 148.358 183.313C148.917 181.418 148.937 179.404 148.416 177.498H148.4Z" fill="#263238"/>
<path d="M99.1036 189.314C99.1036 189.314 94.7356 180.33 98.8316 175.37C101.152 172.562 108.496 173.202 108.496 173.202C108.496 173.202 111.016 169.066 117.16 167.89C123.304 166.714 130.552 170.562 130.552 170.562C130.552 170.562 136.52 167.434 141.88 170.762C149.36 175.402 147.984 186.994 140.16 190.45C134.672 192.85 127.52 187.842 127.52 187.842C126.808 187.914 119.432 191.994 114.216 185.362C114.216 185.362 109.64 189.137 105.76 186.233C105.1 187.367 104.107 188.271 102.917 188.821C101.726 189.372 100.395 189.544 99.1036 189.314Z" fill="#263238"/>
<path d="M102.248 205.256C102.248 205.256 98.0956 196.456 94.1836 197.768C90.2716 199.08 92.4396 211.256 96.3596 213.544C96.8433 213.872 97.3883 214.099 97.962 214.211C98.5356 214.324 99.126 214.319 99.6976 214.197C100.269 214.075 100.81 213.839 101.288 213.503C101.767 213.166 102.172 212.737 102.48 212.24L102.248 205.256Z" fill="#EB9481"/>
<path d="M94.8877 201.232C94.8237 201.232 94.7917 201.312 94.8877 201.344C97.6237 203.04 98.7037 206.04 99.2957 209.056C98.6157 207.816 97.5197 207.016 95.8877 207.8C95.8709 207.812 95.8579 207.828 95.8508 207.847C95.8437 207.866 95.8427 207.886 95.848 207.906C95.8533 207.925 95.8647 207.943 95.8804 207.955C95.8962 207.968 95.9155 207.975 95.9357 207.976C96.482 207.902 97.0379 207.999 97.5275 208.252C98.0172 208.505 98.4167 208.904 98.6717 209.392C99.0864 210.215 99.4135 211.078 99.6477 211.968C99.7437 212.256 100.24 212.192 100.192 211.872C100.195 211.849 100.195 211.824 100.192 211.8C100.864 208.064 98.8557 202.312 94.8877 201.232Z" fill="#263238"/>
<path d="M111.296 222.977L103.416 219.577L97.0796 211.689L98.2956 210.705L104.392 218.297L111.92 221.545L111.296 222.977Z" fill="#C7C7C7"/>
<path d="M110.456 221.721C111.256 219.425 117.656 220.273 116.496 223.745C115.336 227.217 109.68 224.001 110.456 221.721Z" fill="#37474F"/>
<path d="M94.0638 197.528C94.0638 197.528 93.2078 184.624 96.9838 177.528C101.192 169.6 118.632 162.056 130.584 170.576C130.584 170.576 111.168 167.104 102.12 178.096C98.3118 182.72 98.4078 197.888 98.4078 197.888L94.0638 197.528Z" fill="#C7C7C7"/>
<path d="M95.8245 216.062C101.594 216.005 106.219 210.629 106.154 204.055C106.088 197.481 101.358 192.198 95.5876 192.255C89.8176 192.313 85.1932 197.689 85.2586 204.263C85.324 210.837 90.0545 216.12 95.8245 216.062Z" fill="#C7C7C7"/>
<path d="M103.104 203.714C103.16 209.626 99.0077 214.458 93.8237 214.506C88.6397 214.554 84.3837 209.81 84.3277 203.898C84.2717 197.986 88.4237 193.154 93.6077 193.106C98.7917 193.058 103.048 197.802 103.104 203.714Z" fill="#455A64"/>
<path d="M120.44 236.385L114.8 250.625L97.0556 232.721L92.0796 238.513C92.0796 238.513 109.48 267.001 109.584 265.713L115.384 253.433L123.88 261.921L123.08 240.529L120.44 236.385Z" fill="#EBEBEB"/>
<path d="M124.088 251.321C123.84 247.793 123.696 244.233 123.288 240.721C123.288 240.601 123.08 240.545 123.048 240.721C122.36 244.137 123.376 257.617 123.376 260.857H123.336C122.984 260.489 115.464 253.393 115.392 253.505C114.136 255.457 109.872 264.393 109.584 265.209C106.832 260.681 95.1838 242.849 91.9038 238.569C91.8878 238.541 91.8616 238.521 91.8309 238.513C91.8001 238.505 91.7673 238.509 91.7398 238.525C91.7122 238.541 91.692 238.567 91.6838 238.598C91.6755 238.629 91.6798 238.661 91.6958 238.689C94.0958 243.489 109.216 267.017 109.424 266.953C111.668 262.734 113.695 258.403 115.496 253.977C116.768 255.521 124.352 263.537 124.376 263.009C124.486 259.111 124.39 255.209 124.088 251.321Z" fill="#263238"/>
<path d="M314.272 198.944H289.528C287.129 198.942 284.829 197.988 283.132 196.291C281.436 194.595 280.482 192.295 280.48 189.896C280.48 187.496 281.433 185.195 283.13 183.498C284.827 181.801 287.128 180.848 289.528 180.848H314.272C316.672 180.848 318.973 181.801 320.67 183.498C322.367 185.195 323.32 187.496 323.32 189.896C323.32 191.084 323.086 192.26 322.631 193.358C322.177 194.456 321.51 195.453 320.67 196.294C319.83 197.134 318.832 197.8 317.735 198.255C316.637 198.71 315.46 198.944 314.272 198.944Z" fill="#455A64"/>
<path d="M294.936 189.735C294.953 189.449 295.047 189.172 295.208 188.935L295.432 188.607L295.904 188.135L296.456 187.735C297.216 187.251 298.064 186.922 298.952 186.767C300.999 186.359 303.105 186.359 305.152 186.767C306.029 186.917 306.866 187.241 307.616 187.719C307.808 187.847 308 187.991 308.184 188.127L308.648 188.591C308.769 188.766 308.881 188.948 308.984 189.135C309.062 189.327 309.127 189.525 309.176 189.727H305.12C305.089 189.731 305.057 189.725 305.029 189.709C305.002 189.693 304.98 189.668 304.968 189.639C304.857 189.424 304.692 189.242 304.488 189.111C304.284 188.981 304.05 188.906 303.808 188.895C302.628 188.819 301.444 188.819 300.264 188.895C300.024 188.905 299.791 188.978 299.589 189.108C299.386 189.237 299.222 189.417 299.112 189.631C299.112 189.687 299.056 189.727 298.976 189.727H294.936V189.735Z" fill="white"/>
<path d="M294.936 192V190.52H298.936C298.936 190.608 298.936 190.704 298.936 190.808V192C298.947 192.069 298.941 192.141 298.919 192.208C298.897 192.275 298.86 192.336 298.81 192.386C298.76 192.436 298.699 192.473 298.632 192.495C298.565 192.517 298.494 192.522 298.424 192.512H295.44C295.37 192.523 295.299 192.517 295.232 192.496C295.165 192.474 295.105 192.436 295.055 192.386C295.006 192.336 294.969 192.275 294.949 192.207C294.928 192.14 294.923 192.069 294.936 192Z" fill="white"/>
<path d="M305.152 192.047C305.152 191.543 305.152 191.039 305.152 190.543H309.112V190.631C309.112 191.095 309.112 191.567 309.112 192.031C309.12 192.098 309.112 192.166 309.09 192.229C309.068 192.293 309.031 192.351 308.984 192.399C308.936 192.446 308.878 192.483 308.814 192.505C308.751 192.527 308.683 192.535 308.616 192.527H305.6C305.538 192.53 305.475 192.519 305.418 192.495C305.36 192.472 305.308 192.436 305.265 192.39C305.223 192.345 305.191 192.29 305.171 192.231C305.151 192.172 305.145 192.109 305.152 192.047Z" fill="white"/>
<path d="M212.752 351.199H207.264V354.783H212.752V351.199Z" fill="#455A64"/>
<path d="M219.864 350.96H214.376V354.544H219.864V350.96Z" fill="#455A64"/>
<path d="M226.984 350.72H221.496V354.304H226.984V350.72Z" fill="#455A64"/>
<path d="M234.104 350.487H228.616V354.071H234.104V350.487Z" fill="#455A64"/>
<path d="M241.224 350.248H235.736V353.832H241.224V350.248Z" fill="#455A64"/>
<path d="M248.344 350.016H242.856V353.6H248.344V350.016Z" fill="#455A64"/>
<path d="M255.464 349.775H249.976V353.359H255.464V349.775Z" fill="#455A64"/>
<path d="M262.584 349.535H257.096V353.119H262.584V349.535Z" fill="#455A64"/>
<path d="M269.696 349.304H264.208V352.888H269.696V349.304Z" fill="#455A64"/>
<path d="M271.048 356.84H205.912V352.48L271.048 350.664V356.84Z" fill="#37474F"/>
<path d="M334.616 339.648H227.096L244.192 259.6H351.712L334.616 339.648Z" fill="#455A64"/>
<path d="M338.592 339.648H231.072L248.168 259.6H355.688L338.592 339.648Z" fill="#37474F"/>
<path d="M300.196 299.481C303.113 296.785 303.611 292.579 301.308 290.087C299.005 287.595 294.773 287.76 291.856 290.456C288.939 293.152 288.441 297.357 290.744 299.849C293.047 302.341 297.278 302.176 300.196 299.481Z" fill="#263238"/>
<path d="M308.184 360.551H255.304V356.439L308.184 354.735V360.551Z" fill="#455A64"/>
<path d="M322.56 360.544H294.168L277.064 315.688H305.456L322.56 360.544Z" fill="#455A64"/>
<path d="M327.232 360.544H298.84L281.744 315.688H310.136L327.232 360.544Z" fill="#263238"/>
<path d="M203.904 361.639H149.384C144.736 361.639 151.464 348.391 168.448 343.311C185.432 338.231 209.264 356.671 203.904 361.639Z" fill="#37474F"/>
<path d="M182.512 361.64C182.556 360.13 182.806 358.634 183.256 357.192C183.695 355.738 184.311 354.344 185.088 353.04C185.871 351.73 186.847 350.546 187.984 349.528C189.109 348.507 190.407 347.694 191.816 347.128C191.232 347.608 190.568 347.928 190.032 348.464L189.232 349.176L188.432 349.976C187.421 351.031 186.535 352.198 185.792 353.456C185.037 354.714 184.39 356.033 183.856 357.4C183.313 358.781 182.864 360.198 182.512 361.64Z" fill="#263238"/>
<path d="M188.968 349.031C192.206 350.103 195.271 351.642 198.064 353.599C199.476 354.575 200.754 355.731 201.864 357.039C202.41 357.708 202.879 358.435 203.264 359.207C203.644 359.979 203.862 360.82 203.904 361.679C203.713 360.865 203.38 360.09 202.92 359.391C202.485 358.69 201.975 358.039 201.4 357.447C200.235 356.266 198.963 355.195 197.6 354.247C196.248 353.271 194.816 352.399 193.384 351.535C192.664 351.103 191.928 350.687 191.192 350.287C190.456 349.887 189.712 349.439 188.968 349.031Z" fill="#263238"/>
<path d="M207.808 179.91C207.337 184.372 205.637 188.616 202.895 192.167C200.154 195.719 196.48 198.44 192.282 200.025C188.085 201.61 183.53 201.999 179.125 201.146C174.72 200.294 170.639 198.235 167.336 195.198L155.2 197.006L161.264 186.534C159.748 182.845 159.177 178.836 159.6 174.87C159.91 171.69 160.847 168.603 162.356 165.787C163.865 162.971 165.916 160.481 168.391 158.46C170.866 156.44 173.716 154.929 176.778 154.015C179.839 153.101 183.051 152.801 186.229 153.133C189.407 153.466 192.487 154.424 195.293 155.951C198.099 157.479 200.575 159.547 202.579 162.036C204.582 164.525 206.074 167.386 206.967 170.453C207.86 173.521 208.138 176.735 207.784 179.91H207.808Z" fill="white"/>
<path d="M207.808 179.912C207.342 184.378 205.651 188.628 202.92 192.192C202.241 193.078 201.509 193.923 200.728 194.72C199.918 195.489 199.063 196.211 198.168 196.88C196.385 198.237 194.419 199.333 192.328 200.136C190.238 200.955 188.043 201.477 185.808 201.688C184.688 201.793 183.563 201.814 182.44 201.752C181.315 201.726 180.194 201.611 179.088 201.408C174.616 200.587 170.461 198.537 167.088 195.488L167.376 195.576L155.272 197.44L154.4 197.6L154.84 196.8L160.872 186.296V186.712C159.456 183.271 158.845 179.552 159.083 175.839C159.321 172.126 160.403 168.516 162.247 165.284C164.09 162.052 166.647 159.283 169.721 157.188C172.796 155.093 176.308 153.727 179.991 153.194C183.673 152.661 187.429 152.974 190.971 154.111C194.514 155.248 197.751 157.178 200.436 159.754C203.12 162.331 205.182 165.485 206.463 168.978C207.745 172.471 208.213 176.211 207.832 179.912H207.808ZM207.808 179.912C208.188 176.266 207.727 172.581 206.462 169.141C205.197 165.701 203.16 162.596 200.509 160.065C197.857 157.534 194.661 155.644 191.166 154.54C187.67 153.436 183.968 153.147 180.344 153.696C176.75 154.232 173.326 155.584 170.336 157.648C167.378 159.729 164.906 162.425 163.088 165.552C161.299 168.694 160.244 172.2 160 175.808C159.776 179.423 160.364 183.042 161.72 186.4L161.808 186.616L161.688 186.808L155.592 197.264L155.16 196.624L167.288 194.928H167.456L167.576 195.04C170.813 198.07 174.829 200.139 179.176 201.016C180.26 201.234 181.359 201.367 182.464 201.416C183.567 201.492 184.673 201.492 185.776 201.416C187.989 201.247 190.168 200.767 192.248 199.992C194.338 199.236 196.306 198.177 198.088 196.848C198.981 196.184 199.835 195.471 200.648 194.712C201.432 193.923 202.166 193.087 202.848 192.208C205.609 188.648 207.326 184.391 207.808 179.912Z" fill="#263238"/>
<path d="M197.224 178.127C197.225 178.708 197.055 179.277 196.733 179.761C196.411 180.244 195.953 180.622 195.417 180.845C194.881 181.069 194.29 181.128 193.72 181.016C193.15 180.903 192.626 180.624 192.215 180.214C191.803 179.804 191.523 179.281 191.409 178.711C191.295 178.141 191.353 177.55 191.575 177.014C191.797 176.477 192.173 176.018 192.656 175.695C193.139 175.372 193.707 175.199 194.288 175.199C194.673 175.198 195.055 175.273 195.411 175.42C195.767 175.566 196.091 175.782 196.363 176.054C196.636 176.326 196.853 176.649 197 177.005C197.148 177.361 197.224 177.742 197.224 178.127Z" fill="#263238"/>
<path d="M186.712 178.127C186.713 178.709 186.542 179.277 186.22 179.761C185.898 180.245 185.44 180.623 184.903 180.846C184.366 181.069 183.775 181.128 183.205 181.015C182.635 180.902 182.111 180.622 181.7 180.211C181.289 179.8 181.009 179.276 180.896 178.706C180.783 178.136 180.842 177.545 181.065 177.008C181.288 176.471 181.666 176.013 182.15 175.691C182.634 175.369 183.202 175.198 183.784 175.199C184.56 175.199 185.305 175.508 185.854 176.057C186.403 176.606 186.712 177.351 186.712 178.127Z" fill="#263238"/>
<path d="M176.208 178.127C176.21 178.708 176.039 179.277 175.717 179.761C175.395 180.244 174.937 180.622 174.401 180.845C173.865 181.069 173.274 181.128 172.704 181.016C172.134 180.903 171.61 180.624 171.199 180.214C170.787 179.804 170.507 179.281 170.393 178.711C170.279 178.141 170.337 177.55 170.559 177.014C170.781 176.477 171.157 176.018 171.64 175.695C172.123 175.372 172.691 175.199 173.272 175.199C174.049 175.199 174.795 175.507 175.345 176.056C175.896 176.605 176.206 177.35 176.208 178.127Z" fill="#263238"/>
<path d="M218.072 54.2941C218.542 58.7558 220.243 62.9992 222.984 66.5513C225.724 70.1033 229.398 72.8244 233.594 74.4113C237.791 75.9981 242.346 76.3884 246.751 75.5385C251.156 74.6887 255.239 72.6321 258.544 69.5981L270.656 71.3741L264.6 60.9021C265.989 57.492 266.582 53.8103 266.334 50.1366C266.087 46.4629 265.005 42.894 263.171 39.7011C261.338 36.5081 258.8 33.7753 255.752 31.7101C252.704 29.6449 249.225 28.3018 245.579 27.7828C241.934 27.2639 238.219 27.5827 234.715 28.7151C231.211 29.8475 228.012 31.7637 225.36 34.318C222.708 36.8724 220.674 39.9976 219.411 43.4563C218.148 46.9149 217.69 50.6159 218.072 54.2781V54.2941Z" fill="white"/>
<path d="M225.32 34.2871C227.958 31.6853 231.159 29.7247 234.675 28.5567C238.192 27.3888 241.929 27.0447 245.6 27.5511C249.296 28.0385 252.832 29.3658 255.936 31.4311C260.638 34.5699 264.111 39.2378 265.766 44.6439C267.42 50.05 267.156 55.8619 265.016 61.0951V60.679L271.032 71.199L271.472 71.9991L270.6 71.863L258.488 70.007L258.776 69.919C255.403 72.9685 251.248 75.0184 246.776 75.8391C245.669 76.0418 244.549 76.1569 243.424 76.1831C242.304 76.2417 241.181 76.2203 240.064 76.119C235.577 75.6912 231.296 74.0299 227.696 71.319C226.801 70.6498 225.946 69.9285 225.136 69.159C224.356 68.36 223.624 67.5159 222.944 66.6311C219.317 61.893 217.555 55.9894 217.99 50.0387C218.425 44.088 221.027 38.5035 225.304 34.3431L225.32 34.2871ZM223.032 66.5191C223.713 67.3953 224.448 68.2289 225.232 69.015C226.04 69.7791 226.895 70.4924 227.792 71.1511C229.573 72.4873 231.544 73.5497 233.64 74.303C235.718 75.075 237.894 75.5542 240.104 75.7271C241.209 75.8031 242.318 75.8031 243.424 75.7271C244.526 75.6781 245.622 75.5444 246.704 75.327C251.05 74.4506 255.067 72.3813 258.304 69.3511L258.424 69.2391H258.592L270.72 70.935L270.288 71.5751L264.192 61.119L264.072 60.919L264.16 60.703C265.518 57.3579 266.1 53.7485 265.863 50.146C265.626 46.5435 264.576 43.0415 262.792 39.9031C260.976 36.775 258.503 34.0782 255.544 31.9991C252.555 29.9364 249.135 28.5846 245.544 28.0471C240.797 27.3142 235.94 28.0252 231.602 30.0879C227.265 32.1507 223.648 35.4698 221.22 39.6143C218.793 43.7588 217.668 48.5373 217.991 53.3294C218.314 58.1215 220.07 62.7057 223.032 66.487V66.5191Z" fill="#263238"/>
<path d="M244.32 54.7348V57.7588C244.326 58.06 244.272 58.3594 244.16 58.639C244.047 58.9186 243.88 59.1725 243.667 59.3856C243.454 59.5986 243.2 59.7663 242.92 59.8786C242.641 59.9908 242.341 60.0453 242.04 60.0388C241.436 60.0367 240.857 59.7958 240.43 59.3686C240.003 58.9415 239.762 58.3628 239.76 57.7588V52.9588C239.76 52.9108 239.808 52.9108 239.808 52.8628C239.808 52.8148 239.76 52.8148 239.76 52.7748C239.776 52.1752 240.021 51.6046 240.446 51.1805C240.87 50.7563 241.44 50.5109 242.04 50.4948C242.757 50.5511 243.478 50.4584 244.158 50.2226C244.837 49.9868 245.461 49.613 245.989 49.1246C246.517 48.6363 246.939 48.0439 247.227 47.3848C247.515 46.7257 247.664 46.0141 247.664 45.2948C247.664 44.5754 247.515 43.8638 247.227 43.2047C246.939 42.5456 246.517 41.9532 245.989 41.4649C245.461 40.9765 244.837 40.6027 244.158 40.3669C243.478 40.1311 242.757 40.0385 242.04 40.0948C241.136 40.0911 240.248 40.3259 239.464 40.7754C238.68 41.2248 238.029 41.8731 237.576 42.6548C237.42 42.9195 237.213 43.1505 236.968 43.3344C236.722 43.5183 236.442 43.6513 236.144 43.7258C235.846 43.8003 235.536 43.8147 235.233 43.7681C234.929 43.7216 234.638 43.6151 234.376 43.4548C234.118 43.303 233.893 43.1017 233.713 42.8625C233.533 42.6233 233.402 42.3509 233.328 42.061C233.253 41.7711 233.237 41.4694 233.28 41.1731C233.322 40.8769 233.423 40.592 233.576 40.3348C234.385 38.93 235.532 37.7485 236.911 36.8969C238.291 36.0452 239.861 35.55 241.479 35.4559C243.098 35.3618 244.714 35.6718 246.183 36.3579C247.652 37.044 248.928 38.0846 249.894 39.3862C250.861 40.6877 251.489 42.2093 251.721 43.8139C251.954 45.4185 251.784 47.0556 251.226 48.578C250.668 50.1004 249.741 51.4602 248.527 52.535C247.313 53.6097 245.851 54.3657 244.272 54.7348H244.32ZM244.32 64.9188V65.7188C244.328 66.0203 244.274 66.3202 244.162 66.6003C244.05 66.8804 243.883 67.1348 243.669 67.3481C243.456 67.5614 243.202 67.729 242.921 67.8409C242.641 67.9527 242.341 68.0065 242.04 67.9988C241.435 67.9988 240.855 67.7585 240.428 67.331C240 66.9034 239.76 66.3235 239.76 65.7188V64.9188C239.768 64.3166 240.011 63.7415 240.437 63.3157C240.863 62.8899 241.438 62.647 242.04 62.6388C242.34 62.6356 242.638 62.6923 242.916 62.8058C243.194 62.9192 243.447 63.087 243.659 63.2994C243.872 63.5118 244.039 63.7644 244.153 64.0425C244.266 64.3205 244.323 64.6185 244.32 64.9188Z" fill="#039AE4"/>
</svg>
