<svg width="24" height="24" viewBox="0 0 24 24" fill="none" xmlns="http://www.w3.org/2000/svg">
<path d="M6.93272 2.83203V4.73203H5.03271V5.9987H6.93272V7.89871H8.19939V5.9987H10.0994V4.73203H8.19939V2.83203H6.93272Z" fill="#039AE4"/>
<path fill-rule="evenodd" clip-rule="evenodd" d="M5.03295 0.931641C4.52904 0.931641 4.04576 1.13182 3.68944 1.48814C3.33313 1.84446 3.13295 2.32773 3.13295 2.83164V3.46498H0.599609V15.4983H14.533V3.46498H11.9996V2.83164C11.9996 2.32773 11.7995 1.84446 11.4431 1.48814C11.0868 1.13182 10.6035 0.931641 10.0996 0.931641H5.03295ZM10.0996 9.79832C10.6035 9.79832 11.0868 9.59814 11.4431 9.24182C11.7995 8.8855 11.9996 8.40223 11.9996 7.89832V7.26498H13.2663V14.2317H10.0996V10.4317H5.03295V14.2317H1.86628V7.26498H3.13295V7.89832C3.13295 8.40223 3.33313 8.8855 3.68944 9.24182C4.04576 9.59814 4.52904 9.79832 5.03295 9.79832H10.0996ZM4.39962 2.83164C4.39962 2.66367 4.46634 2.50258 4.58512 2.38381C4.70389 2.26504 4.86498 2.19831 5.03295 2.19831H10.0996C10.2676 2.19831 10.4287 2.26504 10.5475 2.38381C10.6662 2.50258 10.733 2.66367 10.733 2.83164V7.89832C10.733 8.06629 10.6662 8.22738 10.5475 8.34615C10.4287 8.46493 10.2676 8.53165 10.0996 8.53165H5.03295C4.86498 8.53165 4.70389 8.46493 4.58512 8.34615C4.46634 8.22738 4.39962 8.06629 4.39962 7.89832V2.83164ZM1.86628 4.73165H3.13295V5.99832H1.86628V4.73165ZM13.2663 5.99832H11.9996V4.73165H13.2663V5.99832ZM8.83296 11.6983V14.2317H6.29962V11.6983H8.83296ZM15.7996 14.865C15.7996 14.1931 16.0665 13.5488 16.5416 13.0737C17.0167 12.5986 17.6611 12.3317 18.333 12.3317C19.0049 12.3317 19.6492 12.5986 20.1243 13.0737C20.5994 13.5488 20.8663 14.1931 20.8663 14.865C20.8663 15.5369 20.5994 16.1812 20.1243 16.6563C19.6492 17.1314 19.0049 17.3983 18.333 17.3983C17.6611 17.3983 17.0167 17.1314 16.5416 16.6563C16.0665 16.1812 15.7996 15.5369 15.7996 14.865ZM18.333 13.5983C17.997 13.5983 17.6748 13.7318 17.4373 13.9693C17.1998 14.2069 17.0663 14.5291 17.0663 14.865C17.0663 15.2009 17.1998 15.5231 17.4373 15.7607C17.6748 15.9982 17.997 16.1317 18.333 16.1317C18.6689 16.1317 18.9911 15.9982 19.2286 15.7607C19.4662 15.5231 19.5996 15.2009 19.5996 14.865C19.5996 14.5291 19.4662 14.2069 19.2286 13.9693C18.9911 13.7318 18.6689 13.5983 18.333 13.5983ZM18.333 18.0317C16.642 18.0317 13.2663 18.9576 13.2663 20.7955V22.465H7.56629C7.10459 22.465 6.80502 22.2984 6.61439 22.0837C6.41362 21.8576 6.29962 21.5384 6.29962 21.1983V18.9272L8.38519 21.0128L9.28072 20.1172L5.66628 16.5028L2.05185 20.1172L2.94738 21.0128L5.03295 18.9272V21.1983C5.03295 21.8082 5.23562 22.439 5.66818 22.9254C6.11089 23.4232 6.76132 23.7317 7.56629 23.7317H23.3996V20.7955C23.3996 18.9576 20.024 18.0317 18.333 18.0317ZM14.7192 20.4808C14.5399 20.6613 14.533 20.7601 14.533 20.7955V22.465H22.133V20.7955C22.133 20.7601 22.1266 20.6613 21.9468 20.4808C21.7568 20.2889 21.4369 20.0792 20.993 19.8854C20.0987 19.4934 19.0043 19.2983 18.333 19.2983C17.6616 19.2983 16.5672 19.4947 15.673 19.8848C15.229 20.0786 14.9098 20.2889 14.7192 20.4808Z" fill="#039AE4"/>
</svg>
