<svg width="25" height="25" viewBox="0 0 25 25" fill="none" xmlns="http://www.w3.org/2000/svg">
<path fill-rule="evenodd" clip-rule="evenodd" d="M12.4999 2.5C13.0522 2.5 13.4999 2.94772 13.4999 3.5V4.5C13.4999 5.05228 13.0522 5.5 12.4999 5.5C11.9477 5.5 11.4999 5.05228 11.4999 4.5V3.5C11.4999 2.94772 11.9477 2.5 12.4999 2.5ZM5.42888 5.42893C5.8194 5.03841 6.45257 5.03841 6.84309 5.42893L7.5502 6.13604C7.94072 6.52656 7.94072 7.15973 7.5502 7.55025C7.15967 7.94078 6.52651 7.94078 6.13599 7.55025L5.42888 6.84315C5.03835 6.45262 5.03835 5.81946 5.42888 5.42893ZM19.571 5.42893C19.9615 5.81946 19.9615 6.45262 19.571 6.84315L18.8639 7.55025C18.4734 7.94078 17.8402 7.94078 17.4497 7.55025C17.0592 7.15973 17.0592 6.52656 17.4497 6.13604L18.1568 5.42893C18.5473 5.03841 19.1805 5.03841 19.571 5.42893ZM9.67152 9.6716C8.10942 11.2337 8.10942 13.7664 9.67152 15.3285L10.2186 15.8755C10.4116 16.0686 10.5848 16.2778 10.7367 16.5H14.2632C14.4151 16.2778 14.5882 16.0686 14.7813 15.8755L15.3284 15.3285C16.8905 13.7664 16.8905 11.2337 15.3284 9.6716C13.7663 8.1095 11.2336 8.1095 9.67152 9.6716ZM15.7448 17.9187C15.8586 17.688 16.0101 17.4751 16.1955 17.2898L16.7426 16.7427C19.0857 14.3995 19.0857 10.6005 16.7426 8.25738C14.3994 5.91424 10.6005 5.91424 8.25731 8.25738C5.91416 10.6005 5.91416 14.3995 8.25731 16.7427L8.8044 17.2898C8.98976 17.4751 9.14131 17.688 9.25509 17.9187C9.26009 17.9295 9.26527 17.9403 9.27064 17.9509C9.42021 18.2661 9.49995 18.6134 9.49995 18.969V19.5C9.49995 21.1569 10.8431 22.5 12.4999 22.5C14.1568 22.5 15.4999 21.1569 15.4999 19.5V18.969C15.4999 18.6134 15.5797 18.2661 15.7292 17.9509C15.7346 17.9403 15.7398 17.9295 15.7448 17.9187ZM13.5251 18.5H11.4748C11.4915 18.655 11.4999 18.8116 11.4999 18.969V19.5C11.4999 20.0523 11.9477 20.5 12.4999 20.5C13.0522 20.5 13.4999 20.0523 13.4999 19.5V18.969C13.4999 18.8116 13.5084 18.655 13.5251 18.5ZM2.5 12.4999C2.5 11.9477 2.94772 11.4999 3.5 11.4999H4.5C5.05228 11.4999 5.5 11.9477 5.5 12.4999C5.5 13.0522 5.05228 13.4999 4.5 13.4999H3.5C2.94772 13.4999 2.5 13.0522 2.5 12.4999ZM19.5 12.4999C19.5 11.9477 19.9477 11.4999 20.5 11.4999H21.5C22.0523 11.4999 22.5 11.9477 22.5 12.4999C22.5 13.0522 22.0523 13.4999 21.5 13.4999H20.5C19.9477 13.4999 19.5 13.0522 19.5 12.4999Z" fill="#121826"/>
</svg>
