<svg width="50" height="52" viewBox="0 0 50 52" fill="none" xmlns="http://www.w3.org/2000/svg">
<rect x="23.9585" width="2.08333" height="12.963" rx="1.04167" fill="#039AE4"/>
<rect y="27.0059" width="2.16049" height="12.5" rx="1.08025" transform="rotate(-90 0 27.0059)" fill="#039AE4" fill-opacity="0.6"/>
<rect width="2.10289" height="12.8488" rx="1.05144" transform="matrix(-0.857972 -0.513697 0.486427 -0.873721 13.4023 48.9199)" fill="#039AE4" fill-opacity="0.8"/>
<rect width="2.10289" height="12.8488" rx="1.05144" transform="matrix(-0.857972 0.513697 -0.486427 -0.873721 38.4019 47.8379)" fill="#039AE4"/>
<rect width="2.14146" height="12.6173" rx="1.07073" transform="matrix(-0.486427 0.873721 -0.857972 -0.513697 47.1714 37.9551)" fill="#039AE4"/>
<rect width="2.14146" height="12.6173" rx="1.07073" transform="matrix(0.486427 0.873721 -0.857972 0.513697 46.1299 12.0273)" fill="#039AE4"/>
<rect x="26.042" y="51.8496" width="2.08333" height="12.963" rx="1.04167" transform="rotate(180 26.042 51.8496)" fill="#039AE4"/>
<rect x="50" y="24.8457" width="2.16049" height="12.5" rx="1.08025" transform="rotate(90 50 24.8457)" fill="#039AE4"/>
<rect width="2.10289" height="12.8488" rx="1.05144" transform="matrix(0.857972 0.513697 -0.486427 0.873721 36.5981 2.93359)" fill="#039AE4"/>
<rect width="2.10289" height="12.8488" rx="1.05144" transform="matrix(0.857972 -0.513697 0.486427 0.873721 11.5981 4.01367)" fill="#039AE4"/>
<rect width="2.14146" height="12.6173" rx="1.07073" transform="matrix(0.486427 -0.873721 0.857972 0.513697 2.82861 13.8984)" fill="#039AE4" fill-opacity="0.5"/>
<rect width="2.14146" height="12.6173" rx="1.07073" transform="matrix(-0.486427 -0.873721 0.857972 -0.513697 3.87012 39.8262)" fill="#039AE4" fill-opacity="0.7"/>
</svg>
