<svg width="14" height="14" viewBox="0 0 14 14" fill="none" xmlns="http://www.w3.org/2000/svg">
<g clip-path="url(#clip0_205_2688)">
<path fill-rule="evenodd" clip-rule="evenodd" d="M9.997 0.220454C10.102 0.115162 10.2359 0.0434497 10.3817 0.014427C10.5275 -0.0145958 10.6787 0.00038065 10.816 0.0574538L12.943 0.939454C13.1264 1.01519 13.2724 1.16054 13.3488 1.34367C13.4253 1.52679 13.4261 1.73276 13.351 1.91645L12.482 4.04345C12.4259 4.1808 12.3302 4.29841 12.2072 4.3814C12.0842 4.46439 11.9394 4.50903 11.791 4.50967C11.6426 4.51031 11.4974 4.46693 11.3737 4.38501C11.25 4.30309 11.1533 4.18631 11.096 4.04945L10.753 3.22945L2.115 6.92045C2.02439 6.95919 1.92703 6.97971 1.82849 6.98082C1.72995 6.98194 1.63216 6.96363 1.54069 6.92695C1.44923 6.89028 1.36588 6.83594 1.29541 6.76705C1.22495 6.69816 1.16874 6.61607 1.13 6.52545C1.09126 6.43484 1.07075 6.33749 1.06963 6.23895C1.06852 6.14041 1.08682 6.04261 1.1235 5.95115C1.16018 5.85968 1.21451 5.77634 1.2834 5.70587C1.35229 5.6354 1.43439 5.57919 1.525 5.54045L10.174 1.84545L9.837 1.04045C9.77934 0.903316 9.76376 0.752127 9.79225 0.606112C9.82074 0.460097 9.89201 0.325854 9.997 0.220454ZM12.75 5.48045C13.0152 5.48045 13.2696 5.58581 13.4571 5.77335C13.6446 5.96088 13.75 6.21524 13.75 6.48045V13.4805C13.75 13.6131 13.6973 13.7402 13.6036 13.834C13.5098 13.9278 13.3826 13.9805 13.25 13.9805H10.75C10.6174 13.9805 10.4902 13.9278 10.3964 13.834C10.3027 13.7402 10.25 13.6131 10.25 13.4805V6.48045C10.25 6.21524 10.3554 5.96088 10.5429 5.77335C10.7304 5.58581 10.9848 5.48045 11.25 5.48045H12.75ZM8.457 7.27245C8.26934 7.08527 8.01505 6.98025 7.75 6.98045H6.25C5.98478 6.98045 5.73043 7.08581 5.54289 7.27335C5.35536 7.46088 5.25 7.71524 5.25 7.98045V13.4805C5.25 13.6131 5.30268 13.7402 5.39645 13.834C5.49021 13.9278 5.61739 13.9805 5.75 13.9805H8.25C8.38261 13.9805 8.50979 13.9278 8.60355 13.834C8.69732 13.7402 8.75 13.6131 8.75 13.4805V7.98045C8.7501 7.84897 8.72428 7.71876 8.674 7.59728C8.62372 7.47579 8.54998 7.36541 8.457 7.27245ZM2.75 8.48045C3.01522 8.48045 3.26957 8.58581 3.45711 8.77335C3.64464 8.96088 3.75 9.21524 3.75 9.48045V13.4805C3.75 13.6131 3.69732 13.7402 3.60355 13.834C3.50979 13.9278 3.38261 13.9805 3.25 13.9805H0.75C0.617392 13.9805 0.490215 13.9278 0.396447 13.834C0.302678 13.7402 0.25 13.6131 0.25 13.4805V9.48045C0.25 9.21524 0.355357 8.96088 0.542893 8.77335C0.73043 8.58581 0.984784 8.48045 1.25 8.48045H2.75Z" fill="#1FAF38"/>
</g>
<defs>
<clipPath id="clip0_205_2688">
<rect width="14" height="14" fill="white"/>
</clipPath>
</defs>
</svg>
