<svg width="32" height="31" viewBox="0 0 32 31" fill="none" xmlns="http://www.w3.org/2000/svg">
<path d="M17.9002 14.0639C19.076 14.0639 20.2036 13.5969 21.035 12.7655C21.8664 11.934 22.3335 10.8064 22.3335 9.63061C22.3335 8.45481 21.8664 7.32717 21.035 6.49576C20.2036 5.66435 19.076 5.19727 17.9002 5.19727M17.448 25.464H5.6857C4.3861 25.464 3.3335 24.4924 3.3335 23.2929C3.3335 20.2947 5.9669 17.864 9.21464 17.864H13.919C15.1782 17.8594 16.409 18.238 17.448 18.9495M24.8669 17.864V25.464M28.6669 21.664H21.0669M16.0002 9.63061C16.0002 10.8064 15.5331 11.934 14.7017 12.7655C13.8703 13.5969 12.7426 14.0639 11.5668 14.0639C10.391 14.0639 9.26341 13.5969 8.432 12.7655C7.60059 11.934 7.1335 10.8064 7.1335 9.63061C7.1335 8.45481 7.60059 7.32717 8.432 6.49576C9.26341 5.66435 10.391 5.19727 11.5668 5.19727C12.7426 5.19727 13.8703 5.66435 14.7017 6.49576C15.5331 7.32717 16.0002 8.45481 16.0002 9.63061Z" stroke="#039AE4" stroke-width="1.5" stroke-linecap="round" stroke-linejoin="round"/>
</svg>
