<svg width="24" height="24" viewBox="0 0 24 24" fill="none" xmlns="http://www.w3.org/2000/svg">
<path fill-rule="evenodd" clip-rule="evenodd" d="M2.59972 5.99932C6.20964 5.95035 9.49873 4.57303 12.0004 2.33398C14.5021 4.57303 17.7911 5.95035 21.4011 5.99932C21.5322 6.78025 21.6004 7.58249 21.6004 8.40067C21.6004 14.6705 17.5933 20.0044 12.0004 21.9812C6.40747 20.0044 2.40039 14.6705 2.40039 8.40067C2.40039 7.58249 2.46863 6.78025 2.59972 5.99932ZM16.4489 10.4492C16.9175 9.98053 16.9175 9.22074 16.4489 8.75211C15.9803 8.28348 15.2205 8.28348 14.7519 8.75211L10.8004 12.7036L9.24892 11.1521C8.78029 10.6835 8.02049 10.6835 7.55186 11.1521C7.08323 11.6207 7.08323 12.3805 7.55186 12.8492L9.95186 15.2492C10.4205 15.7178 11.1803 15.7178 11.6489 15.2492L16.4489 10.4492Z" fill="#121826"/>
</svg>
