<svg width="25" height="25" viewBox="0 0 25 25" fill="none" xmlns="http://www.w3.org/2000/svg">
<path fill-rule="evenodd" clip-rule="evenodd" d="M6.18014 7.59436C5.12708 8.94904 4.5 10.6513 4.5 12.5C4.5 14.3487 5.12708 16.051 6.18014 17.4056L8.3284 15.2574C7.80488 14.467 7.5 13.5191 7.5 12.5C7.5 11.4809 7.80488 10.533 8.3284 9.74261L6.18014 7.59436ZM7.59436 6.18014L9.74261 8.3284C10.533 7.80488 11.4809 7.5 12.5 7.5C13.5191 7.5 14.467 7.80488 15.2574 8.3284L17.4056 6.18014C16.051 5.12708 14.3487 4.5 12.5 4.5C10.6513 4.5 8.94904 5.12708 7.59436 6.18014ZM18.8199 7.59436L16.6716 9.74261C17.1951 10.533 17.5 11.4809 17.5 12.5C17.5 13.5191 17.1951 14.467 16.6716 15.2574L18.8199 17.4056C19.8729 16.051 20.5 14.3487 20.5 12.5C20.5 10.6513 19.8729 8.94904 18.8199 7.59436ZM17.4056 18.8199L15.2574 16.6716C14.467 17.1951 13.5191 17.5 12.5 17.5C11.4809 17.5 10.533 17.1951 9.74261 16.6716L7.59436 18.8199C8.94904 19.8729 10.6513 20.5 12.5 20.5C14.3487 20.5 16.051 19.8729 17.4056 18.8199ZM2.5 12.5C2.5 6.97715 6.97715 2.5 12.5 2.5C18.0228 2.5 22.5 6.97715 22.5 12.5C22.5 18.0228 18.0228 22.5 12.5 22.5C6.97715 22.5 2.5 18.0228 2.5 12.5ZM9.5 12.5C9.5 14.1569 10.8431 15.5 12.5 15.5C14.1569 15.5 15.5 14.1569 15.5 12.5C15.5 10.8431 14.1569 9.5 12.5 9.5C10.8431 9.5 9.5 10.8431 9.5 12.5Z" fill="#121826"/>
</svg>
