<svg width="25" height="25" viewBox="0 0 25 25" fill="none" xmlns="http://www.w3.org/2000/svg">
<path d="M12.5 4.26953L11.75 5.10953C11.75 5.10953 10.47 6.55953 9.18 8.43953C7.89 10.3195 6.5 12.5695 6.5 14.7295C6.5 16.3208 7.13214 17.847 8.25736 18.9722C9.38258 20.0974 10.9087 20.7295 12.5 20.7295C14.0913 20.7295 15.6174 20.0974 16.7426 18.9722C17.8679 17.847 18.5 16.3208 18.5 14.7295C18.5 12.5695 17.11 10.3195 15.82 8.43953C14.53 6.55953 13.25 5.10953 13.25 5.10953L12.5 4.26953ZM12.5 7.39953C12.94 7.91953 13.34 8.34953 14.18 9.56953C15.39 11.3295 16.5 13.5695 16.5 14.7295C16.5 16.9495 14.72 18.7295 12.5 18.7295C10.28 18.7295 8.5 16.9495 8.5 14.7295C8.5 13.5695 9.61 11.3295 10.82 9.56953C11.66 8.34953 12.06 7.91953 12.5 7.39953Z" fill="#121826"/>
</svg>
