<svg width="25" height="24" viewBox="0 0 25 24" fill="none" xmlns="http://www.w3.org/2000/svg">
<g clip-path="url(#clip0_271_1949)">
<path fill-rule="evenodd" clip-rule="evenodd" d="M22.3997 10.1005C16.9323 4.63316 8.068 4.63316 2.60066 10.1005C2.21014 10.491 1.57697 10.491 1.18645 10.1005C0.795924 9.70998 0.795924 9.07681 1.18645 8.68629C7.43484 2.4379 17.5655 2.4379 23.8139 8.68629C24.2044 9.07682 24.2044 9.70998 23.8139 10.1005C23.4233 10.491 22.7902 10.491 22.3997 10.1005ZM18.8642 13.6361C15.3494 10.1213 9.65095 10.1213 6.13623 13.6361C5.74571 14.0266 5.11254 14.0266 4.72202 13.6361C4.3315 13.2455 4.3315 12.6124 4.72202 12.2218C9.01779 7.92607 15.9826 7.92607 20.2784 12.2218C20.6689 12.6124 20.6689 13.2455 20.2784 13.6361C19.8878 14.0266 19.2547 14.0266 18.8642 13.6361ZM15.6821 17.111C13.9248 15.3536 11.0755 15.3536 9.31818 17.111C8.92765 17.5015 8.29449 17.5015 7.90396 17.111C7.51344 16.7204 7.51344 16.0873 7.90396 15.6968C10.4424 13.1584 14.5579 13.1584 17.0963 15.6968C17.4869 16.0873 17.4869 16.7204 17.0963 17.111C16.7058 17.5015 16.0727 17.5015 15.6821 17.111ZM11.5002 20C11.5002 19.4477 11.9479 19 12.5002 19H12.5102C13.0624 19 13.5102 19.4477 13.5102 20C13.5102 20.5523 13.0624 21 12.5102 21H12.5002C11.9479 21 11.5002 20.5523 11.5002 20Z" fill="#121826"/>
</g>
<defs>
<clipPath id="clip0_271_1949">
<rect width="24" height="24" fill="white" transform="translate(0.5)"/>
</clipPath>
</defs>
</svg>
