<svg width="24" height="24" viewBox="0 0 24 24" fill="none" xmlns="http://www.w3.org/2000/svg">
<path d="M4.80039 4.80078C3.47491 4.80078 2.40039 5.8753 2.40039 7.20078V12.0008C2.40039 13.3263 3.47491 14.4008 4.80039 14.4008L4.80039 7.20078H16.8004C16.8004 5.8753 15.7259 4.80078 14.4004 4.80078H4.80039Z" fill="#121826"/>
<path fill-rule="evenodd" clip-rule="evenodd" d="M7.20039 12.0008C7.20039 10.6753 8.27491 9.60078 9.60039 9.60078H19.2004C20.5259 9.60078 21.6004 10.6753 21.6004 12.0008V16.8008C21.6004 18.1263 20.5259 19.2008 19.2004 19.2008H9.60039C8.27491 19.2008 7.20039 18.1263 7.20039 16.8008V12.0008ZM14.4004 16.8008C15.7259 16.8008 16.8004 15.7263 16.8004 14.4008C16.8004 13.0753 15.7259 12.0008 14.4004 12.0008C13.0749 12.0008 12.0004 13.0753 12.0004 14.4008C12.0004 15.7263 13.0749 16.8008 14.4004 16.8008Z" fill="#121826"/>
</svg>
