<svg width="56" height="56" viewBox="0 0 56 56" fill="none" xmlns="http://www.w3.org/2000/svg">
<path d="M56 42.8291H0V42.8571H56V42.8291Z" fill="#EBEBEB"/>
<path d="M50.3891 44.6309H46.6797V44.6589H50.3891V44.6309Z" fill="#EBEBEB"/>
<path d="M37.0963 44.9355H36.123V44.9635H37.0963V44.9355Z" fill="#EBEBEB"/>
<path d="M46.5672 43.5918H44.418V43.6198H46.5672V43.5918Z" fill="#EBEBEB"/>
<path d="M10.7133 43.7803H5.87598V43.8083H10.7133V43.7803Z" fill="#EBEBEB"/>
<path d="M12.4199 43.7803H11.7109V43.8083H12.4199V43.7803Z" fill="#EBEBEB"/>
<path d="M25.2168 44.2529H14.7246V44.2809H25.2168V44.2529Z" fill="#EBEBEB"/>
<path d="M26.5438 37.8338H4.9177C4.74828 37.8335 4.5859 37.766 4.46621 37.6461C4.34652 37.5261 4.2793 37.3637 4.2793 37.1942V6.79408C4.28077 6.62563 4.34865 6.46457 4.46818 6.34588C4.58771 6.22718 4.74925 6.16044 4.9177 6.16016H26.5438C26.7134 6.16016 26.8761 6.22753 26.996 6.34747C27.1159 6.4674 27.1833 6.63006 27.1833 6.79968V37.1942C27.1833 37.3638 27.1159 37.5265 26.996 37.6464C26.8761 37.7664 26.7134 37.8338 26.5438 37.8338ZM4.9177 6.18256C4.75571 6.18285 4.60045 6.24741 4.48601 6.36206C4.37157 6.47671 4.3073 6.63208 4.3073 6.79408V37.1942C4.3073 37.3562 4.37157 37.5116 4.48601 37.6263C4.60045 37.7409 4.75571 37.8055 4.9177 37.8058H26.5438C26.7059 37.8055 26.8612 37.7409 26.9759 37.6263C27.0905 37.5117 27.155 37.3563 27.1553 37.1942V6.79408C27.155 6.63198 27.0905 6.47661 26.9759 6.36199C26.8612 6.24738 26.7059 6.18285 26.5438 6.18256H4.9177Z" fill="#EBEBEB"/>
<path d="M50.7706 37.8338H29.1434C28.9739 37.8335 28.8114 37.766 28.6915 37.6461C28.5717 37.5263 28.5042 37.3638 28.5039 37.1942V6.79408C28.5057 6.62553 28.5738 6.46447 28.6935 6.34581C28.8132 6.22714 28.9749 6.16044 29.1434 6.16016H50.7706C50.9389 6.16074 51.1001 6.22761 51.2194 6.34627C51.3387 6.46493 51.4064 6.62582 51.4079 6.79408V37.1942C51.4079 37.3635 51.3408 37.5258 51.2214 37.6457C51.1019 37.7655 50.9398 37.8332 50.7706 37.8338ZM29.1434 6.18256C28.9813 6.18285 28.826 6.24738 28.7113 6.36199C28.5967 6.47661 28.5322 6.63198 28.5319 6.79408V37.1942C28.5322 37.3563 28.5967 37.5117 28.7113 37.6263C28.826 37.7409 28.9813 37.8055 29.1434 37.8058H50.7706C50.9327 37.8055 51.0881 37.7409 51.2027 37.6263C51.3173 37.5117 51.3818 37.3563 51.3821 37.1942V6.79408C51.3818 6.63198 51.3173 6.47661 51.2027 6.36199C51.0881 6.24738 50.9327 6.18285 50.7706 6.18256H29.1434Z" fill="#EBEBEB"/>
<path d="M48.6058 10.2646H6.18359V25.08H48.6058V10.2646Z" fill="#E6E6E6"/>
<path d="M49.175 10.2646H6.44922V25.08H49.175V10.2646Z" fill="#F0F0F0"/>
<path d="M48.6058 25.0801H6.18359V25.6076H48.6058V25.0801Z" fill="#E6E6E6"/>
<path d="M49.5148 25.0801H6.78906V25.6076H49.5148V25.0801Z" fill="#F0F0F0"/>
<path d="M48.3779 24.2855V11.0605L7.24369 11.0605V24.2855H48.3779Z" fill="#FAFAFA"/>
<path d="M33.4053 24.2855L34.6787 11.0605H36.8829L35.6083 24.2855H33.4053Z" fill="white"/>
<path d="M20.3975 24.2855L21.6709 11.0605H23.8739L22.6005 24.2855H20.3975Z" fill="white"/>
<path d="M7.78641 22.1598C7.76561 22.1598 7.74567 22.1516 7.73097 22.1369C7.71627 22.1222 7.70801 22.1022 7.70801 22.0814V11.596C7.70801 11.5752 7.71627 11.5552 7.73097 11.5405C7.74567 11.5258 7.76561 11.5176 7.78641 11.5176C7.8072 11.5176 7.82714 11.5258 7.84185 11.5405C7.85655 11.5552 7.86481 11.5752 7.86481 11.596V22.0814C7.86481 22.1022 7.85655 22.1222 7.84185 22.1369C7.82714 22.1516 7.8072 22.1598 7.78641 22.1598Z" fill="#F0F0F0"/>
<path d="M36.082 24.2855L37.3555 11.0605H38.2145L36.9411 24.2855H36.082Z" fill="white"/>
<path d="M48.3799 24.2865V11.0615H48.2791V24.2865H48.3799Z" fill="#E6E6E6"/>
<path opacity="0.5" d="M49.3633 12.0187H6.94111L6.86719 11.3691H49.2894L49.3633 12.0187Z" fill="#E0E0E0"/>
<path opacity="0.5" d="M49.3633 13.085H6.94111L6.86719 12.4365H49.2894L49.3633 13.085Z" fill="#E0E0E0"/>
<path opacity="0.5" d="M49.3633 14.1525H6.94111L6.86719 13.5029H49.2894L49.3633 14.1525Z" fill="#E0E0E0"/>
<path opacity="0.5" d="M49.3633 15.2188H6.94111L6.86719 14.5703H49.2894L49.3633 15.2188Z" fill="#E0E0E0"/>
<path opacity="0.5" d="M49.3633 16.2852H6.94111L6.86719 15.6367H49.2894L49.3633 16.2852Z" fill="#E0E0E0"/>
<path opacity="0.5" d="M49.3633 17.3527H6.94111L6.86719 16.7031H49.2894L49.3633 17.3527Z" fill="#E0E0E0"/>
<path d="M32.8375 38.2775H39.2215C39.3217 38.2772 39.4176 38.2374 39.4885 38.1667C39.5594 38.096 39.5995 38.0002 39.6001 37.9C39.5998 37.7997 39.5598 37.7036 39.4889 37.6327C39.418 37.5618 39.3219 37.5218 39.2215 37.5215H32.8375C32.7372 37.5218 32.6411 37.5618 32.5702 37.6327C32.4993 37.7036 32.4593 37.7997 32.459 37.9C32.4596 38.0002 32.4997 38.096 32.5706 38.1667C32.6415 38.2374 32.7374 38.2772 32.8375 38.2775Z" fill="#EBEBEB"/>
<path d="M40.1885 37.5213H40.4013L41.211 32.2383H40.9982L40.1885 37.5213Z" fill="#E0E0E0"/>
<path d="M36.9502 37.5213H37.1619L37.9716 32.2383H37.76L36.9502 37.5213Z" fill="#E0E0E0"/>
<path d="M36.9406 36.4596H41.1036C41.2429 36.4551 41.3763 36.4025 41.4812 36.3109C41.5861 36.2192 41.6561 36.0941 41.6793 35.9567L42.3143 31.545C42.3259 31.4827 42.3233 31.4185 42.3069 31.3572C42.2904 31.296 42.2605 31.2392 42.2193 31.191C42.1781 31.1428 42.1266 31.1044 42.0686 31.0786C42.0107 31.0529 41.9477 31.0404 41.8843 31.0421H37.7201C37.5809 31.0467 37.4475 31.0992 37.3425 31.1909C37.2376 31.2825 37.1676 31.4077 37.1444 31.545L36.5116 35.9522C36.4996 36.0148 36.5017 36.0793 36.5178 36.1409C36.5339 36.2026 36.5636 36.2598 36.6048 36.3085C36.6459 36.3572 36.6974 36.396 36.7555 36.4221C36.8136 36.4483 36.8769 36.4611 36.9406 36.4596Z" fill="#EBEBEB"/>
<path d="M37.5562 38.2775H40.476C40.576 38.2772 40.6718 38.2373 40.7426 38.1666C40.8133 38.0959 40.8531 38.0001 40.8534 37.9C40.8531 37.7999 40.8133 37.704 40.7426 37.6331C40.6719 37.5622 40.5761 37.5221 40.476 37.5215H37.5562C37.4559 37.5218 37.3599 37.5618 37.2892 37.6328C37.2184 37.7037 37.1787 37.7998 37.1787 37.9C37.179 38.0001 37.2189 38.0959 37.2896 38.1666C37.3603 38.2373 37.4561 38.2772 37.5562 38.2775Z" fill="#F5F5F5"/>
<path d="M35.9668 42.829H36.1796L36.9894 38.2773H36.7766L35.9668 42.829Z" fill="#E0E0E0"/>
<path d="M32.2861 42.829H32.4978L33.3076 38.2773H33.0959L32.2861 42.829Z" fill="#E0E0E0"/>
<path d="M37.3916 42.829H37.1799L36.3701 38.2773H36.5818L37.3916 42.829Z" fill="#E0E0E0"/>
<path d="M41.0724 42.829H40.8596L40.0498 38.2773H40.2626L41.0724 42.829Z" fill="#E0E0E0"/>
<path d="M13.8775 38.2776H7.50356C7.40344 38.2773 7.3075 38.2375 7.2366 38.1668C7.1657 38.0961 7.12559 38.0003 7.125 37.9002C7.125 37.7997 7.16485 37.7033 7.23581 37.6321C7.30677 37.5609 7.40306 37.5208 7.50356 37.5205H13.8876C13.9879 37.5208 14.084 37.5608 14.1549 37.6317C14.2258 37.7026 14.2658 37.7988 14.2661 37.8991C14.266 37.9496 14.2558 37.9996 14.2361 38.0461C14.2164 38.0926 14.1876 38.1348 14.1514 38.17C14.1152 38.2053 14.0723 38.233 14.0253 38.2514C13.9782 38.2699 13.928 38.2788 13.8775 38.2776Z" fill="#EBEBEB"/>
<path d="M6.52647 37.5213H6.31367L5.50391 32.2383H5.71671L6.52647 37.5213Z" fill="#E0E0E0"/>
<path d="M9.76558 37.5213H9.5539L8.74414 32.2383H8.95582L9.76558 37.5213Z" fill="#E0E0E0"/>
<path d="M9.77496 36.4592H5.61417C5.47446 36.4542 5.34081 36.4009 5.23603 36.3084C5.13125 36.2159 5.06182 36.0898 5.03961 35.9518L4.40457 31.5401C4.39302 31.4778 4.39557 31.4136 4.41202 31.3524C4.42846 31.2911 4.45839 31.2343 4.49962 31.1861C4.54084 31.1379 4.59232 31.0995 4.65029 31.0738C4.70825 31.048 4.77124 31.0355 4.83464 31.0373H8.99432C9.13357 31.0418 9.26697 31.0943 9.3719 31.186C9.47682 31.2776 9.54681 31.4028 9.57 31.5401L10.205 35.9518C10.2171 36.0145 10.215 36.0791 10.1988 36.1408C10.1826 36.2025 10.1528 36.2599 10.1115 36.3085C10.0703 36.3572 10.0186 36.396 9.96037 36.4221C9.90212 36.4482 9.83876 36.4608 9.77496 36.4592Z" fill="#EBEBEB"/>
<path d="M9.15958 38.2776H6.23974C6.13973 38.2773 6.0439 38.2375 5.97318 38.1668C5.90246 38.096 5.8626 38.0002 5.8623 37.9002C5.8623 37.7999 5.902 37.7036 5.97272 37.6325C6.04344 37.5614 6.13944 37.5211 6.23974 37.5205H9.15958C9.25979 37.5208 9.35579 37.5608 9.42654 37.6318C9.49729 37.7027 9.53703 37.7989 9.53702 37.8991C9.53703 37.9993 9.49729 38.0954 9.42654 38.1664C9.35579 38.2373 9.25979 38.2773 9.15958 38.2776Z" fill="#F5F5F5"/>
<path d="M10.7491 42.829H10.5363L9.72656 38.2773H9.93936L10.7491 42.829Z" fill="#E0E0E0"/>
<path d="M14.4288 42.829H14.2171L13.4062 38.2773H13.6191L14.4288 42.829Z" fill="#E0E0E0"/>
<path d="M9.32422 42.829H9.5359L10.3457 38.2773H10.134L9.32422 42.829Z" fill="#E0E0E0"/>
<path d="M5.64258 42.829H5.85538L6.66514 38.2773H6.45234L5.64258 42.829Z" fill="#E0E0E0"/>
<path d="M39.7518 38.2776H33.3756C33.2755 38.2773 33.1796 38.2375 33.1087 38.1668C33.0378 38.0961 32.9977 38.0003 32.9971 37.9002C32.9971 37.7997 33.0369 37.7033 33.1079 37.6321C33.1788 37.5609 33.2751 37.5208 33.3756 37.5205H39.7596C39.8599 37.5208 39.9561 37.5608 40.027 37.6317C40.0979 37.7026 40.1379 37.7988 40.1382 37.8991C40.1381 37.9494 40.1279 37.9992 40.1083 38.0456C40.0888 38.092 40.0602 38.134 40.0242 38.1692C39.9883 38.2044 39.9457 38.2322 39.8989 38.2508C39.8521 38.2694 39.8021 38.2785 39.7518 38.2776Z" fill="#EBEBEB"/>
<path d="M32.3994 37.5213H32.1877L31.3779 32.2383H31.5896L32.3994 37.5213Z" fill="#E0E0E0"/>
<path d="M35.6397 37.5213H35.4269L34.6172 32.2383H34.83L35.6397 37.5213Z" fill="#E0E0E0"/>
<path d="M35.6482 36.4592H31.4885C31.3483 36.4549 31.214 36.402 31.1087 36.3093C31.0035 36.2167 30.9338 36.0903 30.9117 35.9518L30.2766 31.5401C30.2651 31.4778 30.2676 31.4136 30.2841 31.3524C30.3005 31.2911 30.3305 31.2343 30.3717 31.1861C30.4129 31.1379 30.4644 31.0995 30.5224 31.0738C30.5803 31.048 30.6433 31.0355 30.7067 31.0373H34.8664C35.0057 31.0416 35.1392 31.094 35.2442 31.1857C35.3492 31.2774 35.4191 31.4027 35.4421 31.5401L36.0782 35.9518C36.0905 36.0145 36.0886 36.0792 36.0725 36.141C36.0564 36.2028 36.0266 36.2602 35.9853 36.309C35.9439 36.3577 35.8922 36.3965 35.8338 36.4225C35.7755 36.4485 35.712 36.4611 35.6482 36.4592Z" fill="#EBEBEB"/>
<path d="M35.0337 38.2775H32.1139C32.0138 38.2772 31.9178 38.2374 31.8469 38.1667C31.7761 38.096 31.7359 38.0002 31.7354 37.9C31.7356 37.7997 31.7756 37.7036 31.8466 37.6327C31.9175 37.5618 32.0136 37.5218 32.1139 37.5215H35.0337C35.1339 37.5221 35.2297 37.5622 35.3004 37.6331C35.3711 37.704 35.4109 37.7999 35.4112 37.9C35.4109 38.0001 35.371 38.0959 35.3003 38.1666C35.2296 38.2373 35.1338 38.2772 35.0337 38.2775Z" fill="#F5F5F5"/>
<path d="M36.6231 42.829H36.4103L35.6006 38.2773H35.8123L36.6231 42.829Z" fill="#E0E0E0"/>
<path d="M40.3028 42.829H40.09L39.2803 38.2773H39.4931L40.3028 42.829Z" fill="#E0E0E0"/>
<path d="M35.1973 42.829H35.4101L36.2198 38.2773H36.007L35.1973 42.829Z" fill="#E0E0E0"/>
<path d="M31.5166 42.829H31.7283L32.5392 38.2773H32.3264L31.5166 42.829Z" fill="#E0E0E0"/>
<path d="M42.3991 38.2775H48.7831C48.8832 38.2772 48.9791 38.2374 49.05 38.1667C49.1209 38.096 49.161 38.0002 49.1616 37.9C49.1613 37.7997 49.1214 37.7036 49.0504 37.6327C48.9795 37.5618 48.8834 37.5218 48.7831 37.5215H42.3991C42.2988 37.5218 42.2026 37.5618 42.1317 37.6327C42.0608 37.7036 42.0208 37.7997 42.0205 37.9C42.0211 38.0002 42.0612 38.096 42.1321 38.1667C42.203 38.2374 42.299 38.2772 42.3991 38.2775Z" fill="#EBEBEB"/>
<path d="M49.75 37.5213H49.9628L50.7726 32.2383H50.5609L49.75 37.5213Z" fill="#E0E0E0"/>
<path d="M46.5117 37.5213H46.7234L47.5343 32.2383H47.3215L46.5117 37.5213Z" fill="#E0E0E0"/>
<path d="M46.5024 36.4596H50.6621C50.8013 36.4551 50.9347 36.4025 51.0397 36.3109C51.1446 36.2192 51.2146 36.0941 51.2378 35.9567L51.8728 31.545C51.8843 31.4827 51.8818 31.4185 51.8653 31.3572C51.8489 31.296 51.819 31.2392 51.7777 31.191C51.7365 31.1428 51.685 31.1044 51.6271 31.0786C51.5691 31.0529 51.5061 31.0404 51.4427 31.0421H47.2819C47.1427 31.0465 47.0094 31.099 46.9046 31.1907C46.7998 31.2824 46.7301 31.4077 46.7074 31.545L46.0712 35.9522C46.0591 36.015 46.0612 36.0797 46.0775 36.1415C46.0937 36.2033 46.1237 36.2607 46.165 36.3094C46.2064 36.3581 46.2582 36.3969 46.3166 36.4229C46.375 36.4489 46.4385 36.4614 46.5024 36.4596Z" fill="#EBEBEB"/>
<path d="M47.1177 38.2775H50.0375C50.1375 38.2772 50.2334 38.2373 50.3041 38.1666C50.3748 38.0959 50.4147 38.0001 50.415 37.9C50.415 37.7998 50.3752 37.7037 50.3045 37.6328C50.2337 37.5618 50.1377 37.5218 50.0375 37.5215H47.1177C47.0176 37.5221 46.9217 37.5622 46.851 37.6331C46.7804 37.704 46.7405 37.7999 46.7402 37.9C46.7405 38.0001 46.7804 38.0959 46.8511 38.1666C46.9218 38.2373 47.0177 38.2772 47.1177 38.2775Z" fill="#F5F5F5"/>
<path d="M45.5283 42.829H45.7411L46.5509 38.2773H46.3392L45.5283 42.829Z" fill="#E0E0E0"/>
<path d="M41.8477 42.829H42.0605L42.8702 38.2773H42.6574L41.8477 42.829Z" fill="#E0E0E0"/>
<path d="M46.9542 42.829H46.7414L45.9316 38.2773H46.1444L46.9542 42.829Z" fill="#E0E0E0"/>
<path d="M50.6339 42.829H50.4211L49.6113 38.2773H49.8241L50.6339 42.829Z" fill="#E0E0E0"/>
<path d="M17.3434 38.2775H23.7274C23.8275 38.2772 23.9235 38.2374 23.9944 38.1667C24.0653 38.096 24.1054 38.0002 24.106 37.9C24.1057 37.7997 24.0657 37.7036 23.9948 37.6327C23.9238 37.5618 23.8277 37.5218 23.7274 37.5215H17.3434C17.2431 37.5218 17.147 37.5618 17.076 37.6327C17.0051 37.7036 16.9651 37.7997 16.9648 37.9C16.9654 38.0002 17.0055 38.096 17.0764 38.1667C17.1473 38.2374 17.2433 38.2772 17.3434 38.2775Z" fill="#EBEBEB"/>
<path d="M24.6963 37.5213H24.908L25.7177 32.2383H25.506L24.6963 37.5213Z" fill="#E0E0E0"/>
<path d="M21.4561 37.5213H21.6689L22.4786 32.2383H22.2658L21.4561 37.5213Z" fill="#E0E0E0"/>
<path d="M21.4467 36.4596H25.6064C25.7457 36.4551 25.8791 36.4025 25.984 36.3109C26.0889 36.2192 26.1589 36.0941 26.1821 35.9567L26.8171 31.545C26.8287 31.4827 26.8261 31.4185 26.8097 31.3572C26.7932 31.296 26.7633 31.2392 26.7221 31.191C26.6809 31.1428 26.6294 31.1044 26.5714 31.0786C26.5134 31.0529 26.4505 31.0404 26.3871 31.0421H22.2263C22.0871 31.0465 21.9537 31.099 21.8489 31.1907C21.7442 31.2824 21.6744 31.4077 21.6517 31.545L21.0155 35.9522C21.0034 36.015 21.0056 36.0797 21.0218 36.1415C21.0381 36.2033 21.068 36.2607 21.1094 36.3094C21.1508 36.3581 21.2026 36.3969 21.261 36.4229C21.3194 36.4489 21.3828 36.4614 21.4467 36.4596Z" fill="#EBEBEB"/>
<path d="M22.064 38.2775H24.9838C25.0839 38.2772 25.1799 38.2374 25.2508 38.1667C25.3217 38.096 25.3618 38.0002 25.3624 37.9C25.3621 37.7997 25.3221 37.7036 25.2512 37.6327C25.1802 37.5618 25.0841 37.5218 24.9838 37.5215H22.064C21.9638 37.5221 21.868 37.5622 21.7973 37.6331C21.7266 37.704 21.6868 37.7999 21.6865 37.9C21.6868 38.0001 21.7267 38.0959 21.7974 38.1666C21.8681 38.2373 21.964 38.2772 22.064 38.2775Z" fill="#F5F5F5"/>
<path d="M20.4727 42.829H20.6855L21.4952 38.2773H21.2835L20.4727 42.829Z" fill="#E0E0E0"/>
<path d="M16.792 42.829H17.0048L17.8146 38.2773H17.6018L16.792 42.829Z" fill="#E0E0E0"/>
<path d="M21.8985 42.829H21.6857L20.876 38.2773H21.0888L21.8985 42.829Z" fill="#E0E0E0"/>
<path d="M25.5782 42.829H25.3665L24.5557 38.2773H24.7685L25.5782 42.829Z" fill="#E0E0E0"/>
<path d="M27.9999 47.8863C39.9931 47.8863 49.7155 47.3186 49.7155 46.6184C49.7155 45.9182 39.9931 45.3506 27.9999 45.3506C16.0066 45.3506 6.28418 45.9182 6.28418 46.6184C6.28418 47.3186 16.0066 47.8863 27.9999 47.8863Z" fill="#F5F5F5"/>
<path d="M24.9755 27.1956C24.9979 27.825 23.9071 29.2317 23.9071 29.2317C23.9071 29.2317 22.7187 27.9068 22.6963 27.2773C22.6739 26.6479 23.0178 26.1248 23.7951 26.0968C24.5723 26.0688 24.9565 26.5661 24.9755 27.1956Z" fill="#039AE4"/>
<path d="M23.9502 27.2344H23.874V43.9403H23.9502V27.2344Z" fill="#263238"/>
<path d="M21.9845 43.4365C21.9491 43.4363 21.9141 43.4439 21.8819 43.4587C21.8498 43.4735 21.8213 43.4952 21.7984 43.5222C21.7756 43.5492 21.7589 43.5809 21.7497 43.6151C21.7404 43.6492 21.7387 43.685 21.7448 43.7199C21.9072 44.6002 22.8155 45.2744 23.912 45.2744C25.0085 45.2744 25.9157 44.6024 26.0781 43.7199C26.0843 43.6851 26.0828 43.6493 26.0737 43.6152C26.0646 43.581 26.048 43.5493 26.0253 43.5222C26.0025 43.4952 25.974 43.4735 25.9419 43.4587C25.9098 43.4439 25.8749 43.4363 25.8395 43.4365H21.9845Z" fill="#039AE4"/>
<path d="M23.3075 30.6069C22.9046 30.1952 22.4076 29.8877 21.8594 29.7109C21.4024 30.1802 21.8403 30.8242 23.3075 30.6069Z" fill="#039AE4"/>
<path d="M23.8898 31.4071C23.5381 30.7732 22.7698 30.0105 21.8525 29.7339L21.8671 29.6846C22.8012 29.9646 23.5785 30.7396 23.9346 31.3825L23.8898 31.4071Z" fill="#263238"/>
<path d="M23.0864 34.9586C23.0864 33.4466 21.9854 33.0266 21.1096 33.7322C20.4869 34.3762 21.076 35.2543 23.0864 34.9586Z" fill="#039AE4"/>
<path d="M23.8891 36.0445C23.4086 35.1776 22.3603 34.1338 21.1025 33.7563L21.1171 33.707C22.3894 34.089 23.4489 35.1429 23.9339 36.0198L23.8891 36.0445Z" fill="#263238"/>
<path d="M24.6865 32.5019C25.2023 31.9724 25.8398 31.5771 26.5435 31.3506C27.1248 31.9554 26.5715 32.7797 24.6865 32.5019Z" fill="#039AE4"/>
<path d="M23.9344 33.5225L23.8896 33.4979C24.3455 32.6747 25.3389 31.6846 26.534 31.3262L26.5485 31.3755C25.368 31.7305 24.3847 32.7094 23.9344 33.5225Z" fill="#263238"/>
<path d="M24.7275 36.8936C25.293 36.1285 26.037 35.5133 26.8947 35.1016C27.7437 35.778 27.1803 36.9238 24.7275 36.8936Z" fill="#039AE4"/>
<path d="M23.9349 38.3219L23.8867 38.304C24.3269 37.1773 25.4234 35.7459 26.8827 35.084L26.904 35.131C25.4581 35.7862 24.3706 37.2064 23.9349 38.3219Z" fill="#263238"/>
<path d="M18.2901 41.0239H10.6931C10.5743 41.0239 10.4603 40.9767 10.3763 40.8927C10.2923 40.8087 10.2451 40.6947 10.2451 40.5759C10.2451 40.4571 10.2923 40.3432 10.3763 40.2591C10.4603 40.1751 10.5743 40.1279 10.6931 40.1279H18.2901C18.4089 40.1279 18.5228 40.1751 18.6069 40.2591C18.6909 40.3432 18.7381 40.4571 18.7381 40.5759C18.7381 40.6947 18.6909 40.8087 18.6069 40.8927C18.5228 40.9767 18.4089 41.0239 18.2901 41.0239Z" fill="#039AE4"/>
<path d="M9.53468 40.1242H9.28268L8.31836 33.832H8.57036L9.53468 40.1242Z" fill="#263238"/>
<path d="M13.3932 40.1242H13.1401L12.1758 33.832H12.4289L13.3932 40.1242Z" fill="#263238"/>
<path d="M13.4034 38.8635H8.44963C8.28385 38.8582 8.12504 38.7956 8.00025 38.6863C7.87547 38.5771 7.79243 38.4279 7.76531 38.2643L7.00819 33.0115C6.99469 32.9371 6.99791 32.8607 7.01764 32.7878C7.03736 32.7149 7.07308 32.6473 7.12221 32.5899C7.17133 32.5325 7.23263 32.4868 7.30164 32.4561C7.37064 32.4254 7.44563 32.4104 7.52115 32.4123H12.4749C12.6408 32.4177 12.7996 32.4804 12.9245 32.5896C13.0495 32.6988 13.1328 32.8478 13.1603 33.0115L13.9163 38.2643C13.9298 38.3386 13.9266 38.415 13.9069 38.4879C13.8872 38.5608 13.8514 38.6284 13.8023 38.6858C13.7532 38.7432 13.6919 38.7889 13.6229 38.8197C13.5539 38.8504 13.4789 38.8653 13.4034 38.8635Z" fill="#039AE4"/>
<path opacity="0.4" d="M7.00833 33.0073L7.76545 38.2601C7.78449 38.3874 7.83925 38.5066 7.92337 38.604C8.10481 38.8179 8.42737 38.7014 8.38929 38.4404L7.58177 32.827C7.54369 32.566 7.18753 32.4507 7.06769 32.6635C7.01102 32.7686 6.99018 32.8893 7.00833 33.0073Z" fill="white"/>
<path d="M12.671 41.0239H9.19898C9.08016 41.0239 8.96621 40.9767 8.88219 40.8927C8.79818 40.8087 8.75098 40.6947 8.75098 40.5759C8.75098 40.4571 8.79818 40.3432 8.88219 40.2591C8.96621 40.1751 9.08016 40.1279 9.19898 40.1279H12.671C12.7898 40.1279 12.9037 40.1751 12.9878 40.2591C13.0718 40.3432 13.119 40.4571 13.119 40.5759C13.119 40.6947 13.0718 40.8087 12.9878 40.8927C12.9037 40.9767 12.7898 41.0239 12.671 41.0239Z" fill="#039AE4"/>
<path opacity="0.4" d="M12.671 41.0239H9.19898C9.08016 41.0239 8.96621 40.9767 8.88219 40.8927C8.79818 40.8087 8.75098 40.6947 8.75098 40.5759C8.75098 40.4571 8.79818 40.3432 8.88219 40.2591C8.96621 40.1751 9.08016 40.1279 9.19898 40.1279H12.671C12.7898 40.1279 12.9037 40.1751 12.9878 40.2591C13.0718 40.3432 13.119 40.4571 13.119 40.5759C13.119 40.6947 13.0718 40.8087 12.9878 40.8927C12.9037 40.9767 12.7898 41.0239 12.671 41.0239Z" fill="white"/>
<path d="M14.5641 46.443H14.311L13.3467 41.0244H13.5987L14.5641 46.443Z" fill="#263238"/>
<path d="M18.946 46.443H18.6928L17.7285 41.0244H17.9816L18.946 46.443Z" fill="#263238"/>
<path d="M12.8672 46.443H13.1192L14.0835 41.0244H13.8315L12.8672 46.443Z" fill="#263238"/>
<path d="M8.4834 46.443H8.73652L9.70084 41.0244H9.44884L8.4834 46.443Z" fill="#263238"/>
<path d="M21.4783 41.2373L20.2295 41.7805L20.9452 42.616L21.9901 42.1635L21.4783 41.2373Z" fill="#7F3E3B"/>
<path opacity="0.2" d="M21.4784 41.2383L20.2285 41.7815L20.6306 42.2496L21.7652 41.7568L21.4784 41.2383Z" fill="black"/>
<path d="M20.7259 43.0194L20.8681 42.9925C20.9098 42.9843 20.9489 42.9659 20.9817 42.939C21.0145 42.912 21.0402 42.8773 21.0563 42.8379L21.1459 42.8839C21.1971 42.9094 21.2553 42.9176 21.3116 42.9074L23.2537 42.5288C23.2381 42.3949 23.1875 42.2674 23.107 42.1592C23.107 42.1592 22.2457 42.279 22.0038 42.0674C21.9949 42.0591 21.984 42.0534 21.9721 42.0511C21.9602 42.0487 21.9479 42.0497 21.9366 42.0539C21.7787 42.1211 21.1526 42.3686 20.7651 42.3182C20.753 42.317 20.7408 42.3186 20.7294 42.3229C20.7181 42.3272 20.7079 42.334 20.6996 42.3429C20.6914 42.3519 20.6853 42.3626 20.6819 42.3742C20.6785 42.3859 20.6778 42.3981 20.6799 42.4101C20.7098 42.6118 20.7251 42.8154 20.7259 43.0194Z" fill="#039AE4"/>
<path d="M21.9681 42.1173H21.9614C21.9576 42.1159 21.9543 42.1135 21.9519 42.1103C21.9496 42.1072 21.9482 42.1033 21.9479 42.0994C21.9401 41.9728 22.0006 41.7398 22.0857 41.6995C22.0988 41.6936 22.1134 41.6919 22.1274 41.6947C22.1415 41.6975 22.1543 41.7047 22.1641 41.7152C22.173 41.7232 22.1801 41.733 22.1848 41.7441C22.1894 41.7551 22.1915 41.7671 22.191 41.779C22.191 41.9011 21.9916 42.1038 21.9827 42.115C21.9782 42.1175 21.9731 42.1183 21.9681 42.1173ZM22.1148 41.7331H22.1036C22.0499 41.7589 21.9972 41.9213 21.9916 42.0422C22.0566 41.9706 22.154 41.8474 22.1529 41.7757C22.1529 41.7694 22.1515 41.7632 22.149 41.7574C22.1465 41.7516 22.1429 41.7464 22.1383 41.7421C22.1353 41.739 22.1316 41.7366 22.1276 41.735C22.1235 41.7335 22.1192 41.7328 22.1148 41.7331Z" fill="#039AE4"/>
<path d="M22.1526 42.1316C22.0896 42.1312 22.0267 42.1263 21.9644 42.117C21.9604 42.1163 21.9567 42.1144 21.9537 42.1116C21.9507 42.1088 21.9486 42.1053 21.9476 42.1013C21.9469 42.0974 21.9473 42.0933 21.9486 42.0896C21.95 42.0859 21.9524 42.0826 21.9555 42.08C22.0518 42.0005 22.2769 41.9109 22.3587 41.9568C22.3712 41.964 22.3812 41.9748 22.3874 41.9878C22.3937 42.0008 22.3957 42.0154 22.3934 42.0296C22.3898 42.0534 22.3769 42.0747 22.3575 42.089C22.2945 42.122 22.2235 42.1367 22.1526 42.1316ZM22.0227 42.0823C22.1266 42.102 22.2339 42.0927 22.3329 42.0554C22.3381 42.0518 22.3425 42.0472 22.3458 42.0418C22.3491 42.0363 22.3512 42.0303 22.3519 42.024C22.3519 42.0039 22.3519 41.9972 22.3396 41.9927C22.2881 41.9647 22.1246 42.0173 22.0227 42.0823Z" fill="#039AE4"/>
<path d="M10.2529 37.3049L10.7883 38.4249C11.5779 40.0791 13.5244 40.9113 15.0779 40.2605C15.9851 39.8786 16.9752 39.0756 17.6539 38.7082C18.2307 39.9705 19.3093 41.3649 20.1347 42.3337L21.8057 41.4937C21.1819 40.0612 20.2097 37.8257 19.5937 36.373C19.4832 36.1169 19.3029 35.8971 19.0734 35.7386C18.8438 35.5802 18.5743 35.4895 18.2957 35.477C15.5136 35.3975 10.2529 37.3049 10.2529 37.3049Z" fill="#263238"/>
<path d="M18.3715 44.9037L17.0107 44.8398L17.2851 45.9061L18.4219 45.9598L18.3715 44.9037Z" fill="#7F3E3B"/>
<path opacity="0.2" d="M18.3717 44.9037L17.0098 44.8398L17.1632 45.4368L18.3997 45.495L18.3717 44.9037Z" fill="black"/>
<path d="M17.0762 46.4678H17.2218C17.264 46.4681 17.3057 46.4581 17.3432 46.4385C17.3807 46.419 17.4128 46.3906 17.4368 46.3558L17.5152 46.4163C17.5605 46.4521 17.6165 46.4714 17.6743 46.4711H19.6511C19.6618 46.3367 19.6366 46.2018 19.5783 46.0803C19.5783 46.0803 18.7103 46.0332 18.5131 45.779C18.5063 45.7691 18.4967 45.7615 18.4855 45.7571C18.4744 45.7527 18.4621 45.7518 18.4504 45.7543C18.2824 45.7891 17.625 45.9134 17.2498 45.7891C17.2381 45.7854 17.2257 45.7845 17.2136 45.7865C17.2016 45.7884 17.1901 45.7932 17.1802 45.8004C17.1703 45.8076 17.1622 45.817 17.1566 45.8278C17.151 45.8387 17.148 45.8507 17.1479 45.863C17.1386 46.066 17.1146 46.2682 17.0762 46.4678Z" fill="#039AE4"/>
<path d="M18.4726 45.8201C18.4689 45.8211 18.465 45.8211 18.4614 45.8201C18.4581 45.818 18.4555 45.8149 18.4539 45.8114C18.4523 45.8078 18.4518 45.8038 18.4524 45.7999C18.4692 45.6756 18.5722 45.4572 18.6641 45.4348C18.6779 45.4312 18.6925 45.4321 18.7058 45.4373C18.7191 45.4425 18.7304 45.4519 18.738 45.4639C18.7451 45.4737 18.75 45.4848 18.7525 45.4966C18.755 45.5083 18.755 45.5205 18.7526 45.5323C18.7313 45.6532 18.4938 45.8134 18.4838 45.8201C18.4801 45.8212 18.4762 45.8212 18.4726 45.8201ZM18.6809 45.4695H18.6742C18.6159 45.4841 18.5342 45.6342 18.5028 45.7507C18.5812 45.6935 18.6988 45.5916 18.7122 45.5199C18.7135 45.5138 18.7135 45.5074 18.7122 45.5012C18.7108 45.495 18.7082 45.4892 18.7044 45.4841C18.7019 45.4802 18.6984 45.477 18.6943 45.4748C18.6902 45.4727 18.6855 45.4716 18.6809 45.4718V45.4695Z" fill="#039AE4"/>
<path d="M18.767 45.8822C18.6641 45.8757 18.5626 45.8546 18.4657 45.8195C18.4619 45.8182 18.4586 45.8158 18.4562 45.8126C18.4539 45.8094 18.4525 45.8056 18.4522 45.8016C18.4519 45.7976 18.4526 45.7936 18.4544 45.79C18.4562 45.7865 18.4589 45.7835 18.4623 45.7814C18.5743 45.7221 18.8106 45.6773 18.8823 45.7377C18.8937 45.7466 18.9018 45.759 18.9054 45.773C18.909 45.7869 18.908 45.8017 18.9025 45.815C18.8985 45.8263 18.8923 45.8367 18.8843 45.8456C18.8762 45.8545 18.8664 45.8616 18.8554 45.8665C18.8274 45.878 18.7972 45.8834 18.767 45.8822ZM18.5284 45.7971C18.6266 45.8358 18.7334 45.847 18.8375 45.8296C18.8492 45.8242 18.8584 45.8146 18.8633 45.8027C18.8689 45.7837 18.8633 45.7747 18.8566 45.7691C18.8162 45.731 18.6415 45.7523 18.5284 45.7971Z" fill="#039AE4"/>
<path d="M9.47461 36.8613L9.48357 38.0452C9.49813 39.7912 10.9765 40.2986 12.7461 40.4319C13.7777 40.508 15.172 40.5316 15.9762 40.5159C16.0938 41.7389 16.4757 44.2309 16.8599 45.2748L18.5981 45.1538C18.6441 43.672 18.7101 41.5698 18.7673 40.1765C18.7695 39.8981 18.6923 39.6249 18.5447 39.3888C18.3971 39.1527 18.1852 38.9636 17.934 38.8437C15.3277 37.558 9.47461 36.8613 9.47461 36.8613Z" fill="#263238"/>
<path opacity="0.2" d="M17.7172 38.8548C18.0149 39.4524 18.3602 40.0251 18.7499 40.5673C18.7409 40.8114 18.7319 41.0713 18.7219 41.3401C18.107 40.369 17.7139 38.8525 17.7139 38.8525L17.7172 38.8548Z" fill="black"/>
<path d="M15.1458 30.0233L15.2578 30.0804L15.3967 30.1498C15.4919 30.1935 15.5882 30.2383 15.6856 30.2775C15.8754 30.3564 16.0699 30.4234 16.268 30.478C16.4514 30.5275 16.6388 30.5608 16.828 30.5777C16.996 30.5907 17.165 30.5824 17.3309 30.553L16.9949 30.7546C17.0992 30.6758 17.1874 30.5777 17.2547 30.4657C17.3579 30.3072 17.4507 30.1422 17.5325 29.9717C17.6232 29.7903 17.7072 29.5988 17.7901 29.4028L18.0365 28.8103L18.0488 28.7823C18.0902 28.6833 18.1636 28.601 18.2572 28.5486C18.3508 28.4962 18.4593 28.4766 18.5653 28.4929C18.6714 28.5093 18.7689 28.5607 18.8423 28.6389C18.9158 28.7171 18.9609 28.8177 18.9706 28.9245C18.9916 29.1696 18.9953 29.4159 18.9818 29.6615C18.9692 29.9091 18.9408 30.1556 18.8967 30.3996C18.8496 30.6601 18.7788 30.9158 18.685 31.1634C18.5737 31.4664 18.4057 31.7454 18.1899 31.9855C18.1195 32.0614 18.0325 32.1201 17.9357 32.1569L17.8528 32.1871C17.5267 32.3081 17.1835 32.3769 16.8359 32.3909C16.5096 32.4049 16.1828 32.3797 15.8626 32.3159C15.5591 32.257 15.2618 32.17 14.9744 32.0561C14.8333 31.9989 14.6933 31.9441 14.5578 31.8713C14.4895 31.8365 14.4223 31.8018 14.3539 31.7593L14.2509 31.6988L14.1322 31.626C13.924 31.4977 13.7735 31.294 13.7121 31.0574C13.6506 30.8208 13.683 30.5696 13.8024 30.3563C13.9219 30.143 14.1192 29.9841 14.353 29.9129C14.5869 29.8416 14.8392 29.8635 15.0573 29.974L15.1458 30.0233Z" fill="#803E3C"/>
<path d="M18.4087 29.3592L18.0324 28.9572C17.8151 28.424 18.5498 28.2639 18.5498 28.2639L18.8724 28.0399C18.9318 28.0052 19.0016 27.9926 19.0694 28.0042C19.1372 28.0159 19.1987 28.0511 19.2431 28.1037L19.5063 28.3826C19.5638 28.4367 19.5979 28.5112 19.6013 28.5901C19.6046 28.669 19.577 28.7461 19.5242 28.8048L19.2789 29.04C19.2075 29.1086 19.1201 29.1582 19.0247 29.1845L18.4087 29.3592Z" fill="#7F3E3B"/>
<path d="M13.2163 29.2166C13.447 28.9064 14.1538 28.9859 14.8728 29.6871C15.0509 29.6792 15.5123 30.097 16.0477 30.2325C16.583 30.368 16.7589 31.3301 16.6614 31.7143C16.5595 32.1175 16.3579 32.3863 15.8584 32.4389C15.3589 32.4915 14.7014 32.169 14.1717 31.7669C13.6419 31.3648 12.8053 29.7666 13.2163 29.2166Z" fill="#039AE4"/>
<path d="M12.9528 28.9697C11.9512 28.9752 10.9521 29.072 9.96803 29.2587C9.80582 29.2925 9.65222 29.3591 9.51663 29.4543C9.38105 29.5496 9.26633 29.6715 9.17951 29.8126C9.0927 29.9538 9.0356 30.1111 9.01173 30.2751C8.98785 30.4391 8.9977 30.6062 9.04067 30.7662C9.77763 33.5662 9.36099 36.6316 9.41923 37.1928C9.41923 37.1928 15.2858 38.0372 16.1851 36.2968C16.6634 33.9739 15.3395 33.0342 14.6351 30.2622C14.5288 29.8957 14.3083 29.5728 14.0058 29.3403C13.7032 29.1078 13.3343 28.978 12.9528 28.9697Z" fill="#039AE4"/>
<path opacity="0.8" d="M12.9528 28.9697C11.9512 28.9752 10.9521 29.072 9.96803 29.2587C9.80582 29.2925 9.65222 29.3591 9.51663 29.4543C9.38105 29.5496 9.26633 29.6715 9.17951 29.8126C9.0927 29.9538 9.0356 30.1111 9.01173 30.2751C8.98785 30.4391 8.9977 30.6062 9.04067 30.7662C9.77763 33.5662 9.36099 36.6316 9.41923 37.1928C9.41923 37.1928 15.2858 38.0372 16.1851 36.2968C16.6634 33.9739 15.3395 33.0342 14.6351 30.2622C14.5288 29.8957 14.3083 29.5728 14.0058 29.3403C13.7032 29.1078 13.3343 28.978 12.9528 28.9697Z" fill="white"/>
<g opacity="0.2">
<path d="M10.2044 37.0048C10.2009 37.0044 10.1975 37.0032 10.1943 37.0015C10.1912 36.9997 10.1885 36.9974 10.1863 36.9946C10.1841 36.9918 10.1825 36.9885 10.1816 36.9851C10.1807 36.9817 10.1804 36.9781 10.1809 36.9745C10.1809 36.9417 10.1843 36.907 10.191 36.8704C10.1918 36.8633 10.1953 36.8569 10.2007 36.8523C10.2061 36.8478 10.213 36.8454 10.2201 36.8457C10.2236 36.846 10.227 36.847 10.2301 36.8486C10.2332 36.8503 10.2359 36.8525 10.2381 36.8552C10.2403 36.858 10.242 36.8611 10.2429 36.8645C10.2438 36.8678 10.2441 36.8714 10.2436 36.8749C10.2436 36.9118 10.2436 36.9477 10.2335 36.9813C10.2327 36.9882 10.2292 36.9945 10.2237 36.9989C10.2183 37.0033 10.2114 37.0054 10.2044 37.0048Z" fill="#039AE4"/>
<path d="M10.2284 36.6833C10.2215 36.6828 10.2151 36.6795 10.2105 36.6743C10.2059 36.6691 10.2035 36.6623 10.2038 36.6553C10.2038 36.587 10.2038 36.5153 10.2038 36.4392C10.2041 36.4321 10.207 36.4255 10.212 36.4205C10.217 36.4155 10.2236 36.4126 10.2307 36.4123C10.2377 36.4129 10.2443 36.4161 10.249 36.4212C10.2538 36.4264 10.2565 36.4332 10.2564 36.4403C10.2564 36.5165 10.2564 36.5893 10.2497 36.6576C10.2498 36.6637 10.2477 36.6696 10.2438 36.6744C10.2399 36.6791 10.2345 36.6823 10.2284 36.6833ZM10.2374 36.2499C10.2303 36.2499 10.2234 36.2471 10.2184 36.242C10.2134 36.237 10.2105 36.2301 10.2105 36.223V36.2107C10.2105 36.1435 10.2105 36.0763 10.2105 36.0057C10.2104 36.0023 10.2109 35.9988 10.2121 35.9955C10.2134 35.9923 10.2152 35.9893 10.2177 35.9868C10.2201 35.9843 10.223 35.9823 10.2262 35.9809C10.2294 35.9796 10.2328 35.9788 10.2363 35.9789C10.2399 35.9787 10.2434 35.9793 10.2468 35.9806C10.2501 35.9819 10.2531 35.9838 10.2556 35.9864C10.2582 35.9889 10.2601 35.9919 10.2614 35.9953C10.2627 35.9986 10.2633 36.0022 10.2632 36.0057C10.2632 36.0752 10.2632 36.1435 10.2632 36.2096V36.223C10.2632 36.23 10.2605 36.2366 10.2557 36.2416C10.2509 36.2466 10.2443 36.2496 10.2374 36.2499ZM10.2318 35.8153C10.225 35.8153 10.2184 35.8126 10.2136 35.8078C10.2088 35.803 10.206 35.7964 10.206 35.7896C10.206 35.7179 10.206 35.6462 10.2004 35.5723C10.2003 35.5688 10.2008 35.5652 10.2021 35.5619C10.2033 35.5586 10.2051 35.5556 10.2075 35.553C10.2099 35.5504 10.2128 35.5482 10.216 35.5468C10.2192 35.5453 10.2227 35.5444 10.2262 35.5443C10.2333 35.5443 10.2402 35.5471 10.2452 35.5522C10.2502 35.5572 10.2531 35.564 10.2531 35.5712C10.2531 35.6451 10.2531 35.7168 10.2531 35.7885C10.2532 35.7919 10.2527 35.7954 10.2514 35.7987C10.2502 35.8019 10.2483 35.8049 10.2459 35.8074C10.2435 35.8099 10.2406 35.8119 10.2374 35.8133C10.2342 35.8146 10.2308 35.8153 10.2273 35.8153H10.2318ZM10.2195 35.3819C10.2125 35.3819 10.2059 35.3792 10.2009 35.3744C10.1958 35.3696 10.1929 35.3631 10.1926 35.3561C10.1926 35.2845 10.1926 35.2117 10.1836 35.1389C10.1836 35.1318 10.1863 35.125 10.191 35.1198C10.1958 35.1146 10.2024 35.1114 10.2094 35.1109C10.2163 35.1108 10.223 35.1135 10.228 35.1183C10.233 35.1231 10.236 35.1297 10.2363 35.1366C10.2363 35.2105 10.2363 35.2822 10.2452 35.3539C10.2453 35.3609 10.2426 35.3677 10.2378 35.3729C10.2331 35.3781 10.2265 35.3813 10.2195 35.3819ZM10.2004 34.944C10.1938 34.944 10.1874 34.9414 10.1826 34.9368C10.1778 34.9322 10.175 34.926 10.1747 34.9193C10.1747 34.8477 10.1668 34.7749 10.1635 34.7021C10.1632 34.6951 10.1656 34.6883 10.1702 34.6831C10.1747 34.6779 10.1812 34.6746 10.1881 34.6741C10.195 34.6743 10.2015 34.6771 10.2065 34.6818C10.2114 34.6866 10.2145 34.693 10.215 34.6998L10.2251 34.916C10.2254 34.9194 10.225 34.9229 10.2239 34.9263C10.2228 34.9296 10.2211 34.9326 10.2188 34.9352C10.2165 34.9379 10.2136 34.94 10.2105 34.9415C10.2073 34.943 10.2039 34.9438 10.2004 34.944ZM10.178 34.5105C10.1714 34.5103 10.165 34.5077 10.16 34.5032C10.1551 34.4987 10.152 34.4925 10.1512 34.4859C10.1512 34.4142 10.1433 34.3414 10.1388 34.2686C10.1388 34.2615 10.1417 34.2546 10.1467 34.2496C10.1518 34.2446 10.1586 34.2417 10.1657 34.2417C10.1728 34.2417 10.1797 34.2446 10.1847 34.2496C10.1898 34.2546 10.1926 34.2615 10.1926 34.2686C10.1926 34.3414 10.2004 34.4142 10.2049 34.4859C10.2052 34.4928 10.2028 34.4996 10.1982 34.5049C10.1937 34.5101 10.1872 34.5133 10.1803 34.5139L10.178 34.5105ZM10.1523 34.0782C10.1453 34.0782 10.1387 34.0755 10.1337 34.0707C10.1286 34.0659 10.1257 34.0594 10.1254 34.0525C10.1254 33.9808 10.1164 33.908 10.1108 33.8363C10.1105 33.8327 10.111 33.8291 10.1121 33.8257C10.1133 33.8224 10.1151 33.8192 10.1175 33.8166C10.12 33.814 10.1229 33.8119 10.1262 33.8104C10.1295 33.809 10.133 33.8083 10.1366 33.8083C10.1401 33.808 10.1436 33.8084 10.1469 33.8095C10.1502 33.8106 10.1533 33.8123 10.1559 33.8146C10.1585 33.8169 10.1606 33.8197 10.1621 33.8229C10.1636 33.826 10.1645 33.8294 10.1646 33.8329C10.1646 33.9046 10.1736 33.9774 10.1792 34.0491C10.1793 34.0526 10.1788 34.0561 10.1775 34.0595C10.1763 34.0628 10.1745 34.0658 10.1721 34.0684C10.1697 34.071 10.1668 34.0731 10.1636 34.0746C10.1604 34.0761 10.1569 34.0769 10.1534 34.0771L10.1523 34.0782ZM10.1232 33.6448C10.1162 33.6448 10.1095 33.6421 10.1045 33.6373C10.0995 33.6325 10.0966 33.6259 10.0963 33.619C10.0963 33.5473 10.0862 33.4745 10.0806 33.4029C10.0806 33.3957 10.0834 33.3889 10.0885 33.3838C10.0935 33.3788 10.1003 33.376 10.1075 33.376C10.1146 33.376 10.1214 33.3788 10.1265 33.3838C10.1315 33.3889 10.1344 33.3957 10.1344 33.4029C10.1344 33.4745 10.1444 33.5462 10.15 33.619C10.1504 33.6263 10.1478 33.6333 10.143 33.6388C10.1382 33.6442 10.1315 33.6476 10.1243 33.6481L10.1232 33.6448ZM10.0907 33.2113C10.084 33.2113 10.0776 33.2088 10.0728 33.2042C10.068 33.1996 10.0652 33.1933 10.0649 33.1867L10.0481 32.9705C10.0473 32.9666 10.0474 32.9626 10.0483 32.9587C10.0493 32.9548 10.0511 32.9512 10.0536 32.9481C10.0561 32.945 10.0593 32.9425 10.0629 32.9408C10.0665 32.9391 10.0704 32.9382 10.0744 32.9382C10.0784 32.9382 10.0824 32.9391 10.086 32.9408C10.0896 32.9425 10.0928 32.945 10.0953 32.9481C10.0978 32.9512 10.0996 32.9548 10.1006 32.9587C10.1015 32.9626 10.1016 32.9666 10.1008 32.9705L10.1176 33.1867C10.1179 33.1902 10.1175 33.1938 10.1164 33.1972C10.1153 33.2005 10.1136 33.2037 10.1113 33.2064C10.109 33.2091 10.1062 33.2113 10.1031 33.2129C10.0999 33.2146 10.0965 33.2155 10.0929 33.2158L10.0907 33.2113ZM10.0571 32.779C10.0503 32.779 10.0438 32.7765 10.0388 32.7719C10.0338 32.7674 10.0308 32.7611 10.0302 32.7544L10.0123 32.5382C10.0116 32.5313 10.0137 32.5243 10.0181 32.5189C10.0225 32.5134 10.0289 32.5099 10.0358 32.5091C10.0394 32.5086 10.043 32.5089 10.0464 32.5099C10.0499 32.5109 10.0531 32.5126 10.0558 32.515C10.0586 32.5173 10.0608 32.5202 10.0624 32.5234C10.0639 32.5266 10.0648 32.5301 10.0649 32.5337L10.0828 32.7499C10.0835 32.7569 10.0814 32.7638 10.077 32.7692C10.0726 32.7747 10.0663 32.7782 10.0593 32.779H10.0571ZM10.0201 32.3456C10.0135 32.3459 10.007 32.3436 10.0019 32.3392C9.99693 32.3348 9.99381 32.3287 9.99324 32.3221C9.98652 32.2481 9.9798 32.1765 9.97308 32.1059C9.97234 32.0988 9.97446 32.0916 9.97897 32.0861C9.98349 32.0805 9.99003 32.077 9.99716 32.0762C10.0043 32.0755 10.0114 32.0776 10.017 32.0821C10.0226 32.0866 10.0261 32.0932 10.0268 32.1003C10.0336 32.172 10.0403 32.2437 10.0459 32.3176C10.0462 32.321 10.0458 32.3244 10.0448 32.3276C10.0438 32.3309 10.0421 32.3339 10.0399 32.3365C10.0378 32.3391 10.0351 32.3412 10.0321 32.3428C10.029 32.3443 10.0257 32.3453 10.0224 32.3456H10.0201ZM9.9798 31.92C9.97328 31.9198 9.96703 31.9173 9.96212 31.9131C9.95721 31.9088 9.95396 31.9029 9.95292 31.8965C9.9462 31.8225 9.93948 31.7497 9.93164 31.6803C9.93133 31.6768 9.93173 31.6732 9.9328 31.6698C9.93388 31.6664 9.93561 31.6633 9.9379 31.6606C9.94019 31.6579 9.94299 31.6557 9.94615 31.6541C9.9493 31.6524 9.95274 31.6515 9.95628 31.6512C9.95975 31.6507 9.96328 31.6509 9.96666 31.6519C9.97003 31.6528 9.97318 31.6545 9.9759 31.6567C9.97863 31.6589 9.98088 31.6616 9.98251 31.6647C9.98414 31.6678 9.98513 31.6712 9.9854 31.6747C9.99212 31.7453 9.99996 31.8169 10.0067 31.8909C10.007 31.8944 10.0066 31.8979 10.0055 31.9013C10.0044 31.9047 10.0027 31.9078 10.0004 31.9105C9.99813 31.9132 9.99533 31.9155 9.99217 31.9171C9.98902 31.9187 9.98557 31.9197 9.98204 31.92H9.9798ZM9.93724 31.4888C9.93385 31.4889 9.93047 31.4884 9.92729 31.4872C9.92411 31.4861 9.92119 31.4843 9.91869 31.482C9.91619 31.4797 9.91417 31.477 9.91274 31.4739C9.91131 31.4708 9.9105 31.4675 9.91036 31.4641C9.90215 31.3895 9.8943 31.3178 9.88684 31.2491C9.88618 31.242 9.88825 31.2349 9.89262 31.2293C9.89699 31.2237 9.90333 31.22 9.91036 31.2189C9.91389 31.2185 9.91745 31.2189 9.92083 31.22C9.92421 31.2211 9.92734 31.2228 9.93005 31.2251C9.93275 31.2274 9.93498 31.2302 9.9366 31.2334C9.93822 31.2365 9.9392 31.24 9.93948 31.2435C9.94732 31.3107 9.95516 31.3835 9.963 31.4585C9.96347 31.4621 9.96323 31.4657 9.9623 31.4691C9.96137 31.4725 9.95976 31.4758 9.95757 31.4786C9.95538 31.4814 9.95266 31.4837 9.94955 31.4855C9.94644 31.4872 9.94302 31.4884 9.93948 31.4888H9.93724Z" fill="#039AE4"/>
<path d="M9.88769 31.0539C9.88172 31.0541 9.8759 31.0521 9.8712 31.0485C9.8665 31.0448 9.86322 31.0396 9.86193 31.0338L9.84961 30.9274C9.85005 30.9211 9.85269 30.9151 9.85707 30.9106C9.86146 30.906 9.8673 30.9032 9.87358 30.9025C9.87986 30.9018 9.88618 30.9034 9.89142 30.9069C9.89666 30.9104 9.9005 30.9157 9.90225 30.9218L9.91457 31.0214C9.91559 31.0287 9.91386 31.036 9.90971 31.0421C9.90556 31.0481 9.8993 31.0523 9.89217 31.0539H9.88769Z" fill="#039AE4"/>
</g>
<path d="M10.598 32.0177L10.4647 32.3201L10.327 32.6404C10.2351 32.8555 10.15 33.0727 10.0649 33.2878C9.97977 33.5028 9.90697 33.7223 9.83417 33.9374C9.76137 34.1524 9.70313 34.3686 9.64937 34.5825L9.61801 34.1916C9.62461 34.2083 9.62766 34.2263 9.62697 34.2443C9.64178 34.2738 9.65414 34.3045 9.66393 34.3361C9.70339 34.4141 9.74869 34.489 9.79945 34.5601C9.92267 34.7371 10.0574 34.9058 10.2027 35.0652C10.3539 35.2377 10.5174 35.4091 10.6865 35.5804L11.2006 36.0979L11.2163 36.1135C11.2912 36.1914 11.3376 36.2922 11.348 36.3998C11.3584 36.5073 11.3322 36.6152 11.2736 36.706C11.215 36.7968 11.1274 36.8651 11.0251 36.8998C10.9228 36.9346 10.8118 36.9338 10.71 36.8975C10.4578 36.8006 10.2117 36.6884 9.97305 36.5615C9.73272 36.4361 9.49975 36.2969 9.27529 36.1449C9.03522 35.9838 8.81029 35.8013 8.60329 35.5995C8.48677 35.4849 8.3786 35.3621 8.27961 35.2321C8.22585 35.1571 8.17433 35.0787 8.12617 35.0003C8.07689 34.9039 8.03209 34.8054 7.98953 34.7057C7.95248 34.6181 7.93785 34.5226 7.94697 34.4279L7.95817 34.3159C7.98319 34.038 8.02357 33.7617 8.07913 33.4883C8.1352 33.2164 8.20511 32.9477 8.28857 32.683C8.36697 32.4198 8.45881 32.1644 8.55961 31.9113C8.61113 31.7859 8.66265 31.6593 8.72089 31.535C8.75001 31.4734 8.77801 31.4107 8.80937 31.3491L8.91129 31.1519C9.02601 30.9358 9.21971 30.7723 9.45202 30.6955C9.68433 30.6187 9.93732 30.6345 10.1583 30.7396C10.3792 30.8447 10.5511 31.0311 10.638 31.2598C10.7249 31.4885 10.7202 31.742 10.6249 31.9673L10.598 32.0177Z" fill="#803E3C"/>
<path d="M10.9844 36.2881L10.7952 36.5782C10.6708 37.1382 11.4212 37.1752 11.4212 37.1752L11.7763 37.3387C11.8404 37.3632 11.9112 37.3642 11.976 37.3414C12.0408 37.3187 12.0955 37.2736 12.1302 37.2144L12.343 36.8952C12.3908 36.8322 12.4121 36.7532 12.4025 36.6747C12.3929 36.5963 12.353 36.5247 12.2915 36.4752L12.0092 36.2848C11.9276 36.2291 11.8332 36.1948 11.7348 36.1851L11.2969 36.1403C11.2363 36.1343 11.1752 36.1449 11.1202 36.171C11.0652 36.197 11.0182 36.2375 10.9844 36.2881Z" fill="#7F3E3B"/>
<path d="M9.74479 29.5486C9.36511 29.4781 8.84879 30.2139 8.76815 31.027C8.44559 31.363 8.41535 31.9152 8.15103 32.4002C7.61679 33.3947 8.06479 33.7229 8.41759 33.9088C9.17023 34.3075 10.0136 34.1597 10.2376 33.7117C10.4616 33.2637 10.7024 32.7373 10.7696 32.0798C10.8648 31.1122 10.4168 29.6797 9.74479 29.5486Z" fill="#039AE4"/>
<path d="M15.3244 31.8594L14.0173 31.9591C13.9841 31.9585 13.952 31.9473 13.9256 31.9272C13.8992 31.907 13.8799 31.879 13.8706 31.8471L13.6903 31.277C13.6846 31.2641 13.682 31.25 13.6827 31.2359C13.6835 31.2217 13.6876 31.208 13.6947 31.1957C13.7018 31.1835 13.7117 31.1731 13.7236 31.1655C13.7355 31.1578 13.749 31.153 13.7631 31.1516L15.0713 31.0508C15.1045 31.0512 15.1367 31.0623 15.1632 31.0825C15.1896 31.1027 15.2088 31.1308 15.218 31.1628L15.3972 31.7317C15.4034 31.7448 15.4063 31.7591 15.4058 31.7735C15.4052 31.788 15.4012 31.802 15.3941 31.8146C15.3869 31.8271 15.3769 31.8377 15.3647 31.8455C15.3526 31.8533 15.3388 31.8581 15.3244 31.8594Z" fill="white"/>
<path d="M12.9989 29.2721C12.9104 29.1243 12.7747 29.0107 12.6137 28.9496C12.5456 28.8008 12.531 28.633 12.5722 28.4747L10.7578 28.0166C10.937 28.5968 11.0781 29.0548 10.8777 29.3539C11.2405 29.5454 11.8857 29.9139 12.5868 29.9531C13.1132 29.9811 13.1277 29.5118 12.9989 29.2721Z" fill="#7F3E3B"/>
<path opacity="0.2" d="M12.5608 28.5303H11.2168C11.6648 28.9514 12.3054 29.0802 12.5832 28.8808C12.5464 28.7677 12.5387 28.6472 12.5608 28.5303Z" fill="black"/>
<path d="M12.817 27.344C13.041 27.0315 13.1015 26.5667 12.929 26.5029C12.9435 26.187 12.9055 25.8555 12.593 25.8006C12.5048 25.7849 12.4144 25.7885 12.3277 25.8111C12.2411 25.8336 12.1604 25.8747 12.0911 25.9314C12.0218 25.9881 11.9657 26.0591 11.9264 26.1396C11.8872 26.2201 11.8659 26.3081 11.8639 26.3976C11.4136 26.9161 12.1327 27.5176 12.817 27.344Z" fill="#E0E0E0"/>
<path d="M10.4168 27.0613C10.6408 27.8867 10.8055 28.4434 11.361 28.6987C12.4675 29.2061 12.9547 28.6327 12.9861 27.7557C13.0141 26.9717 12.6501 25.7475 11.7631 25.5874C11.5668 25.5517 11.3647 25.5664 11.1756 25.6302C10.9866 25.694 10.8168 25.8047 10.6823 25.952C10.5477 26.0993 10.4528 26.2784 10.4064 26.4724C10.3599 26.6664 10.3635 26.869 10.4168 27.0613Z" fill="#7F3E3B"/>
<path d="M12.3469 27.8081C12.3937 27.8058 12.4401 27.7995 12.4858 27.789C12.4889 27.7884 12.4918 27.7871 12.4944 27.7853C12.497 27.7834 12.4992 27.781 12.5008 27.7783C12.5023 27.7755 12.5033 27.7725 12.5036 27.7693C12.504 27.7661 12.5036 27.7629 12.5026 27.7599C12.5005 27.7535 12.4962 27.748 12.4905 27.7445C12.4847 27.7411 12.4779 27.7398 12.4712 27.7409C12.3681 27.7645 12.261 27.7645 12.1578 27.7411C12.0547 27.7176 11.9581 27.6712 11.8754 27.6054C11.8706 27.601 11.8644 27.5986 11.858 27.5986C11.8516 27.5986 11.8454 27.601 11.8407 27.6054C11.8382 27.6076 11.8363 27.6102 11.835 27.6132C11.8337 27.6162 11.833 27.6195 11.833 27.6227C11.833 27.626 11.8337 27.6292 11.835 27.6322C11.8363 27.6352 11.8382 27.6379 11.8407 27.6401C11.9825 27.7573 12.1631 27.8173 12.3469 27.8081Z" fill="#263238"/>
<path d="M10.505 27.6467C10.8286 27.4327 11.0403 27.0161 10.9037 26.8963C11.0269 26.6062 11.0784 26.1839 10.8354 26.1235C10.5923 26.063 10.1264 26.0428 9.94495 26.4326C9.33567 26.7607 9.80271 27.5727 10.505 27.6467Z" fill="#E0E0E0"/>
<path opacity="0.2" d="M11.5468 27.0005C11.4967 26.9882 11.4448 26.986 11.3938 26.9939C11.3429 27.0017 11.294 27.0196 11.25 27.0464C11.351 27.0508 11.4519 27.0352 11.5468 27.0005Z" fill="black"/>
<path opacity="0.2" d="M11.5536 27.0723C11.5062 27.0715 11.4591 27.0811 11.4157 27.1005C11.3724 27.1198 11.3338 27.1484 11.3027 27.1843C11.3934 27.1653 11.4789 27.1271 11.5536 27.0723Z" fill="black"/>
<path opacity="0.2" d="M12.7012 26.78C12.7012 26.78 12.7617 26.6904 12.8132 26.7296C12.7837 26.7602 12.7436 26.7782 12.7012 26.78Z" fill="black"/>
<path opacity="0.2" d="M12.7217 26.8454C12.7217 26.8454 12.7698 26.7658 12.8135 26.8319C12.8015 26.8435 12.7862 26.851 12.7698 26.8534C12.7533 26.8558 12.7365 26.853 12.7217 26.8454Z" fill="black"/>
<path opacity="0.2" d="M12.2835 26.0554C12.0306 26.0459 11.7777 26.0762 11.5342 26.145C11.7854 26.1291 12.0356 26.0992 12.2835 26.0554Z" fill="black"/>
<path opacity="0.2" d="M12.3947 26.1758C12.3947 26.1758 11.819 26.2127 11.5469 26.3729C11.835 26.3334 12.1188 26.2674 12.3947 26.1758Z" fill="black"/>
<path d="M10.2688 27.9111C10.3314 27.9969 10.4105 28.0694 10.5015 28.1244C10.5924 28.1794 10.6934 28.2158 10.7985 28.2314C11.0796 28.2717 11.186 28.0074 11.0796 27.7632C10.9822 27.5392 10.719 27.2514 10.4502 27.3253C10.3917 27.342 10.3382 27.3731 10.2947 27.4156C10.2512 27.4582 10.219 27.5109 10.201 27.5691C10.183 27.6272 10.1797 27.689 10.1916 27.7487C10.2034 27.8084 10.2299 27.8642 10.2688 27.9111Z" fill="#7F3E3B"/>
<path d="M11.7774 27.0008C11.7908 27.0691 11.839 27.1128 11.8827 27.1072C11.9263 27.1016 11.9521 27.0344 11.9387 26.9672C11.9252 26.9 11.8782 26.8552 11.8334 26.8608C11.7886 26.8664 11.7606 26.9325 11.7774 27.0008Z" fill="#263238"/>
<path d="M12.502 26.8641C12.5155 26.9324 12.5625 26.9761 12.6073 26.9705C12.6521 26.9649 12.6767 26.8988 12.6633 26.8305C12.6499 26.7622 12.6017 26.7185 12.558 26.7241C12.5143 26.7297 12.4875 26.7958 12.502 26.8641Z" fill="#263238"/>
<path d="M12.2773 26.9658L12.3893 27.5393C12.5113 27.5443 12.6308 27.5045 12.7253 27.4273C12.6204 27.2358 12.4656 27.0763 12.2773 26.9658Z" fill="#630F0F"/>
<path d="M11.5177 26.8393C11.5107 26.841 11.5034 26.841 11.4964 26.8393C11.4913 26.8378 11.4866 26.8353 11.4825 26.8319C11.4784 26.8285 11.475 26.8244 11.4725 26.8197C11.47 26.815 11.4685 26.8099 11.468 26.8046C11.4674 26.7993 11.468 26.794 11.4695 26.7889C11.487 26.7261 11.5191 26.6683 11.5633 26.6204C11.6075 26.5725 11.6625 26.5358 11.7238 26.5134C11.7289 26.5119 11.7343 26.5114 11.7397 26.512C11.745 26.5125 11.7502 26.5142 11.7549 26.5168C11.7596 26.5194 11.7637 26.5229 11.767 26.5271C11.7703 26.5314 11.7728 26.5362 11.7742 26.5414C11.777 26.5518 11.7756 26.5629 11.7704 26.5723C11.7652 26.5817 11.7565 26.5887 11.7462 26.5918C11.6978 26.6108 11.6546 26.6411 11.6202 26.68C11.5857 26.7189 11.561 26.7655 11.5479 26.8158C11.5452 26.8219 11.541 26.8272 11.5357 26.8313C11.5304 26.8354 11.5243 26.8381 11.5177 26.8393Z" fill="#E0E0E0"/>
<path d="M12.8524 26.579C12.8458 26.5803 12.839 26.5799 12.8325 26.578C12.8261 26.576 12.8202 26.5725 12.8154 26.5678C12.7811 26.5298 12.7382 26.5006 12.6902 26.4827C12.6423 26.4647 12.5907 26.4586 12.5399 26.4648C12.5346 26.4659 12.5291 26.466 12.5238 26.4649C12.5185 26.4639 12.5134 26.4618 12.5089 26.4588C12.5044 26.4557 12.5006 26.4518 12.4976 26.4473C12.4947 26.4427 12.4927 26.4376 12.4917 26.4323C12.49 26.4216 12.4925 26.4107 12.4985 26.4018C12.5045 26.3929 12.5137 26.3865 12.5242 26.3841C12.5894 26.3746 12.6559 26.3812 12.718 26.4032C12.7801 26.4253 12.8358 26.4622 12.8804 26.5107C12.8841 26.5144 12.8871 26.5189 12.8892 26.5238C12.8912 26.5287 12.8922 26.5339 12.8922 26.5392C12.8922 26.5445 12.8912 26.5498 12.8892 26.5547C12.8871 26.5596 12.8841 26.5641 12.8804 26.5678C12.8768 26.5716 12.8725 26.5746 12.8676 26.5765C12.8628 26.5784 12.8576 26.5793 12.8524 26.579Z" fill="#E0E0E0"/>
<path d="M13.1167 30.7632C12.1591 30.6702 10.2181 29.3945 10.9652 29.1235C11.4445 29.651 12.3092 29.7888 12.6821 29.7888C12.821 29.6566 12.9532 29.2826 12.6138 28.9499C13.0036 28.9163 13.7842 30.1147 13.1167 30.7632Z" fill="#039AE4"/>
<path d="M38.2732 40.9751H45.8702C45.989 40.9751 46.1029 40.9279 46.1869 40.8439C46.271 40.7599 46.3182 40.6459 46.3182 40.5271C46.3182 40.4083 46.271 40.2943 46.1869 40.2103C46.1029 40.1263 45.989 40.0791 45.8702 40.0791H38.2732C38.1544 40.0791 38.0404 40.1263 37.9564 40.2103C37.8724 40.2943 37.8252 40.4083 37.8252 40.5271C37.8252 40.6459 37.8724 40.7599 37.9564 40.8439C38.0404 40.9279 38.1544 40.9751 38.2732 40.9751Z" fill="#039AE4"/>
<path d="M47.0283 40.0754H47.2814L48.2458 33.7832H47.9926L47.0283 40.0754Z" fill="#263238"/>
<path d="M43.1699 40.0754H43.423L44.3874 33.7832H44.1354L43.1699 40.0754Z" fill="#263238"/>
<path d="M43.1598 38.8117H48.1136C48.2794 38.8063 48.4383 38.7436 48.5632 38.6344C48.6881 38.5252 48.7715 38.3761 48.799 38.2125L49.555 32.9597C49.5685 32.8854 49.5653 32.809 49.5456 32.7361C49.5258 32.6631 49.4901 32.5955 49.441 32.5382C49.3919 32.4808 49.3306 32.4351 49.2616 32.4043C49.1926 32.3736 49.1176 32.3586 49.0421 32.3605H44.0883C43.9225 32.3658 43.7637 32.4284 43.6389 32.5377C43.5141 32.6469 43.4311 32.7961 43.404 32.9597L42.6469 38.2125C42.6334 38.2868 42.6366 38.3632 42.6563 38.4362C42.676 38.5091 42.7118 38.5767 42.7609 38.6341C42.81 38.6914 42.8713 38.7372 42.9403 38.7679C43.0093 38.7986 43.0843 38.8136 43.1598 38.8117Z" fill="#039AE4"/>
<path opacity="0.4" d="M49.555 32.959L48.799 38.2118C48.779 38.339 48.7239 38.4581 48.6399 38.5556C48.4585 38.7696 48.1359 38.6531 48.174 38.3921L48.9826 32.7787C49.0196 32.5177 49.3758 32.4012 49.4956 32.6152C49.5527 32.7201 49.5736 32.841 49.555 32.959Z" fill="white"/>
<path d="M43.8923 40.9751H47.3643C47.4832 40.9751 47.5971 40.9279 47.6811 40.8439C47.7651 40.7599 47.8123 40.6459 47.8123 40.5271C47.8123 40.4083 47.7651 40.2943 47.6811 40.2103C47.5971 40.1263 47.4832 40.0791 47.3643 40.0791H43.8923C43.7735 40.0791 43.6596 40.1263 43.5756 40.2103C43.4915 40.2943 43.4443 40.4083 43.4443 40.5271C43.4443 40.6459 43.4915 40.7599 43.5756 40.8439C43.6596 40.9279 43.7735 40.9751 43.8923 40.9751Z" fill="#039AE4"/>
<path opacity="0.4" d="M43.8923 40.9751H47.3643C47.4832 40.9751 47.5971 40.9279 47.6811 40.8439C47.7651 40.7599 47.8123 40.6459 47.8123 40.5271C47.8123 40.4083 47.7651 40.2943 47.6811 40.2103C47.5971 40.1263 47.4832 40.0791 47.3643 40.0791H43.8923C43.7735 40.0791 43.6596 40.1263 43.5756 40.2103C43.4915 40.2943 43.4443 40.4083 43.4443 40.5271C43.4443 40.6459 43.4915 40.7599 43.5756 40.8439C43.6596 40.9279 43.7735 40.9751 43.8923 40.9751Z" fill="white"/>
<path d="M42.001 46.3951H42.253L43.2184 40.9766H42.9653L42.001 46.3951Z" fill="#263238"/>
<path d="M37.6182 46.3951H37.8702L38.8345 40.9766H38.5825L37.6182 46.3951Z" fill="#263238"/>
<path d="M43.6979 46.3951H43.4448L42.4805 40.9766H42.7336L43.6979 46.3951Z" fill="#263238"/>
<path d="M48.0797 46.3951H47.8266L46.8623 40.9766H47.1154L48.0797 46.3951Z" fill="#263238"/>
<path d="M39.6313 29.1125C39.9024 29.4675 40.0435 29.3746 40.2261 28.9266C40.3381 28.6387 40.6606 28.7653 40.7357 28.2546C40.7659 28.0429 40.095 27.6352 39.7277 27.745C39.3603 27.8547 39.4241 28.8359 39.6313 29.1125Z" fill="#263238"/>
<path d="M40.1913 31.4203C40.0771 31.3873 39.9575 31.3771 39.8393 31.3904C39.7212 31.4037 39.6068 31.4401 39.5028 31.4976C39.3988 31.5552 39.3071 31.6327 39.233 31.7257C39.159 31.8187 39.104 31.9254 39.0713 32.0397L39.0534 32.1002L39.0063 32.2648L38.9515 32.4463C38.9123 32.5672 38.8731 32.6882 38.8283 32.8058C38.7469 33.0325 38.65 33.2533 38.5382 33.4666C38.4475 33.6403 38.3346 33.8015 38.2022 33.9459C38.1642 33.9874 38.1222 34.0249 38.0767 34.0579C38.0095 34.0143 37.9412 33.9683 37.8729 33.9168C37.6894 33.7787 37.513 33.6314 37.3443 33.4755C37.1662 33.3165 36.9926 33.1463 36.8179 32.9715C36.6431 32.7968 36.4684 32.6131 36.3015 32.4451L36.2814 32.425C36.2076 32.3515 36.1109 32.3055 36.0073 32.2947C35.9038 32.2838 35.7996 32.3087 35.7122 32.3652C35.6248 32.4218 35.5593 32.5065 35.5268 32.6054C35.4942 32.7043 35.4965 32.8114 35.5332 32.9088C35.6325 33.1657 35.7481 33.416 35.8793 33.6581C36.0099 33.9009 36.1534 34.1364 36.3094 34.3637C36.4717 34.6007 36.6514 34.8253 36.847 35.0357C37.061 35.2702 37.3037 35.4768 37.5694 35.6506C37.6772 35.7184 37.8016 35.7552 37.9289 35.757H37.9961C38.2492 35.7583 38.5002 35.7108 38.7353 35.617C38.9505 35.5306 39.1511 35.4116 39.33 35.2642C39.6295 35.014 39.8844 34.7149 40.0838 34.3794C40.2614 34.0867 40.4114 33.7781 40.5318 33.4576C40.5911 33.3019 40.6438 33.1474 40.6919 32.9895C40.7155 32.9099 40.739 32.8304 40.7591 32.7498L40.7883 32.6277L40.8185 32.4899C40.8692 32.2654 40.8326 32.0299 40.7161 31.8313C40.5997 31.6327 40.4121 31.4858 40.1913 31.4203Z" fill="black"/>
<path d="M34.6873 32.5065L34.9695 32.7305C35.0816 32.8192 35.2115 32.8826 35.3503 32.9164L35.7367 33.0116C35.8245 33.0331 35.9165 33.0293 36.0022 33.0005C36.0878 32.9718 36.1636 32.9193 36.2205 32.8492C36.2988 32.7539 36.337 32.6319 36.327 32.509C36.317 32.3861 36.2595 32.2719 36.1668 32.1906C36.0223 32.0754 35.8615 31.9822 35.6897 31.914L35.2943 31.6821C35.2292 31.6441 35.1527 31.6304 35.0784 31.6435C35.0042 31.6567 34.937 31.6957 34.8889 31.7538L34.6402 32.0551C34.6133 32.0877 34.5932 32.1253 34.581 32.1657C34.5688 32.2062 34.5647 32.2486 34.5691 32.2906C34.5735 32.3327 34.5862 32.3734 34.6065 32.4104C34.6268 32.4475 34.6542 32.4801 34.6873 32.5065Z" fill="#FFB573"/>
<path d="M42.3875 30.8222C41.4613 30.8972 40.4197 31.0148 39.6346 31.3822C39.4448 31.4754 39.2895 31.6265 39.1913 31.8137C39.093 32.001 39.0569 32.2146 39.088 32.4238C39.2056 33.2996 39.2975 33.9783 39.5114 34.6996C39.9739 36.2676 38.8528 36.9542 39.8955 38.166C40.3525 38.6846 43.1536 39.174 45.1371 38.521C45.3947 37.4492 45.2738 35.2842 44.9535 32.8964C44.8733 32.2876 44.5623 31.7329 44.0848 31.3468C43.6072 30.9608 42.9996 30.773 42.3875 30.8222Z" fill="#263238"/>
<path d="M44.4032 34.0566C44.9195 36.4792 44.5309 37.1232 43.5319 37.7986C42.1296 38.0158 41.5674 37.4368 41.5674 37.4368L44.4032 34.0566Z" fill="black"/>
<path d="M41.1811 34.414L42.3963 34.4218C42.425 34.4219 42.4527 34.4109 42.4736 34.391C42.4944 34.3712 42.5068 34.3442 42.5083 34.3154L42.5408 33.7946C42.5425 33.7809 42.5413 33.767 42.5374 33.7538C42.5334 33.7405 42.5268 33.7282 42.5178 33.7177C42.5089 33.7072 42.4978 33.6986 42.4854 33.6926C42.4729 33.6865 42.4594 33.6832 42.4456 33.6826L41.2304 33.6748C41.2016 33.6748 41.1739 33.6858 41.1531 33.7056C41.1322 33.7254 41.1198 33.7525 41.1184 33.7812L41.0859 34.302C41.084 34.3157 41.085 34.3297 41.0889 34.3431C41.0928 34.3564 41.0994 34.3687 41.1084 34.3793C41.1174 34.3899 41.1285 34.3984 41.1411 34.4044C41.1536 34.4104 41.1672 34.4137 41.1811 34.414Z" fill="white"/>
<g opacity="0.2">
<path d="M40.5235 32.749C40.5153 32.749 40.5073 32.7465 40.5006 32.7419C40.4938 32.7373 40.4885 32.7308 40.4854 32.7233C40.4821 32.7132 40.4829 32.7022 40.4875 32.6926C40.492 32.683 40.5001 32.6755 40.5101 32.6718C41.1989 32.4276 42.1777 31.797 42.4846 31.3983C42.4875 31.3933 42.4913 31.389 42.496 31.3856C42.5006 31.3823 42.5059 31.3799 42.5115 31.3788C42.5171 31.3776 42.5229 31.3777 42.5285 31.3789C42.5341 31.3802 42.5394 31.3826 42.544 31.3861C42.5485 31.3895 42.5523 31.3939 42.5551 31.3989C42.5578 31.404 42.5595 31.4095 42.5599 31.4152C42.5603 31.421 42.5595 31.4267 42.5575 31.4321C42.5556 31.4375 42.5525 31.4424 42.5485 31.4465C42.1968 31.9023 41.1787 32.5194 40.5325 32.7468C40.5296 32.748 40.5266 32.7488 40.5235 32.749Z" fill="white"/>
<path d="M41.2053 32.8165H41.193C40.5378 32.6137 40.2667 31.9451 40.2096 31.5845C40.2087 31.5792 40.2088 31.5738 40.21 31.5687C40.2112 31.5635 40.2134 31.5586 40.2165 31.5543C40.2197 31.55 40.2237 31.5464 40.2283 31.5437C40.2329 31.541 40.2379 31.5392 40.2432 31.5385C40.2484 31.5377 40.2536 31.538 40.2587 31.5393C40.2638 31.5405 40.2685 31.5428 40.2727 31.5459C40.2769 31.5491 40.2804 31.553 40.283 31.5575C40.2856 31.562 40.2873 31.567 40.288 31.5721C40.3429 31.9171 40.5994 32.551 41.2165 32.7425C41.2215 32.744 41.2262 32.7464 41.2303 32.7496C41.2344 32.7529 41.2378 32.7569 41.2403 32.7615C41.2428 32.7661 41.2444 32.7712 41.2449 32.7764C41.2454 32.7816 41.2449 32.7868 41.2434 32.7918C41.2402 32.7993 41.2349 32.8056 41.2281 32.81C41.2213 32.8144 41.2134 32.8166 41.2053 32.8165Z" fill="white"/>
</g>
<path d="M41.809 29.5498C41.7911 30.0112 41.9132 30.7135 42.266 30.98C42.3049 31.009 42.3361 31.047 42.357 31.0908C42.3779 31.1346 42.3877 31.1828 42.3858 31.2312C42.3838 31.2797 42.37 31.3269 42.3456 31.3688C42.3212 31.4107 42.287 31.446 42.2459 31.4717C41.9894 31.6352 41.2916 31.9903 40.9433 31.9903C40.595 31.9903 40.3934 31.605 40.4326 31.4157C40.4555 31.3254 40.5065 31.2446 40.5782 31.185C40.8134 30.9711 40.6409 30.7504 40.5446 30.5903L41.809 29.5498Z" fill="#FFB573"/>
<path opacity="0.2" d="M41.4299 30.1932C41.4218 30.165 41.4121 30.1374 41.4007 30.1104L40.5439 30.5908C40.6291 30.6977 40.682 30.8267 40.6963 30.9627C41.1275 30.7891 41.5071 30.4576 41.4299 30.1932Z" fill="black"/>
<path d="M36.1904 44.0002C36.3315 43.8524 37.2488 43.5713 37.2488 43.5713C37.4887 44.2598 37.6866 44.9622 37.8413 45.6746L36.6564 45.7934C36.6564 45.7934 36.4615 44.5927 36.1904 44.0002Z" fill="#FFB573"/>
<path d="M41.7761 37.5869C38.3489 37.6351 33.8386 37.4514 34.9015 40.5751C35.3562 41.9124 34.9743 41.4576 35.5063 43.076C35.7303 43.7738 35.8132 43.9788 35.979 44.4626C36.1604 44.8949 37.2513 44.8143 37.659 44.6452C38.1428 44.3876 37.7329 43.692 37.6769 43.3012C37.4014 41.3893 37.9065 41.6055 37.3062 40.3522C38.3993 40.5112 41.8847 40.4004 42.3462 38.521C42.3361 38.521 42.9678 37.7717 41.7761 37.5869Z" fill="#039AE4"/>
<path opacity="0.4" d="M41.7761 37.5869C38.3489 37.6351 33.8386 37.4514 34.9015 40.5751C35.3562 41.9124 34.9743 41.4576 35.5063 43.076C35.7303 43.7738 35.8132 43.9788 35.979 44.4626C36.1604 44.8949 37.2513 44.8143 37.659 44.6452C38.1428 44.3876 37.7329 43.692 37.6769 43.3012C37.4014 41.3893 37.9065 41.6055 37.3062 40.3522C38.3993 40.5112 41.8847 40.4004 42.3462 38.521C42.3361 38.521 42.9678 37.7717 41.7761 37.5869Z" fill="black"/>
<path d="M36.258 44.6885L36.4047 44.9774C36.4132 44.9949 36.4273 45.0091 36.4447 45.0178C36.4621 45.0266 36.4819 45.0293 36.501 45.0256C36.6948 44.992 37.2738 44.899 37.6098 44.9405C37.6219 44.9419 37.6342 44.9408 37.6459 44.9372C37.6576 44.9337 37.6684 44.9278 37.6778 44.92C37.6871 44.9121 37.6947 44.9024 37.7002 44.8915C37.7056 44.8806 37.7088 44.8687 37.7095 44.8565C37.7162 44.7445 37.7151 44.5944 37.7095 44.5025C37.7089 44.4789 37.6991 44.4564 37.6821 44.4398C37.6652 44.4233 37.6424 44.4141 37.6188 44.4141C37.1805 44.4186 36.7437 44.467 36.3151 44.5585C36.302 44.5622 36.2899 44.5687 36.2797 44.5776C36.2694 44.5865 36.2613 44.5976 36.2558 44.61C36.2504 44.6224 36.2477 44.6359 36.2481 44.6495C36.2485 44.663 36.2518 44.6764 36.258 44.6885Z" fill="#263238"/>
<path d="M38.0983 46.4247L37.9673 45.5915C37.9628 45.5721 37.9515 45.555 37.9354 45.5433C37.9194 45.5316 37.8997 45.526 37.8799 45.5276L36.6647 45.5332C36.5669 45.5269 36.4697 45.5529 36.3881 45.6071C36.1148 45.8311 35.6903 46.0551 35.0743 46.1671C34.8794 46.2052 34.9623 46.5916 35.4193 46.5894C36.1753 46.5894 36.1439 46.5625 36.7879 46.5603C37.339 46.5603 37.4767 46.5849 37.9146 46.5894C37.9378 46.5921 37.9613 46.5898 37.9835 46.5828C38.0057 46.5757 38.0262 46.564 38.0436 46.5484C38.0609 46.5329 38.0748 46.5138 38.0842 46.4925C38.0937 46.4711 38.0985 46.4481 38.0983 46.4247Z" fill="#263238"/>
<path d="M41.953 28.4482C41.953 29.2882 41.9956 29.7765 41.589 30.2581C40.9775 30.9828 39.8967 30.733 39.6402 29.9221C39.4095 29.1964 39.4498 27.9442 40.2674 27.5085C41.085 27.0728 41.9542 27.6093 41.953 28.4482Z" fill="#FFB573"/>
<path d="M40.4039 28.8188C40.3983 28.895 40.4341 28.9588 40.4834 28.9622C40.5327 28.9655 40.5786 28.9073 40.5842 28.8311C40.5898 28.755 40.554 28.69 40.5047 28.6867C40.4554 28.6833 40.4095 28.7427 40.4039 28.8188Z" fill="#263238"/>
<path d="M39.618 28.8011C39.6113 28.8773 39.6471 28.9422 39.6964 28.9456C39.7457 28.9489 39.7916 28.8896 39.7972 28.8134C39.8028 28.7373 39.7681 28.6734 39.7188 28.6701C39.6695 28.6667 39.6236 28.7249 39.618 28.8011Z" fill="#263238"/>
<path d="M41.7822 29.1591C41.3689 29.3294 41.2939 29.1782 41.3633 28.6988C41.407 28.3919 41.0688 28.3404 41.2626 27.8599C41.3432 27.6628 42.1283 27.6471 42.3826 27.9249C42.6368 28.2027 42.1048 29.027 41.7822 29.1591Z" fill="#263238"/>
<path d="M41.6113 28.0784C40.666 28.1601 39.4519 28.1646 39.2817 27.4702C39.1697 26.9998 39.7364 26.2953 40.61 26.9808C41.2181 27.4557 41.8084 27.1622 42.1052 27.2641C42.3751 27.3571 42.8959 27.9664 41.6113 28.0784Z" fill="#263238"/>
<path d="M42.224 27.9576C42.1808 27.9572 42.1377 27.9531 42.0952 27.9453C42.0883 27.944 42.0818 27.9415 42.076 27.9377C42.0701 27.9339 42.0651 27.929 42.0611 27.9233C42.0572 27.9176 42.0544 27.9111 42.0529 27.9043C42.0515 27.8976 42.0514 27.8905 42.0526 27.8837C42.0539 27.8769 42.0565 27.8703 42.0602 27.8645C42.064 27.8586 42.0689 27.8536 42.0746 27.8497C42.0803 27.8457 42.0868 27.8429 42.0936 27.8415C42.1004 27.84 42.1074 27.8399 42.1142 27.8411C42.1711 27.8572 42.231 27.8601 42.2892 27.8496C42.3474 27.8392 42.4025 27.8156 42.4502 27.7807C42.4751 27.76 42.4951 27.7339 42.5084 27.7044C42.5218 27.6749 42.5283 27.6428 42.5275 27.6104C42.5272 27.6035 42.5283 27.5965 42.5308 27.59C42.5332 27.5835 42.537 27.5775 42.5418 27.5725C42.5466 27.5675 42.5524 27.5635 42.5588 27.5608C42.5652 27.5581 42.5721 27.5566 42.579 27.5567C42.5859 27.5565 42.5927 27.5577 42.5991 27.5602C42.6055 27.5628 42.6113 27.5665 42.6162 27.5713C42.6211 27.5761 42.625 27.5819 42.6276 27.5882C42.6303 27.5945 42.6317 27.6013 42.6317 27.6082C42.6338 27.6561 42.6248 27.704 42.6053 27.7479C42.5859 27.7918 42.5566 27.8306 42.5197 27.8613C42.4363 27.9287 42.331 27.963 42.224 27.9576Z" fill="#263238"/>
<path d="M40.5111 29.6801C40.4713 29.6917 40.4304 29.6996 40.389 29.7036C40.3862 29.7039 40.3834 29.7036 40.3807 29.7028C40.378 29.7021 40.3755 29.7007 40.3733 29.699C40.3711 29.6972 40.3693 29.695 40.368 29.6925C40.3666 29.6901 40.3658 29.6873 40.3655 29.6845C40.365 29.6817 40.3652 29.6787 40.3659 29.6759C40.3666 29.673 40.3679 29.6704 40.3697 29.6681C40.3715 29.6658 40.3737 29.6638 40.3763 29.6624C40.3788 29.661 40.3816 29.6602 40.3846 29.6599C40.4754 29.6521 40.5632 29.6233 40.641 29.5756C40.7187 29.528 40.7843 29.4629 40.8326 29.3855C40.8338 29.3829 40.8355 29.3805 40.8376 29.3786C40.8397 29.3766 40.8422 29.3752 40.845 29.3742C40.8477 29.3733 40.8506 29.3729 40.8534 29.3731C40.8563 29.3733 40.8591 29.3741 40.8617 29.3754C40.8666 29.3782 40.8702 29.3828 40.8719 29.3882C40.8735 29.3936 40.8731 29.3994 40.8706 29.4045C40.7916 29.54 40.6625 29.639 40.5111 29.6801Z" fill="#263238"/>
<path d="M40.6458 28.3607C40.6534 28.3596 40.6612 28.361 40.668 28.3646C40.6749 28.3683 40.6804 28.3739 40.6838 28.3808C40.7063 28.4253 40.7389 28.4639 40.7789 28.4934C40.819 28.523 40.8655 28.5428 40.9146 28.5511C40.9203 28.5507 40.9261 28.5516 40.9315 28.5537C40.9369 28.5558 40.9418 28.559 40.9458 28.5632C40.9499 28.5673 40.953 28.5723 40.9549 28.5777C40.9569 28.5832 40.9576 28.589 40.9571 28.5947C40.9567 28.6005 40.9549 28.6061 40.9521 28.6111C40.9493 28.6162 40.9454 28.6205 40.9407 28.6239C40.936 28.6273 40.9307 28.6297 40.925 28.6309C40.9193 28.632 40.9135 28.6319 40.9078 28.6306C40.8457 28.6211 40.7867 28.5969 40.7356 28.5601C40.6846 28.5233 40.6431 28.4749 40.6144 28.4189C40.6118 28.4144 40.6102 28.4094 40.6096 28.4042C40.609 28.399 40.6095 28.3938 40.6109 28.3888C40.6124 28.3837 40.6148 28.3791 40.6181 28.375C40.6214 28.371 40.6255 28.3676 40.6301 28.3652C40.6347 28.3622 40.6402 28.3606 40.6458 28.3607Z" fill="#263238"/>
<path d="M39.7736 28.3799C39.7828 28.3807 39.7912 28.3851 39.7971 28.3922C39.8008 28.3959 39.8038 28.4002 39.8058 28.405C39.8078 28.4098 39.8089 28.415 39.8089 28.4202C39.8089 28.4254 39.8078 28.4306 39.8058 28.4354C39.8038 28.4402 39.8008 28.4446 39.7971 28.4482C39.7528 28.4934 39.6981 28.5273 39.6379 28.5468C39.5776 28.5663 39.5135 28.5709 39.451 28.5602C39.441 28.5578 39.4322 28.5515 39.4268 28.5427C39.4213 28.5339 39.4196 28.5233 39.4219 28.5132C39.4243 28.5028 39.4307 28.4938 39.4398 28.4881C39.4488 28.4824 39.4597 28.4806 39.4701 28.4829C39.5193 28.4911 39.5698 28.4872 39.6172 28.4716C39.6646 28.456 39.7075 28.4291 39.7422 28.3933C39.7463 28.3891 39.7512 28.3857 39.7566 28.3834C39.7619 28.3811 39.7677 28.3799 39.7736 28.3799Z" fill="#263238"/>
<path d="M42.2956 29.2681C42.2018 29.4492 42.0411 29.5866 41.8476 29.6511C41.5878 29.7318 41.45 29.5011 41.5116 29.2524C41.5699 29.0284 41.776 28.7159 42.0403 28.7439C42.0977 28.7512 42.1524 28.7727 42.1994 28.8064C42.2465 28.84 42.2844 28.8849 42.3097 28.937C42.3351 28.989 42.3471 29.0465 42.3446 29.1043C42.3421 29.1621 42.3253 29.2184 42.2956 29.2681Z" fill="#FFB573"/>
<path d="M39.9995 28.8281C39.9404 29.0428 39.8518 29.2482 39.7363 29.4385C39.786 29.4669 39.8413 29.4843 39.8983 29.4893C39.9554 29.4943 40.0128 29.4869 40.0667 29.4676L39.9995 28.8281Z" fill="#ED893E"/>
<path d="M39.6133 43.9366C39.7387 43.7753 40.6213 43.4023 40.6213 43.4023C40.9291 44.0633 41.1969 44.7421 41.4232 45.4351L40.2562 45.6726C40.2562 45.6726 39.9426 44.4988 39.6133 43.9366Z" fill="#FFB573"/>
<path d="M42.215 37.3574C38.8471 37.587 36.242 37.5937 37.7283 40.5393C38.3644 41.7993 38.146 41.5294 38.8382 43.0862C39.1361 43.7582 39.2347 43.9531 39.4497 44.4168C39.6737 44.8289 40.7511 44.6408 41.1297 44.4302C41.5855 44.1245 41.1073 43.4737 41.0177 43.0862C40.5507 41.2125 41.0804 41.4936 40.3659 40.3008C41.4691 40.3579 45.2334 40.7286 45.1326 38.5166C45.1359 38.5211 44.5838 37.3574 42.215 37.3574Z" fill="#039AE4"/>
<path opacity="0.4" d="M42.215 37.3574C38.8471 37.587 36.242 37.5937 37.7283 40.5393C38.3644 41.7993 38.146 41.5294 38.8382 43.0862C39.1361 43.7582 39.2347 43.9531 39.4497 44.4168C39.6737 44.8289 40.7511 44.6408 41.1297 44.4302C41.5855 44.1245 41.1073 43.4737 41.0177 43.0862C40.5507 41.2125 41.0804 41.4936 40.3659 40.3008C41.4691 40.3579 45.2334 40.7286 45.1326 38.5166C45.1359 38.5211 44.5838 37.3574 42.215 37.3574Z" fill="black"/>
<path d="M39.7493 44.6175L39.924 44.8908C39.9345 44.9071 39.95 44.9195 39.9681 44.9264C39.9863 44.9332 40.0061 44.9341 40.0248 44.9289C40.2152 44.8762 40.7808 44.725 41.1202 44.7317C41.1324 44.7319 41.1446 44.7296 41.1559 44.7248C41.1672 44.7201 41.1774 44.7132 41.1859 44.7043C41.1944 44.6955 41.201 44.6851 41.2053 44.6736C41.2096 44.6621 41.2115 44.6499 41.2109 44.6377C41.2109 44.5257 41.1896 44.3778 41.1784 44.286C41.1756 44.2625 41.1637 44.241 41.1453 44.2262C41.1269 44.2113 41.1034 44.2042 41.0798 44.2065C40.6442 44.2554 40.2146 44.3481 39.7974 44.4831C39.7844 44.4874 39.7725 44.4947 39.7627 44.5043C39.7528 44.5139 39.7453 44.5256 39.7407 44.5386C39.736 44.5515 39.7344 44.5654 39.7359 44.579C39.7374 44.5927 39.742 44.6059 39.7493 44.6175Z" fill="#263238"/>
<path d="M41.7568 46.1012L41.5138 45.2579C41.5069 45.2392 41.4934 45.2238 41.4758 45.2144C41.4583 45.2051 41.4379 45.2027 41.4186 45.2075L40.2168 45.3889C40.1192 45.3965 40.0267 45.4358 39.9536 45.5009C39.6492 45.8564 39.23 46.0941 38.7686 46.1729C38.5738 46.211 38.6567 46.5974 39.1136 46.5952C39.8685 46.5952 39.836 46.4966 40.4733 46.4025C40.956 46.332 41.1598 46.3297 41.5933 46.2905C41.617 46.2904 41.6404 46.2853 41.662 46.2754C41.6835 46.2655 41.7027 46.2511 41.7182 46.2331C41.7337 46.2152 41.7451 46.1941 41.7518 46.1714C41.7585 46.1486 41.7602 46.1247 41.7568 46.1012Z" fill="#263238"/>
<path d="M38.8821 37.1771L39.2327 37.0954C39.3725 37.0646 39.5173 37.0646 39.6571 37.0954L40.0458 37.1749C40.1342 37.1929 40.2158 37.2356 40.281 37.298C40.3462 37.3605 40.3924 37.4401 40.4143 37.5277C40.4446 37.6473 40.427 37.7741 40.3653 37.881C40.3036 37.9879 40.2026 38.0664 40.0839 38.1C39.9043 38.1431 39.7193 38.159 39.5351 38.147L39.0781 38.1862C39.0031 38.1926 38.9282 38.1723 38.8667 38.1289C38.8053 38.0854 38.7611 38.0216 38.7421 37.9488L38.6458 37.5702C38.6346 37.5289 38.6319 37.4857 38.6378 37.4433C38.6437 37.4009 38.6582 37.3601 38.6802 37.3234C38.7023 37.2866 38.7316 37.2548 38.7662 37.2296C38.8009 37.2045 38.8403 37.1866 38.8821 37.1771Z" fill="#FFB573"/>
<path d="M44.4411 33.1196C44.4176 32.806 44.3896 32.5059 44.3415 32.1822C44.3068 31.949 44.1827 31.7385 43.9954 31.5953C43.808 31.4522 43.5723 31.3877 43.3382 31.4155C43.1041 31.4434 42.8901 31.5614 42.7415 31.7444C42.593 31.9275 42.5217 32.1613 42.5427 32.3961V32.4095L42.6167 33.2607C42.6424 33.5475 42.6637 33.8353 42.6827 34.1187C42.6917 34.2609 42.6995 34.402 42.7051 34.542C42.7107 34.682 42.7175 34.822 42.7186 34.9587C42.7186 35.1278 42.7186 35.2947 42.7186 35.4559C42.592 35.5455 42.4576 35.6363 42.321 35.7247C42.0656 35.8883 41.8002 36.054 41.5291 36.2131C41.2581 36.3721 40.9837 36.5345 40.7082 36.6947C40.4327 36.8548 40.1482 37.0172 39.8816 37.1819H39.8738C39.7986 37.2324 39.7435 37.3077 39.7179 37.3946C39.6924 37.4815 39.698 37.5746 39.7338 37.6579C39.8111 37.8964 39.9634 38.0678 40.2075 38.014C40.5379 37.9412 40.8527 37.8527 41.1707 37.7575C41.4888 37.6623 41.8013 37.5559 42.1138 37.4395C42.4263 37.323 42.7387 37.1998 43.049 37.0519C43.3785 36.9042 43.6957 36.7304 43.9976 36.5323C44.1519 36.4269 44.26 36.2667 44.3 36.0843L44.3146 36.0171C44.3841 35.6847 44.4301 35.3479 44.4523 35.0091C44.4781 34.6843 44.4826 34.3684 44.4815 34.0526C44.4803 33.7367 44.4635 33.4299 44.4411 33.1196Z" fill="#263238"/>
<path d="M28.9371 32.928C28.8889 32.6189 28.3211 32.4889 28.3211 32.4889L27.9851 32.3512C27.9304 32.3283 27.8694 32.3259 27.8131 32.3441C27.7568 32.3624 27.709 32.4003 27.6782 32.4509L27.5158 32.7118C27.4983 32.74 27.4867 32.7715 27.4816 32.8042C27.4764 32.837 27.4778 32.8705 27.4857 32.9027C27.4937 32.9349 27.5079 32.9652 27.5277 32.9919C27.5475 33.0185 27.5724 33.041 27.6009 33.0579L27.9089 33.2393C27.9636 33.2718 28.0248 33.2921 28.0881 33.2987L28.3457 33.3256C28.4541 33.3368 28.5635 33.317 28.6611 33.2684C28.7586 33.2198 28.8404 33.1445 28.8967 33.0512L28.9124 33.0265C28.9318 32.9975 28.9405 32.9627 28.9371 32.928Z" fill="#FF8B7B"/>
<path d="M32.7888 30.4863C32.6656 31.0239 32.529 32.0095 32.8952 32.3814C32.1918 32.5287 31.5409 32.8621 31.0103 33.3468C30.653 32.63 31.2164 32.3287 31.2164 32.3287C31.8234 32.2044 31.8223 31.7564 31.7304 31.3342L32.7888 30.4863Z" fill="#FF8B7B"/>
<path d="M30.8906 32.832C31.0777 32.2608 30.6274 32.1465 31.398 31.9113C32.0005 31.7265 33.1228 31.7769 33.3781 31.9808C33.5204 32.0928 33.3031 32.4388 33.3031 32.4388L30.8906 32.832Z" fill="#E0E0E0"/>
<path d="M33.7258 33.3568L33.6877 33.4039L33.6552 33.4442L33.5902 33.5181C33.5477 33.5663 33.5029 33.6111 33.4592 33.657C33.3707 33.7455 33.28 33.8306 33.1859 33.9135C32.9991 34.0784 32.7995 34.2282 32.589 34.3615C32.4848 34.4298 32.375 34.4892 32.2675 34.5508C32.16 34.6124 32.0435 34.6628 31.9315 34.7132C31.7021 34.8139 31.465 34.8963 31.2226 34.9596L31.1912 34.9674C31.1465 34.9803 31.0997 34.9845 31.0534 34.9797C30.8846 34.9633 30.7196 34.919 30.5651 34.8487C30.4421 34.7943 30.3224 34.7326 30.2067 34.6639C29.9931 34.5362 29.7871 34.3964 29.5896 34.245C29.397 34.0957 29.2103 33.9422 29.0296 33.7847C28.8515 33.6234 28.679 33.4632 28.5099 33.2863C28.4626 33.2377 28.4345 33.1735 28.431 33.1058C28.4276 33.038 28.4489 32.9714 28.4911 32.9182C28.5332 32.8651 28.5933 32.8291 28.6601 32.8171C28.7268 32.805 28.7957 32.8177 28.8538 32.8528H28.8594C29.0554 32.9648 29.2536 33.0892 29.4518 33.2012C29.6501 33.3132 29.8483 33.4252 30.0454 33.5372C30.2426 33.6492 30.4408 33.7444 30.6334 33.8295C30.7239 33.8704 30.8166 33.9059 30.9112 33.9359C30.9718 33.9571 31.0352 33.9691 31.0994 33.9717L30.9302 33.9919C31.1157 33.9216 31.2964 33.8393 31.4712 33.7455C31.6465 33.6527 31.8156 33.5487 31.9774 33.4341C32.1405 33.3201 32.2968 33.1967 32.4456 33.0645C32.5206 32.9996 32.5923 32.9324 32.6618 32.8629L32.7626 32.7588L32.8096 32.7084L32.8477 32.6669L32.8779 32.6333C32.9775 32.534 33.1108 32.4757 33.2513 32.4702C33.3918 32.4646 33.5293 32.5121 33.6364 32.6033C33.7435 32.6944 33.8124 32.8226 33.8294 32.9622C33.8463 33.1018 33.8102 33.2427 33.728 33.3568H33.7258Z" fill="#FF8B7B"/>
<path d="M29.5392 33.5504C29.5392 33.9144 28.9434 34.7365 29.6355 35.2461C29.696 35.9831 29.7778 36.7088 29.9357 37.9195L33.6317 38.0315C33.2789 36.6875 33.5824 35.7994 34.1458 33.4731C34.1768 33.3458 34.1806 33.2134 34.1571 33.0846C34.1336 32.9557 34.0833 32.8332 34.0093 32.725C33.9354 32.6168 33.8395 32.5254 33.728 32.4567C33.6164 32.388 33.4916 32.3436 33.3618 32.3263C33.2151 32.3072 33.0583 32.2893 32.8992 32.277C32.3412 32.2187 31.7798 32.2008 31.2192 32.2232C31.0378 32.2344 30.8496 32.2512 30.6704 32.2714C30.3564 32.3054 30.0664 32.4553 29.8572 32.6919C29.648 32.9285 29.5346 33.2346 29.5392 33.5504Z" fill="#039AE4"/>
<path opacity="0.4" d="M29.5392 33.5504C29.5392 33.9144 28.9434 34.7365 29.6355 35.2461C29.696 35.9831 29.7778 36.7088 29.9357 37.9195L33.6317 38.0315C33.2789 36.6875 33.5824 35.7994 34.1458 33.4731C34.1768 33.3458 34.1806 33.2134 34.1571 33.0846C34.1336 32.9557 34.0833 32.8332 34.0093 32.725C33.9354 32.6168 33.8395 32.5254 33.728 32.4567C33.6164 32.388 33.4916 32.3436 33.3618 32.3263C33.2151 32.3072 33.0583 32.2893 32.8992 32.277C32.3412 32.2187 31.7798 32.2008 31.2192 32.2232C31.0378 32.2344 30.8496 32.2512 30.6704 32.2714C30.3564 32.3054 30.0664 32.4553 29.8572 32.6919C29.648 32.9285 29.5346 33.2346 29.5392 33.5504Z" fill="black"/>
<path d="M30.9114 29.6442C30.9014 29.7102 30.8566 29.7562 30.8129 29.7562C30.7692 29.7562 30.7423 29.689 30.7535 29.6218C30.7647 29.5546 30.8084 29.5098 30.8521 29.5098C30.8958 29.5098 30.9271 29.577 30.9114 29.6442Z" fill="#263238"/>
<path d="M30.8761 29.517L30.7227 29.4453C30.7227 29.4453 30.7843 29.5842 30.8761 29.517Z" fill="#263238"/>
<path d="M30.8782 29.708C30.7942 29.8513 30.6909 29.9825 30.5713 30.0978C30.6014 30.1278 30.6379 30.1508 30.6779 30.1651C30.718 30.1795 30.7608 30.1848 30.8031 30.1806L30.8782 29.708Z" fill="#FF5652"/>
<path d="M30.8208 29.2532C30.8159 29.2517 30.8113 29.2491 30.8074 29.2456C30.8035 29.2421 30.8005 29.2378 30.7984 29.2331C30.796 29.2285 30.7945 29.2234 30.7941 29.2182C30.7936 29.213 30.7943 29.2078 30.796 29.2028C30.7977 29.1979 30.8003 29.1934 30.8038 29.1895C30.8073 29.1857 30.8116 29.1826 30.8164 29.1804C30.8725 29.1511 30.935 29.1357 30.9984 29.1357C31.0617 29.1357 31.1242 29.1511 31.1804 29.1804C31.1891 29.1862 31.1954 29.195 31.1979 29.2052C31.2004 29.2154 31.1989 29.2261 31.1938 29.2353C31.1884 29.2442 31.1798 29.2506 31.1697 29.2531C31.1596 29.2557 31.1489 29.2541 31.14 29.2487C31.0949 29.2271 31.0453 29.2165 30.9953 29.2177C30.9453 29.2188 30.8963 29.2318 30.8522 29.2554C30.8471 29.2573 30.8417 29.2581 30.8363 29.2577C30.8309 29.2573 30.8256 29.2558 30.8208 29.2532Z" fill="#263238"/>
<path d="M33.1666 29.7782C32.9863 30.5935 32.9269 30.9419 32.4521 31.3003C31.7375 31.8379 30.7956 31.4391 30.734 30.5868C30.678 29.8196 30.9826 28.6156 31.826 28.414C32.6693 28.2124 33.3481 28.9628 33.1666 29.7782Z" fill="#FF8B7B"/>
<path d="M31.2296 29.9625C31.383 30.723 32.1256 31.3491 32.6856 31.3255C33.2456 31.302 34.071 30.2403 34.0475 29.4451C34.024 28.6499 33.4674 27.9476 32.559 27.9891C31.6507 28.0305 30.4893 28.082 31.2296 29.9625Z" fill="#263238"/>
<path d="M32.2553 28.2923C31.5653 27.5789 30.6089 28.0885 30.4756 28.8411C30.8777 28.7627 31.2114 29.3272 31.7333 29.2958C32.3314 29.26 32.6383 28.691 32.2553 28.2923Z" fill="#263238"/>
<path d="M33.0532 28.4413C33.1473 27.7626 33.8372 27.8925 34.1183 28.2453C34.3994 28.5981 34.526 29.6789 33.8361 29.4448C33.1461 29.2107 33.0061 28.784 33.0532 28.4413Z" fill="#039AE4"/>
<path d="M33.6894 28.6835C33.5662 27.9096 34.1251 26.2263 35.4982 26.8736C36.6339 27.409 35.0726 30.2605 36.6339 30.7779C36.0414 31.6818 34.0086 30.6883 33.6894 28.6835Z" fill="#263238"/>
<path d="M36.7885 31.1366H36.7784C35.9462 30.8062 35.9227 29.5014 35.9037 28.4486C35.8902 27.7665 35.8802 27.1774 35.6573 27.0351C35.6132 27.012 35.5638 27.0006 35.514 27.0019C35.4642 27.0033 35.4156 27.0175 35.3728 27.043C35.3696 27.0445 35.3662 27.0453 35.3628 27.0454C35.3593 27.0455 35.3558 27.0449 35.3526 27.0437C35.3493 27.0424 35.3464 27.0405 35.3439 27.0381C35.3414 27.0357 35.3394 27.0328 35.3381 27.0295C35.3354 27.023 35.3352 27.0156 35.3377 27.009C35.3402 27.0023 35.3452 26.9969 35.3515 26.9937C35.4029 26.9652 35.4607 26.9502 35.5195 26.9502C35.5783 26.9502 35.6361 26.9652 35.6875 26.9937C35.9339 27.1516 35.9451 27.7542 35.9574 28.4497C35.9765 29.4835 36 30.7692 36.7986 31.0862C36.8019 31.0874 36.8049 31.0893 36.8075 31.0917C36.8101 31.0942 36.8122 31.0971 36.8136 31.1003C36.8151 31.1035 36.8159 31.107 36.816 31.1105C36.8161 31.1141 36.8155 31.1176 36.8142 31.1209C36.8119 31.1257 36.8082 31.1297 36.8037 31.1325C36.7991 31.1353 36.7938 31.1367 36.7885 31.1366Z" fill="#263238"/>
<path d="M31.5924 30.072C31.4804 30.2557 31.43 30.3352 31.2878 30.3845C31.2436 30.4031 31.1949 30.4083 31.1478 30.3996C31.1006 30.3908 31.0571 30.3684 31.0225 30.3352C30.9879 30.3019 30.9639 30.2593 30.9533 30.2125C30.9427 30.1657 30.9461 30.1169 30.963 30.072C31.0212 29.8816 31.2027 29.6128 31.411 29.6318C31.4587 29.6384 31.5039 29.6573 31.542 29.6868C31.5801 29.7163 31.6098 29.7552 31.6282 29.7998C31.6466 29.8443 31.6529 29.8929 31.6466 29.9406C31.6404 29.9884 31.6217 30.0337 31.5924 30.072Z" fill="#FF8B7B"/>
<path d="M31.0922 30.4669L30.9802 30.7055L30.8682 30.4669L30.9802 30.2295L31.0922 30.4669Z" fill="white"/>
<path d="M31.3204 37.9773C31.3204 37.9773 28.2057 37.8172 26.1538 38.7457C25.5154 39.0346 25.4169 39.5173 25.3038 40.2084C24.8322 43.1103 24.0986 46.0324 24.0986 46.0324L24.7975 46.2396C24.7975 46.2396 27.4038 42.4103 27.0465 40.3327C31.8838 41.3586 33.4137 39.7514 33.4137 39.7514L31.3204 37.9773Z" fill="#FF8B7B"/>
<path d="M24.1323 45.9038C24.0931 45.8915 24.0606 45.915 24.0259 45.934C23.7728 46.0707 23.7739 46.0785 23.0929 46.148C22.8689 46.1715 22.8398 46.3798 23.3931 46.5534L24.7483 46.979C24.8816 47.0204 25.1246 46.7035 24.9398 46.1782C24.9332 46.1602 24.9215 46.1446 24.9062 46.133C24.8909 46.1215 24.8727 46.1146 24.8536 46.1132C24.6021 46.0895 24.3574 46.0184 24.1323 45.9038Z" fill="#263238"/>
<path d="M33.1513 38.2323C33.1513 38.2323 30.6738 37.819 28.6242 38.7385C28.312 38.8779 28.0536 39.1151 27.8881 39.4144C27.7226 39.7136 27.659 40.0586 27.707 40.3972C28.1236 43.3092 29.163 46.7286 29.163 46.7286L29.8921 46.7174C29.8921 46.7174 29.8383 42.6518 29.481 40.5742C29.8932 40.7086 30.5954 40.7119 30.9594 40.6951C32.3034 40.6313 33.401 40.2684 33.2342 38.9345L33.1513 38.2323Z" fill="#FF8B7B"/>
<path d="M29.126 46.5928C29.0857 46.5928 29.0622 46.6241 29.0342 46.6533C28.8348 46.8605 28.8371 46.866 28.2076 47.1382C27.9971 47.2289 28.0363 47.4339 28.6164 47.4339H30.0366C30.1755 47.4339 30.3132 47.0576 29.9795 46.6129C29.9678 46.5977 29.952 46.5862 29.9339 46.5798C29.9158 46.5734 29.8962 46.5725 29.8776 46.5771C29.6302 46.6289 29.3753 46.6343 29.126 46.5928Z" fill="#263238"/>
<path d="M29.9358 37.9194C29.9358 37.9194 27.9534 37.9071 26.457 38.522C26.457 40.631 27.3318 41.4754 27.3318 41.4754C27.3318 41.4754 35.4764 42.9068 33.6318 38.0359C32.6764 37.7447 29.957 37.8332 29.9358 37.9194Z" fill="#263238"/>
<path d="M27.8545 38.2634C27.7425 38.5557 27.1601 38.5613 27.1601 38.5613L26.8051 38.6251C26.7467 38.6355 26.6866 38.6248 26.6354 38.5951C26.5841 38.5654 26.5451 38.5185 26.5251 38.4627L26.4232 38.1726C26.4122 38.1413 26.4076 38.1082 26.4096 38.075C26.4116 38.0419 26.4201 38.0096 26.4347 37.9798C26.4493 37.95 26.4697 37.9234 26.4946 37.9015C26.5195 37.8796 26.5485 37.8629 26.58 37.8523L26.916 37.7403C26.9767 37.7211 27.0408 37.7146 27.1041 37.7213L27.3617 37.7504C27.4699 37.7627 27.5723 37.8053 27.6573 37.8732C27.7423 37.9412 27.8064 38.0318 27.8422 38.1346L27.8512 38.1626C27.864 38.1947 27.8652 38.2304 27.8545 38.2634Z" fill="#FF8B7B"/>
<path d="M30.8085 33.5011C30.7659 33.7778 30.711 34.0387 30.655 34.3053C30.599 34.5718 30.5352 34.835 30.4635 35.0982C30.3241 35.6356 30.1452 36.162 29.9282 36.673L29.9136 36.7054C29.9011 36.7349 29.8845 36.7624 29.8643 36.7872C29.7159 36.9633 29.5525 37.1263 29.376 37.2744C29.2114 37.4189 29.04 37.5466 28.8675 37.6709C28.695 37.7952 28.5181 37.9094 28.3389 38.0192C28.1597 38.129 27.9794 38.232 27.7867 38.3283C27.7274 38.3567 27.66 38.3634 27.5962 38.347C27.5325 38.3307 27.4766 38.2925 27.4382 38.239C27.3999 38.1856 27.3816 38.1203 27.3865 38.0548C27.3915 37.9892 27.4194 37.9274 27.4653 37.8803L27.8954 37.4581C28.0387 37.317 28.181 37.177 28.3187 37.0347C28.4565 36.8925 28.592 36.7514 28.7186 36.6102C28.8393 36.4771 28.9516 36.3364 29.0546 36.1891L28.9907 36.3011C29.0702 36.0704 29.1386 35.8274 29.2058 35.5821C29.273 35.3368 29.3301 35.0859 29.3883 34.8339C29.4466 34.5819 29.5003 34.3288 29.553 34.0746C29.6056 33.8203 29.656 33.5627 29.7053 33.3163V33.3096C29.7359 33.1681 29.8202 33.0439 29.9405 32.9632C30.0607 32.8825 30.2075 32.8515 30.3501 32.8767C30.4927 32.9019 30.62 32.9814 30.7052 33.0985C30.7905 33.2155 30.8271 33.361 30.8074 33.5045L30.8085 33.5011Z" fill="#FF8B7B"/>
<path d="M34.1593 33.2149C33.9151 33.8253 33.2633 34.2733 32.3415 34.4257C31.9372 34.3249 31.3828 32.9697 31.3828 32.9697C31.3828 32.9697 34.0406 31.5383 34.1593 33.2149Z" fill="#039AE4"/>
<path opacity="0.4" d="M34.1593 33.2149C33.9151 33.8253 33.2633 34.2733 32.3415 34.4257C31.9372 34.3249 31.3828 32.9697 31.3828 32.9697C31.3828 32.9697 34.0406 31.5383 34.1593 33.2149Z" fill="black"/>
<path d="M30.0765 32.4488C29.6453 32.7142 29.1727 33.2921 29.1055 34.3068C29.2723 34.6888 30.949 35.0091 30.949 35.0091C30.949 35.0091 31.5728 31.7297 30.0765 32.4488Z" fill="#039AE4"/>
<path opacity="0.4" d="M30.0765 32.4488C29.6453 32.7142 29.1727 33.2921 29.1055 34.3068C29.2723 34.6888 30.949 35.0091 30.949 35.0091C30.949 35.0091 31.5728 31.7297 30.0765 32.4488Z" fill="black"/>
<path d="M25.6891 42.1133H33.2861C33.5348 42.1133 33.7363 41.9117 33.7363 41.663C33.7363 41.4144 33.5348 41.2128 33.2861 41.2128H25.6891C25.4405 41.2128 25.2389 41.4144 25.2389 41.663C25.2389 41.9117 25.4405 42.1133 25.6891 42.1133Z" fill="#039AE4"/>
<path d="M30.1051 39.9494H35.0555C35.2214 39.944 35.3802 39.8814 35.5052 39.7721C35.6301 39.6629 35.7134 39.5139 35.741 39.3502L36.497 34.0963C36.5107 34.0221 36.5076 33.9458 36.4881 33.8729C36.4685 33.8 36.4329 33.7325 36.3838 33.6751C36.3347 33.6178 36.2735 33.5722 36.2045 33.5416C36.1355 33.5109 36.0606 33.4961 35.9851 33.4982H31.0336C30.8679 33.5033 30.7091 33.5656 30.5843 33.6747C30.4595 33.7838 30.3765 33.9328 30.3493 34.0963L29.5922 39.3502C29.5787 39.4246 29.5819 39.501 29.6016 39.5739C29.6213 39.6468 29.6571 39.7144 29.7062 39.7718C29.7553 39.8292 29.8166 39.8749 29.8856 39.9056C29.9546 39.9364 30.0296 39.9513 30.1051 39.9494Z" fill="#039AE4"/>
<path opacity="0.4" d="M30.3513 34.0969L29.5942 39.3508C29.5757 39.4715 29.5982 39.595 29.658 39.7014C29.6871 39.749 29.7301 39.7864 29.7811 39.8087C29.8322 39.8309 29.889 39.8369 29.9436 39.8257C29.9982 39.8146 30.048 39.7869 30.0863 39.7464C30.1246 39.7059 30.1495 39.6546 30.1575 39.5995L30.9651 33.9916C30.9732 33.9323 30.9616 33.872 30.9318 33.8201C30.9021 33.7681 30.8561 33.7275 30.8008 33.7044C30.7456 33.6814 30.6843 33.6773 30.6264 33.6928C30.5686 33.7083 30.5176 33.7425 30.4812 33.79C30.4128 33.8798 30.3682 33.9853 30.3513 34.0969Z" fill="white"/>
<path d="M34.4443 41.214H34.6975L35.6618 34.9219H35.4087L34.4443 41.214Z" fill="#263238"/>
<path d="M30.5869 41.214H30.8389L31.8032 34.9219H31.5512L30.5869 41.214Z" fill="#263238"/>
<path d="M31.3077 42.1133H34.7841C35.0328 42.1133 35.2344 41.9117 35.2344 41.663C35.2344 41.4144 35.0328 41.2128 34.7841 41.2128H31.3077C31.059 41.2128 30.8574 41.4144 30.8574 41.663C30.8574 41.9117 31.059 42.1133 31.3077 42.1133Z" fill="#039AE4"/>
<path opacity="0.4" d="M30.4081 41.2139H25.6895C25.4408 41.2139 25.2393 41.4154 25.2393 41.6641C25.2393 41.9128 25.4408 42.1143 25.6895 42.1143H30.4081C30.6567 42.1143 30.8583 41.9128 30.8583 41.6641C30.8583 41.4154 30.6567 41.2139 30.4081 41.2139Z" fill="white"/>
<path d="M29.416 47.533H29.668L30.6323 42.1133H30.3803L29.416 47.533Z" fill="#263238"/>
<path d="M25.0342 47.533H25.2862L26.2505 42.1133H25.9985L25.0342 47.533Z" fill="#263238"/>
<path d="M31.1129 47.533H30.8598L29.8955 42.1133H30.1486L31.1129 47.533Z" fill="#263238"/>
<path d="M35.4958 47.533H35.2426L34.2783 42.1133H34.5314L35.4958 47.533Z" fill="#263238"/>
<path d="M13.9283 13.238C12.7868 13.4248 11.7516 14.0189 11.0146 14.9104C10.2775 15.8019 9.88854 16.9303 9.91971 18.0866C9.95087 19.2429 10.4001 20.3487 11.1841 21.1992C11.9681 22.0496 13.0337 22.5872 14.1837 22.7121C14.1348 23.0671 14.0576 23.4177 13.953 23.7604C13.953 23.7604 14.6899 23.3393 15.0999 22.7222C15.2253 22.7121 15.3519 22.6976 15.4784 22.6763C16.1006 22.5773 16.6971 22.3563 17.2337 22.0261C17.7702 21.6958 18.2363 21.2628 18.605 20.7519C18.9736 20.241 19.2378 19.6623 19.3821 19.049C19.5265 18.4357 19.5482 17.8 19.4461 17.1782C19.344 16.5565 19.12 15.9611 18.7871 15.4262C18.4542 14.8913 18.0189 14.4275 17.5061 14.0613C16.9934 13.6952 16.4134 13.434 15.7994 13.2927C15.1854 13.1514 14.5495 13.1328 13.9283 13.238Z" fill="#039AE4"/>
<path opacity="0.5" d="M13.9283 13.238C12.7868 13.4248 11.7516 14.0189 11.0146 14.9104C10.2775 15.8019 9.88854 16.9303 9.91971 18.0866C9.95087 19.2429 10.4001 20.3487 11.1841 21.1992C11.9681 22.0496 13.0337 22.5872 14.1837 22.7121C14.1348 23.0671 14.0576 23.4177 13.953 23.7604C13.953 23.7604 14.6899 23.3393 15.0999 22.7222C15.2253 22.7121 15.3519 22.6976 15.4784 22.6763C16.1006 22.5773 16.6971 22.3563 17.2337 22.0261C17.7702 21.6958 18.2363 21.2628 18.605 20.7519C18.9736 20.241 19.2378 19.6623 19.3821 19.049C19.5265 18.4357 19.5482 17.8 19.4461 17.1782C19.344 16.5565 19.12 15.9611 18.7871 15.4262C18.4542 14.8913 18.0189 14.4275 17.5061 14.0613C16.9934 13.6952 16.4134 13.434 15.7994 13.2927C15.1854 13.1514 14.5495 13.1328 13.9283 13.238Z" fill="white"/>
<path d="M15.2467 22.3317C14.3658 22.4765 13.4617 22.3568 12.6489 21.9878C11.836 21.6188 11.1508 21.017 10.6799 20.2586C10.209 19.5001 9.97364 18.6191 10.0035 17.7269C10.0334 16.8347 10.3271 15.9713 10.8477 15.2461C11.3682 14.5208 12.0921 13.9662 12.9278 13.6524C13.7636 13.3385 14.6736 13.2796 15.5428 13.4829C16.4121 13.6863 17.2015 14.1429 17.8113 14.7949C18.421 15.447 18.8237 16.2652 18.9685 17.1461C19.1607 18.327 18.8769 19.536 18.1792 20.508C17.4816 21.4801 16.427 22.1359 15.2467 22.3317ZM13.7907 13.4837C12.921 13.6267 12.1132 14.0244 11.4695 14.6265C10.8259 15.2286 10.3752 16.008 10.1745 16.8663C9.97375 17.7245 10.032 18.623 10.3419 19.4481C10.6519 20.2732 11.1995 20.9879 11.9156 21.5018C12.6316 22.0156 13.484 22.3056 14.3649 22.3351C15.2458 22.3645 16.1157 22.1321 16.8645 21.6672C17.6133 21.2023 18.2074 20.5258 18.5718 19.7233C18.9361 18.9207 19.0543 18.0281 18.9113 17.1584C18.719 15.9923 18.072 14.9502 17.1122 14.2606C16.1524 13.5711 14.9583 13.2904 13.7918 13.4803L13.7907 13.4837Z" fill="white"/>
<path d="M14.1545 20.0306C13.642 20.1148 13.1159 20.0451 12.643 19.8303C12.17 19.6155 11.7713 19.2653 11.4974 18.8239C11.2235 18.3825 11.0866 17.8699 11.104 17.3507C11.1215 16.8316 11.2925 16.3292 11.5954 15.9072C11.8983 15.4853 12.3196 15.1626 12.8059 14.98C13.2922 14.7975 13.8218 14.7632 14.3275 14.8816C14.8333 15 15.2926 15.2657 15.6474 15.6452C16.0022 16.0246 16.2365 16.5007 16.3206 17.0133C16.4329 17.7006 16.2678 18.4043 15.8617 18.97C15.4556 19.5357 14.8416 19.9172 14.1545 20.0306ZM13.3123 14.9032C12.811 14.9856 12.3453 15.2149 11.9742 15.5619C11.6031 15.9089 11.3432 16.3582 11.2274 16.8529C11.1116 17.3476 11.1451 17.8656 11.3236 18.3413C11.5022 18.8169 11.8177 19.229 12.2304 19.5254C12.6431 19.8217 13.1344 19.9891 13.6422 20.0063C14.15 20.0235 14.6515 19.8897 15.0833 19.6219C15.515 19.3541 15.8577 18.9643 16.068 18.5018C16.2783 18.0393 16.3467 17.5248 16.2646 17.0234C16.1528 16.3515 15.7794 15.7512 15.2262 15.3538C14.6729 14.9565 13.9847 14.7945 13.3123 14.9032Z" fill="white"/>
<path d="M35.0032 12.1451C34.8583 11.8025 34.6761 11.4768 34.46 11.1741L34.5585 11.1035C34.7814 11.4133 34.9692 11.7469 35.1185 12.0981L35.0032 12.1451Z" fill="#039AE4"/>
<path d="M33.7882 10.4066C33.1605 9.81895 32.3941 9.40009 31.5605 9.18915L31.5908 9.07715C32.4438 9.29394 33.2281 9.72273 33.8711 10.3237L33.7882 10.4066Z" fill="#039AE4"/>
<path d="M35.1012 14.1216C35.1016 13.1901 34.8301 12.2787 34.3199 11.4994C33.8097 10.7201 33.083 10.1067 32.2292 9.73444C31.3753 9.36223 30.4313 9.24742 29.5131 9.4041C28.5949 9.56078 27.7424 9.98213 27.0603 10.6164C26.3781 11.2508 25.896 12.0704 25.6731 12.9749C25.4503 13.8793 25.4963 14.8291 25.8056 15.7077C26.1148 16.5864 26.6739 17.3556 27.4142 17.921C28.1544 18.4864 29.0437 18.8234 29.9727 18.8905C30.3502 19.5144 31.039 19.9624 31.039 19.9624C30.9515 19.6042 30.8942 19.2393 30.8676 18.8715C32.0331 18.7369 33.1084 18.1785 33.889 17.3027C34.6696 16.4269 35.101 15.2948 35.1012 14.1216Z" fill="#039AE4"/>
<path d="M30.9278 13.7577C30.9281 13.8785 30.8924 13.9967 30.8254 14.0973C30.7584 14.1978 30.6631 14.2762 30.5515 14.3226C30.44 14.3689 30.3171 14.3811 30.1986 14.3576C30.0801 14.334 29.9712 14.2759 29.8858 14.1905C29.8004 14.105 29.7422 13.9962 29.7187 13.8776C29.6952 13.7591 29.7074 13.6363 29.7537 13.5247C29.8 13.4131 29.8785 13.3178 29.979 13.2508C30.0796 13.1839 30.1977 13.1482 30.3186 13.1484C30.4801 13.1484 30.6351 13.2126 30.7494 13.3269C30.8636 13.4412 30.9278 13.5961 30.9278 13.7577Z" fill="white"/>
<path d="M33.0401 14.4854C33.0401 14.6061 33.0043 14.7241 32.9373 14.8245C32.8702 14.9249 32.7749 15.0031 32.6633 15.0493C32.5518 15.0955 32.4291 15.1076 32.3107 15.0841C32.1922 15.0605 32.0835 15.0024 31.9981 14.917C31.9128 14.8317 31.8546 14.7229 31.8311 14.6045C31.8075 14.4861 31.8196 14.3633 31.8658 14.2518C31.912 14.1403 31.9902 14.0449 32.0906 13.9779C32.191 13.9108 32.309 13.875 32.4297 13.875C32.5916 13.875 32.7469 13.9393 32.8614 14.0538C32.9758 14.1683 33.0401 14.3235 33.0401 14.4854Z" fill="white"/>
<path d="M28.8191 14.1211C28.8189 14.2416 28.783 14.3593 28.7159 14.4593C28.6488 14.5594 28.5536 14.6373 28.4423 14.6832C28.3309 14.7292 28.2084 14.7411 28.0903 14.7175C27.9722 14.6938 27.8637 14.6357 27.7786 14.5505C27.6935 14.4652 27.6356 14.3566 27.6122 14.2385C27.5888 14.1203 27.6009 13.9979 27.6471 13.8866C27.6932 13.7753 27.7713 13.6802 27.8715 13.6133C27.9717 13.5464 28.0894 13.5107 28.2099 13.5107C28.29 13.5107 28.3693 13.5265 28.4433 13.5572C28.5173 13.5879 28.5845 13.6329 28.6411 13.6896C28.6977 13.7463 28.7425 13.8136 28.7731 13.8876C28.8036 13.9617 28.8193 14.041 28.8191 14.1211Z" fill="white"/>
<path d="M40.2081 20.8705C40.1462 20.0896 40.3103 19.3075 40.6808 18.6174C41.0513 17.9272 41.6124 17.3583 42.2974 16.9783C42.9823 16.5983 43.7621 16.4235 44.5437 16.4745C45.3253 16.5255 46.0758 16.8004 46.7055 17.2662C47.3352 17.732 47.8176 18.3691 48.0952 19.1015C48.3728 19.834 48.4338 20.6308 48.2709 21.397C48.1081 22.1631 47.7282 22.8663 47.1768 23.4225C46.6253 23.9787 45.9254 24.3646 45.1607 24.534C44.9358 24.9593 44.6361 25.3406 44.2759 25.6596C44.3136 25.3179 44.3248 24.9738 44.3095 24.6303C43.2771 24.6386 42.2798 24.2553 41.5188 23.5576C40.7577 22.8599 40.2893 21.8997 40.2081 20.8705Z" fill="#039AE4"/>
<path opacity="0.4" d="M40.2081 20.8705C40.1462 20.0896 40.3103 19.3075 40.6808 18.6174C41.0513 17.9272 41.6124 17.3583 42.2974 16.9783C42.9823 16.5983 43.7621 16.4235 44.5437 16.4745C45.3253 16.5255 46.0758 16.8004 46.7055 17.2662C47.3352 17.732 47.8176 18.3691 48.0952 19.1015C48.3728 19.834 48.4338 20.6308 48.2709 21.397C48.1081 22.1631 47.7282 22.8663 47.1768 23.4225C46.6253 23.9787 45.9254 24.3646 45.1607 24.534C44.9358 24.9593 44.6361 25.3406 44.2759 25.6596C44.3136 25.3179 44.3248 24.9738 44.3095 24.6303C43.2771 24.6386 42.2798 24.2553 41.5188 23.5576C40.7577 22.8599 40.2893 21.8997 40.2081 20.8705Z" fill="black"/>
<path d="M42.9293 20.9035L45.6565 20.6884C45.7211 20.6822 45.7807 20.6509 45.8225 20.6013C45.8644 20.5517 45.8852 20.4877 45.8805 20.423C45.8743 20.3582 45.8428 20.2984 45.793 20.2565C45.7431 20.2146 45.6789 20.194 45.614 20.199L42.8957 20.4107C42.8308 20.4166 42.7709 20.448 42.7289 20.4979C42.687 20.5478 42.6664 20.6122 42.6717 20.6772C42.6769 20.741 42.7066 20.8003 42.7547 20.8425C42.8028 20.8847 42.8654 20.9066 42.9293 20.9035Z" fill="white"/>
<path d="M43.0084 21.8664L45.7356 21.6503C45.8003 21.6443 45.8601 21.6131 45.902 21.5634C45.9439 21.5138 45.9646 21.4496 45.9596 21.3848C45.9531 21.3201 45.9216 21.2605 45.8718 21.2187C45.822 21.1769 45.7579 21.1561 45.6931 21.1608L42.9659 21.3759C42.9012 21.3824 42.8416 21.4139 42.7998 21.4637C42.7579 21.5134 42.7372 21.5776 42.7419 21.6424C42.7484 21.7071 42.7799 21.7667 42.8297 21.8085C42.8795 21.8503 42.9436 21.8711 43.0084 21.8664Z" fill="white"/>
<path d="M42.8536 19.9408L45.5842 19.7257C45.6489 19.7192 45.7085 19.6877 45.7503 19.6379C45.7921 19.5882 45.8129 19.524 45.8082 19.4592C45.8025 19.3944 45.7714 19.3344 45.7216 19.2925C45.6719 19.2505 45.6076 19.2299 45.5427 19.2352L42.8155 19.4502C42.7508 19.4562 42.6911 19.4874 42.6492 19.5371C42.6073 19.5867 42.5866 19.6509 42.5915 19.7157C42.5973 19.78 42.6279 19.8395 42.6768 19.8815C42.7258 19.9236 42.7892 19.9448 42.8536 19.9408Z" fill="white"/>
</svg>
