<svg width="56" height="56" viewBox="0 0 56 56" fill="none" xmlns="http://www.w3.org/2000/svg">
<path d="M27.9846 53.9282C41.2595 53.9282 52.0209 47.9701 52.0209 40.6203C52.0209 33.2706 41.2595 27.3125 27.9846 27.3125C14.7097 27.3125 3.94824 33.2706 3.94824 40.6203C3.94824 47.9701 14.7097 53.9282 27.9846 53.9282Z" fill="#F5F5F5"/>
<path d="M12.1743 39.1111C8.59033 41.1831 8.59033 44.5419 12.1743 46.6151C15.7583 48.6882 21.5823 48.6871 25.1663 46.6151C28.7503 44.5431 28.7503 41.1853 25.1663 39.1111C21.5823 37.0368 15.7617 37.0402 12.1743 39.1111Z" fill="#E0E0E0"/>
<path d="M47.0394 36.6989L46.0516 36.1277C46.0516 36.1277 45.4636 33.6838 45.6976 31.4853C46.0269 28.393 48.0631 27.2293 48.8336 27.4959C49.6042 27.7624 49.8316 28.6629 48.5503 30.5042C47.8021 31.5906 46.8736 33.8541 47.0394 36.6989Z" fill="#039AE4"/>
<g opacity="0.15">
<path d="M47.0394 36.6989L46.0516 36.1277C46.0516 36.1277 45.4636 33.6838 45.6976 31.4853C46.0269 28.393 48.0631 27.2293 48.8336 27.4959C49.6042 27.7624 49.8316 28.6629 48.5503 30.5042C47.8021 31.5906 46.8736 33.8541 47.0394 36.6989Z" fill="black"/>
</g>
<path d="M46.6342 35.5045H46.6432C46.652 35.5029 46.6605 35.4995 46.668 35.4947C46.6755 35.4898 46.682 35.4835 46.6871 35.4761C46.6922 35.4687 46.6958 35.4604 46.6977 35.4516C46.6996 35.4429 46.6997 35.4338 46.6981 35.425C46.156 32.5723 47.1528 29.368 48.3859 28.033C48.3987 28.02 48.4059 28.0025 48.4059 27.9843C48.4059 27.966 48.3987 27.9485 48.3859 27.9355C48.3728 27.923 48.3554 27.916 48.3372 27.916C48.3191 27.916 48.3016 27.923 48.2885 27.9355C47.033 29.2941 46.0171 32.5511 46.567 35.4395C46.5676 35.457 46.575 35.4735 46.5875 35.4856C46.6 35.4977 46.6168 35.5045 46.6342 35.5045Z" fill="white"/>
<path d="M49.632 38.1925C49.7877 38.272 50.2032 37.9169 50.3185 37.8307C50.5168 37.6806 50.673 37.4819 50.7721 37.2539C50.8838 36.9949 50.9116 36.7074 50.8517 36.4318C50.8202 36.2865 50.7786 36.1435 50.7273 36.004L50.5851 35.5896C50.5291 35.4563 50.5009 35.313 50.5022 35.1685C50.5246 34.8784 50.7699 34.6645 50.9928 34.4785C51.2403 34.2736 51.4945 34.007 51.4755 33.6598C51.4432 33.3922 51.323 33.1429 51.1339 32.9509C50.9581 32.7493 50.752 32.5734 50.5907 32.3595C50.4653 32.2113 50.3942 32.0249 50.3891 31.8309C50.3996 31.7111 50.4338 31.5945 50.4899 31.4881C50.6019 31.2563 50.752 31.0401 50.8259 30.7949C50.8998 30.5496 50.8707 30.2483 50.6736 30.0848C50.5112 29.9493 50.2793 29.9414 50.0699 29.9661C49.8743 30.0002 49.6885 30.0766 49.5256 30.1901C48.9902 30.5261 48.7102 31.1902 48.1379 31.4557C47.9139 31.5576 47.672 31.5901 47.4401 31.664C47.2083 31.7379 46.9765 31.8689 46.8801 32.0918C46.6875 32.5309 47.112 33.0382 46.9843 33.4997C46.8723 33.9085 46.4881 34.0809 46.2877 34.455C46.206 34.6192 46.1793 34.8054 46.2115 34.9859C46.2466 35.2923 46.3369 35.5898 46.4781 35.864C46.6376 36.1448 46.8141 36.4156 47.0067 36.6749C47.0067 36.6749 49.6085 38.1824 49.632 38.1925Z" fill="#039AE4"/>
<path d="M48.119 37.4073C48.128 37.4066 48.1367 37.4041 48.1447 37.4C48.1528 37.3959 48.1599 37.3903 48.1657 37.3834C48.1716 37.3766 48.176 37.3686 48.1787 37.36C48.1815 37.3514 48.1825 37.3424 48.1817 37.3334C47.9319 34.6208 49.0609 31.5553 49.9479 30.6358C49.9544 30.6295 49.9595 30.6221 49.963 30.6138C49.9665 30.6055 49.9683 30.5966 49.9683 30.5876C49.9683 30.5787 49.9665 30.5698 49.963 30.5615C49.9595 30.5532 49.9544 30.5458 49.9479 30.5395C49.935 30.5267 49.9175 30.5195 49.8992 30.5195C49.881 30.5195 49.8635 30.5267 49.8505 30.5395C48.9433 31.4713 47.7942 34.5928 48.0473 37.3435C48.0485 37.3614 48.0566 37.3782 48.07 37.3901C48.0835 37.4021 48.101 37.4082 48.119 37.4073Z" fill="white"/>
<path d="M48.3887 34.0616C48.3953 34.0631 48.4022 34.0631 48.4089 34.0616C49.044 33.852 49.7001 33.7123 50.3655 33.6449C50.3835 33.643 50.4001 33.634 50.4116 33.62C50.4231 33.6059 50.4287 33.588 50.4271 33.5699C50.4266 33.5609 50.4242 33.5521 50.4201 33.5441C50.416 33.536 50.4104 33.5289 50.4035 33.5231C50.3965 33.5174 50.3885 33.5131 50.3799 33.5105C50.3712 33.508 50.3621 33.5072 50.3532 33.5083C49.6759 33.5774 49.0082 33.7201 48.3618 33.9339C48.3534 33.9369 48.3456 33.9416 48.3389 33.9476C48.3323 33.9536 48.3268 33.9609 48.323 33.969C48.3192 33.9771 48.3169 33.9859 48.3165 33.9949C48.316 34.0038 48.3174 34.0128 48.3204 34.0213C48.3263 34.0341 48.336 34.0449 48.3482 34.0521C48.3604 34.0593 48.3746 34.0626 48.3887 34.0616Z" fill="white"/>
<path d="M9.03445 36.6989L10.0223 36.1277C10.0223 36.1277 10.6103 33.6838 10.3762 31.4853C10.0469 28.393 8.01077 27.2293 7.24021 27.4959C6.46965 27.7624 6.24229 28.6629 7.52357 30.5042C8.27509 31.5906 9.20357 33.8541 9.03445 36.6989Z" fill="#039AE4"/>
<g opacity="0.15">
<path d="M9.03445 36.6989L10.0223 36.1277C10.0223 36.1277 10.6103 33.6838 10.3762 31.4853C10.0469 28.393 8.01077 27.2293 7.24021 27.4959C6.46965 27.7624 6.24229 28.6629 7.52357 30.5042C8.27509 31.5906 9.20357 33.8541 9.03445 36.6989Z" fill="black"/>
</g>
<path d="M9.44352 35.5045H9.43455C9.42573 35.5029 9.41731 35.4995 9.40978 35.4947C9.40224 35.4898 9.39574 35.4835 9.39065 35.4761C9.38555 35.4687 9.38196 35.4604 9.38008 35.4516C9.37819 35.4429 9.37806 35.4338 9.37968 35.425C9.92176 32.5723 8.92496 29.368 7.69184 28.033C7.67904 28.02 7.67188 28.0025 7.67188 27.9843C7.67188 27.966 7.67904 27.9485 7.69184 27.9355C7.70496 27.923 7.72241 27.916 7.74055 27.916C7.7587 27.916 7.77615 27.923 7.78928 27.9355C9.0448 29.2941 10.0606 32.5511 9.51071 35.4395C9.51013 35.457 9.5028 35.4735 9.49026 35.4856C9.47772 35.4977 9.46096 35.5045 9.44352 35.5045Z" fill="white"/>
<path d="M6.44511 38.1925C6.28943 38.272 5.87391 37.9169 5.75855 37.8307C5.56031 37.6806 5.40408 37.4819 5.30495 37.2539C5.19326 36.9949 5.16546 36.7074 5.22543 36.4318C5.25693 36.2865 5.29847 36.1435 5.34975 36.004L5.49199 35.5896C5.548 35.4563 5.5762 35.313 5.57487 35.1685C5.55247 34.8784 5.30719 34.6645 5.08431 34.4785C4.83679 34.2736 4.58255 34.007 4.60159 33.6598C4.63237 33.3929 4.7505 33.1437 4.93759 32.9509C5.11343 32.7493 5.31951 32.5734 5.48079 32.3595C5.60615 32.2113 5.67726 32.0249 5.68239 31.8309C5.67193 31.7111 5.63766 31.5945 5.58159 31.4881C5.46959 31.2563 5.31951 31.0401 5.24559 30.7949C5.17167 30.5496 5.20079 30.2483 5.39791 30.0848C5.56031 29.9493 5.79215 29.9414 6.00159 29.9661C6.19719 30.0002 6.38297 30.0766 6.54591 30.1901C7.08127 30.5261 7.36127 31.1902 7.93359 31.4557C8.15759 31.5576 8.39951 31.5901 8.63135 31.664C8.86319 31.7379 9.09503 31.8689 9.19135 32.0918C9.38399 32.5309 8.95951 33.0382 9.08719 33.4997C9.19919 33.9085 9.58335 34.0809 9.78383 34.455C9.86545 34.6192 9.89215 34.8054 9.85999 34.9859C9.82489 35.2923 9.73458 35.5898 9.59343 35.864C9.43613 36.145 9.26184 36.4162 9.07151 36.676C9.07151 36.676 6.46863 38.1824 6.44511 38.1925Z" fill="#039AE4"/>
<path d="M7.95867 37.4073C7.94969 37.4066 7.94093 37.4041 7.93291 37.4C7.92489 37.3959 7.91776 37.3903 7.91193 37.3834C7.9061 37.3766 7.90168 37.3686 7.89894 37.36C7.8962 37.3514 7.89518 37.3424 7.89595 37.3334C8.14571 34.6208 7.01675 31.5553 6.12971 30.6358C6.12327 30.6295 6.11816 30.6221 6.11467 30.6138C6.11117 30.6055 6.10938 30.5966 6.10938 30.5876C6.10938 30.5787 6.11117 30.5698 6.11467 30.5615C6.11816 30.5532 6.12327 30.5458 6.12971 30.5395C6.1427 30.5267 6.1602 30.5195 6.17843 30.5195C6.19666 30.5195 6.21416 30.5267 6.22715 30.5395C7.13099 31.4713 8.28795 34.5928 8.03035 37.3435C8.02919 37.3614 8.02102 37.3782 8.00761 37.3901C7.99419 37.4021 7.97661 37.4082 7.95867 37.4073Z" fill="white"/>
<path d="M7.68808 34.0621C7.68145 34.0637 7.67454 34.0637 7.66792 34.0621C7.03295 33.8511 6.37686 33.7099 5.71128 33.641C5.69324 33.639 5.67669 33.6301 5.66518 33.6161C5.65367 33.602 5.6481 33.5841 5.64968 33.566C5.65022 33.557 5.6526 33.5482 5.65667 33.5402C5.66074 33.5321 5.66641 33.525 5.67333 33.5192C5.68025 33.5135 5.68829 33.5092 5.69693 33.5066C5.70557 33.5041 5.71465 33.5033 5.7236 33.5044C6.40087 33.5735 7.06859 33.7162 7.71496 33.93C7.72342 33.933 7.7312 33.9376 7.73786 33.9437C7.74453 33.9497 7.74994 33.957 7.75379 33.9651C7.75764 33.9732 7.75985 33.982 7.76029 33.9909C7.76074 33.9999 7.75942 34.0089 7.7564 34.0173C7.7512 34.0311 7.7418 34.0428 7.72952 34.0509C7.71725 34.0589 7.70274 34.0629 7.68808 34.0621Z" fill="white"/>
<path d="M20.7305 11.5179C21.9793 11.4698 22.4698 11.5471 22.9167 12.0903C23.4028 12.6794 25.0693 18.0912 25.0693 18.0912L29.5146 19.6312L27.8615 20.6818C27.8615 20.6818 25.1421 20.1218 24.3391 19.9672C23.7074 19.8451 23.5002 19.8384 23.1821 19.0309C22.742 17.9109 20.8626 13.3077 20.8626 13.3077L20.7305 11.5179Z" fill="#FFA8A7"/>
<path d="M20.8809 11.4897C21.5887 11.4281 22.1364 11.455 22.5373 11.6734C22.9383 11.8918 23.1074 12.1595 23.3796 12.8416C23.6517 13.5236 25.1313 17.9857 25.1313 17.9857L27.3018 18.7585L26.8538 20.4766C26.8538 20.4766 24.494 20.0655 24.0068 19.9558C23.5196 19.846 23.3874 19.7396 23.1108 19.1068C22.8341 18.474 21.2258 14.4476 21.2258 14.4476L20.8809 11.4897Z" fill="#455A64"/>
<path d="M16.1134 45.6746C16.0675 45.8594 15.9689 46.3847 14.9934 46.3847C14.0179 46.3847 13.459 45.9848 13.2675 45.4887C13.076 44.9925 13.1857 44.6263 13.2037 44.1939C13.2216 43.7616 12.9001 43.4861 12.8285 43.2531C12.7243 42.9093 13.011 42.4355 13.011 42.4355L16.1134 45.6746Z" fill="#263238"/>
<path d="M25.256 42.9846C25.2919 43.0103 25.3131 43.3138 25.2112 43.4538C25.1395 43.549 24.4866 44.0239 23.6791 43.9254C23.0867 43.8671 22.5171 43.6673 22.0181 43.343C21.5455 43.0652 21.2207 43.0249 20.7402 43.026C20.2597 43.0271 19.9315 42.9375 19.8923 42.8166C19.8218 42.6049 19.8173 42.4694 19.9192 42.4727L25.256 42.9846Z" fill="#263238"/>
<path d="M13.3359 41.7267C13.3359 42.616 15.0383 42.7784 14.9958 42.0627L15.5894 39.9851L13.6641 39.7812L13.3359 41.7267Z" fill="#FFA8A7"/>
<path d="M16.1044 45.2305C16.0417 45.0614 15.8255 44.8016 15.7359 44.6448C15.2632 43.8354 15.0389 42.905 15.0908 41.9691C15.0908 41.9176 15.1009 41.8168 15.0538 41.7787C15.0068 41.7406 14.9485 41.7787 14.8903 41.7933C14.7905 41.8211 14.687 41.8336 14.5834 41.8302C14.2396 41.8213 13.8756 41.688 13.7893 41.688C13.7221 41.688 13.6773 41.8896 13.6482 42.1113C13.5362 42.0184 13.5194 41.8616 13.4242 41.7585C13.3727 41.7025 13.3469 41.6981 13.3593 41.6197C13.3671 41.5681 13.3772 41.5233 13.3839 41.4718C13.301 41.4337 13.1823 41.7574 13.0748 42.0027C12.9516 42.2861 12.8026 42.6041 12.8777 42.92C12.9291 43.0933 12.9985 43.2607 13.0849 43.4195C13.2327 43.6953 13.3119 44.0026 13.3156 44.3155C13.3156 44.451 13.2809 44.5865 13.282 44.7221C13.2821 44.9515 13.3483 45.1761 13.4726 45.3689C13.5969 45.5618 13.7742 45.7147 13.9831 45.8096C14.5431 46.0717 15.4223 46.1635 15.9924 45.8264C16.1873 45.7088 16.1671 45.3997 16.1044 45.2305Z" fill="#263238"/>
<path d="M20.2589 41.0033C20.7405 41.3482 21.1851 41.3908 21.7496 41.1074L22.0352 38.0801H19.9531L20.2589 41.0033Z" fill="#FFA8A7"/>
<path d="M15.7006 21.5737C15.3165 25.1005 14.8046 32.1017 14.8046 32.1017C14.8046 32.1017 14.2245 33.1657 14.0005 34.8669C13.7216 36.9681 13.3945 40.9642 13.3945 40.9642C13.3945 40.9642 14.3779 41.6037 15.3333 41.2946C15.3333 41.2946 17.5195 34.9857 17.9563 32.917C18.3371 31.1116 19.0113 27.4044 19.0113 27.4044L19.8536 32.45C19.6345 33.2501 19.5426 34.0797 19.5814 34.9084C19.6217 35.8805 20.0048 39.5945 20.0048 39.5945C20.3217 39.8935 21.5381 39.9305 21.9435 39.6762C21.9435 39.6762 22.527 33.4905 22.6155 32.4701C22.7275 31.1261 22.9358 21.4941 22.9358 21.4941L15.7006 21.5737Z" fill="#263238"/>
<path d="M19.0146 27.4043L19.485 25.2348C19.485 25.2348 20.5367 24.9951 21.2882 24.3926C21.2882 24.3926 21.0127 25.0847 19.8602 25.6145L19.3764 27.6462L19.7897 32.1049L19.0146 27.4043Z" fill="black"/>
<path d="M24.8426 42.378C24.0463 42.08 23.2746 41.7317 22.7807 41.3868C22.6642 41.3081 22.5521 41.2232 22.4447 41.1325C22.242 40.9287 22.1176 40.4852 22.0303 40.4348C22.0012 40.418 21.9608 40.4348 21.9026 40.474C21.8801 40.4439 21.8467 40.4238 21.8096 40.418L21.7984 40.5412C21.6334 40.6466 21.4472 40.7143 21.253 40.7394C20.7647 40.8021 20.7456 40.7036 20.73 40.8626C20.725 40.9219 20.725 40.9814 20.73 41.0407C20.4701 41.0071 20.2629 40.9287 20.2484 40.8335L20.2047 40.521C19.946 40.5076 19.946 40.969 19.881 41.4909C19.8284 41.9132 19.7388 42.2212 19.8653 42.5247C20.2685 42.8506 20.9528 42.742 21.3471 42.7924C21.9071 42.8629 22.1792 43.2639 22.9599 43.5013C24.2188 43.8855 24.9848 43.3602 25.21 43.1351C25.36 42.854 25.2772 42.5404 24.8426 42.378Z" fill="#263238"/>
<path d="M18.6968 11.5931C17.7123 11.7432 16.9294 11.7824 16.2406 11.8944C15.7142 11.9795 15.5552 12.8811 15.5204 13.4624C15.4084 15.3585 15.8419 18.9929 15.8419 18.9929L15.5776 22.2331C16.4612 23.1784 20.696 23.5916 22.9539 22.2062C22.9539 22.2062 23.0144 15.7617 22.9539 14.6753C22.8475 12.7624 21.742 11.5393 21.0364 11.4867C21.0364 11.4889 20.3913 11.3355 18.6968 11.5931Z" fill="#37474F"/>
<path d="M20.4594 23.0132C20.559 23.0009 20.6576 22.9852 20.755 22.9695C20.7853 21.6927 20.8178 19.1828 20.7842 17.9721C20.7259 15.9135 20.4582 13.7261 20.1514 13.0508C20.437 14.6148 20.5672 16.2032 20.54 17.7929C20.5254 19.4426 20.4829 21.8215 20.4594 23.0132Z" fill="#263238"/>
<path d="M11.4082 18.1708C13.7602 13.6908 14.337 12.7153 15.0258 12.2214C15.4044 11.9503 16.3396 11.873 16.3396 11.873C16.7293 12.293 17.0015 13.8297 16.1648 15.1972C16.1648 15.1972 14.188 17.8852 13.6482 18.7812C14.2149 19.8519 15.056 21.1769 15.5768 21.8164C15.6915 21.9542 15.8538 22.0438 16.0316 22.0673C16.4885 22.111 16.6968 22.2554 17.0832 22.4033C17.3845 22.5153 17.5906 22.4828 17.5884 22.5646C17.5884 22.6698 17.4864 22.8849 17.1896 22.933C17.0101 22.9522 16.8287 22.9458 16.6509 22.914C16.9065 23.1464 17.1967 23.3376 17.5111 23.4807C18.2626 23.8358 18.4922 24.3588 17.3845 24.6926C16.9421 24.827 16.1324 24.8046 15.0381 23.7417C14.6674 23.3822 13.9719 22.6396 13.6056 22.2185C12.6469 21.1153 11.854 20.1364 11.3444 19.4711C11.0274 19.0511 11.1932 18.5807 11.4082 18.1708Z" fill="#FFA8A7"/>
<path d="M14.7284 20.5585L15.3657 21.5408C15.3657 21.5408 14.314 21.7984 13.9612 22.6093L13.0439 21.6326C13.0439 21.6326 13.1022 21.2395 13.6947 20.8486C14.2871 20.4577 14.7284 20.5585 14.7284 20.5585Z" fill="#37474F"/>
<path d="M16.6794 11.8329C15.9021 11.8262 15.3163 11.8486 14.8571 12.1947C14.3979 12.5408 13.7371 13.6832 13.2141 14.6408C12.691 15.5984 11.3594 17.9537 11.1678 18.4992C10.9763 19.0446 11.1051 19.3134 11.4243 19.711C11.7435 20.1086 13.0494 21.6307 13.0494 21.6307C13.4582 21.1222 14.0115 20.6664 14.7294 20.5566L13.7584 18.7713L16.0331 15.6891C16.0331 15.6891 16.6659 14.9051 16.8048 13.588C16.9437 12.2709 16.6794 11.8329 16.6794 11.8329Z" fill="#455A64"/>
<path d="M17.7435 5.89258C17.7435 5.89258 17.2036 5.96762 17.0054 6.3753C16.8329 6.72922 16.8934 7.58378 17.1252 8.51562C17.3571 9.44746 17.5732 10.0086 17.7065 10.2662C17.7953 10.4273 17.943 10.5477 18.1187 10.6022L18.0918 9.49674L18.0515 8.72618C18.0515 8.72618 18.5465 8.05418 18.6003 7.49418C18.6697 6.78186 18.5208 6.48618 18.5208 6.48618L17.7435 5.89258Z" fill="#263238"/>
<path d="M17.6171 6.0288L16.8555 5.68048C16.9021 5.5739 16.9884 5.48966 17.096 5.44555C17.2037 5.40145 17.3243 5.40095 17.4323 5.44415C17.4833 5.46982 17.5287 5.50546 17.5658 5.54897C17.6029 5.59248 17.6308 5.64297 17.6481 5.69747C17.6653 5.75197 17.6714 5.80936 17.6661 5.86627C17.6608 5.92318 17.6441 5.97844 17.6171 6.0288Z" fill="#263238"/>
<path d="M18.6162 6.96152C18.6176 7.36976 18.7399 7.76845 18.9678 8.10716C19.1957 8.44587 19.519 8.70938 19.8967 8.86438C20.2744 9.01938 20.6895 9.05891 21.0897 8.97796C21.4898 8.89701 21.857 8.69922 22.1447 8.40961C22.4324 8.11999 22.6278 7.75156 22.7062 7.35089C22.7845 6.95023 22.7423 6.53533 22.5848 6.15867C22.4274 5.782 22.1618 5.46049 21.8216 5.23478C21.4814 5.00907 21.0819 4.88931 20.6737 4.89064C20.4026 4.89152 20.1343 4.94578 19.8843 5.05033C19.6342 5.15488 19.4071 5.30766 19.216 5.49996C19.025 5.69226 18.8737 5.92031 18.7708 6.17108C18.6679 6.42186 18.6153 6.69045 18.6162 6.96152Z" fill="#263238"/>
<path d="M18.0804 8.59735C17.8945 8.75864 17.7444 8.342 17.5876 8.1796C17.4308 8.0172 16.9212 7.79544 16.6692 8.3308C16.4172 8.86616 16.9022 9.61768 17.283 9.79464C17.843 10.0534 18.0916 9.49112 18.0916 9.49112L18.151 11.8162C18.6875 12.6294 19.943 12.3191 20.1267 12.8018C20.2387 12.3729 20.7987 12.3718 20.3977 11.9058V11.1487C20.3977 11.1487 21.0227 11.2417 21.3284 11.1935C21.8347 11.1129 22.1001 10.731 22.2524 10.1855C22.4966 9.30184 22.5951 7.81784 22.2524 6.10312C21.6835 5.66296 19.7134 5.73576 18.5217 6.49176C18.6079 8.00936 18.2663 8.4372 18.0804 8.59735Z" fill="#FFA8A7"/>
<path d="M22.5344 4.88488C22.528 4.86981 22.5179 4.85664 22.5049 4.84663C22.492 4.83663 22.4767 4.83013 22.4605 4.82776C22.4348 4.83066 22.4106 4.84119 22.391 4.858C22.2506 4.97204 22.1007 5.07396 21.943 5.16264C21.9854 4.95974 21.988 4.75056 21.9509 4.54664C21.9285 4.4212 21.8937 4.13112 21.7392 4.09864C21.6462 4.0796 21.5667 4.15688 21.4973 4.22072C20.8768 4.802 20.067 4.5332 19.32 4.55672C18.695 4.57688 17.9413 4.83112 17.659 5.43928C17.5291 5.71704 17.5067 6.00936 17.7621 6.202C17.9905 6.35533 18.2517 6.45278 18.5248 6.48648C19.7691 6.70264 21.5488 7.2156 22.4739 6.05416C22.6092 5.88117 22.678 5.66538 22.6677 5.446C22.669 5.25222 22.6261 5.06069 22.5422 4.886L22.5344 4.88488Z" fill="#263238"/>
<path d="M20.3933 11.1502C20.3933 11.1502 19.2588 10.9262 18.8623 10.7156C18.6289 10.5954 18.4376 10.4071 18.3135 10.1758C18.374 10.4073 18.4802 10.6244 18.626 10.8142C18.9172 11.1838 20.3944 11.4515 20.3944 11.4515L20.3933 11.1502Z" fill="#F28F8F"/>
<path d="M20.099 8.32616C20.0966 8.36986 20.0815 8.4119 20.0554 8.44708C20.0294 8.48226 19.9936 8.50904 19.9526 8.52412C19.9115 8.5392 19.8669 8.54192 19.8243 8.53194C19.7817 8.52195 19.7429 8.4997 19.7128 8.46794C19.6827 8.43618 19.6625 8.39629 19.6549 8.35321C19.6472 8.31013 19.6523 8.26573 19.6695 8.22552C19.6868 8.1853 19.7154 8.15102 19.752 8.12691C19.7885 8.10279 19.8313 8.08991 19.875 8.08984C19.9053 8.09057 19.9351 8.09727 19.9627 8.10955C19.9904 8.12184 20.0153 8.13947 20.0362 8.16143C20.057 8.18339 20.0733 8.20925 20.084 8.23752C20.0948 8.26579 20.0999 8.29592 20.099 8.32616Z" fill="#263238"/>
<path d="M19.8555 7.46839L19.3762 7.73831C19.3412 7.67175 19.3333 7.59424 19.3542 7.52201C19.3751 7.44978 19.4231 7.38843 19.4882 7.35079C19.52 7.33431 19.5548 7.32428 19.5905 7.32127C19.6262 7.31827 19.6622 7.32234 19.6963 7.33327C19.7304 7.3442 19.7621 7.36176 19.7894 7.38494C19.8167 7.40813 19.8392 7.43649 19.8555 7.46839Z" fill="#263238"/>
<path d="M20.2106 9.76953L20.9352 10.0383C20.9196 10.087 20.8943 10.1321 20.8609 10.1708C20.8275 10.2095 20.7866 10.2411 20.7407 10.2637C20.6948 10.2863 20.6449 10.2994 20.5938 10.3022C20.5427 10.3051 20.4916 10.2976 20.4435 10.2803C20.3461 10.2418 20.2674 10.1672 20.224 10.0719C20.1805 9.97665 20.1757 9.86826 20.2106 9.76953Z" fill="#F28F8F"/>
<path d="M22.1003 7.70813L21.6523 7.37213C21.673 7.34208 21.6997 7.31657 21.7305 7.29714C21.7614 7.27771 21.7959 7.26477 21.832 7.25911C21.868 7.25345 21.9049 7.25519 21.9402 7.26422C21.9756 7.27326 22.0087 7.28939 22.0376 7.31165C22.0963 7.35756 22.1353 7.42399 22.147 7.49755C22.1586 7.57111 22.142 7.64635 22.1003 7.70813Z" fill="#263238"/>
<path d="M21.9653 8.25473C21.9631 8.29849 21.9481 8.34065 21.9222 8.37598C21.8963 8.41132 21.8606 8.43828 21.8195 8.45353C21.7785 8.46877 21.7338 8.47164 21.6911 8.46178C21.6484 8.45191 21.6096 8.42974 21.5794 8.39801C21.5492 8.36629 21.5289 8.32639 21.5211 8.28328C21.5134 8.24016 21.5184 8.1957 21.5356 8.15542C21.5529 8.11514 21.5815 8.0808 21.6181 8.05664C21.6546 8.03249 21.6975 8.01959 21.7413 8.01953C21.8021 8.02129 21.8597 8.04699 21.9017 8.09104C21.9436 8.13509 21.9665 8.19392 21.9653 8.25473Z" fill="#263238"/>
<path d="M20.8301 8.04297L20.9085 9.40713L21.6208 9.16185L20.8301 8.04297Z" fill="#F28F8F"/>
<path d="M26.3594 15.7921C25.5507 15.8694 24.0174 15.6039 23.1315 15.0361C21.969 14.2924 21.036 12.4153 20.6798 11.7511C20.6798 11.7511 20.383 11.7332 20.4558 11.8407C20.5286 11.9482 21.4907 14.2476 23.0318 15.2209C23.8158 15.7148 25.2629 15.9746 26.3246 15.9007L26.3594 15.7921Z" fill="#039AE4"/>
<path opacity="0.4" d="M26.3594 15.7921C25.5507 15.8694 24.0174 15.6039 23.1315 15.0361C21.969 14.2924 21.036 12.4153 20.6798 11.7511C20.6798 11.7511 20.383 11.7332 20.4558 11.8407C20.5286 11.9482 21.4907 14.2476 23.0318 15.2209C23.8158 15.7148 25.2629 15.9746 26.3246 15.9007L26.3594 15.7921Z" fill="black"/>
<path d="M26.3598 15.7924C26.3598 15.7924 23.4478 16.2684 21.6211 15.6345C19.8963 15.033 18.5489 13.4001 18.1491 11.8164L17.8086 11.8724C17.8086 11.8724 18.6531 14.725 21.1372 15.7073C23.431 16.6156 26.1772 15.9111 26.3587 15.8932L26.3598 15.7924Z" fill="#039AE4"/>
<path opacity="0.3" d="M26.3598 15.7924C26.3598 15.7924 23.4478 16.2684 21.6211 15.6345C19.8963 15.033 18.5489 13.4001 18.1491 11.8164L17.8086 11.8724C17.8086 11.8724 18.6531 14.725 21.1372 15.7073C23.431 16.6156 26.1772 15.9111 26.3587 15.8932L26.3598 15.7924Z" fill="black"/>
<path d="M26.6561 15.7118C26.6561 15.7118 26.4411 15.7443 26.3548 15.7656C26.235 15.7958 26.1857 15.9369 26.3089 15.9246C26.4321 15.9123 26.5071 15.8955 26.6169 15.8776C26.7267 15.8596 26.8263 15.6849 26.6561 15.7118Z" fill="#039AE4"/>
<path d="M26.6084 15.8041C26.6084 15.8041 26.8671 15.8343 26.8682 15.8321C26.8694 15.8299 26.9377 15.7447 26.9377 15.7447L26.7137 15.7324L26.6084 15.8041Z" fill="#039AE4"/>
<path opacity="0.4" d="M26.6084 15.8041C26.6084 15.8041 26.8671 15.8343 26.8682 15.8321C26.8694 15.8299 26.9377 15.7447 26.9377 15.7447L26.7137 15.7324L26.6084 15.8041Z" fill="black"/>
<path d="M26.7686 15.8263L27.3722 15.9753L27.5201 15.8902C27.275 15.8266 27.0209 15.805 26.7686 15.8263Z" fill="#263238"/>
<path d="M26.7656 15.8262V15.8609L27.3279 15.9998L27.3693 15.9751L26.7656 15.8262Z" fill="#37474F"/>
<path d="M29.2225 15.2735C29.2225 15.2735 29.2225 15.2623 29.2225 15.2578C29.2225 15.2533 29.2225 15.2578 29.2225 15.2522C29.2194 15.2469 29.2156 15.242 29.2113 15.2377C29.2075 15.2324 29.2025 15.2282 29.1967 15.2253H29.1911L28.9671 15.0977C28.9535 15.0913 28.9383 15.0887 28.9233 15.0903C28.9083 15.0919 28.894 15.0975 28.882 15.1066L26.8481 16.2793C26.8128 16.3026 26.7835 16.334 26.7625 16.3707C26.7415 16.4075 26.7294 16.4487 26.7271 16.4909V20.9429C26.7253 20.958 26.7277 20.9733 26.7341 20.9872C26.7404 21.001 26.7504 21.0128 26.763 21.0213L26.987 21.1524H26.9993C27.0081 21.1546 27.0174 21.1546 27.0262 21.1524C27.0408 21.1503 27.0549 21.1454 27.0676 21.1378L29.1015 19.9641C29.1368 19.9412 29.1662 19.9103 29.1873 19.8739C29.2083 19.8375 29.2204 19.7966 29.2225 19.7546V15.3037C29.2237 15.2937 29.2237 15.2835 29.2225 15.2735ZM28.1596 16.0877L27.7027 16.3509C27.7243 16.2817 27.77 16.2225 27.8315 16.1841L28.2884 15.9209C28.2666 15.99 28.221 16.0491 28.1596 16.0877Z" fill="#039AE4"/>
<path opacity="0.15" d="M29.2225 15.2735C29.2225 15.2735 29.2225 15.2623 29.2225 15.2578C29.2225 15.2533 29.2225 15.2578 29.2225 15.2522C29.2194 15.2469 29.2156 15.242 29.2113 15.2377C29.2075 15.2324 29.2025 15.2282 29.1967 15.2253H29.1911L28.9671 15.0977C28.9535 15.0913 28.9383 15.0887 28.9233 15.0903C28.9083 15.0919 28.894 15.0975 28.882 15.1066L26.8481 16.2793C26.8128 16.3026 26.7835 16.334 26.7625 16.3707C26.7415 16.4075 26.7294 16.4487 26.7271 16.4909V20.9429C26.7253 20.958 26.7277 20.9733 26.7341 20.9872C26.7404 21.001 26.7504 21.0128 26.763 21.0213L26.987 21.1524H26.9993C27.0081 21.1546 27.0174 21.1546 27.0262 21.1524C27.0408 21.1503 27.0549 21.1454 27.0676 21.1378L29.1015 19.9641C29.1368 19.9412 29.1662 19.9103 29.1873 19.8739C29.2083 19.8375 29.2204 19.7966 29.2225 19.7546V15.3037C29.2237 15.2937 29.2237 15.2835 29.2225 15.2735ZM28.1596 16.0877L27.7027 16.3509C27.7243 16.2817 27.77 16.2225 27.8315 16.1841L28.2884 15.9209C28.2666 15.99 28.221 16.0491 28.1596 16.0877Z" fill="black"/>
<path d="M26.9919 21.1504L26.7679 21.0194C26.7553 21.0109 26.7453 20.999 26.7389 20.9852C26.7326 20.9714 26.7302 20.9561 26.732 20.941V16.489C26.7333 16.4466 26.7457 16.4053 26.7679 16.3691L26.9919 16.5002C26.9697 16.5363 26.9573 16.5776 26.956 16.62V21.0698C26.9537 21.0852 26.9558 21.1011 26.9621 21.1154C26.9685 21.1296 26.9788 21.1418 26.9919 21.1504Z" fill="#039AE4"/>
<path opacity="0.3" d="M26.9919 21.1504L26.7679 21.0194C26.7553 21.0109 26.7453 20.999 26.7389 20.9852C26.7326 20.9714 26.7302 20.9561 26.732 20.941V16.489C26.7333 16.4466 26.7457 16.4053 26.7679 16.3691L26.9919 16.5002C26.9697 16.5363 26.9573 16.5776 26.956 16.62V21.0698C26.9537 21.0852 26.9558 21.1011 26.9621 21.1154C26.9685 21.1296 26.9788 21.1418 26.9919 21.1504Z" fill="black"/>
<path d="M29.2224 15.2732C29.2224 15.2732 29.2224 15.262 29.2224 15.2575C29.2224 15.253 29.2224 15.2575 29.2224 15.2519C29.2193 15.2466 29.2155 15.2417 29.2112 15.2373C29.2074 15.2321 29.2024 15.2279 29.1966 15.225H29.191C29.1777 15.2207 29.1636 15.2196 29.1498 15.2218C29.136 15.2239 29.1229 15.2292 29.1115 15.2373L28.1662 15.7828L27.6499 16.0807L27.0776 16.4111C27.0425 16.4344 27.0133 16.4656 26.9923 16.5022C26.9714 16.5387 26.9591 16.5796 26.9566 16.6217V21.0714C26.9547 21.0873 26.9575 21.1035 26.9647 21.1178C26.9719 21.1321 26.9831 21.1441 26.997 21.1521H27.0093C27.0181 21.1543 27.0273 21.1543 27.0362 21.1521C27.0508 21.15 27.0649 21.1451 27.0776 21.1375L29.1115 19.9637C29.1468 19.9409 29.1762 19.91 29.1972 19.8736C29.2183 19.8372 29.2304 19.7963 29.2325 19.7543V15.3034C29.2304 15.293 29.227 15.2828 29.2224 15.2732ZM27.8314 16.186L28.2883 15.9228C28.2661 15.9911 28.2205 16.0494 28.1595 16.0874L27.7026 16.3506C27.7247 16.2822 27.7703 16.2239 27.8314 16.186Z" fill="#039AE4"/>
<path opacity="0.2" d="M28.4904 15.9597C28.4868 16.0075 28.472 16.0537 28.4473 16.0948C28.4226 16.1358 28.3887 16.1705 28.3482 16.1961L27.8307 16.4951C27.7523 16.5399 27.6885 16.5085 27.6885 16.4234C27.6887 16.3993 27.6932 16.3754 27.7019 16.3529L28.1589 16.0874C28.2198 16.0494 28.2654 15.9911 28.2877 15.9228L28.3482 15.8881C28.4266 15.8421 28.4904 15.8746 28.4904 15.9597Z" fill="black"/>
<path d="M27.3644 17.0229L28.8115 16.1874C28.8372 16.1728 28.8585 16.1874 28.8585 16.2143V18.0567C28.8576 18.073 28.8529 18.089 28.8448 18.1032C28.8366 18.1174 28.8252 18.1295 28.8115 18.1384L27.3644 18.9728C27.3387 18.9874 27.3174 18.9728 27.3174 18.9448V17.1036C27.3185 17.0874 27.3233 17.0717 27.3315 17.0577C27.3396 17.0438 27.3509 17.0318 27.3644 17.0229Z" fill="#FAFAFA"/>
<path d="M28.7846 18.1548L28.5606 18.2859L28.5337 18.3027C28.443 18.1761 28.3623 18.0596 28.3623 18.0596C28.3381 17.9913 28.3176 17.9218 28.3007 17.8513C28.2871 17.7972 28.277 17.7422 28.2705 17.6867C28.3286 17.6695 28.3905 17.6695 28.4486 17.6867C28.506 17.7145 28.5534 17.7595 28.5841 17.8155C28.6132 17.8771 28.7107 18.0372 28.7846 18.1548Z" fill="#455A64"/>
<path d="M28.5537 18.2852L28.5268 18.302L28.2636 18.4532L28.2244 18.479L27.698 18.7825L27.6768 18.7948V18.7041L27.7025 18.2841C27.7025 18.2023 27.7451 17.8798 27.7451 17.8798L27.8638 17.8327L27.9366 17.8036L27.9601 17.7946H27.9691L28.1684 17.7151L28.2065 17.7039C28.2106 17.7033 28.2148 17.7033 28.2188 17.7039C28.2342 17.6996 28.25 17.697 28.2659 17.6961C28.4137 17.6849 28.4899 17.7958 28.5291 17.9738C28.5427 18.0771 28.5509 18.1811 28.5537 18.2852Z" fill="#37474F"/>
<path d="M28.2631 18.4542L28.2239 18.4799C28.2425 18.2923 28.2289 18.1029 28.1836 17.9199C28.2475 18.0904 28.2746 18.2725 28.2631 18.4542Z" fill="#263238"/>
<path d="M27.789 18.393C27.789 18.393 27.7397 18.5856 27.6971 18.7816L27.6759 18.7939L27.3779 18.9653C27.4306 18.4311 27.4664 18.1466 27.5515 18.0032C27.5966 17.9388 27.6648 17.8942 27.7419 17.8789C27.8091 17.9293 27.8371 18.169 27.789 18.393Z" fill="#455A64"/>
<path d="M27.8814 16.9492C27.8402 16.9645 27.8067 16.9955 27.7884 17.0355C27.7695 17.1383 27.7749 17.2442 27.8041 17.3446C27.8202 17.4275 27.8446 17.5085 27.8769 17.5865C27.8821 17.5965 27.8896 17.6051 27.8987 17.6117C27.9079 17.6183 27.9184 17.6227 27.9295 17.6246V17.4644L27.9239 17.3524C27.958 17.2935 27.9815 17.2291 27.9934 17.162C28.0015 17.1137 27.998 17.0642 27.9833 17.0175L27.8814 16.9492Z" fill="#263238"/>
<path d="M27.8659 16.9699L27.7695 16.9363C27.7841 16.9004 27.8166 16.8791 27.8423 16.8892C27.8681 16.8993 27.8793 16.934 27.8659 16.9699Z" fill="#263238"/>
<path d="M27.9928 17.0848C27.9887 17.1196 27.9926 17.155 28.0043 17.1881C28.016 17.2212 28.0351 17.2512 28.0602 17.2757C28.0853 17.3003 28.1157 17.3188 28.1491 17.3297C28.1824 17.3407 28.2179 17.3439 28.2526 17.339C28.3286 17.3187 28.3955 17.2734 28.4427 17.2104C28.4898 17.1474 28.5144 17.0704 28.5125 16.9918C28.5164 16.9569 28.5123 16.9216 28.5005 16.8885C28.4887 16.8555 28.4694 16.8256 28.4442 16.8011C28.419 16.7767 28.3885 16.7583 28.3551 16.7475C28.3217 16.7367 28.2863 16.7337 28.2515 16.7387C28.1757 16.7588 28.109 16.804 28.062 16.8668C28.015 16.9296 27.9907 17.0064 27.9928 17.0848Z" fill="#263238"/>
<path d="M27.9239 17.3331C27.9003 17.3611 27.8813 17.304 27.8623 17.2838C27.8432 17.2637 27.7783 17.2424 27.7503 17.3264C27.7384 17.3634 27.7396 17.4034 27.7537 17.4397C27.7678 17.476 27.7938 17.5063 27.8275 17.5257C27.897 17.5504 27.9295 17.463 27.9295 17.463L27.9362 17.8248C28.0045 17.9368 28.1602 17.8248 28.1848 17.9009C28.1848 17.8416 28.2699 17.8214 28.2195 17.7632V17.6512C28.2592 17.6516 28.2988 17.6467 28.3371 17.6366C28.3685 17.6207 28.3953 17.597 28.4149 17.5678C28.4345 17.5386 28.4463 17.5048 28.4491 17.4697C28.4874 17.2733 28.4874 17.0714 28.4491 16.875C28.3786 16.8235 28.1299 16.875 27.9799 17.015C27.9911 17.2368 27.9474 17.3062 27.9239 17.3331Z" fill="#FFA8A7"/>
<path d="M28.485 16.696C28.485 16.696 28.485 16.6882 28.476 16.6893C28.467 16.6904 28.4704 16.6893 28.467 16.6949C28.4496 16.7148 28.4305 16.7331 28.4099 16.7498C28.415 16.7197 28.415 16.6891 28.4099 16.659C28.4099 16.6422 28.4032 16.6008 28.383 16.5997C28.3629 16.5986 28.3618 16.612 28.3528 16.6232C28.2744 16.7206 28.1725 16.6994 28.0784 16.7195C28.0327 16.7281 27.9897 16.7476 27.9532 16.7765C27.9167 16.8054 27.8878 16.8427 27.869 16.8853C27.8533 16.929 27.8499 16.9715 27.8824 16.9973C27.9115 17.0144 27.9449 17.0229 27.9787 17.0219C28.1355 17.0219 28.3606 17.06 28.476 16.8707C28.4929 16.8427 28.5014 16.8105 28.5006 16.7778C28.5008 16.7512 28.4955 16.7249 28.485 16.7005V16.696Z" fill="#263238"/>
<path d="M28.2152 17.6538C28.1501 17.6511 28.0855 17.6414 28.0226 17.6247C27.9925 17.6113 27.968 17.5879 27.9531 17.5586C27.9606 17.5894 27.9743 17.6184 27.9934 17.6437C28.0293 17.6919 28.2174 17.6975 28.2174 17.6975L28.2152 17.6538Z" fill="#F28F8F"/>
<path d="M28.1782 17.2479C28.1788 17.2567 28.1763 17.2654 28.1712 17.2725C28.1661 17.2797 28.1587 17.2848 28.1502 17.2871C28.1346 17.2871 28.1211 17.2771 28.1211 17.258C28.1208 17.2491 28.1235 17.2404 28.1288 17.2333C28.1341 17.2262 28.1417 17.2211 28.1502 17.2188C28.1659 17.2177 28.1782 17.2311 28.1782 17.2479Z" fill="#263238"/>
<path d="M28.1485 17.1345L28.0869 17.1838C28.0827 17.1738 28.0819 17.1627 28.0845 17.1523C28.0871 17.1418 28.0931 17.1324 28.1014 17.1255C28.1048 17.1222 28.1089 17.1198 28.1134 17.1184C28.1179 17.1171 28.1227 17.1168 28.1273 17.1177C28.1319 17.1186 28.1362 17.1206 28.1399 17.1235C28.1436 17.1264 28.1465 17.1302 28.1485 17.1345Z" fill="#263238"/>
<path d="M28.1949 17.457L28.2745 17.4772C28.2723 17.4895 28.2655 17.5005 28.2555 17.5079C28.2455 17.5154 28.2331 17.5188 28.2207 17.5175C28.215 17.5153 28.2098 17.512 28.2054 17.5077C28.201 17.5034 28.1975 17.4983 28.1951 17.4927C28.1927 17.4871 28.1914 17.481 28.1914 17.4749C28.1914 17.4688 28.1926 17.4627 28.1949 17.457Z" fill="#F28F8F"/>
<path d="M28.4212 17.1084L28.3652 17.0692C28.367 17.0645 28.3698 17.0603 28.3733 17.0568C28.3769 17.0533 28.3811 17.0507 28.3858 17.049C28.3905 17.0473 28.3954 17.0466 28.4004 17.047C28.4054 17.0474 28.4102 17.0488 28.4145 17.0512C28.422 17.0586 28.4267 17.0682 28.4279 17.0786C28.4291 17.089 28.4268 17.0995 28.4212 17.1084Z" fill="#263238"/>
<path d="M28.4048 17.1993C28.4054 17.2081 28.4029 17.2168 28.3978 17.2239C28.3927 17.231 28.3853 17.2362 28.3768 17.2385C28.3611 17.2385 28.3477 17.2284 28.3477 17.2094C28.3474 17.2005 28.3501 17.1918 28.3554 17.1847C28.3607 17.1776 28.3682 17.1725 28.3768 17.1702C28.3925 17.1679 28.4048 17.1803 28.4048 17.1993Z" fill="#263238"/>
<path d="M28.2705 17.1934L28.2806 17.3905L28.3713 17.339L28.2705 17.1934Z" fill="#F28F8F"/>
<path d="M27.9311 17.6855C27.912 17.6855 27.9053 17.6945 27.8907 17.7315L27.8594 17.8121C27.862 17.8641 27.8839 17.9133 27.921 17.9499C27.9772 17.9924 28.0429 18.0204 28.1125 18.0316C28.1125 18.0316 28.1237 17.9577 28.1315 17.9263C28.1506 17.858 28.1786 17.9039 28.1786 17.9039C28.1771 17.8909 28.1721 17.8785 28.164 17.8681C28.1127 17.8634 28.0623 17.8521 28.0139 17.8345C27.9741 17.8102 27.9437 17.7731 27.9277 17.7292L27.9311 17.6855Z" fill="#455A64"/>
<path d="M28.1819 17.9018C28.1804 17.8803 28.1863 17.859 28.1987 17.8413C28.212 17.8134 28.2178 17.7826 28.2155 17.7517C28.2155 17.7215 28.2155 17.6543 28.2155 17.6543C28.2367 17.6543 28.2524 17.6543 28.2647 17.689C28.2885 17.7471 28.2977 17.8102 28.2916 17.8727C28.2892 17.9129 28.2756 17.9517 28.2524 17.9847C28.2524 17.9847 28.2367 17.9242 28.2267 17.8973C28.2166 17.8705 28.1975 17.8615 28.1819 17.9018Z" fill="#455A64"/>
<path d="M27.6106 19.059L28.5648 18.508C28.5995 18.4878 28.6275 18.508 28.6275 18.5449V18.5696C28.627 18.5919 28.6209 18.6138 28.61 18.6333C28.5991 18.6528 28.5836 18.6694 28.5648 18.6816L27.6106 19.2326C27.5759 19.2528 27.5479 19.2326 27.5479 19.1957V19.171C27.5484 19.1487 27.5544 19.1268 27.5654 19.1073C27.5763 19.0877 27.5918 19.0712 27.6106 19.059Z" fill="#455A64"/>
<path d="M27.3773 19.7022L27.7133 19.5051C27.7279 19.4972 27.7391 19.5051 27.7391 19.5185C27.7384 19.5273 27.7358 19.5358 27.7313 19.5434C27.7268 19.5509 27.7207 19.5574 27.7133 19.5622L27.3773 19.7593C27.3628 19.7672 27.3516 19.7593 27.3516 19.7459C27.3522 19.7371 27.3549 19.7286 27.3593 19.721C27.3638 19.7134 27.37 19.707 27.3773 19.7022Z" fill="#455A64"/>
<path d="M27.9672 19.3625L28.7982 18.882C28.8128 18.8742 28.824 18.882 28.824 18.8955C28.8235 18.9043 28.8209 18.9129 28.8164 18.9205C28.8119 18.9281 28.8057 18.9345 28.7982 18.9391L27.9672 19.4185C27.9526 19.4275 27.9414 19.4185 27.9414 19.4051C27.9419 19.3964 27.9444 19.388 27.9489 19.3806C27.9534 19.3731 27.9597 19.3669 27.9672 19.3625Z" fill="#455A64"/>
<path d="M27.3773 19.8155L27.7133 19.6184C27.7279 19.6105 27.7391 19.6184 27.7391 19.6318C27.7386 19.6406 27.736 19.6492 27.7316 19.6568C27.7271 19.6644 27.7208 19.6708 27.7133 19.6755L27.3773 19.8726C27.3628 19.8804 27.3516 19.8726 27.3516 19.8592C27.3522 19.8504 27.3549 19.8419 27.3593 19.8343C27.3638 19.8267 27.37 19.8203 27.3773 19.8155Z" fill="#455A64"/>
<path d="M27.9672 19.4771L28.7982 18.9978C28.8128 18.9888 28.824 18.9978 28.824 19.0101C28.8235 19.0189 28.8209 19.0275 28.8164 19.0351C28.8119 19.0427 28.8057 19.0491 28.7982 19.0538L27.9672 19.5331C27.9526 19.5421 27.9414 19.5331 27.9414 19.5208C27.9419 19.512 27.9445 19.5034 27.9489 19.4958C27.9534 19.4882 27.9597 19.4818 27.9672 19.4771Z" fill="#455A64"/>
<path d="M27.3773 19.9281L27.7133 19.7321C27.7279 19.7232 27.7391 19.7321 27.7391 19.7445C27.7386 19.7533 27.736 19.7619 27.7316 19.7695C27.7271 19.7771 27.7208 19.7835 27.7133 19.7881L27.3773 19.9853C27.3628 19.9931 27.3516 19.9853 27.3516 19.9718C27.3522 19.9631 27.3549 19.9545 27.3593 19.947C27.3638 19.9394 27.37 19.933 27.3773 19.9281Z" fill="#455A64"/>
<path d="M27.9672 19.5884L28.7982 19.1091C28.8128 19.1001 28.824 19.1091 28.824 19.1225C28.8235 19.1312 28.8209 19.1396 28.8164 19.147C28.8119 19.1545 28.8057 19.1607 28.7982 19.1651L27.9672 19.6456C27.9526 19.6534 27.9414 19.6456 27.9414 19.6321C27.9419 19.6233 27.9445 19.6147 27.9489 19.6071C27.9534 19.5995 27.9597 19.5931 27.9672 19.5884Z" fill="#455A64"/>
<path d="M27.3773 20.0484L27.7133 19.8513C27.7279 19.8423 27.7391 19.8513 27.7391 19.8647C27.7384 19.8733 27.7358 19.8817 27.7313 19.8891C27.7268 19.8965 27.7207 19.9027 27.7133 19.9073L27.3773 20.1044C27.3628 20.1133 27.3516 20.1044 27.3516 20.0909C27.352 20.0823 27.3546 20.0739 27.3591 20.0664C27.3636 20.059 27.3699 20.0528 27.3773 20.0484Z" fill="#455A64"/>
<path d="M27.9672 19.7017L28.7982 19.2224C28.8128 19.2134 28.824 19.2224 28.824 19.2358C28.8233 19.2446 28.8207 19.2531 28.8162 19.2607C28.8117 19.2682 28.8056 19.2747 28.7982 19.2795L27.9672 19.7588C27.9526 19.7667 27.9414 19.7588 27.9414 19.7454C27.942 19.7366 27.9447 19.7281 27.9492 19.7205C27.9536 19.713 27.9598 19.7065 27.9672 19.7017Z" fill="#455A64"/>
<path d="M27.499 20.2449V20.5988L27.6021 20.5406V20.1855L27.499 20.2449Z" fill="#455A64"/>
<path d="M27.8057 20.0661V20.4211L27.9087 20.3617V20.0078L27.8057 20.0661Z" fill="#455A64"/>
<path d="M28.2158 19.8308V20.1859L28.3189 20.1265V19.7715L28.2158 19.8308Z" fill="#455A64"/>
<path d="M28.5742 19.6238V19.9777L28.6773 19.9184V19.5645L28.5742 19.6238Z" fill="#455A64"/>
<path d="M27.6523 20.1552V20.5092L27.7039 20.48V20.125L27.6523 20.1552Z" fill="#455A64"/>
<path d="M28.3691 19.742V20.0971L28.4207 20.0668V19.7129L28.3691 19.742Z" fill="#455A64"/>
<path d="M28.0615 19.9178V20.2728L28.113 20.2437V19.8887L28.0615 19.9178Z" fill="#455A64"/>
<path d="M27.7549 20.0966V20.4505L27.7806 20.436V20.082L27.7549 20.0966Z" fill="#455A64"/>
<path d="M28.1484 19.87V20.2251L28.1742 20.2094V19.8555L28.1484 19.87Z" fill="#455A64"/>
<path d="M27.9854 19.9638V20.3188L28.01 20.3031V19.9492L27.9854 19.9638Z" fill="#455A64"/>
<path d="M28.498 19.6669V20.0219L28.5227 20.0074V19.6523L28.498 19.6669Z" fill="#455A64"/>
<path d="M27.9346 19.9931V20.3481L27.9603 20.3336V19.9785L27.9346 19.9931Z" fill="#455A64"/>
<path d="M28.4463 19.6973V20.0512L28.4721 20.0367V19.6816L28.4463 19.6973Z" fill="#455A64"/>
<path opacity="0.3" d="M27.6722 19.293L28.5033 18.8137C28.5178 18.8058 28.529 18.8137 28.529 18.8271C28.5284 18.8359 28.5257 18.8444 28.5213 18.852C28.5168 18.8595 28.5107 18.866 28.5033 18.8708L27.6722 19.3501C27.6577 19.358 27.6465 19.3501 27.6465 19.3367C27.6471 19.3279 27.6498 19.3194 27.6543 19.3119C27.6587 19.3043 27.6649 19.2978 27.6722 19.293Z" fill="black"/>
<path d="M29.9689 19.506C29.9689 19.3402 30.0484 19.226 29.9689 19.0221C29.8894 18.8183 29.5489 18.4621 29.3865 18.1586C29.2241 17.8551 29.1076 17.7767 28.9934 17.9167C28.8959 18.0365 29.1334 18.6279 29.2051 18.797C29.0785 18.7298 28.9553 18.7018 28.8545 18.7657C28.6305 18.909 28.9777 19.2372 28.9777 19.2372C28.9777 19.2372 28.71 19.2943 28.6943 19.4802C28.6787 19.6661 29.0303 20.0089 29.0303 20.0089L27.6572 20.8018C27.892 20.8663 28.1318 20.9109 28.374 20.9351C28.4967 20.9439 28.6198 20.9439 28.7425 20.9351C29.1782 20.8937 29.3495 20.813 29.5982 20.57C29.7715 20.3799 29.9106 20.1613 30.0092 19.9237C30.035 19.8557 30.0447 19.7826 30.0377 19.7102C30.0307 19.6377 30.0072 19.5679 29.9689 19.506Z" fill="#FFA8A7"/>
<path d="M29.1807 20.1587L29.0284 20.0098L27.6553 20.8027C27.8904 20.8673 28.1306 20.9119 28.3732 20.936L29.1807 20.1587Z" fill="#F28F8F"/>
<path d="M27.907 16.1803C27.9541 16.1534 27.9395 16 27.8622 15.9563C27.6898 15.8566 27.1354 15.7928 26.7646 15.7939L27.0816 15.6113C27.4512 15.6113 28.0056 15.674 28.1781 15.7737C28.2554 15.8185 28.2699 15.972 28.2229 15.9977L27.907 16.1803Z" fill="#455A64"/>
<path d="M27.9076 16.1797C27.8953 16.1864 27.8818 16.1853 27.8617 16.1718L27.8908 16.155C27.8956 16.1417 27.8979 16.1277 27.8975 16.1136V16.1013C27.8972 16.0797 27.8922 16.0585 27.8827 16.0391C27.8732 16.0197 27.8595 16.0027 27.8426 15.9893C27.6746 15.8929 27.1247 15.8313 26.7809 15.8313H26.7686V15.791C27.1382 15.791 27.6926 15.8549 27.8639 15.9534C27.9401 15.9993 27.9546 16.1539 27.9076 16.1797Z" fill="#37474F"/>
<path opacity="0.35" d="M27.2577 15.6691L27.2353 15.6815L27.1143 15.7464C27.0948 15.756 27.0733 15.7606 27.0516 15.7599H27.0034H26.9922C26.9732 15.7599 26.9721 15.7498 26.9922 15.7408L27.1177 15.668C27.1368 15.6584 27.1579 15.653 27.1793 15.6523H27.2588C27.2722 15.6535 27.2734 15.6613 27.2577 15.6691Z" fill="black"/>
<path opacity="0.35" d="M27.2357 15.6797L27.1148 15.7446C27.0953 15.7542 27.0738 15.7588 27.0521 15.7581H27.0039L27.1159 15.6954C27.1349 15.6852 27.156 15.6798 27.1775 15.6797H27.2357Z" fill="black"/>
<path d="M27.0172 15.7494L27.0306 15.7416C27.0306 15.7226 26.9702 15.7102 26.8593 15.7259C26.7713 15.7361 26.6862 15.7631 26.6084 15.8054C26.6426 15.7541 26.6897 15.7128 26.745 15.6856C26.847 15.6296 27.1124 15.6374 27.1292 15.6856C27.1292 15.6912 27.1359 15.7013 27.1292 15.708C27.1225 15.7147 27.0911 15.7338 27.071 15.745C27.0536 15.7504 27.0352 15.7519 27.0172 15.7494Z" fill="#039AE4"/>
<path opacity="0.3" d="M27.0172 15.7494L27.0306 15.7416C27.0306 15.7226 26.9702 15.7102 26.8593 15.7259C26.7713 15.7361 26.6862 15.7631 26.6084 15.8054C26.6426 15.7541 26.6897 15.7128 26.745 15.6856C26.847 15.6296 27.1124 15.6374 27.1292 15.6856C27.1292 15.6912 27.1359 15.7013 27.1292 15.708C27.1225 15.7147 27.0911 15.7338 27.071 15.745C27.0536 15.7504 27.0352 15.7519 27.0172 15.7494Z" fill="black"/>
<path d="M18.1284 10.9648C17.985 10.9749 17.9257 10.9928 17.8092 11.2269C17.6759 11.4935 17.5605 11.7376 17.5605 11.7376C17.5904 12.1302 17.7634 12.498 18.0466 12.7714C18.5282 13.2597 19.5967 13.5912 19.5967 13.5912C19.5967 13.5912 19.6852 13.0973 19.7535 12.8946C19.9025 12.4466 20.1265 12.8028 20.1265 12.8028C20.1119 12.7054 20.0695 12.6144 20.0044 12.5407C19.9092 12.4556 19.2988 12.4029 18.8105 12.0927C18.5057 11.8857 18.2712 11.5907 18.1385 11.2471L18.1284 10.9648Z" fill="#455A64"/>
<path d="M20.1266 12.8021C20.1194 12.7316 20.1272 12.6603 20.1494 12.593C20.1716 12.5256 20.2077 12.4637 20.2554 12.4113C20.3943 12.2085 20.3921 12.0226 20.3943 11.8165C20.3965 11.6105 20.3943 11.1445 20.3943 11.1445C20.5601 11.1658 20.6821 11.1938 20.7852 11.4514C20.8882 11.709 21.0786 12.2354 20.9924 12.7484C20.9061 13.2613 20.6866 13.4327 20.6866 13.4327C20.6866 13.4327 20.5589 12.9993 20.4794 12.7988C20.3999 12.5983 20.2465 12.5501 20.1266 12.8021Z" fill="#455A64"/>
<path d="M43.8716 5.82386C43.8716 5.79922 43.857 5.77346 43.8526 5.7533C43.8467 5.74633 43.8432 5.73772 43.8425 5.72866C43.8282 5.70515 43.8113 5.68335 43.7921 5.6637C43.7756 5.64033 43.7531 5.62178 43.7271 5.60994L43.7025 5.59426C43.5334 5.49458 42.8065 5.07682 42.7169 5.02642C42.656 4.99828 42.5887 4.98717 42.522 4.99427C42.4554 5.00137 42.3919 5.02642 42.3383 5.06674L33.2999 10.2803C33.1431 10.3833 33.0127 10.5217 32.9193 10.6843C32.8259 10.847 32.7722 11.0293 32.7623 11.2167V30.988C32.7544 31.0552 32.765 31.1233 32.7931 31.1849C32.8211 31.2465 32.8655 31.2993 32.9213 31.3375C33.0165 31.3912 33.833 31.865 33.9293 31.9199C33.9394 31.9199 33.945 31.9299 33.9551 31.9299C33.9723 31.9391 33.9908 31.9455 34.01 31.949C34.0489 31.9591 34.0898 31.9591 34.1287 31.949C34.1941 31.9408 34.257 31.919 34.3135 31.8851L43.3441 26.6659C43.5012 26.5646 43.632 26.4274 43.7257 26.2656C43.8194 26.1037 43.8732 25.9219 43.8828 25.7352V5.95602C43.8845 5.91167 43.8807 5.86728 43.8716 5.82386Z" fill="#039AE4"/>
<path opacity="0.15" d="M43.8716 5.82386C43.8716 5.79922 43.857 5.77346 43.8526 5.7533C43.8467 5.74633 43.8432 5.73772 43.8425 5.72866C43.8282 5.70515 43.8113 5.68335 43.7921 5.6637C43.7756 5.64033 43.7531 5.62178 43.7271 5.60994L43.7025 5.59426C43.5334 5.49458 42.8065 5.07682 42.7169 5.02642C42.656 4.99828 42.5887 4.98717 42.522 4.99427C42.4554 5.00137 42.3919 5.02642 42.3383 5.06674L33.2999 10.2803C33.1431 10.3833 33.0127 10.5217 32.9193 10.6843C32.8259 10.847 32.7722 11.0293 32.7623 11.2167V30.988C32.7544 31.0552 32.765 31.1233 32.7931 31.1849C32.8211 31.2465 32.8655 31.2993 32.9213 31.3375C33.0165 31.3912 33.833 31.865 33.9293 31.9199C33.9394 31.9199 33.945 31.9299 33.9551 31.9299C33.9723 31.9391 33.9908 31.9455 34.01 31.949C34.0489 31.9591 34.0898 31.9591 34.1287 31.949C34.1941 31.9408 34.257 31.919 34.3135 31.8851L43.3441 26.6659C43.5012 26.5646 43.632 26.4274 43.7257 26.2656C43.8194 26.1037 43.8732 25.9219 43.8828 25.7352V5.95602C43.8845 5.91167 43.8807 5.86728 43.8716 5.82386Z" fill="black"/>
<path d="M33.9532 31.9303C33.9431 31.9303 33.9375 31.9303 33.9274 31.9202C33.8333 31.8653 33.0168 31.3916 32.9194 31.3378C32.8635 31.2996 32.8192 31.2469 32.7911 31.1853C32.7631 31.1237 32.7524 31.0556 32.7604 30.9884V11.2148C32.7659 11.0262 32.8207 10.8424 32.9194 10.6816L33.9274 11.264C33.8287 11.4248 33.7739 11.6086 33.7684 11.7972V31.5708C33.774 31.7556 33.8434 31.8799 33.9532 31.9303Z" fill="#039AE4"/>
<path opacity="0.3" d="M33.9532 31.9303C33.9431 31.9303 33.9375 31.9303 33.9274 31.9202C33.8333 31.8653 33.0168 31.3916 32.9194 31.3378C32.8635 31.2996 32.8192 31.2469 32.7911 31.1853C32.7631 31.1237 32.7524 31.0556 32.7604 30.9884V11.2148C32.7659 11.0262 32.8207 10.8424 32.9194 10.6816L33.9274 11.264C33.8287 11.4248 33.7739 11.6086 33.7684 11.7972V31.5708C33.774 31.7556 33.8434 31.8799 33.9532 31.9303Z" fill="black"/>
<path d="M43.8714 5.82478C43.8714 5.80014 43.8568 5.77438 43.8523 5.75422C43.8465 5.74725 43.843 5.73864 43.8422 5.72958C43.828 5.70607 43.8111 5.68427 43.7918 5.66462C43.7753 5.64126 43.7529 5.6227 43.7269 5.61086L43.7022 5.59518C43.643 5.57627 43.5802 5.57138 43.5188 5.58091C43.4574 5.59043 43.399 5.61411 43.3483 5.65006L39.1461 8.07262L36.8557 9.39758L34.311 10.8648C34.1549 10.9684 34.0251 11.107 33.9317 11.2695C33.8384 11.432 33.7842 11.614 33.7734 11.8011V31.5713C33.7734 31.7561 33.8429 31.8805 33.9526 31.9309C33.9698 31.94 33.9883 31.9465 34.0075 31.9499C34.0464 31.96 34.0873 31.96 34.1262 31.9499C34.1916 31.9417 34.2545 31.92 34.311 31.8861L43.3438 26.6669C43.501 26.5655 43.6318 26.4283 43.7255 26.2665C43.8191 26.1047 43.873 25.9229 43.8826 25.7361V5.95694C43.8843 5.91259 43.8805 5.8682 43.8714 5.82478Z" fill="#039AE4"/>
<path d="M35.3998 12.0628L42.2598 8.10248C42.383 8.03192 42.4838 8.08904 42.4838 8.23128V16.9673C42.4794 17.0444 42.4569 17.1195 42.4179 17.1863C42.379 17.253 42.3248 17.3096 42.2598 17.3514L35.3998 21.305C35.2766 21.3767 35.1758 21.3185 35.1758 21.1774V12.4526C35.1796 12.3745 35.2019 12.2985 35.2409 12.2307C35.2798 12.163 35.3343 12.1054 35.3998 12.0628Z" fill="#FAFAFA"/>
<path d="M42.1121 17.432L41.0336 18.0536L40.9048 18.1286C40.4747 17.5317 40.0961 16.9806 40.0961 16.9806C39.98 16.6557 39.8813 16.3248 39.8004 15.9894C39.7358 15.7342 39.6883 15.4749 39.6582 15.2133C39.9323 15.1294 40.2252 15.1294 40.4993 15.2133C40.73 15.2995 40.972 15.5358 41.1411 15.8203C41.3102 16.1048 41.7761 16.8742 42.1121 17.432Z" fill="#455A64"/>
<path d="M41.0385 18.0532L40.9097 18.1283L39.6631 18.8462L39.4727 18.9582L36.9774 20.3951L36.8755 20.4534L36.8643 20.0233L36.9897 18.0319C36.9897 17.6478 37.1891 16.119 37.1891 16.119L37.7491 15.895L38.0907 15.7583L38.2027 15.7147L38.2475 15.6967L39.1927 15.3182C39.2543 15.2969 39.3137 15.279 39.3719 15.2633C39.391 15.2566 39.4123 15.2532 39.4302 15.2487C39.5036 15.2302 39.5786 15.2182 39.6542 15.2129C40.3564 15.158 40.7305 15.6855 40.9041 16.5278C40.9768 17.0334 41.0217 17.5427 41.0385 18.0532Z" fill="#37474F"/>
<path d="M39.6623 18.8459L39.4719 18.9579C39.5347 18.0541 39.4955 16.9162 39.2793 16.3203C39.6803 17.3014 39.6903 18.3229 39.6623 18.8459Z" fill="#263238"/>
<path d="M37.4139 18.554C37.4139 18.554 37.1787 19.4691 36.9771 20.3953L36.8752 20.4535L35.4629 21.2678C35.7171 18.7366 35.8851 17.3859 36.285 16.7094C36.5023 16.3387 36.836 16.2457 37.1888 16.1191C37.508 16.3577 37.6402 17.4956 37.4139 18.554Z" fill="#455A64"/>
<path d="M37.8557 11.7109C37.7587 11.7469 37.6697 11.8018 37.594 11.8723C37.5183 11.9429 37.4572 12.0277 37.4145 12.122C37.3114 12.3841 37.3484 12.9665 37.4862 13.5847C37.5612 13.9776 37.6772 14.3617 37.8322 14.7305C37.8556 14.7787 37.8901 14.8206 37.933 14.8528C37.9759 14.8849 38.0258 14.9063 38.0786 14.9153L38.0629 14.1559L38.0394 13.6295C38.0394 13.6295 38.334 13.1109 38.3665 12.7245C38.409 12.225 38.3194 12.0402 38.3194 12.0402L37.8557 11.7109Z" fill="#263238"/>
<path d="M37.7799 11.8175L37.3252 11.6585C37.3902 11.4905 37.5436 11.3897 37.669 11.4345C37.7945 11.4793 37.8449 11.6484 37.7799 11.8175Z" fill="#263238"/>
<path d="M38.377 12.356C38.377 13.14 38.937 13.6787 39.609 13.5566C40.281 13.4345 40.841 12.6976 40.841 11.9113C40.841 11.1251 40.281 10.5886 39.609 10.7107C38.937 10.8328 38.3747 11.5697 38.377 12.356Z" fill="#263238"/>
<path d="M38.0565 13.5408C37.9445 13.6719 37.856 13.3997 37.762 13.3045C37.6679 13.2093 37.3644 13.1096 37.2143 13.5061C37.0642 13.9026 37.3532 14.3685 37.5805 14.4503C37.9165 14.5701 38.0632 14.1557 38.0632 14.1557L38.0991 15.8693C38.4216 16.3778 39.1496 15.8749 39.2784 16.2288C39.2997 15.9477 39.6783 15.8525 39.4397 15.5792V15.0573C39.6284 15.058 39.8165 15.0354 39.9997 14.9901C40.3032 14.8781 40.4612 14.5891 40.5519 14.1938C40.6975 13.5599 40.7568 12.5261 40.5519 11.3792C40.2159 11.1362 39.0354 11.3938 38.3242 12.04C38.3712 13.0794 38.1674 13.4098 38.0565 13.5408Z" fill="#FFA8A7"/>
<path d="M40.7162 10.5116C40.7132 10.5024 40.7074 10.4943 40.6995 10.4884C40.6917 10.4826 40.6823 10.4794 40.6725 10.4792C40.6557 10.4843 40.6408 10.4945 40.63 10.5083C40.5468 10.6003 40.4569 10.686 40.3612 10.7648C40.3841 10.6238 40.3841 10.4801 40.3612 10.3392C40.3477 10.2552 40.3264 10.0592 40.2335 10.0547C40.1786 10.0547 40.1304 10.1129 40.0901 10.1667C39.7194 10.6326 39.2356 10.5318 38.7898 10.627C38.4168 10.7065 37.9655 10.963 37.7975 11.411C37.7202 11.616 37.7068 11.8198 37.8591 11.9262C37.9971 12.0066 38.1554 12.0455 38.3149 12.0382C39.0575 12.0561 40.1237 12.2219 40.6736 11.3248C40.7528 11.192 40.7917 11.0391 40.7856 10.8846C40.7884 10.7575 40.7632 10.6313 40.7117 10.515L40.7162 10.5116Z" fill="#263238"/>
<path d="M39.4374 15.0579C39.4374 15.0579 38.7654 15.0221 38.5235 14.9191C38.3807 14.8563 38.2645 14.7453 38.1953 14.6055C38.2297 14.7512 38.2933 14.8884 38.3824 15.0087C38.556 15.2327 39.4385 15.2618 39.4385 15.2618L39.4374 15.0579Z" fill="#F28F8F"/>
<path d="M39.2614 13.1389C39.2633 13.1806 39.251 13.2218 39.2267 13.2557C39.2023 13.2897 39.1672 13.3144 39.127 13.3259C39.052 13.3394 38.9915 13.2767 38.9904 13.1871C38.9888 13.1453 39.0013 13.1043 39.0259 13.0706C39.0505 13.0369 39.0857 13.0124 39.1259 13.0011C39.1998 12.9911 39.2614 13.0493 39.2614 13.1389Z" fill="#263238"/>
<path d="M39.1176 12.5756L38.8275 12.8131C38.8075 12.7655 38.8032 12.7128 38.8153 12.6626C38.8274 12.6124 38.8552 12.5674 38.8947 12.5342C38.9105 12.5185 38.9299 12.5068 38.9512 12.5003C38.9725 12.4937 38.9951 12.4924 39.017 12.4965C39.0389 12.5005 39.0596 12.5099 39.0771 12.5237C39.0946 12.5375 39.1085 12.5553 39.1176 12.5756Z" fill="#263238"/>
<path d="M39.3364 14.1211L39.7161 14.2174C39.7054 14.2758 39.673 14.328 39.6254 14.3635C39.5779 14.3991 39.5186 14.4153 39.4596 14.4089C39.4055 14.3866 39.3624 14.3439 39.3394 14.2901C39.3163 14.2363 39.3153 14.1757 39.3364 14.1211Z" fill="#F28F8F"/>
<path d="M40.4139 12.4719L40.1484 12.2837C40.1569 12.263 40.1697 12.2442 40.1859 12.2286C40.2021 12.2131 40.2213 12.2011 40.2424 12.1934C40.2635 12.1857 40.2859 12.1825 40.3083 12.1839C40.3307 12.1854 40.3526 12.1916 40.3724 12.202C40.4101 12.2348 40.4349 12.2799 40.4425 12.3294C40.4501 12.3788 40.4399 12.4292 40.4139 12.4719Z" fill="#263238"/>
<path d="M40.3336 12.9024C40.3351 12.9442 40.3225 12.9853 40.298 13.0192C40.2734 13.053 40.2383 13.0778 40.1981 13.0895C40.1242 13.1018 40.0626 13.0402 40.0626 12.9506C40.0612 12.9088 40.0737 12.8677 40.0983 12.8338C40.1228 12.7999 40.158 12.7752 40.1981 12.7635C40.272 12.7501 40.3336 12.8128 40.3336 12.9024Z" fill="#263238"/>
<path d="M39.6982 12.8691L39.7453 13.8021L40.1709 13.5579L39.6982 12.8691Z" fill="#F28F8F"/>
<path d="M38.0804 15.2031C37.9919 15.2098 37.9606 15.249 37.8911 15.4271C37.8116 15.6276 37.7422 15.8102 37.7422 15.8102C37.7544 16.0565 37.8583 16.2894 38.0334 16.4631C38.3201 16.742 38.9574 16.8394 38.9574 16.8394C38.9574 16.8394 39.0111 16.4889 39.0515 16.3399C39.1411 16.0162 39.2755 16.2279 39.2755 16.2279C39.2683 16.1663 39.243 16.1082 39.2027 16.061C39.1455 16.014 38.7815 16.0521 38.4903 15.8998C38.3017 15.7852 38.1587 15.6086 38.086 15.4002L38.0804 15.2031Z" fill="#455A64"/>
<path d="M39.2785 16.2295C39.2712 16.1282 39.2984 16.0276 39.3558 15.9439C39.4202 15.8113 39.4484 15.6641 39.4376 15.5171C39.4376 15.3749 39.4376 15.0579 39.4376 15.0579C39.5361 15.0523 39.6089 15.0579 39.6705 15.2226C39.7831 15.4976 39.8258 15.7962 39.7948 16.0917C39.7814 16.2746 39.7183 16.4504 39.6123 16.6002C39.6123 16.6002 39.5361 16.3168 39.4891 16.188C39.442 16.0592 39.3502 16.0413 39.2785 16.2295Z" fill="#455A64"/>
<path d="M33.7738 14.6413L32.7658 14.0566L30.341 16.6226C30.3237 16.6408 30.3107 16.6628 30.303 16.6868C30.2953 16.7107 30.2931 16.7361 30.2965 16.7611C30.2999 16.786 30.3089 16.8099 30.3228 16.8309C30.3368 16.8519 30.3552 16.8695 30.3768 16.8824C30.4048 16.8992 31.3031 17.4155 31.3848 17.467C31.4157 17.4847 31.4514 17.4922 31.4868 17.4883L33.7716 17.2643L33.7738 14.6413Z" fill="#039AE4"/>
<path opacity="0.15" d="M33.7738 14.6413L32.7658 14.0566L30.341 16.6226C30.3237 16.6408 30.3107 16.6628 30.303 16.6868C30.2953 16.7107 30.2931 16.7361 30.2965 16.7611C30.2999 16.786 30.3089 16.8099 30.3228 16.8309C30.3368 16.8519 30.3552 16.8695 30.3768 16.8824C30.4048 16.8992 31.3031 17.4155 31.3848 17.467C31.4157 17.4847 31.4514 17.4922 31.4868 17.4883L33.7716 17.2643L33.7738 14.6413Z" fill="black"/>
<path d="M33.7734 14.6426L31.3509 17.2085C31.3272 17.2333 31.3118 17.2647 31.3066 17.2985C31.3014 17.3324 31.3068 17.367 31.322 17.3976C31.3371 17.4283 31.3613 17.4536 31.3914 17.4701C31.4214 17.4865 31.4557 17.4933 31.4897 17.4896L33.7745 17.2656L33.7734 14.6426Z" fill="#039AE4"/>
<path d="M36.5693 21.6022L41.0907 18.9914C41.2553 18.8974 41.3875 18.9735 41.3875 19.1639V19.2815C41.3821 19.3847 41.3524 19.4851 41.3008 19.5747C41.2492 19.6642 41.1772 19.7403 41.0907 19.7967L36.5693 22.4074C36.4057 22.5015 36.2725 22.4254 36.2725 22.235V22.1174C36.2779 22.0142 36.3076 21.9137 36.3592 21.8242C36.4107 21.7347 36.4827 21.6586 36.5693 21.6022Z" fill="#455A64"/>
<path d="M35.4661 24.7663L37.0789 23.8322C37.1472 23.793 37.2021 23.821 37.2021 23.8949C37.1992 23.9365 37.1866 23.9769 37.1651 24.0127C37.1437 24.0485 37.1142 24.0787 37.0789 24.101L35.4661 25.0351C35.3978 25.0743 35.3418 25.0463 35.3418 24.9723C35.3449 24.9306 35.3578 24.8903 35.3794 24.8545C35.401 24.8187 35.4307 24.7884 35.4661 24.7663Z" fill="#455A64"/>
<path d="M38.256 23.1566L42.1939 20.883C42.2623 20.8438 42.3183 20.8718 42.3183 20.9457C42.315 20.9873 42.302 21.0276 42.2804 21.0634C42.2589 21.0992 42.2292 21.1294 42.1939 21.1518L38.256 23.4242C38.1877 23.4646 38.1328 23.4366 38.1328 23.3615C38.1357 23.32 38.1484 23.2799 38.1698 23.2442C38.1912 23.2086 38.2208 23.1786 38.256 23.1566Z" fill="#455A64"/>
<path d="M35.4661 25.303L37.0789 24.37C37.1472 24.3297 37.2021 24.3577 37.2021 24.4327C37.199 24.4743 37.1863 24.5146 37.1649 24.5503C37.1435 24.5861 37.1141 24.6164 37.0789 24.6388L35.4661 25.5718C35.3978 25.6121 35.3418 25.5841 35.3418 25.509C35.3451 25.4674 35.358 25.4271 35.3796 25.3913C35.4012 25.3555 35.4308 25.3253 35.4661 25.303Z" fill="#455A64"/>
<path d="M38.256 23.6917L42.1939 21.4181C42.2623 21.3789 42.3183 21.4069 42.3183 21.4808C42.3152 21.5225 42.3024 21.563 42.2808 21.5988C42.2592 21.6346 42.2294 21.6648 42.1939 21.6869L38.256 23.9605C38.1877 23.9997 38.1328 23.9717 38.1328 23.8978C38.1357 23.8562 38.1484 23.8158 38.1698 23.78C38.1912 23.7442 38.2207 23.714 38.256 23.6917Z" fill="#455A64"/>
<path d="M35.4661 25.8405L37.0789 24.9064C37.1472 24.8672 37.2021 24.8952 37.2021 24.9691C37.1992 25.0107 37.1866 25.0511 37.1651 25.0869C37.1437 25.1227 37.1142 25.1529 37.0789 25.1752L35.4661 26.1093C35.3978 26.1485 35.3418 26.1205 35.3418 26.0465C35.3449 26.0049 35.3578 25.9645 35.3794 25.9287C35.401 25.8929 35.4307 25.8627 35.4661 25.8405Z" fill="#455A64"/>
<path d="M38.256 24.2294L42.1939 21.9513C42.2623 21.9121 42.3183 21.9401 42.3183 22.014C42.315 22.0557 42.302 22.096 42.2804 22.1318C42.2589 22.1675 42.2292 22.1978 42.1939 22.2201L38.256 24.4926C38.1877 24.5329 38.1328 24.5049 38.1328 24.4299C38.1364 24.3892 38.1494 24.3499 38.1708 24.3151C38.1921 24.2803 38.2213 24.251 38.256 24.2294Z" fill="#455A64"/>
<path d="M35.4661 26.3776L37.0789 25.4435C37.1472 25.4043 37.2021 25.4323 37.2021 25.5062C37.199 25.5478 37.1863 25.5881 37.1649 25.6238C37.1435 25.6596 37.1141 25.6899 37.0789 25.7123L35.4661 26.6453C35.3978 26.6856 35.3418 26.6576 35.3418 26.5825C35.345 26.541 35.3579 26.5008 35.3795 26.4652C35.4011 26.4296 35.4308 26.3996 35.4661 26.3776Z" fill="#455A64"/>
<path d="M38.256 24.7659L42.1939 22.4923C42.2623 22.4531 42.3183 22.4811 42.3183 22.555C42.3152 22.5968 42.3024 22.6372 42.2808 22.673C42.2592 22.7088 42.2294 22.739 42.1939 22.7611L38.256 25.0347C38.1877 25.0739 38.1328 25.0459 38.1328 24.972C38.1357 24.9304 38.1484 24.89 38.1698 24.8542C38.1912 24.8184 38.2207 24.7882 38.256 24.7659Z" fill="#455A64"/>
<path d="M36.04 27.3327V29.0139L36.525 28.7339V27.0527L36.04 27.3327Z" fill="#455A64"/>
<path d="M37.4951 26.4929V28.1751L37.9801 27.894V26.2129L37.4951 26.4929Z" fill="#455A64"/>
<path d="M39.4375 25.3718V27.054L39.9225 26.7729V25.0918L39.4375 25.3718Z" fill="#455A64"/>
<path d="M41.1357 24.3913V26.0724L41.6207 25.7924V24.1113L41.1357 24.3913Z" fill="#455A64"/>
<path d="M36.7676 26.9134V28.5946L37.0106 28.4546V26.7734L36.7676 26.9134Z" fill="#455A64"/>
<path d="M40.1641 24.9505V26.6317L40.4071 26.4917V24.8105L40.1641 24.9505Z" fill="#455A64"/>
<path d="M38.709 25.7923V27.4735L38.952 27.3335V25.6523L38.709 25.7923Z" fill="#455A64"/>
<path d="M37.2529 26.6331V28.3142L37.3739 28.2436V26.5625L37.2529 26.6331Z" fill="#455A64"/>
<path d="M39.1172 25.5569V27.238L39.2381 27.1674V25.4863L39.1172 25.5569Z" fill="#455A64"/>
<path d="M38.3447 26.0022V27.6833L38.4668 27.6128V25.9316L38.3447 26.0022Z" fill="#455A64"/>
<path d="M40.7715 24.6018V26.2829L40.8924 26.2124V24.5312L40.7715 24.6018Z" fill="#455A64"/>
<path d="M38.1025 26.1409V27.8209L38.2235 27.7514V26.0703L38.1025 26.1409Z" fill="#455A64"/>
<path d="M40.5283 24.7413V26.4236L40.6504 26.353V24.6719L40.5283 24.7413Z" fill="#455A64"/>
<path opacity="0.3" d="M36.8616 22.7132L40.7995 20.4396C40.8679 20.4004 40.9227 20.4284 40.9227 20.5023C40.9198 20.5439 40.9072 20.5843 40.8858 20.6201C40.8644 20.6559 40.8348 20.6861 40.7995 20.7084L36.8616 22.982C36.7933 23.0212 36.7373 22.9932 36.7373 22.9193C36.7403 22.8776 36.7532 22.8371 36.7748 22.8013C36.7964 22.7655 36.8261 22.7353 36.8616 22.7132Z" fill="black"/>
</svg>
