<svg width="56" height="56" viewBox="0 0 56 56" fill="none" xmlns="http://www.w3.org/2000/svg">
<path opacity="0.7" d="M7.60835 18.7148C7.60835 18.7148 4.48579 26.7788 8.87395 34.8988C13.2621 43.0188 22.3005 47.3084 29.5346 50.9764C36.7687 54.6444 44.2805 52.858 47.85 46.8504C51.4194 40.8427 46.5239 36.5542 46.5172 27.9873C46.5104 19.4204 47.7996 17.1524 43.1572 9.91501C38.5148 2.67757 27.1344 1.07485 18.5284 6.44301C9.92227 11.8112 7.60835 18.7148 7.60835 18.7148Z" fill="white"/>
<path d="M10.946 9.38386L11.0088 9.32786C16.7846 4.12658 24.4555 3.8925 30.0487 9.49026C32.9608 12.4079 38.134 11.8501 41.8345 12.9051C54.5891 16.544 52.3827 33.8559 46.0804 42.2245C40.3931 49.7767 28.0697 51.4824 19.7907 47.7674C12.5107 44.5015 7.39227 37.208 5.56667 29.5819C5.38448 28.8166 5.23515 28.0446 5.11867 27.2658C4.16219 20.7731 6.00459 13.8773 10.946 9.38386Z" fill="#039AE4"/>
<path opacity="0.7" d="M10.946 9.38386L11.0088 9.32786C16.7846 4.12658 24.4555 3.8925 30.0487 9.49026C32.9608 12.4079 38.134 11.8501 41.8345 12.9051C54.5891 16.544 52.3827 33.8559 46.0804 42.2245C40.3931 49.7767 28.0697 51.4824 19.7907 47.7674C12.5107 44.5015 7.39227 37.208 5.56667 29.5819C5.38448 28.8166 5.23515 28.0446 5.11867 27.2658C4.16219 20.7731 6.00459 13.8773 10.946 9.38386Z" fill="white"/>
<mask id="mask0_13_10575" style="mask-type:luminance" maskUnits="userSpaceOnUse" x="27" y="11" width="20" height="5">
<path d="M30.6883 14.7329C30.6883 14.7329 32.2138 12.9846 34.4392 12.9846C34.4392 12.9846 34.5131 11.626 36.0319 11.3326C37.5506 11.0391 37.8463 12.3955 37.8463 12.3955C37.8463 12.3955 38.9663 11.8007 40.4749 12.3955C41.9835 12.9902 41.6767 14.7284 41.6767 14.7284C41.6767 14.7284 46.0234 14.5862 46.7693 15.3836H27.2275C27.2275 15.3836 27.6218 14.4081 30.6883 14.7329Z" fill="white"/>
</mask>
<g mask="url(#mask0_13_10575)">
<path opacity="0.5" d="M30.6883 14.7329C30.6883 14.7329 32.2138 12.9846 34.4392 12.9846C34.4392 12.9846 34.5131 11.626 36.0319 11.3326C37.5506 11.0391 37.8463 12.3955 37.8463 12.3955C37.8463 12.3955 38.9663 11.8007 40.4749 12.3955C41.9835 12.9902 41.6767 14.7284 41.6767 14.7284C41.6767 14.7284 46.0234 14.5862 46.7693 15.3836H27.2275C27.2275 15.3836 27.6218 14.4081 30.6883 14.7329Z" stroke="#263238" stroke-linecap="round" stroke-linejoin="round"/>
</g>
<path d="M30.6883 14.7329C30.6883 14.7329 32.2138 12.9846 34.4392 12.9846C34.4392 12.9846 34.5131 11.626 36.0319 11.3326C37.5506 11.0391 37.8463 12.3955 37.8463 12.3955C37.8463 12.3955 38.9663 11.8007 40.4749 12.3955C41.9835 12.9902 41.6767 14.7284 41.6767 14.7284C41.6767 14.7284 46.0234 14.5862 46.7693 15.3836H27.2275C27.2275 15.3836 27.6218 14.4081 30.6883 14.7329Z" stroke="#263238" stroke-linecap="round" stroke-linejoin="round"/>
<mask id="mask1_13_10575" style="mask-type:luminance" maskUnits="userSpaceOnUse" x="36" y="23" width="17" height="4">
<path d="M49.3018 26.1978C49.3018 26.1978 48.0844 24.8034 46.3103 24.8034C46.3103 24.8034 46.2509 23.7204 45.0402 23.4863C43.8295 23.2522 43.5932 24.3341 43.5932 24.3341C43.5932 24.3341 42.6972 23.8592 41.4965 24.3341C40.2959 24.809 40.5378 26.1944 40.5378 26.1944C40.5378 26.1944 37.0658 26.0824 36.4756 26.7175H52.0593C52.0593 26.7175 51.7445 25.9391 49.3018 26.1978Z" fill="white"/>
</mask>
<g mask="url(#mask1_13_10575)">
<path opacity="0.5" d="M49.3018 26.1978C49.3018 26.1978 48.0844 24.8034 46.3103 24.8034C46.3103 24.8034 46.2509 23.7204 45.0402 23.4863C43.8295 23.2522 43.5932 24.3341 43.5932 24.3341C43.5932 24.3341 42.6972 23.8592 41.4965 24.3341C40.2959 24.809 40.5378 26.1944 40.5378 26.1944C40.5378 26.1944 37.0658 26.0824 36.4756 26.7175H52.0593C52.0593 26.7175 51.7445 25.9391 49.3018 26.1978Z" stroke="#263238" stroke-linecap="round" stroke-linejoin="round"/>
</g>
<path d="M49.3018 26.1978C49.3018 26.1978 48.0844 24.8034 46.3103 24.8034C46.3103 24.8034 46.2509 23.7204 45.0402 23.4863C43.8295 23.2522 43.5932 24.3341 43.5932 24.3341C43.5932 24.3341 42.6972 23.8592 41.4965 24.3341C40.2959 24.809 40.5378 26.1944 40.5378 26.1944C40.5378 26.1944 37.0658 26.0824 36.4756 26.7175H52.0593C52.0593 26.7175 51.7445 25.9391 49.3018 26.1978Z" stroke="#263238" stroke-linecap="round" stroke-linejoin="round"/>
<mask id="mask2_13_10575" style="mask-type:luminance" maskUnits="userSpaceOnUse" x="6" y="16" width="10" height="3">
<path d="M7.95218 17.9645C7.95218 17.9645 8.67346 17.1357 9.72738 17.1357C9.74743 16.9396 9.83254 16.7559 9.96915 16.6138C10.1058 16.4717 10.286 16.3795 10.4811 16.3517C11.2013 16.2128 11.3413 16.8546 11.3413 16.8546C11.538 16.77 11.7499 16.7263 11.964 16.7263C12.1782 16.7263 12.39 16.77 12.5867 16.8546C13.3002 17.1368 13.1557 17.96 13.1557 17.96C13.1557 17.96 15.2154 17.8928 15.5682 18.2703H6.3125C6.3125 18.2703 6.49618 17.8077 7.95218 17.9645Z" fill="white"/>
</mask>
<g mask="url(#mask2_13_10575)">
<path opacity="0.5" d="M7.95218 17.9645C7.95218 17.9645 8.67346 17.1357 9.72738 17.1357C9.74743 16.9396 9.83254 16.7559 9.96915 16.6138C10.1058 16.4717 10.286 16.3795 10.4811 16.3517C11.2013 16.2128 11.3413 16.8546 11.3413 16.8546C11.538 16.77 11.7499 16.7263 11.964 16.7263C12.1782 16.7263 12.39 16.77 12.5867 16.8546C13.3002 17.1368 13.1557 17.96 13.1557 17.96C13.1557 17.96 15.2154 17.8928 15.5682 18.2703H6.3125C6.3125 18.2703 6.49618 17.8077 7.95218 17.9645Z" stroke="#263238" stroke-linecap="round" stroke-linejoin="round"/>
</g>
<path d="M7.95218 17.9645C7.95218 17.9645 8.67346 17.1357 9.72738 17.1357C9.74743 16.9396 9.83254 16.7559 9.96915 16.6138C10.1058 16.4717 10.286 16.3795 10.4811 16.3517C11.2013 16.2128 11.3413 16.8546 11.3413 16.8546C11.538 16.77 11.7499 16.7263 11.964 16.7263C12.1782 16.7263 12.39 16.77 12.5867 16.8546C13.3002 17.1368 13.1557 17.96 13.1557 17.96C13.1557 17.96 15.2154 17.8928 15.5682 18.2703H6.3125C6.3125 18.2703 6.49618 17.8077 7.95218 17.9645Z" stroke="#263238" stroke-linecap="round" stroke-linejoin="round"/>
<path d="M3.30762 49.3998C3.30762 49.3998 4.28202 47.4958 6.49738 47.8486C6.59877 47.6018 6.78136 47.3971 7.01496 47.2681C7.24856 47.1392 7.51916 47.0939 7.78202 47.1397C7.78202 47.1397 7.20634 45.5448 8.71274 44.352C10.2191 43.1592 12.2631 44.1739 12.2631 44.1739C12.2631 44.1739 12.1343 43.2779 12.971 42.9531L25.8633 43.381C25.8633 43.381 27.2779 43.7752 27.5881 45.1046C27.5881 45.1046 28.8291 44.3957 30.3791 45.1046C31.9292 45.8136 31.9303 47.5866 31.9303 47.5866C31.9303 47.5866 33.6899 47.4085 33.8343 49.8142C33.8343 49.8142 34.9476 48.4086 36.5817 49.8142" fill="white"/>
<path d="M3.30762 49.3998C3.30762 49.3998 4.28202 47.4958 6.49738 47.8486C6.59877 47.6018 6.78136 47.3971 7.01496 47.2681C7.24856 47.1392 7.51916 47.0939 7.78202 47.1397C7.78202 47.1397 7.20634 45.5448 8.71274 44.352C10.2191 43.1592 12.2631 44.1739 12.2631 44.1739C12.2631 44.1739 12.1343 43.2779 12.971 42.9531L25.8633 43.381C25.8633 43.381 27.2779 43.7752 27.5881 45.1046C27.5881 45.1046 28.8291 44.3957 30.3791 45.1046C31.9292 45.8136 31.9303 47.5866 31.9303 47.5866C31.9303 47.5866 33.6899 47.4085 33.8343 49.8142C33.8343 49.8142 34.9476 48.4086 36.5817 49.8142" stroke="#263238" stroke-linecap="round" stroke-linejoin="round"/>
<path d="M7.33946 50.1523C7.30595 50.2254 7.27642 50.3001 7.25098 50.3763" stroke="#263238" stroke-linecap="round" stroke-linejoin="round"/>
<path d="M12.5631 45.75C12.1912 45.8978 11.8228 46.1924 11.5484 46.7412C11.5484 46.7412 10.8036 46.4198 10.3959 47.0066C9.9882 47.5935 10.6624 48.2028 10.6624 48.2028C10.6624 48.2028 9.73172 48.3809 9.68692 49.222C9.68692 49.222 8.73604 48.951 7.9834 49.4113" stroke="#263238" stroke-linecap="round" stroke-linejoin="round"/>
<path d="M13.3992 45.6202C13.2495 45.6123 13.0993 45.6198 12.9512 45.6427" stroke="#263238" stroke-linecap="round" stroke-linejoin="round"/>
<path d="M21.9722 43.9348L21.671 42.9492H17.2201L16.4551 44.6583C16.4551 44.6583 14.5175 44.0815 14.1177 45.766C14.0592 45.7429 13.9994 45.7234 13.9385 45.7078" stroke="#263238" stroke-linecap="round" stroke-linejoin="round"/>
<path d="M27.6163 46.4872C27.0216 46.849 26.8805 47.5389 26.8805 47.5389C26.3496 46.653 25.4614 47.185 25.4614 47.185C25.4614 47.185 25.3281 45.6338 24.3089 45.057C23.6769 44.7152 22.9369 44.6321 22.2448 44.8251L22.0645 44.2461" stroke="#263238" stroke-linecap="round" stroke-linejoin="round"/>
<path d="M31.3606 49.4138C31.0358 49.1147 30.5553 49.1338 30.5553 49.1338C30.5553 49.1338 31.1321 46.9632 29.1822 46.3864C28.5998 46.215 28.1596 46.2486 27.8281 46.3808" stroke="#263238" stroke-linecap="round" stroke-linejoin="round"/>
<path d="M31.6536 50.1521C31.6537 50.0366 31.6375 49.9216 31.6055 49.8105" stroke="#263238" stroke-linecap="round" stroke-linejoin="round"/>
<path d="M26.1632 43.3776H21.6709L22.7909 41.2832H25.0432L26.1632 43.3776Z" fill="#757575" stroke="#263238" stroke-linecap="round" stroke-linejoin="round"/>
<path d="M16.755 43.3776H12.2627L13.3827 41.2832H15.635L16.755 43.3776Z" fill="#757575" stroke="#263238" stroke-linecap="round" stroke-linejoin="round"/>
<path d="M22.2439 43.3776H16.1836L17.3036 41.2832H21.1239L22.2439 43.3776Z" fill="#999999" stroke="#263238" stroke-linecap="round" stroke-linejoin="round"/>
<path d="M25.8635 41.4322H21.9727V20.9362C21.9724 18.5397 22.6466 16.1915 23.9181 14.1602C25.1896 16.1915 25.8638 18.5397 25.8635 20.9362V41.4322Z" fill="#039AE4"/>
<mask id="mask3_13_10575" style="mask-type:luminance" maskUnits="userSpaceOnUse" x="21" y="14" width="5" height="28">
<path d="M25.8635 41.4322H21.9727V20.9362C21.9724 18.5397 22.6466 16.1915 23.9181 14.1602C25.1896 16.1915 25.8638 18.5397 25.8635 20.9362V41.4322Z" fill="white"/>
</mask>
<g mask="url(#mask3_13_10575)">
<path opacity="0.3" d="M25.8501 20.3828C25.8579 20.5643 25.8635 20.7468 25.8635 20.9294V41.4321H21.9727V20.9361C21.9727 20.7535 21.9727 20.571 21.985 20.3895L25.8501 20.3828Z" fill="white"/>
<path opacity="0.2" d="M23.2327 21.0774V41.4323H21.9727V20.9363C21.971 19.428 22.2364 17.9313 22.7567 16.5156C23.0709 18.0159 23.2304 19.5445 23.2327 21.0774Z" fill="black"/>
<path opacity="0.2" d="M25.8634 20.9303V41.4319H25.3404V21.1532C25.3404 18.7484 24.8567 16.3683 23.918 14.1543C25.1895 16.1856 25.8637 18.5338 25.8634 20.9303Z" fill="black"/>
</g>
<path d="M25.8635 41.4322H21.9727V20.9362C21.9724 18.5397 22.6466 16.1915 23.9181 14.1602C25.1896 16.1915 25.8638 18.5397 25.8635 20.9362V41.4322Z" stroke="#263238" stroke-linecap="round" stroke-linejoin="round"/>
<path d="M16.4553 41.4322H12.5645V20.9362C12.5642 18.5397 13.2384 16.1915 14.5099 14.1602C15.7814 16.1915 16.4556 18.5397 16.4553 20.9362V41.4322Z" fill="#039AE4"/>
<mask id="mask4_13_10575" style="mask-type:luminance" maskUnits="userSpaceOnUse" x="12" y="14" width="5" height="28">
<path d="M16.4553 41.4322H12.5645V20.9362C12.5642 18.5397 13.2384 16.1915 14.5099 14.1602C15.7814 16.1915 16.4556 18.5397 16.4553 20.9362V41.4322Z" fill="white"/>
</mask>
<g mask="url(#mask4_13_10575)">
<path opacity="0.3" d="M16.4397 20.3398C16.4486 20.5358 16.4553 20.733 16.4553 20.9301V41.4317H12.5645V20.9357C12.5645 20.7386 12.5712 20.5414 12.5801 20.3454L16.4397 20.3398Z" fill="white"/>
<path opacity="0.2" d="M15.9593 17.4046C16.2887 18.5509 16.4557 19.7377 16.4555 20.9304V41.432H15.1943V21.0771C15.1944 20.1745 15.249 19.2728 15.3579 18.3768C15.4325 17.7504 15.5352 17.128 15.6659 16.5098C15.7745 16.8043 15.8731 17.1022 15.9593 17.4046Z" fill="black"/>
<path opacity="0.2" d="M14.5099 14.1543C13.5703 16.368 13.0862 18.7483 13.0864 21.1532V41.4319H12.5645V20.9359C12.5631 18.5375 13.2373 16.1872 14.5099 14.1543Z" fill="black"/>
</g>
<path d="M16.4553 41.4322H12.5645V20.9362C12.5642 18.5397 13.2384 16.1915 14.5099 14.1602C15.7814 16.1915 16.4556 18.5397 16.4553 20.9362V41.4322Z" stroke="#263238" stroke-linecap="round" stroke-linejoin="round"/>
<path d="M25.8502 20.3691H22.0176" stroke="#263238" stroke-linecap="round" stroke-linejoin="round"/>
<path d="M21.9714 24.707H25.8623V24.4158H21.9714V24.707Z" stroke="#263238" stroke-linecap="round" stroke-linejoin="round"/>
<path d="M21.9722 32.9844H25.8496V32.2463H21.9722V32.9844Z" stroke="#263238" stroke-linecap="round" stroke-linejoin="round"/>
<path d="M12.5771 20.3691H16.4109" stroke="#263238" stroke-linecap="round" stroke-linejoin="round"/>
<path d="M16.4553 24.416H12.5645V24.7072H16.4553V24.416Z" stroke="#263238" stroke-linecap="round" stroke-linejoin="round"/>
<path d="M16.4546 32.2441H12.5771V32.9822H16.4546V32.2441Z" stroke="#263238" stroke-linecap="round" stroke-linejoin="round"/>
<path d="M22.0169 41.4328H16.4102V11.8883C16.4089 8.43501 17.3792 5.051 19.2102 2.12305C21.0405 5.05087 22.0107 8.43434 22.0102 11.8872L22.0169 41.4328Z" fill="#039AE4"/>
<mask id="mask5_13_10575" style="mask-type:luminance" maskUnits="userSpaceOnUse" x="16" y="2" width="7" height="40">
<path d="M22.0169 41.4328H16.4102V11.8883C16.4089 8.43501 17.3792 5.051 19.2102 2.12305C21.0405 5.05087 22.0107 8.43434 22.0102 11.8872L22.0169 41.4328Z" fill="white"/>
</mask>
<g mask="url(#mask5_13_10575)">
<path opacity="0.2" d="M21.9642 10.5034H16.4639C16.6876 7.52962 17.6312 4.65483 19.2135 2.12695C20.7967 4.65609 21.7408 7.53248 21.9642 10.5079V10.5034Z" fill="black" fill-opacity="0.7"/>
<g opacity="0.2">
<path d="M20.2316 41.433H18.1943V12.8047C18.1943 9.45812 18.5471 6.17876 19.2135 3.3418C19.8788 6.17876 20.2316 9.45812 20.2316 12.8036V41.433Z" fill="white"/>
</g>
<path opacity="0.2" d="M21.9588 36.6756V41.4322H16.4551V36.689C16.6573 36.4908 16.8383 36.272 16.9949 36.0361V29.5031C16.9949 27.2429 17.8909 25.9941 19.2136 25.9941C20.5364 25.9941 21.4324 27.2429 21.4324 29.5031V36.0361C21.5848 36.2672 21.7612 36.4816 21.9588 36.6756Z" fill="black"/>
</g>
<path d="M22.0169 41.4328H16.4102V11.8883C16.4089 8.43501 17.3792 5.051 19.2102 2.12305C21.0405 5.05087 22.0107 8.43434 22.0102 11.8872L22.0169 41.4328Z" stroke="#263238" stroke-linecap="round" stroke-linejoin="round"/>
<path d="M22.0169 15.3789H16.4102V16.1327H22.0169V15.3789Z" stroke="#263238" stroke-linecap="round" stroke-linejoin="round"/>
<path d="M22.0169 21.9355H16.4102V24.7075H22.0169V21.9355Z" stroke="#263238" stroke-linecap="round" stroke-linejoin="round"/>
<path d="M22.0169 35.0723H16.4102V37.31H22.0169V35.0723Z" stroke="#263238" stroke-linecap="round" stroke-linejoin="round"/>
<path d="M21.2093 36.3243V33.2734H20.5889V40.7293H23.661V39.3371C23.661 39.1607 23.6193 38.9867 23.5393 38.8295C23.4593 38.6722 23.3433 38.5361 23.2007 38.4322L21.7391 37.3659C21.5751 37.2462 21.4416 37.0895 21.3495 36.9085C21.2575 36.7275 21.2095 36.5274 21.2093 36.3243Z" fill="#039AE4" stroke="#263238" stroke-linecap="round" stroke-linejoin="round"/>
<path d="M17.2173 36.3243V33.2734H17.8378V40.7293H14.7656V39.3371C14.7656 39.1607 14.8074 38.9867 14.8873 38.8295C14.9673 38.6722 15.0834 38.5361 15.2259 38.4322L16.6887 37.3659C16.8526 37.2462 16.9859 37.0894 17.0777 36.9084C17.1696 36.7274 17.2174 36.5273 17.2173 36.3243Z" fill="#039AE4" stroke="#263238" stroke-linecap="round" stroke-linejoin="round"/>
<path d="M14.7656 40.0801H23.6618" stroke="#263238" stroke-linecap="round" stroke-linejoin="round"/>
<path d="M20.1947 41.4334H18.2325L17.8965 40.459H20.5307L20.1947 41.4334Z" fill="#039AE4" stroke="#263238" stroke-linecap="round" stroke-linejoin="round"/>
<path d="M21.2186 29.5164V40.7288H17.2314V29.5164C17.233 28.4099 17.6004 27.3349 18.2764 26.4588C18.3886 26.3142 18.5325 26.1971 18.6969 26.1166C18.8613 26.036 19.042 25.9941 19.225 25.9941C19.4081 25.9941 19.5888 26.036 19.7532 26.1166C19.9176 26.1971 20.0615 26.3142 20.1737 26.4588C20.3686 26.7111 20.5389 26.9815 20.6822 27.2664C20.7863 27.471 20.8758 27.6829 20.9498 27.9003C21.1278 28.4205 21.2186 28.9666 21.2186 29.5164Z" fill="white"/>
<mask id="mask6_13_10575" style="mask-type:luminance" maskUnits="userSpaceOnUse" x="17" y="25" width="5" height="16">
<path d="M21.2186 29.5164V40.7288H17.2314V29.5164C17.233 28.4099 17.6004 27.3349 18.2764 26.4588C18.3886 26.3142 18.5325 26.1971 18.6969 26.1166C18.8613 26.036 19.042 25.9941 19.225 25.9941C19.4081 25.9941 19.5888 26.036 19.7532 26.1166C19.9176 26.1971 20.0615 26.3142 20.1737 26.4588C20.3686 26.7111 20.5389 26.9815 20.6822 27.2664C20.7863 27.471 20.8758 27.6829 20.9498 27.9003C21.1278 28.4205 21.2186 28.9666 21.2186 29.5164Z" fill="white"/>
</mask>
<g mask="url(#mask6_13_10575)">
<path opacity="0.3" d="M21.2079 29.5164V40.7288H20.2223V29.8088C20.223 29.281 20.178 28.7541 20.0879 28.234C20.0513 28.0227 20.0065 27.817 19.9535 27.6169C19.8857 27.3504 19.8008 27.0885 19.6993 26.8329C19.5794 26.5305 19.4025 26.3849 19.2255 26.3849C19.0485 26.3849 18.8705 26.5361 18.7506 26.8329C18.6501 27.0889 18.5652 27.3507 18.4964 27.6169C18.3154 28.3334 18.2254 29.0698 18.2287 29.8088V40.7288H17.2207V29.5164C17.2223 28.4099 17.5896 27.3349 18.2657 26.4588C18.3779 26.3142 18.5217 26.1971 18.6861 26.1166C18.8506 26.036 19.0312 25.9941 19.2143 25.9941C19.3974 25.9941 19.5781 26.036 19.7425 26.1166C19.9069 26.1971 20.0507 26.3142 20.1629 26.4588C20.3579 26.7111 20.5281 26.9815 20.6714 27.2664C20.7756 27.471 20.865 27.6829 20.9391 27.9003C21.1171 28.4205 21.2079 28.9666 21.2079 29.5164Z" fill="#039AE4"/>
</g>
<path d="M21.2186 29.5164V40.7288H17.2314V29.5164C17.233 28.4099 17.6004 27.3349 18.2764 26.4588C18.3886 26.3142 18.5325 26.1971 18.6969 26.1166C18.8613 26.036 19.042 25.9941 19.225 25.9941C19.4081 25.9941 19.5888 26.036 19.7532 26.1166C19.9176 26.1971 20.0615 26.3142 20.1737 26.4588C20.3686 26.7111 20.5389 26.9815 20.6822 27.2664C20.7863 27.471 20.8758 27.6829 20.9498 27.9003C21.1278 28.4205 21.2186 28.9666 21.2186 29.5164Z" stroke="#263238" stroke-linecap="round" stroke-linejoin="round"/>
<path d="M20.0483 29.3871C19.7224 28.3947 18.6976 28.3947 18.3683 29.3871L18.001 29.1631C18.4691 27.7373 19.9419 27.7373 20.4112 29.1631L20.0483 29.3871Z" fill="white"/>
<path d="M20.0483 29.3871C19.7224 28.3947 18.6976 28.3947 18.3683 29.3871L18.001 29.1631C18.4691 27.7373 19.9419 27.7373 20.4112 29.1631L20.0483 29.3871Z" fill="#BFBFBF" stroke="#263238" stroke-miterlimit="10"/>
<path d="M20.6708 27.2664H17.7588C17.9021 26.9815 18.0724 26.7111 18.2673 26.4588C18.3795 26.3142 18.5233 26.1971 18.6877 26.1166C18.8522 26.036 19.0328 25.9941 19.2159 25.9941C19.399 25.9941 19.5797 26.036 19.7441 26.1166C19.9085 26.1971 20.0523 26.3142 20.1645 26.4588C20.3587 26.7112 20.5282 26.9816 20.6708 27.2664Z" fill="#039AE4" stroke="#263238" stroke-linecap="round" stroke-linejoin="round"/>
<path d="M35.6712 41.5751C35.716 43.3671 34.8301 43.2203 34.8301 43.2203C34.7365 43.0143 34.624 42.8175 34.4941 42.6323C34.0304 41.9189 33.3203 40.9187 33.5869 40.3263C33.761 39.9727 33.9589 39.6315 34.1793 39.3048C34.6542 38.5768 35.1997 37.841 35.1997 37.841L32.8342 37.449C32.8342 37.449 31.1542 38.1456 29.8203 38.2263H29.7173C28.5032 38.2498 28.6992 37.2978 28.6992 36.9943C28.6992 36.8632 29.0273 36.6235 29.4115 36.3872C29.9592 36.0512 30.6233 35.7208 30.6233 35.7208L30.2638 34.976C30.0571 35.0177 29.8455 35.0291 29.6355 35.0096C28.7149 34.9088 28.8414 34.0016 28.9904 33.6074C29.0329 33.4954 29.2446 33.3229 29.5437 33.1258C30.4901 32.5019 32.3022 31.6328 32.3022 31.6328H34.96L37.5752 38.7717C37.5752 38.7717 35.6275 39.7853 35.6712 41.5751Z" fill="white"/>
<path opacity="0.4" d="M35.6712 41.5751C35.716 43.3671 34.8301 43.2203 34.8301 43.2203C34.7365 43.0143 34.624 42.8175 34.4941 42.6323C34.0304 41.9189 33.3203 40.9187 33.5869 40.3263C33.761 39.9727 33.9589 39.6315 34.1793 39.3048C34.6542 38.5768 35.1997 37.841 35.1997 37.841L32.8342 37.449C32.8342 37.449 31.1542 38.1456 29.8203 38.2263H29.7173C28.5032 38.2498 28.6992 37.2978 28.6992 36.9943C28.6992 36.8632 29.0273 36.6235 29.4115 36.3872C29.9592 36.0512 30.6233 35.7208 30.6233 35.7208L30.2638 34.976C30.0571 35.0177 29.8455 35.0291 29.6355 35.0096C28.7149 34.9088 28.8414 34.0016 28.9904 33.6074C29.0329 33.4954 29.2446 33.3229 29.5437 33.1258C30.4901 32.5019 32.3022 31.6328 32.3022 31.6328H34.96L37.5752 38.7717C37.5752 38.7717 35.6275 39.7853 35.6712 41.5751Z" fill="#039AE4"/>
<path opacity="0.4" d="M35.6708 41.5745C35.7156 43.3665 34.8297 43.2198 34.8297 43.2198C34.7362 43.0138 34.6237 42.8169 34.4937 42.6318C34.5274 42.4603 34.5435 42.2858 34.5419 42.111C34.5307 41.4983 34.0278 40.3257 34.0278 40.3257L34.5419 39.5126C34.4361 39.4195 34.3127 39.3486 34.179 39.3043C34.6539 38.5763 35.1993 37.8404 35.1993 37.8404L32.8339 37.4484C32.8339 37.4484 31.1539 38.1451 29.8199 38.2257H29.7169C29.7942 37.5593 29.531 36.7193 29.4111 36.3833C29.9588 36.0473 30.623 35.7169 30.623 35.7169L30.2635 34.9721C30.0568 35.0138 29.8451 35.0251 29.6351 35.0057C29.7561 34.4244 29.6407 33.618 29.5433 33.1219C30.4897 32.498 32.3019 31.6289 32.3019 31.6289H34.9596L37.5748 38.7678C37.5748 38.7678 35.6271 39.7847 35.6708 41.5745Z" fill="#039AE4"/>
<path d="M34.962 31.6328H32.3042C32.3042 31.6328 29.1682 33.137 28.9924 33.6074C28.8165 34.0778 28.6709 35.2627 30.2658 34.976L30.6253 35.7208C30.6253 35.7208 28.7012 36.6773 28.7012 36.9943C28.7012 37.3112 28.494 38.3058 29.8212 38.2263C31.1484 38.1467 32.8351 37.449 32.8351 37.449L35.2005 37.841C35.2005 37.841 33.9439 39.5367 33.5889 40.3263C33.2338 41.1159 34.6081 42.6245 34.8321 43.2203C34.8321 43.2203 35.718 43.3648 35.6732 41.5751C35.6284 39.7853 37.5772 38.7751 37.5772 38.7751" stroke="#263238" stroke-linecap="round" stroke-linejoin="round"/>
<path d="M34.333 40.0066C34.333 40.0066 34.9994 39.6336 35.3623 40.3258" stroke="#263238" stroke-linecap="round" stroke-linejoin="round"/>
<path d="M35.2342 20.7891H35.4884C35.5243 20.7891 35.5588 20.8033 35.5842 20.8288C35.6096 20.8542 35.6239 20.8886 35.6239 20.9246V26.379H35.0986V20.9246C35.0986 20.9068 35.1021 20.8892 35.1089 20.8727C35.1158 20.8563 35.1257 20.8413 35.1383 20.8288C35.1509 20.8162 35.1658 20.8062 35.1823 20.7994C35.1987 20.7926 35.2164 20.7891 35.2342 20.7891Z" fill="#263238"/>
<path d="M35.5243 14.918H35.1973V21.0567H35.5243V14.918Z" fill="#263238"/>
<path d="M35.574 14.3105H35.1484V15.1427H35.574V14.3105Z" fill="#757575" stroke="#263238" stroke-linecap="round" stroke-linejoin="round"/>
<path opacity="0.3" d="M35.2539 24.9492V25.0601" stroke="white" stroke-linecap="round" stroke-linejoin="round"/>
<path opacity="0.3" d="M35.4701 20.9551H35.2539V24.6836" stroke="white" stroke-linecap="round" stroke-linejoin="round"/>
<path opacity="0.3" d="M35.3398 18.8711V19.0783" stroke="white" stroke-linecap="round" stroke-linejoin="round"/>
<path opacity="0.3" d="M35.3398 15.3281V18.444" stroke="white" stroke-linecap="round" stroke-linejoin="round"/>
<path d="M39.9586 26.0762H30.7646C30.4281 26.0762 30.1553 26.349 30.1553 26.6855V37.6032C30.1553 37.9397 30.4281 38.2125 30.7646 38.2125H39.9586C40.2951 38.2125 40.5679 37.9397 40.5679 37.6032V26.6855C40.5679 26.349 40.2951 26.0762 39.9586 26.0762Z" fill="#757575"/>
<mask id="mask7_13_10575" style="mask-type:luminance" maskUnits="userSpaceOnUse" x="30" y="26" width="11" height="13">
<path d="M39.9586 26.0762H30.7646C30.4281 26.0762 30.1553 26.349 30.1553 26.6855V37.6032C30.1553 37.9397 30.4281 38.2125 30.7646 38.2125H39.9586C40.2951 38.2125 40.5679 37.9397 40.5679 37.6032V26.6855C40.5679 26.349 40.2951 26.0762 39.9586 26.0762Z" fill="white"/>
</mask>
<g mask="url(#mask7_13_10575)">
<path opacity="0.2" d="M30.5312 36.0354V26.8111C30.5311 26.7544 30.5421 26.6982 30.5637 26.6458C30.5853 26.5933 30.6171 26.5456 30.6571 26.5055C30.6972 26.4653 30.7448 26.4335 30.7972 26.4117C30.8495 26.39 30.9057 26.3788 30.9624 26.3788H39.4173C39.4358 26.3789 39.4539 26.3741 39.4699 26.3649C39.4858 26.3556 39.499 26.3422 39.508 26.3261C39.5166 26.3104 39.5209 26.2928 39.5206 26.2749C39.5202 26.257 39.5152 26.2395 39.5061 26.2241C39.4969 26.2088 39.4839 26.1961 39.4683 26.1872C39.4528 26.1784 39.4352 26.1738 39.4173 26.1738H30.8C30.6681 26.1738 30.5417 26.2262 30.4484 26.3195C30.3551 26.4127 30.3027 26.5392 30.3027 26.6711V36.0645C30.3024 36.0859 30.3088 36.1069 30.3211 36.1244C30.3334 36.142 30.3508 36.1552 30.371 36.1623C30.3912 36.1693 30.4131 36.1699 30.4336 36.1638C30.4541 36.1577 30.4722 36.1453 30.4853 36.1284L30.5055 36.1015C30.5219 36.0834 30.531 36.0599 30.5312 36.0354Z" fill="white"/>
<path opacity="0.4" d="M40.5673 26.6852V37.603C40.5673 37.7645 40.5031 37.9195 40.3888 38.0338C40.2746 38.148 40.1196 38.2122 39.958 38.2122H30.7639C30.621 38.2122 30.4826 38.1619 30.373 38.07C30.5295 37.9543 30.7009 37.8605 30.8826 37.7911H34.386H39.7418C39.8607 37.7911 39.9746 37.7439 40.0586 37.6599C40.1426 37.5759 40.1898 37.4619 40.1898 37.3431V26.9081C40.2759 26.7429 40.3895 26.5937 40.5258 26.4668C40.5533 26.5363 40.5674 26.6104 40.5673 26.6852Z" fill="black" fill-opacity="0.7"/>
<path opacity="0.2" d="M40.5671 35.1175V37.6028C40.5671 37.7644 40.5029 37.9194 40.3886 38.0336C40.2744 38.1479 40.1194 38.2121 39.9578 38.2121H34.4497L34.3858 37.7932C34.4306 37.6196 34.3858 36.8535 34.3858 36.8535C34.0319 35.9093 34.3858 34.4925 34.3858 34.4925L36.609 33.1172C36.609 33.1172 38.1076 33.9359 38.3954 34.2372C38.6833 34.5385 38.905 36.438 38.905 36.438C39.2018 36.3674 39.7193 35.9317 40.1908 35.4826C40.3196 35.3617 40.4495 35.2362 40.5671 35.1175Z" fill="black" fill-opacity="0.7"/>
</g>
<path d="M39.9586 26.0762H30.7646C30.4281 26.0762 30.1553 26.349 30.1553 26.6855V37.6032C30.1553 37.9397 30.4281 38.2125 30.7646 38.2125H39.9586C40.2951 38.2125 40.5679 37.9397 40.5679 37.6032V26.6855C40.5679 26.349 40.2951 26.0762 39.9586 26.0762Z" stroke="#263238" stroke-linecap="round" stroke-linejoin="round"/>
<path d="M40.1914 35.9043V36.2369" stroke="#263238" stroke-linecap="round" stroke-linejoin="round"/>
<path d="M34.0303 26.4902H39.7736C39.8844 26.4902 39.9907 26.5342 40.069 26.6126C40.1474 26.6909 40.1914 26.7972 40.1914 26.908V35.4614" stroke="#263238" stroke-linecap="round" stroke-linejoin="round"/>
<path d="M30.5312 28.4122V26.908C30.5312 26.7972 30.5753 26.6909 30.6536 26.6126C30.732 26.5342 30.8382 26.4902 30.949 26.4902H32.7903" stroke="#263238" stroke-linecap="round" stroke-linejoin="round"/>
<path d="M30.5312 29.4324V29.1445" stroke="#263238" stroke-linecap="round" stroke-linejoin="round"/>
<path d="M32.368 37.798H30.949C30.8382 37.798 30.732 37.754 30.6536 37.6757C30.5753 37.5973 30.5312 37.4911 30.5312 37.3803V29.9883" stroke="#263238" stroke-linecap="round" stroke-linejoin="round"/>
<path d="M40.192 37.3809C40.192 37.4917 40.148 37.5979 40.0696 37.6763C39.9913 37.7546 39.885 37.7986 39.7742 37.7986H32.791" stroke="#263238" stroke-linecap="round" stroke-linejoin="round"/>
<path d="M35.3616 35.2252C36.5251 35.2252 37.4683 34.2819 37.4683 33.1184C37.4683 31.9549 36.5251 31.0117 35.3616 31.0117C34.1981 31.0117 33.2549 31.9549 33.2549 33.1184C33.2549 34.2819 34.1981 35.2252 35.3616 35.2252Z" fill="#039AE4"/>
<mask id="mask8_13_10575" style="mask-type:luminance" maskUnits="userSpaceOnUse" x="33" y="31" width="5" height="5">
<path d="M35.3616 35.2252C36.5251 35.2252 37.4683 34.2819 37.4683 33.1184C37.4683 31.9549 36.5251 31.0117 35.3616 31.0117C34.1981 31.0117 33.2549 31.9549 33.2549 33.1184C33.2549 34.2819 34.1981 35.2252 35.3616 35.2252Z" fill="white"/>
</mask>
<g mask="url(#mask8_13_10575)">
<path opacity="0.2" d="M37.4683 33.1198C37.4685 33.5302 37.3487 33.9316 37.1239 34.2749C36.899 34.6181 36.5788 34.8882 36.2025 35.052C35.8263 35.2158 35.4104 35.2662 35.0059 35.1969C34.6015 35.1276 34.2261 34.9417 33.9258 34.6621C33.9995 34.5205 34.103 34.3967 34.2293 34.2992C34.2293 34.2992 35.449 35.343 36.5634 34.2275C37.3978 33.392 36.6754 32.1465 36.6754 32.1465C36.6754 32.1465 36.7874 32.0256 37.1234 31.9707C37.3476 32.3121 37.4675 32.7114 37.4683 33.1198Z" fill="black" fill-opacity="0.7"/>
<path opacity="0.2" d="M34.1264 33.5943C34.1033 33.6041 34.0774 33.6051 34.0536 33.597C34.0299 33.589 34.0099 33.5724 33.9976 33.5506C33.9728 33.5126 33.9578 33.4692 33.9539 33.424C33.8105 32.528 34.2843 31.6813 35.2397 31.6018C35.4177 31.5861 35.8747 31.6018 35.8097 31.893C35.7823 31.9859 35.7217 32.0656 35.6395 32.117C35.3579 32.2958 35.0858 32.4891 34.8241 32.696C34.6949 32.8053 34.5818 32.9324 34.4881 33.0735C34.44 33.1451 34.2787 33.5315 34.1264 33.5943Z" fill="black" fill-opacity="0.7"/>
</g>
<path d="M35.3616 35.2252C36.5251 35.2252 37.4683 34.2819 37.4683 33.1184C37.4683 31.9549 36.5251 31.0117 35.3616 31.0117C34.1981 31.0117 33.2549 31.9549 33.2549 33.1184C33.2549 34.2819 34.1981 35.2252 35.3616 35.2252Z" stroke="#263238" stroke-linecap="round" stroke-linejoin="round"/>
<path d="M33.7256 33.1176C33.7256 32.9028 33.7679 32.6901 33.8502 32.4916C33.9324 32.2931 34.053 32.1128 34.2049 31.961C34.3569 31.8091 34.5373 31.6887 34.7358 31.6066C34.9343 31.5245 35.1471 31.4823 35.3619 31.4824" stroke="#263238" stroke-linecap="round" stroke-linejoin="round"/>
<path d="M34.9346 34.6961C34.6424 34.6171 34.3778 34.4585 34.1704 34.238C33.963 34.0175 33.8208 33.7438 33.7598 33.4473" stroke="#263238" stroke-linecap="round" stroke-linejoin="round"/>
<path d="M36.4084 31.8613C36.6667 32.0764 36.8524 32.3658 36.9403 32.6902C37.0283 33.0146 37.0141 33.3582 36.8998 33.6742C36.7855 33.9902 36.5765 34.2634 36.3014 34.4565C36.0263 34.6495 35.6984 34.7531 35.3623 34.7532" stroke="#263238" stroke-linecap="round" stroke-linejoin="round"/>
<path d="M35.6914 31.5156C35.827 31.5433 35.9584 31.5885 36.0823 31.65" stroke="#263238" stroke-linecap="round" stroke-linejoin="round"/>
<path d="M33.8592 28.3613C34.0765 28.3613 34.1885 28.4912 34.1885 28.7175V28.7623H33.9779V28.704C33.9779 28.6021 33.9365 28.564 33.8659 28.564C33.7953 28.564 33.7539 28.6021 33.7539 28.704C33.7539 28.806 33.7987 28.8844 33.9454 29.012C34.1313 29.1767 34.1907 29.2943 34.1907 29.46C34.1907 29.684 34.0787 29.8162 33.8547 29.8162C33.6307 29.8162 33.5187 29.6863 33.5187 29.46V29.3727H33.7293V29.4735C33.7293 29.5754 33.7741 29.6112 33.8413 29.6112C33.9085 29.6112 33.9533 29.5754 33.9533 29.4735C33.9533 29.3716 33.9096 29.2932 33.7629 29.1655C33.5769 29.0008 33.5176 28.8832 33.5176 28.7175C33.531 28.4912 33.643 28.3613 33.8592 28.3613Z" fill="white"/>
<path d="M34.2531 28.377H34.9441V28.5797H34.7089V29.7926H34.4849V28.5797H34.252L34.2531 28.377Z" fill="white"/>
<path d="M35.6848 29.7932H35.4608L35.4227 29.5356H35.1483L35.1102 29.7932H34.9053L35.1293 28.373H35.4552L35.6848 29.7932ZM35.1763 29.3452H35.3925L35.2872 28.6273L35.1763 29.3452Z" fill="white"/>
<path d="M36.2551 29.7926C36.2367 29.7363 36.2298 29.6769 36.235 29.6179V29.3939C36.235 29.2618 36.1902 29.2136 36.0894 29.2136H36.0121V29.7926H35.7881V28.377H36.1241C36.3559 28.377 36.4601 28.489 36.4601 28.704V28.816C36.468 28.8731 36.4581 28.9312 36.4319 28.9824C36.4056 29.0337 36.3643 29.0757 36.3134 29.1027C36.4254 29.1498 36.4612 29.255 36.4612 29.4029V29.6269C36.4571 29.6855 36.4655 29.7442 36.4858 29.7994L36.2551 29.7926ZM36.0121 28.5752V29.012H36.0994C36.1823 29.012 36.2327 28.975 36.2327 28.8619V28.7219C36.2327 28.62 36.1991 28.5752 36.1207 28.5752H36.0121Z" fill="white"/>
<path d="M36.5392 28.377H37.2291V28.5797H36.995V29.7926H36.771V28.5797H36.5381L36.5392 28.377Z" fill="white"/>
<path d="M41.83 29.4199C41.83 29.4199 40.944 29.6943 40.6338 30.4638" stroke="#263238" stroke-linecap="round" stroke-linejoin="round"/>
<path d="M45.8461 53.8316C45.7464 52.1192 45.6814 50.3697 45.5963 48.9619C45.4193 46.042 45.2861 44.0831 45.0206 42.0896C44.7552 40.096 44.7966 37.0843 44.6656 36.0326C44.5345 34.9809 44.1369 34.758 43.8245 33.5081C43.512 32.2582 43.2297 29.7696 42.7168 29.4201C42.2038 29.0707 40.6336 28.4121 40.6336 28.4121V35.4614C39.7029 36.8916 38.5952 37.2456 38.5952 37.2456C37.8862 35.1937 37.9758 34.3795 37.2669 33.6257C36.5579 32.8719 36.0472 31.8875 34.9339 32.2996C34.4041 32.4956 34.1208 32.695 34.3862 34.4926C34.6517 36.2902 35.1837 36.8535 35.1837 36.8535C35.2721 37.4673 35.14 39.2526 34.9182 40.1665C34.6965 41.0804 35.5387 43.5063 35.9374 45.0576C36.3361 46.6087 38.463 49.7503 38.463 49.7503C38.5108 50.9337 38.4812 52.119 38.3745 53.2985C38.3577 53.4654 38.3376 53.6435 38.3141 53.8305C38.3141 53.8305 39.2918 55.3369 40.3379 55.3369C44.2669 55.338 45.8461 53.8316 45.8461 53.8316Z" fill="white"/>
<path opacity="0.4" d="M34.5448 32.829C34.5858 32.7265 34.5858 32.6122 34.5448 32.5098C34.6595 32.4147 34.792 32.3435 34.9346 32.3003C36.0478 31.8882 36.5586 32.8738 37.2675 33.6264C37.3313 33.6939 37.3908 33.7653 37.4456 33.8403C36.8038 33.5984 35.9627 33.6029 35.6245 34.0722C35.1989 34.6602 34.332 33.6006 34.5448 32.829Z" fill="#039AE4"/>
<path opacity="0.4" d="M39.3525 52.1011L39.703 53.4149C39.703 53.4149 39.2091 52.931 38.471 51.7573C38.5069 50.6115 38.4632 49.7502 38.4632 49.7502C38.4632 49.7502 36.3352 46.6075 35.9376 45.0574C35.54 43.5074 34.6966 41.0792 34.9184 40.1664C35.1402 39.2536 35.2723 37.4672 35.1838 36.8534C35.0797 36.7255 34.9931 36.5842 34.9262 36.4334C35.018 36.3382 35.1343 36.27 35.2622 36.2363C35.6304 37.2329 35.7775 38.2976 35.6934 39.3566C35.5557 41.1285 35.8592 41.2763 36.4461 43.5802C37.033 45.884 38.0074 48.4925 38.4621 48.9562C38.9168 49.4198 39.1195 51.5366 39.3525 52.1011Z" fill="#039AE4"/>
<path opacity="0.4" d="M40.1919 36.5792C40.1919 36.5792 40.8908 36.6911 41.1719 36.8535C41.1719 36.8535 39.8077 37.2097 39.7159 37.5894C39.6241 37.9691 39.3351 38.3633 38.8199 37.8996C38.8199 37.8996 38.793 37.6096 38.7393 37.1884C39.0685 37.0417 39.9052 36.5814 40.6343 35.4614V28.4121C40.6343 28.4121 41.4093 28.7369 42.0489 29.0505C41.5751 29.1132 41.0901 29.2588 40.9009 29.5792C40.9624 29.7753 41.0655 29.9558 41.2031 30.1085C41.3407 30.2612 41.5096 30.3824 41.6983 30.464C42.2023 30.688 41.6983 34.4959 41.6983 34.4959C41.6983 34.4959 42.5249 34.6998 42.7903 35.4647C42.7903 35.4647 41.4317 35.6036 40.8706 36.0348C40.3095 36.466 40.1919 36.5792 40.1919 36.5792Z" fill="#039AE4"/>
<path opacity="0.4" d="M45.5967 48.9604C45.6661 50.1005 45.721 51.4647 45.7916 52.8524C45.6168 50.2148 45.0871 45.6844 45.0871 45.6844C45.0871 45.6844 44.6133 47.3588 44.5775 47.1807C44.4722 46.6565 44.8015 43.6941 44.7701 42.6391C44.7567 42.1608 44.7914 40.9344 44.834 39.7383C44.872 40.5604 44.9269 41.3847 45.021 42.0903C45.2864 44.0816 45.4197 46.0405 45.5967 48.9604Z" fill="#039AE4"/>
<path d="M45.8461 53.8316C45.7464 52.1192 45.6814 50.3697 45.5963 48.9619C45.4193 46.042 45.2861 44.0832 45.0206 42.0896C44.7552 40.096 44.7966 37.0843 44.6656 36.0326C44.5345 34.9809 44.1369 34.758 43.8245 33.5081C43.512 32.2582 43.2297 29.7696 42.7168 29.4201C42.2038 29.0707 40.6336 28.4121 40.6336 28.4121V35.4614C39.7029 36.8916 38.5952 37.2456 38.5952 37.2456C37.8862 35.1937 37.9758 34.3795 37.2669 33.6257C36.5579 32.8719 36.0472 31.8875 34.9339 32.2996C34.4041 32.4956 34.1208 32.695 34.3862 34.4926C34.6517 36.2902 35.1837 36.8536 35.1837 36.8536C35.2721 37.4673 35.14 39.2526 34.9182 40.1665C34.6965 41.0804 35.5387 43.5064 35.9374 45.0576C36.3361 46.6088 38.463 49.7504 38.463 49.7504C38.5108 50.9337 38.4812 52.119 38.3745 53.2985C38.3577 53.4654 38.3376 53.6435 38.3141 53.8305" stroke="#263238" stroke-linecap="round" stroke-linejoin="round"/>
<path d="M38.5957 37.2461C38.5957 37.2461 38.8197 38.2339 39.261 38.4557C39.7023 38.6775 40.3418 38.4557 40.3418 38.4557" stroke="#263238" stroke-linecap="round" stroke-linejoin="round"/>
<path d="M40.6338 35.462C40.6338 35.462 41.0818 34.4764 42.4952 35.331" stroke="#263238" stroke-linecap="round" stroke-linejoin="round"/>
<path d="M40.6338 31.4833C40.6338 31.4833 40.7223 30.9603 41.4536 30.8281" stroke="#263238" stroke-linecap="round" stroke-linejoin="round"/>
<path d="M38.4629 49.75C39.304 50.8174 39.1439 51.8354 39.4709 52.3674C39.7979 52.8994 39.7498 54.8046 39.7498 54.8046" stroke="#263238" stroke-linecap="round" stroke-linejoin="round"/>
<path d="M44.5759 39.5137V43.2209C44.5642 44.2833 44.4604 45.3427 44.2656 46.3871" stroke="#263238" stroke-linecap="round" stroke-linejoin="round"/>
<path d="M35.1836 36.8533C35.1836 36.8533 35.1836 36.2205 35.3617 36.0312" stroke="#263238" stroke-linecap="round" stroke-linejoin="round"/>
<path d="M35.6709 34.8632C35.6709 34.8632 36.064 33.5416 37.2154 34.1184" stroke="#263238" stroke-linecap="round" stroke-linejoin="round"/>
<path d="M39.2217 36.918C40.0774 36.937 40.9442 36.5573 41.4538 37.0188" stroke="#263238" stroke-linecap="round" stroke-linejoin="round"/>
</svg>
