<svg width="56" height="56" viewBox="0 0 56 56" fill="none" xmlns="http://www.w3.org/2000/svg">
<path d="M41.2829 2.76679L38.0069 4.40983C37.8869 4.46083 37.7846 4.54601 37.7127 4.65475C37.6408 4.76349 37.6025 4.89099 37.6026 5.02135V6.55351C37.5996 7.94639 38.0058 9.30946 38.7707 10.4735C39.361 11.3695 40.1438 12.522 41.4464 13.1794H42.0333C43.4837 12.7314 44.5656 11.5588 45.2264 10.5508C45.9912 9.38668 46.3974 8.02365 46.3946 6.63079V5.02135C46.3946 4.89115 46.3564 4.76381 46.2847 4.6551C46.213 4.5464 46.111 4.46112 45.9914 4.40983L42.2595 2.81943C42.0926 2.74887 41.4486 2.69623 41.2829 2.76679Z" fill="#E0E0E0"/>
<path d="M41.1508 2.81911L37.419 4.40951C37.299 4.46051 37.1967 4.54569 37.1248 4.65443C37.0529 4.76317 37.0146 4.89066 37.0146 5.02103V6.55318C37.0147 7.97264 37.4359 9.36018 38.2248 10.5402C39.0137 11.7203 40.1349 12.6398 41.4465 13.1825C42.8958 12.7345 43.9777 11.5618 44.6396 10.5538C45.4045 9.38853 45.8107 8.02439 45.8078 6.63047V5.02103C45.8078 4.89066 45.7695 4.76317 45.6976 4.65443C45.6257 4.54569 45.5234 4.46051 45.4035 4.40951L41.6716 2.81911C41.5892 2.78445 41.5006 2.7666 41.4112 2.7666C41.3218 2.7666 41.2333 2.78445 41.1508 2.81911Z" fill="#F5F5F5"/>
<path d="M45.7953 6.21484C45.8004 6.23801 45.8026 6.2617 45.802 6.2854C45.802 6.33804 45.8076 6.40524 45.811 6.48812C45.8143 6.571 45.8199 6.68412 45.811 6.80956C45.802 6.935 45.811 7.07836 45.7908 7.23516C45.7707 7.39196 45.7651 7.57116 45.7326 7.74924C45.718 7.84108 45.7068 7.93628 45.6878 8.03372C45.6687 8.13116 45.6452 8.22972 45.6239 8.33164C45.5207 8.77384 45.3763 9.20543 45.1927 9.62076C45.0041 10.0341 44.7792 10.4298 44.5207 10.8035C44.3964 10.9715 44.2811 11.1395 44.1579 11.2728C44.0974 11.3433 44.0459 11.415 43.9843 11.4777L43.814 11.658C43.7076 11.77 43.599 11.8686 43.5083 11.956C43.4175 12.0433 43.3347 12.1116 43.2663 12.1665L43.1196 12.2942C43.1022 12.3101 43.083 12.324 43.0625 12.3356C43.0774 12.3171 43.0943 12.3002 43.1129 12.2852L43.2641 12.1497C43.3302 12.0926 43.4108 12.0209 43.4982 11.9257C43.5855 11.8305 43.6931 11.7432 43.7961 11.6244L43.963 11.4419C44.0201 11.3792 44.075 11.3075 44.1332 11.2369C44.2542 11.0969 44.3662 10.9345 44.4883 10.7665C44.7418 10.3946 44.9629 10.0015 45.1491 9.59164C45.3305 9.17935 45.4748 8.75168 45.5803 8.31372L45.6463 8.01804C45.6665 7.92172 45.6788 7.82652 45.6945 7.7358C45.7281 7.55436 45.7415 7.383 45.7583 7.2262C45.7751 7.0694 45.7774 6.92828 45.7863 6.80284C45.7953 6.6774 45.7942 6.571 45.7942 6.48252C45.7942 6.39404 45.7942 6.33244 45.7942 6.2798C45.7923 6.25817 45.7927 6.2364 45.7953 6.21484Z" fill="#E0E0E0"/>
<path d="M41.1325 9.54602L38.9922 7.84474L39.5858 7.0977L41.0216 8.23898L43.1183 5.89258L43.8295 6.52874L41.1325 9.54602Z" fill="white"/>
<path d="M51.2442 11.1508H50.8388V8.94556C50.8388 8.69605 50.7397 8.45675 50.5632 8.28032C50.3868 8.10388 50.1475 8.00476 49.898 8.00476C49.6485 8.00476 49.4092 8.10388 49.2328 8.28032C49.0563 8.45675 48.9572 8.69605 48.9572 8.94556V11.1508H48.5518V8.94556C48.5518 8.58911 48.6934 8.24726 48.9454 7.99521C49.1975 7.74316 49.5393 7.60156 49.8958 7.60156C50.2522 7.60156 50.5941 7.74316 50.8461 7.99521C51.0982 8.24726 51.2398 8.58911 51.2398 8.94556L51.2442 11.1508Z" fill="#EBEBEB"/>
<path d="M51.3667 9.65527H48.4289C48.2384 9.65527 48.084 9.80972 48.084 10.0002V12.154C48.084 12.3445 48.2384 12.499 48.4289 12.499H51.3667C51.5572 12.499 51.7117 12.3445 51.7117 12.154V10.0002C51.7117 9.80972 51.5572 9.65527 51.3667 9.65527Z" fill="#EBEBEB"/>
<path d="M50.176 11.1502C50.212 11.1136 50.2405 11.0702 50.2597 11.0225C50.2789 10.9748 50.2885 10.9238 50.288 10.8724C50.2885 10.7979 50.2682 10.7247 50.2293 10.6611C50.1905 10.5975 50.1346 10.5461 50.0681 10.5125C50.0015 10.479 49.927 10.4647 49.8527 10.4713C49.7785 10.4779 49.7076 10.5051 49.648 10.5499C49.5884 10.5946 49.5425 10.6551 49.5155 10.7246C49.4885 10.794 49.4814 10.8697 49.4951 10.9429C49.5087 11.0162 49.5426 11.0842 49.5929 11.1392C49.6431 11.1942 49.7078 11.2341 49.7795 11.2544L49.6944 11.6329H50.074L49.9979 11.2544C50.0642 11.2354 50.1244 11.1995 50.1726 11.1502" fill="#FAFAFA"/>
<path d="M5.20008 43.338C4.7651 43.0658 4.27354 42.8968 3.76312 42.8441C3.52792 42.8194 3.27144 42.8261 3.08328 42.9684C3.06144 42.9809 3.04336 42.999 3.03094 43.0209C3.01852 43.0427 3.01223 43.0675 3.01272 43.0927C3.0242 43.1282 3.04804 43.1584 3.07992 43.1778C3.38503 43.3955 3.74391 43.5255 4.11765 43.5538C4.49139 43.582 4.86573 43.5074 5.20008 43.338Z" fill="#E0E0E0"/>
<path d="M5.16272 43.2974C4.83002 43.0528 4.51935 42.7796 4.23424 42.4809C3.94855 42.18 3.74795 41.8085 3.65296 41.4046C3.63405 41.3447 3.62836 41.2815 3.63628 41.2192C3.64421 41.157 3.66557 41.0971 3.69888 41.0439C4.43808 41.6219 5.01936 42.37 5.16272 43.2974Z" fill="#E0E0E0"/>
<path d="M5.19248 43.3322C5.12431 42.9279 5.13039 42.5146 5.2104 42.1125C5.29265 41.7071 5.52407 41.3474 5.85888 41.1045C5.98656 41.4035 5.93168 41.7485 5.84208 42.0599C5.70282 42.5437 5.48528 43.0015 5.19808 43.4151" fill="#E0E0E0"/>
<path d="M5.91763 44.6328C5.48229 44.7032 5.07957 44.9071 4.76515 45.2163C4.43444 45.5168 4.20414 45.9117 4.10547 46.3475C4.53779 46.3207 4.90403 46.0115 5.16947 45.6755C5.43491 45.3395 5.61747 44.9599 5.91203 44.6407" fill="#E0E0E0"/>
<path d="M6.07574 44.8394C5.90236 44.3994 5.84156 43.9231 5.89886 43.4537C5.95617 42.9843 6.12976 42.5367 6.4039 42.1514C6.65478 43.0474 6.56182 44.0554 6.07574 44.8394Z" fill="#E0E0E0"/>
<path d="M7.03308 45.9813C6.63058 45.9569 6.22977 46.0512 5.88036 46.2525C5.53095 46.4538 5.2483 46.7532 5.06748 47.1136C5.04396 47.1618 5.02156 47.2256 5.05516 47.2671C5.07201 47.2836 5.09268 47.2958 5.11535 47.3024C5.13801 47.3091 5.16197 47.31 5.18508 47.3051C5.5726 47.2805 5.91532 47.0476 6.19868 46.7821C6.48204 46.5167 6.72957 46.2098 7.04205 45.9802" fill="#E0E0E0"/>
<path d="M7.00269 45.92C6.79633 45.2557 6.78351 44.5463 6.96573 43.8749C7.03853 43.6117 7.15949 43.3351 7.40253 43.2119C7.41227 43.2053 7.42327 43.2008 7.43484 43.1987C7.4464 43.1965 7.45828 43.1968 7.46973 43.1995C7.48938 43.21 7.50423 43.2277 7.51117 43.2488C7.59332 43.4326 7.62872 43.6338 7.61421 43.8346C7.59984 44.035 7.56913 44.2339 7.52237 44.4293C7.44621 44.7922 7.41037 45.1819 7.20541 45.4955C7.15862 45.571 7.11636 45.6492 7.07885 45.7296C7.04189 45.8091 7.04189 45.8416 7.00717 45.8999" fill="#E0E0E0"/>
<path d="M9.53972 46.2967C9.45445 45.9234 9.45166 45.536 9.53155 45.1615C9.61144 44.787 9.77209 44.4344 10.0023 44.1284C10.0348 44.0847 10.0784 44.0388 10.1333 44.0433C10.2162 44.0511 10.2375 44.162 10.2341 44.2449C10.1998 44.9801 9.95912 45.6908 9.53972 46.2956" fill="#E0E0E0"/>
<path d="M9.76855 46.4535C10.2124 46.5582 10.6736 46.5654 11.1205 46.4745C11.5674 46.3836 11.9892 46.1968 12.3569 45.9271C11.9238 45.7093 11.4285 45.6487 10.9558 45.7557C10.4876 45.8677 10.0598 46.0715 9.76855 46.4535Z" fill="#E0E0E0"/>
<path d="M9.96094 45.9777C10.4481 45.1847 11.3811 44.6673 12.3129 44.6191C12.2009 44.9977 11.8952 45.2911 11.5446 45.4692C11.1853 45.6304 10.8053 45.7412 10.4157 45.7985C10.2656 45.8276 10.0595 45.8601 9.96766 45.9777" fill="#E0E0E0"/>
<path d="M9.58816 43.6667C9.73589 43.2199 9.83649 42.759 9.88832 42.2913C9.94038 41.8207 9.84488 41.3456 9.61504 40.9316C9.16032 41.8108 9.1144 42.8356 9.57472 43.7148" fill="#E0E0E0"/>
<path d="M11.1182 42.8965C11.6502 41.9311 12.7343 41.1594 13.8308 41.0508C13.4074 42.1047 12.2538 42.9189 11.1182 42.8965Z" fill="#E0E0E0"/>
<path d="M10.7842 43.0839C11.576 43.2049 12.2514 43.7111 12.9917 44.018C13.1472 44.0924 13.3193 44.1252 13.4912 44.1132C13.5711 44.1122 13.6487 44.0867 13.7137 44.0402C13.7787 43.9937 13.8278 43.9284 13.8545 43.8531C13.8812 43.7778 13.8843 43.6961 13.8632 43.6191C13.8421 43.542 13.7979 43.4733 13.7365 43.4221C13.6317 43.324 13.5083 43.2478 13.3736 43.1981C12.5672 42.8621 11.7015 42.8543 10.8525 43.0581" fill="#E0E0E0"/>
<path d="M10.3252 43.6394C10.5044 43.6909 10.566 43.7839 10.7082 43.9048C11.1941 44.3177 11.7692 44.6121 12.3882 44.765C12.4521 44.7807 12.5361 44.7874 12.5686 44.7303C12.601 44.6731 12.5607 44.6183 12.5249 44.5735C12.2568 44.258 11.9085 44.0208 11.5169 43.8869C11.1305 43.7424 10.7956 43.5688 10.3342 43.6069" fill="#E0E0E0"/>
<path d="M9.80762 40.2827C10.1327 40.5823 10.5168 40.8107 10.9354 40.953C11.354 41.0954 11.7977 41.1486 12.238 41.1092C12.2789 41.1105 12.3189 41.0966 12.35 41.07C12.4116 41.0028 12.3377 40.8998 12.2671 40.846C11.5526 40.286 10.6868 40.062 9.80986 40.286" fill="#E0E0E0"/>
<path d="M10.4219 40.0569C10.8521 39.7405 11.351 39.5303 11.8779 39.4435C12.4048 39.3567 12.9448 39.3957 13.4537 39.5573C13.0569 39.9248 12.548 40.148 12.0089 40.1913C11.4761 40.2402 10.9389 40.1947 10.4219 40.0569Z" fill="#E0E0E0"/>
<path d="M10.1775 38.5145C10.108 37.8011 10.1528 37.2388 10.1036 36.522C10.1036 36.4649 10.0879 36.3966 10.0341 36.3753C9.95908 36.3473 9.89748 36.438 9.87284 36.5142C9.76889 36.8463 9.7422 37.1977 9.7948 37.5417C9.84741 37.8856 9.97791 38.213 10.1764 38.4988" fill="#E0E0E0"/>
<path d="M10.126 38.5937C10.5937 38.2937 10.997 37.9034 11.3121 37.4457C11.545 37.1265 11.7421 36.7445 11.6895 36.3525C11.5252 36.3569 11.3638 36.397 11.2166 36.4701C11.0694 36.5432 10.9399 36.6476 10.8372 36.7759C10.6338 37.0341 10.4858 37.3315 10.4026 37.6495C10.3085 37.9631 10.2425 38.2857 10.1305 38.5937" fill="#E0E0E0"/>
<path d="M11.2874 38.2709C12.3525 37.8779 13.3387 37.2976 14.1994 36.5573C13.8522 36.4173 13.4546 36.5013 13.1074 36.6413C12.3192 36.9398 11.668 37.5173 11.2773 38.2642" fill="#E0E0E0"/>
<path d="M10.4531 38.9845C10.9882 39.0605 11.5312 39.0631 12.067 38.9924C12.5901 38.905 13.0851 38.6967 13.5734 38.4917C13.6162 38.479 13.6528 38.4511 13.6765 38.4133C13.6839 38.3906 13.6843 38.3662 13.6777 38.3433C13.6711 38.3203 13.6578 38.2999 13.6395 38.2845C13.6017 38.2549 13.5577 38.2342 13.5107 38.2241C12.9787 38.0762 12.4053 38.1457 11.8822 38.3215C11.3841 38.4921 10.9051 38.7144 10.4531 38.9845Z" fill="#E0E0E0"/>
<path d="M7.39156 40.3066C7.02532 39.5674 7.05556 38.705 7.3658 37.9434C7.5898 38.2794 7.61556 38.7139 7.57524 39.1182C7.53492 39.5226 7.41172 39.937 7.40276 40.3424" fill="#E0E0E0"/>
<path d="M5.92586 39.5687C5.46757 39.5625 5.01306 39.6522 4.59145 39.832C4.16984 40.0117 3.79043 40.2776 3.47754 40.6125C3.94039 40.668 4.40919 40.5813 4.82154 40.3639C5.22976 40.1471 5.6148 39.8893 5.97066 39.5944" fill="#E0E0E0"/>
<path d="M4.94237 39.2398C4.49437 39.204 4.06541 39.1491 3.63533 39.2801C3.41833 39.3412 3.21706 39.4484 3.04524 39.5943C2.87341 39.7402 2.73507 39.9215 2.63965 40.1257C3.06147 40.1595 3.48463 40.0795 3.86493 39.8939C4.24298 39.7086 4.60358 39.4897 4.94237 39.2398Z" fill="#E0E0E0"/>
<path d="M6.39814 39.2556C5.99606 38.9924 5.58278 38.7236 5.11462 38.6138C4.64646 38.5041 4.10662 38.5858 3.77734 38.9386C4.1559 39.1626 4.61622 39.1873 5.05638 39.1873C5.49654 39.1873 6.03414 39.1817 6.44854 39.3284" fill="#E0E0E0"/>
<path d="M6.40037 39.277C5.71269 38.605 5.45285 37.3887 5.72837 36.4658C6.27101 37.2969 6.50851 38.2904 6.40037 39.277Z" fill="#E0E0E0"/>
<path d="M8.28809 37.3631C8.41801 37.0607 8.51209 36.7449 8.62409 36.438C8.73012 36.1266 8.89304 35.8376 9.10457 35.5857C9.31886 35.3303 9.62499 35.1694 9.95689 35.1377C9.85087 35.6029 9.64913 36.0409 9.36452 36.4239C9.0799 36.8069 8.71865 37.1263 8.30377 37.362" fill="#E0E0E0"/>
<path d="M7.95141 37.7624C7.73749 37.4667 7.48885 37.0658 7.19765 36.8451C6.90645 36.6245 6.52565 36.4912 6.17285 36.5752C6.35684 36.8975 6.61333 37.1726 6.92203 37.3787C7.23073 37.5847 7.58315 37.7161 7.95141 37.7624Z" fill="#E0E0E0"/>
<path d="M8.01784 37.3886C7.86539 37.036 7.75269 36.6675 7.68184 36.2899C7.61146 35.9078 7.67224 35.5131 7.85432 35.1699C8.23176 35.8834 8.35384 36.6494 8.04136 37.3942" fill="#E0E0E0"/>
<path d="M8.2959 35.1684C8.50982 34.4617 9.15718 33.9364 9.85718 33.7012C9.94363 33.6657 10.0374 33.6519 10.1305 33.6609C10.177 33.6657 10.221 33.6842 10.2569 33.7142C10.2928 33.7441 10.319 33.784 10.3321 33.8289C10.3578 33.9487 10.2581 34.0529 10.1641 34.1369C9.61769 34.6038 8.98209 34.9547 8.2959 35.1684Z" fill="#E0E0E0"/>
<path d="M8.30319 34.5936C8.33007 34.1366 8.35807 33.6741 8.50703 33.2417C8.65599 32.8094 8.94159 32.4051 9.35711 32.2158C9.42767 32.6761 9.22495 33.1342 8.97967 33.5307C8.73439 33.9272 8.43871 34.3013 8.29199 34.7437" fill="#E0E0E0"/>
<path d="M8.28814 34.9074C8.11118 34.3922 8.09327 33.737 7.78414 33.2879C7.56798 32.9743 7.22415 32.7604 7.03711 32.4277C6.92479 32.7467 6.94044 33.0967 7.08079 33.4044C7.2212 33.7086 7.41461 33.9855 7.65198 34.222C7.87598 34.4661 8.07534 34.6498 8.28814 34.9074Z" fill="#E0E0E0"/>
<path d="M8.29551 50.0893C8.28207 50.0893 8.26975 46.6509 8.26863 42.4095C8.26751 38.168 8.27871 34.7285 8.29215 34.7285C8.30559 34.7285 8.31791 38.1658 8.31903 42.4095C8.32015 46.6532 8.30895 50.0893 8.29551 50.0893Z" fill="#E0E0E0"/>
<path d="M11.3008 39.7871C11.2597 39.808 11.2165 39.8245 11.172 39.8364L10.8158 39.9562C10.5157 40.0582 10.1035 40.206 9.65662 40.3897C9.20974 40.5733 8.79534 40.7335 8.5579 40.9396C8.46169 41.0184 8.38502 41.1185 8.3339 41.2319C8.29918 41.3126 8.29358 41.3618 8.2891 41.3618C8.28462 41.3618 8.2891 41.3484 8.2891 41.3249C8.29479 41.291 8.30341 41.2576 8.31486 41.2252C8.35971 41.1052 8.4336 40.9983 8.5299 40.9138C8.67356 40.7924 8.83432 40.6927 9.00702 40.6182C9.19742 40.5286 9.4091 40.4356 9.6331 40.3437C10.0811 40.1601 10.4966 40.0167 10.8001 39.9226C10.9525 39.8756 11.0757 39.8409 11.1619 39.8174C11.2071 39.8029 11.2536 39.7928 11.3008 39.7871Z" fill="#E0E0E0"/>
<path d="M12.2864 37.3682C12.2758 37.3825 12.2634 37.3953 12.2494 37.4062L12.1374 37.5104L11.7252 37.8845L10.3544 39.1053C9.81899 39.5824 9.35643 40.0371 9.03611 40.3798C8.87483 40.5512 8.74827 40.6934 8.66203 40.792L8.56235 40.904C8.55194 40.9181 8.53948 40.9306 8.52539 40.941C8.53375 40.9253 8.54389 40.9106 8.55563 40.8973C8.57579 40.8693 8.60603 40.8278 8.64747 40.7774C8.72923 40.6744 8.85243 40.5288 9.01035 40.3541C9.42404 39.9019 9.86146 39.4719 10.3208 39.0661C10.8584 38.5912 11.3467 38.1634 11.7017 37.8565C11.8764 37.7064 12.0198 37.5843 12.124 37.4936L12.236 37.3973C12.2513 37.3853 12.2683 37.3755 12.2864 37.3682Z" fill="#E0E0E0"/>
<path d="M9.77863 39.59C9.76407 39.5833 9.87607 39.3257 9.98807 38.9986C10.1001 38.6716 10.1527 38.3972 10.1673 38.3994C10.1557 38.61 10.1111 38.8175 10.0351 39.0143C9.987 39.1539 9.93129 39.2907 9.86823 39.4242C9.84572 39.4832 9.8156 39.5389 9.77863 39.59Z" fill="#E0E0E0"/>
<path d="M8.29883 41.6712C8.26744 41.6429 8.23961 41.611 8.21595 41.576L8.00427 41.305C7.82731 41.0754 7.58203 40.7584 7.30651 40.409C7.03099 40.0595 6.77899 39.7515 6.59531 39.5264L6.38363 39.2621C6.35529 39.2307 6.33016 39.1965 6.30859 39.1602C6.34129 39.1871 6.3713 39.2171 6.39819 39.2498C6.45307 39.3091 6.53147 39.3976 6.62219 39.5074C6.81259 39.7314 7.07019 40.0338 7.34571 40.381C7.62123 40.7282 7.86203 41.053 8.03227 41.2837C8.11851 41.3957 8.18571 41.4976 8.23163 41.5648C8.25759 41.5979 8.28011 41.6335 8.29883 41.6712Z" fill="#E0E0E0"/>
<path d="M7.63888 40.8258C7.50609 40.6789 7.41147 40.5016 7.36336 40.3095C7.31096 40.1407 7.28971 39.9639 7.30064 39.7875H7.32304C7.31998 39.8089 7.31275 39.8294 7.30176 39.848C7.30176 39.848 7.30176 39.8245 7.30176 39.7842H7.32416C7.33463 39.956 7.36392 40.1261 7.41152 40.2915C7.47433 40.4749 7.55032 40.6534 7.63888 40.8258Z" fill="#E0E0E0"/>
<path d="M6.78955 39.76C6.72997 39.7153 6.66531 39.6777 6.59691 39.648C6.42355 39.5958 6.24099 39.5812 6.06155 39.6055C5.87983 39.6187 5.69959 39.6476 5.52283 39.6917C5.44937 39.7144 5.37456 39.7323 5.29883 39.7455C5.36422 39.7052 5.4357 39.6757 5.51051 39.6581C5.68783 39.6032 5.87082 39.5687 6.05595 39.5551C6.24173 39.5304 6.43072 39.5508 6.60699 39.6144C6.68287 39.6404 6.7474 39.6918 6.78955 39.76Z" fill="#E0E0E0"/>
<path d="M6.58728 39.4957C6.58728 39.5035 6.47528 39.4509 6.2916 39.3837C5.81295 39.2208 5.30075 39.1823 4.80312 39.2717C4.61272 39.3053 4.49848 39.3411 4.49512 39.3333C4.5192 39.3178 4.5457 39.3065 4.57352 39.2997C4.64676 39.274 4.72159 39.2531 4.79752 39.237C5.04779 39.1821 5.30474 39.164 5.56024 39.1832C5.81529 39.2031 6.06613 39.2597 6.30504 39.3512C6.37718 39.3789 6.44751 39.411 6.5156 39.4475C6.54182 39.4598 6.566 39.4761 6.58728 39.4957Z" fill="#E0E0E0"/>
<path d="M8.28734 38.3993C8.19965 38.1548 8.12782 37.9049 8.0723 37.6511C7.99994 37.4015 7.94383 37.1475 7.9043 36.8906C7.99207 37.1352 8.06427 37.3851 8.12046 37.6388C8.19215 37.8885 8.24789 38.1425 8.28734 38.3993Z" fill="#E0E0E0"/>
<path d="M8.30606 38.3997C8.23721 38.245 8.15749 38.0953 8.0675 37.9517C7.96665 37.8159 7.84841 37.6939 7.71582 37.5889C7.76581 37.6017 7.81218 37.6258 7.85134 37.6594C7.95116 37.732 8.03789 37.821 8.10782 37.9226C8.21482 38.0614 8.28322 38.226 8.30606 38.3997Z" fill="#E0E0E0"/>
<path d="M8.29535 48.2555C8.29535 48.2555 8.27967 48.1726 8.24047 48.0315C8.18556 47.826 8.11053 47.6264 8.01647 47.4356C7.68532 46.8136 7.2758 46.2366 6.79791 45.7187C6.52575 45.4073 6.26143 45.1139 6.03743 44.8327C5.83579 44.586 5.6538 44.3239 5.49311 44.0487C5.38504 43.8629 5.29323 43.668 5.21871 43.4663C5.19295 43.3947 5.17503 43.3387 5.16495 43.3006C5.1584 43.2812 5.15353 43.2614 5.15039 43.2412C5.15039 43.2412 5.17951 43.3196 5.23663 43.4596C5.31801 43.6568 5.41384 43.8477 5.52335 44.0308C5.68746 44.3016 5.87087 44.5603 6.07215 44.8047C6.29615 45.0825 6.56271 45.3737 6.83487 45.6851C7.31624 46.2061 7.72466 46.7901 8.04895 47.4211C8.14256 47.6147 8.21503 47.8178 8.26511 48.027C8.27838 48.0839 8.28847 48.1414 8.29535 48.1995C8.29707 48.2181 8.29707 48.2368 8.29535 48.2555Z" fill="#E0E0E0"/>
<path d="M11.0114 45.1891C10.9653 45.2181 10.9179 45.2446 10.8691 45.2687C10.7401 45.3408 10.6165 45.4224 10.4995 45.5128C10.3262 45.6469 10.164 45.7949 10.0146 45.9552C9.84431 46.1344 9.66959 46.3427 9.49039 46.5667C9.13311 47.0147 8.79823 47.4135 8.59439 47.7304C8.49247 47.8872 8.41855 48.0194 8.37039 48.1123C8.34737 48.1618 8.32119 48.2097 8.29199 48.2557C8.29199 48.2557 8.29199 48.2411 8.30543 48.2154C8.31887 48.1896 8.33007 48.1515 8.35247 48.1034C8.41603 47.9688 8.48785 47.8382 8.56751 47.7125C8.83957 47.3041 9.1346 46.9115 9.45119 46.5365C9.63039 46.3125 9.80847 46.1042 9.98207 45.9239C10.1348 45.7642 10.3008 45.6177 10.4782 45.4859C10.5993 45.3954 10.7282 45.3159 10.8635 45.2485C10.8998 45.2299 10.9372 45.2134 10.9755 45.1992C10.9987 45.1903 11.0106 45.1869 11.0114 45.1891Z" fill="#E0E0E0"/>
<path d="M11.0644 46.1836C10.9652 46.2053 10.8645 46.2199 10.7631 46.2272C10.5215 46.252 10.2826 46.2992 10.0497 46.3684C9.81933 46.4432 9.60343 46.5568 9.41131 46.7044C9.26459 46.8164 9.19515 46.9116 9.18731 46.9071C9.17947 46.9026 9.19851 46.8791 9.23099 46.8376C9.27777 46.7791 9.3303 46.7255 9.38779 46.6775C9.57833 46.5184 9.79774 46.3974 10.034 46.3213C10.2698 46.251 10.513 46.2081 10.7587 46.1936C10.8601 46.1809 10.9624 46.1775 11.0644 46.1836Z" fill="#E0E0E0"/>
<path d="M9.27566 46.7966C9.25998 46.7876 9.3955 46.5804 9.49966 46.3015C9.60382 46.0227 9.62174 45.774 9.63854 45.7774C9.6481 45.8307 9.6481 45.8853 9.63854 45.9387C9.62326 46.0684 9.59397 46.1961 9.55118 46.3195C9.50512 46.4413 9.44656 46.558 9.37646 46.6678C9.35041 46.7161 9.31633 46.7597 9.27566 46.7966Z" fill="#E0E0E0"/>
<path d="M11.8912 42.5166C11.8766 42.5277 11.8604 42.5364 11.8431 42.5424L11.7019 42.6062C11.6392 42.6331 11.5642 42.6667 11.4779 42.7115C11.3917 42.7563 11.2931 42.8011 11.1901 42.8627L11.0266 42.9556C10.9695 42.9892 10.9146 43.0273 10.853 43.0676C10.732 43.1404 10.6111 43.2312 10.4811 43.323C10.2066 43.5313 9.9476 43.7593 9.7061 44.0051C9.4691 44.2537 9.25085 44.5195 9.05313 44.8003C8.96465 44.9336 8.87841 45.0579 8.80897 45.1811C8.77425 45.2416 8.7373 45.2998 8.70594 45.358L8.62417 45.526C8.56593 45.6313 8.52449 45.7321 8.48305 45.8184C8.44161 45.9046 8.41025 45.9808 8.38561 46.0424C8.36097 46.104 8.34193 46.1476 8.32625 46.1857C8.32011 46.2029 8.31223 46.2194 8.30273 46.235C8.30487 46.2168 8.30978 46.1991 8.31729 46.1824L8.36769 46.0356C8.39009 45.9718 8.41809 45.8934 8.45729 45.806C8.49649 45.7187 8.53569 45.6156 8.59281 45.5092C8.61969 45.4544 8.64882 45.3972 8.67794 45.339C8.70706 45.2808 8.74401 45.227 8.77985 45.1598C8.84817 45.0344 8.93329 44.9089 9.02065 44.7745C9.41378 44.1997 9.90111 43.6953 10.4621 43.2827C10.5931 43.1908 10.7163 43.1012 10.8384 43.0296C10.9 42.9926 10.9571 42.9534 11.0143 42.9176L11.1811 42.8257C11.2864 42.7664 11.3872 42.7227 11.4735 42.6812C11.5464 42.6449 11.6211 42.6123 11.6975 42.5838L11.8431 42.5278C11.8587 42.5225 11.8748 42.5187 11.8912 42.5166Z" fill="#E0E0E0"/>
<path d="M9.74414 43.957C9.76189 43.888 9.80111 43.8265 9.85614 43.7812C9.98863 43.6659 10.1577 43.6013 10.3333 43.5986C10.5049 43.5978 10.6751 43.631 10.8339 43.6961C10.901 43.7177 10.9647 43.7486 11.0232 43.7879C10.9546 43.775 10.8875 43.7555 10.8227 43.7297C10.6656 43.6754 10.5006 43.6477 10.3344 43.6479C10.1696 43.6515 10.0103 43.7076 9.87966 43.8081C9.83061 43.8541 9.7853 43.9039 9.74414 43.957Z" fill="#E0E0E0"/>
<path d="M9.41992 44.289C9.48368 44.1487 9.52922 44.0007 9.55544 43.8488C9.56451 43.6951 9.55435 43.5409 9.5252 43.3896C9.55402 43.4274 9.57324 43.4716 9.5812 43.5184C9.63913 43.7399 9.61154 43.975 9.50392 44.177C9.46136 44.2532 9.4244 44.2924 9.41992 44.289Z" fill="#E0E0E0"/>
<path d="M5.91992 48.748C5.99384 50.0629 6.39032 51.3991 6.9996 52.7509H9.6484C10.2297 51.4125 10.5982 50.0786 10.6631 48.748H5.91992Z" fill="#E0E0E0"/>
<path d="M10.2342 50.8755C10.2342 50.889 9.36175 50.9002 8.28655 50.9002C7.21135 50.9002 6.33887 50.889 6.33887 50.8755C6.33887 50.8621 7.21023 50.8486 8.28767 50.8486C9.36511 50.8486 10.2342 50.8621 10.2342 50.8755Z" fill="#FAFAFA"/>
<path d="M10.1748 51.3508C10.1748 51.3643 9.35718 51.3755 8.34918 51.3755C7.34118 51.3755 6.52246 51.3643 6.52246 51.3508C6.52246 51.3374 7.34006 51.3262 8.34918 51.3262C9.3583 51.3262 10.1748 51.3374 10.1748 51.3508Z" fill="#FAFAFA"/>
<path d="M7.04222 49.6162C7.07507 50.0221 7.07507 50.43 7.04222 50.8359C7.00936 50.43 7.00936 50.0221 7.04222 49.6162Z" fill="#FAFAFA"/>
<path d="M8.46116 49.6162C8.49402 50.0367 8.49402 50.4591 8.46116 50.8796C8.42831 50.4591 8.42831 50.0367 8.46116 49.6162Z" fill="#FAFAFA"/>
<path d="M9.79417 49.6006C9.82703 50.0297 9.82703 50.4606 9.79417 50.8897C9.76132 50.4606 9.76132 50.0297 9.79417 49.6006Z" fill="#FAFAFA"/>
<path d="M10.5794 49.6164C10.5794 49.6299 9.55681 49.6411 8.29569 49.6411C7.03457 49.6411 6.00977 49.6299 6.00977 49.6164C6.00977 49.603 7.03345 49.5918 8.29569 49.5918C9.55793 49.5918 10.5794 49.5974 10.5794 49.6164Z" fill="#FAFAFA"/>
<path d="M51.6753 37.3561C51.9177 37.2491 52.1234 37.0733 52.2669 36.8505C52.4104 36.6278 52.4855 36.3678 52.4828 36.1028C52.4828 35.3547 51.9228 34.7454 51.2183 34.7432C50.5139 34.7409 49.9449 35.3435 49.9427 36.0872C49.9376 36.3542 50.0117 36.6168 50.1556 36.8418C50.2995 37.0668 50.5067 37.2442 50.7513 37.3516C48.7969 37.6462 48.8854 39.7697 48.8854 39.7697L53.5076 39.791C53.5076 39.791 53.6129 37.6484 51.6753 37.3561Z" fill="#EBEBEB"/>
<path d="M30.8977 6.47545C31.0679 6.44202 31.2248 6.35987 31.3493 6.23899C31.4737 6.11811 31.5604 5.96369 31.5988 5.79449C31.6307 5.68591 31.6401 5.57198 31.6265 5.45964C31.6129 5.3473 31.5765 5.23891 31.5197 5.14108C31.4628 5.04325 31.3866 4.95802 31.2957 4.8906C31.2048 4.82318 31.1012 4.77498 30.9911 4.74893C30.8809 4.72289 30.7667 4.71955 30.6552 4.73911C30.5437 4.75867 30.4374 4.80073 30.3428 4.86272C30.2481 4.92472 30.1671 5.00534 30.1046 5.09968C30.0421 5.19402 29.9995 5.3001 29.9793 5.41145C29.9362 5.58126 29.9445 5.76004 30.0031 5.92513C30.0617 6.09023 30.1681 6.2342 30.3086 6.33881C29.0172 6.23689 28.7607 7.60553 28.7607 7.60553L31.7063 8.30329C31.7063 8.30329 32.0916 6.94473 30.8977 6.47545Z" fill="#EBEBEB"/>
<path d="M51.8021 17.8765C51.9433 17.7882 52.0555 17.6604 52.1248 17.5088C52.1941 17.3573 52.2174 17.1888 52.1918 17.0242C52.1834 16.9152 52.1527 16.8091 52.1017 16.7125C52.0507 16.6158 51.9804 16.5306 51.8951 16.4622C51.8099 16.3938 51.7115 16.3436 51.6061 16.3146C51.5007 16.2857 51.3905 16.2787 51.2823 16.294C51.1741 16.3094 51.0701 16.3468 50.9769 16.4038C50.8837 16.4609 50.8032 16.5365 50.7403 16.6259C50.6775 16.7153 50.6336 16.8167 50.6114 16.9237C50.5893 17.0307 50.5893 17.1412 50.6115 17.2482C50.6321 17.4149 50.7018 17.5717 50.8117 17.6987C50.9216 17.8257 51.0667 17.9172 51.2286 17.9617C50.0403 18.3212 50.2856 19.6338 50.2856 19.6338L53.1617 19.2317C53.1617 19.2317 53.0329 17.8844 51.8021 17.8765Z" fill="#F5F5F5"/>
<path d="M5.65403 18.2829L4.10059 17.0475L4.53067 16.5054L5.57339 17.3331L7.09435 15.6318L7.61067 16.0933L5.65403 18.2829Z" fill="#F5F5F5"/>
<path d="M52.7141 52.7899C52.7141 52.8067 41.4973 52.819 27.6653 52.819C13.8333 52.819 2.61426 52.8067 2.61426 52.7899C2.61426 52.7731 13.8277 52.7607 27.6653 52.7607C41.5029 52.7607 52.7141 52.7742 52.7141 52.7899Z" fill="#263238"/>
<path d="M7.77275 20.0719L4.33771 21.7956C4.21309 21.8498 4.10711 21.9394 4.03287 22.0533C3.95862 22.1671 3.91937 22.3003 3.91995 22.4362V24.0434C3.91601 25.5053 4.34169 26.9362 5.14411 28.1583C5.76347 29.1013 6.58443 30.3064 7.94971 30.9952H8.56571C10.0867 30.5315 11.2212 29.2962 11.9145 28.2389C12.7173 27.017 13.1433 25.5861 13.1398 24.124V22.4362C13.1396 22.2997 13.0994 22.1663 13.0242 22.0524C12.9489 21.9385 12.8419 21.8492 12.7164 21.7956L8.79755 20.1279C8.62395 20.054 7.95195 19.998 7.77275 20.0719Z" fill="#039AE4"/>
<path opacity="0.3" d="M7.77275 20.0719L4.33771 21.7956C4.21309 21.8498 4.10711 21.9394 4.03287 22.0533C3.95862 22.1671 3.91937 22.3003 3.91995 22.4362V24.0434C3.91601 25.5053 4.34169 26.9362 5.14411 28.1583C5.76347 29.1013 6.58443 30.3064 7.94971 30.9952H8.56571C10.0867 30.5315 11.2212 29.2962 11.9145 28.2389C12.7173 27.017 13.1433 25.5861 13.1398 24.124V22.4362C13.1396 22.2997 13.0994 22.1663 13.0242 22.0524C12.9489 21.9385 12.8419 21.8492 12.7164 21.7956L8.79755 20.1279C8.62395 20.054 7.95195 19.998 7.77275 20.0719Z" fill="black"/>
<path d="M7.63463 20.1277L3.72024 21.7954C3.59474 21.8491 3.48775 21.9384 3.4125 22.0522C3.33725 22.1661 3.29705 22.2995 3.29688 22.436V24.0432C3.29696 25.5317 3.73852 26.9867 4.56568 28.2241C5.39284 29.4616 6.56844 30.4259 7.94375 30.9951C9.46359 30.5314 10.5982 29.296 11.2926 28.2387C12.0953 27.0168 12.5214 25.5859 12.5178 24.1239V22.436C12.5178 22.2997 12.4777 22.1663 12.4027 22.0525C12.3276 21.9386 12.2209 21.8492 12.0956 21.7954L8.17559 20.1277C8.08995 20.0918 7.998 20.0732 7.90511 20.0732C7.81223 20.0732 7.72028 20.0918 7.63463 20.1277Z" fill="#039AE4"/>
<path opacity="0.3" d="M8.83596 27.4172C10.1572 26.9047 10.8128 25.4182 10.3003 24.097C9.78786 22.7758 8.30137 22.1202 6.98016 22.6326C5.65895 23.1451 5.00333 24.6316 5.51579 25.9528C6.02826 27.274 7.51475 27.9296 8.83596 27.4172Z" fill="black"/>
<path d="M7.90692 25.1683C8.49517 25.1683 8.97204 24.6915 8.97204 24.1032C8.97204 23.515 8.49517 23.0381 7.90692 23.0381C7.31867 23.0381 6.8418 23.515 6.8418 24.1032C6.8418 24.6915 7.31867 25.1683 7.90692 25.1683Z" fill="white"/>
<path d="M5.96289 26.6976C6.13419 26.3392 6.40452 26.0374 6.74194 25.8278C7.07935 25.6182 7.46972 25.5096 7.86689 25.5148C8.27416 25.5149 8.67387 25.6248 9.02393 25.8329C9.37399 26.0411 9.66144 26.3398 9.85601 26.6976C9.85601 26.6976 9.22769 27.6272 7.84001 27.5936C7.48037 27.5921 7.12552 27.511 6.80096 27.3561C6.4764 27.2012 6.19019 26.9763 5.96289 26.6976Z" fill="white"/>
<path d="M10.4726 25.0255C10.4713 25.0117 10.4713 24.9979 10.4726 24.9841C10.4726 24.9538 10.4726 24.9135 10.4625 24.8631C10.4625 24.8362 10.4625 24.806 10.4625 24.7735C10.4625 24.741 10.4513 24.7052 10.4457 24.6615C10.434 24.5726 10.4161 24.4847 10.392 24.3983C10.3311 24.1591 10.2348 23.9304 10.1064 23.7196C9.93789 23.4399 9.71738 23.195 9.45676 22.9983C9.14191 22.7589 8.7751 22.597 8.38604 22.5257C7.93936 22.4434 7.47883 22.4821 7.05212 22.6377C6.93664 22.6778 6.82433 22.7264 6.71612 22.7833C6.60792 22.8426 6.50389 22.9092 6.40476 22.9826C6.30393 23.0585 6.20781 23.1404 6.11692 23.2279C6.02783 23.3203 5.94477 23.4183 5.86828 23.5213C5.71149 23.7337 5.58938 23.9696 5.50652 24.2202C5.33178 24.7398 5.33178 25.3023 5.50652 25.8218C5.58889 26.0727 5.71103 26.3086 5.86828 26.5207C5.94477 26.6241 6.02782 26.7225 6.11692 26.8153C6.20753 26.9027 6.30368 26.9843 6.40476 27.0594C6.59921 27.2077 6.81578 27.3245 7.04652 27.4055C7.47323 27.5611 7.93376 27.5997 8.38044 27.5175C8.73518 27.4507 9.07181 27.3097 9.36828 27.1038C9.66474 26.8978 9.91436 26.6316 10.1008 26.3225C10.2278 26.1131 10.3225 25.8858 10.3819 25.6482C10.4059 25.5615 10.4239 25.4732 10.4356 25.3839C10.4356 25.3458 10.4491 25.31 10.4524 25.2719C10.4558 25.2338 10.4524 25.2092 10.4524 25.1823L10.4625 25.0602C10.4614 25.0464 10.4614 25.0326 10.4625 25.0188C10.4637 25.0326 10.4637 25.0464 10.4625 25.0602C10.4625 25.0916 10.4625 25.1319 10.4625 25.1834C10.4625 25.2103 10.4625 25.2405 10.4625 25.273C10.4625 25.3055 10.4536 25.3425 10.448 25.385C10.439 25.4755 10.4225 25.565 10.3987 25.6527C10.3419 25.8953 10.2478 26.1277 10.1198 26.3415C9.81544 26.8611 9.33867 27.2577 8.77231 27.4623C8.20595 27.6669 7.58581 27.6666 7.01964 27.4615C6.90435 27.4201 6.79208 27.3707 6.68364 27.3137C6.57339 27.2517 6.46783 27.1817 6.3678 27.1042C6.26362 27.0279 6.16483 26.9444 6.07212 26.8545C5.98296 26.7614 5.89991 26.6626 5.82348 26.5588C5.66225 26.3419 5.53672 26.1007 5.45164 25.8442C5.36658 25.5795 5.32166 25.3035 5.31836 25.0255C5.32147 24.7474 5.36679 24.4713 5.45276 24.2068C5.53699 23.9502 5.66218 23.7089 5.82348 23.4922C5.90222 23.3869 5.98751 23.2867 6.07884 23.1921C6.17121 23.1022 6.26963 23.0187 6.3734 22.9423C6.47271 22.8665 6.57712 22.7977 6.68588 22.7362C6.7943 22.6789 6.90657 22.6291 7.02188 22.5873C7.45742 22.4295 7.9272 22.3908 8.38268 22.4753C8.74398 22.5447 9.08627 22.6906 9.38662 22.9031C9.68698 23.1155 9.93848 23.3897 10.1243 23.7073C10.2523 23.9215 10.3464 24.1542 10.4032 24.3972C10.427 24.4845 10.4435 24.5737 10.4524 24.6637C10.4524 24.703 10.4648 24.7388 10.467 24.7757V24.8665C10.467 24.918 10.467 24.9583 10.467 24.9885C10.4699 25.0007 10.4718 25.0131 10.4726 25.0255Z" fill="#263238"/>
<path d="M12.5045 23.6885C12.5097 23.7131 12.5123 23.7383 12.5123 23.7635C12.5123 23.8173 12.5123 23.8878 12.5213 23.9763C12.5302 24.0648 12.5302 24.1813 12.5213 24.3123C12.5213 24.3784 12.5213 24.4478 12.5213 24.5229C12.5213 24.5979 12.5213 24.6763 12.5067 24.7581C12.491 24.9227 12.4798 25.1042 12.4451 25.2968C12.4305 25.3931 12.4182 25.4928 12.3981 25.5947C12.3779 25.6966 12.3533 25.8008 12.3309 25.9083C12.2232 26.3713 12.0732 26.8234 11.8829 27.259C11.6862 27.6924 11.4512 28.1073 11.1806 28.4989C11.0507 28.6747 10.9309 28.845 10.8009 28.9917C10.7382 29.0656 10.68 29.1406 10.6184 29.2067L10.4403 29.3949C10.3283 29.5192 10.2163 29.6189 10.12 29.7074C10.0394 29.7866 9.95452 29.8614 9.86574 29.9314L9.69998 30.0658C9.6818 30.0821 9.6619 30.0963 9.64062 30.1083C9.65655 30.0896 9.67417 30.0723 9.69327 30.0568L9.85118 29.9146C9.92174 29.8541 10.0057 29.779 10.0976 29.6906C10.1894 29.6021 10.3014 29.4979 10.4101 29.3736L10.5848 29.1832C10.6453 29.1171 10.6968 29.0421 10.764 28.9682C10.8905 28.8214 11.0081 28.6512 11.1369 28.4742C11.4028 28.0843 11.6344 27.6721 11.8291 27.2422C12.0184 26.8086 12.1683 26.3587 12.2771 25.8982L12.3465 25.5869C12.3667 25.4861 12.3801 25.3864 12.3969 25.2912C12.4328 25.1008 12.4462 24.9205 12.4641 24.757C12.4742 24.6752 12.4809 24.5968 12.4832 24.5229L12.4933 24.3134C12.5033 24.1824 12.5011 24.0693 12.5011 23.9774C12.5011 23.8856 12.5011 23.8195 12.5011 23.7646C12.5003 23.7392 12.5014 23.7137 12.5045 23.6885Z" fill="#263238"/>
<path d="M39.7388 52.7901H13.2553C13.0818 52.7872 12.9106 52.7501 12.7514 52.6809C12.5922 52.6118 12.4483 52.512 12.3277 52.3871C12.2071 52.2623 12.1124 52.115 12.0488 51.9535C11.9852 51.792 11.9541 51.6196 11.9572 51.4461V10.967C11.9541 10.7935 11.9852 10.6211 12.0488 10.4596C12.1124 10.2982 12.2071 10.1508 12.3277 10.026C12.4483 9.90116 12.5922 9.80133 12.7514 9.73219C12.9106 9.66305 13.0818 9.62596 13.2553 9.62305H39.7388C39.9123 9.62596 40.0835 9.66306 40.2426 9.73221C40.4017 9.80136 40.5456 9.90122 40.6661 10.0261C40.7865 10.1509 40.8812 10.2983 40.9446 10.4597C41.0081 10.6212 41.0391 10.7936 41.0358 10.967V51.4483C41.0388 51.6216 41.0076 51.7937 40.944 51.955C40.8804 52.1162 40.7857 52.2633 40.6653 52.3879C40.5448 52.5125 40.401 52.6121 40.2421 52.6811C40.0831 52.7501 39.9121 52.7872 39.7388 52.7901Z" fill="#263238"/>
<path d="M27.0048 50.827C27.0091 51.0715 26.9404 51.3118 26.8076 51.5171C26.6748 51.7225 26.4839 51.8837 26.2592 51.9803C26.0345 52.0768 25.7862 52.1042 25.5458 52.0591C25.3054 52.014 25.0839 51.8984 24.9095 51.727C24.735 51.5555 24.6156 51.3361 24.5663 51.0965C24.517 50.857 24.5401 50.6082 24.6327 50.3818C24.7253 50.1555 24.8832 49.9618 25.0862 49.8255C25.2892 49.6891 25.5283 49.6163 25.7728 49.6163C26.0967 49.6136 26.4084 49.7396 26.6394 49.9666C26.8704 50.1936 27.0019 50.5031 27.0048 50.827Z" fill="#455A64"/>
<path d="M29.4764 11.9056H23.5404C23.4851 11.9048 23.4305 11.893 23.3798 11.871C23.329 11.849 23.2831 11.8173 23.2446 11.7775C23.2061 11.7378 23.1758 11.6909 23.1555 11.6395C23.1352 11.588 23.1251 11.5331 23.126 11.4778C23.1242 11.366 23.1669 11.258 23.2445 11.1776C23.3222 11.0972 23.4286 11.0509 23.5404 11.0488H29.4764C29.5882 11.0509 29.6946 11.0972 29.7723 11.1776C29.85 11.258 29.8926 11.366 29.8908 11.4778C29.8917 11.5331 29.8817 11.588 29.8614 11.6395C29.841 11.6909 29.8107 11.7378 29.7723 11.7775C29.7338 11.8173 29.6878 11.849 29.6371 11.871C29.5863 11.893 29.5317 11.9048 29.4764 11.9056Z" fill="#455A64"/>
<path d="M40.0947 12.7041H12.8496V48.7524H40.0947V12.7041Z" fill="white"/>
<path d="M40.0952 12.7041H38.9326V48.7524H40.0952V12.7041Z" fill="#F5F5F5"/>
<path d="M39.5122 25.6561C39.4161 25.6558 39.3241 25.6174 39.2563 25.5494C39.1885 25.4814 39.1504 25.3892 39.1504 25.2932V17.3199C39.1504 17.2239 39.1885 17.1317 39.2563 17.0637C39.3241 16.9957 39.4161 16.9573 39.5122 16.957C39.6084 16.957 39.7007 16.9953 39.7687 17.0633C39.8368 17.1314 39.875 17.2237 39.875 17.3199V25.2932C39.875 25.3894 39.8368 25.4817 39.7687 25.5498C39.7007 25.6178 39.6084 25.6561 39.5122 25.6561Z" fill="#E0E0E0"/>
<path d="M36.5412 20.9078H16.4529C16.2996 20.9078 16.1526 20.8469 16.0443 20.7385C15.9359 20.6301 15.875 20.4831 15.875 20.3299C15.875 20.1766 15.9359 20.0296 16.0443 19.9212C16.1526 19.8128 16.2996 19.752 16.4529 19.752H36.5412C36.6945 19.752 36.8415 19.8128 36.9499 19.9212C37.0583 20.0296 37.1192 20.1766 37.1192 20.3299C37.1192 20.4831 37.0583 20.6301 36.9499 20.7385C36.8415 20.8469 36.6945 20.9078 36.5412 20.9078Z" fill="#E0E0E0"/>
<path d="M33.4512 16.6881H20.8142C20.661 16.6881 20.514 16.6272 20.4056 16.5188C20.2972 16.4104 20.2363 16.2634 20.2363 16.1101C20.2363 15.9569 20.2972 15.8099 20.4056 15.7015C20.514 15.5931 20.661 15.5322 20.8142 15.5322H33.4512C33.6045 15.5322 33.7515 15.5931 33.8599 15.7015C33.9682 15.8099 34.0291 15.9569 34.0291 16.1101C34.0291 16.2634 33.9682 16.4104 33.8599 16.5188C33.7515 16.6272 33.6045 16.6881 33.4512 16.6881Z" fill="#039AE4"/>
<path d="M33.6885 23.234H19.3055C19.1522 23.234 19.0052 23.1731 18.8968 23.0647C18.7884 22.9563 18.7275 22.8093 18.7275 22.656C18.7275 22.5028 18.7884 22.3558 18.8968 22.2474C19.0052 22.139 19.1522 22.0781 19.3055 22.0781H33.6885C33.7644 22.0781 33.8395 22.0931 33.9097 22.1221C33.9798 22.1512 34.0435 22.1937 34.0971 22.2474C34.1508 22.3011 34.1934 22.3648 34.2224 22.4349C34.2515 22.505 34.2664 22.5802 34.2664 22.656C34.2664 22.7319 34.2515 22.8071 34.2224 22.8772C34.1934 22.9473 34.1508 23.011 34.0971 23.0647C34.0435 23.1184 33.9798 23.1609 33.9097 23.19C33.8395 23.219 33.7644 23.234 33.6885 23.234Z" fill="#E0E0E0"/>
<path d="M27.1944 33.3756H16.1277C15.9745 33.3756 15.8275 33.3147 15.7191 33.2063C15.6107 33.0979 15.5498 32.9509 15.5498 32.7976C15.5498 32.7218 15.5648 32.6466 15.5938 32.5765C15.6228 32.5064 15.6654 32.4427 15.7191 32.389C15.7727 32.3353 15.8364 32.2928 15.9066 32.2637C15.9767 32.2347 16.0518 32.2197 16.1277 32.2197H27.1944C27.2703 32.2197 27.3455 32.2347 27.4156 32.2637C27.4857 32.2928 27.5494 32.3353 27.6031 32.389C27.6568 32.4427 27.6993 32.5064 27.7284 32.5765C27.7574 32.6466 27.7724 32.7218 27.7724 32.7976C27.7724 32.9509 27.7115 33.0979 27.6031 33.2063C27.4947 33.3147 27.3477 33.3756 27.1944 33.3756Z" fill="#E0E0E0"/>
<path d="M36.216 30.9535H16.1277C15.9745 30.9535 15.8275 30.8927 15.7191 30.7843C15.6107 30.6759 15.5498 30.5289 15.5498 30.3756C15.5498 30.2998 15.5648 30.2247 15.5938 30.1546C15.6229 30.0846 15.6655 30.0209 15.7191 29.9674C15.7728 29.9138 15.8365 29.8713 15.9066 29.8424C15.9768 29.8135 16.0519 29.7987 16.1277 29.7988H36.216C36.2919 29.7987 36.367 29.8135 36.4371 29.8424C36.5072 29.8713 36.5709 29.9138 36.6246 29.9674C36.6783 30.0209 36.7209 30.0846 36.75 30.1546C36.779 30.2247 36.794 30.2998 36.794 30.3756C36.794 30.4515 36.779 30.5267 36.75 30.5968C36.7209 30.6669 36.6784 30.7306 36.6247 30.7843C36.571 30.8379 36.5073 30.8805 36.4372 30.9096C36.3671 30.9386 36.2919 30.9535 36.216 30.9535Z" fill="#E0E0E0"/>
<path d="M36.2165 37.5928H18.6336C18.3144 37.5928 18.0557 37.8515 18.0557 38.1707C18.0557 38.4899 18.3144 38.7486 18.6336 38.7486H36.2165C36.5356 38.7486 36.7944 38.4899 36.7944 38.1707C36.7944 37.8515 36.5356 37.5928 36.2165 37.5928Z" fill="#E0E0E0"/>
<path d="M36.216 41.2161H16.1277C15.9745 41.2161 15.8275 41.1552 15.7191 41.0468C15.6107 40.9384 15.5498 40.7915 15.5498 40.6382C15.5504 40.4853 15.6115 40.3389 15.7199 40.231C15.8282 40.1231 15.9748 40.0625 16.1277 40.0625H36.216C36.2919 40.0625 36.3671 40.0774 36.4372 40.1065C36.5073 40.1355 36.571 40.1781 36.6247 40.2318C36.6784 40.2854 36.7209 40.3491 36.75 40.4193C36.779 40.4894 36.794 40.5645 36.794 40.6404C36.7934 40.7933 36.7322 40.9397 36.6239 41.0476C36.5156 41.1555 36.3689 41.2161 36.216 41.2161Z" fill="#E0E0E0"/>
<path d="M36.216 43.7271H16.1277C15.9745 43.7271 15.8275 43.6662 15.7191 43.5579C15.6107 43.4495 15.5498 43.3025 15.5498 43.1492C15.5498 42.9959 15.6107 42.8489 15.7191 42.7406C15.8275 42.6322 15.9745 42.5713 16.1277 42.5713H36.216C36.2919 42.5713 36.3671 42.5862 36.4372 42.6153C36.5073 42.6443 36.571 42.6869 36.6247 42.7406C36.6784 42.7942 36.7209 42.8579 36.75 42.928C36.779 42.9982 36.794 43.0733 36.794 43.1492C36.794 43.3025 36.7331 43.4495 36.6247 43.5579C36.5163 43.6662 36.3693 43.7271 36.216 43.7271Z" fill="#E0E0E0"/>
<path d="M17.0317 38.1706C17.0317 38.2894 16.9965 38.4055 16.9304 38.5043C16.8644 38.603 16.7706 38.68 16.6608 38.7254C16.5511 38.7708 16.4303 38.7826 16.3138 38.7593C16.1974 38.7361 16.0904 38.6788 16.0065 38.5947C15.9226 38.5107 15.8655 38.4036 15.8425 38.2871C15.8194 38.1705 15.8315 38.0498 15.8771 37.9401C15.9227 37.8304 15.9998 37.7368 16.0987 37.6709C16.1975 37.6051 16.3137 37.5701 16.4325 37.5703C16.5915 37.5706 16.7439 37.634 16.8563 37.7465C16.9686 37.8591 17.0317 38.0116 17.0317 38.1706Z" fill="#039AE4"/>
<path d="M36.2166 28.6969H18.6326C18.4793 28.6969 18.3323 28.636 18.224 28.5276C18.1156 28.4192 18.0547 28.2722 18.0547 28.1189C18.0547 27.9657 18.1156 27.8187 18.224 27.7103C18.3323 27.6019 18.4793 27.541 18.6326 27.541H36.2166C36.2925 27.541 36.3677 27.556 36.4378 27.585C36.5079 27.6141 36.5716 27.6566 36.6253 27.7103C36.6789 27.764 36.7215 27.8277 36.7505 27.8978C36.7796 27.9679 36.7945 28.043 36.7945 28.1189C36.7945 28.1948 36.7796 28.27 36.7505 28.3401C36.7215 28.4102 36.6789 28.4739 36.6253 28.5276C36.5716 28.5813 36.5079 28.6238 36.4378 28.6529C36.3677 28.6819 36.2925 28.6969 36.2166 28.6969Z" fill="#E0E0E0"/>
<path d="M16.4324 28.7192C16.7639 28.7192 17.0327 28.4504 17.0327 28.1189C17.0327 27.7873 16.7639 27.5186 16.4324 27.5186C16.1008 27.5186 15.832 27.7873 15.832 28.1189C15.832 28.4504 16.1008 28.7192 16.4324 28.7192Z" fill="#039AE4"/>
<path d="M35.6552 47.4018H31.1472C30.903 47.4018 30.6689 47.3048 30.4962 47.1322C30.3236 46.9595 30.2266 46.7254 30.2266 46.4812C30.2266 46.237 30.3236 46.0028 30.4962 45.8302C30.6689 45.6575 30.903 45.5605 31.1472 45.5605H35.6552C35.8994 45.5605 36.1335 45.6575 36.3062 45.8302C36.4788 46.0028 36.5758 46.237 36.5758 46.4812C36.5758 46.7254 36.4788 46.9595 36.3062 47.1322C36.1335 47.3048 35.8994 47.4018 35.6552 47.4018Z" fill="#039AE4"/>
<path d="M12.4321 3.95871L7.75946 6.30287C7.58847 6.37557 7.44263 6.49692 7.34008 6.65185C7.23752 6.80678 7.18278 6.98844 7.18266 7.17423V9.36047C7.17713 11.3502 7.75668 13.2976 8.84922 14.9605C9.69146 16.2395 10.807 17.8792 12.6651 18.8155H13.5028C15.5703 18.185 17.1137 16.5038 18.0579 15.0669C19.1504 13.404 19.7299 11.4566 19.7244 9.46687V7.17423C19.7247 6.98894 19.6706 6.80764 19.5689 6.65277C19.4671 6.49789 19.3222 6.37624 19.1521 6.30287L13.8254 4.03151C13.5879 3.93407 12.6695 3.85791 12.4321 3.95871Z" fill="#039AE4"/>
<path opacity="0.3" d="M12.4321 3.95871L7.75946 6.30287C7.58847 6.37557 7.44263 6.49692 7.34008 6.65185C7.23752 6.80678 7.18278 6.98844 7.18266 7.17423V9.36047C7.17713 11.3502 7.75668 13.2976 8.84922 14.9605C9.69146 16.2395 10.807 17.8792 12.6651 18.8155H13.5028C15.5703 18.185 17.1137 16.5038 18.0579 15.0669C19.1504 13.404 19.7299 11.4566 19.7244 9.46687V7.17423C19.7247 6.98894 19.6706 6.80764 19.5689 6.65277C19.4671 6.49789 19.3222 6.37624 19.1521 6.30287L13.8254 4.03151C13.5879 3.93407 12.6695 3.85791 12.4321 3.95871Z" fill="black"/>
<path d="M12.2438 4.03185L6.92041 6.30321C6.74954 6.37595 6.60386 6.49735 6.50149 6.6523C6.39913 6.80724 6.34461 6.98887 6.34473 7.17457V9.36081C6.345 11.3852 6.94561 13.364 8.0706 15.047C9.19559 16.73 10.7944 18.0416 12.6649 18.8158C14.7324 18.1853 16.2758 16.5042 17.2188 15.0672C18.3118 13.4045 18.8914 11.457 18.8854 9.46721V7.17457C18.8855 6.98887 18.831 6.80724 18.7286 6.6523C18.6262 6.49735 18.4805 6.37595 18.3097 6.30321L12.9919 4.03185C12.8737 3.9812 12.7465 3.95508 12.6178 3.95508C12.4892 3.95508 12.362 3.9812 12.2438 4.03185Z" fill="#039AE4"/>
<path d="M18.8683 8.87793C18.8697 8.88646 18.8697 8.89516 18.8683 8.90369C18.8683 8.92385 18.8683 8.94849 18.8683 8.97873C18.8683 9.05041 18.8739 9.14673 18.8784 9.26881C18.8829 9.39089 18.8896 9.54769 18.8784 9.72689C18.8784 9.81649 18.8784 9.91169 18.8694 10.0125C18.8694 10.064 18.8694 10.1155 18.8694 10.1693C18.8694 10.2231 18.8594 10.2813 18.8538 10.3339C18.8314 10.5579 18.8168 10.8043 18.7698 11.0653C18.7485 11.1952 18.7317 11.3319 18.7048 11.4696C18.6779 11.6074 18.6443 11.7496 18.613 11.8952C18.465 12.5248 18.2592 13.1393 17.9981 13.7309C17.7313 14.3198 17.4127 14.8839 17.0461 15.4165C16.8691 15.6562 16.7101 15.888 16.5309 16.0885C16.4447 16.1893 16.3663 16.2912 16.2823 16.3808L16.0403 16.6384C15.8903 16.8064 15.7357 16.9397 15.6069 17.064C15.5408 17.1245 15.4815 17.1827 15.4243 17.2331L15.2675 17.3597L15.0435 17.5434L14.9842 17.5904C14.9707 17.6005 14.9629 17.605 14.9629 17.6038C14.9629 17.6027 14.9629 17.5971 14.9797 17.5848L15.0357 17.5344L15.2518 17.3429L15.4098 17.2051C15.4669 17.1547 15.5218 17.0931 15.589 17.0326C15.7155 16.9072 15.8667 16.7728 16.0146 16.6037L16.2531 16.3438C16.336 16.2542 16.4133 16.1523 16.4973 16.0515C16.6709 15.8522 16.8333 15.6203 17.0058 15.3795C17.3688 14.8481 17.6847 14.2859 17.9499 13.6995C18.2088 13.1109 18.4146 12.5003 18.5648 11.875C18.5973 11.7306 18.6275 11.5895 18.6589 11.4528C18.6903 11.3162 18.7037 11.1795 18.7261 11.0496C18.7754 10.7898 18.7922 10.5445 18.8168 10.3216C18.8235 10.2667 18.8291 10.2096 18.8347 10.1592C18.8403 10.1088 18.8347 10.0539 18.8414 10.0035C18.8459 9.90273 18.8504 9.80753 18.8549 9.71793C18.8672 9.53985 18.8638 9.38193 18.8638 9.26097V8.97985V8.90369C18.8636 8.89489 18.8652 8.88614 18.8683 8.87793Z" fill="#263238"/>
<path d="M14.7235 11.8151H14.1556V8.72502C14.1456 8.3819 14.0023 8.05619 13.7561 7.81703C13.5098 7.57787 13.1801 7.44409 12.8368 7.44409C12.4936 7.44409 12.1638 7.57787 11.9176 7.81703C11.6714 8.05619 11.528 8.3819 11.518 8.72502V11.8151H10.9502V8.72502C10.9622 8.23261 11.1662 7.7644 11.5187 7.42038C11.8712 7.07636 12.3443 6.88379 12.8368 6.88379C13.3294 6.88379 13.8024 7.07636 14.1549 7.42038C14.5074 7.7644 14.7115 8.23261 14.7235 8.72502V11.8151Z" fill="#F5F5F5"/>
<path d="M14.729 9.71875H10.9456C10.5863 9.71875 10.2949 10.0101 10.2949 10.3695V13.053C10.2949 13.4124 10.5863 13.7037 10.9456 13.7037H14.729C15.0884 13.7037 15.3797 13.4124 15.3797 13.053V10.3695C15.3797 10.0101 15.0884 9.71875 14.729 9.71875Z" fill="white"/>
<path d="M14.7294 13.7039C14.7864 13.6979 14.8428 13.6881 14.8985 13.6748C15.0342 13.6356 15.1533 13.5531 15.2377 13.4398C15.322 13.3266 15.3669 13.1888 15.3656 13.0476C15.3656 12.9165 15.3656 12.7743 15.3656 12.6208C15.3656 12.3151 15.3656 11.9668 15.3656 11.5815C15.3656 11.1962 15.3656 10.7762 15.3656 10.3237C15.3571 10.2109 15.3183 10.1026 15.2533 10.0101C15.1882 9.91759 15.0993 9.84445 14.996 9.79844C14.8858 9.75308 14.7664 9.73465 14.6476 9.74468H14.2713L10.946 9.74356C10.8063 9.74351 10.6706 9.79057 10.5608 9.87714C10.4511 9.96371 10.3737 10.0847 10.3412 10.2207C10.3267 10.2884 10.3207 10.3576 10.3233 10.4268V11.0573C10.3233 11.6173 10.3233 12.146 10.3233 12.6556C10.3334 12.9087 10.2808 13.1696 10.4107 13.369C10.4682 13.4669 10.5511 13.5475 10.6507 13.6021C10.7503 13.6567 10.8628 13.6834 10.9763 13.6792H12.2363L14.0608 13.6893H14.5558H14.6846C14.6995 13.6879 14.7145 13.6879 14.7294 13.6893C14.7145 13.691 14.6995 13.691 14.6846 13.6893H14.5558H14.0608L12.2363 13.6983H10.9763C10.8837 13.7024 10.7913 13.6876 10.7048 13.6546C10.6182 13.6216 10.5393 13.5713 10.473 13.5066C10.4066 13.4419 10.3543 13.3644 10.3191 13.2787C10.2839 13.193 10.2667 13.101 10.2684 13.0084V12.6556C10.2684 12.146 10.2684 11.6117 10.2684 11.0573V10.4312C10.2651 10.3561 10.2715 10.2808 10.2875 10.2072C10.3239 10.0605 10.4087 9.93024 10.5283 9.83764C10.6488 9.74229 10.7979 9.69022 10.9516 9.6898H14.2646H14.6409C14.7672 9.68016 14.8939 9.7009 15.0105 9.75028C15.1219 9.80002 15.2177 9.87916 15.2876 9.97919C15.3574 10.0792 15.3987 10.1964 15.407 10.3181C15.407 10.7751 15.407 11.194 15.407 11.5792C15.407 11.9645 15.407 12.3128 15.407 12.6186C15.407 12.772 15.407 12.9143 15.407 13.0453C15.4071 13.168 15.373 13.2882 15.3084 13.3925C15.2206 13.5374 15.0795 13.6419 14.9153 13.6837C14.8552 13.702 14.7921 13.7088 14.7294 13.7039Z" fill="#263238"/>
<path d="M13.2273 11.8146C13.2785 11.7635 13.3192 11.7027 13.3468 11.6358C13.3745 11.569 13.3887 11.4972 13.3885 11.4249C13.3892 11.3205 13.3607 11.2181 13.3062 11.129C13.2518 11.04 13.1735 10.968 13.0803 10.9211C12.9871 10.8742 12.8827 10.8543 12.7787 10.8636C12.6748 10.8728 12.5755 10.911 12.4921 10.9737C12.4087 11.0364 12.3445 11.1211 12.3066 11.2184C12.2688 11.3156 12.2589 11.4215 12.2781 11.5241C12.2972 11.6266 12.3446 11.7218 12.415 11.7989C12.4853 11.876 12.5758 11.9318 12.6762 11.9602L12.5564 12.4911H13.0884L12.9764 11.9602C13.0693 11.9337 13.1538 11.8835 13.2217 11.8146" fill="#039AE4"/>
<path d="M47.9151 15.8109V20.3491C47.9251 21.1331 48.0405 22.3651 46.7951 22.3248C45.721 22.2128 45.4354 21.1903 45.4275 20.4578C45.4275 20.1106 45.4197 19.8205 45.4163 19.7858C45.4163 19.7858 44.2403 19.6895 44.1407 18.5269C44.0925 17.9669 44.088 16.801 44.0959 15.7471C44.1006 15.2012 44.3107 14.6772 44.6842 14.2791C45.0577 13.8811 45.5674 13.6383 46.1119 13.5989L46.2239 13.5911C47.4413 13.5731 47.9352 14.5957 47.9151 15.8109Z" fill="#FFBF9D"/>
<path d="M45.4199 19.7866C45.9572 19.7453 46.4714 19.551 46.9017 19.2266C46.9017 19.2266 46.5948 20.1035 45.4266 20.0834L45.4199 19.7866Z" fill="#FF9A6C"/>
<path d="M46.0861 16.2249C46.1096 16.2484 46.244 16.1398 46.4377 16.1353C46.6315 16.1308 46.7737 16.2249 46.7984 16.2003C46.823 16.1756 46.7849 16.1454 46.7211 16.1017C46.6359 16.0444 46.5348 16.0154 46.4321 16.0188C46.3303 16.022 46.2322 16.0577 46.1521 16.1207C46.0939 16.17 46.0749 16.2137 46.0861 16.2249Z" fill="#263238"/>
<path d="M46.083 16.7746C46.0853 16.8158 46.1038 16.8544 46.1344 16.8821C46.165 16.9098 46.2053 16.9243 46.2465 16.9224C46.2666 16.9226 46.2865 16.9187 46.3051 16.911C46.3237 16.9034 46.3405 16.892 46.3546 16.8777C46.3687 16.8634 46.3798 16.8464 46.3872 16.8277C46.3946 16.8091 46.3982 16.7891 46.3977 16.769C46.3951 16.7281 46.3767 16.6898 46.3464 16.6622C46.3161 16.6346 46.2763 16.6199 46.2353 16.6212C46.2152 16.6212 46.1953 16.6251 46.1768 16.6329C46.1582 16.6406 46.1414 16.6519 46.1272 16.6662C46.1131 16.6804 46.1019 16.6974 46.0943 16.716C46.0867 16.7346 46.0829 16.7545 46.083 16.7746Z" fill="#263238"/>
<path d="M45.5991 17.5841C45.5026 17.5617 45.4037 17.5511 45.3046 17.5528C45.2586 17.5528 45.215 17.5449 45.2049 17.5147C45.1974 17.4678 45.2044 17.4197 45.225 17.3769C45.2609 17.2649 45.2967 17.1451 45.337 17.0196C45.4882 16.5112 45.5946 16.0945 45.5745 16.0889C45.5543 16.0833 45.4143 16.4899 45.2631 16.9984C45.2273 17.1238 45.1926 17.2436 45.159 17.3579C45.1346 17.415 45.1311 17.4788 45.1489 17.5382C45.1564 17.554 45.1675 17.5677 45.1813 17.5784C45.1951 17.5891 45.2113 17.5964 45.2284 17.5998C45.2544 17.6029 45.2808 17.6029 45.3068 17.5998C45.4045 17.6062 45.5026 17.601 45.5991 17.5841Z" fill="#263238"/>
<path d="M46.1691 15.3961C46.1882 15.4398 46.3439 15.4073 46.5309 15.4162C46.7179 15.4252 46.8669 15.4666 46.8927 15.4252C46.9016 15.4062 46.8725 15.3658 46.8098 15.3278C46.7262 15.2809 46.6327 15.2544 46.537 15.2505C46.4412 15.2466 46.3459 15.2654 46.2587 15.3054C46.1927 15.3378 46.1613 15.3759 46.1691 15.3961Z" fill="#263238"/>
<path d="M44.3199 15.6871C44.3412 15.723 44.4924 15.6871 44.6772 15.6782C44.862 15.6692 45.0132 15.6961 45.0333 15.6591C45.0412 15.6412 45.0109 15.6098 44.9471 15.5818C44.8607 15.5474 44.7678 15.5321 44.6749 15.537C44.5808 15.5396 44.4883 15.5626 44.4039 15.6042C44.3412 15.6367 44.3109 15.6703 44.3199 15.6871Z" fill="#263238"/>
<path d="M42.5592 14.7048C42.5657 14.6812 42.5769 14.6591 42.5921 14.6399C42.6073 14.6206 42.6262 14.6046 42.6477 14.5928C42.7405 14.5505 42.843 14.5339 42.9445 14.5447C43.2547 14.5389 43.5571 14.447 43.8181 14.2792C43.9399 14.1041 44.0759 13.9393 44.2246 13.7864C44.5774 13.4235 44.8664 13.176 45.1666 13.0551C45.5541 12.8994 46.2026 12.8311 46.6069 12.9431C47.0112 13.0551 47.3741 13.3776 47.4312 13.7909C47.6552 13.5994 47.9979 13.6016 48.2746 13.7125H48.2813C48.5882 13.8245 48.7629 14.1471 48.8536 14.4607C48.9443 14.7743 48.9835 15.1103 49.1493 15.3914C49.184 15.4496 49.2254 15.5202 49.1952 15.5818C49.1812 15.6041 49.1607 15.6216 49.1365 15.632C49.1123 15.6424 49.0855 15.6452 49.0597 15.64C49.0078 15.6289 48.9589 15.6067 48.9163 15.5751C48.951 15.6579 48.9846 15.7397 49.0194 15.8215C48.9073 15.841 48.7921 15.8337 48.6834 15.8002C48.6269 16.0798 48.554 16.3558 48.465 16.6267C48.3503 16.6132 48.2346 16.6414 48.139 16.7063C48.027 16.8037 47.9834 16.9863 47.803 16.9168C47.7123 16.881 47.6294 16.6928 47.5981 16.5976C47.3955 15.9773 47.3287 15.3207 47.4021 14.6723C47.2747 14.5367 47.1226 14.4265 46.9541 14.3475L46.9675 14.3599C46.6427 14.2479 46.2754 14.1359 45.9674 14.2882C45.7288 14.4069 45.5888 14.6544 45.4074 14.8482C45.2431 15.0324 45.0432 15.1812 44.8197 15.2858C44.5961 15.3903 44.3537 15.4484 44.107 15.4563C44.0902 15.7834 44.1171 16.2459 44.1003 16.5763L43.8248 16.0522C43.8032 16.0159 43.7834 15.9785 43.7654 15.9402V15.929C43.7378 15.865 43.7068 15.8026 43.6725 15.7419C43.6343 15.7726 43.5865 15.7886 43.5376 15.787C43.4887 15.7855 43.442 15.7665 43.4058 15.7335C43.3697 15.7005 43.3466 15.6556 43.3407 15.607C43.3347 15.5585 43.3463 15.5094 43.3734 15.4687C43.401 15.4306 43.4343 15.397 43.472 15.369C43.432 15.4079 43.3826 15.4357 43.3286 15.4497C43.2746 15.4636 43.2178 15.4632 43.164 15.4485C43.1107 15.4322 43.0642 15.3988 43.0318 15.3535C42.9994 15.3081 42.9829 15.2533 42.9848 15.1976C42.9894 15.1602 43.0038 15.1245 43.0263 15.0943C43.0489 15.0641 43.079 15.0402 43.1136 15.0251C42.9694 15.0367 42.825 15.0047 42.6992 14.9333C42.6096 14.8851 42.529 14.8079 42.5592 14.7048Z" fill="#263238"/>
<path d="M47.0635 13.9268C47.104 13.9608 47.1415 13.9982 47.1755 14.0388C47.2675 14.1494 47.3289 14.2823 47.3536 14.424C47.3739 14.5213 47.384 14.6204 47.3838 14.7197C47.3838 14.8317 47.376 14.9437 47.367 15.0624C47.3564 15.1891 47.3538 15.3163 47.3592 15.4432C47.3623 15.511 47.3709 15.5784 47.3849 15.6448C47.3954 15.7156 47.4235 15.7827 47.4667 15.8397C47.487 15.8623 47.5129 15.8793 47.5418 15.8889C47.5706 15.8985 47.6015 15.9005 47.6313 15.8946C47.6881 15.8842 47.7398 15.855 47.778 15.8117C47.8414 15.7251 47.8801 15.6229 47.89 15.516H47.8665C47.9012 15.604 47.9488 15.6863 48.0076 15.7602C48.064 15.8282 48.1441 15.8722 48.2316 15.8834C48.2728 15.8875 48.3143 15.8801 48.3515 15.8621C48.3862 15.844 48.4146 15.8159 48.4332 15.7815C48.4501 15.7498 48.4585 15.7143 48.4579 15.6784C48.4561 15.645 48.4426 15.6133 48.4198 15.5888L48.4075 15.6C48.4767 15.6791 48.5618 15.7429 48.6572 15.7871C48.6908 15.802 48.7166 15.8121 48.7345 15.8173L48.7625 15.824L48.7368 15.8128C48.7188 15.805 48.6931 15.7949 48.6617 15.7792C48.5693 15.7324 48.4871 15.6677 48.4198 15.5888L48.4075 15.6C48.4265 15.6244 48.4375 15.6541 48.4389 15.685C48.4403 15.7159 48.4321 15.7465 48.4153 15.7725C48.3988 15.8029 48.3734 15.8275 48.3425 15.8431C48.3077 15.8598 48.2688 15.8661 48.2305 15.861C48.1487 15.8516 48.0735 15.8116 48.02 15.749C47.9637 15.6763 47.918 15.596 47.8844 15.5104L47.8676 15.4735L47.8598 15.5138C47.8478 15.6161 47.8092 15.7134 47.7478 15.796C47.7127 15.8341 47.6664 15.8599 47.6156 15.87C47.5903 15.8751 47.5641 15.8736 47.5396 15.8655C47.515 15.8575 47.493 15.8432 47.4756 15.824C47.4353 15.7707 47.4095 15.7078 47.4006 15.6415C47.3868 15.5765 47.3778 15.5106 47.3737 15.4444C47.3684 15.3181 47.371 15.1917 47.3816 15.0658C47.3883 14.9448 47.3961 14.8306 47.395 14.722C47.3943 14.6214 47.383 14.5211 47.3614 14.4229C47.3341 14.2785 47.2688 14.1439 47.1721 14.0332C47.1422 13.9918 47.1055 13.9558 47.0635 13.9268Z" fill="#455A64"/>
<path d="M43.4668 15.0567L43.4769 15.0646C43.4861 15.0724 43.4958 15.0795 43.506 15.0859C43.5213 15.0983 43.5378 15.1092 43.5553 15.1183C43.5782 15.1318 43.6017 15.1442 43.6258 15.1553C43.7816 15.2259 43.9525 15.2567 44.1231 15.2449C44.377 15.2278 44.6205 15.1375 44.8242 14.9851C45.0707 14.7975 45.2759 14.5611 45.4268 14.2907C45.5119 14.1507 45.5802 14.0062 45.6508 13.8729C45.7231 13.7428 45.8136 13.6236 45.9196 13.519C46.0128 13.424 46.1283 13.3539 46.2556 13.3151C46.3132 13.2992 46.3729 13.2924 46.4326 13.295C46.4868 13.2991 46.5403 13.3104 46.5916 13.3286C46.682 13.3593 46.7649 13.4089 46.8346 13.4742C46.8873 13.5234 46.9316 13.5809 46.9657 13.6444C46.9928 13.6999 47.0127 13.7586 47.025 13.8191C47.025 13.8191 47.025 13.8191 47.025 13.8068C47.025 13.7945 47.025 13.7855 47.0194 13.771C47.0101 13.7256 46.9951 13.6815 46.9746 13.6399C46.8962 13.4859 46.7614 13.3679 46.5983 13.3107C46.5444 13.2919 46.4883 13.2802 46.4314 13.2759C46.3695 13.2733 46.3076 13.2801 46.2478 13.2961C46.1167 13.3348 45.9977 13.4061 45.9017 13.5033C45.7961 13.6091 45.7066 13.7298 45.6362 13.8617C45.559 13.9961 45.4895 14.1395 45.4066 14.2795C45.2567 14.5464 45.0544 14.7803 44.8119 14.9671C44.6125 15.1183 44.3737 15.2089 44.1242 15.2281C43.9562 15.2413 43.7875 15.2137 43.6326 15.1475C43.5755 15.1207 43.5201 15.0904 43.4668 15.0567Z" fill="#455A64"/>
<path d="M43.3613 14.5453C43.3613 14.5453 43.3748 14.5576 43.4028 14.5744C43.4422 14.5983 43.4834 14.6193 43.526 14.6371C43.5893 14.6641 43.6549 14.6854 43.722 14.701C43.8039 14.7203 43.8876 14.7315 43.9717 14.7346C44.0561 14.7366 44.1404 14.731 44.2237 14.7178C44.2912 14.7064 44.3575 14.6892 44.422 14.6663C44.4659 14.6512 44.5086 14.6329 44.5496 14.6114C44.5651 14.6044 44.5798 14.5958 44.5933 14.5856C44.5933 14.5856 44.5272 14.6136 44.4164 14.6483C44.3517 14.6676 44.2859 14.6825 44.2192 14.6931C44.1376 14.7045 44.0552 14.7094 43.9728 14.7077C43.8904 14.704 43.8084 14.6939 43.7276 14.6775C43.6616 14.6629 43.5968 14.6435 43.5338 14.6192C43.4263 14.5778 43.3636 14.5408 43.3613 14.5453Z" fill="#455A64"/>
<path d="M44.3122 16.2249C44.3346 16.2484 44.469 16.1398 44.6638 16.1353C44.8587 16.1308 44.9998 16.2249 45.0245 16.2002C45.0491 16.1756 45.0099 16.1454 44.9472 16.1017C44.8615 16.0445 44.7601 16.0155 44.6571 16.0188C44.5556 16.0219 44.4578 16.0577 44.3782 16.1207C44.3189 16.17 44.2998 16.2137 44.3122 16.2249Z" fill="#263238"/>
<path d="M44.5108 16.7746C44.5134 16.8155 44.5317 16.8538 44.5621 16.8814C44.5924 16.909 44.6322 16.9237 44.6732 16.9224C44.6933 16.9226 44.7133 16.9187 44.7319 16.9111C44.7505 16.9034 44.7674 16.8921 44.7816 16.8778C44.7958 16.8635 44.807 16.8465 44.8145 16.8278C44.822 16.8091 44.8258 16.7891 44.8255 16.769C44.8226 16.728 44.804 16.6897 44.7735 16.6622C44.743 16.6346 44.703 16.6199 44.662 16.6212C44.6419 16.6212 44.6221 16.6252 44.6036 16.6329C44.5851 16.6406 44.5683 16.652 44.5542 16.6662C44.5402 16.6805 44.5291 16.6975 44.5216 16.7161C44.5142 16.7347 44.5105 16.7546 44.5108 16.7746Z" fill="#263238"/>
<path d="M47.8857 16.6796C47.9048 16.6695 48.6697 16.385 48.7 17.1813C48.7302 17.9777 47.9261 17.8455 47.9238 17.8231C47.9216 17.8007 47.8857 16.6796 47.8857 16.6796Z" fill="#FFBF9D"/>
<path d="M48.1601 17.5111C48.1601 17.5111 48.1747 17.5201 48.1982 17.5301C48.2317 17.5431 48.2689 17.5431 48.3024 17.5301C48.3524 17.4954 48.3923 17.4479 48.4179 17.3926C48.4435 17.3372 48.4539 17.2761 48.448 17.2154C48.4479 17.1471 48.4322 17.0796 48.4021 17.0183C48.3933 16.9933 48.3785 16.971 48.359 16.9532C48.3394 16.9354 48.3157 16.9227 48.2901 16.9164C48.2741 16.9132 48.2575 16.9156 48.243 16.9231C48.2286 16.9307 48.2171 16.9429 48.2105 16.9578C48.2005 16.9802 48.2105 16.9959 48.2016 16.9981C48.1926 17.0004 48.1848 16.9858 48.1893 16.9522C48.1934 16.9324 48.2036 16.9144 48.2184 16.9007C48.24 16.8838 48.2671 16.8754 48.2945 16.8772C48.3275 16.8825 48.3585 16.8961 48.3847 16.9166C48.411 16.9372 48.4316 16.9641 48.4446 16.9948C48.4821 17.0635 48.5018 17.1405 48.5017 17.2188C48.5017 17.3789 48.4278 17.5324 48.3136 17.5705C48.2925 17.5776 48.27 17.5798 48.248 17.5771C48.2259 17.5744 48.2047 17.5668 48.1859 17.5548C48.1601 17.5301 48.1523 17.5122 48.1601 17.5111Z" fill="#FF9A6C"/>
<path d="M46.1664 17.7433C46.1731 17.7433 46.1731 17.7903 46.1462 17.8553C46.1072 17.9427 46.0433 18.0167 45.9625 18.0681C45.884 18.121 45.7907 18.1476 45.696 18.1442C45.6232 18.1375 45.584 18.1129 45.584 18.1073C45.584 18.1017 45.6288 18.1073 45.696 18.1073C45.7814 18.1009 45.8638 18.0732 45.9357 18.0266C46.0081 17.9801 46.069 17.9176 46.1137 17.8441C46.144 17.7825 46.1574 17.741 46.1664 17.7433Z" fill="#263238"/>
<path d="M50.1758 49.2344L50.4132 51.9224L51.2555 54.0011C51.2693 54.0373 51.2753 54.076 51.273 54.1147C51.2707 54.1534 51.2602 54.1912 51.2421 54.2255C51.2241 54.2598 51.199 54.2899 51.1685 54.3138C51.138 54.3377 51.1027 54.3548 51.0651 54.364C51.0205 54.3772 50.9735 54.3801 50.9277 54.3723C50.8819 54.3646 50.8384 54.3464 50.8008 54.3192C50.3203 53.9697 48.5876 52.684 48.5686 52.5171C48.544 52.2998 48.1016 49.6533 48.1016 49.6533L50.1758 49.2344Z" fill="#455A64"/>
<path d="M51.072 54.3676L48.5273 52.2139L48.5531 52.4132C48.5699 52.5252 48.5721 52.5812 48.6483 52.6495C49.3245 53.2621 50.035 53.8357 50.7763 54.3676C50.8219 54.3889 50.8716 54.4 50.9219 54.4C50.9722 54.4 51.0219 54.3889 51.0675 54.3676H51.072Z" fill="#263238"/>
<path d="M49.0221 51.3738C49.0593 51.3931 49.0878 51.4259 49.1015 51.4655C49.1153 51.5051 49.1133 51.5484 49.096 51.5866C49.0736 51.6236 49.0385 51.6511 48.9973 51.6641C48.9561 51.677 48.9115 51.6746 48.872 51.6572C48.8331 51.6366 48.8036 51.6019 48.7895 51.5603C48.7753 51.5187 48.7776 51.4732 48.7958 51.4332C48.823 51.3968 48.8626 51.3718 48.907 51.3629C48.9515 51.3541 48.9976 51.3619 49.0366 51.385" fill="white"/>
<path d="M50.281 53.2589C50.2978 53.2656 50.346 53.1178 50.505 53.026C50.606 52.9767 50.7147 52.9452 50.8264 52.933C50.8264 52.9263 50.7895 52.9095 50.7223 52.9072C50.6336 52.9065 50.5464 52.9301 50.4703 52.9756C50.396 53.0186 50.3361 53.0824 50.2978 53.1592C50.2732 53.2175 50.2732 53.2578 50.281 53.2589Z" fill="#263238"/>
<path d="M50.5251 53.5979C50.5397 53.6091 50.6215 53.5117 50.7648 53.4579C50.8553 53.4317 50.9473 53.4111 51.0403 53.3963C50.9932 53.3747 50.9418 53.3642 50.89 53.3653C50.8382 53.3665 50.7874 53.3794 50.7413 53.403C50.5778 53.4657 50.5117 53.5923 50.5251 53.5979Z" fill="#263238"/>
<path d="M49.8493 52.8361C49.9615 52.7471 50.0801 52.6666 50.2043 52.5953C50.3387 52.5403 50.4768 52.4951 50.6176 52.4598C50.465 52.4368 50.3091 52.466 50.1752 52.5427C49.9445 52.6535 49.8392 52.8294 49.8493 52.8361Z" fill="#263238"/>
<path d="M49.7051 52.0232C49.714 52.0389 49.8652 51.9605 50.0691 51.9336C50.2729 51.9068 50.442 51.9336 50.4465 51.9191C50.3263 51.8614 50.1903 51.8457 50.0601 51.8743C49.9283 51.8822 49.8031 51.9347 49.7051 52.0232Z" fill="#263238"/>
<path d="M49.6162 51.2343C49.734 51.1752 49.8624 51.1401 49.994 51.1313C50.1255 51.1225 50.2575 51.14 50.3822 51.1828C50.3822 51.1761 50.352 51.1459 50.2814 51.1167C50.1885 51.0803 50.0887 51.065 49.9891 51.0719C49.8898 51.0776 49.7931 51.1063 49.7069 51.1559C49.6397 51.194 49.6094 51.2287 49.6162 51.2343Z" fill="#263238"/>
<path d="M49.9684 50.9817C49.9684 50.9817 49.9751 50.9447 49.9616 50.8798C49.9419 50.7873 49.9039 50.6997 49.8496 50.6222C49.8127 50.5609 49.7569 50.5134 49.6906 50.4867C49.6676 50.4798 49.6431 50.4797 49.62 50.4865C49.5969 50.4932 49.5763 50.5065 49.5607 50.5247C49.5473 50.5427 49.5377 50.5632 49.5323 50.5849C49.5269 50.6066 49.5259 50.6292 49.5293 50.6513C49.5487 50.7436 49.5995 50.8262 49.673 50.8852C49.7466 50.9443 49.8382 50.976 49.9325 50.975C50.0267 50.9765 50.1192 50.9504 50.1988 50.9001C50.2784 50.8498 50.3415 50.7773 50.3805 50.6916C50.3894 50.6707 50.3934 50.648 50.3922 50.6253C50.3911 50.6026 50.3848 50.5805 50.3738 50.5606C50.3594 50.5412 50.3396 50.5264 50.3169 50.5182C50.2942 50.5101 50.2696 50.5088 50.2461 50.5147C50.1783 50.5365 50.1171 50.5751 50.068 50.6267C49.9983 50.6908 49.9403 50.7666 49.8967 50.8507C49.8786 50.8803 49.8671 50.9136 49.8631 50.9481C49.927 50.8389 50.0066 50.7397 50.0994 50.6535C50.1434 50.6101 50.1972 50.5779 50.2562 50.5595C50.2689 50.5559 50.2824 50.5563 50.2948 50.5608C50.3073 50.5652 50.318 50.5733 50.3256 50.5841C50.3318 50.5976 50.335 50.6123 50.335 50.6272C50.335 50.6421 50.3318 50.6568 50.3256 50.6703C50.29 50.743 50.2347 50.8042 50.166 50.847C50.0973 50.8897 50.0179 50.9124 49.937 50.9123C49.8571 50.9126 49.7794 50.886 49.7165 50.8368C49.6535 50.7877 49.6089 50.7188 49.5898 50.6412C49.5844 50.6105 49.5908 50.5789 49.6077 50.5527C49.6161 50.5424 49.6275 50.5348 49.6403 50.531C49.6531 50.5272 49.6667 50.5274 49.6794 50.5315C49.7356 50.5541 49.7836 50.5931 49.8172 50.6435C49.888 50.7459 49.9393 50.8606 49.9684 50.9817Z" fill="#263238"/>
<path d="M43.3954 49.3731L43.5007 51.6523C43.5007 51.6523 41.0714 52.5192 41.0479 52.9426L45.7575 52.9079L45.7474 49.3496L43.3954 49.3731Z" fill="#455A64"/>
<path d="M44.9552 51.4502C44.9995 51.4612 45.0381 51.4885 45.063 51.5268C45.088 51.565 45.0975 51.6113 45.0896 51.6563C45.0761 51.7004 45.0465 51.7379 45.0067 51.7613C44.9669 51.7848 44.9197 51.7924 44.8746 51.7828C44.8278 51.7714 44.7872 51.7425 44.761 51.7021C44.7348 51.6618 44.7249 51.6129 44.7335 51.5656C44.752 51.5202 44.7869 51.4834 44.8314 51.4627C44.8758 51.4419 44.9264 51.4387 44.9731 51.4536" fill="#E0E0E0"/>
<path d="M45.7575 52.9082L45.7418 52.5498L41.2316 52.7167C41.2316 52.7167 41.0233 52.804 41.0479 52.9407L45.7575 52.9082Z" fill="#263238"/>
<path d="M43.424 51.6323C43.424 51.6536 43.536 51.6625 43.648 51.7308C43.76 51.7992 43.8227 51.8899 43.844 51.8809C43.8653 51.872 43.8294 51.7476 43.6906 51.667C43.5517 51.5864 43.4184 51.611 43.424 51.6323Z" fill="#263238"/>
<path d="M42.9316 51.8259C42.9316 51.8472 43.0268 51.883 43.1052 51.9738C43.1836 52.0645 43.2083 52.1619 43.2307 52.1608C43.2531 52.1597 43.2676 52.0365 43.1668 51.9256C43.066 51.8147 42.9328 51.8058 42.9316 51.8259Z" fill="#263238"/>
<path d="M42.6557 52.3843C42.6769 52.3843 42.7072 52.2812 42.6478 52.1603C42.5885 52.0393 42.4798 51.9967 42.4698 52.0147C42.4597 52.0326 42.528 52.0953 42.575 52.1927C42.6221 52.2902 42.6333 52.3831 42.6557 52.3843Z" fill="#263238"/>
<path d="M43.4612 51.1078C43.4712 51.1279 43.5732 51.0977 43.7064 51.1078C43.8397 51.1178 43.9383 51.1526 43.9495 51.1346C43.9607 51.1167 43.8644 51.0394 43.7109 51.0327C43.5575 51.026 43.4556 51.091 43.4612 51.1078Z" fill="#263238"/>
<path d="M42.5752 33.0047C42.5752 33.1357 43.1218 51.3559 43.1218 51.3559H46.0338L46.624 35.77C46.624 35.77 47.3128 43.9191 47.3128 44.0949C47.3128 44.2708 47.9198 51.4432 47.9198 51.4432L50.619 51.236L50.441 34.8325L50.1117 32.4268L42.5752 33.0047Z" fill="#263238"/>
<path d="M46.9279 35.1933C46.891 35.2142 46.8514 35.23 46.8103 35.2403C46.733 35.2672 46.6199 35.3041 46.481 35.3523L46.4552 35.3601V35.3344C46.4395 35.116 46.4205 34.8225 46.4037 34.5011C46.3847 34.1528 46.3712 33.8381 46.3645 33.6051C46.3645 33.4931 46.3589 33.3979 46.3589 33.3341C46.3556 33.3007 46.3579 33.267 46.3656 33.2344C46.375 33.2664 46.3802 33.2996 46.3813 33.3329C46.3891 33.3968 46.397 33.4897 46.4048 33.6029C46.4227 33.8269 46.4429 34.1461 46.4608 34.4989C46.4787 34.8203 46.4911 35.1137 46.4978 35.3333L46.4698 35.3153C46.6109 35.2761 46.7251 35.2448 46.8058 35.2246C46.8454 35.2102 46.8862 35.1997 46.9279 35.1933Z" fill="#455A64"/>
<path d="M46.704 33.2995C46.704 33.2995 46.713 33.2849 46.7432 33.2749C46.7858 33.2636 46.8309 33.2676 46.8709 33.2861C46.901 33.2971 46.9268 33.3175 46.9443 33.3444C46.9619 33.3712 46.9703 33.403 46.9683 33.435C46.9646 33.4755 46.9476 33.5136 46.9201 33.5436C46.8926 33.5735 46.856 33.5936 46.816 33.6008C46.7753 33.6069 46.7337 33.6016 46.6957 33.5856C46.6578 33.5696 46.625 33.5435 46.601 33.5101C46.5841 33.4842 46.5752 33.4541 46.5752 33.4233C46.5752 33.3924 46.5841 33.3623 46.601 33.3365C46.6242 33.3017 46.6579 33.2754 46.6973 33.2614C46.7264 33.2513 46.7432 33.2536 46.7443 33.2558C46.7455 33.2581 46.6783 33.2771 46.6379 33.3533C46.6261 33.3736 46.6204 33.3969 46.6216 33.4203C46.6228 33.4438 46.6308 33.4664 46.6447 33.4854C46.6628 33.5094 46.687 33.528 46.7147 33.5395C46.7425 33.5509 46.7728 33.5546 46.8026 33.5504C46.8303 33.5451 46.8558 33.5315 46.8758 33.5116C46.8957 33.4916 46.9093 33.4661 46.9146 33.4384C46.9168 33.4154 46.9118 33.3923 46.9004 33.3723C46.889 33.3522 46.8716 33.3362 46.8507 33.3264C46.8059 33.3021 46.7545 33.2927 46.704 33.2995Z" fill="#455A64"/>
<path d="M48.0412 33.4883C48.0255 33.4883 48.0031 33.4099 47.9919 33.3113C47.9807 33.2128 47.9841 33.131 47.9998 33.1299C48.0155 33.1288 48.0379 33.2072 48.0491 33.3057C48.0603 33.4043 48.0569 33.4883 48.0412 33.4883Z" fill="#455A64"/>
<path d="M48.243 33.4671C48.2273 33.4671 48.2139 33.3831 48.2139 33.279C48.2139 33.1748 48.2251 33.0908 48.2419 33.0908C48.2587 33.0908 48.271 33.1748 48.271 33.279C48.271 33.3831 48.2598 33.4671 48.243 33.4671Z" fill="#455A64"/>
<path d="M44.7334 33.5929C44.7177 33.5929 44.693 33.4999 44.6785 33.3823C44.6639 33.2647 44.665 33.1662 44.6785 33.165C44.6919 33.1639 44.7188 33.258 44.7334 33.3767C44.7479 33.4955 44.749 33.5918 44.7334 33.5929Z" fill="#455A64"/>
<path d="M44.9787 33.6101C44.927 33.5474 44.9013 33.4672 44.907 33.3861C44.8949 33.3078 44.9129 33.2277 44.9574 33.1621C44.9742 33.1621 44.9574 33.2651 44.9652 33.3861C44.9731 33.5071 44.9944 33.6056 44.9787 33.6101Z" fill="#455A64"/>
<path d="M44.0582 33.3672C44.0594 33.3941 44.056 33.421 44.0481 33.4467C44.0341 33.5194 44.0146 33.5909 43.9899 33.6607C43.9068 33.8958 43.7849 34.1154 43.6293 34.3103C43.4676 34.5112 43.2756 34.6857 43.0603 34.8277C42.9941 34.8714 42.9253 34.911 42.8542 34.9464C42.8283 34.961 42.8009 34.9726 42.7725 34.9811C42.7725 34.9744 42.8777 34.9162 43.0379 34.8008C43.2439 34.6546 43.4286 34.4804 43.5867 34.2834C43.7393 34.0913 43.8634 33.8781 43.9552 33.6506C44.0235 33.477 44.0493 33.365 44.0582 33.3672Z" fill="#455A64"/>
<path d="M50.3528 34.5949C50.324 34.6035 50.2943 34.608 50.2643 34.6084C50.183 34.6148 50.1014 34.6148 50.0201 34.6084C49.7543 34.5828 49.4984 34.4937 49.2742 34.3485C49.0619 34.2094 48.8906 34.0161 48.7781 33.7885C48.7454 33.7224 48.7198 33.6529 48.7019 33.5813C48.6928 33.5562 48.6887 33.5296 48.6896 33.5029C48.6985 33.5029 48.7232 33.6149 48.8117 33.7751C48.9298 33.9917 49.0995 34.1759 49.3056 34.3116C49.5228 34.4518 49.7683 34.542 50.0246 34.5759C50.2251 34.5983 50.3517 34.586 50.3528 34.5949Z" fill="#455A64"/>
<path d="M45.6092 43.8213C45.6092 43.8336 45.1232 43.7283 44.5318 43.5883C43.9404 43.4483 43.4633 43.3229 43.4678 43.3106C43.4723 43.2982 43.9539 43.4024 44.5452 43.5435C45.1366 43.6846 45.6126 43.809 45.6092 43.8213Z" fill="#455A64"/>
<path d="M50.3001 43.1587C50.3069 43.1699 49.8869 43.3882 49.3627 43.6481C48.8385 43.9079 48.4062 44.1084 48.3995 44.0961C48.3928 44.0838 48.8128 43.8654 49.3369 43.6067C49.8611 43.3479 50.2934 43.1475 50.3001 43.1587Z" fill="#455A64"/>
<path d="M41.1619 26.8344L41.5595 27.3328V26.476H42.8139C42.8139 26.476 42.9528 28.4371 42.9259 28.8549C42.8961 29.0726 42.8447 29.2869 42.7724 29.4944C42.735 29.6152 42.667 29.7243 42.5751 29.8111C42.4832 29.898 42.3705 29.9597 42.2478 29.9903C42.1251 30.021 41.9966 30.0194 41.8746 29.9859C41.7527 29.9524 41.6415 29.8881 41.5516 29.799C41.4112 29.6625 41.2803 29.5165 41.1596 29.3622C40.5996 28.6454 39.6768 26.8982 39.6768 26.8982L40.6444 26.3203L41.1619 26.8344Z" fill="#FFBF9D"/>
<path d="M41.082 26.7426C41.1294 26.8222 41.1842 26.8972 41.2456 26.9666C41.3576 27.0976 41.4987 27.278 41.6656 27.4728C41.8324 27.6677 41.9915 27.8402 42.1136 27.9578C42.1754 28.0257 42.2472 28.0838 42.3264 28.1303C42.2695 28.0592 42.2082 27.9919 42.1427 27.9287C42.0307 27.8055 41.8761 27.6296 41.7092 27.4348C41.3788 27.0383 41.0966 26.7292 41.082 26.7426Z" fill="#FF9A6C"/>
<path d="M44.0225 20.8098L45.3452 20.2901L47.7812 20.1523L48.9258 20.588L47.3567 21.4594L46.0037 21.4101L44.0225 20.8098Z" fill="#FFBF9D"/>
<path d="M42.4621 33.2536C42.5819 33.2737 50.563 33.6131 50.563 33.6131L50.2875 26.4328L50.264 25.0238L49.816 20.7555C49.816 20.7555 48.6221 20.3444 48.0139 20.1484C48.0139 20.1484 47.3733 20.8204 46.1547 20.798C44.9642 20.7812 44.7155 20.5124 44.7155 20.5124L43.0512 21.1508C43.0512 21.1508 41.8674 21.5753 41.6635 22.0995C41.4597 22.6236 41.1035 25.5211 41.1035 25.5211H42.8294L42.7835 30.6697L42.4621 33.2536Z" fill="#455A64"/>
<g opacity="0.2">
<path d="M47.4805 23.6746L47.728 25.4845L48.9253 26.0187L49.8101 25.265V23.585L47.4805 23.6746Z" fill="black"/>
</g>
<path d="M49.7789 24.1927C49.7789 24.2073 49.2816 24.2196 48.6678 24.2196C48.0541 24.2196 47.5557 24.2073 47.5557 24.1927C47.9257 24.1646 48.2969 24.1553 48.6678 24.1647C49.0384 24.1552 49.4092 24.1646 49.7789 24.1927Z" fill="#263238"/>
<path d="M41.9248 22.8486C41.9305 22.8643 41.935 22.8804 41.9382 22.8968C41.9461 22.9326 41.9562 22.9774 41.9696 23.0346C42.0126 23.2074 42.0657 23.3775 42.1286 23.5442C42.2082 23.7581 42.3202 24.0101 42.4579 24.2923C42.5957 24.5746 42.7054 24.9117 42.8275 25.2701C42.8275 25.7002 42.8275 26.1661 42.8186 26.6622C42.8074 27.7598 42.7962 28.7533 42.7894 29.4779C42.7827 29.8341 42.7782 30.1242 42.7738 30.3314C42.7738 30.4277 42.7715 30.505 42.767 30.5632C42.7676 30.5902 42.7657 30.6172 42.7614 30.6438C42.7595 30.6166 42.7595 30.5893 42.7614 30.5621C42.7614 30.5053 42.7614 30.428 42.7614 30.3302C42.7614 30.1242 42.7614 29.833 42.7614 29.4768C42.7614 28.7522 42.7704 27.7587 42.776 26.6622C42.776 26.1706 42.785 25.7002 42.7883 25.2701V25.2779C42.6685 24.9195 42.5531 24.5869 42.4277 24.3013C42.3079 24.0554 42.201 23.8034 42.1074 23.5464C42.0468 23.3782 41.9978 23.2061 41.9606 23.0312C41.9494 22.9696 41.9405 22.9192 41.936 22.8901C41.931 22.8766 41.9273 22.8628 41.9248 22.8486Z" fill="#263238"/>
<path d="M50.3865 22.0107C50.3904 22.0618 50.3904 22.1131 50.3865 22.1642C50.3865 22.2762 50.3775 22.4128 50.3708 22.5808C50.3562 22.9415 50.3372 23.4231 50.3159 23.9551C50.2946 24.4871 50.27 24.9698 50.2543 25.3304C50.2442 25.4984 50.2364 25.6384 50.2297 25.7471C50.2294 25.7982 50.2242 25.8492 50.214 25.8994C50.2099 25.8483 50.2099 25.797 50.214 25.7459C50.214 25.6339 50.214 25.4973 50.2218 25.3293C50.2308 24.9765 50.2465 24.4904 50.2689 23.9539C50.2913 23.4175 50.3159 22.9303 50.3383 22.5797C50.3495 22.4039 50.3607 22.2616 50.3708 22.1631C50.3715 22.1119 50.3768 22.061 50.3865 22.0107Z" fill="#263238"/>
<g opacity="0.3">
<path d="M41.929 23.1113C41.8986 23.8995 42.1803 24.6678 42.713 25.2494C42.5506 24.5091 42.1451 23.8203 41.929 23.1113Z" fill="black"/>
</g>
<g opacity="0.3">
<path d="M45.4346 30.2159C45.8098 30.1659 46.152 29.9754 46.3922 29.6828C46.6448 29.4006 46.8612 29.088 47.0362 28.7521C47.262 28.2952 47.3902 27.7963 47.4125 27.2871C46.9477 28.5337 46.2667 29.5193 45.4346 30.2159Z" fill="black"/>
</g>
<path d="M47.5606 26.7432C47.5598 26.7587 47.5576 26.7741 47.5539 26.7892C47.546 26.825 47.536 26.8676 47.5248 26.9191C47.5136 26.9706 47.4956 27.0434 47.471 27.1218C47.4464 27.2002 47.4228 27.2898 47.387 27.3872C47.3085 27.6165 47.2165 27.8409 47.1115 28.0592C46.8545 28.5938 46.5247 29.0902 46.1315 29.5343C45.971 29.7155 45.7989 29.8861 45.6163 30.045C45.5412 30.1156 45.4662 30.1716 45.4024 30.2231C45.3385 30.2746 45.2825 30.316 45.2344 30.3485L45.1224 30.4236C45.0966 30.4392 45.0832 30.4482 45.082 30.446C45.0919 30.4341 45.1032 30.4236 45.1156 30.4146L45.2198 30.3317C45.2657 30.2981 45.3206 30.2544 45.3822 30.2007C45.4438 30.1469 45.5166 30.0887 45.5905 30.0181C45.7674 29.8557 45.9353 29.6837 46.0934 29.5029C46.2849 29.2798 46.4633 29.0457 46.6276 28.8018C46.7883 28.5561 46.9349 28.3014 47.0667 28.0391C47.1726 27.8235 47.2672 27.6026 47.35 27.3772C47.3881 27.282 47.415 27.1924 47.4408 27.1151C47.4665 27.0378 47.4878 26.9706 47.5035 26.9157C47.5192 26.8608 47.5304 26.8239 47.5416 26.7892C47.5528 26.7544 47.5584 26.7421 47.5606 26.7432Z" fill="#263238"/>
<path d="M47.3295 24.4971C47.3278 24.5219 47.3244 24.5466 47.3194 24.571C47.3105 24.6236 47.2982 24.6931 47.2836 24.7793C47.269 24.8656 47.2466 24.9798 47.2142 25.1064C47.1817 25.2329 47.1526 25.3796 47.1022 25.5364C47.0798 25.6148 47.0551 25.6977 47.0294 25.784C47.0036 25.8702 46.97 25.9576 46.9386 26.0483C46.8793 26.2331 46.7986 26.4235 46.7146 26.6251C46.3468 27.4952 45.8524 28.3063 45.2474 29.0319C45.1052 29.1955 44.9719 29.3545 44.8353 29.4911C44.7681 29.5606 44.7054 29.63 44.6404 29.6916C44.5754 29.7532 44.5138 29.8137 44.4534 29.8697C44.3414 29.9817 44.2204 30.0792 44.1174 30.1643C44.0143 30.2494 43.9314 30.32 43.8575 30.3748L43.6884 30.5025C43.67 30.5187 43.6497 30.5326 43.6279 30.5439C43.6443 30.5259 43.6623 30.5094 43.6817 30.4947L43.8441 30.3591C43.9158 30.302 44.0031 30.2315 44.0983 30.143C44.1935 30.0545 44.3089 29.9604 44.4242 29.8428L44.6079 29.6636C44.6718 29.6009 44.7334 29.5315 44.7994 29.462C44.935 29.3243 45.066 29.1652 45.2071 29.0006C45.8068 28.2761 46.3001 27.4698 46.6721 26.606C46.755 26.4056 46.8356 26.2174 46.8961 26.0348C46.9286 25.943 46.9622 25.8568 46.989 25.7716C47.0159 25.6865 47.0406 25.6048 47.0652 25.5264C47.1167 25.3707 47.1492 25.2262 47.1839 25.0996C47.2186 24.9731 47.2433 24.8644 47.2612 24.7748C47.2791 24.6852 47.2959 24.6214 47.3071 24.5688C47.312 24.5441 47.3195 24.5201 47.3295 24.4971Z" fill="#263238"/>
<path d="M41.023 22.2645L44.0962 26.9371C44.1109 26.9592 44.1189 26.985 44.1193 27.0115C44.1197 27.038 44.1124 27.0641 44.0983 27.0865C44.0842 27.109 44.064 27.1269 44.04 27.1382C44.016 27.1494 43.9892 27.1535 43.963 27.1499L40.4238 26.7019C40.4051 26.6993 40.3872 26.693 40.3711 26.6834C40.3549 26.6738 40.3408 26.661 40.3297 26.6459L36.9495 22.0293C36.9328 22.0079 36.9227 21.9821 36.9204 21.9551C36.9181 21.928 36.9239 21.9009 36.9369 21.8771C36.9498 21.8533 36.9695 21.8338 36.9935 21.821C37.0174 21.8082 37.0446 21.8028 37.0716 21.8053L40.7127 22.0741C40.7756 22.0798 40.8363 22.0999 40.8901 22.133C40.944 22.166 40.9894 22.211 41.023 22.2645Z" fill="#E0E0E0"/>
<path d="M41.023 22.2652C41.0154 22.2499 41.006 22.2357 40.995 22.2226C40.9639 22.184 40.9259 22.1513 40.883 22.1263C40.8101 22.0882 40.729 22.0686 40.6467 22.0692L40.3197 22.0423L38.2208 21.8777L37.5253 21.8239L37.1557 21.7959C37.1232 21.7959 37.0952 21.7959 37.0582 21.7959C37.0204 21.7971 36.9843 21.8118 36.9563 21.8373C36.9279 21.8633 36.9096 21.8984 36.9047 21.9366C36.8997 21.9747 36.9085 22.0134 36.9294 22.0457L37.9128 23.3953C38.6072 24.3439 39.3688 25.3866 40.1696 26.482C40.2211 26.5503 40.267 26.6164 40.323 26.6881C40.3402 26.7071 40.3617 26.7217 40.3857 26.7306C40.4078 26.7383 40.4308 26.7429 40.4541 26.7441L40.5795 26.7597L41.0745 26.8225L42.0422 26.9434L43.8723 27.1674C43.9104 27.1674 43.9417 27.1775 43.9843 27.1797C44.0061 27.1799 44.0278 27.1757 44.0479 27.1675C44.0681 27.1592 44.0865 27.147 44.1019 27.1316C44.1312 27.1015 44.1484 27.0616 44.1501 27.0196C44.1484 26.9786 44.1334 26.9393 44.1075 26.9076L43.8701 26.5447L43.4221 25.8727L42.6201 24.6597C42.1296 23.9217 41.7331 23.3225 41.4565 22.9069L41.1373 22.4309C41.1014 22.3794 41.0734 22.338 41.0521 22.3089C41.0431 22.2943 41.033 22.2804 41.0219 22.2674C41.0296 22.2828 41.0382 22.2978 41.0477 22.3122L41.1272 22.4377C41.1989 22.5497 41.303 22.7121 41.4363 22.9193L42.5854 24.6833L43.3817 25.8996L43.8297 26.5772L44.0627 26.9322C44.0828 26.9558 44.0946 26.9853 44.0963 27.0162C44.0952 27.0456 44.0832 27.0735 44.0627 27.0946C44.0418 27.1153 44.0137 27.127 43.9843 27.1271C43.9541 27.1271 43.9126 27.1181 43.8779 27.1148L42.0445 26.8807L41.0768 26.7586L40.5817 26.6959L40.4574 26.6802C40.4388 26.6787 40.4205 26.6753 40.4025 26.6701C40.3868 26.664 40.3726 26.6545 40.3611 26.6421C40.3118 26.5749 40.2625 26.5089 40.2133 26.4405C39.4113 25.3474 38.6453 24.3058 37.9531 23.3572C37.6048 22.8845 37.2755 22.4343 36.9664 22.0132C36.9548 21.9965 36.948 21.9771 36.9467 21.9569C36.9453 21.9367 36.9494 21.9165 36.9586 21.8985C36.9678 21.8804 36.9817 21.8652 36.9989 21.8544C37.016 21.8437 37.0357 21.8378 37.056 21.8373C37.0817 21.8373 37.1176 21.8373 37.1478 21.8429L37.5174 21.8698L38.2141 21.9191L40.3197 22.0647L40.6489 22.0871C40.7292 22.0844 40.8089 22.1017 40.8808 22.1375C40.9368 22.1693 40.9854 22.2129 41.023 22.2652Z" fill="#263238"/>
<path d="M36.9492 22.0328C36.9734 22.039 36.9982 22.0428 37.0231 22.044L37.2382 22.0664L38.0379 22.137L40.7572 22.361L40.7359 22.3487C40.9062 22.6018 41.082 22.8639 41.2579 23.1327C41.9758 24.2359 42.6019 25.2506 43.0756 25.9719C43.3108 26.3336 43.5068 26.6226 43.6435 26.8219L43.8025 27.0459C43.8197 27.0733 43.8395 27.0988 43.8619 27.1221C43.8471 27.0935 43.8307 27.0658 43.8126 27.0392L43.6625 26.8051L43.1103 25.9461C42.6467 25.2192 42.0251 24.2023 41.3071 23.0979C41.1313 22.8258 40.9543 22.5637 40.783 22.3139L40.7751 22.3027H40.7673L38.0468 22.1011L37.246 22.0474L37.0299 22.0351C37.0031 22.0323 36.9761 22.0316 36.9492 22.0328Z" fill="#263238"/>
<path d="M39.0563 22.7465C39.0584 22.7372 39.0623 22.7284 39.0679 22.7207C39.0735 22.713 39.0805 22.7064 39.0887 22.7015C39.0969 22.6966 39.1059 22.6934 39.1154 22.6921C39.1248 22.6908 39.1344 22.6914 39.1436 22.6939C39.1797 22.7021 39.2127 22.7203 39.2388 22.7465C39.2555 22.7617 39.2662 22.7822 39.2693 22.8045C39.2724 22.8268 39.2675 22.8495 39.2556 22.8686C39.2209 22.9123 39.1436 22.8955 39.1056 22.8596C39.0884 22.8466 39.0748 22.8293 39.0662 22.8095C39.0576 22.7897 39.0542 22.768 39.0563 22.7465Z" fill="white"/>
<path d="M40.7093 25.3647C40.7093 25.3647 40.8482 25.0287 40.4943 24.9884C40.0664 24.9661 39.6376 24.9661 39.2097 24.9884C39.2097 24.9884 38.7001 25.0421 38.8076 25.4072C38.8076 25.4072 38.5074 25.676 38.6687 25.9672C38.83 26.2584 38.8927 26.1711 38.8927 26.1711C38.8927 26.1711 38.8501 26.5261 39.1167 26.5788C39.1167 26.5788 39.4079 26.9226 39.6767 26.9013C39.9455 26.88 41.0823 26.3324 41.1573 26.2293C41.2324 26.1263 41.3399 26.0613 41.2761 25.9415C41.2761 25.9415 41.4149 25.6268 41.1148 25.5786C41.117 25.573 41.0957 25.312 40.7093 25.3647Z" fill="#FFBF9D"/>
<path d="M39.0947 25.4852C39.1735 25.5016 39.2541 25.5076 39.3344 25.5031C39.4822 25.5031 39.6861 25.5031 39.9112 25.5031C40.1052 25.5087 40.2993 25.4975 40.4914 25.4695C40.6437 25.4336 40.7042 25.344 40.6974 25.3418C40.6317 25.3835 40.5588 25.4127 40.4824 25.428C40.3424 25.4516 40.1352 25.437 39.9101 25.4448C39.685 25.4527 39.4811 25.4549 39.3333 25.4616C39.2531 25.4599 39.173 25.4678 39.0947 25.4852Z" fill="#FF9A6C"/>
<path d="M39.3477 26.0226C39.3713 26.0365 39.3977 26.0453 39.4249 26.0484C39.4986 26.0634 39.574 26.0683 39.6489 26.063C39.7583 26.0546 39.8664 26.0347 39.9715 26.0036C40.0902 25.9711 40.2168 25.9252 40.3501 25.8849C40.4739 25.8439 40.6021 25.8172 40.732 25.8054C40.8443 25.8158 40.9571 25.7932 41.0568 25.7404C41.0957 25.7141 41.1233 25.6741 41.1341 25.6284C41.1413 25.5943 41.1365 25.5587 41.1206 25.5276C41.0926 25.4772 41.0545 25.4738 41.0557 25.4761C41.0568 25.4783 41.0825 25.4918 41.0993 25.5377C41.1101 25.5688 41.1093 25.6027 41.0972 25.6334C41.0851 25.664 41.0624 25.6892 41.0333 25.7046C40.9376 25.7467 40.8324 25.7625 40.7286 25.7505C40.5941 25.7589 40.4612 25.7845 40.3333 25.8266L39.9569 25.951C39.8552 25.9826 39.7511 26.0058 39.6456 26.0204C39.5464 26.0272 39.4469 26.0279 39.3477 26.0226Z" fill="#FF9A6C"/>
<path d="M39.7286 26.4765C39.8101 26.4718 39.8907 26.4564 39.9682 26.4306C40.1138 26.3936 40.3132 26.3365 40.5282 26.2659C40.7433 26.1954 40.9404 26.1226 41.0793 26.0654C41.1582 26.0406 41.2335 26.0056 41.3033 25.9613C41.2966 25.9456 40.9471 26.0733 40.5193 26.2088C40.0914 26.3443 39.7241 26.4608 39.7286 26.4765Z" fill="#FF9A6C"/>
<path d="M39.6377 26.897C39.7046 26.9029 39.772 26.8952 39.8359 26.8746C39.9922 26.8367 40.1441 26.783 40.2895 26.7144C40.4598 26.6371 40.6087 26.5576 40.7163 26.5005C40.7777 26.4745 40.835 26.4398 40.8865 26.3975C40.672 26.4668 40.464 26.5548 40.2649 26.6607C39.93 26.8219 39.6355 26.8802 39.6377 26.897Z" fill="#FF9A6C"/>
<path d="M50.952 23.6953C50.952 23.6953 50.2284 26.5938 49.3246 27.6645C48.4488 28.7017 47.0768 28.2245 46.6019 26.8805C46.127 25.5365 45.2803 22.4778 45.2803 22.4778L46.3196 21.6826L48.1116 25.1647L48.9214 22.7914L50.952 23.6953Z" fill="#FFBF9D"/>
<path d="M45.3281 22.5609L44.5654 21.4555C44.4544 21.4315 44.3457 21.3978 44.2406 21.3547C44.1543 21.3043 44.0692 20.8652 44.0715 20.7801C44.0737 20.695 43.9236 20.4945 43.9841 20.4374C44.0446 20.3803 44.2484 20.3769 44.2372 20.2952C44.2372 20.2772 44.086 20.0936 44.2047 19.9592C44.2702 19.9159 44.3431 19.8851 44.4198 19.8684L44.4075 19.4462C44.4075 19.4462 44.6315 18.9489 44.8678 19.1292C44.8678 19.1292 45.7447 19.8012 45.8332 19.9132C45.9217 20.0252 46.2599 21.4241 46.3193 21.6873" fill="#FFBF9D"/>
<path d="M46.32 21.6846C46.3188 21.6596 46.315 21.6348 46.3088 21.6106C46.2964 21.5569 46.2819 21.4874 46.2628 21.4001C46.2225 21.2164 46.1609 20.9521 46.078 20.6262C46.0355 20.4626 45.9896 20.2902 45.9302 20.0942C45.9156 20.0471 45.9 19.999 45.8798 19.9497C45.8567 19.8995 45.8212 19.856 45.7768 19.8231C45.6961 19.7526 45.6121 19.6831 45.5259 19.6126C45.3523 19.4726 45.1675 19.327 44.976 19.178C44.9276 19.1349 44.8733 19.0991 44.8147 19.0716C44.7804 19.0634 44.7447 19.0634 44.7105 19.0715C44.6762 19.0797 44.6444 19.0959 44.6176 19.1186C44.5175 19.2057 44.4376 19.3134 44.3835 19.4345V19.4412C44.3835 19.4826 44.3835 19.5263 44.3835 19.57C44.3835 19.6686 44.3835 19.7671 44.3924 19.8634L44.4126 19.8366C44.3597 19.8493 44.308 19.8666 44.258 19.8881C44.2302 19.8997 44.2047 19.9164 44.183 19.9374C44.1637 19.9599 44.1492 19.9862 44.1404 20.0146C44.1261 20.0706 44.1309 20.1297 44.1539 20.1826C44.1632 20.2079 44.1748 20.2323 44.1886 20.2554L44.2076 20.2879V20.2958C44.2082 20.2983 44.2082 20.301 44.2076 20.3036C44.2076 20.3126 44.1852 20.326 44.164 20.3338C44.1427 20.3417 44.1192 20.3495 44.0956 20.3574C44.0713 20.3638 44.0474 20.3717 44.024 20.3809C43.9946 20.3893 43.9689 20.4075 43.9512 20.4324C43.9395 20.4611 43.9395 20.4933 43.9512 20.522C43.9579 20.5461 43.9665 20.5697 43.9769 20.5926C43.996 20.6374 44.0172 20.6799 44.0329 20.7214C44.0409 20.7402 44.0454 20.7603 44.0464 20.7807C44.0468 20.8047 44.0491 20.8287 44.0531 20.8524C44.0598 20.8983 44.0676 20.9431 44.0777 20.9879C44.0951 21.0742 44.1187 21.1592 44.1483 21.2422C44.1625 21.2855 44.1853 21.3255 44.2155 21.3598C44.252 21.3834 44.2921 21.4012 44.3342 21.4124C44.4115 21.4359 44.4876 21.455 44.5582 21.4718L44.5459 21.4639L45.1059 22.2658L45.2627 22.4831C45.28 22.5093 45.2995 22.534 45.3209 22.557C45.3066 22.5292 45.2905 22.5022 45.2728 22.4764L45.1249 22.2524C44.9916 22.0542 44.8046 21.7775 44.575 21.4393V21.4326H44.5761C44.5044 21.4146 44.4294 21.3945 44.3521 21.371C44.3163 21.3607 44.282 21.3457 44.2502 21.3262C44.2261 21.2967 44.2078 21.2628 44.1964 21.2265C44.1679 21.1454 44.1454 21.0623 44.1292 20.9778C44.1203 20.9342 44.1124 20.8905 44.1057 20.8457C44.1057 20.8244 44.1057 20.8009 44.1057 20.7807C44.1047 20.7546 44.0994 20.7289 44.09 20.7046C44.0732 20.6586 44.052 20.6161 44.034 20.5724C44.0242 20.5519 44.0164 20.5305 44.0105 20.5086C44.0044 20.4919 44.0044 20.4737 44.0105 20.457C44.0234 20.4436 44.0396 20.434 44.0576 20.429C44.0799 20.4202 44.1027 20.4128 44.1259 20.4066C44.1494 20.3988 44.174 20.3921 44.1987 20.382C44.2295 20.3724 44.2552 20.3511 44.2704 20.3226C44.2744 20.3135 44.2764 20.3035 44.276 20.2935C44.2757 20.2865 44.2738 20.2796 44.2704 20.2734V20.2644L44.2513 20.2319C44.2393 20.2107 44.2288 20.1886 44.22 20.1658C44.2019 20.1238 44.198 20.077 44.2088 20.0326C44.2147 20.011 44.2254 19.9911 44.2401 19.9743C44.257 19.9595 44.2763 19.9478 44.2972 19.9396C44.3444 19.9193 44.3931 19.9028 44.4428 19.8903L44.463 19.8847V19.8634C44.463 19.7671 44.4574 19.6697 44.454 19.5711C44.454 19.5274 44.454 19.4826 44.454 19.4423V19.4546C44.5038 19.3416 44.5776 19.2407 44.6702 19.159C44.6901 19.1406 44.7142 19.1274 44.7403 19.1206C44.7665 19.1137 44.794 19.1135 44.8203 19.1198C44.8725 19.1454 44.921 19.1778 44.9648 19.2161C45.1574 19.365 45.3422 19.5095 45.5158 19.6484C45.6032 19.7178 45.6872 19.7862 45.7667 19.8545C45.8069 19.883 45.839 19.9217 45.8596 19.9665C45.8787 20.0124 45.8944 20.0606 45.91 20.1065C45.9694 20.2946 46.022 20.4727 46.0624 20.634C46.1464 20.9554 46.2158 21.2164 46.264 21.4034C46.2875 21.4897 46.3054 21.5591 46.3188 21.6118C46.3167 21.636 46.3171 21.6604 46.32 21.6846Z" fill="#FF9A6C"/>
<path d="M44.4199 19.8676C44.4199 19.8765 44.5084 19.8676 44.6439 19.8833C44.725 19.8958 44.8051 19.9141 44.8836 19.9381C44.9865 19.9527 45.0909 19.9527 45.1938 19.9381C45.2821 19.9257 45.3721 19.9336 45.4569 19.9611C45.5417 19.9887 45.6191 20.0352 45.6833 20.0972C45.7329 20.1523 45.7727 20.2156 45.8009 20.2842C45.8014 20.2443 45.7937 20.2047 45.7783 20.1679C45.7629 20.1312 45.7401 20.0979 45.7113 20.0703C45.653 20.0062 45.581 19.956 45.5007 19.9236C45.4021 19.8853 45.2955 19.8718 45.1905 19.8844C45.0919 19.8966 44.9922 19.8966 44.8937 19.8844C44.8128 19.8618 44.7299 19.8472 44.6462 19.8407C44.5697 19.8346 44.4928 19.8437 44.4199 19.8676Z" fill="#FF9A6C"/>
<path d="M44.7303 19.8445C44.7427 19.8512 44.7785 19.7997 44.774 19.7269C44.7695 19.6541 44.7281 19.6082 44.7169 19.6149C44.7057 19.6216 44.7169 19.6709 44.7169 19.7269C44.7169 19.7829 44.7158 19.8389 44.7303 19.8445Z" fill="#FF9A6C"/>
<path d="M44.2109 20.3105C44.4325 20.3317 44.6561 20.3142 44.8717 20.259C44.95 20.2333 45.0325 20.2227 45.1148 20.2276C45.1785 20.2417 45.2347 20.2788 45.2727 20.3318C45.3057 20.3845 45.3349 20.4396 45.3601 20.4964C45.3639 20.4286 45.3446 20.3614 45.3052 20.306C45.2649 20.2408 45.2005 20.1942 45.126 20.1761C45.037 20.1657 44.9469 20.1745 44.8617 20.2019C44.5066 20.2825 44.2109 20.2948 44.2109 20.3105Z" fill="#FF9A6C"/>
<path d="M44.0938 20.7088C44.1472 20.7213 44.2027 20.7213 44.2561 20.7088C44.3558 20.6976 44.4902 20.6629 44.6358 20.6338C44.7031 20.6188 44.7719 20.612 44.8408 20.6136C44.8943 20.6146 44.946 20.6335 44.9875 20.6674C45.0246 20.7017 45.0501 20.7467 45.0603 20.7962C45.0603 20.7962 45.0704 20.7816 45.0693 20.7514C45.0647 20.7088 45.0453 20.6691 45.0144 20.6394C44.969 20.5947 44.9089 20.568 44.8453 20.5644C44.7702 20.5592 44.6947 20.5648 44.6213 20.5812C44.4712 20.6103 44.3413 20.6506 44.2449 20.6708C44.1934 20.6783 44.1427 20.691 44.0938 20.7088Z" fill="#FF9A6C"/>
<path d="M44.3513 21.0254C44.3423 21.0321 44.4174 21.1105 44.554 21.1105L44.5271 21.087C44.5271 21.1105 44.5271 21.134 44.535 21.1575C44.5386 21.2536 44.5599 21.3481 44.5977 21.4364C44.6126 21.3419 44.6096 21.2454 44.5887 21.152L44.5787 21.0814V21.0568H44.5551C44.4862 21.0539 44.4179 21.0434 44.3513 21.0254Z" fill="#FF9A6C"/>
<path d="M49.8067 20.7598C49.8067 20.7598 51.2885 21.1182 51.2852 23.0838C51.2818 25.0494 50.8372 26.0193 50.8372 26.0193L48.1055 24.5286L48.7192 23.002L49.8067 20.7598Z" fill="#455A64"/>
<path d="M50.8378 26.0195C50.8182 26.0138 50.7993 26.0055 50.7818 25.9949L50.6228 25.9142L50.0404 25.6074L48.0927 24.5579L48.0703 24.5467L48.0793 24.5232L48.226 24.1402C48.4007 23.6866 48.562 23.2542 48.7188 22.8611C48.795 22.6651 48.8666 22.4781 48.935 22.3011C48.9946 22.1367 49.0668 21.9772 49.1511 21.824C49.2636 21.5948 49.4334 21.3984 49.6439 21.2539C49.703 21.2169 49.7683 21.1908 49.8366 21.1766C49.8539 21.1729 49.8715 21.1707 49.8892 21.1699H49.9082C49.8186 21.1886 49.7332 21.2235 49.6562 21.273C49.4542 21.4208 49.2927 21.6173 49.187 21.8442C49.1065 21.9968 49.0372 22.1552 48.9798 22.3179C48.9137 22.4938 48.8431 22.6808 48.7681 22.8779L48.2798 24.1592L48.133 24.5422L48.1196 24.5064L50.0639 25.5738L50.6374 25.8963L50.7908 25.9859C50.8077 25.9954 50.8234 26.0066 50.8378 26.0195Z" fill="#263238"/>
</svg>
