<svg width="56" height="56" viewBox="0 0 56 56" fill="none" xmlns="http://www.w3.org/2000/svg">
<path d="M33.9454 4.96271C33.3121 4.50887 32.57 4.23056 31.7945 4.15601C31.0189 4.08147 30.2374 4.21333 29.5293 4.53823C22.5371 7.75375 -0.54162 19.1005 4.3203 26.6862C10.0323 35.6014 30.3043 49.6664 37.7377 48.9955C45.1712 48.3246 53.5992 35.8534 51.7064 27.645C50.116 20.748 39.4245 8.90287 33.9454 4.96271Z" fill="#039AE4"/>
<path opacity="0.7" d="M33.9454 4.96271C33.3121 4.50887 32.57 4.23056 31.7945 4.15601C31.0189 4.08147 30.2374 4.21333 29.5293 4.53823C22.5371 7.75375 -0.54162 19.1005 4.3203 26.6862C10.0323 35.6014 30.3043 49.6664 37.7377 48.9955C45.1712 48.3246 53.5992 35.8534 51.7064 27.645C50.116 20.748 39.4245 8.90287 33.9454 4.96271Z" fill="white"/>
<path d="M40.4249 28.2171C40.5962 28.627 41.331 29.2979 41.3321 29.2979C41.3332 29.2979 41.6266 28.6797 41.6401 28.6382C41.798 28.1577 41.8204 27.1352 41.3612 26.8025C41.2835 26.7495 41.1955 26.7134 41.103 26.6965C41.0104 26.6796 40.9154 26.6823 40.8239 26.7045C40.7325 26.7266 40.6468 26.7678 40.5722 26.8252C40.4977 26.8826 40.4361 26.955 40.3913 27.0377C40.1908 27.3838 40.2793 27.8688 40.4249 28.2171Z" fill="#263238"/>
<path d="M52.1854 34.7712C51.8203 34.3377 50.8033 34.4352 50.3352 34.6256C50.2948 34.6424 49.6912 34.9739 49.699 34.9817L49.708 34.9896C49.5467 35.003 49.372 35.0198 49.1872 35.0422C48.84 35.0859 48.4491 35.1385 48.028 35.2236C47.5739 35.3098 47.1252 35.422 46.684 35.5596C46.1887 35.7155 45.7082 35.9149 45.2481 36.1555L45.2313 36.1656C45.3489 36.0468 45.6636 35.7064 45.6849 35.6772C45.9851 35.2696 46.3244 34.3052 45.9929 33.846C45.9356 33.7713 45.8632 33.7095 45.7804 33.6646C45.6977 33.6196 45.6064 33.5926 45.5125 33.5852C45.4187 33.5778 45.3243 33.5902 45.2355 33.6217C45.1467 33.6531 45.0656 33.7028 44.9972 33.7676C44.6982 34.0331 44.6321 34.5214 44.6612 34.8988C44.6948 35.3233 45.1428 36.1308 45.1787 36.1958C44.7162 36.4517 44.271 36.7375 43.8459 37.0515C43.5972 37.234 43.3531 37.4244 43.11 37.6193C43.2075 37.514 43.2948 37.4188 43.3049 37.4043C43.6051 36.9966 43.9433 36.0323 43.6118 35.5731C43.5545 35.4985 43.4821 35.4369 43.3995 35.392C43.3168 35.3472 43.2257 35.3202 43.1319 35.3129C43.0382 35.3055 42.944 35.3178 42.8553 35.3492C42.7666 35.3805 42.6855 35.4301 42.6172 35.4947C42.3182 35.7601 42.251 36.2484 42.2812 36.6259C42.3115 37.0033 42.68 37.7044 42.7796 37.8881L42.5019 38.1121C42.0595 38.4772 41.6204 38.8424 41.178 39.1873C41.0224 39.3094 40.8644 39.4236 40.7076 39.5379C40.7939 39.4449 40.8656 39.3654 40.8756 39.352C41.1758 38.9443 41.5152 37.98 41.1836 37.5208C41.1263 37.4461 41.0539 37.3842 40.9712 37.3393C40.8884 37.2944 40.7971 37.2673 40.7033 37.2599C40.6094 37.2525 40.515 37.2649 40.4262 37.2964C40.3374 37.3278 40.2563 37.3775 40.188 37.4424C39.8889 37.7078 39.8228 38.1961 39.852 38.5724C39.8811 38.9488 40.2148 39.5804 40.3324 39.8044C40.1678 39.9164 40.0032 40.0284 39.8385 40.1326C39.7265 40.1987 39.6145 40.2715 39.5025 40.332L39.1587 40.519C38.9347 40.631 38.7107 40.743 38.4867 40.846C38.3332 40.9188 38.1865 40.9849 38.0387 41.0521C38.1955 40.9323 38.4968 40.6926 38.5192 40.6691C38.8229 40.3435 39.0374 39.945 39.1419 39.5121C39.1774 39.4779 39.2097 39.4404 39.2382 39.4001C39.294 39.3244 39.3333 39.2377 39.3534 39.1458C39.3736 39.0539 39.3743 38.9588 39.3554 38.8667C39.3365 38.7745 39.2985 38.6873 39.2437 38.6108C39.189 38.5342 39.1188 38.4701 39.0377 38.4224C38.5416 38.1502 37.6265 38.6049 37.258 38.9521C37.2368 38.9734 37.0262 39.222 36.8952 39.3811C36.9579 39.2758 37.0195 39.1739 37.0822 39.0652C37.2088 38.8502 37.3275 38.6318 37.4574 38.3932C37.5156 38.2812 37.5694 38.1625 37.6332 38.0449C37.6971 37.9273 37.7452 37.7996 37.8024 37.6764C37.9289 37.3875 38.0432 37.0884 38.1507 36.7804C38.3388 36.8924 39.0142 37.2699 39.3916 37.3102C39.7691 37.3505 40.2574 37.299 40.5318 37.0078C40.5984 36.9413 40.6503 36.8616 40.6841 36.7739C40.718 36.6861 40.733 36.5922 40.7283 36.4982C40.7235 36.4042 40.6991 36.3123 40.6566 36.2284C40.614 36.1445 40.5544 36.0704 40.4814 36.011C40.0334 35.666 39.059 35.9774 38.6424 36.2652C38.6166 36.2832 38.3411 36.5228 38.1944 36.6572C38.2582 36.4747 38.322 36.2921 38.3803 36.1051C38.5494 35.5641 38.7028 35.012 38.8574 34.4609C38.9056 34.2929 38.9548 34.1249 39.0041 33.9569C39.0702 33.9972 39.862 34.4665 40.2854 34.5169C40.6606 34.5572 41.1512 34.5046 41.4256 34.2134C41.4922 34.147 41.5442 34.0674 41.5781 33.9796C41.6121 33.8919 41.6272 33.798 41.6226 33.704C41.6179 33.6101 41.5936 33.5181 41.5512 33.4342C41.5087 33.3502 41.4492 33.2761 41.3763 33.2166C40.9283 32.8716 39.9528 33.183 39.5361 33.4708C39.5048 33.4921 39.1094 33.8382 39.0131 33.9312C39.1251 33.5616 39.2315 33.1942 39.3491 32.8369C39.5142 32.353 39.7102 31.8801 39.936 31.4212C39.9673 31.4403 40.7916 31.9331 41.224 31.9812C41.6003 32.0227 42.0897 31.97 42.3641 31.6788C42.4308 31.6125 42.4828 31.5328 42.5167 31.4451C42.5506 31.3573 42.5658 31.2634 42.5611 31.1695C42.5565 31.0755 42.5322 30.9836 42.4897 30.8996C42.4473 30.8156 42.3877 30.7415 42.3148 30.682C41.8668 30.3371 40.8924 30.6484 40.4758 30.9363C40.4433 30.9587 40.0177 31.3305 39.9449 31.4033C39.9584 31.3776 39.9684 31.3484 39.983 31.3216C40.2226 30.8685 40.5018 30.4375 40.8174 30.0336C40.9888 29.8096 41.1657 29.6024 41.3416 29.4064C41.486 29.5184 42.1502 29.9977 42.5344 30.084C42.9185 30.1702 43.3968 30.1668 43.7014 29.9081C43.775 29.8495 43.8355 29.776 43.879 29.6924C43.9224 29.6089 43.9478 29.5172 43.9535 29.4232C43.9592 29.3292 43.9451 29.2351 43.9121 29.1469C43.8791 29.0587 43.8279 28.9785 43.7619 28.9113C43.3531 28.5193 42.3507 28.722 41.906 28.9617C41.8814 28.9752 41.6496 29.1353 41.4827 29.254C41.5633 29.1667 41.6451 29.0748 41.7246 28.9931C42.0214 28.6828 42.3126 28.4185 42.5713 28.1856C42.7203 28.0545 42.8569 27.9392 42.9857 27.8328C43.1828 27.8641 43.9758 27.9828 44.3499 27.882C44.724 27.7812 45.154 27.5595 45.3041 27.1888C45.3423 27.1028 45.362 27.0098 45.362 26.9158C45.362 26.8217 45.3423 26.7287 45.304 26.6428C45.2658 26.5569 45.21 26.4799 45.1402 26.4169C45.0704 26.3539 44.9881 26.3063 44.8987 26.2771C44.3555 26.1169 43.5547 26.7587 43.2747 27.1731C43.25 27.21 42.9308 27.8193 42.9387 27.8216H42.9499C42.8244 27.9212 42.69 28.0299 42.5456 28.152C42.2801 28.376 41.9856 28.6392 41.6787 28.9427C41.3471 29.2671 41.0345 29.6104 40.7424 29.9708C40.4134 30.3729 40.121 30.8036 39.8688 31.2577C39.8688 31.2577 39.8688 31.2689 39.8609 31.2745C39.8934 31.111 39.9729 30.6529 39.9729 30.6171C39.9976 30.112 39.7489 29.1196 39.218 28.9203C39.1291 28.8898 39.0347 28.8783 38.9411 28.8866C38.8474 28.8949 38.7565 28.9227 38.6743 28.9683C38.592 29.0139 38.5203 29.0763 38.4637 29.1513C38.407 29.2264 38.3668 29.3125 38.3456 29.4041C38.2425 29.7905 38.4576 30.234 38.6894 30.532C38.9515 30.868 39.7713 31.2947 39.8363 31.3283C39.5915 31.7968 39.3778 32.2809 39.1968 32.7776C39.0848 33.0665 38.9907 33.3611 38.8955 33.6568C38.919 33.5156 38.9392 33.388 38.9403 33.37C38.9649 32.8649 38.7163 31.8737 38.1854 31.6732C38.0964 31.6428 38.0021 31.6313 37.9084 31.6396C37.8148 31.6478 37.7239 31.6757 37.6416 31.7213C37.5594 31.7669 37.4877 31.8292 37.431 31.9043C37.3744 31.9794 37.3342 32.0655 37.3129 32.1571C37.2099 32.5435 37.4249 32.9881 37.6568 33.2849C37.8886 33.5817 38.5841 33.9659 38.7689 34.0633C38.7331 34.1753 38.6961 34.2873 38.6569 34.4049C38.4889 34.9526 38.3209 35.5003 38.1462 36.0323C38.0835 36.2193 38.014 36.4019 37.9468 36.5844C37.967 36.4579 37.9838 36.3526 37.9838 36.3358C38.0096 35.8307 37.7598 34.8384 37.23 34.639C37.1412 34.6085 37.0469 34.597 36.9533 34.6052C36.8597 34.6134 36.7688 34.6411 36.6866 34.6866C36.6044 34.7321 36.5326 34.7943 36.4759 34.8693C36.4193 34.9442 36.3789 35.0302 36.3576 35.1217C36.2545 35.5092 36.4696 35.9528 36.7014 36.2507C36.9332 36.5486 37.5616 36.8936 37.78 37.0112C37.7049 37.196 37.6299 37.3808 37.5481 37.5566C37.4899 37.6753 37.4417 37.794 37.3768 37.9105C37.3118 38.027 37.2536 38.1412 37.192 38.2555C37.0676 38.4705 36.9388 38.6934 36.8123 38.9006C36.7238 39.0451 36.6376 39.1806 36.5513 39.3184C36.6163 39.1324 36.735 38.7662 36.7417 38.7348C36.8425 38.2387 36.7417 37.2206 36.2534 36.9428C36.1701 36.8991 36.0785 36.8734 35.9846 36.8673C35.8907 36.8613 35.7965 36.875 35.7083 36.9076C35.62 36.9402 35.5396 36.991 35.4722 37.0567C35.4048 37.1224 35.352 37.2015 35.3171 37.2889C35.1569 37.6552 35.3014 38.1267 35.4862 38.456C35.69 38.8188 36.4035 39.352 36.4942 39.4124C36.3508 39.6364 36.2086 39.8604 36.0708 40.0632C36.0014 40.1673 35.9342 40.2681 35.8681 40.3644L36.1112 40.6209C36.1896 40.5011 36.2702 40.3768 36.3531 40.2468C36.4998 40.0228 36.6521 39.7686 36.8011 39.5121C37.0661 39.6188 37.3373 39.7097 37.6131 39.7843C37.6064 40.211 37.8897 40.9905 37.9267 41.0913C37.6814 41.2033 37.4428 41.3052 37.2155 41.4004C37.1215 41.4345 37.0253 41.4622 36.9276 41.4833L37.1875 41.7555C37.2425 41.7446 37.2965 41.7289 37.3488 41.7084C37.5974 41.5964 37.8617 41.4755 38.1328 41.3456C38.1944 41.4363 38.7028 42.1665 39.0601 42.3804C39.3838 42.5753 39.8508 42.7332 40.2227 42.5832C40.3108 42.5507 40.3912 42.5001 40.4586 42.4347C40.526 42.3692 40.579 42.2903 40.614 42.2032C40.6491 42.116 40.6654 42.0224 40.6621 41.9285C40.6587 41.8346 40.6357 41.7425 40.5945 41.658C40.3313 41.1563 39.3166 41.0308 38.8182 41.1171C38.7891 41.1227 38.4766 41.2134 38.2795 41.275C38.3915 41.2212 38.4968 41.1708 38.6099 41.1148C38.8339 41.0028 39.0579 40.8908 39.2897 40.7643L39.6257 40.5716C39.7377 40.5089 39.8497 40.4283 39.9696 40.3566C40.235 40.1852 40.4948 39.9993 40.7536 39.8056C40.8499 40.0004 41.2016 40.6904 41.495 40.9323C41.7884 41.1742 42.223 41.4004 42.615 41.3086C42.7072 41.29 42.7946 41.2522 42.8713 41.1977C42.948 41.1432 43.0124 41.0732 43.0603 40.9922C43.1083 40.9112 43.1386 40.8211 43.1495 40.7276C43.1604 40.6341 43.1515 40.5394 43.1235 40.4496C42.9387 39.9142 41.9553 39.6364 41.4491 39.6465C41.4177 39.6465 41.056 39.6958 40.8577 39.726C41.0112 39.6084 41.1657 39.492 41.3169 39.3676C41.756 39.0092 42.1894 38.634 42.6228 38.26C42.755 38.148 42.8883 38.036 43.0216 37.924C43.0552 37.9934 43.4572 38.82 43.7843 39.0932C44.0755 39.334 44.5134 39.5614 44.9043 39.4696C44.9965 39.4509 45.0838 39.4132 45.1605 39.3586C45.2373 39.3041 45.3017 39.2341 45.3496 39.1531C45.3975 39.0722 45.4279 38.982 45.4388 38.8885C45.4497 38.7951 45.4408 38.7003 45.4128 38.6105C45.228 38.0752 44.2446 37.7974 43.7328 37.8075C43.6947 37.8075 43.1728 37.8792 43.0417 37.9027C43.3352 37.654 43.6308 37.4088 43.931 37.1792C44.3355 36.8665 44.7597 36.5803 45.2011 36.3224C45.2168 36.3548 45.6323 37.2184 45.9672 37.4995C46.2584 37.7403 46.6963 37.9676 47.0872 37.8758C47.1795 37.8573 47.2669 37.8196 47.3438 37.7652C47.4206 37.7107 47.4852 37.6407 47.5332 37.5597C47.5813 37.4787 47.6117 37.3885 47.6227 37.295C47.6336 37.2015 47.6248 37.1067 47.5968 37.0168C47.412 36.4814 46.4275 36.2036 45.9224 36.2137C45.882 36.2137 45.322 36.291 45.2212 36.3112C45.247 36.2966 45.2716 36.2787 45.2974 36.2641C45.7471 36.0187 46.2179 35.814 46.7041 35.6526C46.9718 35.5585 47.2328 35.4846 47.4881 35.4185C47.5486 35.5876 47.8353 36.3582 48.1097 36.6416C48.3841 36.9249 48.7817 37.187 49.1793 37.1377C49.273 37.1294 49.364 37.1015 49.4462 37.0558C49.5285 37.0101 49.6002 36.9477 49.6568 36.8725C49.7134 36.7973 49.7536 36.7111 49.7748 36.6194C49.7959 36.5278 49.7976 36.4327 49.7796 36.3403C49.6553 35.7881 48.7078 35.404 48.2038 35.3592C48.1758 35.3592 47.8947 35.3592 47.6897 35.3692C47.8017 35.3412 47.9249 35.3099 48.0358 35.2841C48.4536 35.19 48.8422 35.1296 49.1872 35.0792C49.3832 35.0512 49.5612 35.0299 49.7281 35.0131C49.8737 35.1475 50.4707 35.6851 50.838 35.8072C51.2054 35.9292 51.6859 35.9808 52.0163 35.7556C52.0959 35.7054 52.1642 35.639 52.2165 35.5606C52.2688 35.4823 52.3041 35.3939 52.32 35.3011C52.336 35.2082 52.3322 35.1131 52.309 35.0218C52.2858 34.9305 52.2437 34.8451 52.1854 34.7712Z" fill="#263238"/>
<path d="M47.5486 35.3259C47.5486 35.336 48.1366 34.9731 48.1713 34.9463C48.5678 34.6315 49.1491 33.7915 48.9553 33.2663C48.9195 33.1794 48.8658 33.1011 48.7978 33.0362C48.7299 32.9714 48.649 32.9216 48.5606 32.8899C48.4722 32.8582 48.3781 32.8455 48.2844 32.8524C48.1907 32.8594 48.0995 32.8859 48.0167 32.9303C47.6572 33.1083 47.4646 33.5608 47.394 33.9327C47.3067 34.3605 47.5486 35.3259 47.5486 35.3259Z" fill="#263238"/>
<path d="M14.998 28.2171C14.8266 28.627 14.0919 29.2979 14.0919 29.2979C14.0919 29.2979 13.7962 28.6797 13.7828 28.6382C13.6248 28.1577 13.6036 27.1352 14.0616 26.8025C14.1393 26.7495 14.2273 26.7134 14.3199 26.6965C14.4124 26.6796 14.5075 26.6823 14.5989 26.7045C14.6903 26.7266 14.7761 26.7678 14.8506 26.8252C14.9251 26.8826 14.9868 26.955 15.0316 27.0377C15.232 27.3838 15.1436 27.8688 14.998 28.2171Z" fill="#263238"/>
<path d="M3.23788 34.7712C3.603 34.3377 4.62108 34.4352 5.08924 34.6256C5.12956 34.6424 5.73212 34.9739 5.7254 34.9817L5.71644 34.9896C5.8766 35.003 6.05244 35.0198 6.23724 35.0422C6.58332 35.0859 6.9742 35.1385 7.39644 35.2236C7.85048 35.3099 8.29921 35.4221 8.74044 35.5596C9.23631 35.7139 9.71755 35.9118 10.1785 36.151L10.1942 36.1611C10.0822 36.0424 9.76188 35.7019 9.7462 35.6728C9.44716 35.2651 9.1078 34.3008 9.43932 33.8416C9.49665 33.767 9.56898 33.7054 9.65164 33.6605C9.73429 33.6157 9.82544 33.5887 9.91918 33.5813C10.0129 33.5739 10.1072 33.5863 10.1958 33.6176C10.2845 33.649 10.3656 33.6985 10.4339 33.7632C10.7329 34.0286 10.8001 34.5169 10.7699 34.8944C10.7363 35.3188 10.2883 36.1264 10.2524 36.1913C10.715 36.4469 11.1603 36.7328 11.5852 37.047C11.8339 37.2296 12.0792 37.42 12.3222 37.6148C12.2236 37.5096 12.1374 37.4144 12.1273 37.3998C11.8272 36.9921 11.4878 36.0278 11.8193 35.5686C11.8766 35.4939 11.949 35.4321 12.0318 35.3871C12.1146 35.3422 12.2058 35.3152 12.2997 35.3078C12.3936 35.3004 12.488 35.3128 12.5767 35.3442C12.6655 35.3756 12.7467 35.4254 12.815 35.4902C13.114 35.7556 13.1801 36.244 13.151 36.6214C13.1219 36.9988 12.7523 37.7 12.6526 37.8836L12.9292 38.1076C13.3772 38.4728 13.8118 38.8379 14.2531 39.1828C14.4088 39.3049 14.5667 39.4192 14.7246 39.5334C14.6384 39.4404 14.5656 39.3609 14.5555 39.3475C14.2564 38.9398 13.9171 37.9755 14.2486 37.5163C14.3059 37.4417 14.3783 37.3801 14.4609 37.3352C14.5436 37.2904 14.6347 37.2634 14.7285 37.2561C14.8222 37.2487 14.9164 37.261 15.0051 37.2924C15.0938 37.3237 15.1749 37.3733 15.2432 37.4379C15.5422 37.7033 15.6094 38.1916 15.5792 38.568C15.5489 38.9443 15.2163 39.576 15.0987 39.8C15.2633 39.912 15.4347 40.024 15.5937 40.1281C15.7057 40.1942 15.8177 40.267 15.9297 40.3275L16.2747 40.5145C16.4987 40.6265 16.7227 40.7385 16.9467 40.8416C17.099 40.9144 17.2457 40.9804 17.3947 41.0476C17.239 40.9278 16.9377 40.6881 16.9142 40.6646C16.6113 40.3384 16.3969 39.9401 16.2915 39.5076C16.2563 39.4734 16.2244 39.4359 16.1963 39.3956C16.1404 39.32 16.1011 39.2334 16.0808 39.1415C16.0606 39.0497 16.0598 38.9546 16.0786 38.8624C16.0974 38.7703 16.1353 38.6831 16.1899 38.6065C16.2445 38.5299 16.3146 38.4657 16.3956 38.4179C16.8929 38.1457 17.808 38.6004 18.1753 38.9476C18.1977 38.9689 18.4083 39.2176 18.5382 39.3766C18.4755 39.2713 18.4139 39.1694 18.3512 39.0608C18.2257 38.8457 18.1059 38.6273 17.9771 38.3888L17.8001 38.0404C17.7385 37.9284 17.6881 37.7952 17.631 37.672C17.5056 37.383 17.3913 37.084 17.2827 36.776C17.0945 36.888 16.4203 37.2654 16.0428 37.3057C15.6654 37.346 15.1771 37.2945 14.9027 37.0033C14.836 36.9369 14.784 36.8573 14.7501 36.7696C14.7162 36.6818 14.701 36.5879 14.7057 36.494C14.7103 36.4 14.7346 36.3081 14.7771 36.2241C14.8195 36.1401 14.8791 36.066 14.952 36.0065C15.4 35.6616 16.3755 35.9729 16.791 36.2608C16.8179 36.2787 17.0934 36.5184 17.239 36.6528C17.1763 36.4702 17.1113 36.2876 17.0531 36.1006C16.8851 35.5596 16.7316 35.0075 16.576 34.4564C16.5289 34.2884 16.4785 34.1204 16.4304 33.9524C16.3632 33.9928 15.5713 34.462 15.1491 34.5124C14.7728 34.5528 14.2833 34.5001 14.0089 34.2089C13.9423 34.1425 13.8903 34.0629 13.8563 33.9752C13.8224 33.8874 13.8073 33.7935 13.8119 33.6996C13.8166 33.6056 13.8409 33.5137 13.8833 33.4297C13.9257 33.3457 13.9853 33.2716 14.0582 33.2121C14.5062 32.8672 15.4817 33.1785 15.8972 33.4664C15.9286 33.4876 16.3251 33.8337 16.4214 33.9267C16.3094 33.5571 16.203 33.1897 16.0787 32.8324C15.914 32.3483 15.718 31.8754 15.4918 31.4168C15.4616 31.4358 14.6372 31.9286 14.2038 31.9768C13.8286 32.0182 13.338 31.9656 13.0636 31.6744C12.997 31.608 12.945 31.5283 12.9111 31.4406C12.8771 31.3529 12.862 31.259 12.8666 31.165C12.8713 31.071 12.8956 30.9791 12.938 30.8951C12.9805 30.8112 13.04 30.737 13.1129 30.6776C13.5609 30.3326 14.5364 30.644 14.9531 30.9318C14.9856 30.9542 15.4112 31.326 15.4828 31.3988C15.4705 31.3731 15.4593 31.344 15.4459 31.3171C15.2063 30.864 14.927 30.433 14.6115 30.0291C14.4401 29.8051 14.2632 29.5979 14.0862 29.4019C13.9428 29.5139 13.2787 29.9932 12.8934 30.0795C12.5249 30.1612 12.0321 30.1624 11.7275 29.9036C11.6538 29.845 11.5933 29.7715 11.5499 29.688C11.5065 29.6044 11.4811 29.5127 11.4754 29.4187C11.4697 29.3247 11.4838 29.2306 11.5168 29.1424C11.5498 29.0542 11.601 28.974 11.667 28.9068C12.0758 28.5148 13.0771 28.7176 13.5228 28.9572C13.5475 28.9707 13.7782 29.1308 13.9451 29.2496C13.8644 29.1622 13.7827 29.0704 13.7032 28.9886C13.4075 28.6784 13.1163 28.414 12.8564 28.1811C12.7086 28.05 12.572 27.9347 12.442 27.8283C12.246 27.8596 11.452 27.9784 11.0779 27.8776C10.7038 27.7768 10.2748 27.555 10.1236 27.1843C10.0862 27.0986 10.067 27.0061 10.0673 26.9127C10.0676 26.8192 10.0875 26.7268 10.1255 26.6414C10.1636 26.556 10.219 26.4795 10.2883 26.4168C10.3576 26.3541 10.4392 26.3065 10.528 26.2771C11.0723 26.1169 11.872 26.7587 12.152 27.1731C12.1766 27.21 12.4969 27.8193 12.488 27.8216H12.4756C12.6022 27.9212 12.7366 28.0299 12.8811 28.152C13.1454 28.376 13.4411 28.6392 13.748 28.9427C14.0792 29.2672 14.3914 29.6105 14.6832 29.9708C15.0121 30.3729 15.3045 30.8036 15.5568 31.2577C15.56 31.263 15.5627 31.2686 15.5646 31.2745C15.5321 31.111 15.4526 30.6529 15.4526 30.6171C15.428 30.112 15.6766 29.1196 16.2064 28.9203C16.2954 28.8896 16.3899 28.878 16.4837 28.8862C16.5774 28.8944 16.6685 28.9222 16.7508 28.9678C16.8332 29.0134 16.9051 29.0758 16.9618 29.151C17.0185 29.2261 17.0587 29.3124 17.08 29.4041C17.1819 29.7905 16.968 30.234 16.7361 30.532C16.4729 30.868 15.6542 31.2947 15.5881 31.3283C15.8333 31.7968 16.0473 32.2809 16.2288 32.7776C16.3352 33.0665 16.4337 33.3611 16.5289 33.6568C16.5065 33.5156 16.4864 33.388 16.4852 33.37C16.4606 32.8649 16.7092 31.8737 17.239 31.6732C17.328 31.6426 17.4225 31.6309 17.5163 31.6391C17.6101 31.6473 17.7011 31.6751 17.7835 31.7207C17.8659 31.7663 17.9377 31.8288 17.9944 31.9039C18.0511 31.9791 18.0914 32.0654 18.1126 32.1571C18.2156 32.5435 18.0006 32.9881 17.7688 33.2849C17.5369 33.5817 16.8414 33.9659 16.6566 34.0633C16.6924 34.1753 16.7283 34.2873 16.7686 34.4049C16.9366 34.9526 17.1046 35.5003 17.2804 36.0323C17.3432 36.2193 17.4115 36.4019 17.4798 36.5844C17.4585 36.4579 17.4428 36.3526 17.4417 36.3358C17.4171 35.8307 17.6657 34.8384 18.1955 34.639C18.2844 34.6083 18.3788 34.5967 18.4726 34.6048C18.5663 34.6129 18.6573 34.6406 18.7396 34.6861C18.822 34.7316 18.8939 34.7939 18.9506 34.8689C19.0074 34.944 19.0477 35.0301 19.0691 35.1217C19.1721 35.5092 18.9571 35.9528 18.7252 36.2507C18.4934 36.5486 17.8651 36.8936 17.6467 37.0112C17.7217 37.196 17.7968 37.3808 17.8785 37.5566C17.9368 37.6753 17.9838 37.794 18.0488 37.9105C18.1137 38.027 18.1731 38.1412 18.2336 38.2555C18.359 38.4705 18.4867 38.6934 18.6144 38.9006C18.7017 39.0451 18.788 39.1806 18.8742 39.3184C18.8092 39.1324 18.6905 38.7662 18.6849 38.7348C18.583 38.2387 18.6849 37.2206 19.1732 36.9428C19.2565 36.8993 19.348 36.8737 19.4418 36.8678C19.5356 36.8618 19.6296 36.8756 19.7177 36.9082C19.8058 36.9408 19.8861 36.9915 19.9534 37.0571C20.0207 37.1227 20.0735 37.2017 20.1084 37.2889C20.2686 37.6552 20.1252 38.1267 19.9404 38.456C19.7366 38.8188 19.0232 39.352 18.9324 39.4124C19.0758 39.6364 19.218 39.8604 19.3547 40.0632C19.4241 40.1673 19.4924 40.2681 19.5585 40.3644L19.3155 40.6209C19.236 40.5011 19.1564 40.3768 19.0736 40.2468C18.9268 40.0228 18.7745 39.7686 18.62 39.5121C18.355 39.619 18.0838 39.7099 17.808 39.7843C17.8158 40.211 17.5324 40.9905 17.4944 41.0913C17.7396 41.2033 17.9793 41.3052 18.2067 41.4004C18.3003 41.4345 18.3961 41.4622 18.4934 41.4833L18.2347 41.7555C18.1796 41.7448 18.1256 41.729 18.0734 41.7084C17.8236 41.5964 17.5593 41.4755 17.2894 41.3456C17.2278 41.4363 16.7204 42.1665 16.3632 42.3804C16.0384 42.5753 15.5713 42.7332 15.2006 42.5832C15.1123 42.5508 15.0318 42.5003 14.9643 42.4349C14.8968 42.3695 14.8437 42.2907 14.8086 42.2035C14.7734 42.1163 14.757 42.0227 14.7602 41.9287C14.7635 41.8348 14.7865 41.7426 14.8276 41.658C15.092 41.1563 16.1056 41.0308 16.604 41.1171C16.6342 41.1227 16.9467 41.2134 17.1427 41.275C17.0307 41.2212 16.9254 41.1708 16.8134 41.1148C16.5894 41.0028 16.3654 40.8908 16.1336 40.7643L15.7976 40.5716C15.6856 40.5089 15.5736 40.4283 15.4526 40.3566C15.1883 40.1852 14.9284 39.9993 14.6686 39.8056C14.5723 40.0004 14.2206 40.6904 13.9272 40.9323C13.6337 41.1742 13.198 41.4004 12.8072 41.3086C12.7149 41.29 12.6276 41.2522 12.5509 41.1977C12.4742 41.1432 12.4098 41.0732 12.3618 40.9922C12.3139 40.9112 12.2835 40.8211 12.2726 40.7276C12.2618 40.6341 12.2706 40.5394 12.2987 40.4496C12.4835 39.9142 13.4668 39.6364 13.9787 39.6465C14.01 39.6465 14.3729 39.6958 14.5712 39.726C14.4166 39.6084 14.2632 39.492 14.1108 39.3676C13.6718 39.0092 13.2395 38.634 12.806 38.26C12.6739 38.148 12.5395 38.036 12.4062 37.924C12.3726 37.9934 11.9705 38.82 11.6435 39.0932C11.3523 39.334 10.9155 39.5614 10.5235 39.4696C10.4312 39.4509 10.3439 39.4132 10.2672 39.3586C10.1905 39.3041 10.1261 39.2341 10.0782 39.1531C10.0302 39.0722 9.99983 38.982 9.98895 38.8885C9.97807 38.7951 9.98695 38.7003 10.015 38.6105C10.1998 38.0752 11.1832 37.7974 11.695 37.8075C11.7331 37.8075 12.255 37.8792 12.3849 37.9027C12.0915 37.654 11.7969 37.4088 11.4956 37.1792C11.0916 36.866 10.6673 36.5798 10.2256 36.3224C10.211 36.3548 9.79548 37.2184 9.45948 37.4995C9.1694 37.7403 8.73148 37.9676 8.33948 37.8758C8.24724 37.8572 8.15993 37.8194 8.08322 37.7649C8.0065 37.7104 7.94209 37.6404 7.89416 37.5594C7.84623 37.4784 7.81583 37.3883 7.80495 37.2948C7.79407 37.2013 7.80295 37.1066 7.831 37.0168C8.0158 36.4814 8.99916 36.2036 9.511 36.2137C9.5502 36.2137 10.1113 36.291 10.2121 36.3112L10.1348 36.2641C9.6853 36.0177 9.2145 35.8123 8.72812 35.6504C8.46044 35.5563 8.19948 35.4824 7.94412 35.4163C7.88364 35.5854 7.59692 36.356 7.32364 36.6393C7.05036 36.9227 6.65164 37.1848 6.25292 37.1355C6.15929 37.127 6.06848 37.099 5.98636 37.0533C5.90423 37.0075 5.83262 36.945 5.77615 36.8699C5.71968 36.7947 5.6796 36.7086 5.65851 36.617C5.63742 36.5253 5.63579 36.4303 5.65372 36.338C5.77804 35.7859 6.72556 35.4017 7.22956 35.3569C7.25644 35.3569 7.53756 35.3569 7.74252 35.367C7.63052 35.339 7.50844 35.3076 7.39644 35.2819C6.97868 35.1878 6.59004 35.1273 6.2462 35.0769C6.04908 35.0489 5.87212 35.0276 5.70524 35.0108C5.55852 35.1452 4.96156 35.6828 4.5942 35.8049C4.22684 35.927 3.74636 35.9785 3.41596 35.7534C3.33594 35.7039 3.26722 35.6381 3.21425 35.5603C3.16127 35.4825 3.12522 35.3945 3.10844 35.3019C3.09165 35.2093 3.0945 35.1142 3.11679 35.0228C3.13909 34.9314 3.18035 34.8456 3.23788 34.7712Z" fill="#263238"/>
<path d="M7.87507 35.3259C7.87507 35.336 7.28707 34.9731 7.25347 34.9463C6.85699 34.6315 6.27459 33.7915 6.46947 33.2663C6.5053 33.1794 6.55894 33.1011 6.62692 33.0362C6.69491 32.9714 6.77573 32.9216 6.86416 32.8899C6.9526 32.8582 7.0467 32.8455 7.14037 32.8524C7.23405 32.8594 7.32523 32.8859 7.40803 32.9303C7.76643 33.1083 7.96019 33.5608 8.03075 33.9327C8.11811 34.3605 7.87507 35.3259 7.87507 35.3259Z" fill="#263238"/>
<path d="M27.9505 51.4987C32.7356 51.4987 36.6148 51.0299 36.6148 50.4515C36.6148 49.8731 32.7356 49.4043 27.9505 49.4043C23.1653 49.4043 19.2861 49.8731 19.2861 50.4515C19.2861 51.0299 23.1653 51.4987 27.9505 51.4987Z" fill="#263238"/>
<path d="M49.7121 44.7695H44.0068V46.7833H49.7121V44.7695Z" stroke="#263238" stroke-linecap="round" stroke-linejoin="round"/>
<path d="M49.5324 46.7793H44.1855V50.0217H49.5324V46.7793Z" stroke="#263238" stroke-linecap="round" stroke-linejoin="round"/>
<path d="M47.4723 44.7793H46.2471V50.05H47.4723V44.7793Z" stroke="#263238" stroke-linecap="round" stroke-linejoin="round"/>
<path d="M46.816 44.7682C46.816 44.7682 46.2034 43.4802 45.4855 43.628C44.7675 43.7759 45.1282 44.832 46.816 44.7682Z" stroke="#263238" stroke-linecap="round" stroke-linejoin="round"/>
<path d="M46.8691 44.7682C46.8691 44.7682 47.4818 43.4802 48.1997 43.628C48.9176 43.7759 48.5592 44.832 46.8691 44.7682Z" stroke="#263238" stroke-linecap="round" stroke-linejoin="round"/>
<path d="M48.4664 42.043C48.5078 42.3386 48.36 42.6556 47.9164 42.846C47.4729 43.0364 47.2444 42.51 46.7763 42.9938C46.3081 43.4777 46.8692 44.7679 46.8692 44.7679C46.8692 44.7679 48.4025 44.5574 48.4664 45.1487C48.5302 45.7401 48.043 46.0145 48.192 46.374C48.3409 46.7335 48.8046 46.4793 48.846 46.0783" stroke="#263238" stroke-linecap="round" stroke-linejoin="round"/>
<path d="M47.9162 10.2416C49.5257 10.2416 50.8304 8.93682 50.8304 7.32733C50.8304 5.71784 49.5257 4.41309 47.9162 4.41309C46.3067 4.41309 45.002 5.71784 45.002 7.32733C45.002 8.93682 46.3067 10.2416 47.9162 10.2416Z" stroke="#263238" stroke-linecap="round" stroke-linejoin="round"/>
<path d="M47.9359 9.68818V9.29618C47.6111 9.28274 47.3703 9.17746 47.2113 8.97922C47.0523 8.78098 46.9649 8.49986 46.9492 8.13474L47.5529 8.02274C47.5566 8.14975 47.5724 8.27613 47.5999 8.40018C47.6197 8.49825 47.6663 8.58894 47.7343 8.66226C47.7665 8.6933 47.8046 8.71746 47.8464 8.73325C47.8882 8.74905 47.9327 8.75614 47.9774 8.7541C48.023 8.75839 48.0691 8.75146 48.1114 8.73389C48.1538 8.71632 48.1912 8.68865 48.2204 8.6533C48.2717 8.57746 48.2972 8.48715 48.2932 8.3957C48.3006 8.2506 48.2614 8.10694 48.1812 7.98578C48.0938 7.8675 47.9931 7.75964 47.8811 7.66434L47.395 7.23986C47.3106 7.16466 47.2333 7.0818 47.1643 6.99234C47.0974 6.90326 47.0448 6.80424 47.0086 6.6989C46.9683 6.57645 46.949 6.44809 46.9515 6.31922C46.9444 6.1964 46.9625 6.07344 47.0047 5.95788C47.0469 5.84232 47.1122 5.7366 47.1967 5.64722C47.3759 5.47879 47.6117 5.38367 47.8575 5.38066V5.00098H48.0614V5.37618C48.2001 5.37994 48.3359 5.4164 48.4579 5.48258C48.5578 5.54084 48.6426 5.62179 48.7054 5.7189C48.7682 5.82052 48.814 5.93175 48.8409 6.04818C48.8715 6.17034 48.8895 6.29531 48.8947 6.42114L48.2999 6.5253C48.2956 6.41664 48.2833 6.30845 48.263 6.20162C48.249 6.11853 48.2121 6.04098 48.1566 5.97762C48.1271 5.94948 48.0916 5.92833 48.0529 5.91573C48.0141 5.90313 47.973 5.8994 47.9326 5.90482C47.8869 5.90328 47.8415 5.91181 47.7995 5.92982C47.7574 5.94782 47.7199 5.97484 47.6895 6.00898C47.6324 6.07934 47.6029 6.16816 47.6067 6.25874C47.6018 6.37477 47.6331 6.48945 47.6963 6.5869C47.7623 6.6768 47.8374 6.75973 47.9203 6.83442L48.4019 7.25442C48.5026 7.34642 48.5966 7.44562 48.683 7.55122C48.77 7.65977 48.8399 7.78102 48.8902 7.91074C48.9433 8.05403 48.9695 8.20592 48.9675 8.35874C48.9703 8.51651 48.9357 8.67271 48.8667 8.81458C48.8009 8.94527 48.7026 9.05677 48.5811 9.13826C48.4491 9.22335 48.2984 9.27488 48.142 9.28834V9.68818H47.9359Z" fill="#263238"/>
<path d="M10.8167 7.26366C11.3353 7.14267 11.6577 6.62415 11.5367 6.10549C11.4157 5.58683 10.8972 5.26445 10.3786 5.38544C9.85991 5.50642 9.53753 6.02495 9.65851 6.5436C9.77949 7.06226 10.298 7.38464 10.8167 7.26366Z" stroke="#263238" stroke-linecap="round" stroke-linejoin="round"/>
<path d="M11.976 9.09767C11.9503 8.21287 11.3432 7.50391 10.5973 7.50391C9.85141 7.50391 9.24549 8.21287 9.21973 9.09767" stroke="#263238" stroke-linecap="round" stroke-linejoin="round"/>
<path d="M12.8146 6.96224C13.2575 6.96224 13.6165 6.60321 13.6165 6.16032C13.6165 5.71743 13.2575 5.3584 12.8146 5.3584C12.3717 5.3584 12.0127 5.71743 12.0127 6.16032C12.0127 6.60321 12.3717 6.96224 12.8146 6.96224Z" stroke="#263238" stroke-linecap="round" stroke-linejoin="round"/>
<path d="M13.9595 8.4667C13.9383 7.72751 13.4399 7.14062 12.8149 7.14062C12.6118 7.14788 12.4146 7.21058 12.2446 7.32193C12.0746 7.43328 11.9384 7.58903 11.8506 7.77231" stroke="#263238" stroke-linecap="round" stroke-linejoin="round"/>
<path d="M8.40641 6.96224C8.8493 6.96224 9.20833 6.60321 9.20833 6.16032C9.20833 5.71743 8.8493 5.3584 8.40641 5.3584C7.96352 5.3584 7.60449 5.71743 7.60449 6.16032C7.60449 6.60321 7.96352 6.96224 8.40641 6.96224Z" stroke="#263238" stroke-linecap="round" stroke-linejoin="round"/>
<path d="M7.26172 8.4667C7.27964 7.72751 7.787 7.14062 8.40636 7.14062C8.60945 7.14841 8.8066 7.21131 8.97667 7.32259C9.14675 7.43387 9.28333 7.58933 9.3718 7.77231" stroke="#263238" stroke-linecap="round" stroke-linejoin="round"/>
<path d="M10.3431 49.063C11.9322 48.8074 13.0131 47.3119 12.7574 45.7229C12.5018 44.1338 11.0063 43.0529 9.41728 43.3086C7.82822 43.5642 6.7473 45.0597 7.00296 46.6487C7.25862 48.2378 8.75406 49.3187 10.3431 49.063Z" stroke="#263238" stroke-linecap="round" stroke-linejoin="round"/>
<path d="M9.87695 44.5479V47.8272" stroke="#263238" stroke-width="4" stroke-linecap="round" stroke-linejoin="round"/>
<path d="M11.5167 46.1875H8.2373" stroke="#263238" stroke-width="4" stroke-linecap="round" stroke-linejoin="round"/>
<path d="M37.1386 10.1128V44.1003C37.1386 44.5483 36.9606 44.9778 36.6439 45.2946C36.3271 45.6113 35.8975 45.7893 35.4496 45.7893H20.7642C20.3162 45.7893 19.8866 45.6113 19.5699 45.2946C19.2531 44.9778 19.0752 44.5483 19.0752 44.1003V10.1128C19.0752 9.66505 19.253 9.23563 19.5695 8.91892C19.886 8.60221 20.3153 8.42413 20.763 8.42384H27.0664L27.072 8.444C27.2288 9.004 27.5906 9.37696 27.9915 9.37696H28.2155C28.6176 9.37696 28.9794 9.00848 29.1362 8.444L29.1418 8.42384H35.444C35.6663 8.4231 35.8865 8.46624 36.0921 8.55079C36.2976 8.63534 36.4845 8.75963 36.6419 8.91654C36.7993 9.07345 36.9242 9.25988 37.0095 9.46516C37.0947 9.67044 37.1386 9.89053 37.1386 10.1128Z" fill="white" stroke="#263238" stroke-linecap="round" stroke-linejoin="round"/>
<path d="M38.287 18.2309V14.8362H37.9801V10.4906C37.9801 9.78004 37.6979 9.09861 37.1954 8.5962C36.693 8.09378 36.0116 7.81152 35.3011 7.81152H20.9124C20.2019 7.81152 19.5205 8.09378 19.0181 8.5962C18.5157 9.09861 18.2334 9.78004 18.2334 10.4906V45.0235C18.2334 45.734 18.5157 46.4155 19.0181 46.9179C19.5205 47.4203 20.2019 47.7026 20.9124 47.7026H35.3011C36.0116 47.7026 36.693 47.4203 37.1954 46.9179C37.6979 46.4155 37.9801 45.734 37.9801 45.0235V21.1238H38.287V19.1179H37.9801V18.2309H38.287ZM37.139 43.1106C37.1387 43.821 36.8564 44.5022 36.354 45.0046C35.8516 45.507 35.1704 45.7893 34.46 45.7896H21.7547C21.0442 45.7896 20.3627 45.5073 19.8603 45.0049C19.3579 44.5025 19.0756 43.8211 19.0756 43.1106V11.1032C19.0756 10.3927 19.3579 9.71125 19.8603 9.20884C20.3627 8.70642 21.0442 8.42416 21.7547 8.42416H27.0668L27.0724 8.44432C27.2292 9.00432 27.591 9.37728 27.992 9.37728H28.216C28.618 9.37728 28.9798 9.0088 29.1366 8.44432L29.1422 8.42416H34.4544C34.8066 8.42357 35.1555 8.49243 35.4811 8.62678C35.8067 8.76114 36.1027 8.95837 36.352 9.20718C36.6014 9.456 36.7992 9.75152 36.9342 10.0769C37.0693 10.4022 37.1389 10.751 37.139 11.1032V43.1106Z" fill="#039AE4" stroke="#263238" stroke-linecap="round" stroke-linejoin="round"/>
<path d="M35.0875 8.18066H21.1278C20.7885 8.18066 20.4525 8.2475 20.139 8.37735C19.8255 8.5072 19.5407 8.69752 19.3007 8.93745C19.0608 9.17738 18.8705 9.46223 18.7406 9.77571C18.6108 10.0892 18.5439 10.4252 18.5439 10.7645V44.7498C18.5439 45.4351 18.8162 46.0923 19.3007 46.5768C19.7853 47.0614 20.4425 47.3336 21.1278 47.3336H35.0875C35.4267 47.3336 35.7627 47.2668 36.0761 47.1369C36.3895 47.0071 36.6743 46.8167 36.9141 46.5768C37.154 46.3368 37.3442 46.052 37.4739 45.7385C37.6036 45.425 37.6703 45.089 37.6702 44.7498V10.7645C37.6703 10.4252 37.6036 10.0893 37.4739 9.7758C37.3442 9.46232 37.154 9.17747 36.9141 8.93752C36.6743 8.69757 36.3895 8.50723 36.0761 8.37737C35.7627 8.24751 35.4267 8.18066 35.0875 8.18066ZM37.1393 43.2053C37.1393 43.8906 36.8671 44.5478 36.3825 45.0324C35.898 45.5169 35.2407 45.7891 34.5555 45.7891H21.6598C20.9745 45.7891 20.3173 45.5169 19.8327 45.0324C19.3482 44.5478 19.0759 43.8906 19.0759 43.2053V11.0064C19.0759 10.3214 19.3481 9.66452 19.8324 9.18017C20.3168 8.69581 20.9737 8.4237 21.6587 8.4237H27.0671L27.0727 8.44386C27.2295 9.00386 27.5913 9.37682 27.9923 9.37682H28.2163C28.6183 9.37682 28.9801 9.00834 29.1369 8.44386L29.1425 8.4237H34.5499C34.8897 8.42297 35.2262 8.48926 35.5404 8.61878C35.8545 8.7483 36.14 8.93851 36.3805 9.17851C36.6211 9.41852 36.8119 9.7036 36.9421 10.0175C37.0723 10.3313 37.1393 10.6678 37.1393 11.0075V43.2053Z" fill="#263238" stroke="#263238" stroke-linecap="round" stroke-linejoin="round"/>
<path d="M28.3038 8.55292C28.304 8.50299 28.2894 8.45411 28.2618 8.4125C28.2342 8.37089 28.1948 8.33841 28.1488 8.3192C28.1027 8.29999 28.0519 8.2949 28.0029 8.30459C27.9539 8.31428 27.9089 8.3383 27.8736 8.37361C27.8383 8.40892 27.8143 8.45393 27.8046 8.50292C27.7949 8.5519 27.8 8.60266 27.8192 8.64876C27.8384 8.69485 27.8709 8.73419 27.9125 8.7618C27.9541 8.7894 28.003 8.80402 28.0529 8.8038C28.1195 8.8038 28.1833 8.77737 28.2303 8.73032C28.2774 8.68327 28.3038 8.61946 28.3038 8.55292Z" fill="white"/>
<path d="M20.6805 9.51958C20.6805 9.77382 20.3949 9.86566 20.3937 10.0594V10.0729H20.6715V10.1591H20.3008V10.0796C20.3008 9.80742 20.5864 9.75366 20.5864 9.51958C20.5864 9.43334 20.5584 9.38742 20.4878 9.38742C20.4173 9.38742 20.3893 9.4367 20.3893 9.51174V9.58678H20.3008V9.51958C20.3008 9.39078 20.3601 9.30566 20.4901 9.30566C20.62 9.30566 20.6805 9.38742 20.6805 9.51958Z" fill="#263238"/>
<path d="M21.1428 9.5193V9.54058C21.1471 9.57682 21.1394 9.61348 21.1208 9.64487C21.1021 9.67626 21.0737 9.70062 21.0398 9.71418C21.0738 9.72814 21.1024 9.75292 21.121 9.78469C21.1396 9.81646 21.1473 9.85347 21.1428 9.89002V9.95498C21.1428 10.0838 21.0823 10.1678 20.9524 10.1678C20.8225 10.1678 20.7631 10.0838 20.7631 9.95498V9.89674H20.8505V9.96058C20.8505 10.0367 20.8818 10.0827 20.9502 10.0827C21.0185 10.0827 21.0487 10.0379 21.0487 9.95274V9.88666C21.0487 9.80378 21.014 9.76458 20.9423 9.76122H20.8919V9.67722H20.9434C20.9577 9.67729 20.9719 9.67436 20.9849 9.66862C20.998 9.66288 21.0097 9.65445 21.0193 9.64389C21.0289 9.63334 21.0362 9.62088 21.0407 9.60732C21.0452 9.59377 21.0468 9.57942 21.0454 9.56522V9.5193C21.0454 9.43306 21.0151 9.38826 20.9468 9.38826C20.8785 9.38826 20.8471 9.4353 20.8471 9.51146V9.55514H20.7598V9.5193C20.7598 9.3905 20.8202 9.30762 20.949 9.30762C21.0778 9.30762 21.1428 9.38602 21.1428 9.5193Z" fill="#263238"/>
<path d="M21.325 9.5791V9.6911H21.2354V9.5791H21.325ZM21.325 10.0383V10.1559H21.2354V10.0383H21.325Z" fill="#263238"/>
<path d="M21.5165 9.65536C21.5288 9.63313 21.547 9.61481 21.5692 9.60252C21.5914 9.59023 21.6166 9.58448 21.642 9.58592C21.754 9.58592 21.7976 9.66544 21.7976 9.78528V9.95104C21.7976 10.0798 21.7372 10.1638 21.6072 10.1638C21.4773 10.1638 21.418 10.0798 21.418 9.95104V9.89392H21.5042V9.95664C21.5042 10.0328 21.5356 10.0787 21.6028 10.0787C21.67 10.0787 21.7024 10.0328 21.7024 9.95664V9.79312C21.7024 9.71696 21.6711 9.67104 21.6028 9.67104C21.5905 9.67059 21.5783 9.6726 21.5669 9.67694C21.5554 9.68129 21.5449 9.68788 21.536 9.69634C21.5272 9.70479 21.5201 9.71493 21.5152 9.72617C21.5103 9.73741 21.5077 9.74951 21.5076 9.76176V9.7808H21.4202L21.4426 9.31152H21.7786V9.39552H21.53L21.5165 9.65536Z" fill="#263238"/>
<path d="M22.2664 9.51987V9.53555H22.1757V9.50867C22.1757 9.43251 22.1443 9.38771 22.076 9.38771C22.0077 9.38771 21.973 9.43363 21.973 9.52435V9.71363C21.9827 9.68566 22.0013 9.66164 22.026 9.64525C22.0507 9.62887 22.0801 9.62102 22.1096 9.62291C22.2216 9.62291 22.2664 9.70131 22.2664 9.82339V9.95107C22.2664 10.0799 22.2015 10.1639 22.0727 10.1639C21.9439 10.1639 21.8789 10.0799 21.8789 9.95107V9.51987C21.8789 9.38659 21.9394 9.30371 22.0727 9.30371C22.2059 9.30371 22.2664 9.38547 22.2664 9.51987ZM21.9763 9.83571V9.95667C21.9763 10.0328 22.0077 10.0788 22.076 10.0788C22.1443 10.0788 22.1768 10.0328 22.1768 9.95667V9.83011C22.1768 9.75395 22.1443 9.70803 22.076 9.70803C22.0077 9.70803 21.9763 9.75395 21.9763 9.83011V9.83571Z" fill="#263238"/>
<path d="M31.4817 9.55078H31.2432V10.1466H31.4817V9.55078Z" fill="#263238"/>
<path d="M31.8001 9.43262H31.5615V10.1483H31.8001V9.43262Z" fill="#263238"/>
<path d="M32.1165 9.34668H31.8779V10.1464H32.1165V9.34668Z" fill="#263238"/>
<path d="M32.4348 9.19922H32.1963V10.1467H32.4348V9.19922Z" fill="#263238"/>
<path d="M35.3843 10.1295H33.9541V9.25586H35.3843V10.1295ZM34.0336 10.0511H35.3048V9.33538H34.0336V10.0511Z" fill="#263238"/>
<path d="M34.9082 9.42188H34.1533V9.96396H34.9082V9.42188Z" fill="#263238"/>
<path d="M35.5153 9.58984H35.335V9.79592H35.5153V9.58984Z" fill="#263238"/>
<path d="M33.4292 9.94032C33.4196 9.94036 33.4103 9.93763 33.4023 9.93248C33.1111 9.76 32.9185 9.92016 32.9106 9.93248C32.9057 9.93745 32.8999 9.94141 32.8934 9.94411C32.887 9.9468 32.8801 9.94819 32.8731 9.94819C32.8661 9.94819 32.8592 9.9468 32.8528 9.94411C32.8463 9.94141 32.8405 9.93745 32.8356 9.93248C32.8258 9.92244 32.8203 9.90897 32.8203 9.89496C32.8203 9.88094 32.8258 9.86748 32.8356 9.85744C32.8468 9.84848 33.0921 9.63344 33.4527 9.85744C33.4587 9.861 33.4639 9.86573 33.4681 9.87133C33.4722 9.87694 33.4752 9.88331 33.4769 9.89009C33.4785 9.89686 33.4789 9.9039 33.4778 9.91079C33.4767 9.91768 33.4743 9.92429 33.4706 9.93024C33.4647 9.9346 33.458 9.93774 33.4509 9.93947C33.4438 9.9412 33.4364 9.94149 33.4292 9.94032Z" fill="#263238"/>
<path d="M33.5371 9.76077C33.5277 9.76068 33.5185 9.75837 33.5102 9.75404C33.0891 9.50316 32.8068 9.7462 32.8035 9.75404C32.7926 9.76206 32.7792 9.7657 32.7657 9.76424C32.7523 9.76279 32.74 9.75635 32.7311 9.7462C32.7222 9.73605 32.7175 9.72293 32.7178 9.70944C32.7181 9.69596 32.7235 9.6831 32.7329 9.67341C32.7329 9.67341 33.0779 9.37773 33.5651 9.67341C33.5711 9.67697 33.5763 9.6817 33.5804 9.6873C33.5846 9.69291 33.5876 9.69928 33.5893 9.70606C33.5909 9.71283 33.5912 9.71987 33.5902 9.72676C33.5891 9.73365 33.5866 9.74026 33.583 9.7462C33.577 9.75211 33.5698 9.75651 33.5618 9.75905C33.5538 9.76158 33.5453 9.76217 33.5371 9.76077Z" fill="#263238"/>
<path d="M33.6356 9.55347C33.6257 9.55367 33.616 9.55094 33.6076 9.54563C33.0745 9.22867 32.7206 9.52771 32.706 9.54563C32.7007 9.55026 32.6946 9.5538 32.688 9.55602C32.6813 9.55825 32.6743 9.55913 32.6673 9.55861C32.6603 9.55809 32.6535 9.55618 32.6473 9.55299C32.641 9.5498 32.6355 9.54539 32.631 9.54003C32.626 9.53513 32.622 9.52929 32.6193 9.52285C32.6166 9.51641 32.6152 9.50949 32.6152 9.50251C32.6152 9.49553 32.6166 9.48861 32.6193 9.48217C32.622 9.47573 32.626 9.46989 32.631 9.46499C32.631 9.46499 33.0566 9.10211 33.658 9.46499C33.6701 9.47243 33.6789 9.4843 33.6825 9.4981C33.686 9.51189 33.6841 9.52653 33.677 9.53891C33.6715 9.54412 33.665 9.54811 33.6579 9.55062C33.6507 9.55313 33.6431 9.5541 33.6356 9.55347Z" fill="#263238"/>
<path d="M33.2698 10.0299C33.2698 10.0565 33.2619 10.0825 33.2471 10.1046C33.2324 10.1267 33.2114 10.1439 33.1868 10.1541C33.1623 10.1643 33.1352 10.1669 33.1092 10.1617C33.0831 10.1565 33.0591 10.1437 33.0403 10.1249C33.0215 10.1062 33.0087 10.0822 33.0036 10.0561C32.9984 10.0301 33.001 10.003 33.0112 9.97848C33.0214 9.95392 33.0386 9.93293 33.0607 9.91816C33.0828 9.90339 33.1088 9.89551 33.1354 9.89551C33.1531 9.89536 33.1706 9.89874 33.187 9.90544C33.2034 9.91214 33.2182 9.92203 33.2307 9.93454C33.2433 9.94705 33.2531 9.96193 33.2598 9.9783C33.2666 9.99468 33.2699 10.0122 33.2698 10.0299Z" fill="#263238"/>
<path d="M10.3574 14.6172H11.6633" stroke="#263238" stroke-linecap="round" stroke-linejoin="round"/>
<path d="M20.4814 14.6172H21.7874" stroke="#263238" stroke-linecap="round" stroke-linejoin="round"/>
<path d="M11.6631 11.1885L12.3978 11.7597" stroke="#263238" stroke-linecap="round" stroke-linejoin="round"/>
<path d="M20.3177 11.1885L19.583 11.7597" stroke="#263238" stroke-linecap="round" stroke-linejoin="round"/>
<path d="M14.6025 9.80078L14.6843 11.0249" stroke="#263238" stroke-linecap="round" stroke-linejoin="round"/>
<path d="M17.4604 9.96289L17.2969 11.0247" stroke="#263238" stroke-linecap="round" stroke-linejoin="round"/>
<path d="M19.313 13.0879H12.2637V19.1706H19.313V13.0879Z" fill="white" stroke="#263238" stroke-linecap="round" stroke-linejoin="round"/>
<path d="M14.8812 13.0879H13.5518V19.1706H14.8812V13.0879Z" fill="#039AE4" stroke="#263238" stroke-linecap="round" stroke-linejoin="round"/>
<path d="M19.3127 13.0879H16.2227V19.1706H19.3127V13.0879Z" fill="white" stroke="#263238" stroke-linecap="round" stroke-linejoin="round"/>
<path d="M15.2912 12.5917L14.2575 12.1437C14.2321 12.1416 14.2066 12.1416 14.1813 12.1437L14.1645 12.1348H13.124L13.9349 12.5156C13.939 12.5725 13.9476 12.6291 13.9607 12.6847C13.9878 12.7697 14.0357 12.8465 14.1001 12.9083C14.1644 12.9701 14.2431 13.0149 14.3291 13.0386L14.3359 13.0711H14.4479L16.2477 13.0957C16.2477 13.0957 15.7818 12.8392 15.2912 12.5917Z" fill="#039AE4" stroke="#263238" stroke-linecap="round" stroke-linejoin="round"/>
<path d="M15.2085 13.0883C15.2085 13.0883 14.0885 12.4846 13.4814 12.2192C12.8744 11.9537 12.8531 12.3637 12.9214 12.6773C12.9897 12.9909 13.4041 13.0637 13.4041 13.0637L15.2085 13.0883Z" fill="#039AE4" stroke="#263238" stroke-linecap="round" stroke-linejoin="round"/>
<path d="M15.4747 12.6475H15.0794C15.023 12.6473 14.9671 12.6583 14.915 12.6798C14.8629 12.7013 14.8156 12.7329 14.7757 12.7728C14.7358 12.8126 14.7042 12.86 14.6827 12.9121C14.6612 12.9642 14.6502 13.02 14.6504 13.0764H15.9037C15.9037 12.9627 15.8585 12.8535 15.778 12.7731C15.6976 12.6927 15.5885 12.6475 15.4747 12.6475Z" fill="#039AE4" stroke="#263238" stroke-linecap="round" stroke-linejoin="round"/>
<path d="M17.9456 12.1398H17.0317L16.9129 12.5878C16.4224 12.8353 15.9609 13.0839 15.9609 13.0839L17.7608 13.0593H17.8728L17.8784 13.0268C17.9646 13.0033 18.0435 12.9586 18.1081 12.8967C18.1726 12.8349 18.2207 12.758 18.248 12.6729C18.3029 12.4175 18.2961 12.0961 17.9456 12.1398Z" fill="#039AE4" stroke="#263238" stroke-linecap="round" stroke-linejoin="round"/>
<path d="M14.8809 13.0883C14.8809 13.0883 16.0009 12.4846 16.609 12.2192C17.2172 11.9537 17.2362 12.3637 17.1634 12.6773C17.0906 12.9909 16.6807 13.0637 16.6807 13.0637L14.8809 13.0883Z" fill="#039AE4" stroke="#263238" stroke-linecap="round" stroke-linejoin="round"/>
<path d="M12.4934 19.5994C12.4934 19.5994 11.9043 19.2074 12.0331 19.0831C12.1619 18.9588 12.7947 19.232 12.9391 19.4191C13.0836 19.6061 13.0108 19.7316 12.891 19.7428C12.7711 19.754 12.4934 19.5994 12.4934 19.5994Z" fill="white" stroke="#263238" stroke-linecap="round" stroke-linejoin="round"/>
<path d="M12.992 19.1425C12.992 19.1425 12.0792 18.6687 12.2987 19.1067C12.5182 19.5446 13.0648 19.9467 13.2843 20.0564C13.5038 20.1662 14.709 20.1292 14.709 20.1292C14.709 20.1292 14.485 19.7271 14.2699 19.6174C14.0549 19.5076 12.992 19.1425 12.992 19.1425Z" fill="white" stroke="#263238" stroke-linecap="round" stroke-linejoin="round"/>
<path d="M13.8671 19.1426C13.8671 19.1426 12.662 18.4863 12.625 18.7416C12.5881 18.997 13.5748 19.837 13.903 19.9826C14.1604 20.0778 14.4326 20.1275 14.7071 20.1293L13.8671 19.1426Z" fill="white" stroke="#263238" stroke-linecap="round" stroke-linejoin="round"/>
<path d="M18.6144 20.2714C18.6144 20.2714 18.1765 19.2489 17.8472 19.1033C17.5179 18.9577 14.5611 19.2489 14.5611 19.2489C14.5611 19.2489 13.1365 18.0807 13.2463 18.6642C13.356 19.2478 14.2688 19.9433 14.5242 20.1202C14.7795 20.2972 16.6791 20.2322 16.6791 20.2322L17.2637 20.7799L18.6144 20.2714Z" fill="white" stroke="#263238" stroke-linecap="round" stroke-linejoin="round"/>
<path d="M36.5924 21.9135C36.524 22.046 36.5057 22.1987 36.5409 22.3436C36.5982 22.4867 36.6861 22.6155 36.7985 22.721L36.8847 23.2542L38.054 23.3057L37.5724 21.5137L36.5924 21.9135Z" fill="white" stroke="#263238" stroke-linecap="round" stroke-linejoin="round"/>
<path d="M35.7979 18.5921C35.7979 18.5921 36.2851 21.7617 36.3579 21.9521C36.4307 22.1425 36.9918 22.3665 37.1878 22.269C37.3838 22.1716 37.0411 21.709 37.0411 21.709L37.1385 18.6615C37.1385 18.6615 36.3097 18.3457 35.7979 18.5921Z" fill="#263238" stroke="#263238" stroke-linecap="round" stroke-linejoin="round"/>
<path d="M37.1639 19.5885C37.1639 19.5885 36.4807 19.5403 36.456 19.6624C36.4314 19.7845 36.4325 20.1977 36.5546 20.247C36.6767 20.2963 37.5055 20.3691 37.6511 20.3198C37.6998 20.2951 37.7431 20.2608 37.7782 20.2189C37.8134 20.1771 37.8398 20.1285 37.8558 20.0763C37.8718 20.024 37.8771 19.969 37.8713 19.9146C37.8656 19.8603 37.849 19.8076 37.8224 19.7598C37.6757 19.5403 37.1639 19.5885 37.1639 19.5885Z" fill="white" stroke="#263238" stroke-linecap="round" stroke-linejoin="round"/>
<path d="M37.1639 20.3689C37.1639 20.3689 36.5053 20.3689 36.53 20.5145C36.5546 20.6601 36.4807 20.9782 36.754 21.0274C37.0782 21.0677 37.4066 21.0594 37.7284 21.0028C37.7831 20.9926 37.8338 20.9668 37.8742 20.9284C37.9145 20.89 37.9429 20.8408 37.9558 20.7866C37.9688 20.7324 37.9657 20.6756 37.947 20.6231C37.9283 20.5707 37.8947 20.5247 37.8505 20.491C37.6511 20.3196 37.1639 20.3689 37.1639 20.3689Z" fill="white" stroke="#263238" stroke-linecap="round" stroke-linejoin="round"/>
<path d="M36.105 20.5563C36.105 20.5563 36.021 19.9425 35.8228 19.9593C35.675 19.9716 35.3222 20.0836 35.3546 20.3536C35.4104 20.6758 35.5146 20.9877 35.6638 21.2787C35.6895 21.3281 35.7291 21.369 35.7777 21.3963C35.8262 21.4237 35.8817 21.4364 35.9373 21.4328C35.993 21.4292 36.0464 21.4096 36.091 21.3763C36.1357 21.343 36.1698 21.2974 36.189 21.2451C36.2954 21.0088 36.105 20.5563 36.105 20.5563Z" fill="white" stroke="#263238" stroke-linecap="round" stroke-linejoin="round"/>
<path d="M37.2 21.0264C37.2 21.0264 36.6042 21.0264 36.6266 21.1676C36.649 21.3087 36.5818 21.6156 36.8248 21.6604C37.1184 21.6988 37.4163 21.6908 37.7074 21.6368C37.7584 21.6245 37.805 21.5981 37.8418 21.5607C37.8787 21.5233 37.9044 21.4763 37.916 21.4251C37.9276 21.3739 37.9248 21.3205 37.9077 21.2708C37.8906 21.2212 37.86 21.1773 37.8194 21.144C37.6413 20.9805 37.2 21.0264 37.2 21.0264Z" fill="white" stroke="#263238" stroke-linecap="round" stroke-linejoin="round"/>
<path d="M37.2289 21.5621C37.2289 21.5621 36.7305 21.5621 36.7496 21.6741C36.7686 21.7861 36.7126 22.047 36.9153 22.0862C37.1608 22.1193 37.41 22.1129 37.6534 22.0672C37.6959 22.0565 37.7345 22.0342 37.7651 22.0028C37.7956 21.9714 37.8168 21.9322 37.8264 21.8894C37.8359 21.8467 37.8333 21.8021 37.819 21.7607C37.8047 21.7193 37.7792 21.6827 37.7452 21.655C37.5985 21.5229 37.2289 21.5621 37.2289 21.5621Z" fill="white" stroke="#263238" stroke-linecap="round" stroke-linejoin="round"/>
<path d="M35.6626 15.3815C35.3467 15.3826 35.0376 15.4735 34.7713 15.6435C34.505 15.8135 34.2925 16.0556 34.1584 16.3417C34.0244 16.6278 33.9744 16.9461 34.0143 17.2595C34.0542 17.5729 34.1822 17.8686 34.3836 18.112C34.6893 18.4805 35.19 18.7448 35.6671 18.7146C37.1298 18.625 40.9647 20.6791 40.9647 20.6791V13.417C40.9647 13.417 37.1836 15.4117 35.6626 15.3815Z" fill="white" stroke="#263238" stroke-linecap="round" stroke-linejoin="round"/>
<path d="M35.3647 17.1076C35.3647 16.7326 35.4658 16.3647 35.6574 16.0424C35.849 15.7201 36.124 15.4555 36.4533 15.2764C36.1949 15.3427 35.9294 15.3781 35.6626 15.3816C35.3467 15.3828 35.0376 15.4737 34.7713 15.6437C34.505 15.8137 34.2925 16.0558 34.1584 16.3419C34.0244 16.628 33.9744 16.9463 34.0143 17.2597C34.0542 17.5731 34.1822 17.8688 34.3836 18.1122C34.6893 18.4807 35.19 18.745 35.6671 18.7148C35.8366 18.7081 36.0063 18.7198 36.1733 18.7495C35.9222 18.5557 35.7188 18.3069 35.5786 18.0223C35.4384 17.7377 35.3653 17.4248 35.3647 17.1076Z" fill="#039AE4" stroke="#263238" stroke-linecap="round" stroke-linejoin="round"/>
<path d="M44.4861 17.9053C44.9604 15.9568 43.7653 13.9928 41.8168 13.5185C39.8683 13.0442 37.9043 14.2393 37.43 16.1878C36.9558 18.1363 38.1508 20.1003 40.0993 20.5746C42.0478 21.0488 44.0118 19.8537 44.4861 17.9053Z" fill="white" stroke="#263238" stroke-linecap="round" stroke-linejoin="round"/>
<path d="M44.0546 17.0487C44.0549 17.661 43.8735 18.2596 43.5335 18.7688C43.1934 19.2781 42.71 19.675 42.1444 19.9095C41.5788 20.144 40.9563 20.2054 40.3557 20.0861C39.7551 19.9668 39.2034 19.672 38.7704 19.2392C38.3373 18.8063 38.0424 18.2547 37.9228 17.6541C37.8033 17.0536 37.8645 16.4311 38.0988 15.8654C38.3331 15.2996 38.7299 14.8161 39.239 14.4759C39.7481 14.1357 40.3466 13.9541 40.959 13.9541C41.7797 13.9544 42.5668 14.2805 43.1472 14.8607C43.7277 15.441 44.054 16.2279 44.0546 17.0487Z" fill="#A6A6A6" stroke="#263238" stroke-linecap="round" stroke-linejoin="round"/>
<path d="M40.9596 16.2928V17.8081L38.5785 19.0278C38.2158 18.5897 37.9806 18.0603 37.8986 17.4975C37.8166 16.9347 37.891 16.3602 38.1137 15.8369L40.9596 16.2928Z" fill="white" stroke="#263238" stroke-linecap="round" stroke-linejoin="round"/>
<path d="M41.7151 17.048C41.7151 17.1976 41.6708 17.3438 41.5876 17.4681C41.5045 17.5925 41.3864 17.6894 41.2482 17.7466C41.11 17.8037 40.9579 17.8186 40.8112 17.7894C40.6645 17.7601 40.5298 17.688 40.4242 17.5822C40.3185 17.4763 40.2466 17.3415 40.2175 17.1948C40.1885 17.0481 40.2036 16.896 40.261 16.7579C40.3184 16.6198 40.4155 16.5018 40.5399 16.4189C40.6644 16.3359 40.8107 16.2918 40.9602 16.292C41.1606 16.2923 41.3526 16.3721 41.4941 16.5138C41.6356 16.6556 41.7151 16.8477 41.7151 17.048Z" fill="white" stroke="#263238" stroke-linecap="round" stroke-linejoin="round"/>
<path d="M36.6395 23.3027L36.5186 22.7953L38.0888 22.6016L38.0541 23.306L36.6395 23.3027Z" fill="white" stroke="#263238" stroke-linecap="round" stroke-linejoin="round"/>
<path d="M17.1694 20.9824L16.8076 20.4022L18.4742 19.5566L18.6142 20.2678L17.1694 20.9824Z" fill="white" stroke="#263238" stroke-linecap="round" stroke-linejoin="round"/>
<path d="M27.3001 20.1438C27.3001 20.1438 24.6211 19.8459 24.3881 19.9646C24.1551 20.0833 20.7571 24.1019 20.7571 24.1019L18.6694 19.9355L16.9121 20.7083C16.9121 20.7083 19.114 28.2123 19.4713 28.2974C19.8286 28.3825 23.2211 26.1257 23.2211 26.1257L23.0127 29.1016C23.0127 29.1016 23.6377 31.6014 26.4063 32.0774C29.175 32.5534 30.8102 30.4108 31.1675 29.6963C31.4335 29.1267 31.6621 28.5405 31.8518 27.9412L33.132 24.1612C33.132 24.1612 36.7361 27.1035 37.538 27.4641C38.3399 27.8247 39.0847 28.1496 39.1743 27.9704C39.2639 27.7912 38.3713 23.03 38.3713 23.03L36.4673 23.1196L36.5569 23.8633C36.5569 23.8633 34.0862 20.6153 33.8779 20.2916C33.6695 19.9679 33.0446 20.0239 32.3009 19.8156C31.5572 19.6073 27.3001 20.1438 27.3001 20.1438Z" fill="#039AE4" stroke="#263238" stroke-linecap="round" stroke-linejoin="round"/>
<path d="M23.2217 26.1262L25.2164 24.6377" stroke="#263238" stroke-linecap="round" stroke-linejoin="round"/>
<path d="M24.502 25.2026L25.5133 25.0234" stroke="#263238" stroke-linecap="round" stroke-linejoin="round"/>
<path d="M33.1328 24.1614L33.8171 21.75" stroke="#263238" stroke-linecap="round" stroke-linejoin="round"/>
<path d="M33.4004 23.3873L34.1441 22.3457" stroke="#263238" stroke-linecap="round" stroke-linejoin="round"/>
<path d="M36.6436 25.5957L36.6738 26.1848" stroke="#263238" stroke-linecap="round" stroke-linejoin="round"/>
<path d="M36.5557 23.8633L36.6094 24.9239" stroke="#263238" stroke-linecap="round" stroke-linejoin="round"/>
<path d="M20.752 24.1025L21.3769 25.4118" stroke="#263238" stroke-linecap="round" stroke-linejoin="round"/>
<path d="M28.3106 19.8158L27.0014 20.0544C27.0014 20.0544 26.5254 20.4408 26.2577 21.3334C26.0951 21.8787 25.9756 22.436 25.9004 23L27.0316 23.0605L26.1356 23.9565C26.1356 23.9565 26.4044 24.3429 26.9689 25.1761C27.4149 25.8044 27.9013 26.403 28.4249 26.9681L26.7673 29.1017C26.7673 29.1017 28.7911 28.6537 30.041 27.2862C31.291 25.9187 32.0313 23.8635 32.0313 23.8635L31.049 23.0896L32.0906 22.8813C32.0906 22.8813 32.299 21.1856 31.1946 20.0813C30.0903 18.9769 28.3106 19.8158 28.3106 19.8158Z" fill="#039AE4" stroke="#263238" stroke-linecap="round" stroke-linejoin="round"/>
<path d="M31.2577 20.5299C31.2577 20.5299 30.9105 21.2176 30.8411 22.4944C30.7873 23.4912 30.2643 24.7613 29.8028 25.6595C29.4366 26.3741 29.1084 26.8534 29.0849 26.7795C29.0849 26.7795 28.8923 26.4704 28.5843 25.5699C28.5092 25.3549 28.4286 25.104 28.3412 24.8139C27.8932 23.3254 27.508 20.9152 27.686 20.4392C27.7696 20.2046 27.8691 19.9759 27.984 19.7549C29.4131 21.6902 31.2577 20.5299 31.2577 20.5299Z" fill="white" stroke="#263238" stroke-linecap="round" stroke-linejoin="round"/>
<path d="M29.4419 24.6079L29.8025 25.6596C29.4363 26.3742 29.1081 26.8535 29.0846 26.7796C29.0846 26.7796 28.892 26.4705 28.584 25.57L29.0846 24.6662L28.5873 23.7355L29.1742 23.1475L29.9773 23.9516L29.4419 24.6079Z" fill="#263238" stroke="#263238" stroke-linecap="round" stroke-linejoin="round"/>
<path d="M28.1924 24.1619L29.1746 23.1494L30.3708 24.2784" stroke="#263238" stroke-linecap="round" stroke-linejoin="round"/>
<path d="M27.9844 19.7568C28.0179 20.3564 28.1382 20.948 28.3417 21.513C28.567 22.0836 28.846 22.6315 29.1749 23.1493L30.5761 21.1557C30.5761 21.1557 29.0562 21.3047 27.9844 19.7568Z" stroke="#263238" stroke-linecap="round" stroke-linejoin="round"/>
<path d="M32.2412 16.6029C32.2412 16.6029 32.6668 16.5368 32.6668 17.1181C32.6668 17.6993 32.4204 18.415 32.4204 18.415L32.2412 16.6029Z" fill="white" stroke="#263238" stroke-linecap="round" stroke-linejoin="round"/>
<path d="M32.0915 14.4585C32.0915 14.4585 32.3894 17.1667 32.4185 17.9708C32.4476 18.775 32.3591 19.4884 32.0915 19.8457C31.8238 20.203 30.7475 21.631 30.1875 21.6904C29.6275 21.7497 28.9969 21.4529 28.7595 21.2424C28.522 21.0318 27.3897 19.2476 27.3897 19.2476C27.3897 19.2476 26.5273 19.1883 26.319 18.0571C26.1107 16.9259 27.271 17.1947 27.271 17.1947C27.271 17.1947 26.646 16.2124 26.5867 15.2604C26.5273 14.3084 26.3481 13.95 28.9084 13.8907C31.4687 13.8313 32.0915 14.4585 32.0915 14.4585Z" fill="white" stroke="#263238" stroke-linecap="round" stroke-linejoin="round"/>
<path d="M30.7516 16.3643L31.4662 18.8339L30.3652 18.5068" stroke="#263238" stroke-linecap="round" stroke-linejoin="round"/>
<path d="M29.2639 18.209L28.4004 18.3882" stroke="#263238" stroke-linecap="round" stroke-linejoin="round"/>
<path d="M28.8477 18.3574C28.9305 18.6102 29.0836 18.8341 29.2891 19.0029C29.4946 19.1717 29.744 19.2784 30.008 19.3105C30.96 19.4584 31.436 19.2803 31.436 19.2803" stroke="#263238" stroke-linecap="round" stroke-linejoin="round"/>
<path d="M29.0852 18.834C29.0852 18.834 29.0561 20.3225 29.5915 20.3818C30.1268 20.4412 30.0081 19.3111 30.0081 19.3111C29.6701 19.2195 29.3555 19.0568 29.0852 18.834Z" fill="#263238" stroke="#263238" stroke-linecap="round" stroke-linejoin="round"/>
<path d="M29.1943 19.8633C29.2671 20.1343 29.3892 20.3594 29.5908 20.3818C29.6415 20.389 29.6933 20.3824 29.7406 20.3627C29.7879 20.343 29.829 20.3109 29.8596 20.2698C29.7555 20.0873 29.3959 19.9361 29.1943 19.8633Z" fill="white" stroke="#263238" stroke-linecap="round" stroke-linejoin="round"/>
<path d="M29.4559 17.0479C29.4559 17.2126 29.3831 17.3458 29.2924 17.3458C29.2017 17.3458 29.1289 17.2126 29.1289 17.0479C29.1289 16.8833 29.2017 16.75 29.2924 16.75C29.3831 16.75 29.4559 16.8833 29.4559 17.0479Z" fill="#263238"/>
<path d="M31.4512 16.7803C31.4512 16.945 31.3773 17.0783 31.2866 17.0783C31.1958 17.0783 31.123 16.945 31.123 16.7803C31.123 16.6157 31.197 16.4824 31.2866 16.4824C31.3762 16.4824 31.4512 16.6157 31.4512 16.7803Z" fill="#263238"/>
<path d="M28.7578 16.542C28.8968 16.3839 29.0731 16.263 29.2706 16.1903C29.4681 16.1175 29.6807 16.0952 29.889 16.1253" stroke="#263238" stroke-linecap="round" stroke-linejoin="round"/>
<path d="M30.8408 16.0071C30.8408 16.0071 31.2272 15.2926 31.8488 15.6498" stroke="#263238" stroke-linecap="round" stroke-linejoin="round"/>
<path d="M28.9362 14.5184C28.9362 14.5184 28.0145 14.3694 28.2228 14.6382C28.4311 14.907 28.9071 15.2329 28.6708 15.4413C28.4345 15.6496 27.8375 16.0013 27.8678 16.1849C27.898 16.3686 27.9562 17.1078 27.8678 17.287C27.7793 17.4662 27.5698 17.4953 27.3615 17.4651C27.1532 17.4349 26.8553 16.8995 26.7366 16.7505C26.6178 16.6016 25.546 15.5309 25.7543 14.6673C25.9626 13.8038 28.1948 13.1195 28.1948 13.1195C28.1948 13.1195 29.6206 11.5134 30.5759 11.4832C31.5313 11.4529 31.1706 12.3467 31.1359 12.4352C31.1012 12.5237 32.5046 12.3467 32.7722 13.2091C33.0399 14.0715 32.9514 14.3101 31.7306 14.6382C30.5098 14.9664 28.9362 14.5184 28.9362 14.5184Z" fill="#263238" stroke="#263238" stroke-linecap="round" stroke-linejoin="round"/>
<path d="M47.7093 13.3301L45.2834 13.9573L45.7851 14.2082L44.4053 14.627L47.2064 14.2507L46.4963 13.9158L47.7093 13.3301Z" fill="#263238"/>
<path d="M48.2069 19.2359L45.753 18.7285L46.0934 19.1743L44.6699 18.9413L47.3501 19.8396L46.8595 19.2258L48.2069 19.2359Z" fill="#263238"/>
<path d="M45.5681 23.2804L43.5017 21.8625L43.6428 22.4057L42.4209 21.6396L44.5444 23.5067L44.3305 22.7507L45.5681 23.2804Z" fill="#263238"/>
<path d="M23.2109 37.8332V34.4049H24.0319C24.2307 34.3998 24.4289 34.4275 24.6188 34.4866C24.7696 34.5349 24.8985 34.6349 24.9828 34.7689C25.0744 34.9339 25.1179 35.1213 25.1082 35.3098C25.1093 35.4352 25.0965 35.5603 25.0701 35.6828C25.0476 35.7851 25.0033 35.8814 24.9402 35.965C24.8739 36.0463 24.7868 36.1083 24.6882 36.1442L25.1665 37.8332H24.5404L24.126 36.2652H23.8381V37.8332H23.2109ZM23.8381 35.8687H24.0319C24.1313 35.8734 24.2305 35.8554 24.322 35.8161C24.3937 35.7822 24.4492 35.7214 24.4765 35.647C24.5109 35.5515 24.5269 35.4504 24.5236 35.349C24.5335 35.2131 24.5002 35.0774 24.4284 34.9615C24.3645 34.8753 24.2436 34.8316 24.0666 34.8316H23.8426L23.8381 35.8687Z" fill="#039AE4"/>
<path d="M25.5781 37.8336V34.4053H27.0173V34.8454H26.2087V35.831H26.8471V36.2678H26.2087V37.408H27.0296V37.8392L25.5781 37.8336Z" fill="#039AE4"/>
<path d="M27.3896 37.8336V34.4053H28.7997V34.832H28.0157V35.84H28.6552V36.2768H28.0157V37.8336H27.3896Z" fill="#039AE4"/>
<path d="M29.126 37.8336V34.4053H30.5652V34.8454H29.7521V35.831H30.3916V36.2678H29.7521V37.408H30.5764V37.8392L29.126 37.8336Z" fill="#039AE4"/>
<path d="M30.9385 37.8332V34.4049H31.7594C31.9579 34.3998 32.1557 34.4275 32.3452 34.4866C32.4964 34.5347 32.6257 34.6347 32.7103 34.7689C32.8016 34.934 32.8446 35.1214 32.8346 35.3098C32.8362 35.4352 32.8235 35.5603 32.7966 35.6828C32.7744 35.7851 32.7305 35.8813 32.6678 35.965C32.6014 36.0463 32.5143 36.1083 32.4158 36.1442L32.894 37.8332H32.2668L31.8524 36.2652H31.5646V37.8332H30.9385ZM31.5646 35.8687H31.7594C31.8589 35.8733 31.958 35.8553 32.0495 35.8161C32.1207 35.7815 32.176 35.721 32.2041 35.647C32.2375 35.5513 32.2531 35.4503 32.25 35.349C32.2599 35.2131 32.2266 35.0774 32.1548 34.9615C32.0921 34.8753 31.9711 34.8316 31.793 34.8316H31.569L31.5646 35.8687Z" fill="#039AE4"/>
<path d="M20.6016 42.2418L21.287 38.8135H21.959L22.6456 42.2418H22.0643L21.9288 41.4511H21.3318L21.1918 42.2418H20.6016ZM21.3923 41.0524H21.8571L21.6241 39.6132L21.3923 41.0524Z" fill="#039AE4"/>
<path d="M23.9961 42.2418V38.8135H25.4062V39.2447H24.6222V40.2437H25.2606V40.6805H24.6222V42.2418H23.9961Z" fill="#039AE4"/>
<path d="M25.7324 42.2414V38.8131H26.5534C26.7522 38.8081 26.9504 38.8357 27.1403 38.8948C27.2911 38.9431 27.42 39.043 27.5043 39.1771C27.5955 39.3422 27.6386 39.5296 27.6286 39.718C27.63 39.8433 27.6176 39.9684 27.5916 40.091C27.5691 40.1933 27.5248 40.2896 27.4617 40.3732C27.3953 40.4545 27.3083 40.5164 27.2097 40.5524L27.6879 42.2414H27.0619L26.6475 40.6734H26.3596V42.2414H25.7324ZM26.3596 40.278H26.5534C26.6529 40.2824 26.7521 40.264 26.8435 40.2243C26.915 40.1901 26.9704 40.1294 26.998 40.0551C27.0324 39.9597 27.0484 39.8586 27.0451 39.7572C27.0543 39.6213 27.021 39.4859 26.9499 39.3697C26.886 39.2835 26.7651 39.2398 26.5881 39.2398H26.3641L26.3596 40.278Z" fill="#039AE4"/>
<path d="M28.1123 42.2418V38.8135H28.7305V42.2418H28.1123Z" fill="#039AE4"/>
<path d="M29.2637 42.2418V38.8135H30.7029V39.2536H29.8898V40.2392H30.5293V40.676H29.8898V41.8106H30.7107V42.2418H29.2637Z" fill="#039AE4"/>
<path d="M31.0742 42.2418V38.8135H31.511L32.3443 40.7679V38.8135H32.8617V42.2418H32.4462L31.6085 40.1933V42.2418H31.0742Z" fill="#039AE4"/>
<path d="M33.3818 42.2417V38.8134H34.1905C34.4144 38.8022 34.6381 38.8405 34.8457 38.9254C34.9975 38.9963 35.1173 39.1213 35.1817 39.276C35.2539 39.468 35.2878 39.6724 35.2814 39.8774V41.1307C35.2875 41.342 35.2536 41.5525 35.1817 41.7512C35.1193 41.9115 34.9996 42.0429 34.8457 42.1197C34.647 42.2086 34.4303 42.2497 34.2129 42.2395L33.3818 42.2417ZM34.009 41.8061H34.1994C34.3081 41.8155 34.4167 41.7887 34.5086 41.7299C34.5734 41.6725 34.6135 41.5922 34.6206 41.5059C34.6363 41.3871 34.6434 41.2673 34.6418 41.1475V39.8371C34.6445 39.7243 34.6344 39.6116 34.6116 39.5011C34.6059 39.4635 34.5928 39.4274 34.573 39.3949C34.5531 39.3624 34.5271 39.3341 34.4962 39.3118C34.4029 39.2656 34.2989 39.2451 34.195 39.2525H34.0135L34.009 41.8061Z" fill="#039AE4"/>
</svg>
