<svg width="22" height="20" viewBox="0 0 22 20" fill="none" xmlns="http://www.w3.org/2000/svg">
<path d="M13.1214 8.47969C12.9339 8.29222 12.6796 8.1869 12.4144 8.1869C12.1493 8.1869 11.895 8.29222 11.7074 8.47969L11.0004 9.18569C10.6232 9.55 10.118 9.75159 9.59365 9.74704C9.06925 9.74248 8.56763 9.53214 8.19681 9.16133C7.82599 8.79051 7.61566 8.28888 7.6111 7.76449C7.60654 7.2401 7.80813 6.73489 8.17245 6.35769L13.8024 0.725688C15.1354 0.422514 16.53 0.547286 17.7879 1.08226C19.0458 1.61724 20.1031 2.53519 20.8093 3.70558C21.5156 4.87597 21.8349 6.23923 21.7218 7.60152C21.6087 8.9638 21.069 10.2558 20.1794 11.2937L18.0714 13.4287L13.1214 8.47969ZM2.16145 2.46769C3.19593 1.43259 4.54944 0.776865 6.00291 0.606636C7.45639 0.436407 8.92479 0.761636 10.1704 1.52969L6.75745 4.94369C6.01825 5.68142 5.59688 6.67899 5.58339 7.72325C5.56989 8.76751 5.96534 9.77564 6.68523 10.5322C7.40512 11.2888 8.39236 11.7338 9.436 11.7722C10.4796 11.8106 11.4969 11.4393 12.2704 10.7377L12.4144 10.6007L16.6574 14.8427L12.4144 19.0857C12.0394 19.4606 11.5308 19.6713 11.0004 19.6713C10.4701 19.6713 9.9615 19.4606 9.58645 19.0857L2.16045 11.6597C0.94158 10.4407 0.256836 8.7875 0.256836 7.06369C0.256836 5.33988 0.94258 3.68666 2.16145 2.46769Z" fill="#121826"/>
</svg>
