<svg width="1440" height="172" viewBox="0 0 1440 172" fill="none" xmlns="http://www.w3.org/2000/svg">
<g style="mix-blend-mode:multiply">
<path d="M-209 105.377C-201.357 107.548 -193.509 110.593 -185.3 114.433C-171.563 120.857 -157.827 127.282 -144.09 128.73C-131.487 130.058 -117.124 123.618 -100.179 116.021C-78.8063 106.439 -53.326 95.0151 -22.0902 95.0151C0.216553 95.0151 19.35 102.784 37.7749 110.265C65.6047 121.564 91.8182 132.207 124.91 114.433C179.91 84.89 214.41 85.7058 259.91 118.014C305.41 150.323 342.485 144.288 372.749 129.585C375.681 128.161 378.582 126.669 381.463 125.188C392.95 119.279 404.106 113.541 415.499 112.981C431.468 112.085 447.437 120.232 463.406 128.379C475.938 134.772 488.469 141.166 501 143.189C516.849 145.748 532.697 141.254 548.546 136.76C561.197 133.173 573.849 129.585 586.5 129.585C599.665 129.585 612.83 133.47 625.995 137.354C641.33 141.879 656.665 146.404 672 144.789C685.736 143.343 699.473 136.924 713.209 130.505C727.973 123.606 742.736 116.707 757.5 115.982C779.3 114.758 798.122 121.455 816.899 128.135C839.988 136.35 863.007 144.54 891.409 137.947C906.759 134.385 921.434 128.627 935.913 122.946C970.454 109.394 1003.88 96.2776 1042.7 114.433C1056.44 120.857 1070.17 127.282 1083.91 128.73C1099.24 130.346 1114.58 125.817 1129.91 121.288C1157.51 113.14 1179.71 112.846 1207.36 120.693C1223.21 125.191 1239.06 129.689 1254.91 127.128C1267.44 125.103 1279.97 118.704 1292.5 112.305C1326.94 94.7192 1349.41 94.6608 1383.16 113.512C1386.27 115.248 1389.49 117.189 1392.79 119.17C1404.6 126.273 1417.27 133.894 1428.41 134.442C1512.99 134.442 1512.96 137.163 1511.76 267.083C1511.59 284.632 1511.41 304.502 1511.41 327L-209 327V105.377Z" fill="#039AE4"/>
</g>
<g style="mix-blend-mode:multiply">
<path d="M-151 70.3768C-142.762 72.5479 -134.303 75.5929 -125.454 79.4327C-110.648 85.8574 -95.8423 92.282 -81.0361 93.7296C-67.4518 95.0578 -51.9703 88.6182 -33.7063 81.0212C-10.6691 71.4389 16.795 60.0151 50.463 60.0151C74.5066 60.0151 95.1298 67.7837 114.989 75.2646C144.986 86.5642 173.24 97.2075 208.909 79.4327C268.191 49.89 305.377 50.7058 354.42 83.0144C403.463 115.323 443.425 109.288 476.045 94.5855C479.205 93.1615 482.332 91.6692 485.437 90.1875C497.819 84.2794 509.844 78.5411 522.124 77.9813C539.336 77.0846 556.549 85.2319 573.761 93.3792C587.268 99.7725 600.775 106.166 614.282 108.189C631.365 110.748 648.447 106.254 665.53 101.76C679.166 98.1727 692.803 94.5855 706.439 94.5855C720.629 94.5855 734.819 98.4699 749.009 102.354C765.538 106.879 782.067 111.404 798.596 109.789C813.402 108.343 828.208 101.924 843.014 95.5052C858.927 88.6063 874.84 81.7075 890.753 80.9821C914.251 79.7579 934.539 86.4547 954.777 93.1352C979.664 101.35 1004.48 109.54 1035.09 102.947C1051.63 99.3846 1067.45 93.6269 1083.06 87.9457C1120.29 74.3936 1156.32 61.2776 1198.16 79.4327C1212.97 85.8574 1227.77 92.282 1242.58 93.7296C1259.11 95.3457 1275.64 90.8169 1292.16 86.2881C1321.9 78.1399 1345.84 77.8456 1375.64 85.693C1392.73 90.1909 1409.81 94.6888 1426.89 92.1278C1440.4 90.1029 1453.91 83.7039 1467.41 77.3049C1504.53 59.7192 1528.75 59.6608 1565.13 78.5122C1568.48 80.2479 1571.96 82.1888 1575.51 84.1699C1588.23 91.273 1601.89 98.8945 1613.9 99.4425C1705.06 99.4425 1705.03 102.163 1703.74 232.083C1703.56 249.632 1703.36 269.502 1703.36 292L-151 292V70.3768Z" fill="#039AE4"/>
</g>
<g style="mix-blend-mode:multiply">
<path d="M-151 45.4297C-141.678 47.61 -132.107 50.6681 -122.094 54.5243C-105.341 60.9764 -88.5872 67.4285 -71.8335 68.8823C-56.4624 70.2162 -38.9445 63.7491 -18.2781 56.1196C7.78943 46.4963 38.8661 35.0237 76.9625 35.0237C104.169 35.0237 127.505 42.8255 149.976 50.3384C183.919 61.6862 215.89 72.375 256.25 54.5243C323.33 24.8553 365.407 25.6746 420.901 58.1213C476.395 90.568 521.614 84.5073 558.525 69.7418C562.1 68.3117 565.638 66.813 569.152 65.3251C583.162 59.3917 596.769 53.6289 610.664 53.0667C630.141 52.1662 649.617 60.3483 669.094 68.5304C684.377 74.951 699.661 81.3717 714.944 83.4034C734.274 85.973 753.604 81.4599 772.933 76.9469C788.363 73.3444 803.793 69.7418 819.223 69.7418C835.28 69.7418 851.336 73.6429 867.393 77.544C886.096 82.0881 904.799 86.6321 923.502 85.0106C940.256 83.5581 957.009 77.1118 973.763 70.6654C991.769 63.7371 1009.78 56.8088 1027.78 56.0803C1054.37 54.8509 1077.33 61.5763 1100.23 68.2854C1128.39 76.5353 1156.46 84.7605 1191.1 78.1396C1209.82 74.5615 1227.72 68.7791 1245.38 63.0737C1287.51 49.4637 1328.28 36.2916 1375.62 54.5243C1392.38 60.9764 1409.13 67.4285 1425.88 68.8823C1444.59 70.5053 1463.29 65.9571 1481.99 61.409C1515.64 53.226 1542.73 52.9304 1576.45 60.8114C1595.78 65.3285 1615.11 69.8456 1634.44 67.2737C1649.73 65.2401 1665.01 58.8138 1680.29 52.3874C1722.29 34.7266 1749.7 34.6679 1790.86 53.5998C1794.65 55.343 1798.59 57.2921 1802.6 59.2817C1817.01 66.4152 1832.46 74.0692 1846.05 74.6196C1949.2 74.6196 1949.17 77.3516 1947.7 207.827C1947.5 225.451 1947.28 245.406 1947.28 268L-151 268V45.4297Z" fill="#039AE4"/>
</g>
<g style="mix-blend-mode:multiply">
<path d="M0 12.3768C9.21533 14.5479 18.677 17.5929 28.5754 21.4327C45.1373 27.8574 61.6993 34.282 78.2615 35.7296C93.4568 37.0578 110.774 30.6182 131.205 23.0212C156.974 13.4389 187.695 2.01507 225.356 2.01507C252.251 2.01507 275.32 9.78366 297.535 17.2646C331.089 28.5642 362.695 39.2075 402.593 21.4327C468.906 -8.11 510.503 -7.29418 565.362 25.0144C620.221 57.323 664.923 51.2881 701.412 36.5855C704.946 35.1615 708.444 33.6692 711.918 32.1875C725.767 26.2794 739.219 20.5411 752.955 19.9813C772.209 19.0846 791.463 27.2319 810.717 35.3792C825.825 41.7725 840.934 48.1658 856.043 50.1889C875.152 52.7476 894.26 48.2537 913.369 43.7599C928.623 40.1727 943.876 36.5855 959.13 36.5855C975.003 36.5855 990.875 40.4699 1006.75 44.3544C1025.24 48.8792 1043.73 53.4039 1062.22 51.7893C1078.78 50.343 1095.34 43.9241 1111.9 37.5052C1129.7 30.6063 1147.5 23.7075 1165.3 22.9821C1191.59 21.7579 1214.28 28.4547 1236.92 35.1352C1264.76 43.3501 1292.51 51.5402 1326.76 44.9475C1345.26 41.3846 1362.96 35.6269 1380.42 29.9457C1422.06 16.3936 1462.37 3.27761 1509.17 21.4327C1525.73 27.8574 1542.29 34.282 1558.85 35.7296C1577.34 37.3457 1595.83 32.8169 1614.32 28.2881C1647.59 20.1399 1674.36 19.8456 1707.7 27.693C1726.81 32.1909 1745.92 36.6888 1765.03 34.1278C1780.14 32.1029 1795.24 25.7039 1810.35 19.3049C1851.87 1.71923 1878.96 1.66075 1919.66 20.5122C1923.4 22.2479 1927.3 24.1888 1931.27 26.1699C1945.5 33.273 1960.78 40.8945 1974.22 41.4425C2076.19 41.4425 2076.16 44.1629 2074.71 174.083C2074.51 191.632 2074.29 211.502 2074.29 234L0 234V12.3768Z" fill="#039AE4"/>
</g>
</svg>
