<svg width="400" height="400" viewBox="0 0 400 400" fill="none" xmlns="http://www.w3.org/2000/svg">
<path d="M242.464 35.4479C237.94 32.2062 232.64 30.2183 227.1 29.6858C221.56 29.1533 215.978 30.0952 210.92 32.4159C160.976 55.3839 -3.87206 136.432 30.8559 190.616C71.6559 254.296 216.456 354.76 269.552 349.968C322.648 345.176 382.848 256.096 369.328 197.464C357.968 148.2 281.6 63.5919 242.464 35.4479Z" fill="#039AE4"/>
<path opacity="0.7" d="M242.464 35.4479C237.94 32.2062 232.64 30.2183 227.1 29.6858C221.56 29.1533 215.978 30.0952 210.92 32.4159C160.976 55.3839 -3.87206 136.432 30.8559 190.616C71.6559 254.296 216.456 354.76 269.552 349.968C322.648 345.176 382.848 256.096 369.328 197.464C357.968 148.2 281.6 63.5919 242.464 35.4479Z" fill="white"/>
<path d="M288.752 201.551C289.976 204.479 295.224 209.271 295.232 209.271C295.24 209.271 297.336 204.855 297.432 204.559C298.56 201.127 298.72 193.823 295.44 191.447C294.885 191.068 294.257 190.81 293.596 190.689C292.935 190.569 292.256 190.588 291.602 190.747C290.949 190.905 290.337 191.199 289.804 191.609C289.272 192.019 288.832 192.536 288.512 193.127C287.08 195.599 287.712 199.063 288.752 201.551Z" fill="#263238"/>
<path d="M372.752 248.367C370.144 245.271 362.88 245.967 359.536 247.327C359.248 247.447 354.936 249.815 354.992 249.871L355.056 249.927C353.904 250.023 352.656 250.143 351.336 250.303C348.856 250.615 346.064 250.991 343.056 251.599C339.813 252.215 336.607 253.016 333.456 253.999C329.919 255.112 326.487 256.537 323.2 258.255L323.08 258.327C323.92 257.479 326.168 255.047 326.32 254.839C328.464 251.927 330.888 245.039 328.52 241.759C328.111 241.225 327.594 240.784 327.002 240.463C326.411 240.142 325.759 239.949 325.089 239.896C324.418 239.843 323.744 239.932 323.11 240.156C322.476 240.381 321.896 240.736 321.408 241.199C319.272 243.095 318.8 246.583 319.008 249.279C319.248 252.311 322.448 258.079 322.704 258.543C319.401 260.371 316.221 262.412 313.184 264.655C311.408 265.959 309.664 267.319 307.928 268.711C308.624 267.959 309.248 267.279 309.32 267.175C311.464 264.263 313.88 257.375 311.512 254.095C311.103 253.563 310.586 253.122 309.996 252.802C309.405 252.482 308.754 252.289 308.085 252.236C307.415 252.184 306.742 252.272 306.109 252.496C305.475 252.719 304.896 253.073 304.408 253.535C302.272 255.431 301.792 258.919 302.008 261.615C302.224 264.311 304.856 269.319 305.568 270.631L303.584 272.231C300.424 274.839 297.288 277.447 294.128 279.911C293.016 280.783 291.888 281.599 290.768 282.415C291.384 281.751 291.896 281.183 291.968 281.087C294.112 278.175 296.536 271.287 294.168 268.007C293.759 267.473 293.242 267.032 292.65 266.711C292.059 266.39 291.407 266.197 290.737 266.144C290.066 266.091 289.392 266.18 288.758 266.404C288.124 266.629 287.544 266.984 287.056 267.447C284.92 269.343 284.448 272.831 284.656 275.519C284.864 278.207 287.248 282.719 288.088 284.319C286.912 285.119 285.736 285.919 284.56 286.663C283.76 287.135 282.96 287.655 282.16 288.087L279.704 289.423C278.104 290.223 276.504 291.023 274.904 291.759C273.808 292.279 272.76 292.751 271.704 293.231C272.824 292.375 274.976 290.663 275.136 290.495C277.305 288.169 278.838 285.323 279.584 282.231C279.838 281.987 280.068 281.719 280.272 281.431C280.671 280.89 280.951 280.271 281.095 279.615C281.239 278.958 281.244 278.279 281.109 277.621C280.974 276.962 280.703 276.34 280.312 275.793C279.921 275.246 279.419 274.788 278.84 274.447C275.296 272.503 268.76 275.751 266.128 278.231C265.976 278.383 264.472 280.159 263.536 281.295C263.984 280.543 264.424 279.815 264.872 279.039C265.776 277.503 266.624 275.943 267.552 274.239C267.968 273.439 268.352 272.591 268.808 271.751C269.264 270.911 269.608 269.999 270.016 269.119C270.92 267.055 271.736 264.919 272.504 262.719C273.848 263.519 278.672 266.215 281.368 266.503C284.064 266.791 287.552 266.423 289.512 264.343C289.988 263.868 290.359 263.299 290.6 262.672C290.842 262.045 290.949 261.374 290.915 260.703C290.881 260.032 290.707 259.375 290.403 258.776C290.099 258.176 289.673 257.647 289.152 257.223C285.952 254.759 278.992 256.983 276.016 259.039C275.832 259.167 273.864 260.879 272.816 261.839C273.272 260.535 273.728 259.231 274.144 257.895C275.352 254.031 276.448 250.087 277.552 246.151C277.896 244.951 278.248 243.751 278.6 242.551C279.072 242.839 284.728 246.191 287.752 246.551C290.432 246.839 293.936 246.463 295.896 244.383C296.372 243.909 296.744 243.34 296.986 242.713C297.228 242.087 297.336 241.416 297.303 240.745C297.27 240.074 297.096 239.417 296.793 238.817C296.49 238.217 296.065 237.688 295.544 237.263C292.344 234.799 285.376 237.023 282.4 239.079C282.176 239.231 279.352 241.703 278.664 242.367C279.464 239.727 280.224 237.103 281.064 234.551C282.244 231.094 283.644 227.717 285.256 224.439C285.48 224.575 291.368 228.095 294.456 228.439C297.144 228.735 300.64 228.359 302.6 226.279C303.076 225.805 303.448 225.236 303.69 224.609C303.932 223.983 304.04 223.312 304.007 222.641C303.974 221.97 303.8 221.313 303.497 220.713C303.194 220.113 302.769 219.584 302.248 219.159C299.048 216.695 292.088 218.919 289.112 220.975C288.88 221.135 285.84 223.791 285.32 224.311C285.416 224.127 285.488 223.919 285.592 223.727C287.304 220.491 289.298 217.412 291.552 214.527C292.776 212.927 294.04 211.447 295.296 210.047C296.328 210.847 301.072 214.271 303.816 214.887C306.56 215.503 309.976 215.479 312.152 213.631C312.678 213.212 313.11 212.687 313.42 212.091C313.731 211.494 313.912 210.839 313.953 210.167C313.993 209.496 313.893 208.824 313.657 208.194C313.421 207.564 313.056 206.991 312.584 206.511C309.664 203.711 302.504 205.159 299.328 206.871C299.152 206.967 297.496 208.111 296.304 208.959C296.88 208.335 297.464 207.679 298.032 207.095C300.152 204.879 302.232 202.991 304.08 201.327C305.144 200.391 306.12 199.567 307.04 198.807C308.448 199.031 314.112 199.879 316.784 199.159C319.456 198.439 322.528 196.855 323.6 194.207C323.873 193.593 324.014 192.929 324.014 192.257C324.014 191.585 323.873 190.921 323.6 190.307C323.327 189.694 322.928 189.144 322.429 188.694C321.93 188.244 321.343 187.904 320.704 187.695C316.824 186.551 311.104 191.135 309.104 194.095C308.928 194.359 306.648 198.711 306.704 198.727H306.784C305.888 199.439 304.928 200.215 303.896 201.087C302 202.687 299.896 204.567 297.704 206.735C295.336 209.053 293.103 211.505 291.016 214.079C288.666 216.951 286.578 220.027 284.776 223.271C284.776 223.271 284.776 223.351 284.72 223.391C284.952 222.223 285.52 218.951 285.52 218.695C285.696 215.087 283.92 207.999 280.128 206.575C279.493 206.357 278.819 206.275 278.15 206.334C277.481 206.394 276.831 206.592 276.244 206.918C275.657 207.244 275.144 207.689 274.74 208.225C274.335 208.762 274.048 209.377 273.896 210.031C273.16 212.791 274.696 215.959 276.352 218.087C278.224 220.487 284.08 223.535 284.544 223.775C282.795 227.122 281.269 230.58 279.976 234.127C279.176 236.191 278.504 238.295 277.824 240.407C277.992 239.399 278.136 238.487 278.144 238.359C278.32 234.751 276.544 227.671 272.752 226.239C272.117 226.021 271.443 225.939 270.774 225.998C270.105 226.058 269.455 226.256 268.868 226.582C268.281 226.908 267.768 227.353 267.364 227.889C266.959 228.426 266.672 229.041 266.52 229.695C265.784 232.455 267.32 235.631 268.976 237.751C270.632 239.871 275.6 242.615 276.92 243.311C276.664 244.111 276.4 244.911 276.12 245.751C274.92 249.663 273.72 253.575 272.472 257.375C272.024 258.711 271.528 260.015 271.048 261.319C271.192 260.415 271.312 259.663 271.312 259.543C271.496 255.935 269.712 248.847 265.928 247.423C265.293 247.205 264.62 247.123 263.951 247.182C263.283 247.24 262.634 247.438 262.046 247.763C261.459 248.088 260.947 248.533 260.542 249.068C260.137 249.603 259.849 250.218 259.696 250.871C258.96 253.639 260.496 256.807 262.152 258.935C263.808 261.063 268.296 263.527 269.856 264.367C269.32 265.687 268.784 267.007 268.2 268.263C267.784 269.111 267.44 269.959 266.976 270.791C266.512 271.623 266.096 272.439 265.656 273.255C264.768 274.791 263.848 276.383 262.944 277.863C262.312 278.895 261.696 279.863 261.08 280.847C261.544 279.519 262.392 276.903 262.44 276.679C263.16 273.135 262.44 265.863 258.952 263.879C258.357 263.567 257.703 263.383 257.032 263.34C256.361 263.296 255.689 263.394 255.058 263.628C254.428 263.861 253.853 264.223 253.372 264.693C252.891 265.162 252.513 265.727 252.264 266.351C251.12 268.967 252.152 272.335 253.472 274.687C254.928 277.279 260.024 281.087 260.672 281.519C259.648 283.119 258.632 284.719 257.648 286.167C257.152 286.911 256.672 287.631 256.2 288.319L257.936 290.151C258.496 289.295 259.072 288.407 259.664 287.479C260.712 285.879 261.8 284.063 262.864 282.231C264.757 282.993 266.694 283.642 268.664 284.175C268.616 287.223 270.64 292.791 270.904 293.511C269.152 294.311 267.448 295.039 265.824 295.719C265.153 295.962 264.466 296.16 263.768 296.311L265.624 298.255C266.017 298.177 266.403 298.065 266.776 297.919C268.552 297.119 270.44 296.255 272.376 295.327C272.816 295.975 276.448 301.191 279 302.719C281.312 304.111 284.648 305.239 287.304 304.167C287.934 303.935 288.508 303.574 288.989 303.106C289.471 302.639 289.849 302.076 290.099 301.453C290.35 300.83 290.467 300.162 290.443 299.491C290.419 298.821 290.254 298.162 289.96 297.559C288.08 293.975 280.832 293.079 277.272 293.695C277.064 293.735 274.832 294.383 273.424 294.823C274.224 294.439 274.976 294.079 275.784 293.679C277.384 292.879 278.984 292.079 280.64 291.175L283.04 289.799C283.84 289.351 284.64 288.775 285.496 288.263C287.392 287.039 289.248 285.711 291.096 284.327C291.784 285.719 294.296 290.647 296.392 292.375C298.488 294.103 301.592 295.719 304.392 295.063C305.051 294.93 305.675 294.66 306.223 294.271C306.771 293.882 307.231 293.381 307.573 292.803C307.915 292.225 308.132 291.581 308.21 290.913C308.288 290.245 308.224 289.569 308.024 288.927C306.704 285.103 299.68 283.119 296.064 283.191C295.84 283.191 293.256 283.543 291.84 283.759C292.936 282.919 294.04 282.087 295.12 281.199C298.256 278.639 301.352 275.959 304.448 273.287C305.392 272.487 306.344 271.687 307.296 270.887C307.536 271.383 310.408 277.287 312.744 279.239C314.824 280.959 317.952 282.583 320.744 281.927C321.403 281.794 322.027 281.524 322.575 281.135C323.123 280.746 323.583 280.245 323.925 279.667C324.267 279.089 324.484 278.445 324.562 277.777C324.64 277.109 324.576 276.433 324.376 275.791C323.056 271.967 316.032 269.983 312.376 270.055C312.104 270.055 308.376 270.567 307.44 270.735C309.536 268.959 311.648 267.207 313.792 265.567C316.681 263.334 319.711 261.289 322.864 259.447C322.976 259.679 325.944 265.847 328.336 267.855C330.416 269.575 333.544 271.199 336.336 270.543C336.996 270.411 337.62 270.142 338.169 269.753C338.718 269.364 339.179 268.864 339.522 268.285C339.865 267.707 340.083 267.063 340.161 266.395C340.24 265.726 340.176 265.049 339.976 264.407C338.656 260.583 331.624 258.599 328.016 258.671C327.728 258.671 323.728 259.223 323.008 259.367C323.192 259.263 323.368 259.135 323.552 259.031C326.764 257.278 330.127 255.816 333.6 254.663C335.512 253.991 337.376 253.463 339.2 252.991C339.632 254.199 341.68 259.703 343.64 261.727C345.6 263.751 348.44 265.623 351.28 265.271C351.95 265.212 352.599 265.012 353.187 264.686C353.774 264.36 354.287 263.914 354.691 263.377C355.095 262.84 355.382 262.224 355.533 261.569C355.684 260.914 355.696 260.235 355.568 259.575C354.68 255.631 347.912 252.887 344.312 252.567C344.112 252.567 342.104 252.567 340.64 252.639C341.44 252.439 342.32 252.215 343.112 252.031C346.096 251.359 348.872 250.927 351.336 250.567C352.736 250.367 354.008 250.215 355.2 250.095C356.24 251.055 360.504 254.895 363.128 255.767C365.752 256.639 369.184 257.007 371.544 255.399C372.113 255.04 372.6 254.566 372.974 254.006C373.348 253.447 373.6 252.815 373.714 252.152C373.828 251.489 373.801 250.809 373.635 250.157C373.47 249.505 373.169 248.895 372.752 248.367Z" fill="#263238"/>
<path d="M339.632 252.328C339.632 252.4 343.832 249.808 344.08 249.616C346.912 247.368 351.064 241.368 349.68 237.616C349.424 236.995 349.041 236.436 348.555 235.973C348.07 235.51 347.492 235.154 346.861 234.927C346.229 234.701 345.557 234.61 344.888 234.66C344.219 234.709 343.567 234.899 342.976 235.216C340.408 236.488 339.032 239.72 338.528 242.376C337.904 245.432 339.632 252.328 339.632 252.328Z" fill="#263238"/>
<path d="M107.128 201.551C105.904 204.479 100.656 209.271 100.656 209.271C100.656 209.271 98.544 204.855 98.448 204.559C97.32 201.127 97.168 193.823 100.44 191.447C100.995 191.068 101.623 190.81 102.284 190.689C102.945 190.569 103.624 190.588 104.278 190.747C104.931 190.905 105.543 191.199 106.075 191.609C106.608 192.019 107.048 192.536 107.368 193.127C108.8 195.599 108.168 199.063 107.128 201.551Z" fill="#263238"/>
<path d="M23.1281 248.367C25.7361 245.271 33.0081 245.967 36.3521 247.327C36.6401 247.447 40.9441 249.815 40.8961 249.871L40.8321 249.927C41.9761 250.023 43.2321 250.143 44.5521 250.303C47.0241 250.615 49.8161 250.991 52.8321 251.599C56.0752 252.215 59.2804 253.017 62.4321 253.999C65.974 255.101 69.4114 256.515 72.7041 258.223L72.8161 258.295C72.0161 257.447 69.7281 255.015 69.6161 254.807C67.4801 251.895 65.0561 245.007 67.4241 241.727C67.8335 241.195 68.3502 240.754 68.9406 240.434C69.531 240.114 70.1821 239.921 70.8516 239.868C71.5212 239.816 72.1944 239.904 72.8277 240.128C73.4609 240.351 74.0402 240.705 74.5281 241.167C76.6641 243.063 77.1441 246.551 76.9281 249.247C76.6881 252.279 73.4881 258.047 73.2321 258.511C76.5364 260.337 79.7166 262.379 82.7521 264.623C84.5281 265.927 86.2801 267.287 88.0161 268.679C87.3121 267.927 86.6961 267.247 86.6241 267.143C84.4801 264.231 82.0561 257.343 84.4241 254.063C84.8335 253.529 85.3506 253.088 85.9417 252.767C86.5329 252.446 87.1848 252.253 87.8554 252.2C88.526 252.147 89.2002 252.236 89.8342 252.46C90.4683 252.685 91.0481 253.04 91.5361 253.503C93.6721 255.399 94.1441 258.887 93.9361 261.583C93.7281 264.279 91.0881 269.287 90.3761 270.599L92.3521 272.199C95.5521 274.807 98.6561 277.415 101.808 279.879C102.92 280.751 104.048 281.567 105.176 282.383C104.56 281.719 104.04 281.151 103.968 281.055C101.832 278.143 99.4081 271.255 101.776 267.975C102.186 267.443 102.702 267.002 103.293 266.682C103.883 266.362 104.534 266.169 105.204 266.116C105.873 266.064 106.546 266.152 107.18 266.376C107.813 266.599 108.392 266.953 108.88 267.415C111.016 269.311 111.496 272.799 111.28 275.487C111.064 278.175 108.688 282.687 107.848 284.287C109.024 285.087 110.248 285.887 111.384 286.631C112.184 287.103 112.984 287.623 113.784 288.055L116.248 289.391C117.848 290.191 119.448 290.991 121.048 291.727C122.136 292.247 123.184 292.719 124.248 293.199C123.136 292.343 120.984 290.631 120.816 290.463C118.652 288.133 117.121 285.288 116.368 282.199C116.117 281.954 115.889 281.686 115.688 281.399C115.289 280.858 115.008 280.24 114.863 279.584C114.719 278.928 114.713 278.249 114.847 277.591C114.982 276.932 115.253 276.309 115.643 275.762C116.033 275.215 116.533 274.756 117.112 274.415C120.664 272.471 127.2 275.719 129.824 278.199C129.984 278.351 131.488 280.127 132.416 281.263C131.968 280.511 131.528 279.783 131.08 279.007C130.184 277.471 129.328 275.911 128.408 274.207L127.144 271.719C126.704 270.919 126.344 269.967 125.936 269.087C125.04 267.023 124.224 264.887 123.448 262.687C122.104 263.487 117.288 266.183 114.592 266.471C111.896 266.759 108.408 266.391 106.448 264.311C105.972 263.837 105.601 263.268 105.358 262.641C105.116 262.015 105.008 261.344 105.041 260.673C105.074 260.002 105.248 259.345 105.551 258.745C105.854 258.145 106.279 257.616 106.8 257.191C110 254.727 116.968 256.951 119.936 259.007C120.128 259.135 122.096 260.847 123.136 261.807C122.688 260.503 122.224 259.199 121.808 257.863C120.608 253.999 119.512 250.055 118.4 246.119C118.064 244.919 117.704 243.719 117.36 242.519C116.88 242.807 111.224 246.159 108.208 246.519C105.52 246.807 102.024 246.431 100.064 244.351C99.5879 243.877 99.2166 243.308 98.9742 242.681C98.7318 242.055 98.6237 241.384 98.6569 240.713C98.6901 240.042 98.8638 239.385 99.1668 238.785C99.4699 238.185 99.8955 237.656 100.416 237.231C103.616 234.767 110.584 236.991 113.552 239.047C113.776 239.199 116.608 241.671 117.296 242.335C116.496 239.695 115.736 237.071 114.848 234.519C113.672 231.061 112.272 227.683 110.656 224.407C110.44 224.543 104.552 228.063 101.456 228.407C98.7761 228.703 95.2721 228.327 93.3121 226.247C92.8359 225.773 92.4646 225.204 92.2222 224.577C91.9798 223.951 91.8717 223.28 91.9049 222.609C91.9381 221.938 92.1118 221.281 92.4148 220.681C92.7179 220.081 93.1435 219.552 93.6641 219.127C96.8641 216.663 103.832 218.887 106.808 220.943C107.04 221.103 110.08 223.759 110.592 224.279C110.504 224.095 110.424 223.887 110.328 223.695C108.617 220.459 106.622 217.38 104.368 214.495C103.144 212.895 101.88 211.415 100.616 210.015C99.5921 210.815 94.8481 214.239 92.0961 214.855C89.4641 215.439 85.9441 215.447 83.7681 213.599C83.242 213.18 82.8099 212.655 82.4997 212.059C82.1895 211.462 82.0082 210.807 81.9674 210.135C81.9267 209.464 82.0275 208.792 82.2633 208.162C82.499 207.532 82.8645 206.959 83.3361 206.479C86.2561 203.679 93.4081 205.127 96.5921 206.839C96.7681 206.935 98.4161 208.079 99.6081 208.927C99.0321 208.303 98.4481 207.647 97.8801 207.063C95.7681 204.847 93.6881 202.959 91.8321 201.295C90.7761 200.359 89.8001 199.535 88.8721 198.775C87.4721 198.999 81.8001 199.847 79.1281 199.127C76.4561 198.407 73.3921 196.823 72.3121 194.175C72.0445 193.563 71.9075 192.903 71.9098 192.235C71.9121 191.567 72.0537 190.907 72.3255 190.298C72.5973 189.688 72.9933 189.141 73.4883 188.693C73.9833 188.245 74.5663 187.905 75.2001 187.695C79.0881 186.551 84.8001 191.135 86.8001 194.095C86.9761 194.359 89.2641 198.711 89.2001 198.727H89.1121C90.0161 199.439 90.9761 200.215 92.0081 201.087C93.8961 202.687 96.0081 204.567 98.2001 206.735C100.566 209.053 102.796 211.505 104.88 214.079C107.23 216.951 109.318 220.027 111.12 223.271C111.143 223.309 111.162 223.349 111.176 223.391C110.944 222.223 110.376 218.951 110.376 218.695C110.2 215.087 111.976 207.999 115.76 206.575C116.396 206.356 117.071 206.273 117.741 206.331C118.411 206.39 119.061 206.588 119.649 206.914C120.238 207.24 120.751 207.686 121.156 208.223C121.561 208.76 121.848 209.376 122 210.031C122.728 212.791 121.2 215.959 119.544 218.087C117.664 220.487 111.816 223.535 111.344 223.775C113.095 227.121 114.624 230.58 115.92 234.127C116.68 236.191 117.384 238.295 118.064 240.407C117.904 239.399 117.76 238.487 117.752 238.359C117.576 234.751 119.352 227.671 123.136 226.239C123.772 226.02 124.447 225.937 125.117 225.995C125.787 226.054 126.437 226.252 127.025 226.578C127.614 226.904 128.127 227.35 128.532 227.887C128.937 228.424 129.224 229.04 129.376 229.695C130.112 232.455 128.576 235.631 126.92 237.751C125.264 239.871 120.296 242.615 118.976 243.311C119.232 244.111 119.488 244.911 119.776 245.751C120.976 249.663 122.176 253.575 123.432 257.375C123.88 258.711 124.368 260.015 124.856 261.319C124.704 260.415 124.592 259.663 124.584 259.543C124.408 255.935 126.184 248.847 129.968 247.423C130.603 247.204 131.278 247.121 131.947 247.179C132.617 247.237 133.267 247.434 133.855 247.759C134.443 248.084 134.956 248.529 135.362 249.065C135.767 249.601 136.056 250.217 136.208 250.871C136.944 253.639 135.408 256.807 133.752 258.935C132.096 261.063 127.608 263.527 126.048 264.367C126.584 265.687 127.12 267.007 127.704 268.263C128.12 269.111 128.456 269.959 128.92 270.791C129.384 271.623 129.808 272.439 130.24 273.255C131.136 274.791 132.048 276.383 132.96 277.863C133.584 278.895 134.2 279.863 134.816 280.847C134.352 279.519 133.504 276.903 133.464 276.679C132.736 273.135 133.464 265.863 136.952 263.879C137.547 263.568 138.2 263.386 138.87 263.343C139.54 263.3 140.212 263.399 140.841 263.632C141.471 263.865 142.044 264.227 142.525 264.695C143.006 265.164 143.383 265.728 143.632 266.351C144.776 268.967 143.752 272.335 142.432 274.687C140.976 277.279 135.88 281.087 135.232 281.519C136.256 283.119 137.272 284.719 138.248 286.167C138.744 286.911 139.232 287.631 139.704 288.319L137.968 290.151C137.4 289.295 136.832 288.407 136.24 287.479C135.192 285.879 134.104 284.063 133 282.231C131.107 282.994 129.17 283.643 127.2 284.175C127.256 287.223 125.232 292.791 124.96 293.511C126.712 294.311 128.424 295.039 130.048 295.719C130.717 295.962 131.401 296.16 132.096 296.311L130.248 298.255C129.855 298.179 129.469 298.066 129.096 297.919C127.312 297.119 125.424 296.255 123.496 295.327C123.056 295.975 119.432 301.191 116.88 302.719C114.56 304.111 111.224 305.239 108.576 304.167C107.946 303.936 107.371 303.575 106.888 303.108C106.406 302.641 106.027 302.078 105.776 301.455C105.525 300.832 105.407 300.164 105.431 299.493C105.454 298.822 105.618 298.163 105.912 297.559C107.8 293.975 115.04 293.079 118.6 293.695C118.816 293.735 121.048 294.383 122.448 294.823C121.648 294.439 120.896 294.079 120.096 293.679C118.496 292.879 116.896 292.079 115.24 291.175L112.84 289.799C112.04 289.351 111.24 288.775 110.376 288.263C108.488 287.039 106.632 285.711 104.776 284.327C104.088 285.719 101.576 290.647 99.4801 292.375C97.3841 294.103 94.2721 295.719 91.4801 295.063C90.8212 294.93 90.1976 294.66 89.6496 294.271C89.1017 293.882 88.6416 293.381 88.2992 292.803C87.9568 292.225 87.7397 291.581 87.662 290.913C87.5843 290.245 87.6477 289.569 87.8481 288.927C89.1681 285.103 96.1921 283.119 99.8481 283.191C100.072 283.191 102.664 283.543 104.08 283.759C102.976 282.919 101.88 282.087 100.792 281.199C97.6561 278.639 94.5681 275.959 91.4721 273.287C90.5281 272.487 89.5681 271.687 88.6161 270.887C88.3761 271.383 85.5041 277.287 83.1681 279.239C81.0881 280.959 77.9681 282.583 75.1681 281.927C74.5092 281.794 73.8856 281.524 73.3376 281.135C72.7897 280.746 72.3296 280.245 71.9872 279.667C71.6448 279.089 71.4277 278.445 71.35 277.777C71.2723 277.109 71.3357 276.433 71.5361 275.791C72.8561 271.967 79.8801 269.983 83.5361 270.055C83.8081 270.055 87.5361 270.567 88.4641 270.735C86.3681 268.959 84.2641 267.207 82.1121 265.567C79.2258 263.33 76.1952 261.286 73.0401 259.447C72.9361 259.679 69.9681 265.847 67.5681 267.855C65.4961 269.575 62.3681 271.199 59.5681 270.543C58.9092 270.41 58.2856 270.14 57.7376 269.751C57.1897 269.362 56.7296 268.861 56.3872 268.283C56.0448 267.705 55.8277 267.061 55.75 266.393C55.6723 265.725 55.7357 265.049 55.9361 264.407C57.2561 260.583 64.2801 258.599 67.9361 258.671C68.2161 258.671 72.2241 259.223 72.9441 259.367L72.3921 259.031C69.1811 257.271 65.8182 255.804 62.3441 254.647C60.4321 253.975 58.5681 253.447 56.7441 252.975C56.3121 254.183 54.2641 259.687 52.3121 261.711C50.3601 263.735 47.5121 265.607 44.6641 265.255C43.9953 265.195 43.3467 264.995 42.7601 264.668C42.1734 264.341 41.6619 263.895 41.2586 263.358C40.8552 262.821 40.5689 262.206 40.4183 261.551C40.2677 260.897 40.256 260.218 40.3841 259.559C41.2721 255.615 48.0401 252.871 51.6401 252.551C51.8321 252.551 53.8401 252.551 55.3041 252.623C54.5041 252.423 53.6321 252.199 52.8321 252.015C49.8481 251.343 47.0721 250.911 44.6161 250.551C43.2081 250.351 41.9441 250.199 40.7521 250.079C39.7041 251.039 35.4401 254.879 32.8161 255.751C30.1921 256.623 26.7601 256.991 24.4001 255.383C23.8285 255.029 23.3377 254.559 22.9593 254.004C22.5809 253.448 22.3234 252.819 22.2035 252.158C22.0835 251.497 22.1039 250.817 22.2632 250.164C22.4224 249.511 22.7171 248.899 23.1281 248.367Z" fill="#263238"/>
<path d="M56.2479 252.328C56.2479 252.4 52.0479 249.808 51.8079 249.616C48.9759 247.368 44.8159 241.368 46.2079 237.616C46.4638 236.995 46.8469 236.436 47.3325 235.973C47.8181 235.51 48.3954 235.154 49.0271 234.927C49.6588 234.701 50.3309 234.61 51 234.66C51.6691 234.709 52.3204 234.899 52.9119 235.216C55.4719 236.488 56.8558 239.72 57.3598 242.376C57.9838 245.432 56.2479 252.328 56.2479 252.328Z" fill="#263238"/>
<path d="M199.648 367.849C233.828 367.849 261.536 364.5 261.536 360.369C261.536 356.238 233.828 352.889 199.648 352.889C165.468 352.889 137.76 356.238 137.76 360.369C137.76 364.5 165.468 367.849 199.648 367.849Z" fill="#263238"/>
<path d="M355.088 319.777H314.336V334.161H355.088V319.777Z" stroke="#263238" stroke-linecap="round" stroke-linejoin="round"/>
<path d="M353.808 334.137H315.616V357.297H353.808V334.137Z" stroke="#263238" stroke-linecap="round" stroke-linejoin="round"/>
<path d="M339.088 319.85H330.336V357.498H339.088V319.85Z" stroke="#263238" stroke-linecap="round" stroke-linejoin="round"/>
<path d="M334.4 319.769C334.4 319.769 330.024 310.569 324.896 311.625C319.768 312.681 322.344 320.225 334.4 319.769Z" stroke="#263238" stroke-linecap="round" stroke-linejoin="round"/>
<path d="M334.784 319.769C334.784 319.769 339.16 310.569 344.288 311.625C349.416 312.681 346.856 320.225 334.784 319.769Z" stroke="#263238" stroke-linecap="round" stroke-linejoin="round"/>
<path d="M346.192 300.305C346.488 302.417 345.432 304.681 342.264 306.041C339.096 307.401 337.464 303.641 334.12 307.097C330.776 310.553 334.784 319.769 334.784 319.769C334.784 319.769 345.736 318.265 346.192 322.489C346.648 326.713 343.168 328.673 344.232 331.241C345.296 333.809 348.608 331.993 348.904 329.129" stroke="#263238" stroke-linecap="round" stroke-linejoin="round"/>
<path d="M342.256 73.1515C353.752 73.1515 363.072 63.8319 363.072 52.3355C363.072 40.8392 353.752 31.5195 342.256 31.5195C330.76 31.5195 321.44 40.8392 321.44 52.3355C321.44 63.8319 330.76 73.1515 342.256 73.1515Z" stroke="#263238" stroke-linecap="round" stroke-linejoin="round"/>
<path d="M342.4 69.1987V66.3987C340.08 66.3027 338.36 65.5507 337.224 64.1347C336.088 62.7187 335.464 60.7107 335.352 58.1027L339.664 57.3027C339.691 58.21 339.803 59.1127 340 59.9987C340.142 60.6993 340.474 61.3471 340.96 61.8707C341.19 62.0925 341.462 62.2651 341.76 62.3779C342.059 62.4907 342.377 62.5413 342.696 62.5268C343.022 62.5574 343.351 62.5079 343.653 62.3824C343.956 62.2569 344.223 62.0593 344.432 61.8068C344.798 61.2651 344.981 60.62 344.952 59.9667C345.005 58.9303 344.725 57.9042 344.152 57.0388C343.528 56.1939 342.808 55.4235 342.008 54.7428L338.536 51.7107C337.933 51.1736 337.382 50.5818 336.888 49.9427C336.41 49.3065 336.035 48.5992 335.776 47.8468C335.489 46.9721 335.351 46.0553 335.368 45.1347C335.318 44.2575 335.447 43.3792 335.748 42.5538C336.05 41.7284 336.516 40.9732 337.12 40.3347C338.4 39.1317 340.084 38.4523 341.84 38.4307V35.7188H343.296V38.3987C344.287 38.4257 345.257 38.6861 346.128 39.1587C346.842 39.5749 347.447 40.1531 347.896 40.8467C348.345 41.5726 348.672 42.3672 348.864 43.1987C349.082 44.0714 349.211 44.964 349.248 45.8628L345 46.6067C344.969 45.8306 344.881 45.0579 344.736 44.2947C344.636 43.7013 344.373 43.1474 343.976 42.6947C343.765 42.4938 343.512 42.3427 343.235 42.2527C342.958 42.1627 342.665 42.1361 342.376 42.1747C342.05 42.1638 341.725 42.2247 341.425 42.3533C341.125 42.4819 340.857 42.6749 340.64 42.9188C340.232 43.4214 340.021 44.0558 340.048 44.7028C340.013 45.5315 340.237 46.3507 340.688 47.0468C341.16 47.6889 341.696 48.2813 342.288 48.8147L345.728 51.8147C346.448 52.4719 347.119 53.1805 347.736 53.9347C348.358 54.7101 348.857 55.5762 349.216 56.5027C349.596 57.5263 349.783 58.6112 349.768 59.7027C349.788 60.8297 349.542 61.9454 349.048 62.9587C348.579 63.8923 347.876 64.6887 347.008 65.2707C346.066 65.8786 344.989 66.2466 343.872 66.3427V69.1987H342.4Z" fill="#263238"/>
<path d="M77.2621 51.8844C80.9668 51.0202 83.2695 47.3164 82.4053 43.6118C81.5412 39.9071 77.8374 37.6044 74.1327 38.4685C70.428 39.3327 68.1253 43.0364 68.9895 46.7411C69.8536 50.4458 73.5574 52.7485 77.2621 51.8844Z" stroke="#263238" stroke-linecap="round" stroke-linejoin="round"/>
<path d="M85.544 64.9856C85.36 58.6656 81.024 53.6016 75.696 53.6016C70.368 53.6016 66.04 58.6656 65.856 64.9856" stroke="#263238" stroke-linecap="round" stroke-linejoin="round"/>
<path d="M91.5361 49.7373C94.6996 49.7373 97.2641 47.1727 97.2641 44.0093C97.2641 40.8458 94.6996 38.2812 91.5361 38.2812C88.3726 38.2812 85.8081 40.8458 85.8081 44.0093C85.8081 47.1727 88.3726 49.7373 91.5361 49.7373Z" stroke="#263238" stroke-linecap="round" stroke-linejoin="round"/>
<path d="M99.712 60.4818C99.56 55.2018 95.9999 51.0098 91.5359 51.0098C90.0854 51.0616 88.6767 51.5094 87.4625 52.3048C86.2483 53.1002 85.2749 54.2127 84.6479 55.5218" stroke="#263238" stroke-linecap="round" stroke-linejoin="round"/>
<path d="M60.0483 49.7373C63.2118 49.7373 65.7763 47.1727 65.7763 44.0093C65.7763 40.8458 63.2118 38.2812 60.0483 38.2812C56.8848 38.2812 54.3203 40.8458 54.3203 44.0093C54.3203 47.1727 56.8848 49.7373 60.0483 49.7373Z" stroke="#263238" stroke-linecap="round" stroke-linejoin="round"/>
<path d="M51.8721 60.4818C52.0001 55.2018 55.6241 51.0098 60.0481 51.0098C61.4987 51.0654 62.9069 51.5147 64.1217 52.3095C65.3366 53.1043 66.3122 54.2148 66.9441 55.5218" stroke="#263238" stroke-linecap="round" stroke-linejoin="round"/>
<path d="M73.8807 350.451C85.2311 348.625 92.952 337.943 91.1258 326.593C89.2996 315.242 78.6179 307.522 67.2675 309.348C55.9171 311.174 48.1962 321.856 50.0224 333.206C51.8486 344.556 62.5303 352.277 73.8807 350.451Z" stroke="#263238" stroke-linecap="round" stroke-linejoin="round"/>
<path d="M70.5522 318.199V341.623" stroke="#263238" stroke-width="4" stroke-linecap="round" stroke-linejoin="round"/>
<path d="M82.2643 329.91H58.8403" stroke="#263238" stroke-width="4" stroke-linecap="round" stroke-linejoin="round"/>
<path d="M265.28 72.2399V315.008C265.28 318.207 264.009 321.276 261.747 323.538C259.484 325.801 256.416 327.072 253.216 327.072H148.32C145.121 327.072 142.052 325.801 139.79 323.538C137.527 321.276 136.256 318.207 136.256 315.008V72.2399C136.256 69.0417 137.526 65.9743 139.787 63.7121C142.048 61.4499 145.114 60.178 148.312 60.1758H193.336L193.376 60.3198C194.496 64.3198 197.08 66.9839 199.944 66.9839H201.544C204.416 66.9839 207 64.3518 208.12 60.3198L208.16 60.1758H253.176C254.764 60.1706 256.337 60.4787 257.805 61.0827C259.274 61.6866 260.608 62.5744 261.733 63.6951C262.857 64.8159 263.749 66.1476 264.358 67.6139C264.967 69.0802 265.28 70.6522 265.28 72.2399Z" fill="white" stroke="#263238" stroke-linecap="round" stroke-linejoin="round"/>
<path d="M273.48 130.225V105.977H271.288V74.9368C271.288 69.8616 269.272 64.9943 265.683 61.4056C262.095 57.8169 257.227 55.8008 252.152 55.8008H149.376C144.301 55.8008 139.434 57.8169 135.845 61.4056C132.256 64.9943 130.24 69.8616 130.24 74.9368V321.601C130.24 326.676 132.256 331.543 135.845 335.132C139.434 338.721 144.301 340.737 149.376 340.737H252.152C257.227 340.737 262.095 338.721 265.683 335.132C269.272 331.543 271.288 326.676 271.288 321.601V150.889H273.48V136.561H271.288V130.225H273.48ZM265.28 307.937C265.278 313.011 263.261 317.877 259.673 321.466C256.085 325.054 251.219 327.071 246.144 327.073H155.392C150.317 327.073 145.45 325.057 141.861 321.468C138.272 317.879 136.256 313.012 136.256 307.937V79.3128C136.256 74.2376 138.272 69.3703 141.861 65.7816C145.45 62.1929 150.317 60.1768 155.392 60.1768H193.336L193.376 60.3208C194.496 64.3208 197.08 66.9848 199.944 66.9848H201.544C204.416 66.9848 207 64.3528 208.12 60.3208L208.16 60.1768H246.104C248.62 60.1726 251.112 60.6644 253.438 61.6241C255.764 62.5838 257.878 63.9925 259.659 65.7698C261.44 67.547 262.853 69.6579 263.818 71.9818C264.782 74.3056 265.279 76.7967 265.28 79.3128V307.937Z" fill="#039AE4" stroke="#263238" stroke-linecap="round" stroke-linejoin="round"/>
<path d="M250.624 58.4414H150.912C148.488 58.4414 146.088 58.9188 143.849 59.8463C141.61 60.7738 139.575 62.1332 137.862 63.847C136.148 65.5608 134.788 67.5954 133.861 69.8346C132.933 72.0738 132.456 74.4737 132.456 76.8974V319.649C132.456 324.544 134.401 329.239 137.862 332.7C141.323 336.161 146.017 338.105 150.912 338.105H250.624C253.047 338.105 255.447 337.628 257.686 336.7C259.924 335.773 261.958 334.413 263.672 332.699C265.385 330.985 266.743 328.951 267.67 326.712C268.597 324.473 269.073 322.073 269.072 319.649V76.8974C269.073 74.4741 268.597 72.0743 267.67 69.8352C266.743 67.5961 265.385 65.5614 263.672 63.8475C261.958 62.1336 259.924 60.774 257.686 59.8464C255.447 58.9188 253.047 58.4414 250.624 58.4414ZM265.28 308.617C265.28 313.512 263.336 318.207 259.874 321.668C256.413 325.129 251.719 327.073 246.824 327.073H154.712C149.817 327.073 145.123 325.129 141.662 321.668C138.201 318.207 136.256 313.512 136.256 308.617V78.6254C136.256 73.7327 138.2 69.0404 141.659 65.5807C145.119 62.121 149.811 60.1774 154.704 60.1774H193.336L193.376 60.3214C194.496 64.3214 197.08 66.9854 199.944 66.9854H201.544C204.416 66.9854 207 64.3534 208.12 60.3214L208.16 60.1774H246.784C249.211 60.1721 251.615 60.6456 253.859 61.5708C256.103 62.4959 258.142 63.8546 259.86 65.5689C261.578 67.2832 262.941 69.3196 263.871 71.5613C264.801 73.8031 265.28 76.2064 265.28 78.6334V308.617Z" fill="#263238" stroke="#263238" stroke-linecap="round" stroke-linejoin="round"/>
<path d="M202.168 61.097C202.17 60.7404 202.065 60.3913 201.868 60.094C201.671 59.7968 201.39 59.5648 201.061 59.4276C200.732 59.2904 200.369 59.2541 200.019 59.3233C199.669 59.3925 199.348 59.5641 199.096 59.8163C198.843 60.0685 198.672 60.3899 198.603 60.7399C198.533 61.0898 198.57 61.4523 198.707 61.7816C198.844 62.1108 199.076 62.3918 199.373 62.589C199.671 62.7862 200.02 62.8906 200.376 62.889C200.852 62.889 201.307 62.7002 201.643 62.3642C201.98 62.0281 202.168 61.5723 202.168 61.097Z" fill="white"/>
<path d="M147.72 68.0007C147.72 69.8167 145.68 70.4727 145.672 71.8567V71.9527H147.656V72.5687H145.008V72.0007C145.008 70.0567 147.048 69.6727 147.048 68.0007C147.048 67.3847 146.848 67.0567 146.344 67.0567C145.84 67.0567 145.64 67.4087 145.64 67.9447V68.4807H145.008V68.0007C145.008 67.0807 145.432 66.4727 146.36 66.4727C147.288 66.4727 147.72 67.0567 147.72 68.0007Z" fill="#263238"/>
<path d="M151.024 68.0003V68.1523C151.055 68.4112 151 68.673 150.867 68.8972C150.734 69.1215 150.53 69.2955 150.288 69.3923C150.531 69.492 150.735 69.669 150.868 69.8959C151.001 70.1229 151.056 70.3872 151.024 70.6483V71.1123C151.024 72.0323 150.592 72.6323 149.664 72.6323C148.736 72.6323 148.312 72.0323 148.312 71.1123V70.6963H148.936V71.1523C148.936 71.6963 149.16 72.0243 149.648 72.0243C150.136 72.0243 150.352 71.7043 150.352 71.0963V70.6243C150.352 70.0323 150.104 69.7523 149.592 69.7283H149.232V69.1283H149.6C149.702 69.1288 149.803 69.1079 149.896 69.0669C149.99 69.0258 150.073 68.9657 150.142 68.8903C150.211 68.8148 150.263 68.7258 150.295 68.629C150.327 68.5322 150.338 68.4298 150.328 68.3283V68.0003C150.328 67.3843 150.112 67.0643 149.624 67.0643C149.136 67.0643 148.912 67.4003 148.912 67.9443V68.2563H148.288V68.0003C148.288 67.0803 148.72 66.4883 149.64 66.4883C150.56 66.4883 151.024 67.0483 151.024 68.0003Z" fill="#263238"/>
<path d="M152.32 68.4238V69.2238H151.68V68.4238H152.32ZM152.32 71.7038V72.5438H151.68V71.7038H152.32Z" fill="#263238"/>
<path d="M153.688 68.9697C153.776 68.8109 153.906 68.68 154.065 68.5922C154.223 68.5044 154.403 68.4633 154.584 68.4737C155.384 68.4737 155.696 69.0417 155.696 69.8977V71.0817C155.696 72.0017 155.264 72.6017 154.336 72.6017C153.408 72.6017 152.984 72.0017 152.984 71.0817V70.6737H153.6V71.1217C153.6 71.6657 153.824 71.9937 154.304 71.9937C154.784 71.9937 155.016 71.6657 155.016 71.1217V69.9537C155.016 69.4097 154.792 69.0817 154.304 69.0817C154.217 69.0785 154.13 69.0928 154.048 69.1238C153.966 69.1548 153.891 69.2019 153.828 69.2623C153.764 69.3227 153.714 69.3952 153.679 69.4754C153.644 69.5557 153.625 69.6421 153.624 69.7297V69.8657H153L153.16 66.5137H155.56V67.1137H153.784L153.688 68.9697Z" fill="#263238"/>
<path d="M159.048 68.001V68.113H158.4V67.921C158.4 67.377 158.176 67.057 157.688 67.057C157.2 67.057 156.952 67.385 156.952 68.033V69.385C157.022 69.1852 157.155 69.0136 157.331 68.8966C157.507 68.7796 157.717 68.7235 157.928 68.737C158.728 68.737 159.048 69.297 159.048 70.169V71.081C159.048 72.001 158.584 72.601 157.664 72.601C156.744 72.601 156.28 72.001 156.28 71.081V68.001C156.28 67.049 156.712 66.457 157.664 66.457C158.616 66.457 159.048 67.041 159.048 68.001ZM156.976 70.257V71.121C156.976 71.665 157.2 71.993 157.688 71.993C158.176 71.993 158.408 71.665 158.408 71.121V70.217C158.408 69.673 158.176 69.345 157.688 69.345C157.2 69.345 156.976 69.673 156.976 70.217V70.257Z" fill="#263238"/>
<path d="M224.872 68.2246H223.168V72.4806H224.872V68.2246Z" fill="#263238"/>
<path d="M227.144 67.377H225.44V72.489H227.144V67.377Z" fill="#263238"/>
<path d="M229.408 66.7695H227.704V72.4815H229.408V66.7695Z" fill="#263238"/>
<path d="M231.68 65.7129H229.976V72.4809H231.68V65.7129Z" fill="#263238"/>
<path d="M252.744 72.3611H242.528V66.1211H252.744V72.3611ZM243.096 71.8011H252.176V66.6891H243.096V71.8011Z" fill="#263238"/>
<path d="M249.344 67.3047H243.952V71.1767H249.344V67.3047Z" fill="#263238"/>
<path d="M253.68 68.5039H252.392V69.9759H253.68V68.5039Z" fill="#263238"/>
<path d="M238.784 71.009C238.716 71.0092 238.65 70.9898 238.592 70.953C236.512 69.721 235.136 70.865 235.08 70.953C235.045 70.9885 235.004 71.0168 234.958 71.036C234.912 71.0553 234.862 71.0652 234.812 71.0652C234.762 71.0652 234.713 71.0553 234.667 71.036C234.621 71.0168 234.579 70.9885 234.544 70.953C234.474 70.8813 234.435 70.7851 234.435 70.685C234.435 70.5848 234.474 70.4887 234.544 70.417C234.624 70.353 236.376 68.817 238.952 70.417C238.995 70.4424 239.032 70.4762 239.062 70.5162C239.092 70.5563 239.113 70.6018 239.125 70.6502C239.137 70.6986 239.139 70.7488 239.131 70.7981C239.124 70.8473 239.106 70.8945 239.08 70.937C239.038 70.9681 238.99 70.9905 238.94 71.0029C238.889 71.0153 238.836 71.0173 238.784 71.009Z" fill="#263238"/>
<path d="M239.552 69.7209C239.485 69.7202 239.42 69.7038 239.36 69.6729C236.352 67.8809 234.336 69.6169 234.312 69.6729C234.235 69.7301 234.139 69.7561 234.043 69.7457C233.947 69.7353 233.859 69.6893 233.795 69.6168C233.732 69.5443 233.698 69.4506 233.7 69.3543C233.703 69.258 233.741 69.1661 233.808 69.0969C233.808 69.0969 236.272 66.9849 239.752 69.0969C239.795 69.1224 239.832 69.1561 239.862 69.1961C239.892 69.2362 239.913 69.2817 239.925 69.3301C239.937 69.3785 239.939 69.4287 239.931 69.478C239.924 69.5272 239.906 69.5744 239.88 69.6169C239.838 69.6591 239.786 69.6905 239.729 69.7086C239.672 69.7267 239.611 69.7309 239.552 69.7209Z" fill="#263238"/>
<path d="M240.256 68.241C240.186 68.2424 240.116 68.2229 240.056 68.185C236.248 65.921 233.72 68.057 233.616 68.185C233.579 68.2181 233.535 68.2433 233.487 68.2593C233.44 68.2752 233.39 68.2815 233.34 68.2778C233.29 68.274 233.241 68.2604 233.197 68.2376C233.152 68.2148 233.113 68.1833 233.08 68.145C233.045 68.11 233.016 68.0683 232.997 68.0223C232.978 67.9763 232.968 67.9269 232.968 67.877C232.968 67.8271 232.978 67.7778 232.997 67.7317C233.016 67.6857 233.045 67.644 233.08 67.609C233.08 67.609 236.12 65.017 240.416 67.609C240.503 67.6622 240.566 67.747 240.591 67.8455C240.616 67.944 240.603 68.0486 240.552 68.137C240.513 68.1742 240.466 68.2027 240.415 68.2206C240.364 68.2386 240.31 68.2455 240.256 68.241Z" fill="#263238"/>
<path d="M237.64 71.6495C237.64 71.8394 237.584 72.025 237.478 72.1828C237.373 72.3407 237.223 72.4638 237.048 72.5364C236.872 72.6091 236.679 72.6281 236.493 72.591C236.307 72.554 236.136 72.4626 236.001 72.3283C235.867 72.1941 235.776 72.023 235.739 71.8368C235.702 71.6505 235.721 71.4575 235.793 71.2821C235.866 71.1067 235.989 70.9568 236.147 70.8513C236.305 70.7458 236.49 70.6895 236.68 70.6895C236.807 70.6884 236.932 70.7125 237.049 70.7604C237.166 70.8083 237.272 70.8789 237.361 70.9683C237.451 71.0576 237.521 71.1639 237.569 71.2809C237.617 71.3978 237.641 71.5231 237.64 71.6495Z" fill="#263238"/>
<path d="M73.9839 104.408H83.3119" stroke="#263238" stroke-linecap="round" stroke-linejoin="round"/>
<path d="M146.296 104.408H155.624" stroke="#263238" stroke-linecap="round" stroke-linejoin="round"/>
<path d="M83.312 79.9199L88.56 83.9999" stroke="#263238" stroke-linecap="round" stroke-linejoin="round"/>
<path d="M145.128 79.9199L139.88 83.9999" stroke="#263238" stroke-linecap="round" stroke-linejoin="round"/>
<path d="M104.304 70.0078L104.888 78.7518" stroke="#263238" stroke-linecap="round" stroke-linejoin="round"/>
<path d="M124.72 71.168L123.552 78.752" stroke="#263238" stroke-linecap="round" stroke-linejoin="round"/>
<path d="M137.952 93.4883H87.6001V136.936H137.952V93.4883Z" fill="white" stroke="#263238" stroke-linecap="round" stroke-linejoin="round"/>
<path d="M106.296 93.4883H96.7998V136.936H106.296V93.4883Z" fill="#039AE4" stroke="#263238" stroke-linecap="round" stroke-linejoin="round"/>
<path d="M137.952 93.4883H115.88V136.936H137.952V93.4883Z" fill="white" stroke="#263238" stroke-linecap="round" stroke-linejoin="round"/>
<path d="M109.224 89.9437L101.84 86.7437C101.659 86.7282 101.477 86.7282 101.296 86.7437L101.176 86.6797H93.7437L99.5357 89.3997C99.565 89.8066 99.6265 90.2105 99.7197 90.6077C99.9136 91.2147 100.256 91.7637 100.715 92.2051C101.175 92.6465 101.737 92.9664 102.352 93.1357L102.4 93.3677H103.2L116.056 93.5437C116.056 93.5437 112.728 91.7117 109.224 89.9437Z" fill="#039AE4" stroke="#263238" stroke-linecap="round" stroke-linejoin="round"/>
<path d="M108.632 93.4879C108.632 93.4879 100.632 89.1759 96.2961 87.2799C91.9601 85.3839 91.8081 88.3119 92.2961 90.5519C92.7841 92.7919 95.7441 93.3119 95.7441 93.3119L108.632 93.4879Z" fill="#039AE4" stroke="#263238" stroke-linecap="round" stroke-linejoin="round"/>
<path d="M110.536 90.3438H107.712C107.309 90.3427 106.91 90.4212 106.538 90.5748C106.166 90.7285 105.828 90.9541 105.543 91.2388C105.258 91.5236 105.033 91.8618 104.879 92.234C104.725 92.6062 104.647 93.0051 104.648 93.4078H113.6C113.6 92.5951 113.277 91.8158 112.703 91.2412C112.128 90.6666 111.349 90.3438 110.536 90.3438Z" fill="#039AE4" stroke="#263238" stroke-linecap="round" stroke-linejoin="round"/>
<path d="M128.184 86.7123H121.656L120.808 89.9123C117.304 91.6803 114.008 93.4563 114.008 93.4563L126.864 93.2803H127.664L127.704 93.0483C128.32 92.8801 128.884 92.5608 129.345 92.1193C129.806 91.6779 130.149 91.1282 130.344 90.5203C130.736 88.6963 130.688 86.4003 128.184 86.7123Z" fill="#039AE4" stroke="#263238" stroke-linecap="round" stroke-linejoin="round"/>
<path d="M106.296 93.4879C106.296 93.4879 114.296 89.1759 118.64 87.2799C122.984 85.3839 123.12 88.3119 122.6 90.5519C122.08 92.7919 119.152 93.3119 119.152 93.3119L106.296 93.4879Z" fill="#039AE4" stroke="#263238" stroke-linecap="round" stroke-linejoin="round"/>
<path d="M89.2398 140C89.2398 140 85.0318 137.2 85.9518 136.312C86.8718 135.424 91.3918 137.376 92.4238 138.712C93.4558 140.048 92.9358 140.944 92.0798 141.024C91.2238 141.104 89.2398 140 89.2398 140Z" fill="white" stroke="#263238" stroke-linecap="round" stroke-linejoin="round"/>
<path d="M92.7999 136.735C92.7999 136.735 86.2799 133.351 87.8479 136.479C89.4159 139.607 93.3199 142.479 94.8879 143.263C96.4559 144.047 105.064 143.783 105.064 143.783C105.064 143.783 103.464 140.911 101.928 140.127C100.392 139.343 92.7999 136.735 92.7999 136.735Z" fill="white" stroke="#263238" stroke-linecap="round" stroke-linejoin="round"/>
<path d="M99.056 136.737C99.056 136.737 90.448 132.049 90.184 133.873C89.92 135.697 96.968 141.697 99.312 142.737C101.151 143.417 103.095 143.772 105.056 143.785L99.056 136.737Z" fill="white" stroke="#263238" stroke-linecap="round" stroke-linejoin="round"/>
<path d="M132.96 144.801C132.96 144.801 129.832 137.497 127.48 136.457C125.128 135.417 104.008 137.497 104.008 137.497C104.008 137.497 93.8318 129.153 94.6158 133.321C95.3998 137.489 101.92 142.457 103.744 143.721C105.568 144.985 119.136 144.521 119.136 144.521L123.312 148.433L132.96 144.801Z" fill="white" stroke="#263238" stroke-linecap="round" stroke-linejoin="round"/>
<path d="M261.376 156.528C260.887 157.474 260.757 158.565 261.008 159.6C261.417 160.622 262.045 161.542 262.848 162.296L263.464 166.104L271.816 166.472L268.376 153.672L261.376 156.528Z" fill="white" stroke="#263238" stroke-linecap="round" stroke-linejoin="round"/>
<path d="M255.704 132.8C255.704 132.8 259.184 155.44 259.704 156.8C260.224 158.16 264.232 159.76 265.632 159.064C267.032 158.368 264.584 155.064 264.584 155.064L265.28 133.296C265.28 133.296 259.36 131.04 255.704 132.8Z" fill="#263238" stroke="#263238" stroke-linecap="round" stroke-linejoin="round"/>
<path d="M265.456 139.92C265.456 139.92 260.576 139.576 260.4 140.448C260.224 141.32 260.232 144.272 261.104 144.624C261.976 144.976 267.896 145.496 268.936 145.144C269.284 144.968 269.593 144.722 269.844 144.424C270.096 144.125 270.284 143.778 270.398 143.405C270.513 143.031 270.55 142.639 270.509 142.25C270.469 141.862 270.35 141.486 270.16 141.144C269.112 139.576 265.456 139.92 265.456 139.92Z" fill="white" stroke="#263238" stroke-linecap="round" stroke-linejoin="round"/>
<path d="M265.456 145.496C265.456 145.496 260.752 145.496 260.928 146.536C261.104 147.576 260.576 149.848 262.528 150.2C264.844 150.488 267.19 150.429 269.488 150.024C269.879 149.952 270.241 149.767 270.529 149.493C270.818 149.219 271.02 148.867 271.113 148.48C271.205 148.093 271.183 147.687 271.049 147.312C270.916 146.938 270.676 146.61 270.36 146.368C268.936 145.144 265.456 145.496 265.456 145.496Z" fill="white" stroke="#263238" stroke-linecap="round" stroke-linejoin="round"/>
<path d="M257.896 146.831C257.896 146.831 257.296 142.447 255.88 142.567C254.824 142.655 252.304 143.455 252.536 145.383C252.934 147.684 253.679 149.912 254.744 151.991C254.928 152.344 255.211 152.636 255.558 152.831C255.905 153.027 256.301 153.117 256.698 153.092C257.095 153.066 257.477 152.926 257.796 152.688C258.115 152.45 258.358 152.124 258.496 151.751C259.256 150.063 257.896 146.831 257.896 146.831Z" fill="white" stroke="#263238" stroke-linecap="round" stroke-linejoin="round"/>
<path d="M265.72 150.191C265.72 150.191 261.464 150.191 261.624 151.199C261.784 152.207 261.304 154.399 263.04 154.719C265.137 154.993 267.264 154.937 269.344 154.551C269.708 154.462 270.041 154.274 270.304 154.007C270.567 153.74 270.751 153.404 270.834 153.039C270.917 152.673 270.896 152.291 270.775 151.937C270.653 151.582 270.434 151.268 270.144 151.031C268.872 149.863 265.72 150.191 265.72 150.191Z" fill="white" stroke="#263238" stroke-linecap="round" stroke-linejoin="round"/>
<path d="M265.92 154.015C265.92 154.015 262.36 154.015 262.496 154.815C262.632 155.615 262.232 157.479 263.68 157.759C265.433 157.996 267.213 157.95 268.952 157.623C269.255 157.547 269.532 157.388 269.75 157.164C269.968 156.939 270.119 156.659 270.187 156.354C270.256 156.048 270.237 155.73 270.135 155.434C270.033 155.139 269.85 154.877 269.608 154.679C268.56 153.735 265.92 154.015 265.92 154.015Z" fill="white" stroke="#263238" stroke-linecap="round" stroke-linejoin="round"/>
<path d="M254.736 109.872C252.479 109.88 250.271 110.529 248.369 111.743C246.467 112.958 244.949 114.687 243.992 116.731C243.034 118.774 242.677 121.048 242.962 123.287C243.247 125.525 244.162 127.637 245.6 129.376C247.784 132.008 251.36 133.896 254.768 133.68C265.216 133.04 292.608 147.712 292.608 147.712V95.8398C292.608 95.8398 265.6 110.088 254.736 109.872Z" fill="white" stroke="#263238" stroke-linecap="round" stroke-linejoin="round"/>
<path d="M252.608 122.199C252.608 119.521 253.33 116.893 254.699 114.591C256.067 112.289 258.031 110.398 260.384 109.119C258.538 109.593 256.642 109.846 254.736 109.871C252.479 109.879 250.271 110.528 248.369 111.743C246.467 112.957 244.949 114.687 243.992 116.73C243.034 118.774 242.677 121.047 242.962 123.286C243.247 125.524 244.162 127.636 245.6 129.375C247.784 132.007 251.36 133.895 254.768 133.679C255.979 133.632 257.191 133.715 258.384 133.927C256.59 132.543 255.137 130.766 254.136 128.733C253.134 126.7 252.612 124.465 252.608 122.199Z" fill="#039AE4" stroke="#263238" stroke-linecap="round" stroke-linejoin="round"/>
<path d="M317.764 127.898C321.151 113.98 312.615 99.951 298.697 96.5634C284.779 93.1758 270.751 101.712 267.363 115.63C263.975 129.548 272.512 143.576 286.429 146.964C300.347 150.352 314.376 141.815 317.764 127.898Z" fill="white" stroke="#263238" stroke-linecap="round" stroke-linejoin="round"/>
<path d="M314.68 121.776C314.681 126.15 313.386 130.425 310.957 134.063C308.528 137.7 305.076 140.536 301.035 142.21C296.995 143.885 292.549 144.324 288.259 143.472C283.969 142.62 280.028 140.514 276.935 137.422C273.842 134.33 271.735 130.39 270.881 126.101C270.027 121.811 270.465 117.365 272.138 113.324C273.812 109.283 276.646 105.829 280.282 103.399C283.919 100.969 288.194 99.6719 292.568 99.6719C298.43 99.674 304.052 102.003 308.198 106.148C312.344 110.292 314.676 115.913 314.68 121.776Z" fill="#A6A6A6" stroke="#263238" stroke-linecap="round" stroke-linejoin="round"/>
<path d="M292.568 116.375V127.199L275.56 135.911C272.969 132.782 271.289 129.001 270.703 124.981C270.118 120.961 270.649 116.857 272.24 113.119L292.568 116.375Z" fill="white" stroke="#263238" stroke-linecap="round" stroke-linejoin="round"/>
<path d="M297.968 121.775C297.968 122.843 297.651 123.888 297.057 124.776C296.464 125.664 295.62 126.356 294.633 126.765C293.645 127.173 292.559 127.28 291.512 127.071C290.464 126.862 289.502 126.347 288.747 125.591C287.992 124.835 287.478 123.872 287.271 122.824C287.063 121.776 287.171 120.69 287.581 119.703C287.991 118.716 288.685 117.874 289.574 117.281C290.463 116.689 291.508 116.373 292.576 116.375C294.007 116.377 295.378 116.947 296.389 117.959C297.4 118.972 297.968 120.344 297.968 121.775Z" fill="white" stroke="#263238" stroke-linecap="round" stroke-linejoin="round"/>
<path d="M261.712 166.447L260.848 162.823L272.064 161.439L271.816 166.471L261.712 166.447Z" fill="white" stroke="#263238" stroke-linecap="round" stroke-linejoin="round"/>
<path d="M122.64 149.879L120.056 145.735L131.96 139.695L132.96 144.775L122.64 149.879Z" fill="white" stroke="#263238" stroke-linecap="round" stroke-linejoin="round"/>
<path d="M195 143.888C195 143.888 175.864 141.76 174.2 142.608C172.536 143.456 148.264 172.16 148.264 172.16L133.352 142.4L120.8 147.92C120.8 147.92 136.528 201.52 139.08 202.128C141.632 202.736 165.864 186.616 165.864 186.616L164.376 207.872C164.376 207.872 168.84 225.728 188.616 229.128C208.392 232.528 220.072 217.224 222.624 212.12C224.524 208.052 226.157 203.865 227.512 199.584L236.656 172.584C236.656 172.584 262.4 193.6 268.128 196.176C273.856 198.752 279.176 201.072 279.816 199.792C280.456 198.512 274.08 164.504 274.08 164.504L260.48 165.144L261.12 170.456C261.12 170.456 243.472 147.256 241.984 144.944C240.496 142.632 236.032 143.032 230.72 141.544C225.408 140.056 195 143.888 195 143.888Z" fill="#039AE4" stroke="#263238" stroke-linecap="round" stroke-linejoin="round"/>
<path d="M165.872 186.616L180.12 175.984" stroke="#263238" stroke-linecap="round" stroke-linejoin="round"/>
<path d="M175.016 180.024L182.24 178.744" stroke="#263238" stroke-linecap="round" stroke-linejoin="round"/>
<path d="M236.664 172.583L241.552 155.359" stroke="#263238" stroke-linecap="round" stroke-linejoin="round"/>
<path d="M238.576 167.055L243.888 159.615" stroke="#263238" stroke-linecap="round" stroke-linejoin="round"/>
<path d="M261.744 182.832L261.96 187.04" stroke="#263238" stroke-linecap="round" stroke-linejoin="round"/>
<path d="M261.112 170.455L261.496 178.031" stroke="#263238" stroke-linecap="round" stroke-linejoin="round"/>
<path d="M148.232 172.16L152.696 181.512" stroke="#263238" stroke-linecap="round" stroke-linejoin="round"/>
<path d="M202.224 141.544L192.872 143.248C192.872 143.248 189.472 146.008 187.56 152.384C186.399 156.279 185.545 160.26 185.008 164.288L193.088 164.72L186.688 171.12C186.688 171.12 188.608 173.88 192.64 179.832C195.826 184.32 199.3 188.595 203.04 192.632L191.2 207.872C191.2 207.872 205.656 204.672 214.584 194.904C223.512 185.136 228.8 170.456 228.8 170.456L221.784 164.928L229.224 163.44C229.224 163.44 230.712 151.328 222.824 143.44C214.936 135.552 202.224 141.544 202.224 141.544Z" fill="#039AE4" stroke="#263238" stroke-linecap="round" stroke-linejoin="round"/>
<path d="M223.272 146.647C223.272 146.647 220.792 151.559 220.296 160.679C219.912 167.799 216.176 176.871 212.88 183.287C210.264 188.391 207.92 191.815 207.752 191.287C207.752 191.287 206.376 189.079 204.176 182.647C203.64 181.111 203.064 179.319 202.44 177.247C199.24 166.615 196.488 149.399 197.76 145.999C198.357 144.323 199.068 142.69 199.888 141.111C210.096 154.935 223.272 146.647 223.272 146.647Z" fill="white" stroke="#263238" stroke-linecap="round" stroke-linejoin="round"/>
<path d="M210.304 175.776L212.88 183.288C210.264 188.392 207.92 191.816 207.752 191.288C207.752 191.288 206.376 189.08 204.176 182.648L207.752 176.192L204.2 169.544L208.392 165.344L214.128 171.088L210.304 175.776Z" fill="#263238" stroke="#263238" stroke-linecap="round" stroke-linejoin="round"/>
<path d="M201.376 172.584L208.392 165.352L216.936 173.416" stroke="#263238" stroke-linecap="round" stroke-linejoin="round"/>
<path d="M199.888 141.119C200.127 145.402 200.986 149.627 202.44 153.663C204.049 157.739 206.042 161.652 208.392 165.351L218.4 151.111C218.4 151.111 207.544 152.175 199.888 141.119Z" stroke="#263238" stroke-linecap="round" stroke-linejoin="round"/>
<path d="M230.296 118.592C230.296 118.592 233.336 118.12 233.336 122.272C233.336 126.424 231.576 131.536 231.576 131.536L230.296 118.592Z" fill="white" stroke="#263238" stroke-linecap="round" stroke-linejoin="round"/>
<path d="M229.224 103.28C229.224 103.28 231.352 122.624 231.56 128.368C231.768 134.112 231.136 139.208 229.224 141.76C227.312 144.312 219.624 154.512 215.624 154.936C211.624 155.36 207.12 153.24 205.424 151.736C203.728 150.232 195.64 137.488 195.64 137.488C195.64 137.488 189.48 137.064 187.992 128.984C186.504 120.904 194.792 122.824 194.792 122.824C194.792 122.824 190.328 115.808 189.904 109.008C189.48 102.208 188.2 99.6476 206.488 99.2236C224.776 98.7996 229.224 103.28 229.224 103.28Z" fill="white" stroke="#263238" stroke-linecap="round" stroke-linejoin="round"/>
<path d="M219.656 116.889L224.76 134.529L216.896 132.193" stroke="#263238" stroke-linecap="round" stroke-linejoin="round"/>
<path d="M209.032 130.064L202.864 131.344" stroke="#263238" stroke-linecap="round" stroke-linejoin="round"/>
<path d="M206.056 131.127C206.647 132.932 207.741 134.531 209.209 135.737C210.677 136.943 212.458 137.705 214.344 137.935C221.144 138.991 224.544 137.719 224.544 137.719" stroke="#263238" stroke-linecap="round" stroke-linejoin="round"/>
<path d="M207.752 134.527C207.752 134.527 207.544 145.159 211.368 145.583C215.192 146.007 214.344 137.935 214.344 137.935C211.929 137.281 209.682 136.119 207.752 134.527Z" fill="#263238" stroke="#263238" stroke-linecap="round" stroke-linejoin="round"/>
<path d="M208.536 141.879C209.056 143.815 209.928 145.423 211.368 145.583C211.73 145.634 212.1 145.587 212.438 145.446C212.776 145.305 213.069 145.076 213.288 144.783C212.544 143.479 209.976 142.399 208.536 141.879Z" fill="white" stroke="#263238" stroke-linecap="round" stroke-linejoin="round"/>
<path d="M210.4 121.776C210.4 122.952 209.88 123.904 209.232 123.904C208.584 123.904 208.064 122.952 208.064 121.776C208.064 120.6 208.584 119.648 209.232 119.648C209.88 119.648 210.4 120.6 210.4 121.776Z" fill="#263238"/>
<path d="M224.656 119.864C224.656 121.04 224.128 121.992 223.48 121.992C222.832 121.992 222.312 121.04 222.312 119.864C222.312 118.688 222.84 117.736 223.48 117.736C224.12 117.736 224.656 118.688 224.656 119.864Z" fill="#263238"/>
<path d="M205.416 118.161C206.409 117.032 207.668 116.169 209.079 115.649C210.49 115.129 212.008 114.97 213.496 115.185" stroke="#263238" stroke-linecap="round" stroke-linejoin="round"/>
<path d="M220.296 114.335C220.296 114.335 223.056 109.231 227.496 111.783" stroke="#263238" stroke-linecap="round" stroke-linejoin="round"/>
<path d="M206.688 103.703C206.688 103.703 200.104 102.639 201.592 104.559C203.08 106.479 206.48 108.807 204.792 110.295C203.104 111.783 198.84 114.295 199.056 115.607C199.272 116.919 199.688 122.199 199.056 123.479C198.424 124.759 196.928 124.967 195.44 124.751C193.952 124.535 191.824 120.711 190.976 119.647C190.128 118.583 182.472 110.935 183.96 104.767C185.448 98.5989 201.392 93.7109 201.392 93.7109C201.392 93.7109 211.576 82.2389 218.4 82.0229C225.224 81.8069 222.648 88.1909 222.4 88.8229C222.152 89.4549 232.176 88.1909 234.088 94.3509C236 100.511 235.368 102.215 226.648 104.559C217.928 106.903 206.688 103.703 206.688 103.703Z" fill="#263238" stroke="#263238" stroke-linecap="round" stroke-linejoin="round"/>
<path d="M340.784 95.2148L323.456 99.6948L327.04 101.487L317.184 104.479L337.192 101.791L332.12 99.3988L340.784 95.2148Z" fill="#263238"/>
<path d="M344.336 137.399L326.808 133.775L329.24 136.959L319.072 135.295L338.216 141.711L334.712 137.327L344.336 137.399Z" fill="#263238"/>
<path d="M325.488 166.288L310.728 156.16L311.736 160.04L303.008 154.568L318.176 167.904L316.648 162.504L325.488 166.288Z" fill="#263238"/>
<path d="M165.792 270.24V245.752H171.656C173.076 245.716 174.492 245.914 175.848 246.336C176.925 246.681 177.846 247.395 178.448 248.352C179.103 249.531 179.413 250.87 179.344 252.216C179.351 253.111 179.26 254.005 179.072 254.88C178.911 255.611 178.595 256.299 178.144 256.896C177.67 257.477 177.048 257.919 176.344 258.176L179.76 270.24H175.288L172.328 259.04H170.272V270.24H165.792ZM170.272 256.208H171.656C172.366 256.242 173.075 256.113 173.728 255.832C174.24 255.59 174.637 255.156 174.832 254.624C175.078 253.943 175.192 253.22 175.168 252.496C175.239 251.525 175.001 250.556 174.488 249.728C174.032 249.112 173.168 248.8 171.904 248.8H170.304L170.272 256.208Z" fill="#039AE4"/>
<path d="M182.696 270.24V245.752H192.976V248.896H187.2V255.936H191.76V259.056H187.2V267.2H193.064V270.28L182.696 270.24Z" fill="#039AE4"/>
<path d="M195.64 270.24V245.752H205.712V248.8H200.112V256H204.68V259.12H200.112V270.24H195.64Z" fill="#039AE4"/>
<path d="M208.04 270.24V245.752H218.32V248.896H212.512V255.936H217.08V259.056H212.512V267.2H218.4V270.28L208.04 270.24Z" fill="#039AE4"/>
<path d="M220.984 270.24V245.752H226.848C228.265 245.716 229.679 245.913 231.032 246.336C232.112 246.679 233.036 247.393 233.64 248.352C234.292 249.532 234.599 250.87 234.528 252.216C234.539 253.112 234.448 254.006 234.256 254.88C234.098 255.611 233.784 256.298 233.336 256.896C232.862 257.477 232.24 257.919 231.536 258.176L234.952 270.24H230.472L227.512 259.04H225.456V270.24H220.984ZM225.456 256.208H226.848C227.558 256.241 228.266 256.113 228.92 255.832C229.429 255.585 229.823 255.153 230.024 254.624C230.263 253.941 230.374 253.22 230.352 252.496C230.423 251.525 230.185 250.556 229.672 249.728C229.224 249.112 228.36 248.8 227.088 248.8H225.488L225.456 256.208Z" fill="#039AE4"/>
<path d="M147.152 301.728L152.048 277.24H156.848L161.752 301.728H157.6L156.632 296.08H152.368L151.368 301.728H147.152ZM152.8 293.232H156.12L154.456 282.952L152.8 293.232Z" fill="#039AE4"/>
<path d="M171.4 301.728V277.24H181.472V280.32H175.872V287.456H180.432V290.576H175.872V301.728H171.4Z" fill="#039AE4"/>
<path d="M183.8 301.728V277.24H189.664C191.084 277.205 192.5 277.402 193.856 277.824C194.933 278.169 195.854 278.883 196.456 279.84C197.108 281.02 197.415 282.359 197.344 283.704C197.354 284.599 197.265 285.493 197.08 286.368C196.919 287.099 196.603 287.787 196.152 288.384C195.678 288.965 195.056 289.407 194.352 289.664L197.768 301.728H193.296L190.336 290.528H188.28V301.728H183.8ZM188.28 287.704H189.664C190.375 287.736 191.083 287.604 191.736 287.32C192.246 287.076 192.642 286.643 192.84 286.112C193.085 285.431 193.199 284.709 193.176 283.984C193.242 283.013 193.004 282.046 192.496 281.216C192.04 280.6 191.176 280.288 189.912 280.288H188.312L188.28 287.704Z" fill="#039AE4"/>
<path d="M200.8 301.728V277.24H205.216V301.728H200.8Z" fill="#039AE4"/>
<path d="M209.024 301.728V277.24H219.304V280.384H213.496V287.424H218.064V290.544H213.496V298.648H219.36V301.728H209.024Z" fill="#039AE4"/>
<path d="M221.96 301.728V277.24H225.08L231.032 291.2V277.24H234.728V301.728H231.76L225.776 287.096V301.728H221.96Z" fill="#039AE4"/>
<path d="M238.44 301.728V277.24H244.216C245.816 277.16 247.414 277.433 248.896 278.04C249.98 278.546 250.836 279.439 251.296 280.544C251.812 281.916 252.054 283.375 252.008 284.84V293.792C252.052 295.301 251.81 296.805 251.296 298.224C250.851 299.369 249.995 300.307 248.896 300.856C247.477 301.492 245.929 301.785 244.376 301.712L238.44 301.728ZM242.92 298.616H244.28C245.056 298.683 245.832 298.492 246.488 298.072C246.951 297.662 247.237 297.089 247.288 296.472C247.4 295.624 247.451 294.768 247.44 293.912V284.552C247.459 283.747 247.387 282.941 247.224 282.152C247.183 281.883 247.089 281.625 246.948 281.393C246.806 281.161 246.62 280.96 246.4 280.8C245.733 280.47 244.99 280.324 244.248 280.376H242.952L242.92 298.616Z" fill="#039AE4"/>
</svg>
