<svg width="25" height="25" viewBox="0 0 25 25" fill="none" xmlns="http://www.w3.org/2000/svg">
<path fill-rule="evenodd" clip-rule="evenodd" d="M2.5 5.5C2.5 3.84315 3.84315 2.5 5.5 2.5H19.5C21.1569 2.5 22.5 3.84315 22.5 5.5V15.5C22.5 17.1569 21.1569 18.5 19.5 18.5H16.0308L16.403 19.9888L17.2071 20.7929C17.4931 21.0789 17.5787 21.509 17.4239 21.8827C17.2691 22.2564 16.9045 22.5 16.5 22.5H8.5C8.09554 22.5 7.7309 22.2564 7.57612 21.8827C7.42134 21.509 7.5069 21.0789 7.79289 20.7929L8.59704 19.9888L8.96922 18.5H5.5C3.84315 18.5 2.5 17.1569 2.5 15.5V5.5ZM4.5 14.5V15.5C4.5 16.0523 4.94772 16.5 5.5 16.5H10.2276C10.242 16.4997 10.2564 16.4997 10.2709 16.5H14.7291C14.7436 16.4997 14.758 16.4997 14.7724 16.5H19.5C20.0523 16.5 20.5 16.0523 20.5 15.5V14.5H4.5ZM20.5 12.5H4.5V5.5C4.5 4.94772 4.94772 4.5 5.5 4.5H19.5C20.0523 4.5 20.5 4.94772 20.5 5.5V12.5ZM13.9692 18.5H11.0308L10.5308 20.5H14.4692L13.9692 18.5Z" fill="#121826"/>
</svg>
