<svg width="400" height="401" viewBox="0 0 400 401" fill="none" xmlns="http://www.w3.org/2000/svg">
<path d="M374.08 202.028C370.136 235.468 354.88 274.356 324.368 292.212C278.296 319.212 282.152 360.724 192.216 378.772C179.101 381.467 165.732 382.73 152.344 382.54C145.792 382.419 139.253 381.885 132.768 380.94C75.6081 372.596 37.1441 332.868 23.0321 284.9C4.46411 221.828 41.5441 180.5 66.1201 155.652C90.6961 130.804 108.704 53.252 196.976 34.852C210.44 31.9626 224.192 30.6365 237.96 30.9C269.368 31.7 303.624 41.988 327.328 63.508C329.104 65.108 330.837 66.7826 332.528 68.532C365.472 102.364 379.472 156.436 374.08 202.028Z" fill="#039AE4"/>
<path opacity="0.7" d="M374.08 202.028C370.136 235.468 354.88 274.356 324.368 292.212C278.296 319.212 282.152 360.724 192.216 378.772C179.101 381.467 165.732 382.73 152.344 382.54C145.792 382.419 139.253 381.885 132.768 380.94C75.6081 372.596 37.1441 332.868 23.0321 284.9C4.46411 221.828 41.5441 180.5 66.1201 155.652C90.6961 130.804 108.704 53.252 196.976 34.852C210.44 31.9626 224.192 30.6365 237.96 30.9C269.368 31.7 303.624 41.988 327.328 63.508C329.104 65.108 330.837 66.7826 332.528 68.532C365.472 102.364 379.472 156.436 374.08 202.028Z" fill="white"/>
<path d="M19.7759 371.78H380.88" stroke="#263238" stroke-linecap="round" stroke-linejoin="round"/>
<path d="M279.304 59.22H309.784C309.784 59.22 312.704 50.42 307.44 47.22C302.176 44.02 302.176 48.388 298.08 46.628C294.704 45.18 294.08 42.428 293.12 39.516C293.016 39.18 292.904 38.844 292.784 38.516C292.458 37.6059 292.034 36.7341 291.52 35.916" stroke="#B2B2B2" stroke-linecap="round" stroke-linejoin="round"/>
<path d="M287.936 32.1323C280.304 26.5323 267.672 28.6363 267.672 40.5083C267.672 43.4283 260.648 40.5083 258.016 44.3083C255.384 48.1083 258.312 50.4523 254.816 51.6203C251.32 52.7883 251.016 49.8683 246.624 50.1563C242.232 50.4443 242.824 54.5403 241.36 55.7163C239.896 56.8923 239.904 56.3003 236.688 56.5883C233.472 56.8763 232.88 59.2203 232.88 59.2203H273.92" stroke="#B2B2B2" stroke-linecap="round" stroke-linejoin="round"/>
<path d="M295.784 56.0205C296.209 54.5199 296.218 52.9318 295.809 51.4267C295.401 49.9215 294.59 48.556 293.464 47.4765C289.552 43.8605 285.464 45.8765 284.336 47.4765C283.208 49.0765 283.176 52.1165 281.296 52.4045C279.416 52.6925 279.848 49.2045 275.792 50.0845C271.736 50.9645 273.328 55.0125 271.448 55.8765C269.568 56.7405 269.568 53.5645 266.96 54.5725C264.352 55.5805 264.496 57.4685 264.496 57.4685" stroke="#B2B2B2" stroke-linecap="round" stroke-linejoin="round"/>
<path d="M274.976 46.1799C273.909 45.4213 272.659 44.962 271.355 44.8494C270.051 44.7369 268.741 44.9753 267.56 45.5399C263.368 47.4759 265.304 51.5079 263.368 52.4759C261.432 53.4439 260.464 52.3079 258.048 53.4439C255.632 54.5799 255.784 56.1799 255.784 56.1799" stroke="#B2B2B2" stroke-linecap="round" stroke-linejoin="round"/>
<path d="M71.1999 113.556C70.4898 113.165 69.6798 112.993 68.8719 113.06C66.3519 113.228 66.6879 115.58 65.8479 116.26C65.0079 116.94 65.0479 116.596 63.1679 116.764C62.6927 116.757 62.2272 116.898 61.8358 117.168C61.4444 117.437 61.1467 117.822 60.9839 118.268H105.12C105.12 118.268 106.208 115.012 105.056 112.772" stroke="#B2B2B2" stroke-linecap="round" stroke-linejoin="round"/>
<path d="M103.792 111.38C100.776 109.54 100.776 112.052 98.4241 111.044C96.4801 110.244 96.1201 108.644 95.5761 106.964L95.3841 106.388C92.8321 99.2998 80.9841 98.8118 80.9841 107.524C80.9841 109.204 76.9841 107.524 75.4481 109.708C73.9121 111.892 75.6161 113.228 73.6001 113.9" stroke="#B2B2B2" stroke-linecap="round" stroke-linejoin="round"/>
<path d="M97.1039 116.428C97.3478 115.567 97.3532 114.656 97.1193 113.792C96.8853 112.928 96.421 112.144 95.7759 111.524C93.5279 109.444 91.1999 110.612 90.5359 111.524C89.8719 112.436 89.8719 114.18 88.7919 114.348C87.7119 114.516 87.9919 112.524 85.6319 113.02C83.2719 113.516 84.2239 115.844 83.1359 116.348C82.0479 116.852 82.0558 115.012 80.5598 115.596C79.0638 116.18 79.1519 117.3 79.1519 117.3" stroke="#B2B2B2" stroke-linecap="round" stroke-linejoin="round"/>
<path d="M85.1681 110.78C84.5561 110.344 83.8387 110.08 83.0903 110.016C82.3419 109.951 81.5898 110.088 80.9121 110.412C78.5121 111.524 79.6161 113.836 78.5121 114.412C77.4081 114.988 76.8481 114.324 75.4561 114.972C74.0641 115.62 74.1601 116.572 74.1601 116.572" stroke="#B2B2B2" stroke-linecap="round" stroke-linejoin="round"/>
<path d="M174.4 36.9158C173.693 36.5234 172.885 36.3507 172.08 36.4198C169.56 36.5878 169.896 38.9398 169.056 39.6198C168.216 40.2998 168.216 39.9558 166.368 40.1158C165.893 40.1109 165.429 40.2539 165.039 40.5248C164.649 40.7957 164.353 41.1812 164.192 41.6278H208.328C208.328 41.6278 209.416 38.3718 208.264 36.1318" stroke="#B2B2B2" stroke-linecap="round" stroke-linejoin="round"/>
<path d="M206.952 34.7402C203.936 32.8922 203.936 35.4122 201.584 34.4042C199.64 33.6042 199.28 32.0042 198.736 30.3242L198.544 29.7482C195.992 22.6602 184.144 22.1642 184.144 30.8842C184.144 32.5562 180.144 30.8842 178.608 33.0602C177.072 35.2362 178.776 36.5882 176.76 37.2602" stroke="#B2B2B2" stroke-linecap="round" stroke-linejoin="round"/>
<path d="M200.264 39.7877C200.505 38.9283 200.508 38.0197 200.272 37.1588C200.037 36.2979 199.572 35.5171 198.928 34.8997C196.688 32.8197 194.36 33.9797 193.696 34.8997C193.032 35.8197 193.032 37.5557 191.952 37.7237C190.872 37.8917 191.152 35.8917 188.792 36.3957C186.432 36.8997 187.376 39.2197 186.296 39.7157C185.216 40.2117 185.216 38.3877 183.72 38.9717C182.224 39.5557 182.304 40.6357 182.304 40.6357" stroke="#B2B2B2" stroke-linecap="round" stroke-linejoin="round"/>
<path d="M188.32 34.1402C187.708 33.7046 186.99 33.4407 186.242 33.376C185.493 33.3113 184.741 33.4481 184.064 33.7722C181.664 34.8762 182.768 37.1962 181.664 37.7722C180.56 38.3482 179.992 37.6762 178.608 38.3242C177.224 38.9722 177.312 39.9242 177.312 39.9242" stroke="#B2B2B2" stroke-linecap="round" stroke-linejoin="round"/>
<path d="M348.072 78.1719H173.84V371.78H348.072V78.1719Z" fill="#ADADAD" stroke="#ADADAD" stroke-linecap="round" stroke-linejoin="round"/>
<path d="M348.072 78.1719H247.752V371.78H348.072V78.1719Z" fill="white" stroke="#ADADAD" stroke-linecap="round" stroke-linejoin="round"/>
<path d="M336.424 78.1719H259.392V371.78H336.424V78.1719Z" fill="white" stroke="#ADADAD" stroke-linecap="round" stroke-linejoin="round"/>
<path d="M348.072 78.1719H247.752V98.2839H348.072V78.1719Z" fill="#ADADAD" stroke="#ADADAD" stroke-linecap="round" stroke-linejoin="round"/>
<path d="M322.28 335.7H273.544V371.788H322.28V335.7Z" fill="white" stroke="#ADADAD" stroke-linecap="round" stroke-linejoin="round"/>
<path d="M322.28 335.7H297.912V371.788H322.28V335.7Z" fill="white" stroke="#ADADAD" stroke-linecap="round" stroke-linejoin="round"/>
<path d="M207.536 111.116H185.416V131.204H207.536V111.116Z" fill="white" stroke="#ADADAD" stroke-linecap="round" stroke-linejoin="round"/>
<path d="M207.536 105.332H185.416V114.068H207.536V105.332Z" fill="white" stroke="#ADADAD" stroke-linecap="round" stroke-linejoin="round"/>
<path d="M239.152 111.116H217.032V131.204H239.152V111.116Z" fill="white" stroke="#ADADAD" stroke-linecap="round" stroke-linejoin="round"/>
<path d="M239.152 105.332H217.032V114.068H239.152V105.332Z" fill="white" stroke="#ADADAD" stroke-linecap="round" stroke-linejoin="round"/>
<path d="M207.536 149.677H185.416V169.765H207.536V149.677Z" fill="white" stroke="#ADADAD" stroke-linecap="round" stroke-linejoin="round"/>
<path d="M207.536 143.893H185.416V152.629H207.536V143.893Z" fill="white" stroke="#ADADAD" stroke-linecap="round" stroke-linejoin="round"/>
<path d="M239.152 149.677H217.032V169.765H239.152V149.677Z" fill="white" stroke="#ADADAD" stroke-linecap="round" stroke-linejoin="round"/>
<path d="M239.152 143.893H217.032V152.629H239.152V143.893Z" fill="white" stroke="#ADADAD" stroke-linecap="round" stroke-linejoin="round"/>
<path d="M207.536 188.236H185.416V208.324H207.536V188.236Z" fill="white" stroke="#ADADAD" stroke-linecap="round" stroke-linejoin="round"/>
<path d="M207.536 182.452H185.416V191.188H207.536V182.452Z" fill="white" stroke="#ADADAD" stroke-linecap="round" stroke-linejoin="round"/>
<path d="M239.152 188.236H217.032V208.324H239.152V188.236Z" fill="white" stroke="#ADADAD" stroke-linecap="round" stroke-linejoin="round"/>
<path d="M239.152 182.452H217.032V191.188H239.152V182.452Z" fill="white" stroke="#ADADAD" stroke-linecap="round" stroke-linejoin="round"/>
<path d="M207.536 226.796H185.416V246.884H207.536V226.796Z" fill="white" stroke="#ADADAD" stroke-linecap="round" stroke-linejoin="round"/>
<path d="M207.536 221.004H185.416V229.74H207.536V221.004Z" fill="white" stroke="#ADADAD" stroke-linecap="round" stroke-linejoin="round"/>
<path d="M239.152 226.796H217.032V246.884H239.152V226.796Z" fill="white" stroke="#ADADAD" stroke-linecap="round" stroke-linejoin="round"/>
<path d="M239.152 221.004H217.032V229.74H239.152V221.004Z" fill="white" stroke="#ADADAD" stroke-linecap="round" stroke-linejoin="round"/>
<path d="M207.536 265.356H185.416V285.444H207.536V265.356Z" fill="white" stroke="#ADADAD" stroke-linecap="round" stroke-linejoin="round"/>
<path d="M207.536 259.564H185.416V268.3H207.536V259.564Z" fill="white" stroke="#ADADAD" stroke-linecap="round" stroke-linejoin="round"/>
<path d="M239.152 265.356H217.032V285.444H239.152V265.356Z" fill="white" stroke="#ADADAD" stroke-linecap="round" stroke-linejoin="round"/>
<path d="M239.152 259.564H217.032V268.3H239.152V259.564Z" fill="white" stroke="#ADADAD" stroke-linecap="round" stroke-linejoin="round"/>
<path d="M207.536 303.908H185.416V323.996H207.536V303.908Z" fill="white" stroke="#ADADAD" stroke-linecap="round" stroke-linejoin="round"/>
<path d="M207.536 298.124H185.416V306.86H207.536V298.124Z" fill="white" stroke="#ADADAD" stroke-linecap="round" stroke-linejoin="round"/>
<path d="M239.152 303.908H217.032V323.996H239.152V303.908Z" fill="white" stroke="#ADADAD" stroke-linecap="round" stroke-linejoin="round"/>
<path d="M239.152 298.124H217.032V306.86H239.152V298.124Z" fill="white" stroke="#ADADAD" stroke-linecap="round" stroke-linejoin="round"/>
<path d="M277.968 111.116H255.848V131.204H277.968V111.116Z" fill="white" stroke="#ADADAD" stroke-linecap="round" stroke-linejoin="round"/>
<path d="M277.968 105.332H255.848V114.068H277.968V105.332Z" fill="white" stroke="#ADADAD" stroke-linecap="round" stroke-linejoin="round"/>
<path d="M309.592 111.116H287.472V131.204H309.592V111.116Z" fill="white" stroke="#ADADAD" stroke-linecap="round" stroke-linejoin="round"/>
<path d="M309.592 105.332H287.472V114.068H309.592V105.332Z" fill="white" stroke="#ADADAD" stroke-linecap="round" stroke-linejoin="round"/>
<path d="M341.208 111.116H319.088V131.204H341.208V111.116Z" fill="white" stroke="#ADADAD" stroke-linecap="round" stroke-linejoin="round"/>
<path d="M341.208 105.332H319.088V114.068H341.208V105.332Z" fill="white" stroke="#ADADAD" stroke-linecap="round" stroke-linejoin="round"/>
<path d="M277.968 149.677H255.848V169.765H277.968V149.677Z" fill="white" stroke="#ADADAD" stroke-linecap="round" stroke-linejoin="round"/>
<path d="M277.968 143.893H255.848V152.629H277.968V143.893Z" fill="white" stroke="#ADADAD" stroke-linecap="round" stroke-linejoin="round"/>
<path d="M309.592 149.677H287.472V169.765H309.592V149.677Z" fill="white" stroke="#ADADAD" stroke-linecap="round" stroke-linejoin="round"/>
<path d="M309.592 143.893H287.472V152.629H309.592V143.893Z" fill="white" stroke="#ADADAD" stroke-linecap="round" stroke-linejoin="round"/>
<path d="M341.208 149.677H319.088V169.765H341.208V149.677Z" fill="white" stroke="#ADADAD" stroke-linecap="round" stroke-linejoin="round"/>
<path d="M341.208 143.893H319.088V152.629H341.208V143.893Z" fill="white" stroke="#ADADAD" stroke-linecap="round" stroke-linejoin="round"/>
<path d="M277.968 188.236H255.848V208.324H277.968V188.236Z" fill="white" stroke="#ADADAD" stroke-linecap="round" stroke-linejoin="round"/>
<path d="M277.968 182.452H255.848V191.188H277.968V182.452Z" fill="white" stroke="#ADADAD" stroke-linecap="round" stroke-linejoin="round"/>
<path d="M309.592 188.236H287.472V208.324H309.592V188.236Z" fill="white" stroke="#ADADAD" stroke-linecap="round" stroke-linejoin="round"/>
<path d="M309.592 182.452H287.472V191.188H309.592V182.452Z" fill="white" stroke="#ADADAD" stroke-linecap="round" stroke-linejoin="round"/>
<path d="M341.208 188.236H319.088V208.324H341.208V188.236Z" fill="white" stroke="#ADADAD" stroke-linecap="round" stroke-linejoin="round"/>
<path d="M341.208 182.452H319.088V191.188H341.208V182.452Z" fill="white" stroke="#ADADAD" stroke-linecap="round" stroke-linejoin="round"/>
<path d="M277.968 226.796H255.848V246.884H277.968V226.796Z" fill="white" stroke="#ADADAD" stroke-linecap="round" stroke-linejoin="round"/>
<path d="M277.968 221.004H255.848V229.74H277.968V221.004Z" fill="white" stroke="#ADADAD" stroke-linecap="round" stroke-linejoin="round"/>
<path d="M309.592 226.796H287.472V246.884H309.592V226.796Z" fill="white" stroke="#ADADAD" stroke-linecap="round" stroke-linejoin="round"/>
<path d="M309.592 221.004H287.472V229.74H309.592V221.004Z" fill="white" stroke="#ADADAD" stroke-linecap="round" stroke-linejoin="round"/>
<path d="M341.208 226.796H319.088V246.884H341.208V226.796Z" fill="white" stroke="#ADADAD" stroke-linecap="round" stroke-linejoin="round"/>
<path d="M341.208 221.004H319.088V229.74H341.208V221.004Z" fill="white" stroke="#ADADAD" stroke-linecap="round" stroke-linejoin="round"/>
<path d="M277.968 265.356H255.848V285.444H277.968V265.356Z" fill="white" stroke="#ADADAD" stroke-linecap="round" stroke-linejoin="round"/>
<path d="M277.968 259.564H255.848V268.3H277.968V259.564Z" fill="white" stroke="#ADADAD" stroke-linecap="round" stroke-linejoin="round"/>
<path d="M309.592 265.356H287.472V285.444H309.592V265.356Z" fill="white" stroke="#ADADAD" stroke-linecap="round" stroke-linejoin="round"/>
<path d="M309.592 259.564H287.472V268.3H309.592V259.564Z" fill="white" stroke="#ADADAD" stroke-linecap="round" stroke-linejoin="round"/>
<path d="M341.208 265.356H319.088V285.444H341.208V265.356Z" fill="white" stroke="#ADADAD" stroke-linecap="round" stroke-linejoin="round"/>
<path d="M341.208 259.564H319.088V268.3H341.208V259.564Z" fill="white" stroke="#ADADAD" stroke-linecap="round" stroke-linejoin="round"/>
<path d="M277.968 303.908H255.848V323.996H277.968V303.908Z" fill="white" stroke="#ADADAD" stroke-linecap="round" stroke-linejoin="round"/>
<path d="M277.968 298.124H255.848V306.86H277.968V298.124Z" fill="white" stroke="#ADADAD" stroke-linecap="round" stroke-linejoin="round"/>
<path d="M309.592 303.908H287.472V323.996H309.592V303.908Z" fill="white" stroke="#ADADAD" stroke-linecap="round" stroke-linejoin="round"/>
<path d="M309.592 298.124H287.472V306.86H309.592V298.124Z" fill="white" stroke="#ADADAD" stroke-linecap="round" stroke-linejoin="round"/>
<path d="M341.208 303.908H319.088V323.996H341.208V303.908Z" fill="white" stroke="#ADADAD" stroke-linecap="round" stroke-linejoin="round"/>
<path d="M341.208 298.124H319.088V306.86H341.208V298.124Z" fill="white" stroke="#ADADAD" stroke-linecap="round" stroke-linejoin="round"/>
<path d="M340.928 335.645H254.768V346.573H340.928V335.645Z" fill="white" stroke="#ADADAD" stroke-linecap="round" stroke-linejoin="round"/>
<path d="M340.928 332.484H254.768V343.412H340.928V332.484Z" fill="white" stroke="#ADADAD" stroke-linecap="round" stroke-linejoin="round"/>
<path d="M220.68 63.0684H173.744V92.0044H220.68V63.0684Z" fill="#ADADAD" stroke="#ADADAD" stroke-linecap="round" stroke-linejoin="round"/>
<path d="M220.68 63.0684H204.44V92.0044H220.68V63.0684Z" fill="white" stroke="#ADADAD" stroke-linecap="round" stroke-linejoin="round"/>
<path d="M339.64 70.1406H320.352V92.0046H339.64V70.1406Z" fill="white" stroke="#ADADAD" stroke-linecap="round" stroke-linejoin="round"/>
<path d="M330.72 70.1406H311.432V92.0046H330.72V70.1406Z" fill="#ADADAD" stroke="#ADADAD" stroke-linecap="round" stroke-linejoin="round"/>
<path d="M352.32 78.1719H169.6V92.0039H352.32V78.1719Z" fill="white" stroke="#ADADAD" stroke-linecap="round" stroke-linejoin="round"/>
<path d="M352.312 78.1719H243.048V92.0039H352.312V78.1719Z" fill="white" stroke="#ADADAD" stroke-linecap="round" stroke-linejoin="round"/>
<path d="M247.752 78.1719V83.9799" stroke="#ADADAD" stroke-linecap="round" stroke-linejoin="round"/>
<path d="M250.736 78.1719V83.9799" stroke="#ADADAD" stroke-linecap="round" stroke-linejoin="round"/>
<path d="M250.736 85.5488V89.9808" stroke="#ADADAD" stroke-linecap="round" stroke-linejoin="round"/>
<path d="M253.728 78.1719V83.9799" stroke="#ADADAD" stroke-linecap="round" stroke-linejoin="round"/>
<path d="M253.728 85.7959V89.9079" stroke="#ADADAD" stroke-linecap="round" stroke-linejoin="round"/>
<path d="M256.52 85.7959V88.3879" stroke="#ADADAD" stroke-linecap="round" stroke-linejoin="round"/>
<path d="M256.72 78.1719V83.9799" stroke="#ADADAD" stroke-linecap="round" stroke-linejoin="round"/>
<path d="M260.104 82.5088V83.9808" stroke="#ADADAD" stroke-linecap="round" stroke-linejoin="round"/>
<path d="M260.304 78.1719V81.4759" stroke="#ADADAD" stroke-linecap="round" stroke-linejoin="round"/>
<path d="M247.752 85.1484V88.5884" stroke="#ADADAD" stroke-linecap="round" stroke-linejoin="round"/>
<path d="M20.6639 128.78C24.0719 130.268 32.4159 130.076 32.4239 130.076C32.4319 130.076 30.6319 124.612 30.4719 124.284C28.6399 120.452 22.8479 114.132 18.1439 114.764C17.3595 114.884 16.6095 115.169 15.9436 115.6C15.2777 116.032 14.7111 116.6 14.2815 117.267C13.8518 117.935 13.5689 118.686 13.4514 119.47C13.3339 120.255 13.3845 121.056 13.5999 121.82C14.3999 125.084 17.7599 127.508 20.6639 128.78Z" fill="#263238"/>
<path d="M23.5438 152.948C27.0798 153.46 34.5278 151.3 35.1198 151.124C36.3458 155.387 37.8531 159.564 39.6318 163.628C40.6558 166.028 41.7678 168.356 42.9038 170.7C42.2238 169.708 41.6078 168.82 41.5118 168.708C38.7358 165.508 31.4798 160.924 27.1118 162.788C26.3896 163.113 25.7445 163.587 25.2193 164.18C24.694 164.773 24.3004 165.47 24.0645 166.226C23.8286 166.982 23.7558 167.78 23.8508 168.566C23.9458 169.352 24.2066 170.109 24.6158 170.788C26.2158 173.724 30.1038 175.18 33.2398 175.636C36.3758 176.092 42.8398 174.388 44.4958 173.916C44.9438 174.812 45.3758 175.708 45.8238 176.604C47.9838 180.9 50.1518 185.172 52.1518 189.404C52.8558 190.908 53.4958 192.412 54.1438 193.916C53.5438 193.028 53.0238 192.316 52.9358 192.188C50.1598 188.988 42.9038 184.404 38.5358 186.268C37.8136 186.593 37.1685 187.067 36.6433 187.66C36.118 188.253 35.7244 188.95 35.4885 189.706C35.2526 190.462 35.1798 191.26 35.2748 192.046C35.3698 192.832 35.6306 193.589 36.0398 194.268C37.6398 197.204 41.5278 198.66 44.6638 199.116C47.7998 199.572 53.5998 198.036 55.5998 197.484C56.2158 199.084 56.8318 200.604 57.3598 202.14C57.6958 203.196 58.0878 204.196 58.3678 205.276L59.2478 208.476C59.7358 210.508 60.2558 212.604 60.6798 214.596C60.9838 215.98 61.2478 217.3 61.5198 218.636C60.8398 217.132 59.4318 214.22 59.2878 213.996C57.0318 210.396 50.5518 204.78 45.9438 205.956C45.1825 206.168 44.4749 206.54 43.8676 207.046C43.2602 207.552 42.7669 208.181 42.42 208.891C42.0732 209.602 41.8806 210.378 41.8551 211.168C41.8295 211.958 41.9715 212.744 42.2718 213.476C43.4238 216.628 47.0318 218.652 50.0638 219.58C53.3998 220.604 60.7918 219.668 61.7118 219.58C62.1598 221.788 62.5678 223.94 62.9198 225.98C63.1838 227.484 63.4318 228.932 63.6478 230.324H66.6078C66.3278 228.772 66.0238 227.124 65.6878 225.46C65.2478 223.212 64.7358 220.828 64.1758 218.38C66.4016 217.489 68.5733 216.468 70.6798 215.324C73.0798 217.956 79.3518 221.036 80.1518 221.428C79.3038 223.516 78.4638 225.54 77.6318 227.436C77.1998 228.436 76.7758 229.388 76.3518 230.324H79.4798C79.7278 229.732 79.9758 229.148 80.2238 228.532C81.0958 226.412 81.9838 224.14 82.8798 221.788C83.7678 221.98 91.0878 223.46 94.4958 222.692C97.5918 221.996 101.336 220.244 102.72 217.188C103.074 216.48 103.275 215.706 103.308 214.916C103.342 214.126 103.208 213.337 102.914 212.602C102.621 211.868 102.175 211.204 101.607 210.654C101.038 210.104 100.36 209.68 99.6158 209.412C95.1118 207.9 88.2318 213.012 85.7118 216.428C85.5598 216.636 84.1918 218.996 83.3118 220.508C83.6718 219.548 84.0318 218.62 84.3838 217.62C85.1038 215.66 85.7678 213.684 86.4798 211.564C86.7918 210.524 87.1118 209.476 87.4238 208.412C87.7358 207.348 87.9838 206.228 88.2718 205.124C88.8878 202.548 89.3838 199.908 89.8238 197.244C91.5358 197.868 97.6718 200.004 100.848 199.78C104.024 199.556 107.976 198.396 109.808 195.58C110.28 194.938 110.61 194.202 110.776 193.422C110.941 192.643 110.938 191.836 110.767 191.058C110.596 190.279 110.26 189.546 109.783 188.908C109.306 188.269 108.698 187.74 108 187.356C103.776 185.172 96.1998 189.196 93.1918 192.156C93.0078 192.34 91.0878 194.732 90.0558 196.068C90.3118 194.468 90.5678 192.868 90.7758 191.228C91.3598 186.516 91.7998 181.724 92.2718 176.948C92.4078 175.484 92.5678 174.028 92.7278 172.572C93.3358 172.804 100.568 175.492 104.128 175.244C107.288 175.02 111.256 173.86 113.088 171.044C113.543 170.399 113.857 169.665 114.009 168.89C114.161 168.116 114.147 167.317 113.969 166.548C113.79 165.779 113.452 165.057 112.974 164.428C112.497 163.799 111.892 163.278 111.2 162.9C106.976 160.724 99.3998 164.74 96.3918 167.7C96.1598 167.924 93.4078 171.372 92.7518 172.284C93.0878 169.084 93.4558 165.884 93.9518 162.732C94.5936 158.493 95.5075 154.301 96.6878 150.18C96.9758 150.292 104.512 153.132 108.16 152.876C111.32 152.66 115.288 151.492 117.12 148.684C117.567 148.038 117.873 147.305 118.019 146.534C118.165 145.762 118.147 144.968 117.966 144.204C117.784 143.439 117.445 142.722 116.968 142.097C116.492 141.473 115.889 140.956 115.2 140.58C110.976 138.404 103.408 142.42 100.392 145.38C100.16 145.62 97.1918 149.324 96.7118 150.036C96.7758 149.796 96.8238 149.54 96.8958 149.308C98.2022 145.209 99.8673 141.234 101.872 137.428C102.952 135.308 104.104 133.348 105.272 131.468C106.616 132.14 112.824 135.148 116.128 135.284C119.328 135.412 123.368 134.692 125.496 132.084C126.022 131.492 126.417 130.796 126.655 130.041C126.892 129.286 126.967 128.489 126.874 127.702C126.781 126.916 126.523 126.159 126.115 125.48C125.708 124.801 125.162 124.216 124.512 123.764C120.512 121.14 112.584 124.3 109.264 126.964C109.08 127.108 107.408 128.78 106.208 130.004C106.744 129.204 107.288 128.284 107.808 127.492C109.8 124.492 111.808 121.892 113.6 119.572C114.632 118.268 115.584 117.108 116.496 116.036C118.168 116.036 124.888 115.804 127.832 114.436C130.776 113.068 133.984 110.572 134.68 107.292C134.874 106.525 134.904 105.725 134.766 104.946C134.629 104.167 134.329 103.425 133.884 102.771C133.44 102.116 132.862 101.563 132.188 101.148C131.514 100.733 130.76 100.466 129.976 100.364C125.248 99.8596 119.632 106.332 117.904 110.212C117.752 110.548 116.024 116.06 116.112 116.06H116.208C115.312 117.076 114.368 118.18 113.36 119.396C111.512 121.668 109.44 124.252 107.384 127.22C105.125 130.385 103.054 133.682 101.184 137.092C99.0648 140.898 97.2924 144.888 95.8878 149.012L95.8398 149.164C95.8398 147.772 95.8398 143.876 95.7678 143.564C95.2238 139.348 91.6958 131.564 87.0158 130.676C86.2352 130.549 85.4368 130.59 84.6731 130.795C83.9093 130.999 83.1976 131.364 82.5847 131.863C81.9718 132.363 81.4716 132.986 81.1171 133.693C80.7626 134.4 80.5617 135.174 80.5278 135.964C80.2558 139.308 82.6798 142.66 85.0478 144.764C87.7118 147.164 95.1118 149.452 95.7038 149.628C94.3763 153.86 93.3313 158.176 92.5758 162.548C92.1198 165.092 91.7758 167.668 91.3998 170.252C91.3998 169.044 91.3998 167.972 91.3358 167.852C90.7918 163.644 87.2638 155.852 82.5838 154.964C81.8038 154.839 81.0063 154.88 80.2435 155.085C79.4807 155.291 78.77 155.655 78.158 156.154C77.546 156.654 77.0466 157.277 76.6926 157.983C76.3385 158.689 76.1379 159.462 76.1038 160.252C75.8238 163.604 78.2478 166.948 80.6158 169.052C82.9838 171.156 89.2878 173.292 90.9518 173.852C90.8318 174.844 90.6958 175.836 90.5758 176.836C90.0078 181.636 89.4638 186.364 88.7758 191.02C88.5438 192.62 88.2478 194.268 87.9758 195.876C87.9758 194.812 87.9358 193.908 87.9198 193.772C87.3758 189.564 83.8478 181.772 79.1758 180.884C78.3946 180.756 77.5953 180.796 76.8306 181C76.0659 181.204 75.3532 181.568 74.7393 182.068C74.1255 182.567 73.6246 183.191 73.2696 183.899C72.9146 184.606 72.7136 185.381 72.6798 186.172C72.4078 189.516 74.8318 192.868 77.1998 194.972C79.5678 197.076 85.2638 198.972 87.2398 199.644C86.8878 201.244 86.5438 202.924 86.1358 204.492C85.8318 205.564 85.6158 206.612 85.2478 207.692C84.8798 208.772 84.5758 209.78 84.2398 210.812C83.5278 212.78 82.7998 214.812 82.0558 216.708C81.5518 218.028 81.0398 219.284 80.5278 220.54C80.7918 218.94 81.2238 215.74 81.2318 215.436C81.1786 211.702 80.1706 208.045 78.3038 204.812C78.313 204.394 78.2862 203.976 78.2238 203.564C78.1327 202.776 77.8754 202.016 77.4687 201.335C77.0621 200.654 76.5155 200.068 75.865 199.614C75.2146 199.16 74.4752 198.85 73.6958 198.703C72.9163 198.556 72.1146 198.577 71.3438 198.764C66.7518 199.988 63.8398 208.052 63.6238 212.292C63.6238 212.54 63.7678 215.268 63.9038 216.988C63.6718 215.988 63.4558 215.012 63.2078 213.988C62.7278 211.956 62.1838 209.988 61.6078 207.78C61.2878 206.74 60.9758 205.692 60.6558 204.636C60.3358 203.58 59.9118 202.5 59.5438 201.436C58.6318 198.956 57.5918 196.476 56.4878 194.012C58.2638 193.588 64.5598 191.98 67.0878 190.012C69.6158 188.044 72.2718 184.924 72.2478 181.564C72.2733 180.773 72.131 179.985 71.8301 179.253C71.5292 178.521 71.0766 177.862 70.5021 177.317C69.9276 176.773 69.2443 176.357 68.4972 176.096C67.7501 175.835 66.9562 175.735 66.1678 175.804C61.4398 176.316 57.3678 183.844 56.4798 188.004C56.4318 188.268 56.1518 191.316 56.0318 192.996C55.3518 191.516 54.6878 190.036 53.9518 188.564C51.8398 184.308 49.5758 180.068 47.3278 175.828C46.6398 174.532 45.9678 173.228 45.2878 171.932C45.9278 171.788 53.4478 170.036 56.2718 167.868C58.7918 165.94 61.4558 162.78 61.4318 159.428C61.4572 158.637 61.3151 157.851 61.0146 157.119C60.7142 156.388 60.2623 155.729 59.6887 155.185C59.1151 154.64 58.4328 154.224 57.6867 153.962C56.9406 153.701 56.1476 153.601 55.3598 153.668C50.6318 154.18 46.5598 161.668 45.6718 165.868C45.6078 166.18 45.2158 170.572 45.1678 171.692C43.6798 168.828 42.2238 165.956 40.8958 163.068C39.0921 159.172 37.5422 155.163 36.2558 151.068C36.5518 151.004 44.4078 149.22 47.3118 146.996C49.8238 145.068 52.4958 141.908 52.4718 138.548C52.4973 137.757 52.355 136.969 52.0541 136.237C51.7532 135.505 51.3006 134.846 50.7261 134.301C50.1516 133.757 49.4683 133.341 48.7212 133.08C47.9741 132.819 47.1802 132.719 46.3918 132.788C41.6718 133.308 37.5918 140.836 36.7118 144.988C36.6398 145.316 36.2158 150.044 36.1998 150.908C36.1278 150.668 36.0238 150.428 35.9598 150.196C34.7842 146.057 33.981 141.821 33.5598 137.54C33.2958 135.18 33.1758 132.908 33.1038 130.692C34.5998 130.516 41.4398 129.604 44.2638 127.892C47.0878 126.18 49.9758 123.404 50.3198 120.06C50.4331 119.277 50.3792 118.478 50.1616 117.718C49.944 116.957 49.5677 116.251 49.0575 115.646C48.5473 115.042 47.9148 114.552 47.2016 114.21C46.4884 113.867 45.7107 113.68 44.9198 113.66C40.1198 113.66 35.2558 120.684 33.9518 124.724C33.8798 124.948 33.3998 127.26 33.0798 128.948C33.0798 127.948 33.0238 126.916 33.0318 125.956C33.0318 122.364 33.2638 119.076 33.4878 116.156C33.6318 114.5 33.7918 113.012 33.9598 111.612C35.3358 110.668 40.8318 106.812 42.5198 104.012C44.2078 101.212 45.5198 97.3956 44.2878 94.2756C44.0284 93.5274 43.6134 92.8427 43.07 92.2668C42.5266 91.6908 41.8672 91.2366 41.1353 90.9342C40.4035 90.6318 39.6159 90.4881 38.8244 90.5124C38.0329 90.5368 37.2556 90.7287 36.5438 91.0756C32.2878 93.2996 31.1998 101.804 31.8798 105.988C31.9438 106.348 33.5358 111.9 33.6078 111.852L33.6878 111.796C33.5038 113.14 33.3198 114.58 33.1518 116.156C32.8638 119.068 32.5598 122.364 32.4798 125.972C32.3565 129.86 32.4633 133.752 32.7998 137.628C33.1332 141.972 33.8561 146.277 34.9598 150.492C34.9598 150.54 34.9598 150.588 35.0078 150.644C34.2558 149.468 32.0558 146.252 31.8558 146.02C29.0798 142.82 21.8238 138.244 17.4558 140.1C16.7343 140.425 16.09 140.901 15.5656 141.494C15.0411 142.087 14.6484 142.784 14.4133 143.54C14.1782 144.296 14.106 145.093 14.2016 145.879C14.2972 146.665 14.5583 147.422 14.9678 148.1C16.5358 151.036 20.4078 152.5 23.5438 152.948Z" fill="#263238"/>
<path d="M105.064 130.612C105.136 130.66 106.576 125.068 106.664 124.7C107.248 120.5 105.904 112.028 101.624 109.964C100.904 109.636 100.123 109.464 99.3316 109.46C98.5405 109.456 97.7574 109.619 97.0341 109.94C96.3107 110.26 95.6635 110.731 95.135 111.319C94.6065 111.908 94.2088 112.602 93.9681 113.356C92.8241 116.508 94.2801 120.372 96.0001 123.036C97.9921 126.164 105.056 130.604 105.064 130.612Z" fill="#263238"/>
<path d="M229.744 315.587C231.632 316.387 236.248 316.307 236.256 316.307C236.264 316.307 235.264 313.283 235.176 313.107C234.16 310.987 230.952 307.507 228.344 307.835C227.912 307.906 227.501 308.066 227.136 308.307C226.77 308.547 226.46 308.862 226.224 309.23C225.989 309.598 225.834 310.012 225.769 310.444C225.704 310.877 225.731 311.318 225.848 311.739C226.28 313.539 228.136 314.899 229.744 315.587Z" fill="#263238"/>
<path d="M231.336 328.971C233.296 329.251 237.424 328.059 237.736 327.963C238.413 330.323 239.247 332.634 240.232 334.883C240.8 336.195 241.416 337.499 242.04 338.803C241.664 338.251 241.328 337.763 241.24 337.699C239.704 335.923 235.688 333.387 233.24 334.419C232.842 334.6 232.486 334.864 232.197 335.191C231.907 335.519 231.69 335.905 231.56 336.322C231.429 336.739 231.388 337.18 231.439 337.614C231.49 338.049 231.632 338.467 231.856 338.843C232.752 340.443 234.896 341.243 236.656 341.531C238.416 341.819 241.952 340.835 242.888 340.579L243.624 342.067C244.816 344.467 246.024 346.811 247.128 349.171C247.52 349.971 247.872 350.835 248.232 351.667C247.896 351.179 247.608 350.763 247.56 350.707C246.024 348.931 242.008 346.403 239.56 347.427C239.163 347.609 238.808 347.873 238.519 348.201C238.231 348.529 238.014 348.914 237.883 349.331C237.753 349.748 237.712 350.188 237.762 350.622C237.812 351.056 237.953 351.475 238.176 351.851C239.072 353.451 241.216 354.291 242.976 354.539C244.736 354.787 247.936 353.939 249.04 353.635C249.384 354.499 249.728 355.363 250.016 356.211C250.2 356.795 250.424 357.347 250.576 357.947C250.728 358.547 250.904 359.123 251.064 359.699C251.336 360.827 251.616 361.979 251.864 363.083C252.032 363.883 252.176 364.587 252.328 365.323C251.952 364.523 251.176 362.923 251.096 362.755C249.84 360.763 246.256 357.651 243.704 358.299C243.284 358.42 242.893 358.627 242.558 358.908C242.224 359.189 241.952 359.538 241.76 359.931C241.568 360.324 241.462 360.753 241.446 361.19C241.431 361.627 241.508 362.062 241.672 362.467C242.304 364.211 244.304 365.339 245.984 365.851C247.832 366.411 251.928 365.899 252.432 365.851C252.68 367.075 252.904 368.251 253.104 369.395C253.248 370.235 253.384 371.035 253.512 371.795H255.112C254.96 370.939 254.792 370.043 254.608 369.099C254.36 367.859 254.072 366.539 253.768 365.179C255.002 364.69 256.205 364.124 257.368 363.483C258.72 364.947 262.168 366.683 262.616 366.867C262.144 368.027 261.68 369.147 261.216 370.195L260.512 371.795H262.24C262.384 371.467 262.52 371.147 262.656 370.803C263.136 369.627 263.632 368.403 264.12 367.067C264.616 367.171 268.672 367.995 270.56 367.571C272.272 367.179 274.344 366.211 275.112 364.523C275.306 364.131 275.415 363.702 275.433 363.264C275.45 362.827 275.375 362.39 275.213 361.984C275.051 361.577 274.805 361.209 274.491 360.903C274.177 360.598 273.803 360.362 273.392 360.211C270.896 359.411 267.088 362.211 265.696 364.099C265.608 364.211 264.896 365.523 264.384 366.355C264.584 365.827 264.784 365.315 264.984 364.755C265.384 363.667 265.744 362.571 266.144 361.395C266.312 360.819 266.488 360.243 266.664 359.651C266.84 359.059 266.976 358.443 267.136 357.827C267.472 356.403 267.744 354.947 267.992 353.467C268.944 353.811 272.336 354.995 274.096 354.875C275.856 354.755 278.048 354.075 279.064 352.547C279.314 352.189 279.487 351.783 279.57 351.354C279.653 350.925 279.645 350.483 279.546 350.057C279.448 349.632 279.26 349.232 278.996 348.883C278.733 348.535 278.399 348.246 278.016 348.035C275.672 346.827 271.48 349.051 269.816 350.707C269.712 350.811 268.648 352.139 268.08 352.875C268.216 351.987 268.36 351.099 268.472 350.195C268.8 347.587 269.048 344.931 269.272 342.283C269.352 341.483 269.44 340.683 269.52 339.883C269.864 340.011 273.864 341.483 275.84 341.363C277.592 341.243 279.784 340.563 280.8 339.043C281.051 338.685 281.223 338.277 281.306 337.848C281.39 337.418 281.382 336.976 281.283 336.55C281.184 336.123 280.997 335.723 280.733 335.374C280.469 335.024 280.135 334.735 279.752 334.523C277.416 333.323 273.216 335.547 271.552 337.203C271.424 337.331 269.904 339.235 269.536 339.739C269.728 337.963 269.928 336.187 270.2 334.451C270.558 332.104 271.066 329.782 271.72 327.499C271.872 327.563 276.048 329.139 278.072 328.995C279.824 328.875 282.016 328.195 283.032 326.667C283.282 326.309 283.455 325.903 283.538 325.474C283.621 325.045 283.613 324.603 283.514 324.177C283.416 323.752 283.228 323.352 282.964 323.003C282.701 322.655 282.367 322.366 281.984 322.155C279.648 320.947 275.448 323.171 273.784 324.827C273.656 324.963 272.016 327.011 271.744 327.403C271.784 327.275 271.808 327.131 271.848 327.003C272.566 324.733 273.487 322.532 274.6 320.427C275.2 319.251 275.84 318.163 276.48 317.123C277.232 317.499 280.664 319.163 282.496 319.235C284.328 319.307 286.496 318.907 287.68 317.475C287.97 317.147 288.187 316.761 288.318 316.343C288.449 315.925 288.49 315.484 288.438 315.049C288.387 314.614 288.244 314.195 288.02 313.819C287.796 313.443 287.494 313.119 287.136 312.867C284.944 311.411 280.536 313.163 278.696 314.627C278.592 314.707 277.672 315.627 277 316.307C277.304 315.843 277.6 315.355 277.896 314.915C278.992 313.259 280.104 311.811 281.096 310.531C281.664 309.811 282.192 309.171 282.696 308.571C283.624 308.571 287.344 308.443 288.976 307.683C290.608 306.923 292.384 305.539 292.768 303.723C292.873 303.299 292.887 302.857 292.81 302.426C292.733 301.996 292.566 301.586 292.32 301.225C292.073 300.863 291.754 300.557 291.382 300.328C291.01 300.098 290.593 299.949 290.16 299.891C287.544 299.603 284.432 303.195 283.48 305.339C283.392 305.523 282.432 308.579 282.48 308.579H282.536C282.04 309.139 281.52 309.747 280.936 310.427C279.912 311.683 278.768 313.115 277.624 314.755C276.374 316.508 275.228 318.332 274.192 320.219C273.021 322.329 272.039 324.537 271.256 326.819C271.26 326.848 271.26 326.878 271.256 326.907C271.256 326.107 271.256 323.979 271.256 323.811C270.952 321.483 269 317.155 266.416 316.675C265.983 316.607 265.542 316.631 265.119 316.745C264.697 316.859 264.303 317.061 263.963 317.337C263.624 317.613 263.346 317.957 263.148 318.348C262.951 318.738 262.837 319.166 262.816 319.603C262.664 321.459 264.008 323.315 265.32 324.483C266.8 325.803 270.92 327.075 271.224 327.179C270.49 329.523 269.91 331.912 269.488 334.331C269.24 335.739 269.032 337.163 268.84 338.595C268.84 337.931 268.84 337.331 268.84 337.251C268.536 334.923 266.584 330.595 263.992 330.115C263.56 330.047 263.118 330.071 262.696 330.185C262.274 330.299 261.881 330.501 261.542 330.777C261.203 331.053 260.926 331.398 260.729 331.788C260.533 332.179 260.42 332.606 260.4 333.043C260.248 334.899 261.592 336.747 262.896 337.923C264.2 339.099 267.696 340.267 268.624 340.563C268.552 341.115 268.48 341.659 268.416 342.211C268.104 344.851 267.8 347.491 267.416 350.067C267.288 350.979 267.12 351.867 266.96 352.755C266.96 352.163 266.96 351.667 266.96 351.595C266.664 349.259 264.704 344.931 262.16 344.451C261.727 344.384 261.286 344.409 260.864 344.525C260.442 344.64 260.048 344.842 259.71 345.119C259.371 345.396 259.094 345.741 258.898 346.132C258.701 346.522 258.588 346.95 258.568 347.387C258.416 349.235 259.76 351.091 261.064 352.259C262.368 353.427 265.528 354.491 266.624 354.843C266.432 355.755 266.24 356.667 266.016 357.531C265.848 358.123 265.728 358.707 265.52 359.291L264.968 361.019C264.568 362.107 264.168 363.235 263.752 364.283C263.472 365.019 263.192 365.707 262.952 366.411C263.096 365.507 263.336 363.731 263.336 363.579C263.317 361.514 262.766 359.489 261.736 357.699C261.74 357.469 261.724 357.239 261.688 357.011C261.634 356.577 261.49 356.158 261.264 355.784C261.038 355.409 260.735 355.086 260.376 354.836C260.016 354.586 259.608 354.415 259.178 354.333C258.748 354.252 258.306 354.262 257.88 354.363C255.336 355.043 253.72 359.507 253.6 361.851C253.6 361.995 253.688 363.507 253.76 364.459C253.632 363.907 253.512 363.363 253.376 362.795C253.104 361.675 252.808 360.555 252.488 359.355C252.32 358.779 252.144 358.203 251.96 357.619C251.776 357.035 251.552 356.435 251.352 355.835C250.848 354.459 250.272 353.091 249.656 351.723C250.64 351.491 254.128 350.603 255.528 349.523C256.928 348.443 258.392 346.707 258.384 344.851C258.396 344.413 258.317 343.977 258.149 343.572C257.982 343.167 257.732 342.801 257.414 342.499C257.096 342.197 256.719 341.966 256.305 341.82C255.892 341.674 255.453 341.616 255.016 341.651C252.4 341.939 250.128 346.107 249.656 348.411C249.656 348.555 249.472 350.243 249.4 351.171C249.032 350.371 248.656 349.531 248.256 348.715C247.088 346.363 245.856 344.011 244.584 341.667C244.2 340.947 243.832 340.227 243.456 339.507C243.808 339.427 247.968 338.459 249.536 337.259C250.928 336.187 252.408 334.435 252.4 332.579C252.414 332.141 252.335 331.704 252.168 331.298C252.001 330.893 251.751 330.527 251.433 330.224C251.115 329.922 250.736 329.691 250.323 329.545C249.909 329.399 249.469 329.343 249.032 329.379C246.416 329.659 244.144 333.827 243.664 336.131C243.664 336.307 243.416 338.739 243.384 339.331C242.584 337.731 241.784 336.131 241.024 334.531C240.021 332.377 239.163 330.159 238.456 327.891C238.616 327.851 242.968 326.867 244.576 325.635C245.968 324.563 247.448 322.819 247.432 320.955C247.446 320.517 247.367 320.08 247.2 319.674C247.033 319.269 246.783 318.903 246.465 318.6C246.147 318.298 245.768 318.067 245.355 317.921C244.941 317.775 244.501 317.719 244.064 317.755C241.448 318.035 239.176 322.203 238.704 324.507C238.704 324.691 238.432 327.307 238.424 327.787C238.384 327.651 238.328 327.523 238.288 327.387C237.633 325.096 237.186 322.75 236.952 320.379C236.808 319.075 236.744 317.819 236.704 316.595C237.504 316.491 241.32 315.987 242.888 315.035C244.456 314.083 246.048 312.555 246.24 310.707C246.299 310.274 246.267 309.833 246.146 309.413C246.024 308.993 245.815 308.603 245.533 308.269C245.251 307.935 244.902 307.664 244.508 307.473C244.114 307.283 243.685 307.177 243.248 307.163C240.608 307.163 237.896 311.051 237.168 313.291C237.128 313.411 236.864 314.691 236.688 315.627C236.688 315.075 236.688 314.507 236.688 313.971C236.688 311.979 236.816 310.163 236.944 308.547C237.016 307.627 237.112 306.803 237.2 306.027C237.96 305.507 241.008 303.355 241.944 301.819C242.88 300.283 243.608 298.155 242.92 296.427C242.773 296.015 242.542 295.638 242.24 295.322C241.938 295.005 241.573 294.756 241.169 294.59C240.764 294.423 240.329 294.345 239.892 294.358C239.455 294.371 239.025 294.477 238.632 294.667C236.296 295.875 235.68 300.579 236.064 302.899C236.104 303.099 236.984 306.171 237.024 306.147H237.072C236.968 306.891 236.864 307.691 236.768 308.547C236.608 310.147 236.448 311.987 236.4 313.987C236.322 316.138 236.372 318.291 236.552 320.435C236.737 322.842 237.136 325.227 237.744 327.563V327.643C237.328 326.995 236.144 325.243 236 325.091C234.464 323.307 230.448 320.779 228 321.811C227.603 321.993 227.248 322.257 226.959 322.585C226.671 322.913 226.454 323.298 226.323 323.715C226.193 324.132 226.152 324.572 226.202 325.006C226.252 325.44 226.393 325.859 226.616 326.235C227.456 327.907 229.6 328.715 231.336 328.971Z" fill="#263238"/>
<path d="M276.48 316.604C276.48 316.604 277.28 313.532 277.352 313.332C277.672 311.004 276.928 306.308 274.56 305.164C274.161 304.985 273.729 304.892 273.291 304.892C272.854 304.891 272.421 304.982 272.021 305.159C271.622 305.337 271.264 305.596 270.971 305.921C270.677 306.245 270.456 306.628 270.32 307.044C269.688 308.788 270.488 310.932 271.448 312.404C272.568 314.14 276.48 316.596 276.48 316.604Z" fill="#263238"/>
<path d="M219.08 148.708H66.2718C61.0627 148.708 56.8398 152.931 56.8398 158.14V362.348C56.8398 367.557 61.0627 371.78 66.2718 371.78H219.08C224.289 371.78 228.512 367.557 228.512 362.348V158.14C228.512 152.931 224.289 148.708 219.08 148.708Z" fill="#263238"/>
<path d="M220.296 161.899H65.0557V361.195H220.296V161.899Z" fill="white" stroke="#263238" stroke-linecap="round" stroke-linejoin="round"/>
<path d="M111.152 191.748H174.2" stroke="#263238" stroke-linecap="round" stroke-linejoin="round"/>
<path d="M182.424 218.908H204.272" stroke="#263238" stroke-linecap="round" stroke-linejoin="round"/>
<path d="M119.568 218.908H177.224" stroke="#263238" stroke-linecap="round" stroke-linejoin="round"/>
<path d="M92.6958 218.908H115.672" stroke="#263238" stroke-linecap="round" stroke-linejoin="round"/>
<path d="M81.0801 218.908H87.0641" stroke="#263238" stroke-linecap="round" stroke-linejoin="round"/>
<path d="M182.856 240.244H204.272" stroke="#263238" stroke-linecap="round" stroke-linejoin="round"/>
<path d="M147.312 240.244H178.528" stroke="#263238" stroke-linecap="round" stroke-linejoin="round"/>
<path d="M94 240.244H142.544" stroke="#263238" stroke-linecap="round" stroke-linejoin="round"/>
<path d="M81.0801 240.244H88.3601" stroke="#263238" stroke-linecap="round" stroke-linejoin="round"/>
<path d="M170.72 261.588H204.272" stroke="#263238" stroke-linecap="round" stroke-linejoin="round"/>
<path d="M98.7681 261.588H164.656" stroke="#263238" stroke-linecap="round" stroke-linejoin="round"/>
<path d="M81.0801 261.588H93.5601" stroke="#263238" stroke-linecap="round" stroke-linejoin="round"/>
<path d="M196.296 282.924H204.272" stroke="#263238" stroke-linecap="round" stroke-linejoin="round"/>
<path d="M103.968 282.924H188.064" stroke="#263238" stroke-linecap="round" stroke-linejoin="round"/>
<path d="M81.0801 282.924H97.8961" stroke="#263238" stroke-linecap="round" stroke-linejoin="round"/>
<path d="M195 304.268H204.272" stroke="#263238" stroke-linecap="round" stroke-linejoin="round"/>
<path d="M122.608 304.268H188.064" stroke="#263238" stroke-linecap="round" stroke-linejoin="round"/>
<path d="M81.0801 304.268H116.968" stroke="#263238" stroke-linecap="round" stroke-linejoin="round"/>
<path d="M162.488 325.604H204.272" stroke="#263238" stroke-linecap="round" stroke-linejoin="round"/>
<path d="M81.0801 325.604H154.248" stroke="#263238" stroke-linecap="round" stroke-linejoin="round"/>
<path d="M163.12 144.204C162.361 144.196 161.618 143.983 160.971 143.587C160.324 143.191 159.796 142.626 159.445 141.953C159.093 141.281 158.931 140.525 158.975 139.768C159.019 139.01 159.268 138.279 159.696 137.652C161.094 135.415 161.866 132.843 161.929 130.206C161.993 127.568 161.346 124.963 160.057 122.661C158.767 120.359 156.883 118.447 154.6 117.124C152.318 115.801 149.722 115.116 147.084 115.14C144.446 115.165 141.863 115.899 139.606 117.264C137.349 118.63 135.5 120.577 134.254 122.902C133.008 125.228 132.41 127.845 132.523 130.481C132.636 133.117 133.455 135.673 134.896 137.884C135.283 138.516 135.493 139.239 135.506 139.98C135.519 140.721 135.333 141.452 134.968 142.097C134.604 142.741 134.073 143.277 133.431 143.647C132.79 144.018 132.061 144.21 131.32 144.204H105.72L112.632 164.06H181.76L188.672 144.204H163.12ZM147.2 135.748C146.18 135.749 145.183 135.448 144.334 134.883C143.486 134.317 142.824 133.513 142.433 132.571C142.043 131.629 141.94 130.593 142.138 129.593C142.337 128.592 142.828 127.674 143.549 126.953C144.27 126.232 145.188 125.741 146.189 125.542C147.189 125.344 148.225 125.446 149.167 125.837C150.109 126.228 150.913 126.89 151.479 127.738C152.044 128.587 152.345 129.584 152.344 130.604C152.344 131.968 151.802 133.276 150.837 134.241C149.872 135.206 148.564 135.748 147.2 135.748Z" fill="white" stroke="#263238" stroke-linecap="round" stroke-linejoin="round"/>
<path d="M107.932 344.727C115.2 338.128 115.742 326.885 109.143 319.617C102.543 312.349 91.3009 311.807 84.0328 318.407C76.7646 325.006 76.2226 336.248 82.8223 343.517C89.4219 350.785 100.664 351.327 107.932 344.727Z" fill="#263238" stroke="#263238" stroke-linecap="round" stroke-linejoin="round"/>
<path d="M97.2639 339.012C96.6935 339.007 96.1307 338.881 95.6133 338.641C95.0958 338.4 94.6357 338.052 94.2639 337.62L86.4639 328.5C86.0746 328.11 85.7701 327.644 85.5694 327.131C85.3687 326.618 85.2761 326.069 85.2974 325.519C85.3187 324.968 85.4535 324.428 85.6933 323.932C85.9331 323.437 86.2727 322.995 86.6909 322.637C87.1091 322.278 87.5969 322.01 88.1236 321.849C88.6503 321.688 89.2047 321.637 89.7519 321.7C90.2991 321.763 90.8274 321.938 91.3037 322.215C91.78 322.492 92.1941 322.864 92.5199 323.308L97.3199 328.956L113.32 311.1C113.658 310.669 114.081 310.311 114.563 310.05C115.045 309.789 115.575 309.63 116.121 309.582C116.667 309.535 117.217 309.6 117.736 309.774C118.256 309.948 118.735 310.226 119.142 310.593C119.55 310.959 119.878 311.405 120.106 311.904C120.334 312.402 120.457 312.942 120.467 313.49C120.478 314.038 120.376 314.582 120.168 315.089C119.959 315.595 119.649 316.054 119.256 316.436L100.184 337.676C99.809 338.091 99.3511 338.423 98.8399 338.651C98.3286 338.878 97.7754 338.996 97.2159 338.996L97.2639 339.012Z" fill="#039AE4"/>
<path d="M116.368 310.988C116.908 310.985 117.438 311.14 117.891 311.434C118.345 311.727 118.703 312.146 118.923 312.64C119.143 313.133 119.214 313.68 119.128 314.214C119.042 314.747 118.803 315.244 118.44 315.644L99.3681 336.884C99.1076 337.176 98.7884 337.409 98.4313 337.569C98.0742 337.729 97.6873 337.812 97.2961 337.812C96.8983 337.809 96.5057 337.721 96.1453 337.552C95.7849 337.384 95.4652 337.139 95.2081 336.836L87.3681 327.7C87.1211 327.422 86.9318 327.099 86.8114 326.748C86.6909 326.396 86.6418 326.025 86.6667 325.654C86.6917 325.284 86.7902 324.922 86.9567 324.59C87.1231 324.258 87.3541 323.963 87.636 323.722C87.918 323.48 88.2453 323.297 88.5988 323.184C88.9523 323.07 89.3249 323.028 89.6947 323.061C90.0646 323.093 90.4243 323.198 90.7529 323.371C91.0814 323.544 91.3721 323.781 91.6081 324.068L97.3441 330.756L114.288 311.884C114.549 311.591 114.87 311.356 115.229 311.197C115.587 311.037 115.975 310.954 116.368 310.956M116.368 308.556C115.64 308.557 114.92 308.711 114.254 309.007C113.589 309.303 112.993 309.735 112.504 310.276L97.3841 327.116L93.4321 322.508C92.9925 321.976 92.4515 321.537 91.8405 321.217C91.2296 320.897 90.561 320.702 89.8737 320.643C89.1865 320.584 88.4944 320.663 87.838 320.875C87.1815 321.086 86.5737 321.426 86.0502 321.876C85.5267 322.325 85.0979 322.874 84.7889 323.49C84.4799 324.107 84.2969 324.779 84.2505 325.467C84.2041 326.155 84.2954 326.846 84.5188 327.498C84.7423 328.151 85.0936 328.752 85.5521 329.268L93.3521 338.372C93.8338 338.931 94.4288 339.381 95.0977 339.693C95.7666 340.004 96.4942 340.17 97.2321 340.18H97.2961C98.0237 340.181 98.7433 340.028 99.4077 339.731C100.072 339.435 100.667 339.002 101.152 338.46L120.232 317.22C120.9 316.472 121.337 315.548 121.492 314.557C121.646 313.567 121.511 312.553 121.103 311.638C120.695 310.722 120.031 309.944 119.191 309.398C118.351 308.851 117.37 308.558 116.368 308.556Z" fill="#263238"/>
<path d="M147.584 125.452V75.7881" stroke="#263238" stroke-linecap="round" stroke-linejoin="round"/>
<path d="M145.312 65.8438V70.4758L143.464 73.6758C143.463 74.1887 143.564 74.6969 143.759 75.171C143.955 75.6451 144.243 76.0759 144.605 76.4386C144.968 76.8014 145.399 77.0889 145.873 77.2847C146.347 77.4805 146.855 77.5808 147.368 77.5797C147.881 77.5798 148.388 77.4787 148.861 77.2824C149.334 77.0861 149.764 76.7984 150.126 76.4358C150.488 76.0732 150.775 75.6427 150.97 75.1691C151.165 74.6955 151.265 74.1881 151.264 73.6758V70.4758" stroke="#263238" stroke-width="3" stroke-linecap="round" stroke-linejoin="round"/>
<path d="M141.288 65.6279H149.096V56.9559H141.288V65.6279Z" fill="white" stroke="#263238" stroke-linecap="round" stroke-linejoin="round"/>
<path d="M138.408 62.7314H151.992V45.3154H138.408V62.7314Z" fill="white" stroke="#263238" stroke-linecap="round" stroke-linejoin="round"/>
<path d="M134.36 59.4121H155.896V54.0681H134.36V59.4121Z" fill="white" stroke="#263238" stroke-linecap="round" stroke-linejoin="round"/>
<path d="M145.192 54.0596H148.28L152.64 59.0036L152.184 59.4116H149.912L145.192 54.0596Z" fill="#263238"/>
<path d="M154.2 54.0596L155.896 55.9716V59.4116H155.84L151.12 54.0596H154.2Z" fill="#263238"/>
<path d="M139.272 54.0596H142.352L146.712 59.0036L146.256 59.4116H143.984L139.272 54.0596Z" fill="#263238"/>
<path d="M134.352 55.2116V54.0596H136.424L140.784 59.0036L140.328 59.4116H138.056L134.352 55.2116Z" fill="#263238"/>
<path d="M145.504 45.0122V34.5322" stroke="#263238" stroke-width="2" stroke-linecap="round" stroke-linejoin="round"/>
<path d="M3.57617 34.2678H150.944V27.9878L122.456 15.9238H3.57617" stroke="#263238" stroke-width="2" stroke-linecap="round" stroke-linejoin="round"/>
<path d="M122.456 34.2678V15.9238L103.632 34.2678V15.9238L122.456 34.2678Z" stroke="#263238" stroke-width="2" stroke-linecap="round" stroke-linejoin="round"/>
<path d="M103.656 34.2678V15.9238L84.8242 34.2678V15.9238L103.656 34.2678Z" stroke="#263238" stroke-width="2" stroke-linecap="round" stroke-linejoin="round"/>
<path d="M84.8484 34.2678V15.9238L66.0244 34.2678V15.9238L84.8484 34.2678Z" stroke="#263238" stroke-width="2" stroke-linecap="round" stroke-linejoin="round"/>
<path d="M66.0483 34.2678V15.9238L47.2163 34.2678V15.9238L66.0483 34.2678Z" stroke="#263238" stroke-width="2" stroke-linecap="round" stroke-linejoin="round"/>
<path d="M47.24 34.2678V15.9238L28.416 34.2678V15.9238L47.24 34.2678Z" stroke="#263238" stroke-width="2" stroke-linecap="round" stroke-linejoin="round"/>
<path d="M28.4404 34.2678V15.9238L9.6084 34.2678V15.9238L28.4404 34.2678Z" stroke="#263238" stroke-width="2" stroke-linecap="round" stroke-linejoin="round"/>
<path d="M315.936 220.844L306.032 248.18L305.4 248.02L299.8 243.964L297.728 246.004L299.904 256.7C299.904 256.7 308.704 261.228 310.304 260.932C311.497 260.686 312.669 260.346 313.808 259.916C313.808 259.916 319.344 221.868 319.488 221.132C319.632 220.396 318.704 218.364 315.936 220.844Z" fill="white" stroke="#263238" stroke-linecap="round" stroke-linejoin="round"/>
<path d="M318.608 363.699C318.608 363.699 315.84 367.915 313.584 369.691C311.328 371.467 306.032 374.027 304.56 375.219C303.088 376.411 303.76 377.475 304.248 377.987C304.736 378.499 311.568 378.875 315.272 378.883C318.976 378.891 325.672 377.283 325.672 377.283C325.672 377.283 328.632 377.755 329.384 377.379C330.136 377.003 330.608 376.163 330.728 374.851C330.848 373.539 330.416 366.131 330.416 366.131L318.608 363.699Z" fill="white" stroke="#263238" stroke-linecap="round" stroke-linejoin="round"/>
<path d="M326.56 375.324C323.68 375.788 323.112 376.444 317.528 377.276C312.936 377.964 306.128 377.116 303.656 376.676C303.661 376.921 303.716 377.163 303.818 377.386C303.92 377.608 304.066 377.808 304.248 377.972C304.752 378.484 311.568 378.86 315.272 378.868C318.976 378.876 325.672 377.268 325.672 377.268C325.672 377.268 328.632 377.74 329.384 377.364C330.136 376.988 330.6 376.156 330.72 374.868C329.326 374.94 327.937 375.092 326.56 375.324Z" fill="#263238" stroke="#263238" stroke-linecap="round" stroke-linejoin="round"/>
<path d="M321.016 366.795C321.016 366.795 317.816 365.371 315.656 367.771" stroke="#263238" stroke-width="2" stroke-linecap="round" stroke-linejoin="round"/>
<path d="M317.368 365.588C317.368 365.588 319.832 367.516 319.504 369.588" stroke="#263238" stroke-width="2" stroke-linecap="round" stroke-linejoin="round"/>
<path d="M318.624 369.02C318.624 369.02 316.104 367.852 314.392 369.82" stroke="#263238" stroke-width="2" stroke-linecap="round" stroke-linejoin="round"/>
<path d="M315.752 368.036C315.752 368.036 317.688 369.636 317.416 371.316" stroke="#263238" stroke-width="2" stroke-linecap="round" stroke-linejoin="round"/>
<path d="M316.8 371.276C316.8 371.276 314.472 370.18 310.808 371.476" stroke="#263238" stroke-width="2" stroke-linecap="round" stroke-linejoin="round"/>
<path d="M313.856 370.275C314.031 370.452 314.164 370.666 314.244 370.901C314.324 371.136 314.349 371.387 314.319 371.633C314.288 371.88 314.201 372.116 314.066 372.324C313.93 372.533 313.749 372.707 313.536 372.835" stroke="#263238" stroke-width="2" stroke-linecap="round" stroke-linejoin="round"/>
<path d="M336.856 367.699C336.856 367.699 335.488 372.595 335 373.299C334.512 374.003 331.248 378.099 331.216 379.531C331.184 380.963 332.232 382.067 334.832 382.659C337.432 383.251 341.464 383.459 344.68 381.995C347.896 380.531 349.344 380.051 350.152 377.811C350.96 375.571 350.424 368.059 350.424 368.059C350.424 368.059 340.384 360.659 336.856 367.699Z" fill="white" stroke="#263238" stroke-linecap="round" stroke-linejoin="round"/>
<path d="M350.152 377.787C350.464 376.573 350.609 375.321 350.584 374.067C349.912 375.135 349.158 376.149 348.328 377.099C346.728 378.851 344.024 380.795 338.808 381.179C336.12 381.413 333.447 380.592 331.352 378.891C331.28 379.09 331.234 379.297 331.216 379.507C331.216 380.971 332.232 382.043 334.832 382.635C337.432 383.227 341.464 383.435 344.68 381.971C347.896 380.507 349.344 380.027 350.152 377.787Z" fill="#263238" stroke="#263238" stroke-linecap="round" stroke-linejoin="round"/>
<path d="M343.92 366.036C343.92 366.036 339.536 365.82 338.16 368.436" stroke="#263238" stroke-width="2" stroke-linecap="round" stroke-linejoin="round"/>
<path d="M339.12 366.1C339.12 366.1 342.888 366.9 343.464 368.692" stroke="#263238" stroke-width="2" stroke-linecap="round" stroke-linejoin="round"/>
<path d="M343.048 369.235C343.048 369.235 338.656 369.027 337.28 371.635" stroke="#263238" stroke-width="2" stroke-linecap="round" stroke-linejoin="round"/>
<path d="M338.24 369.3C338.24 369.3 342.008 370.1 342.592 371.892" stroke="#263238" stroke-width="2" stroke-linecap="round" stroke-linejoin="round"/>
<path d="M342.176 372.436C342.176 372.436 337.784 372.228 336.408 374.836" stroke="#263238" stroke-width="2" stroke-linecap="round" stroke-linejoin="round"/>
<path d="M337.368 372.5C337.368 372.5 341.136 373.3 341.712 375.092" stroke="#263238" stroke-width="2" stroke-linecap="round" stroke-linejoin="round"/>
<path d="M310.608 271.587C310.608 271.587 312.288 297.035 313.008 304.179C313.728 311.323 315.48 327.795 315.624 328.235C315.768 328.675 316.208 334.499 316.208 334.499C316.208 334.499 315.776 336.835 316.36 341.939C316.944 347.043 318.688 357.683 318.688 357.683C318.688 357.683 317.232 357.971 317.376 359.139C317.52 360.307 318.104 363.515 318.104 363.515C318.104 363.515 323.648 365.403 325.248 365.555C326.848 365.707 330.048 365.555 330.048 365.555C330.048 365.555 331.36 363.363 331.216 362.203C330.914 360.77 330.524 359.357 330.048 357.971L330.776 349.371L332 314.243C332 314.243 336.52 348.499 337.248 350.971C337.976 353.443 338.704 357.371 338.704 357.371C338.704 357.371 337.248 358.539 337.248 359.267C337.248 359.995 337.544 365.099 337.544 365.099C337.544 365.099 340.456 362.763 343.224 363.203C345.992 363.643 350.52 366.851 350.52 366.851C350.699 365.373 350.991 363.91 351.392 362.475C351.976 360.579 350.808 355.771 350.512 354.475C350.177 352.992 350.128 351.457 350.368 349.955C350.664 348.643 350.808 344.563 350.952 343.251C351.096 341.939 350.808 309.283 350.808 309.283L353.784 271.883L311.384 270.571L310.608 271.587Z" fill="#263238" stroke="#263238" stroke-linecap="round" stroke-linejoin="round"/>
<path d="M326.144 208.851C326.144 208.851 317.136 212.979 316.544 214.451C315.952 215.923 312.912 245.731 311.16 257.651C309.408 269.571 310.16 272.739 310.16 272.739C310.16 272.739 312.04 276.619 330.432 275.987C348.824 275.355 355.336 272.611 355.584 270.987C355.832 269.363 356.088 271.419 356.088 270.291C356.088 269.163 357.464 215.987 356.088 212.731C354.712 209.475 346.952 204.099 344.696 203.851C342.44 203.603 326.144 208.851 326.144 208.851Z" fill="#039AE4" stroke="#263238" stroke-linecap="round" stroke-linejoin="round"/>
<path d="M341.016 206.42C335.512 207.772 326.144 210.796 326.144 210.796C326.144 210.796 317.136 214.924 316.544 216.396C316.338 217.219 316.191 218.056 316.104 218.9C320.104 216.628 329.456 211.348 332.608 210.356C335.175 209.564 337.815 209.028 340.488 208.756L350.896 215.7L355.264 215.812C355.264 215.812 345.464 207.18 342.696 206.436C342.14 206.349 341.574 206.343 341.016 206.42Z" fill="white" stroke="#263238" stroke-linecap="round" stroke-linejoin="round"/>
<path d="M311.152 259.452V259.596C310.848 261.668 310.64 263.532 310.488 265.236C319.724 267.102 329.156 267.817 338.568 267.364C348.168 266.78 353.496 266.428 356.208 266.252C356.208 264.612 356.28 262.708 356.32 260.604C349.904 261.3 324.864 263.468 311.152 259.452Z" fill="white" stroke="#263238" stroke-linecap="round" stroke-linejoin="round"/>
<path d="M317.728 269.428C317.792 270.564 317.888 271.668 318.008 272.74" stroke="#263238" stroke-miterlimit="10"/>
<path d="M320.464 243.044C319.2 250.596 317.464 258.1 317.64 266.9" stroke="#263238" stroke-miterlimit="10"/>
<path d="M322.768 233.443C322.768 233.443 321.832 237.347 320.792 243.131" stroke="#263238" stroke-miterlimit="10"/>
<path d="M294.624 276.188C294.624 276.188 296.464 279.452 299.736 275.82C301.496 273.876 308.112 253.676 308.112 253.676C308.112 253.676 295.2 274.1 294.624 276.188Z" fill="white" stroke="#263238" stroke-linecap="round" stroke-linejoin="round"/>
<path d="M282.272 215.123L290.848 212.155C290.848 212.155 290.76 230.555 292.008 234.931L293.248 239.323C293.248 239.323 284.912 225.419 283.128 220.779C281.344 216.139 282.272 215.123 282.272 215.123Z" fill="white" stroke="#263238" stroke-linecap="round" stroke-linejoin="round"/>
<path d="M300 241.804C300 241.804 298.48 237.604 295.88 238.468C293.28 239.332 291.368 239.268 291.168 240.428C290.968 241.588 297.728 246.028 297.728 246.028C297.728 246.028 302.52 245.724 300 241.804Z" fill="white" stroke="#263238" stroke-linecap="round" stroke-linejoin="round"/>
<path d="M303.2 261.636C303.2 261.636 294.752 275.612 294.64 276.188C294.64 276.188 288.848 266.38 281.04 254.364C273.232 242.348 265.888 213.932 265.888 213.932C268.127 211.675 271.066 210.245 274.224 209.876C279.712 209.14 281.6 209.356 281.6 209.356C281.6 209.356 286.832 227.86 292.624 236.388C296.454 241.877 300.855 246.945 305.752 251.508L308.152 253.676L303.2 261.636Z" fill="white" stroke="#263238" stroke-linecap="round" stroke-linejoin="round"/>
<path d="M280.864 238.691C285.878 240.545 290.986 242.132 296.168 243.443" stroke="#263238" stroke-miterlimit="10"/>
<path d="M276.184 236.964C276.184 236.964 276.856 237.228 277.992 237.644" stroke="#263238" stroke-miterlimit="10"/>
<path d="M284.544 235.147C284.544 235.147 290.024 240.643 295.744 241.731" stroke="#263238" stroke-miterlimit="10"/>
<path d="M312.496 249.252C312.496 249.252 305.488 245.996 304.36 245.876C303.232 245.756 297.48 247.996 296.856 248.5C296.232 249.004 295.976 250.1 296.728 250.252C297.48 250.404 298.728 249.5 298.728 249.5L301.984 248.876L303.488 249.748C303.488 249.748 298.232 252.876 297.728 253.884C297.224 254.892 296.352 256.756 296.856 257.132C297.36 257.508 297.608 258.388 298.352 258.388C298.748 258.394 299.144 258.367 299.536 258.308C300.486 258.157 301.376 257.751 302.112 257.132C303.232 256.132 305.736 256.508 305.736 256.508C305.736 256.508 308.744 257.508 309.496 257.26C310.4 256.859 311.277 256.4 312.12 255.884H313.496L312.496 249.252Z" fill="white" stroke="#263238" stroke-linecap="round" stroke-linejoin="round"/>
<path d="M296.856 257.132C296.856 257.132 299.536 254.34 299.84 253.98C300.144 253.62 304.688 251.332 304.688 251.332" stroke="#263238" stroke-miterlimit="10"/>
<path d="M298.352 258.387C298.352 258.387 301.984 255.187 302.24 254.995C302.496 254.803 305.552 253.571 305.552 253.571" stroke="#263238" stroke-miterlimit="10"/>
<path d="M354.176 214.796C354.176 214.796 349.296 213.196 345.92 218.428C342.544 223.66 340.52 248.988 340.52 248.988L312.52 249.252L313.016 257.012C313.016 257.012 339.544 259.876 344.672 259.876C349.8 259.876 351.184 260.748 351.808 258.876C352.432 257.004 357.952 234.196 358.704 226.94C359.456 219.684 356.552 215.3 354.176 214.796Z" fill="white" stroke="#263238" stroke-linecap="round" stroke-linejoin="round"/>
<path d="M312.8 272.028C312.8 272.028 305.072 270.86 304.632 271.732C304.192 272.604 304.632 284.532 305.36 285.292C306.088 286.052 311.048 287.044 312.504 286.164C313.96 285.284 314.84 284.708 315.128 283.98C315.416 283.252 315.424 274.068 314.84 272.9C314.632 272.561 314.324 272.295 313.959 272.139C313.594 271.983 313.189 271.944 312.8 272.028Z" fill="#263238" stroke="#263238" stroke-linecap="round" stroke-linejoin="round"/>
<path d="M321.976 273.484C321.976 273.484 320.8 285.3 322.704 286.02C324.828 286.67 327.044 286.968 329.264 286.9C329.992 286.748 332.616 286.316 333.056 285.148C333.496 283.98 333.488 274.796 333.2 273.948C332.912 273.1 322.704 272.316 321.976 273.484Z" fill="#263238" stroke="#263238" stroke-linecap="round" stroke-linejoin="round"/>
<path d="M340.344 274.795C340.344 274.795 340.928 288.059 341.216 288.643C341.504 289.227 347.048 292.875 348.064 292.723C349.08 292.571 357.248 291.707 357.664 290.099C358.08 288.491 359.12 275.523 358.248 274.099C357.376 272.675 355.48 272.059 353.728 271.915C351.976 271.771 341.776 273.227 341.776 273.227C341.383 273.258 341.016 273.437 340.75 273.728C340.484 274.019 340.339 274.401 340.344 274.795Z" fill="#263238" stroke="#263238" stroke-linecap="round" stroke-linejoin="round"/>
<path d="M329.904 205.539L323.896 208.795L326.024 212.675L323.016 231.443C323.016 231.443 340.8 208.291 341.04 207.915C342.196 207.121 343.407 206.41 344.664 205.787L343.536 201.155L341.664 201.659L329.904 205.539Z" fill="#263238" stroke="#263238" stroke-linecap="round" stroke-linejoin="round"/>
<path d="M323.56 179.7C323.56 179.7 322.48 183.036 322.48 183.484C322.536 184.089 322.627 184.69 322.752 185.284C322.752 185.284 319.424 189.964 319.6 190.228C319.776 190.492 321.76 192.572 321.76 192.572C321.76 192.572 321.936 199.588 322.84 199.684C323.744 199.78 329.592 199.772 329.592 199.772L329.048 210.028L342.456 202.292L342.728 193.292C342.728 193.292 346.328 188.7 346.328 186.364C346.328 184.028 345.968 183.572 345.968 183.572L323.56 179.7Z" fill="white" stroke="#263238" stroke-linecap="round" stroke-linejoin="round"/>
<path d="M345.968 183.564L331.64 181.092L331.752 182.124L331.208 187.076C331.208 187.076 334.984 184.468 335.704 184.108C336.424 183.748 337.864 186.268 337.056 187.796C336.248 189.324 333.544 191.396 333.544 191.396C333.544 191.396 336.52 194.452 339.576 194.596C340.623 194.661 341.674 194.575 342.696 194.34V193.244C342.696 193.244 346.296 188.652 346.296 186.316C346.296 183.98 345.968 183.564 345.968 183.564Z" fill="#263238" stroke="#263238" stroke-linecap="round" stroke-linejoin="round"/>
<path d="M323.376 183.204C323.807 182.948 324.315 182.853 324.81 182.935C325.304 183.017 325.754 183.271 326.08 183.652" stroke="#263238" stroke-miterlimit="10"/>
<path d="M324.28 186.716C324.527 186.716 324.728 186.232 324.728 185.636C324.728 185.039 324.527 184.556 324.28 184.556C324.033 184.556 323.832 185.039 323.832 185.636C323.832 186.232 324.033 186.716 324.28 186.716Z" fill="#263238"/>
<path d="M327.072 199.579L332.56 198.947L329.592 202.459V199.763L327.072 199.579Z" fill="#263238" stroke="#263238" stroke-miterlimit="10"/>
<path d="M337.688 184.916L342.696 194.38L345.064 192.116L340.568 184.644L337.688 184.916Z" fill="white" stroke="#263238" stroke-linecap="round" stroke-linejoin="round"/>
<path d="M321.792 177.54C321.792 177.54 315.448 178.34 316.232 178.628C317.016 178.916 349.768 188.98 349.768 188.98C349.469 187.95 349.249 186.899 349.112 185.836C349.112 185.036 350.424 179.94 349.912 174.7C349.4 169.46 338.312 166.532 332.816 166.012C327.32 165.492 324.56 168.108 324.016 170.988C323.502 173.242 322.757 175.438 321.792 177.54Z" fill="#039AE4" stroke="#263238" stroke-linecap="round" stroke-linejoin="round"/>
<path d="M330.88 180.283L325.096 178.203C325.096 178.203 328.456 170.563 328.336 169.635C328.268 169.059 328.23 168.48 328.224 167.899C328.224 167.899 328.336 166.395 333.432 166.979" stroke="#263238" stroke-linecap="round" stroke-linejoin="round"/>
</svg>
