<svg width="400" height="401" viewBox="0 0 400 401" fill="none" xmlns="http://www.w3.org/2000/svg">
<path d="M400 306.42H0V306.62H400V306.42Z" fill="#EBEBEB"/>
<path d="M359.92 319.292H333.424V319.492H359.92V319.292Z" fill="#EBEBEB"/>
<path d="M264.976 321.468H258.024V321.668H264.976V321.468Z" fill="#EBEBEB"/>
<path d="M332.624 311.868H317.272V312.068H332.624V311.868Z" fill="#EBEBEB"/>
<path d="M76.5198 313.212H41.9678V313.412H76.5198V313.212Z" fill="#EBEBEB"/>
<path d="M88.712 313.212H83.6479V313.412H88.712V313.212Z" fill="#EBEBEB"/>
<path d="M180.12 316.588H105.176V316.788H180.12V316.588Z" fill="#EBEBEB"/>
<path d="M189.6 270.74H35.1279C33.9177 270.738 32.7579 270.256 31.903 269.399C31.048 268.543 30.5679 267.382 30.5679 266.172V49.028C30.5784 47.8248 31.0632 46.6744 31.917 45.8266C32.7708 44.9788 33.9246 44.5021 35.1279 44.5H189.6C190.811 44.5 191.973 44.9813 192.83 45.8379C193.687 46.6946 194.168 47.8565 194.168 49.068V266.172C194.168 267.384 193.687 268.545 192.83 269.402C191.973 270.259 190.811 270.74 189.6 270.74ZM35.1279 44.66C33.9708 44.6621 32.8618 45.1233 32.0444 45.9422C31.227 46.7611 30.7679 47.8709 30.7679 49.028V266.172C30.7679 267.329 31.227 268.439 32.0444 269.258C32.8618 270.077 33.9708 270.538 35.1279 270.54H189.6C190.758 270.538 191.867 270.077 192.686 269.258C193.505 268.44 193.966 267.33 193.968 266.172V49.028C193.966 47.8702 193.505 46.7604 192.686 45.9417C191.867 45.123 190.758 44.6621 189.6 44.66H35.1279Z" fill="#EBEBEB"/>
<path d="M362.648 270.74H208.168C206.957 270.738 205.797 270.256 204.94 269.4C204.084 268.544 203.602 267.383 203.6 266.172V49.028C203.613 47.8241 204.099 46.6737 204.954 45.8261C205.809 44.9785 206.964 44.502 208.168 44.5H362.648C363.85 44.5042 365.002 44.9818 365.854 45.8294C366.706 46.677 367.19 47.8262 367.2 49.028V266.172C367.2 267.381 366.721 268.54 365.868 269.396C365.015 270.253 363.857 270.736 362.648 270.74ZM208.168 44.66C207.01 44.6621 205.9 45.123 205.082 45.9417C204.263 46.7604 203.802 47.8702 203.8 49.028V266.172C203.802 267.33 204.263 268.44 205.082 269.258C205.9 270.077 207.01 270.538 208.168 270.54H362.648C363.806 270.538 364.916 270.077 365.734 269.258C366.553 268.44 367.014 267.33 367.016 266.172V49.028C367.014 47.8702 366.553 46.7604 365.734 45.9417C364.916 45.123 363.806 44.6621 362.648 44.66H208.168Z" fill="#EBEBEB"/>
<path d="M348.776 306.42H374.136V261.524H348.776V306.42Z" fill="#F0F0F0"/>
<path d="M326.568 306.42H351.928V271.372H326.568V306.42Z" fill="#F0F0F0"/>
<path d="M310.352 306.42H335.712V242.492H310.352V306.42Z" fill="#F0F0F0"/>
<path d="M293.504 306.42H318.864V190.66H293.504V306.42Z" fill="#F0F0F0"/>
<path d="M230.784 306.42H298.832V199.668H230.784V306.42Z" fill="#F0F0F0"/>
<path d="M57.9601 266.244H22.0562V306.42H57.9601V266.244Z" fill="#F5F5F5"/>
<path d="M89.4001 275.052H53.4961V306.412H89.4001V275.052Z" fill="#F5F5F5"/>
<path d="M112.36 249.212H76.4561V306.42H112.36V249.212Z" fill="#F5F5F5"/>
<path d="M136.224 202.828H100.32V306.42H136.224V202.828Z" fill="#F5F5F5"/>
<path d="M128.976 306.42H187.728L187.728 179.868H128.976V306.42Z" fill="#F0F0F0"/>
<path d="M134.56 200.58H137.36V185.18H134.56V200.58Z" fill="#F5F5F5"/>
<path d="M134.56 224.652H137.36V209.252H134.56V224.652Z" fill="#F5F5F5"/>
<path d="M134.56 248.74H137.36V233.34H134.56V248.74Z" fill="#F5F5F5"/>
<path d="M134.56 272.82H137.36V257.42H134.56V272.82Z" fill="#F5F5F5"/>
<path d="M134.56 296.9H137.36V281.5H134.56V296.9Z" fill="#F5F5F5"/>
<path d="M144.48 200.58H147.28V185.18H144.48V200.58Z" fill="#F5F5F5"/>
<path d="M144.48 224.652H147.28V209.252H144.48V224.652Z" fill="#F5F5F5"/>
<path d="M144.48 248.74H147.28V233.34H144.48V248.74Z" fill="#F5F5F5"/>
<path d="M144.48 272.82H147.28V257.42H144.48V272.82Z" fill="#F5F5F5"/>
<path d="M144.48 296.9H147.28V281.5H144.48V296.9Z" fill="#F5F5F5"/>
<path d="M154.392 200.58H157.192V185.18H154.392V200.58Z" fill="#F5F5F5"/>
<path d="M154.392 224.652H157.192V209.252H154.392V224.652Z" fill="#F5F5F5"/>
<path d="M154.392 248.74H157.192V233.34H154.392V248.74Z" fill="#F5F5F5"/>
<path d="M154.392 272.82H157.192V257.42H154.392V272.82Z" fill="#F5F5F5"/>
<path d="M154.392 296.9H157.192V281.5H154.392V296.9Z" fill="#F5F5F5"/>
<path d="M164.312 200.58H167.112V185.18H164.312V200.58Z" fill="#F5F5F5"/>
<path d="M164.312 224.652H167.112V209.252H164.312V224.652Z" fill="#F5F5F5"/>
<path d="M164.312 248.74H167.112V233.34H164.312V248.74Z" fill="#F5F5F5"/>
<path d="M164.312 272.82H167.112V257.42H164.312V272.82Z" fill="#F5F5F5"/>
<path d="M164.312 296.9H167.112V281.5H164.312V296.9Z" fill="#F5F5F5"/>
<path d="M174.216 200.58H177.016V185.18H174.216V200.58Z" fill="#F5F5F5"/>
<path d="M174.216 224.652H177.016V209.252H174.216V224.652Z" fill="#F5F5F5"/>
<path d="M174.216 248.74H177.016V233.34H174.216V248.74Z" fill="#F5F5F5"/>
<path d="M174.216 272.82H177.016V257.42H174.216V272.82Z" fill="#F5F5F5"/>
<path d="M174.216 296.9H177.016V281.5H174.216V296.9Z" fill="#F5F5F5"/>
<path opacity="0.5" d="M187.728 179.868H175.616L170.352 306.42H187.728V179.868Z" fill="#E0E0E0"/>
<path d="M284.688 92.6357L213.416 100.764V306.42H284.688V92.6357Z" fill="#F0F0F0"/>
<path d="M341.712 92.6357H284.688V306.42H341.712V92.6357Z" fill="#E6E6E6"/>
<path d="M341.712 110.348H213.416V111.444H341.712V110.348Z" fill="#E0E0E0"/>
<path d="M341.712 121.988H213.416V123.084H341.712V121.988Z" fill="#E0E0E0"/>
<path d="M341.712 133.628H213.416V134.724H341.712V133.628Z" fill="#E0E0E0"/>
<path d="M341.712 145.268H213.416V146.364H341.712V145.268Z" fill="#E0E0E0"/>
<path d="M341.712 156.908H213.416V158.004H341.712V156.908Z" fill="#E0E0E0"/>
<path d="M341.712 168.548H213.416V169.644H341.712V168.548Z" fill="#E0E0E0"/>
<path d="M341.712 180.188H213.416V181.284H341.712V180.188Z" fill="#E0E0E0"/>
<path d="M341.712 191.828H213.416V192.924H341.712V191.828Z" fill="#E0E0E0"/>
<path d="M341.712 203.468H213.416V204.564H341.712V203.468Z" fill="#E0E0E0"/>
<path d="M341.712 215.108H213.416V216.204H341.712V215.108Z" fill="#E0E0E0"/>
<path d="M341.712 226.748H213.416V227.844H341.712V226.748Z" fill="#E0E0E0"/>
<path d="M341.712 238.396H213.416V239.492H341.712V238.396Z" fill="#E0E0E0"/>
<path d="M341.712 250.036H213.416V251.132H341.712V250.036Z" fill="#E0E0E0"/>
<path d="M341.712 261.676H213.416V262.772H341.712V261.676Z" fill="#E0E0E0"/>
<path d="M341.712 273.316H213.416V274.412H341.712V273.316Z" fill="#E0E0E0"/>
<path d="M341.712 284.956H213.416V286.052H341.712V284.956Z" fill="#E0E0E0"/>
<path d="M341.712 296.596H213.416V297.692H341.712V296.596Z" fill="#E0E0E0"/>
<path d="M86.4161 306.42H120.224L120.224 129.948H86.4161L86.4161 306.42Z" fill="#F0F0F0"/>
<path d="M86.4162 129.948H120.224L107.784 114.364H59.3682L86.4162 129.948Z" fill="#FAFAFA"/>
<path d="M86.4162 129.948L59.3682 114.364V306.42H86.4162V129.948Z" fill="#EBEBEB"/>
<path d="M59.3761 139.108H120.224V138.172H59.3761V139.108Z" fill="#E0E0E0"/>
<path d="M59.3761 149.1H120.224V148.164H59.3761V149.1Z" fill="#E0E0E0"/>
<path d="M59.3761 159.092H120.224V158.156H59.3761V159.092Z" fill="#E0E0E0"/>
<path d="M59.3761 169.076H120.224V168.14H59.3761V169.076Z" fill="#E0E0E0"/>
<path d="M59.3761 179.068H120.224V178.132H59.3761V179.068Z" fill="#E0E0E0"/>
<path d="M59.3761 189.052H120.224V188.116H59.3761V189.052Z" fill="#E0E0E0"/>
<path d="M59.3761 199.044H120.224V198.108H59.3761V199.044Z" fill="#E0E0E0"/>
<path d="M59.3761 209.036H120.224V208.1H59.3761V209.036Z" fill="#E0E0E0"/>
<path d="M59.3761 219.02H120.224V218.084H59.3761V219.02Z" fill="#E0E0E0"/>
<path d="M59.3761 229.012H120.224V228.076H59.3761V229.012Z" fill="#E0E0E0"/>
<path d="M59.3761 238.996H120.224V238.06H59.3761V238.996Z" fill="#E0E0E0"/>
<path d="M59.3761 248.988H120.224V248.052H59.3761V248.988Z" fill="#E0E0E0"/>
<path d="M59.3761 258.972H120.224V258.036H59.3761V258.972Z" fill="#E0E0E0"/>
<path d="M59.3761 268.964H120.224V268.028H59.3761V268.964Z" fill="#E0E0E0"/>
<path d="M59.3761 278.956H120.224V278.02H59.3761V278.956Z" fill="#E0E0E0"/>
<path d="M59.3761 288.94H120.224V288.004H59.3761V288.94Z" fill="#E0E0E0"/>
<path d="M59.3761 298.932H120.224V297.996H59.3761V298.932Z" fill="#E0E0E0"/>
<path d="M205.888 306.412H251.48L251.48 149.068H205.888L205.888 306.412Z" fill="#F0F0F0"/>
<path d="M235.176 182.46H242.496V157.204H235.176V182.46Z" fill="#E6E6E6"/>
<path d="M217.232 182.46H224.552V157.204H217.232V182.46Z" fill="#E6E6E6"/>
<path d="M235.176 215.164H242.496V189.908H235.176V215.164Z" fill="#E6E6E6"/>
<path d="M217.232 215.164H224.552V189.908H217.232V215.164Z" fill="#E6E6E6"/>
<path d="M235.176 247.868H242.496V222.612H235.176V247.868Z" fill="#E6E6E6"/>
<path d="M217.232 247.868H224.552V222.612H217.232V247.868Z" fill="#E6E6E6"/>
<path d="M235.176 280.572H242.496V255.316H235.176V280.572Z" fill="#E6E6E6"/>
<path d="M217.232 280.572H224.552V255.316H217.232V280.572Z" fill="#E6E6E6"/>
<path d="M205.88 149.076H251.472L240.784 138.172H195.192L205.88 149.076Z" fill="white"/>
<path d="M205.88 149.076L195.192 138.172L184.496 149.076V306.42H205.88V149.076Z" fill="#E6E6E6"/>
<path d="M152.208 120.436C164.341 120.436 174.176 110.601 174.176 98.468C174.176 86.3354 164.341 76.5 152.208 76.5C140.076 76.5 130.24 86.3354 130.24 98.468C130.24 110.601 140.076 120.436 152.208 120.436Z" fill="#FAFAFA"/>
<path d="M314.272 65.0437C308.808 64.5157 303.792 60.6517 296.672 59.5877C293.128 59.0597 291.072 60.3877 288.976 61.6357C286.352 63.2357 283.144 64.0357 279.12 63.9397C273.828 63.7989 268.59 62.8381 263.592 61.0917C259.08 59.5557 254.368 57.7157 250.792 58.3797C244.16 59.5957 243.968 63.9797 238.48 64.6037C232.992 65.2277 231.992 68.1877 236.544 68.1877H319.92C323.904 68.1877 319.744 65.5637 314.272 65.0437Z" fill="#F5F5F5"/>
<path d="M79.1122 64.132C76.8082 65.484 72.2562 64.668 64.7842 63.5C60.4002 62.82 58.2242 64.22 55.1842 65.476C53.9682 65.988 48.6242 67.74 55.6002 67.74H94.4002C105.152 67.74 95.1522 65.82 93.4322 65.076H93.3442C88.2002 62.788 81.4082 62.788 79.1122 64.132Z" fill="#F5F5F5"/>
<path d="M104 94.7716H146.4C150.112 94.7716 146.24 92.3236 141.144 91.8356C136.048 91.3476 131.376 87.7477 124.712 86.7557C118.048 85.7637 117.872 91.1557 109.12 91.0997C102.048 91.0677 96.7999 94.7716 104 94.7716Z" fill="#F5F5F5"/>
<path d="M200 342.548C285.666 342.548 355.112 338.493 355.112 333.492C355.112 328.49 285.666 324.436 200 324.436C114.334 324.436 44.8882 328.49 44.8882 333.492C44.8882 338.493 114.334 342.548 200 342.548Z" fill="#F5F5F5"/>
<path d="M109.696 146.427C109.454 146.427 109.222 146.331 109.051 146.16C108.88 145.989 108.784 145.757 108.784 145.515V72.2675C108.784 72.0256 108.88 71.7936 109.051 71.6226C109.222 71.4516 109.454 71.3555 109.696 71.3555C109.938 71.3555 110.17 71.4516 110.341 71.6226C110.512 71.7936 110.608 72.0256 110.608 72.2675V145.515C110.608 145.757 110.512 145.989 110.341 146.16C110.17 146.331 109.938 146.427 109.696 146.427Z" fill="#039AE4"/>
<path d="M134.112 146.427C133.87 146.427 133.638 146.331 133.467 146.16C133.296 145.989 133.2 145.757 133.2 145.515V72.2674C133.188 72.1399 133.203 72.0114 133.244 71.8899C133.284 71.7685 133.35 71.6569 133.436 71.5622C133.522 71.4676 133.627 71.3919 133.744 71.3402C133.862 71.2884 133.988 71.2617 134.116 71.2617C134.244 71.2617 134.371 71.2884 134.488 71.3402C134.605 71.3919 134.71 71.4676 134.796 71.5622C134.883 71.6569 134.948 71.7685 134.989 71.8899C135.029 72.0114 135.044 72.1399 135.032 72.2674V145.515C135.03 145.758 134.932 145.99 134.76 146.161C134.588 146.332 134.355 146.427 134.112 146.427Z" fill="#039AE4"/>
<path d="M134.112 97.5959C133.87 97.5967 133.637 97.5018 133.464 97.3319L121.904 85.7719L110.344 97.2999C110.168 97.4475 109.943 97.5237 109.713 97.5136C109.483 97.5034 109.266 97.4076 109.103 97.245C108.941 97.0824 108.845 96.8648 108.835 96.6351C108.825 96.4054 108.901 96.1802 109.048 96.0039L120.608 84.4999L109.048 72.9159C108.909 72.7893 108.812 72.6231 108.771 72.4397C108.729 72.2562 108.744 72.0644 108.815 71.8901C108.885 71.7157 109.008 71.5672 109.165 71.4645C109.323 71.3619 109.508 71.31 109.696 71.3159H134.112C134.294 71.3163 134.471 71.3704 134.622 71.4715C134.773 71.5726 134.891 71.7161 134.96 71.8839C135.03 72.0515 135.049 72.2363 135.013 72.4145C134.978 72.5926 134.89 72.7561 134.76 72.8839L123.2 84.4999L134.76 96.0599C134.904 96.1845 135.006 96.3509 135.05 96.5359C135.095 96.721 135.08 96.9153 135.009 97.0917C134.937 97.268 134.812 97.4177 134.652 97.5196C134.491 97.6215 134.302 97.6705 134.112 97.6599V97.5959ZM111.904 73.1799L121.904 83.1799L131.904 73.1799H111.904Z" fill="#039AE4"/>
<path d="M109.696 73.1799C109.515 73.1811 109.337 73.1283 109.186 73.0282C109.035 72.928 108.917 72.7851 108.848 72.6177C108.778 72.4503 108.76 72.266 108.796 72.0882C108.831 71.9105 108.919 71.7474 109.048 71.6199L121.256 59.4119C121.341 59.3262 121.442 59.2583 121.553 59.2119C121.664 59.1655 121.784 59.1416 121.904 59.1416C122.025 59.1416 122.144 59.1655 122.255 59.2119C122.366 59.2583 122.467 59.3262 122.552 59.4119L134.76 71.6199C134.846 71.7047 134.914 71.8056 134.96 71.9168C135.006 72.028 135.03 72.1473 135.03 72.2679C135.03 72.3884 135.006 72.5077 134.96 72.6189C134.914 72.7301 134.846 72.8311 134.76 72.9159C134.587 73.0849 134.354 73.1796 134.112 73.1796C133.87 73.1796 133.637 73.0849 133.464 72.9159L121.904 61.3559L110.344 72.9159C110.171 73.0858 109.938 73.1806 109.696 73.1799Z" fill="#039AE4"/>
<path d="M158.528 73.1799C158.286 73.1789 158.054 73.0843 157.88 72.9159L146.32 61.3559L134.76 72.9159C134.587 73.0849 134.354 73.1796 134.112 73.1796C133.87 73.1796 133.637 73.0849 133.464 72.9159C133.378 72.8311 133.31 72.7301 133.264 72.6189C133.218 72.5077 133.194 72.3884 133.194 72.2679C133.194 72.1473 133.218 72.028 133.264 71.9168C133.31 71.8056 133.378 71.7047 133.464 71.6199L145.672 59.4119C145.757 59.3262 145.858 59.2583 145.969 59.2119C146.08 59.1655 146.2 59.1416 146.32 59.1416C146.441 59.1416 146.56 59.1655 146.671 59.2119C146.782 59.2583 146.883 59.3262 146.968 59.4119L159.2 71.6199C159.329 71.7474 159.417 71.9105 159.453 72.0882C159.488 72.266 159.47 72.4503 159.401 72.6177C159.331 72.7851 159.213 72.928 159.062 73.0282C158.911 73.1283 158.733 73.1811 158.552 73.1799H158.528Z" fill="#039AE4"/>
<path d="M158.528 73.1799C158.286 73.1789 158.054 73.0843 157.88 72.9159C157.794 72.8311 157.727 72.7301 157.68 72.6189C157.634 72.5077 157.61 72.3884 157.61 72.2679C157.61 72.1473 157.634 72.028 157.68 71.9168C157.727 71.8056 157.794 71.7047 157.88 71.6199L170.088 59.4119C170.173 59.3262 170.274 59.2583 170.385 59.2119C170.496 59.1655 170.616 59.1416 170.736 59.1416C170.857 59.1416 170.976 59.1655 171.087 59.2119C171.198 59.2583 171.299 59.3262 171.384 59.4119L183.592 71.6199C183.678 71.7047 183.746 71.8056 183.792 71.9168C183.838 72.028 183.862 72.1473 183.862 72.2679C183.862 72.3884 183.838 72.5077 183.792 72.6189C183.746 72.7301 183.678 72.8311 183.592 72.9159C183.419 73.0849 183.186 73.1796 182.944 73.1796C182.702 73.1796 182.469 73.0849 182.296 72.9159L170.736 61.3559L159.2 72.9159C159.112 73.0029 159.007 73.0712 158.891 73.1165C158.776 73.1619 158.652 73.1834 158.528 73.1799Z" fill="#039AE4"/>
<path d="M109.696 122.012C109.515 122.013 109.337 121.96 109.186 121.86C109.035 121.76 108.917 121.617 108.848 121.45C108.778 121.282 108.76 121.098 108.796 120.92C108.831 120.743 108.919 120.579 109.048 120.452L133.464 96.0359C133.64 95.8883 133.866 95.812 134.095 95.8222C134.325 95.8323 134.543 95.9282 134.705 96.0908C134.868 96.2533 134.964 96.4709 134.974 96.7007C134.984 96.9304 134.908 97.1556 134.76 97.3319L110.344 121.748C110.171 121.918 109.938 122.013 109.696 122.012Z" fill="#039AE4"/>
<path d="M134.112 122.012C133.87 122.012 133.637 121.918 133.464 121.748L109.048 97.2997C108.9 97.1233 108.824 96.8981 108.834 96.6684C108.845 96.4387 108.94 96.2211 109.103 96.0585C109.266 95.8959 109.483 95.8001 109.713 95.79C109.943 95.7798 110.168 95.856 110.344 96.0037L134.76 120.42C134.889 120.547 134.977 120.71 135.012 120.888C135.048 121.066 135.03 121.25 134.961 121.418C134.891 121.585 134.773 121.728 134.622 121.828C134.471 121.928 134.293 121.981 134.112 121.98V122.012Z" fill="#039AE4"/>
<path d="M134.112 146.428H109.696C109.515 146.429 109.338 146.377 109.187 146.277C109.036 146.177 108.918 146.035 108.848 145.868C108.78 145.7 108.763 145.516 108.798 145.338C108.834 145.16 108.921 144.997 109.048 144.868L120.608 133.3L109.048 121.74C108.9 121.564 108.824 121.339 108.834 121.109C108.844 120.879 108.94 120.662 109.103 120.499C109.265 120.336 109.483 120.241 109.713 120.23C109.942 120.22 110.168 120.296 110.344 120.444L121.904 132.004L133.464 120.444C133.64 120.296 133.865 120.22 134.095 120.23C134.325 120.241 134.542 120.336 134.705 120.499C134.868 120.662 134.964 120.879 134.974 121.109C134.984 121.339 134.908 121.564 134.76 121.74L123.2 133.3L134.76 144.86C134.889 144.988 134.977 145.151 135.012 145.328C135.048 145.506 135.03 145.691 134.96 145.858C134.891 146.025 134.773 146.168 134.622 146.268C134.471 146.369 134.293 146.421 134.112 146.42V146.428ZM111.904 144.604H131.904L121.904 134.604L111.904 144.604Z" fill="#263238"/>
<path d="M101.152 85.4516H88.1123L89.7523 72.2676H99.5043L101.152 85.4516Z" fill="#039AE4"/>
<path d="M101.152 86.3635H88.1121C87.9827 86.3631 87.8547 86.3359 87.7362 86.2836C87.6178 86.2313 87.5115 86.155 87.4241 86.0595C87.3397 85.961 87.2763 85.8464 87.2378 85.7226C87.1993 85.5988 87.1865 85.4684 87.2001 85.3395L88.8481 72.1555C88.8754 71.9349 88.9824 71.7318 89.1488 71.5845C89.3153 71.4372 89.5298 71.3557 89.7521 71.3555H99.5041C99.7273 71.3555 99.9429 71.4367 100.111 71.5839C100.278 71.731 100.387 71.9342 100.416 72.1555L102.016 85.3395C102.032 85.4676 102.02 85.5977 101.982 85.721C101.944 85.8444 101.88 85.9582 101.795 86.055C101.709 86.1518 101.604 86.2294 101.487 86.2826C101.369 86.3357 101.241 86.3633 101.112 86.3635H101.152ZM89.1521 84.5315H100.112L98.6961 73.1795H90.5681L89.1521 84.5315Z" fill="#039AE4"/>
<path d="M182.944 73.1798H86.0482C85.9207 73.1917 85.7921 73.1769 85.6707 73.1363C85.5493 73.0956 85.4376 73.0301 85.343 72.9439C85.2483 72.8577 85.1727 72.7527 85.121 72.6355C85.0692 72.5184 85.0425 72.3918 85.0425 72.2638C85.0425 72.1357 85.0692 72.0091 85.121 71.892C85.1727 71.7748 85.2483 71.6698 85.343 71.5836C85.4376 71.4974 85.5493 71.4319 85.6707 71.3912C85.7921 71.3506 85.9207 71.3358 86.0482 71.3477H182.944C183.072 71.3358 183.2 71.3506 183.322 71.3912C183.443 71.4319 183.555 71.4974 183.649 71.5836C183.744 71.6698 183.82 71.7748 183.871 71.892C183.923 72.0091 183.95 72.1357 183.95 72.2638C183.95 72.3918 183.923 72.5184 183.871 72.6355C183.82 72.7527 183.744 72.8577 183.649 72.9439C183.555 73.0301 183.443 73.0956 183.322 73.1363C183.2 73.1769 183.072 73.1917 182.944 73.1798Z" fill="#263238"/>
<path d="M170.736 60.9717H121.936C121.708 60.9504 121.496 60.8447 121.342 60.6752C121.188 60.5058 121.102 60.2849 121.102 60.0557C121.102 59.8266 121.188 59.6057 121.342 59.4362C121.496 59.2668 121.708 59.1611 121.936 59.1397H170.736C170.864 59.1278 170.992 59.1426 171.114 59.1832C171.235 59.2238 171.347 59.2894 171.442 59.3756C171.536 59.4618 171.612 59.5668 171.664 59.6839C171.715 59.8011 171.742 59.9277 171.742 60.0557C171.742 60.1838 171.715 60.3104 171.664 60.4275C171.612 60.5447 171.536 60.6497 171.442 60.7359C171.347 60.8221 171.235 60.8876 171.114 60.9282C170.992 60.9689 170.864 60.9837 170.736 60.9717Z" fill="#039AE4"/>
<path d="M195.768 113.26H101.632C96.6528 113.26 92.6162 117.296 92.6162 122.276V320.764C92.6162 325.743 96.6528 329.78 101.632 329.78H195.768C200.748 329.78 204.784 325.743 204.784 320.764V122.276C204.784 117.296 200.748 113.26 195.768 113.26Z" fill="#039AE4"/>
<path opacity="0.2" d="M195.768 113.26H101.632C96.6528 113.26 92.6162 117.296 92.6162 122.276V320.764C92.6162 325.743 96.6528 329.78 101.632 329.78H195.768C200.748 329.78 204.784 325.743 204.784 320.764V122.276C204.784 117.296 200.748 113.26 195.768 113.26Z" fill="black"/>
<path d="M207.288 113.26H113.152C108.173 113.26 104.136 117.296 104.136 122.276V320.764C104.136 325.743 108.173 329.78 113.152 329.78H207.288C212.268 329.78 216.304 325.743 216.304 320.764V122.276C216.304 117.296 212.268 113.26 207.288 113.26Z" fill="#039AE4"/>
<path d="M212.544 320.764V122.268C212.544 119.365 210.191 117.012 207.288 117.012H113.144C110.241 117.012 107.888 119.365 107.888 122.268L107.888 320.764C107.888 323.667 110.241 326.02 113.144 326.02H207.288C210.191 326.02 212.544 323.667 212.544 320.764Z" fill="white"/>
<path opacity="0.1" d="M211.044 237.504L206.733 148.712C206.558 145.12 203.505 142.349 199.913 142.524L123.059 146.256C119.467 146.43 116.696 149.484 116.871 153.076L121.182 241.867C121.357 245.46 124.41 248.23 128.002 248.056L204.856 244.324C208.448 244.149 211.219 241.096 211.044 237.504Z" fill="black"/>
<path d="M209.544 127.284V123.524C209.544 121.588 207.975 120.02 206.04 120.02H114.4C112.465 120.02 110.896 121.588 110.896 123.524V127.284C110.896 129.219 112.465 130.788 114.4 130.788H206.04C207.975 130.788 209.544 129.219 209.544 127.284Z" fill="#039AE4"/>
<path d="M121.328 127.924C120.659 127.924 120.017 127.659 119.544 127.186C119.07 126.714 118.802 126.073 118.8 125.404C118.802 124.734 119.069 124.092 119.543 123.619C120.017 123.145 120.658 122.878 121.328 122.876C121.998 122.878 122.64 123.145 123.114 123.619C123.587 124.092 123.854 124.734 123.856 125.404C123.854 126.073 123.587 126.714 123.113 127.186C122.639 127.659 121.997 127.924 121.328 127.924Z" fill="white"/>
<path d="M128.84 127.924C128.171 127.924 127.529 127.659 127.055 127.186C126.581 126.714 126.314 126.073 126.312 125.404C126.314 124.734 126.581 124.092 127.055 123.619C127.528 123.145 128.17 122.878 128.84 122.876C129.509 122.878 130.15 123.145 130.622 123.619C131.095 124.093 131.36 124.735 131.36 125.404C131.358 126.072 131.092 126.711 130.62 127.184C130.147 127.656 129.508 127.922 128.84 127.924Z" fill="white"/>
<path d="M136.352 127.924C135.683 127.924 135.041 127.659 134.567 127.186C134.094 126.714 133.826 126.073 133.824 125.404C133.826 124.734 134.093 124.092 134.567 123.619C135.041 123.145 135.682 122.878 136.352 122.876C137.021 122.878 137.662 123.145 138.135 123.619C138.607 124.093 138.872 124.735 138.872 125.404C138.87 126.072 138.604 126.711 138.132 127.184C137.66 127.656 137.02 127.922 136.352 127.924Z" fill="white"/>
<path d="M202.512 122.268H199.008C198.248 122.268 197.632 122.884 197.632 123.644V127.148C197.632 127.908 198.248 128.524 199.008 128.524H202.512C203.272 128.524 203.888 127.908 203.888 127.148V123.644C203.888 122.884 203.272 122.268 202.512 122.268Z" fill="white"/>
<path d="M142.229 283.454C151.172 279.75 155.419 269.496 151.715 260.553C148.01 251.609 137.757 247.362 128.813 251.067C119.87 254.771 115.623 265.025 119.327 273.968C123.032 282.912 133.285 287.159 142.229 283.454Z" fill="#039AE4"/>
<path d="M198.088 259.292H163.912C163.332 259.29 162.775 259.058 162.365 258.648C161.954 258.237 161.722 257.681 161.72 257.1C161.722 256.519 161.954 255.963 162.365 255.553C162.775 255.142 163.332 254.91 163.912 254.908H198.088C198.67 254.908 199.227 255.139 199.638 255.55C200.049 255.961 200.28 256.519 200.28 257.1C200.28 257.682 200.049 258.239 199.638 258.65C199.227 259.061 198.67 259.292 198.088 259.292Z" fill="#039AE4"/>
<path d="M198.088 269.451H163.912C163.332 269.449 162.775 269.218 162.365 268.807C161.954 268.396 161.722 267.84 161.72 267.259C161.722 266.679 161.954 266.122 162.365 265.712C162.775 265.301 163.332 265.069 163.912 265.067H198.088C198.67 265.067 199.227 265.298 199.638 265.709C200.049 266.12 200.28 266.678 200.28 267.259C200.28 267.841 200.049 268.398 199.638 268.809C199.227 269.22 198.67 269.451 198.088 269.451Z" fill="#039AE4"/>
<path d="M198.088 275.228H163.912C162.702 275.228 161.72 276.209 161.72 277.42C161.72 278.63 162.702 279.612 163.912 279.612H198.088C199.299 279.612 200.28 278.63 200.28 277.42C200.28 276.209 199.299 275.228 198.088 275.228Z" fill="#039AE4"/>
<path d="M194.6 294.628H125.848C121.509 294.628 117.992 298.145 117.992 302.484V312.252C117.992 316.591 121.509 320.108 125.848 320.108H194.6C198.939 320.108 202.456 316.591 202.456 312.252V302.484C202.456 298.145 198.939 294.628 194.6 294.628Z" fill="#E0E0E0"/>
<path d="M220.51 231.078L213.597 142.451C213.318 138.866 210.184 136.186 206.599 136.465L129.888 142.449C126.302 142.728 123.622 145.862 123.902 149.447L130.814 238.074C131.094 241.66 134.228 244.34 137.813 244.06L214.524 238.077C218.11 237.797 220.79 234.664 220.51 231.078Z" fill="white"/>
<path d="M137.288 244.5C135.546 244.497 133.869 243.836 132.593 242.649C131.318 241.462 130.537 239.838 130.408 238.1L123.496 149.468C123.357 147.642 123.947 145.835 125.138 144.444C126.329 143.052 128.022 142.189 129.848 142.044L206.568 136.06C208.394 135.921 210.201 136.511 211.593 137.702C212.984 138.893 213.847 140.586 213.992 142.412L220.904 231.044C221.045 232.871 220.456 234.68 219.265 236.074C218.074 237.467 216.379 238.331 214.552 238.476L137.832 244.452C137.648 244.5 137.472 244.5 137.288 244.5ZM131.208 238.1C131.339 239.711 132.102 241.205 133.332 242.255C134.561 243.304 136.156 243.824 137.768 243.7L214.488 237.716C216.1 237.583 217.594 236.818 218.643 235.587C219.692 234.357 220.212 232.761 220.088 231.148L213.176 142.516C213.045 140.903 212.281 139.408 211.05 138.359C209.818 137.309 208.221 136.79 206.608 136.916L129.896 142.9C128.284 143.033 126.79 143.798 125.741 145.029C124.692 146.259 124.172 147.855 124.296 149.468L131.208 238.1Z" fill="#039AE4"/>
<path d="M217.174 229.508L215.642 209.864C215.421 207.031 212.946 204.914 210.114 205.135L137.056 210.834C134.223 211.055 132.106 213.53 132.327 216.362L133.86 236.007C134.08 238.839 136.556 240.956 139.388 240.735L212.446 235.037C215.278 234.816 217.395 232.34 217.174 229.508Z" fill="#039AE4"/>
<path opacity="0.2" d="M173.837 199.723L169.784 147.768C169.561 144.901 167.055 142.757 164.187 142.981L132.029 145.489C129.161 145.713 127.018 148.219 127.242 151.087L131.294 203.041C131.518 205.908 134.024 208.052 136.891 207.828L169.05 205.32C171.917 205.096 174.06 202.59 173.837 199.723Z" fill="#039AE4"/>
<path opacity="0.2" d="M210.893 152.402L210.206 143.588C210.026 141.285 208.013 139.563 205.709 139.742L178.153 141.892C175.849 142.071 174.127 144.085 174.307 146.388L174.994 155.202C175.174 157.505 177.187 159.227 179.491 159.048L207.047 156.898C209.351 156.719 211.073 154.705 210.893 152.402Z" fill="#039AE4"/>
<path opacity="0.4" d="M212.65 174.993L211.963 166.18C211.783 163.876 209.77 162.154 207.466 162.334L179.91 164.484C177.606 164.663 175.884 166.676 176.064 168.98L176.752 177.793C176.931 180.097 178.944 181.819 181.248 181.639L208.805 179.49C211.108 179.31 212.83 177.297 212.65 174.993Z" fill="#039AE4"/>
<path opacity="0.6" d="M214.416 197.585L213.728 188.772C213.549 186.468 211.535 184.746 209.232 184.926L181.675 187.075C179.371 187.255 177.65 189.268 177.829 191.572L178.517 200.385C178.696 202.689 180.71 204.411 183.013 204.231L210.57 202.082C212.873 201.902 214.595 199.889 214.416 197.585Z" fill="#039AE4"/>
<path d="M181 125.812C180.892 125.812 180.788 125.769 180.711 125.692C180.635 125.616 180.592 125.512 180.592 125.404V72.2677C180.58 72.2085 180.581 72.1474 180.596 72.0888C180.611 72.0301 180.638 71.9755 180.676 71.9288C180.715 71.8821 180.763 71.8444 180.817 71.8186C180.872 71.7927 180.932 71.7793 180.992 71.7793C181.052 71.7793 181.112 71.7927 181.167 71.8186C181.221 71.8444 181.269 71.8821 181.308 71.9288C181.346 71.9755 181.373 72.0301 181.388 72.0888C181.402 72.1474 181.404 72.2085 181.392 72.2677V125.404C181.392 125.509 181.351 125.611 181.278 125.687C181.205 125.763 181.105 125.808 181 125.812Z" fill="#263238"/>
<path d="M186.08 134.1H175.92C175.515 134.099 175.122 133.968 174.797 133.726C174.473 133.484 174.236 133.144 174.12 132.756L171.936 125.332C171.856 125.052 171.841 124.758 171.894 124.472C171.946 124.186 172.064 123.916 172.239 123.684C172.413 123.451 172.639 123.262 172.899 123.132C173.159 123.001 173.445 122.933 173.736 122.932H188.264C188.555 122.933 188.841 123.001 189.101 123.132C189.361 123.262 189.587 123.451 189.761 123.684C189.936 123.916 190.054 124.186 190.107 124.472C190.159 124.758 190.145 125.052 190.064 125.332L187.88 132.756C187.766 133.144 187.529 133.485 187.204 133.728C186.88 133.97 186.485 134.101 186.08 134.1Z" fill="#263238"/>
<path d="M181 145.604C180.759 145.604 180.527 145.508 180.355 145.337C180.184 145.166 180.088 144.934 180.088 144.692C180.088 144.45 180.184 144.218 180.355 144.047C180.527 143.876 180.759 143.78 181 143.78C181.849 143.78 182.663 143.443 183.263 142.843C183.863 142.243 184.2 141.429 184.2 140.58C184.2 139.731 183.863 138.917 183.263 138.317C182.663 137.717 181.849 137.38 181 137.38C180.759 137.38 180.527 137.284 180.355 137.113C180.184 136.942 180.088 136.71 180.088 136.468V134.1C180.11 133.872 180.215 133.66 180.385 133.505C180.554 133.351 180.775 133.266 181.004 133.266C181.234 133.266 181.454 133.351 181.624 133.505C181.793 133.66 181.899 133.872 181.92 134.1V135.628C183.148 135.861 184.245 136.543 184.997 137.541C185.749 138.539 186.102 139.782 185.987 141.026C185.872 142.27 185.297 143.427 184.375 144.271C183.453 145.114 182.25 145.584 181 145.588V145.604Z" fill="#263238"/>
<path d="M322.176 157.757C323.192 160.101 324.024 162.325 324.84 164.661C325.656 166.997 326.4 169.301 327.032 171.701C327.724 174.151 328.28 176.637 328.696 179.149C328.932 180.491 329.098 181.845 329.192 183.205C329.314 184.805 329.274 186.413 329.072 188.005L329.024 188.333C329.002 188.49 328.967 188.645 328.92 188.797C328.201 190.985 327.338 193.123 326.336 195.197C325.4 197.205 324.336 199.101 323.28 200.981C322.224 202.861 321.072 204.661 319.88 206.445C318.688 208.229 317.48 209.957 316.12 211.677C315.666 212.244 315.028 212.633 314.316 212.778C313.605 212.923 312.865 212.814 312.226 212.469C311.586 212.125 311.088 211.567 310.817 210.893C310.547 210.219 310.521 209.472 310.744 208.781V208.709C311.384 206.781 312.096 204.813 312.776 202.877C313.456 200.941 314.16 199.021 314.808 197.101C315.456 195.181 316.104 193.269 316.68 191.405C317.256 189.541 317.76 187.669 318.112 185.965L317.96 186.765C317.944 185.995 317.866 185.227 317.728 184.469C317.568 183.549 317.368 182.541 317.112 181.525C316.856 180.509 316.576 179.469 316.264 178.421C315.952 177.373 315.632 176.317 315.28 175.221C314.576 173.101 313.848 170.957 313.072 168.821L310.728 162.477L310.688 162.365C310.078 160.845 310.097 159.144 310.741 157.638C311.385 156.132 312.6 154.943 314.12 154.333C315.641 153.723 317.341 153.742 318.847 154.385C320.353 155.029 321.542 156.245 322.152 157.765L322.176 157.757Z" fill="#039AE4"/>
<path opacity="0.7" d="M322.176 157.757C323.192 160.101 324.024 162.325 324.84 164.661C325.656 166.997 326.4 169.301 327.032 171.701C327.724 174.151 328.28 176.637 328.696 179.149C328.932 180.491 329.098 181.845 329.192 183.205C329.314 184.805 329.274 186.413 329.072 188.005L329.024 188.333C329.002 188.49 328.967 188.645 328.92 188.797C328.201 190.985 327.338 193.123 326.336 195.197C325.4 197.205 324.336 199.101 323.28 200.981C322.224 202.861 321.072 204.661 319.88 206.445C318.688 208.229 317.48 209.957 316.12 211.677C315.666 212.244 315.028 212.633 314.316 212.778C313.605 212.923 312.865 212.814 312.226 212.469C311.586 212.125 311.088 211.567 310.817 210.893C310.547 210.219 310.521 209.472 310.744 208.781V208.709C311.384 206.781 312.096 204.813 312.776 202.877C313.456 200.941 314.16 199.021 314.808 197.101C315.456 195.181 316.104 193.269 316.68 191.405C317.256 189.541 317.76 187.669 318.112 185.965L317.96 186.765C317.944 185.995 317.866 185.227 317.728 184.469C317.568 183.549 317.368 182.541 317.112 181.525C316.856 180.509 316.576 179.469 316.264 178.421C315.952 177.373 315.632 176.317 315.28 175.221C314.576 173.101 313.848 170.957 313.072 168.821L310.728 162.477L310.688 162.365C310.078 160.845 310.097 159.144 310.741 157.638C311.385 156.132 312.6 154.943 314.12 154.333C315.641 153.723 317.341 153.742 318.847 154.385C320.353 155.029 321.542 156.245 322.152 157.765L322.176 157.757Z" fill="white"/>
<path d="M311.112 207.701L307.024 209.845L312.744 215.789C313.84 215.007 314.818 214.072 315.648 213.013C316.21 212.254 316.45 211.304 316.315 210.369C316.18 209.434 315.682 208.59 314.928 208.021C314.388 207.612 313.742 207.365 313.067 207.308C312.391 207.252 311.714 207.388 311.112 207.701Z" fill="#7F3E3B"/>
<path d="M304.8 216.653L307.16 218.397C307.615 218.731 308.173 218.894 308.737 218.857C309.3 218.821 309.832 218.587 310.24 218.197L312.712 215.797L306.992 209.853L304.368 213.301C303.984 213.803 303.813 214.438 303.894 215.065C303.975 215.693 304.301 216.264 304.8 216.653Z" fill="#7F3E3B"/>
<path d="M245.952 169.804L241.736 164.364L236.896 171.044C236.896 171.044 241.312 175.5 244.056 173.54L245.952 169.804Z" fill="#7F3E3B"/>
<path d="M234.656 163.413L233.352 166.037C233.103 166.544 233.041 167.124 233.177 167.673C233.313 168.221 233.639 168.705 234.096 169.037L236.896 171.045L241.736 164.365L237.896 162.357C237.614 162.212 237.307 162.125 236.991 162.099C236.675 162.074 236.357 162.112 236.056 162.21C235.755 162.308 235.476 162.465 235.236 162.671C234.996 162.878 234.799 163.13 234.656 163.413Z" fill="#7F3E3B"/>
<path d="M315.888 334.213H310.816L310.192 333.629L309.256 334.213C306.16 334.213 301.984 334.101 299.992 333.413C299.935 333.18 299.942 332.936 300.014 332.708C300.086 332.479 300.22 332.275 300.4 332.117C300.4 332.117 308.6 329.581 309.336 327.877H315.552" fill="#263238"/>
<path d="M309.6 262.492C308.584 236.268 310.24 215.54 307.752 205.484L284.552 201.732C284.552 201.732 288.824 246.156 293.96 264.532C299.096 282.908 308.36 328.292 308.36 328.292H316.256C316.256 328.292 316.448 284.012 309.6 262.492Z" fill="#039AE4"/>
<path opacity="0.2" d="M292.8 223.7L288.488 234.9C289.864 244.7 291.512 254.724 293.288 261.924C295.2 248.852 293.816 227.412 292.8 223.7Z" fill="black"/>
<path d="M250.176 326.693C250.176 326.693 261.848 327.581 263.128 326.173L269.248 328.053L267.536 334.213L263.76 333.061L263.336 332.317L262.232 332.589C259.176 331.653 251.096 329.053 249.352 327.789C249.377 327.548 249.466 327.319 249.612 327.126C249.757 326.933 249.952 326.783 250.176 326.693Z" fill="#263238"/>
<path d="M285.064 264.084C292.867 244.946 298.034 224.837 300.424 204.308L275.096 200.164C275.096 200.164 271.336 245.98 269.696 264.812C268 284.388 261.416 326.1 261.416 326.1L269.6 328.58C269.6 328.58 284.216 288.436 285.064 264.084Z" fill="#039AE4"/>
<path d="M309.88 133.341C308.392 138.141 307.48 145.093 308.92 149.021C306.12 150.957 301.72 153.213 296.384 152.357C291.048 151.501 292.568 148.037 294.264 146.389C298.368 145.021 298.8 143.093 298.12 141.245L309.88 133.341Z" fill="#7F3E3B"/>
<path d="M313.72 150.941C312.475 149.444 311.116 148.045 309.656 146.757C308.408 145.893 298.048 144.605 295.576 144.693C293.104 144.781 289.672 147.941 289.672 147.941L313.72 150.941Z" fill="#039AE4"/>
<path opacity="0.7" d="M313.72 150.941C312.475 149.444 311.116 148.045 309.656 146.757C308.408 145.893 298.048 144.605 295.576 144.693C293.104 144.781 289.672 147.941 289.672 147.941L313.72 150.941Z" fill="white"/>
<path d="M296 127.605C295.84 128.077 295.464 128.405 295.16 128.277C294.856 128.149 294.72 127.701 294.88 127.221C295.04 126.741 295.416 126.421 295.72 126.557C296.024 126.693 296.16 127.133 296 127.605Z" fill="#263238"/>
<path d="M295.816 128.276C294.775 129.532 293.567 130.638 292.224 131.564C292.47 131.905 292.787 132.188 293.153 132.394C293.519 132.6 293.925 132.723 294.344 132.756L295.816 128.276Z" fill="#630F0F"/>
<path d="M296 124.333C296.019 124.377 296.05 124.416 296.09 124.444C296.129 124.472 296.176 124.489 296.224 124.493C296.59 124.53 296.941 124.653 297.25 124.852C297.558 125.05 297.816 125.319 298 125.637C298.016 125.672 298.038 125.703 298.066 125.729C298.094 125.755 298.127 125.775 298.163 125.788C298.199 125.8 298.237 125.805 298.275 125.803C298.313 125.8 298.351 125.79 298.384 125.773C298.454 125.738 298.507 125.678 298.533 125.604C298.558 125.531 298.554 125.451 298.52 125.381C298.295 124.975 297.976 124.629 297.589 124.373C297.201 124.116 296.758 123.957 296.296 123.909C296.245 123.906 296.193 123.916 296.147 123.939C296.1 123.962 296.06 123.996 296.03 124.038C296.001 124.081 295.982 124.13 295.977 124.182C295.972 124.233 295.98 124.285 296 124.333Z" fill="#263238"/>
<path d="M312.424 131.645C310.144 137.341 309.104 140.797 305.224 142.789C299.328 145.789 293.032 140.685 293.56 134.405C294.032 128.757 297.672 120.389 304.12 120.005C305.545 119.924 306.968 120.206 308.255 120.824C309.541 121.441 310.651 122.374 311.48 123.536C312.309 124.698 312.83 126.051 312.995 127.469C313.161 128.887 312.964 130.323 312.424 131.645Z" fill="#7F3E3B"/>
<path d="M299.616 131.828C299.46 133.118 299.577 134.427 299.959 135.67C300.341 136.912 300.979 138.061 301.833 139.041C302.686 140.021 303.736 140.811 304.914 141.36C306.092 141.909 307.373 142.205 308.672 142.228C314.4 142.228 314.488 134.068 313.472 132.188C316.512 131.66 318.272 127.484 316.416 124.844C319.208 122.652 312.752 119.324 304.896 118.892C296.232 118.412 297.816 123.516 300.704 125.06C297.928 125.884 297.64 130.828 299.616 131.828Z" fill="#263238"/>
<path d="M297.952 121.076C297.952 121.076 298.504 127.788 304.144 131.828C309.784 135.868 314.8 136.244 314.8 136.244L316.192 131.828C316.192 131.828 303.456 124.156 299.152 119.868C298.729 120.247 298.328 120.65 297.952 121.076Z" fill="#039AE4"/>
<path opacity="0.6" d="M297.952 121.076C297.952 121.076 298.504 127.788 304.144 131.828C309.784 135.868 314.8 136.244 314.8 136.244L316.192 131.828C316.192 131.828 303.456 124.156 299.152 119.868C298.729 120.247 298.328 120.65 297.952 121.076Z" fill="white"/>
<path d="M302.608 131.908C301.873 132.991 300.751 133.752 299.472 134.036C297.872 134.348 297.36 132.716 298.072 131.14C298.712 129.724 300.328 127.852 301.824 128.252C303.32 128.652 303.568 130.532 302.608 131.908Z" fill="#7F3E3B"/>
<path d="M313.472 150.221C305.36 147.989 293.624 146.373 285.64 146.589C283.666 146.65 281.767 147.365 280.242 148.621C278.717 149.878 277.653 151.606 277.216 153.533C274.512 165.261 274.096 186.397 273.312 207.621C290.72 216.421 310.216 212.933 310.216 212.933C311.248 208.781 311.016 194.645 310.656 187.061C312.816 179.605 316.728 171.277 319.696 161.389C320.035 160.247 320.141 159.049 320.01 157.865C319.879 156.682 319.513 155.536 318.933 154.496C318.353 153.456 317.572 152.542 316.634 151.807C315.696 151.073 314.621 150.534 313.472 150.221Z" fill="#039AE4"/>
<path opacity="0.7" d="M313.472 150.221C305.36 147.989 293.624 146.373 285.64 146.589C283.666 146.65 281.767 147.365 280.242 148.621C278.717 149.878 277.653 151.606 277.216 153.533C274.512 165.261 274.096 186.397 273.312 207.621C290.72 216.421 310.216 212.933 310.216 212.933C311.248 208.781 311.016 194.645 310.656 187.061C312.816 179.605 316.728 171.277 319.696 161.389C320.035 160.247 320.141 159.049 320.01 157.865C319.879 156.682 319.513 155.536 318.933 154.496C318.353 153.456 317.572 152.542 316.634 151.807C315.696 151.073 314.621 150.534 313.472 150.221Z" fill="white"/>
<path d="M287.888 145.412C281.2 145.028 277.04 148.332 275.336 158.428C273.632 168.524 271.792 191.412 272.504 199.668C294.96 209.116 308.888 205.268 311.888 203.068C313.064 201.268 312.632 195.676 312.04 193.468C313.543 189.503 314.295 185.293 314.256 181.052C317.584 177.852 319.056 171.716 319.168 169.332C322.096 165.428 322.488 156.588 320.864 154.068C319.24 151.548 314.52 146.9 287.888 145.412Z" fill="#263238"/>
<path opacity="0.2" d="M275.728 201.356C275.622 201.356 275.52 201.314 275.445 201.239C275.37 201.164 275.328 201.062 275.328 200.956C275.328 184.732 277.496 160.804 280.544 152.412C280.58 152.313 280.654 152.231 280.75 152.186C280.846 152.141 280.956 152.136 281.056 152.172C281.106 152.189 281.152 152.216 281.192 152.251C281.231 152.286 281.263 152.329 281.285 152.377C281.308 152.425 281.32 152.477 281.322 152.53C281.324 152.582 281.315 152.635 281.296 152.684C278.568 160.196 276.144 182.756 276.128 200.956C276.128 201.009 276.118 201.061 276.098 201.109C276.078 201.158 276.048 201.202 276.011 201.239C275.974 201.276 275.93 201.306 275.881 201.326C275.833 201.346 275.781 201.356 275.728 201.356Z" fill="white"/>
<path d="M287.776 156.5C286.56 158.716 285.328 160.692 284 162.732C282.672 164.772 281.28 166.732 279.76 168.668C278.231 170.672 276.586 172.585 274.832 174.396C273.89 175.379 272.891 176.306 271.84 177.172C270.614 178.211 269.271 179.105 267.84 179.836L267.552 179.98C267.408 180.05 267.258 180.109 267.104 180.156C264.703 180.862 262.189 181.107 259.696 180.876C258.582 180.79 257.476 180.627 256.384 180.388C255.339 180.174 254.306 179.907 253.288 179.588C251.337 178.961 249.438 178.183 247.608 177.26C246.704 176.804 245.832 176.316 244.968 175.804C244.104 175.292 243.304 174.764 242.4 174.108C241.82 173.691 241.403 173.085 241.22 172.395C241.036 171.704 241.098 170.971 241.394 170.321C241.691 169.671 242.203 169.144 242.845 168.829C243.486 168.515 244.217 168.432 244.912 168.596L245.184 168.66L247.688 169.244C248.536 169.444 249.392 169.62 250.24 169.78C251.891 170.105 253.557 170.346 255.232 170.5C256.762 170.639 258.302 170.639 259.832 170.5C261.053 170.408 262.249 170.108 263.368 169.612L262.632 169.94C263.204 169.52 263.74 169.051 264.232 168.54C264.848 167.908 265.512 167.188 266.152 166.42C266.792 165.652 267.432 164.82 268.056 163.98C268.68 163.14 269.328 162.268 269.944 161.372C271.168 159.596 272.392 157.764 273.584 155.9C274.776 154.036 275.984 152.108 277.088 150.3L277.144 150.204C277.558 149.506 278.104 148.896 278.754 148.409C279.403 147.923 280.141 147.568 280.927 147.367C281.713 147.166 282.531 147.121 283.334 147.236C284.137 147.351 284.91 147.623 285.608 148.036C286.306 148.449 286.916 148.996 287.403 149.645C287.89 150.294 288.244 151.033 288.445 151.819C288.646 152.605 288.691 153.423 288.576 154.226C288.461 155.029 288.19 155.802 287.776 156.5Z" fill="#039AE4"/>
<path opacity="0.7" d="M287.776 156.5C286.56 158.716 285.328 160.692 284 162.732C282.672 164.772 281.28 166.732 279.76 168.668C278.231 170.672 276.586 172.585 274.832 174.396C273.89 175.379 272.891 176.306 271.84 177.172C270.614 178.211 269.271 179.105 267.84 179.836L267.552 179.98C267.408 180.05 267.258 180.109 267.104 180.156C264.703 180.862 262.189 181.107 259.696 180.876C258.582 180.79 257.476 180.627 256.384 180.388C255.339 180.174 254.306 179.907 253.288 179.588C251.337 178.961 249.438 178.183 247.608 177.26C246.704 176.804 245.832 176.316 244.968 175.804C244.104 175.292 243.304 174.764 242.4 174.108C241.82 173.691 241.403 173.085 241.22 172.395C241.036 171.704 241.098 170.971 241.394 170.321C241.691 169.671 242.203 169.144 242.845 168.829C243.486 168.515 244.217 168.432 244.912 168.596L245.184 168.66L247.688 169.244C248.536 169.444 249.392 169.62 250.24 169.78C251.891 170.105 253.557 170.346 255.232 170.5C256.762 170.639 258.302 170.639 259.832 170.5C261.053 170.408 262.249 170.108 263.368 169.612L262.632 169.94C263.204 169.52 263.74 169.051 264.232 168.54C264.848 167.908 265.512 167.188 266.152 166.42C266.792 165.652 267.432 164.82 268.056 163.98C268.68 163.14 269.328 162.268 269.944 161.372C271.168 159.596 272.392 157.764 273.584 155.9C274.776 154.036 275.984 152.108 277.088 150.3L277.144 150.204C277.558 149.506 278.104 148.896 278.754 148.409C279.403 147.923 280.141 147.568 280.927 147.367C281.713 147.166 282.531 147.121 283.334 147.236C284.137 147.351 284.91 147.623 285.608 148.036C286.306 148.449 286.916 148.996 287.403 149.645C287.89 150.294 288.244 151.033 288.445 151.819C288.646 152.605 288.691 153.423 288.576 154.226C288.461 155.029 288.19 155.802 287.776 156.5Z" fill="white"/>
<path d="M316.304 134.636C316.201 134.738 316.072 134.809 315.931 134.843C315.79 134.877 315.642 134.872 315.504 134.828C311.006 133.11 306.867 130.571 303.296 127.34C297.24 121.788 296.72 115.428 299.408 118.468C300.896 116.868 307.216 114.916 313.072 117.452C319.264 120.148 322.248 128.5 316.304 134.636Z" fill="#039AE4"/>
<path d="M311.128 116.78C312.652 118.226 313.743 120.066 314.279 122.097C314.816 124.127 314.778 126.266 314.168 128.276C315.471 127.993 316.723 127.513 317.88 126.852C317.88 126.852 318.816 122.364 317.08 119.476C315.344 116.588 311.504 115.86 311.128 116.78Z" fill="#039AE4"/>
<path opacity="0.2" d="M314.168 128.276C314.778 126.267 314.816 124.127 314.279 122.097C313.743 120.067 312.652 118.226 311.128 116.78C311.179 116.69 311.251 116.614 311.337 116.557C311.423 116.5 311.522 116.464 311.624 116.452C312.84 117.236 316.192 121.996 314.168 128.276Z" fill="black"/>
</svg>
