<svg width="56" height="56" viewBox="0 0 56 56" fill="none" xmlns="http://www.w3.org/2000/svg">
<path d="M46.0216 30.8556L47.5168 30.8242L48.2538 30.8119C48.499 30.8063 48.7421 30.8119 48.9874 30.8052L48.937 30.8556L48.9314 29.6023L48.9874 29.6583L47.5045 29.6505C47.0094 29.6505 46.5155 29.6382 46.0216 29.6326L46.0518 29.6023C46.0518 29.8073 46.0418 30.0134 46.0373 30.2217L46.0216 30.8556ZM46.0216 30.8556L46.0048 30.2351C46.0048 30.0257 45.9925 29.8151 45.9902 29.6023V29.5676H46.0216C46.5155 29.5676 47.0094 29.5508 47.5045 29.5497L48.9874 29.543H49.0434V29.599L49.0366 30.8522V30.9116H48.9874C48.7365 30.9116 48.4867 30.9116 48.237 30.906L47.491 30.8937L46.0216 30.8556Z" fill="#EBEBEB"/>
<path d="M47.6759 32.4361L49.1711 32.4047L49.9081 32.3924C50.1533 32.3868 50.3975 32.3924 50.6417 32.3857L50.5913 32.4361V31.1828L50.6473 31.2388L49.1644 31.231C48.6693 31.231 48.1754 31.2187 47.6815 31.2131L47.7117 31.1828C47.7117 31.3878 47.7017 31.5939 47.6972 31.8022L47.6759 32.4361ZM47.6759 32.4361L47.6602 31.8156C47.6546 31.6062 47.6468 31.3956 47.6445 31.1828V31.1526H47.6759C48.1698 31.147 48.6637 31.1358 49.1588 31.1346L50.6417 31.1279H50.6977V31.1839L50.6909 32.4372V32.4876H50.6417C50.3919 32.4876 50.141 32.4876 49.8913 32.482L49.1453 32.4697L47.6759 32.4361Z" fill="#EBEBEB"/>
<path d="M44.3604 32.4346H47.3262V31.1813H44.3604V32.4346Z" fill="#EBEBEB"/>
<path d="M5.35837 41.0865L6.85469 41.0551L7.59165 41.0428C7.8358 41.0428 8.07997 41.0428 8.32413 41.0361L8.27484 41.0865L8.26813 39.8332L8.32413 39.8892L6.84125 39.8814C6.34733 39.8814 5.85341 39.869 5.35837 39.8634L5.38861 39.8332C5.38861 40.0382 5.37964 40.2442 5.37404 40.4526L5.35837 41.0865ZM5.35837 41.0865L5.34269 40.466C5.33709 40.2566 5.33037 40.046 5.32812 39.8332V39.803H5.35837C5.85341 39.7974 6.34733 39.7862 6.84125 39.785L8.32413 39.7783H8.38013V39.8343V41.0876V41.138H8.32973C8.07997 41.138 7.82909 41.138 7.58045 41.1324L6.83229 41.1178L5.35837 41.0865Z" fill="#EBEBEB"/>
<path d="M7.01373 42.666H9.97949V41.4127H7.01373V42.666Z" fill="#EBEBEB"/>
<path d="M13.042 17.6804L14.5383 17.649L15.2752 17.6367C15.5194 17.6311 15.7636 17.6367 16.0077 17.6311L15.9584 17.6804L15.9517 16.4271L16.0077 16.4831L14.5248 16.4764C14.0309 16.4764 13.5359 16.4641 13.042 16.4573L13.0722 16.4271C13.0722 16.6321 13.0632 16.8393 13.0576 17.0476L13.042 17.6804ZM13.042 17.6804L13.0263 17.061C13.0263 16.8516 13.014 16.6399 13.0117 16.4271V16.3969H13.042C13.5359 16.3913 14.0309 16.3789 14.5248 16.3789L16.0077 16.3711H16.0637V16.4271L16.0581 17.6804V17.7308H16.0088C15.7591 17.7308 15.5082 17.7308 15.2596 17.7241L14.5136 17.7117L13.042 17.6804Z" fill="#EBEBEB"/>
<path d="M6.99713 6.84766H9.96289V5.59438H6.99713V6.84766Z" fill="#EBEBEB"/>
<path d="M5.34484 8.42744L6.84004 8.39944L7.577 8.38712C7.82228 8.38712 8.06532 8.38712 8.3106 8.38712L8.2602 8.4364V7.18312L8.3162 7.23912L6.8322 7.22344C6.33716 7.22344 5.84324 7.21112 5.34932 7.2044L5.37956 7.17416C5.37956 7.37912 5.36948 7.5852 5.365 7.79464L5.34484 8.42744ZM5.34484 8.42744L5.32804 7.80808C5.32804 7.59864 5.31572 7.38696 5.31348 7.17416V7.14392H5.34484C5.83876 7.14392 6.33268 7.126 6.82772 7.12488L8.3106 7.11816H8.3666V7.17416L8.35988 8.42744V8.47784H8.3106C8.05972 8.47784 7.80996 8.47784 7.5602 8.47112L6.81428 8.4588L5.34484 8.42744Z" fill="#EBEBEB"/>
<path d="M46.0216 6.84737L47.5168 6.81601L48.2538 6.80369C48.499 6.80369 48.7421 6.80369 48.9874 6.80369L48.937 6.85297L48.9314 5.59969L48.9874 5.65569L47.5045 5.64897C47.0094 5.64897 46.5155 5.63665 46.0216 5.62993L46.0518 5.59969C46.0518 5.80465 46.0418 6.01073 46.0373 6.22017L46.0216 6.84737ZM46.0216 6.84737L46.0048 6.22801C46.0048 6.01857 45.9925 5.80689 45.9902 5.59409V5.56385H46.0216C46.5155 5.56385 47.0094 5.54593 47.5045 5.54481L48.9874 5.53809H49.0434V5.59969L49.0366 6.85297V6.90337H48.9874C48.7365 6.90337 48.4867 6.90337 48.237 6.89665L47.4877 6.87873L46.0216 6.84737Z" fill="#EBEBEB"/>
<path d="M41.3331 22.5195H44.2988V21.2663H41.3331V22.5195Z" fill="#EBEBEB"/>
<path d="M9.76917 13.3722C9.8248 13.3381 9.88875 13.3201 9.95397 13.3201C10.0192 13.3201 10.0831 13.3381 10.1388 13.3722L10.234 13.427C10.2664 13.4438 10.2989 13.4606 10.3325 13.4763C10.3917 13.5034 10.4422 13.5463 10.4785 13.6002C10.5149 13.6542 10.5357 13.7171 10.5386 13.7821L10.5521 14.2368L12.0349 14.1909L12.0204 13.7362C12.0189 13.6708 12.0354 13.6064 12.0683 13.5498C12.1011 13.4933 12.1488 13.447 12.2063 13.4158C12.271 13.3819 12.3338 13.3446 12.3944 13.3038C12.4477 13.2663 12.5103 13.2442 12.5754 13.24C12.6404 13.2359 12.7053 13.2498 12.7629 13.2803L13.1628 13.4942L13.8639 12.1872L13.4641 11.9722C13.4067 11.9413 13.3591 11.8951 13.3264 11.8387C13.2938 11.7824 13.2775 11.7181 13.2793 11.653C13.2816 11.5782 13.2794 11.5034 13.2725 11.429C13.2653 11.3632 13.2769 11.2968 13.3058 11.2374C13.3347 11.1779 13.3799 11.1278 13.4361 11.093L13.8224 10.8634L13.0384 9.60336L12.6554 9.83968C12.6 9.87376 12.5362 9.8918 12.4712 9.8918C12.4061 9.8918 12.3423 9.87376 12.2869 9.83968C12.2567 9.82064 12.2242 9.80272 12.1929 9.78592C12.1615 9.76912 12.1279 9.7512 12.0943 9.73664C12.035 9.70945 11.9844 9.6664 11.948 9.61224C11.9116 9.55809 11.8909 9.49493 11.8882 9.42976L11.8714 8.97168L10.3885 9.0176L10.4031 9.4656C10.4051 9.53102 10.3887 9.59571 10.3559 9.65232C10.323 9.70893 10.275 9.75521 10.2172 9.78592C10.1525 9.81983 10.0897 9.85722 10.029 9.89792C9.97586 9.93573 9.91321 9.95797 9.84812 9.96212C9.78302 9.96628 9.71806 9.95219 9.66053 9.92144L9.26069 9.70752L8.55957 11.0246L8.95941 11.2397C9.01671 11.2705 9.06426 11.3167 9.09671 11.3731C9.12916 11.4295 9.14523 11.4938 9.14309 11.5589C9.14167 11.6336 9.14428 11.7084 9.15093 11.7829C9.158 11.8486 9.14641 11.915 9.11749 11.9744C9.08857 12.0338 9.04349 12.0839 8.98741 12.1189L8.60101 12.3586L9.38501 13.6186L9.76917 13.3722ZM10.1399 11.0314C10.2531 10.8193 10.4266 10.6456 10.6385 10.5322C10.8504 10.4188 11.0912 10.3708 11.3304 10.3942C11.5696 10.4177 11.7965 10.5115 11.9824 10.6639C12.1683 10.8163 12.3048 11.0204 12.3746 11.2504C12.4445 11.4803 12.4446 11.7259 12.3749 11.9559C12.3052 12.1859 12.1689 12.3901 11.9832 12.5427C11.7974 12.6952 11.5706 12.7893 11.3314 12.8129C11.0922 12.8366 10.8514 12.7888 10.6394 12.6755C10.3554 12.5235 10.1433 12.265 10.0496 11.9567C9.95598 11.6485 9.98844 11.3157 10.1399 11.0314Z" fill="#EBEBEB"/>
<path d="M48.6075 28.6206C48.6307 28.5811 48.6645 28.5489 48.7051 28.5275C48.7456 28.5061 48.7913 28.4965 48.8371 28.4997H48.9905C49.0352 28.4973 49.0797 28.5072 49.1192 28.5283C49.1587 28.5495 49.1917 28.581 49.2145 28.6195L49.3736 28.8962L50.2696 28.3765L50.1105 28.101C50.0877 28.0613 50.0765 28.016 50.0781 27.9703C50.0797 27.9246 50.094 27.8802 50.1195 27.8422C50.1478 27.7982 50.1736 27.7534 50.1968 27.7078C50.2175 27.6664 50.2495 27.6316 50.2892 27.6074C50.3288 27.5832 50.3744 27.5707 50.4208 27.5712H50.7388V26.5318H50.4208C50.3745 26.5326 50.3289 26.5203 50.2893 26.4963C50.2496 26.4723 50.2176 26.4377 50.1968 26.3963C50.1737 26.35 50.1479 26.3052 50.1195 26.2619C50.094 26.2239 50.0797 26.1796 50.0781 26.1338C50.0765 26.0881 50.0877 26.0429 50.1105 26.0032L50.2696 25.7266L49.3736 25.208L49.2134 25.4846C49.1907 25.5234 49.1578 25.5551 49.1183 25.5765C49.0788 25.5978 49.0342 25.6079 48.9894 25.6056C48.9636 25.6056 48.9379 25.6056 48.9121 25.6056C48.8864 25.6056 48.8617 25.6056 48.836 25.6056C48.7903 25.6084 48.7447 25.5986 48.7042 25.5773C48.6637 25.556 48.6299 25.5239 48.6063 25.4846L48.4473 25.208L47.5513 25.7266L47.7103 26.0021C47.7331 26.0418 47.7444 26.087 47.7428 26.1327C47.7412 26.1784 47.7269 26.2228 47.7014 26.2608C47.6738 26.3049 47.648 26.3497 47.6241 26.3952C47.6034 26.4368 47.5714 26.4716 47.5318 26.4958C47.4922 26.52 47.4465 26.5325 47.4001 26.5318H47.082V27.5712H47.4001C47.4465 27.5707 47.4921 27.5832 47.5317 27.6074C47.5713 27.6316 47.6033 27.6664 47.6241 27.7078C47.6472 27.7541 47.673 27.799 47.7014 27.8422C47.7269 27.8802 47.7412 27.9246 47.7428 27.9703C47.7444 28.016 47.7331 28.0613 47.7103 28.101L47.5513 28.3765L48.4473 28.8962L48.6075 28.6206ZM48.062 27.0526C48.0618 26.8842 48.1115 26.7196 48.2049 26.5794C48.2983 26.4393 48.4312 26.33 48.5867 26.2654C48.7422 26.2008 48.9134 26.1838 49.0786 26.2165C49.2438 26.2493 49.3956 26.3302 49.5147 26.4492C49.6339 26.5682 49.7151 26.7199 49.748 26.8851C49.7809 27.0502 49.7641 27.2214 49.6997 27.377C49.6354 27.5326 49.5263 27.6656 49.3862 27.7592C49.2462 27.8528 49.0816 27.9027 48.9132 27.9027C48.688 27.9021 48.4721 27.8124 48.3128 27.6531C48.1535 27.4938 48.0637 27.2779 48.0632 27.0526H48.062Z" fill="#EBEBEB"/>
<path d="M5.5304 15.4188C5.57002 15.442 5.60235 15.4757 5.62374 15.5163C5.64512 15.5569 5.65469 15.6027 5.65136 15.6484C5.65136 15.6731 5.65136 15.6988 5.65136 15.7246C5.65136 15.7503 5.65136 15.7761 5.65136 15.8019C5.65374 15.8466 5.64383 15.8911 5.6227 15.9306C5.60158 15.9701 5.57004 16.003 5.53152 16.0259L5.25488 16.1849L5.77456 17.0809L6.04784 16.9297C6.08759 16.9072 6.1328 16.8961 6.17847 16.8977C6.22413 16.8992 6.26847 16.9134 6.30656 16.9387C6.35024 16.9667 6.39504 16.9935 6.44096 17.0171C6.48175 17.0372 6.51613 17.0683 6.54026 17.1069C6.56439 17.1454 6.57732 17.19 6.5776 17.2355V17.5535H7.61584V17.2355C7.61589 17.1901 7.6286 17.1456 7.65254 17.107C7.67648 17.0684 7.7107 17.0373 7.75136 17.0171C7.79767 16.9936 7.84255 16.9674 7.88576 16.9387C7.92386 16.9134 7.96819 16.8992 8.01386 16.8977C8.05952 16.8961 8.10473 16.9072 8.14448 16.9297L8.42112 17.0887L8.93968 16.1927L8.66304 16.0326C8.62457 16.0096 8.59301 15.9767 8.57172 15.9372C8.55043 15.8978 8.54019 15.8534 8.54208 15.8086C8.54208 15.7828 8.54208 15.7582 8.54208 15.7324C8.54208 15.7067 8.54208 15.6809 8.54208 15.6563C8.53915 15.6106 8.54889 15.5649 8.57023 15.5244C8.59158 15.4839 8.62369 15.4501 8.66304 15.4267L8.93968 15.2676L8.42112 14.3716L8.1456 14.5307C8.10593 14.5534 8.06068 14.5647 8.01496 14.5631C7.96925 14.5615 7.92488 14.5472 7.88688 14.5217C7.84358 14.4941 7.79878 14.4683 7.75248 14.4444C7.71092 14.4237 7.67604 14.3918 7.65187 14.3521C7.62769 14.3125 7.61521 14.2668 7.61584 14.2204V13.9023H6.57984V14.2204C6.58035 14.2668 6.56781 14.3124 6.54365 14.352C6.51949 14.3916 6.48468 14.4236 6.4432 14.4444C6.39692 14.4675 6.35204 14.4933 6.3088 14.5217C6.27058 14.5472 6.22604 14.5615 6.18015 14.563C6.13427 14.5646 6.08884 14.5534 6.04896 14.5307L5.77456 14.3716L5.25488 15.2676L5.5304 15.4188ZM7.0984 14.8734C7.2668 14.8732 7.43148 14.9229 7.57161 15.0163C7.71174 15.1097 7.82101 15.2425 7.88561 15.3981C7.9502 15.5536 7.96722 15.7248 7.9345 15.89C7.90179 16.0551 7.82081 16.2069 7.70181 16.3261C7.58281 16.4452 7.43114 16.5264 7.266 16.5593C7.10085 16.5923 6.92964 16.5755 6.77404 16.5111C6.61844 16.4467 6.48543 16.3376 6.39185 16.1976C6.29827 16.0576 6.24832 15.893 6.24832 15.7246C6.24862 15.4991 6.33824 15.283 6.49756 15.1234C6.65689 14.9639 6.87294 14.874 7.0984 14.8734Z" fill="#EBEBEB"/>
<path d="M14.7796 52.9729C19.2704 52.9729 22.9108 52.4519 22.9108 51.8092C22.9108 51.1665 19.2704 50.6455 14.7796 50.6455C10.2889 50.6455 6.64844 51.1665 6.64844 51.8092C6.64844 52.4519 10.2889 52.9729 14.7796 52.9729Z" fill="#EBEBEB"/>
<path d="M44.3698 39.3369C43.541 37.6334 42.0906 36.7609 40.4498 37.2414C38.809 37.7219 38.5615 40.0045 39.7778 40.5801C40.9941 41.1558 42.2183 39.4758 42.8634 39.1297C43.5085 38.7837 44.3698 39.3369 44.3698 39.3369Z" fill="#039AE4"/>
<path d="M45.1725 43.8733C45.1725 43.6683 45.1602 43.4622 45.1523 43.2573C45.1378 42.8473 45.1243 42.4374 45.1098 42.0253C45.0818 41.276 44.9978 40.539 44.6898 39.848C44.4153 39.2212 43.9568 38.6926 43.3749 38.3326C43.1592 38.202 42.9267 38.1014 42.6838 38.0336C42.4641 37.8087 42.1834 37.653 41.8763 37.5856C41.4979 37.5087 41.109 37.4989 40.7272 37.5565C40.7126 37.5565 40.7138 37.58 40.7272 37.5777C41.0916 37.5316 41.4616 37.5578 41.8158 37.655C41.9671 37.6975 42.1138 37.7549 42.2538 37.8264C42.3418 37.8737 42.4264 37.9272 42.5069 37.9865C42.177 37.9183 41.8363 37.9218 41.5078 37.9966C41.3896 38.0243 41.2738 38.0618 41.1618 38.1086C41.072 38.0892 40.9802 38.0813 40.8885 38.0851C40.7691 38.0895 40.6505 38.1064 40.5346 38.1355C40.298 38.2022 40.0719 38.3013 39.8626 38.4301C39.8502 38.4368 39.8626 38.4547 39.8738 38.448C40.08 38.3355 40.3009 38.2522 40.5301 38.2005C40.6407 38.1756 40.753 38.1592 40.8661 38.1512C40.9287 38.1478 40.9916 38.1478 41.0542 38.1512C40.5882 38.3663 40.2136 38.7398 39.997 39.2051C39.9914 39.2174 40.0104 39.2286 40.016 39.2152C40.1448 38.946 40.3325 38.7092 40.5651 38.5224C40.7977 38.3355 41.0694 38.2033 41.36 38.1355C41.3958 38.1265 41.4328 38.1221 41.472 38.1142C41.4597 38.1669 41.4619 38.2262 41.4552 38.2789C41.444 38.3617 41.4306 38.4446 41.4138 38.5264C41.3795 38.6954 41.335 38.8622 41.2805 39.0259C41.2251 39.191 41.1589 39.3523 41.0822 39.5086C41.0092 39.6749 40.9163 39.8317 40.8056 39.9757C40.8043 39.9768 40.8033 39.9782 40.8027 39.9798C40.802 39.9813 40.8017 39.983 40.8019 39.9847C40.802 39.9864 40.8024 39.9881 40.8033 39.9896C40.8041 39.991 40.8053 39.9923 40.8067 39.9933C40.8081 39.9942 40.8097 39.9949 40.8114 39.9951C40.813 39.9954 40.8148 39.9952 40.8164 39.9947C40.818 39.9942 40.8195 39.9933 40.8207 39.9922C40.822 39.991 40.8229 39.9896 40.8235 39.988C40.921 39.8345 41.0352 39.6923 41.1248 39.5333C41.2119 39.3807 41.2868 39.2216 41.3488 39.0573C41.4117 38.8915 41.4604 38.7206 41.4944 38.5465C41.5134 38.4547 41.5269 38.3617 41.5381 38.2688C41.5487 38.2131 41.5521 38.1562 41.5482 38.0997C41.7402 38.0708 41.9353 38.067 42.1283 38.0885C42.0566 38.495 41.9782 38.9184 41.7509 39.2712C41.743 39.2835 41.7632 39.2947 41.7699 39.2813C41.8764 39.0941 41.97 38.8999 42.0499 38.7C42.1253 38.5061 42.1728 38.3024 42.191 38.0952C42.5285 38.1404 42.8542 38.2495 43.1509 38.4166C43.7091 38.7418 44.1549 39.2293 44.4288 39.8144C44.7172 40.4449 44.8782 41.1262 44.9026 41.8192C44.9563 42.6894 44.9675 43.5664 45.0549 44.4344C45.0605 44.4915 45.1501 44.5105 45.1669 44.4456C45.186 44.2554 45.1879 44.0638 45.1725 43.8733Z" fill="#263238"/>
<path d="M43.2564 38.1974C43.2017 38.131 43.1385 38.0723 43.0682 38.0227C42.9999 37.9667 42.9305 37.9107 42.8577 37.8636C42.7142 37.7637 42.5553 37.6881 42.3873 37.6396C42.3738 37.6396 42.3682 37.6587 42.3873 37.6609C42.556 37.7028 42.7142 37.779 42.8521 37.8849C42.9215 37.9364 42.9876 37.9902 43.0525 38.0473C43.1101 38.1077 43.174 38.1617 43.243 38.2086C43.2497 38.2243 43.2654 38.2097 43.2564 38.1974Z" fill="#263238"/>
<path d="M40.6113 38.814C40.4742 38.9737 40.347 39.1416 40.2305 39.3169C40.1177 39.4935 40.0231 39.6812 39.9482 39.8769C39.9482 39.8825 39.955 39.8859 39.9583 39.8769C40.1493 39.5059 40.3742 39.1535 40.6303 38.8241C40.6359 38.8185 40.6202 38.8039 40.6113 38.814Z" fill="#263238"/>
<path d="M42.3944 38.6466C42.377 38.7529 42.3458 38.8565 42.3015 38.9546C42.2556 39.0495 42.2029 39.1408 42.1436 39.2279C42.1436 39.2335 42.1436 39.2391 42.1525 39.2346C42.2959 39.0703 42.3875 38.8673 42.4157 38.6511C42.418 38.6399 42.3967 38.6321 42.3944 38.6466Z" fill="#263238"/>
<path d="M45.0576 39.3797C45.0576 39.3797 46.2314 37.9036 48.496 38.4266C50.6498 38.9239 51.6432 42.873 49.4682 43.3445C47.2931 43.816 47.6762 40.1637 46.8821 39.5432C46.3008 39.0874 45.4642 39.186 45.0576 39.3797Z" fill="#039AE4"/>
<path d="M50.2465 40.5842C50.0988 40.4547 49.9428 40.335 49.7795 40.2258C49.6257 40.1209 49.4584 40.0372 49.2822 39.9771C49.1936 39.8431 49.0947 39.7162 48.9865 39.5975C48.7865 39.383 48.5559 39.1992 48.3022 39.052H48.3694C48.4892 39.0459 48.6092 39.0459 48.7289 39.052C48.9708 39.0673 49.2079 39.1261 49.4289 39.2256C49.4412 39.2256 49.4502 39.2111 49.4379 39.2066C49.2141 39.1098 48.98 39.0392 48.7401 38.996C48.6233 38.9754 48.5048 38.9652 48.3862 38.9658C48.3226 38.9661 48.259 38.9699 48.1958 38.977H48.1588C47.9511 38.8724 47.732 38.792 47.5059 38.7373L47.5697 38.7194C47.6807 38.6954 47.7929 38.6771 47.9057 38.6645C48.1315 38.6387 48.3596 38.6421 48.5844 38.6746C48.5867 38.6738 48.5886 38.6724 48.59 38.6705C48.5914 38.6686 48.5921 38.6663 48.5921 38.6639C48.5921 38.6616 48.5914 38.6593 48.59 38.6574C48.5886 38.6555 48.5867 38.654 48.5844 38.6533C48.357 38.6264 48.1278 38.6174 47.899 38.6264C47.707 38.6317 47.516 38.6565 47.3289 38.7003C47.1928 38.6751 47.0551 38.6594 46.9168 38.6533C46.126 38.6197 45.2648 38.9143 44.7787 39.5639C44.2926 40.2135 44.1974 41.0803 44.1067 41.8643C43.9739 42.9571 43.945 44.06 44.0204 45.1583C44.0204 45.2221 44.1168 45.2109 44.1179 45.1493C44.1481 44.2186 44.1806 43.2867 44.2702 42.3594C44.3116 41.9293 44.3564 41.4981 44.4281 41.0725C44.4806 40.7061 44.5858 40.3492 44.7406 40.013C44.9087 39.6694 45.1749 39.3833 45.5056 39.1909C45.8371 38.9998 46.2071 38.8851 46.5886 38.8549C46.9302 38.8262 47.2741 38.8585 47.6044 38.9501C47.5926 39.0163 47.5907 39.0838 47.5988 39.1506C47.6067 39.2347 47.6236 39.3177 47.6492 39.3981C47.6733 39.4756 47.7048 39.5506 47.7433 39.6221C47.7859 39.6994 47.8385 39.7688 47.8856 39.8461C47.8923 39.8573 47.9113 39.8461 47.9024 39.8338C47.8094 39.7003 47.7491 39.5469 47.7265 39.3858C47.7131 39.3095 47.7041 39.2324 47.6996 39.1551C47.6996 39.0968 47.6996 39.0375 47.6996 38.9792C48.059 39.0899 48.3944 39.2669 48.6886 39.5011C48.7435 39.5459 48.8006 39.5919 48.8488 39.64C48.7741 39.7097 48.7093 39.7892 48.6561 39.8763C48.5786 39.9897 48.5111 40.1096 48.4545 40.2347C48.3506 40.4857 48.2802 40.7493 48.2451 41.0187C48.2451 41.0322 48.2652 41.0367 48.2664 41.0187C48.3086 40.757 48.3962 40.5045 48.5251 40.2728C48.5846 40.1566 48.6516 40.0444 48.7256 39.9368C48.7636 39.8831 48.8028 39.8248 48.8443 39.7767C48.8667 39.7487 48.8913 39.7195 48.9115 39.6893C49.178 39.9502 49.3957 40.2567 49.5544 40.5943C49.4462 40.7121 49.3573 40.8463 49.2912 40.9919C49.21 41.136 49.1393 41.2857 49.0795 41.4399C48.97 41.7415 48.8795 42.0498 48.8084 42.3627C48.8084 42.3762 48.8275 42.3807 48.8297 42.3627C48.899 42.0472 49.007 41.7413 49.1512 41.4522C49.2195 41.3111 49.2912 41.1711 49.3662 41.0333C49.4444 40.9051 49.5154 40.7728 49.579 40.6368C49.7298 40.9675 49.8175 41.3234 49.8377 41.6863C49.8377 41.6997 49.8601 41.6986 49.859 41.6863C49.8173 41.1171 49.6432 40.5656 49.3505 40.0757C49.4894 40.1351 49.6283 40.1877 49.7616 40.2639C49.9319 40.3556 50.0899 40.4685 50.232 40.5999C50.242 40.6099 50.2566 40.5931 50.2465 40.5842Z" fill="#263238"/>
<path d="M48.584 40.6671C48.5168 40.8911 48.4305 41.1084 48.3689 41.3391C48.3079 41.5542 48.2751 41.7763 48.2715 41.9999C48.2715 42.0066 48.2816 42.0066 48.2827 41.9999C48.3441 41.5477 48.453 41.1032 48.6075 40.6738C48.6079 40.6722 48.6081 40.6706 48.6079 40.669C48.6077 40.6674 48.6072 40.6659 48.6064 40.6645C48.6056 40.6631 48.6046 40.6619 48.6033 40.6609C48.6021 40.6599 48.6006 40.6591 48.5991 40.6587C48.5975 40.6582 48.5959 40.6581 48.5943 40.6583C48.5927 40.6585 48.5912 40.659 48.5898 40.6597C48.5884 40.6605 48.5871 40.6616 48.5861 40.6628C48.5851 40.6641 48.5844 40.6655 48.584 40.6671Z" fill="#263238"/>
<path d="M50.0205 40.1125C49.9315 40.0268 49.8304 39.9547 49.7203 39.8986C49.6084 39.8476 49.4922 39.8063 49.3731 39.7754C49.3597 39.7754 49.3552 39.7933 49.3731 39.7967C49.491 39.8267 49.6041 39.8731 49.7091 39.9344C49.8163 39.99 49.9192 40.0533 50.0171 40.1237C50.0183 40.1234 50.0194 40.1229 50.0202 40.1221C50.0211 40.1213 50.0218 40.1202 50.0221 40.1191C50.0224 40.1179 50.0225 40.1167 50.0222 40.1156C50.0219 40.1144 50.0213 40.1134 50.0205 40.1125Z" fill="#263238"/>
<path d="M46.1729 37.4079C46.1729 37.4079 46.389 34.758 48.3591 33.899C50.0044 33.1822 50.9463 35.0302 49.7837 36.1625C48.8429 37.0786 47.3343 36.6653 46.1729 37.4079Z" fill="#039AE4"/>
<path d="M49.4195 34.413C49.1194 34.5344 48.8266 34.6732 48.5426 34.8285C48.3069 34.9637 48.0798 35.1133 47.8627 35.2765C47.8952 35.2093 47.9232 35.1399 47.9568 35.0738C48.0083 34.9719 48.0632 34.8711 48.1237 34.7748C48.2448 34.5739 48.3908 34.3892 48.5582 34.2249C48.5683 34.2159 48.5515 34.2002 48.5426 34.2103C48.3757 34.3746 48.2229 34.5526 48.0856 34.7423C48.0178 34.8384 47.9553 34.9383 47.8986 35.0413C47.8405 35.1367 47.7956 35.2396 47.7653 35.3471L47.744 35.3628C47.3999 35.6369 47.0847 35.9453 46.8032 36.2834C46.8088 36.2577 46.8133 36.2319 46.8211 36.2073C46.8581 36.0785 46.8973 35.9497 46.9398 35.822C47.0251 35.5502 47.1448 35.2905 47.296 35.0492C47.3038 35.038 47.2848 35.0268 47.277 35.0391C47.1224 35.2805 46.9847 35.5324 46.8648 35.7929C46.8098 35.92 46.7641 36.051 46.7282 36.1849C46.6997 36.2718 46.6783 36.361 46.6643 36.4514C46.5781 36.5634 46.4941 36.6698 46.4146 36.7874C45.569 37.9914 45.1445 39.4474 45.0426 40.9057C45.0127 41.3399 45.0052 41.7754 45.0202 42.2105C45.0221 42.6496 45.0596 43.0878 45.1322 43.5209C45.1378 43.5489 45.1803 43.5399 45.1803 43.513C45.1702 43.13 45.131 42.7492 45.1232 42.3661C45.1159 41.982 45.1283 41.5977 45.1602 41.2148C45.222 40.45 45.3662 39.6941 45.5902 38.9602C45.819 38.2082 46.1564 37.4936 46.5915 36.8389C46.6744 36.8221 46.7573 36.7997 46.839 36.7785C46.9208 36.7572 47.0362 36.7281 47.1336 36.7012C47.3228 36.6523 47.5066 36.5848 47.6824 36.4996C47.6836 36.4988 47.6846 36.4979 47.6854 36.4967C47.6862 36.4956 47.6868 36.4943 47.6871 36.493C47.6874 36.4916 47.6875 36.4902 47.6872 36.4889C47.687 36.4875 47.6865 36.4862 47.6858 36.485C47.685 36.4838 47.6841 36.4828 47.6829 36.482C47.6818 36.4812 47.6805 36.4806 47.6792 36.4803C47.6778 36.48 47.6764 36.48 47.6751 36.4802C47.6737 36.4804 47.6724 36.4809 47.6712 36.4817C47.4966 36.5764 47.3073 36.6411 47.1112 36.6732C46.9566 36.7045 46.7965 36.7236 46.6419 36.7594C46.7853 36.5511 46.9376 36.3495 47.1 36.1569C47.4754 36.1909 47.8537 36.1629 48.22 36.074C48.4149 36.0268 48.6064 35.9669 48.7934 35.8948C48.9917 35.8186 49.1776 35.7212 49.3725 35.6394C49.375 35.6382 49.377 35.6361 49.3779 35.6335C49.3788 35.6308 49.3787 35.6279 49.3775 35.6254C49.3763 35.6229 49.3742 35.6209 49.3716 35.62C49.3689 35.619 49.366 35.6192 49.3635 35.6204C49.0108 35.8126 48.6259 35.9386 48.2278 35.9922C47.8763 36.0487 47.521 36.0779 47.165 36.0796C47.305 35.9194 47.4494 35.7626 47.604 35.6159C48.1214 35.1231 48.7363 34.6706 49.4173 34.4343C49.4386 34.4298 49.4318 34.4085 49.4195 34.413Z" fill="#263238"/>
<path d="M47.8159 34.4221C47.7268 34.5336 47.6459 34.6515 47.574 34.7749C47.5006 34.9048 47.4423 35.0427 47.4004 35.1859C47.4004 35.1859 47.4004 35.1937 47.4082 35.1859C47.4743 35.056 47.5292 34.9205 47.5964 34.7917C47.6614 34.6639 47.7403 34.5438 47.8316 34.4333C47.8406 34.4254 47.8237 34.4109 47.8159 34.4221Z" fill="#263238"/>
<path d="M49.6481 35.3032C49.5201 35.3744 49.3844 35.4312 49.2438 35.4723C49.109 35.5173 48.9718 35.5547 48.8328 35.5843C48.826 35.5843 48.8272 35.5966 48.8328 35.5955C48.978 35.5803 49.1211 35.5491 49.2595 35.5025C49.3958 35.4506 49.5289 35.3908 49.6582 35.3233C49.6716 35.3155 49.6604 35.2964 49.6481 35.3032Z" fill="#263238"/>
<path d="M44.6404 36.9327C44.6281 37.0447 44.3425 35.9695 42.6759 35.0142C41.1639 34.1462 39.3574 31.8882 40.8414 30.4614C42.0386 29.31 45.1937 31.8199 44.6404 36.9327Z" fill="#039AE4"/>
<path d="M45.7877 43.1048C45.7633 41.9856 45.6751 40.8686 45.5234 39.7594C45.3917 38.7385 45.1556 37.7339 44.8189 36.7612C44.6957 36.4106 44.5535 36.0668 44.4 35.7274C44.4085 35.5953 44.4062 35.4627 44.3933 35.3309C44.3855 35.1607 44.3698 34.9949 44.3541 34.8224C44.3384 34.65 44.3216 34.4864 44.3015 34.3151C44.2813 34.1437 44.2455 33.9791 44.2388 33.81C44.2393 33.8083 44.2395 33.8065 44.2392 33.8047C44.2389 33.803 44.2382 33.8013 44.2372 33.7999C44.2362 33.7985 44.2348 33.7973 44.2332 33.7965C44.2316 33.7957 44.2299 33.7953 44.2281 33.7953C44.2264 33.7953 44.2246 33.7957 44.223 33.7965C44.2215 33.7973 44.2201 33.7985 44.219 33.7999C44.218 33.8013 44.2173 33.803 44.2171 33.8047C44.2168 33.8065 44.2169 33.8083 44.2175 33.81C44.2507 33.987 44.2705 34.1664 44.2768 34.3464C44.2903 34.51 44.2992 34.6735 44.3037 34.837C44.3093 35.0016 44.3037 35.1652 44.3037 35.3298C44.3037 35.388 44.3037 35.4508 44.2981 35.5146C44.1424 35.1786 43.9744 34.8572 43.7919 34.5402C43.9039 33.8492 43.7583 33.1268 43.6172 32.4514C43.6172 32.438 43.5936 32.4447 43.597 32.4581C43.6668 32.8109 43.7043 33.1693 43.709 33.5288C43.7157 33.8122 43.7023 34.0956 43.7012 34.3789C43.6608 34.3117 43.6216 34.2434 43.5802 34.1762C43.364 33.8234 43.1322 33.4773 42.888 33.1424C42.9081 32.9787 42.9028 32.8129 42.8724 32.6508C42.845 32.4685 42.8045 32.2885 42.7514 32.112C42.6976 31.9362 42.6394 31.7626 42.5666 31.5924C42.4938 31.4221 42.3986 31.2508 42.3292 31.076C42.3224 31.0604 42.3012 31.076 42.309 31.0839C42.398 31.2498 42.4679 31.4253 42.5173 31.6069C42.5729 31.777 42.6186 31.9501 42.654 32.1255C42.6898 32.3002 42.7178 32.476 42.7424 32.6541C42.7592 32.7661 42.7693 32.8927 42.7895 33.0103C42.4329 32.5312 42.0433 32.0777 41.6236 31.6528C41.6135 31.6428 41.5989 31.6584 41.6079 31.6685C42.2432 32.3825 42.8105 33.1542 43.3024 33.9735L43.3551 34.0653C43.2632 34.0082 43.158 33.9623 43.0717 33.9141L42.5868 33.6476L42.1141 33.39C42.0335 33.3452 41.954 33.2981 41.8711 33.2556C41.7728 33.2117 41.6784 33.1596 41.5888 33.0999C41.5866 33.0983 41.5838 33.0976 41.5811 33.098C41.5784 33.0984 41.5759 33.0999 41.5743 33.1021C41.5726 33.1044 41.572 33.1071 41.5724 33.1099C41.5728 33.1126 41.5743 33.1151 41.5765 33.1167C41.7367 33.2052 41.8789 33.3407 42.0335 33.4348C42.188 33.5288 42.3471 33.6296 42.5095 33.7204C42.8052 33.885 43.1266 34.0037 43.4189 34.1751C43.6205 34.529 43.8072 34.8915 43.9789 35.2626C43.802 35.1506 43.6216 35.0386 43.438 34.9378C43.3204 34.8717 43.2016 34.8068 43.0818 34.744C42.9627 34.6889 42.8501 34.6209 42.7458 34.5413C42.7436 34.5403 42.7412 34.54 42.7389 34.5404C42.7365 34.5409 42.7344 34.542 42.7327 34.5438C42.7311 34.5455 42.7301 34.5478 42.7298 34.5502C42.7296 34.5525 42.73 34.5549 42.7312 34.557C42.9253 34.7325 43.1405 34.883 43.3719 35.005C43.5858 35.1304 43.802 35.2514 44.0248 35.36C44.2025 35.7513 44.3631 36.1489 44.5064 36.5528C45.2076 38.5386 45.4652 40.6464 45.5884 42.7397C45.6253 43.3636 45.6444 43.9874 45.6522 44.6124C45.66 45.2373 45.6264 45.86 45.6276 46.4839C45.6276 46.5018 45.6578 46.5063 45.6612 46.4839C45.7362 45.9306 45.7485 45.3639 45.7732 44.8106C45.7978 44.2573 45.8 43.6727 45.7877 43.1048Z" fill="#263238"/>
<path d="M42.7606 34.1162C42.4565 33.9823 42.161 33.8296 41.8758 33.6592C41.5864 33.4957 41.3057 33.3174 41.0347 33.125C41.0347 33.125 41.0257 33.125 41.0291 33.1328C41.2852 33.3377 41.555 33.5248 41.8366 33.6928C42.1318 33.8576 42.4371 34.0039 42.7505 34.1308C42.764 34.1408 42.774 34.1218 42.7606 34.1162Z" fill="#263238"/>
<path d="M43.2428 31.8712C43.2181 31.7749 43.1879 31.6797 43.1554 31.5856C43.1564 31.5839 43.1569 31.582 43.1569 31.58C43.1569 31.578 43.1564 31.5761 43.1554 31.5744C43.1341 31.5207 43.1117 31.4624 43.0904 31.4143L43.0826 31.3941C43.0826 31.384 43.0736 31.3739 43.0703 31.3639C43.0669 31.3538 43.0636 31.3639 43.0647 31.3639C43.0658 31.3639 43.0748 31.4008 43.0804 31.4187C43.0828 31.429 43.0858 31.4391 43.0893 31.449C43.1997 31.8194 43.2824 32.1975 43.3368 32.5802C43.3368 32.5925 43.357 32.5925 43.3559 32.5802C43.3404 32.3408 43.3026 32.1035 43.2428 31.8712Z" fill="#263238"/>
<path d="M47.5487 43.5078L47.43 44.9168L47.066 49.2142H43.1673L42.8033 44.9168L42.6846 43.5078H47.5487Z" fill="#37474F"/>
<path d="M47.5487 43.5078L47.43 44.9168H42.8033L42.6846 43.5078H47.5487Z" fill="#263238"/>
<path d="M47.9299 42.9424H42.3008V44.2942H47.9299V42.9424Z" fill="#37474F"/>
<path d="M5.31348 49.2152L10.9852 49.1883L16.6568 49.1782L28.0002 49.1592L39.3436 49.1771L45.0152 49.1872L50.6869 49.2152L45.0152 49.2421L39.3436 49.2521L28.0002 49.2712L16.6568 49.2521L10.9852 49.2421L5.31348 49.2152Z" fill="#263238"/>
<path d="M37.4651 6.33594H18.5371C18.2827 6.33755 18.0311 6.38937 17.7967 6.48843C17.5623 6.58749 17.3498 6.73184 17.1714 6.91321C16.9929 7.09457 16.852 7.30938 16.7568 7.54532C16.6615 7.78125 16.6138 8.03367 16.6163 8.2881V47.2641C16.6118 47.7769 16.8112 48.2705 17.1705 48.6364C17.5299 49.0022 18.0198 49.2104 18.5326 49.2151H37.4606C37.715 49.2134 37.9666 49.1615 38.2009 49.0625C38.4353 48.9635 38.6478 48.8193 38.8264 48.6381C39.005 48.4569 39.1461 48.2423 39.2417 48.0065C39.3374 47.7708 39.3856 47.5185 39.3837 47.2641V8.2881C39.3859 8.03394 39.338 7.78183 39.2428 7.54618C39.1476 7.31052 39.0069 7.09593 38.8287 6.91465C38.6506 6.73337 38.4384 6.58896 38.2045 6.48967C37.9705 6.39037 37.7193 6.33813 37.4651 6.33594ZM38.1853 46.059C38.1853 47.0849 37.4169 47.9148 36.4694 47.9148H19.5317C18.5819 47.9148 17.8136 47.0849 17.8136 46.059V9.76426C17.8136 7.67434 18.5819 7.57242 19.5317 7.57242H22.9241C23.1213 7.57242 23.2825 7.79642 23.2825 8.07418V8.19402C23.2825 8.8481 23.6387 8.8481 24.08 8.8481H31.92C32.3601 8.8481 32.7141 8.8481 32.7141 8.19514V8.07418C32.7141 7.79642 32.872 7.57242 33.0725 7.57242H36.4661C37.4136 7.57242 38.1819 7.85018 38.1819 9.76426L38.1853 46.059Z" fill="#263238"/>
<path d="M29.0694 8.03385H26.929C26.9117 8.03385 26.8945 8.03043 26.8785 8.02379C26.8624 8.01715 26.8479 8.00741 26.8356 7.99514C26.8233 7.98287 26.8136 7.9683 26.8069 7.95227C26.8003 7.93623 26.7969 7.91905 26.7969 7.90169C26.7969 7.86664 26.8108 7.83302 26.8356 7.80824C26.8604 7.78345 26.894 7.76953 26.929 7.76953H29.0694C29.1044 7.76953 29.138 7.78345 29.1628 7.80824C29.1876 7.83302 29.2015 7.86664 29.2015 7.90169C29.2015 7.91905 29.1981 7.93623 29.1915 7.95227C29.1848 7.9683 29.1751 7.98287 29.1628 7.99514C29.1505 8.00741 29.136 8.01715 29.1199 8.02379C29.1039 8.03043 29.0867 8.03385 29.0694 8.03385Z" fill="white"/>
<path d="M38.1919 9.76411V46.0588C38.1919 47.0847 37.4236 47.9147 36.476 47.9147H19.5316C18.5818 47.9147 17.8135 47.0847 17.8135 46.0588V9.76411C17.8135 7.67419 18.5818 7.57227 19.5316 7.57227H22.924C23.1212 7.57227 23.2824 7.79627 23.2824 8.07403V8.19387C23.2824 8.84795 23.6386 8.84795 24.0799 8.84795H31.9199C32.3612 8.84795 32.714 8.84795 32.714 8.19499V8.07403C32.714 7.79627 32.873 7.57227 33.0735 7.57227H36.4671C37.418 7.57227 38.1919 7.85003 38.1919 9.76411Z" fill="white"/>
<path d="M19.875 11.1493L19.2725 10.586L19.875 10.0215L19.968 10.1212L19.4729 10.586L19.968 11.0508L19.875 11.1493Z" fill="#C7C7C7"/>
<path d="M36.6085 10.2349C36.6085 10.2584 36.6016 10.2814 36.5885 10.3009C36.5755 10.3204 36.5569 10.3356 36.5352 10.3446C36.5136 10.3536 36.4897 10.356 36.4667 10.3514C36.4436 10.3468 36.4225 10.3355 36.4059 10.3189C36.3893 10.3023 36.378 10.2811 36.3734 10.2581C36.3688 10.2351 36.3711 10.2112 36.3801 10.1895C36.3891 10.1678 36.4043 10.1493 36.4239 10.1362C36.4434 10.1232 36.4663 10.1162 36.4898 10.1162C36.5054 10.1161 36.521 10.119 36.5354 10.1249C36.5499 10.1309 36.563 10.1396 36.5741 10.1507C36.5851 10.1617 36.5939 10.1749 36.5998 10.1893C36.6057 10.2038 36.6087 10.2193 36.6085 10.2349Z" fill="#C7C7C7"/>
<path d="M36.6085 10.6558C36.6085 10.6793 36.6016 10.7023 36.5885 10.7218C36.5755 10.7413 36.5569 10.7565 36.5352 10.7655C36.5136 10.7745 36.4897 10.7769 36.4667 10.7723C36.4436 10.7677 36.4225 10.7564 36.4059 10.7398C36.3893 10.7232 36.378 10.702 36.3734 10.679C36.3688 10.656 36.3711 10.6321 36.3801 10.6104C36.3891 10.5887 36.4043 10.5702 36.4239 10.5571C36.4434 10.5441 36.4663 10.5371 36.4898 10.5371C36.5054 10.537 36.521 10.5399 36.5354 10.5458C36.5499 10.5518 36.563 10.5605 36.5741 10.5716C36.5851 10.5826 36.5939 10.5958 36.5998 10.6102C36.6057 10.6247 36.6087 10.6402 36.6085 10.6558Z" fill="#C7C7C7"/>
<path d="M36.6085 11.0767C36.6085 11.1002 36.6016 11.1232 36.5885 11.1427C36.5755 11.1622 36.5569 11.1774 36.5352 11.1864C36.5136 11.1954 36.4897 11.1978 36.4667 11.1932C36.4436 11.1886 36.4225 11.1773 36.4059 11.1607C36.3893 11.1441 36.378 11.1229 36.3734 11.0999C36.3688 11.0769 36.3711 11.053 36.3801 11.0313C36.3891 11.0096 36.4043 10.9911 36.4239 10.978C36.4434 10.965 36.4663 10.958 36.4898 10.958C36.5054 10.9579 36.521 10.9608 36.5354 10.9667C36.5499 10.9727 36.563 10.9814 36.5741 10.9925C36.5851 11.0035 36.5939 11.0167 36.5998 11.0311C36.6057 11.0456 36.6087 11.0611 36.6085 11.0767Z" fill="#C7C7C7"/>
<path d="M22.3381 8.38738L22.3056 8.41986L22.2866 8.43778C22.2026 8.35434 22.0891 8.30751 21.9707 8.30751C21.8524 8.30751 21.7388 8.35434 21.6549 8.43778L21.637 8.41874L21.6045 8.38626L21.6459 8.3493C21.676 8.32603 21.7082 8.30577 21.7423 8.28882C21.7825 8.2685 21.8255 8.25417 21.8699 8.24626C21.8907 8.2421 21.9116 8.23911 21.9327 8.2373H21.9887H22.0312C22.0714 8.24211 22.1108 8.25151 22.1488 8.2653C22.1759 8.27556 22.2021 8.28791 22.2272 8.30226C22.2538 8.31748 22.2789 8.3351 22.3023 8.3549L22.337 8.38626L22.3381 8.38738Z" fill="#C7C7C7"/>
<path d="M21.7587 8.54129L21.7061 8.48977C21.7763 8.42001 21.8713 8.38086 21.9704 8.38086C22.0694 8.38086 22.1644 8.42001 22.2347 8.48977L22.1821 8.54129C22.1258 8.48534 22.0497 8.45394 21.9704 8.45394C21.891 8.45394 21.8149 8.48534 21.7587 8.54129Z" fill="#C7C7C7"/>
<path d="M22.1308 8.59337L22.0792 8.64377C22.0644 8.62928 22.0469 8.61786 22.0277 8.61017C22.0085 8.60248 21.9879 8.59867 21.9672 8.59897C21.9464 8.59856 21.9257 8.60243 21.9065 8.61033C21.8872 8.61822 21.8698 8.62999 21.8552 8.64489C21.8384 8.62697 21.8205 8.61017 21.8037 8.59337C21.8247 8.57099 21.85 8.55315 21.8781 8.54095C21.9062 8.52875 21.9366 8.52246 21.9672 8.52246C21.9979 8.52246 22.0282 8.52875 22.0563 8.54095C22.0845 8.55315 22.1098 8.57099 22.1308 8.59337Z" fill="#C7C7C7"/>
<path d="M22.0178 8.69046C22.0178 8.70294 22.0128 8.71491 22.004 8.72373C21.9952 8.73255 21.9832 8.7375 21.9707 8.7375C21.9646 8.73751 21.9585 8.73628 21.9529 8.73391C21.9473 8.73153 21.9421 8.72804 21.9379 8.72366C21.9336 8.71928 21.9302 8.71408 21.928 8.70838C21.9257 8.70268 21.9247 8.69659 21.9248 8.69046C21.9248 8.67829 21.9297 8.66661 21.9383 8.65799C21.9469 8.64938 21.9586 8.64454 21.9707 8.64454C21.9769 8.6444 21.983 8.64547 21.9887 8.64771C21.9944 8.64995 21.9996 8.65331 22.0039 8.65759C22.0083 8.66187 22.0118 8.66698 22.0142 8.67263C22.0166 8.67828 22.0178 8.68434 22.0178 8.69046Z" fill="#C7C7C7"/>
<path d="M19.1416 8.4861C19.1416 8.45925 19.1496 8.43301 19.1645 8.4107C19.1795 8.38839 19.2007 8.37102 19.2255 8.36079C19.2504 8.35057 19.2777 8.34795 19.304 8.35327C19.3303 8.35859 19.3544 8.37161 19.3733 8.39068C19.3923 8.40974 19.4051 8.43399 19.4102 8.46036C19.4153 8.48672 19.4124 8.514 19.402 8.53874C19.3916 8.56349 19.374 8.58457 19.3516 8.59933C19.3292 8.61408 19.3029 8.62184 19.276 8.62162C19.2583 8.62162 19.2407 8.61811 19.2243 8.61129C19.2079 8.60446 19.1931 8.59446 19.1806 8.58186C19.1681 8.56926 19.1582 8.55431 19.1515 8.53788C19.1448 8.52144 19.1415 8.50384 19.1416 8.4861Z" fill="#C7C7C7"/>
<path d="M19.5664 8.4868C19.5669 8.46009 19.5752 8.43411 19.5903 8.41212C19.6055 8.39014 19.6268 8.37311 19.6516 8.3632C19.6764 8.35329 19.7036 8.35092 19.7297 8.3564C19.7559 8.36188 19.7798 8.37496 19.7985 8.394C19.8173 8.41304 19.83 8.43719 19.835 8.46341C19.8401 8.48964 19.8372 8.51677 19.8269 8.5414C19.8166 8.56603 19.7992 8.58707 19.777 8.60186C19.7548 8.61666 19.7287 8.62455 19.7019 8.62456C19.684 8.62456 19.6662 8.62098 19.6496 8.61403C19.633 8.60708 19.6179 8.5969 19.6053 8.58407C19.5927 8.57125 19.5828 8.55605 19.5761 8.53935C19.5694 8.52264 19.5661 8.50478 19.5664 8.4868Z" fill="#C7C7C7"/>
<path d="M19.9922 8.4868C19.9926 8.46009 20.001 8.43411 20.0161 8.41212C20.0313 8.39014 20.0526 8.37311 20.0774 8.3632C20.1022 8.35329 20.1294 8.35092 20.1555 8.3564C20.1817 8.36188 20.2056 8.37496 20.2243 8.394C20.243 8.41304 20.2557 8.43719 20.2608 8.46341C20.2658 8.48964 20.263 8.51677 20.2527 8.5414C20.2424 8.56603 20.225 8.58707 20.2028 8.60186C20.1805 8.61666 20.1544 8.62455 20.1277 8.62456C20.1097 8.62456 20.0919 8.62098 20.0753 8.61403C20.0588 8.60708 20.0437 8.5969 20.0311 8.58407C20.0185 8.57125 20.0085 8.55605 20.0019 8.53935C19.9952 8.52264 19.9919 8.50478 19.9922 8.4868Z" fill="#C7C7C7"/>
<path d="M20.418 8.48679C20.4185 8.46004 20.4268 8.43402 20.442 8.41201C20.4572 8.38999 20.4786 8.37298 20.5035 8.3631C20.5283 8.35322 20.5556 8.35092 20.5817 8.35649C20.6079 8.36206 20.6318 8.37525 20.6505 8.3944C20.6692 8.41355 20.6818 8.4378 20.6867 8.4641C20.6916 8.4904 20.6887 8.51756 20.6782 8.54218C20.6677 8.56679 20.6501 8.58774 20.6278 8.6024C20.6054 8.61706 20.5792 8.62477 20.5524 8.62455C20.5345 8.62456 20.5167 8.62097 20.5002 8.61401C20.4837 8.60705 20.4687 8.59684 20.4562 8.58401C20.4436 8.57117 20.4338 8.55595 20.4273 8.53926C20.4207 8.52256 20.4176 8.50472 20.418 8.48679Z" fill="#C7C7C7"/>
<path d="M20.8428 8.48679C20.8433 8.46004 20.8516 8.43402 20.8668 8.41201C20.882 8.38999 20.9034 8.37298 20.9283 8.3631C20.9531 8.35322 20.9804 8.35092 21.0065 8.35649C21.0327 8.36206 21.0566 8.37525 21.0753 8.3944C21.094 8.41355 21.1066 8.4378 21.1115 8.4641C21.1164 8.4904 21.1135 8.51756 21.103 8.54218C21.0925 8.56679 21.075 8.58774 21.0526 8.6024C21.0302 8.61706 21.004 8.62477 20.9772 8.62455C20.9593 8.62456 20.9415 8.62097 20.925 8.61401C20.9085 8.60705 20.8935 8.59684 20.881 8.58401C20.8684 8.57117 20.8586 8.55595 20.8521 8.53926C20.8455 8.52256 20.8424 8.50472 20.8428 8.48679Z" fill="#C7C7C7"/>
<path d="M36.6586 8.7822H35.5576V8.27148H36.6586V8.7822ZM35.6159 8.72508H36.6015V8.3286H35.6159V8.72508Z" fill="#C7C7C7"/>
<path d="M36.3584 8.3584H35.6494V8.6944H36.3584V8.3584Z" fill="#C7C7C7"/>
<path d="M36.7566 8.38965H36.6592V8.66181H36.7566V8.38965Z" fill="#C7C7C7"/>
<path d="M20.9089 45.6963H20.7533V46.4075H20.4643V46.0446H19.9513V46.4075H19.6624V45.6963H19.5078L20.2078 44.9717L20.9089 45.6963Z" fill="#EBEBEB"/>
<path d="M36.4927 44.9717H34.8037V45.2125H36.4927V44.9717Z" fill="#EBEBEB"/>
<path d="M36.4927 45.5684H34.8037V45.8092H36.4927V45.5684Z" fill="#EBEBEB"/>
<path d="M36.4927 46.165H34.8037V46.4058H36.4927V46.165Z" fill="#EBEBEB"/>
<path d="M28.4805 45.593L28 46.106L27.5195 45.593L27.6047 45.5146L28 45.9358L28.3954 45.5146L28.4805 45.593Z" fill="#EBEBEB"/>
<path d="M28.0004 46.6356C27.8279 46.6356 27.6592 46.5844 27.5157 46.4885C27.3722 46.3927 27.2604 46.2564 27.1943 46.097C27.1283 45.9376 27.111 45.7621 27.1447 45.5929C27.1784 45.4236 27.2615 45.2682 27.3835 45.1462C27.5055 45.0242 27.661 44.9411 27.8302 44.9074C27.9994 44.8737 28.1749 44.891 28.3343 44.957C28.4937 45.0231 28.63 45.1349 28.7259 45.2784C28.8217 45.4219 28.8729 45.5905 28.8729 45.7631C28.8723 45.9943 28.7802 46.2159 28.6167 46.3794C28.4532 46.5429 28.2316 46.635 28.0004 46.6356ZM28.0004 45.006C27.8507 45.006 27.7043 45.0504 27.5798 45.1336C27.4553 45.2168 27.3582 45.335 27.3009 45.4734C27.2436 45.6117 27.2286 45.7639 27.2578 45.9108C27.2871 46.0577 27.3592 46.1926 27.465 46.2985C27.5709 46.4044 27.7058 46.4765 27.8527 46.5057C27.9996 46.5349 28.1518 46.5199 28.2901 46.4626C28.4285 46.4053 28.5467 46.3082 28.6299 46.1837C28.7131 46.0592 28.7575 45.9128 28.7575 45.7631C28.7575 45.5623 28.6778 45.3697 28.5358 45.2277C28.3938 45.0858 28.2012 45.006 28.0004 45.006Z" fill="#EBEBEB"/>
<path d="M26.6976 42.6281C26.6976 42.6857 26.6806 42.742 26.6486 42.7899C26.6166 42.8378 26.5711 42.8751 26.5179 42.8971C26.4647 42.9192 26.4061 42.925 26.3496 42.9137C26.2931 42.9025 26.2412 42.8748 26.2005 42.834C26.1598 42.7933 26.1321 42.7414 26.1208 42.6849C26.1096 42.6284 26.1154 42.5699 26.1374 42.5167C26.1594 42.4635 26.1968 42.418 26.2447 42.386C26.2925 42.354 26.3488 42.3369 26.4064 42.3369C26.4447 42.3368 26.4827 42.3442 26.518 42.3588C26.5534 42.3734 26.5856 42.3948 26.6127 42.4219C26.6397 42.4489 26.6612 42.4811 26.6758 42.5165C26.6904 42.5519 26.6978 42.5898 26.6976 42.6281Z" fill="#DBDBDB"/>
<path d="M28.4724 42.6288C28.4724 42.7161 28.4465 42.8014 28.398 42.8739C28.3495 42.9465 28.2806 43.0031 28.2 43.0365C28.1194 43.0699 28.0306 43.0786 27.945 43.0616C27.8594 43.0446 27.7808 43.0025 27.7191 42.9408C27.6574 42.8791 27.6154 42.8005 27.5983 42.7149C27.5813 42.6293 27.59 42.5405 27.6234 42.4599C27.6568 42.3793 27.7134 42.3104 27.786 42.2619C27.8585 42.2134 27.9438 42.1875 28.0311 42.1875C28.1482 42.1875 28.2604 42.234 28.3432 42.3167C28.4259 42.3995 28.4724 42.5117 28.4724 42.6288Z" fill="#039AE4"/>
<path d="M29.9476 42.6281C29.9476 42.6857 29.9306 42.742 29.8986 42.7899C29.8666 42.8378 29.8211 42.8751 29.7679 42.8971C29.7147 42.9192 29.6561 42.925 29.5996 42.9137C29.5431 42.9025 29.4912 42.8748 29.4505 42.834C29.4098 42.7933 29.3821 42.7414 29.3708 42.6849C29.3596 42.6284 29.3654 42.5699 29.3874 42.5167C29.4094 42.4635 29.4468 42.418 29.4947 42.386C29.5425 42.354 29.5988 42.3369 29.6564 42.3369C29.6947 42.3368 29.7326 42.3442 29.768 42.3588C29.8034 42.3734 29.8356 42.3948 29.8627 42.4219C29.8897 42.4489 29.9112 42.4811 29.9258 42.5165C29.9404 42.5519 29.9478 42.5898 29.9476 42.6281Z" fill="#DBDBDB"/>
<path d="M31.867 34.5156H24.0068V37.0155H31.867V34.5156Z" fill="#039AE4"/>
<path d="M26.2083 36.1156V35.4436C26.2081 35.4353 26.2096 35.4271 26.2127 35.4194C26.2158 35.4117 26.2204 35.4048 26.2263 35.3989C26.2321 35.393 26.2391 35.3884 26.2468 35.3853C26.2545 35.3822 26.2627 35.3807 26.271 35.3809C26.2793 35.3807 26.2876 35.3822 26.2953 35.3853C26.3031 35.3884 26.3101 35.393 26.3161 35.3988C26.322 35.4047 26.3267 35.4116 26.3299 35.4193C26.3332 35.427 26.3348 35.4353 26.3348 35.4436V36.0562H26.6462C26.6631 36.0562 26.6793 36.063 26.6913 36.0749C26.7033 36.0869 26.71 36.1031 26.71 36.1201C26.71 36.137 26.7033 36.1532 26.6913 36.1652C26.6793 36.1772 26.6631 36.1839 26.6462 36.1839H26.271C26.2622 36.1839 26.2536 36.1822 26.2456 36.1787C26.2376 36.1752 26.2304 36.17 26.2245 36.1636C26.2186 36.1572 26.2141 36.1496 26.2113 36.1413C26.2085 36.133 26.2075 36.1243 26.2083 36.1156Z" fill="white"/>
<path d="M27.4401 35.4748C27.5147 35.5529 27.5563 35.6568 27.5563 35.7648C27.5563 35.8729 27.5147 35.9768 27.4401 36.0549C27.4055 36.0933 27.3634 36.1241 27.3164 36.1453C27.2693 36.1665 27.2184 36.1777 27.1668 36.1781C27.114 36.178 27.0617 36.167 27.0134 36.1458C26.965 36.1246 26.9215 36.0937 26.8857 36.0549C26.8123 35.9761 26.7715 35.8725 26.7715 35.7648C26.7715 35.6572 26.8123 35.5535 26.8857 35.4748C26.9214 35.4358 26.9648 35.4047 27.0132 35.3835C27.0616 35.3623 27.1139 35.3514 27.1668 35.3516C27.2184 35.3518 27.2694 35.3629 27.3165 35.3841C27.3636 35.4053 27.4057 35.4362 27.4401 35.4748ZM27.4255 35.7648C27.4255 35.6905 27.3975 35.619 27.3471 35.5644C27.3243 35.539 27.2965 35.5186 27.2655 35.5046C27.2345 35.4905 27.2009 35.483 27.1668 35.4826C27.1318 35.4824 27.0972 35.4896 27.0651 35.5037C27.0331 35.5178 27.0044 35.5385 26.9809 35.5644C26.9301 35.6187 26.902 35.6905 26.9025 35.7648C26.9017 35.8389 26.9298 35.9104 26.9809 35.9642C27.0043 35.9902 27.033 36.0111 27.065 36.0253C27.0971 36.0396 27.1317 36.047 27.1668 36.0471C27.2009 36.0465 27.2346 36.0388 27.2656 36.0245C27.2966 36.0102 27.3244 35.9897 27.3471 35.9642C27.396 35.9094 27.4224 35.8382 27.421 35.7648H27.4255Z" fill="white"/>
<path d="M27.7422 35.7661C27.744 35.6875 27.7677 35.6109 27.8105 35.5449C27.8534 35.4789 27.9137 35.4261 27.9848 35.3925C28.0559 35.3588 28.1349 35.3455 28.2131 35.3541C28.2913 35.3628 28.3656 35.393 28.4276 35.4413C28.4413 35.452 28.4501 35.4677 28.4522 35.4849C28.4543 35.5022 28.4495 35.5195 28.4388 35.5332C28.4281 35.5469 28.4125 35.5557 28.3952 35.5578C28.378 35.5599 28.3607 35.5551 28.347 35.5444C28.2954 35.5044 28.2319 35.4828 28.1667 35.4828C28.1283 35.4822 28.0901 35.4893 28.0545 35.5038C28.0189 35.5182 27.9866 35.5396 27.9595 35.5668C27.9323 35.5921 27.9106 35.6228 27.8957 35.6569C27.8809 35.691 27.8733 35.7278 27.8733 35.765C27.8733 35.8022 27.8809 35.839 27.8957 35.8731C27.9106 35.9072 27.9323 35.9379 27.9595 35.9633C27.9866 35.9904 28.0189 36.0119 28.0545 36.0263C28.0901 36.0407 28.1283 36.0479 28.1667 36.0473C28.2219 36.0469 28.276 36.0318 28.3235 36.0036V35.8468H28.1588C28.1416 35.8462 28.1252 35.839 28.1131 35.8267C28.101 35.8144 28.0941 35.798 28.0939 35.7807C28.0942 35.7637 28.1011 35.7474 28.1133 35.7355C28.1254 35.7236 28.1418 35.7169 28.1588 35.7169H28.3828C28.3915 35.7166 28.4 35.718 28.4081 35.721C28.4162 35.7241 28.4236 35.7287 28.4298 35.7347C28.4361 35.7406 28.4411 35.7478 28.4446 35.7557C28.448 35.7636 28.4499 35.7721 28.45 35.7807V36.0349C28.4507 36.0413 28.4507 36.0477 28.45 36.054C28.446 36.0656 28.4381 36.0755 28.4276 36.082C28.3659 36.1304 28.2919 36.1607 28.2139 36.1694C28.1359 36.1782 28.057 36.1651 27.986 36.1317C27.915 36.0982 27.8548 36.0457 27.8119 35.98C27.769 35.9142 27.7453 35.8379 27.7433 35.7594L27.7422 35.7661Z" fill="white"/>
<path d="M28.7217 35.4377C28.7215 35.4295 28.7231 35.4212 28.7262 35.4135C28.7293 35.4059 28.7339 35.3989 28.7397 35.393C28.7456 35.3872 28.7525 35.3826 28.7602 35.3795C28.7679 35.3764 28.7761 35.3749 28.7844 35.375C28.7928 35.3749 28.8011 35.3764 28.8089 35.3794C28.8167 35.3825 28.8239 35.3871 28.8299 35.3929C28.8359 35.3987 28.8407 35.4057 28.8441 35.4134C28.8474 35.4211 28.8492 35.4293 28.8494 35.4377V36.1097C28.8488 36.1266 28.8417 36.1425 28.8296 36.1542C28.8174 36.1659 28.8013 36.1725 28.7844 36.1724C28.7761 36.1726 28.7679 36.1711 28.7602 36.168C28.7525 36.1649 28.7456 36.1603 28.7397 36.1544C28.7339 36.1486 28.7293 36.1416 28.7262 36.1339C28.7231 36.1262 28.7215 36.118 28.7217 36.1097V35.4377Z" fill="white"/>
<path d="M29.1899 36.1157C29.1899 36.1323 29.1833 36.1483 29.1715 36.1601C29.1598 36.1718 29.1438 36.1784 29.1272 36.1784C29.1106 36.1784 29.0946 36.1718 29.0828 36.1601C29.0711 36.1483 29.0645 36.1323 29.0645 36.1157V35.4437C29.0642 35.4335 29.0665 35.4234 29.071 35.4143C29.0754 35.4051 29.082 35.3971 29.0902 35.3911C29.1038 35.3819 29.1203 35.3781 29.1365 35.3806C29.1527 35.3831 29.1674 35.3917 29.1776 35.4045L29.5483 35.9175V35.4482C29.5483 35.4401 29.5499 35.4321 29.553 35.4246C29.5561 35.4171 29.5606 35.4103 29.5663 35.4046C29.5721 35.3989 29.5789 35.3944 29.5863 35.3913C29.5938 35.3882 29.6018 35.3866 29.6099 35.3866C29.6263 35.3866 29.6421 35.393 29.6539 35.4046C29.6656 35.4161 29.6723 35.4317 29.6726 35.4482V36.1202C29.6723 36.1367 29.6656 36.1525 29.6539 36.1642C29.6422 36.1759 29.6265 36.1826 29.6099 36.1829C29.6008 36.1828 29.5918 36.1806 29.5837 36.1765C29.5756 36.1725 29.5684 36.1666 29.5629 36.1594L29.5573 36.1527L29.1899 35.6431V36.1157Z" fill="white"/>
<path d="M29.9037 15.1635V15.9822H29.3247V15.1635C29.3247 14.3795 28.7322 13.7512 28.0042 13.7512C27.2762 13.7512 26.6837 14.384 26.6837 15.1635V17.2131H26.0957V15.1635C26.0957 14.0435 26.948 13.1396 27.9997 13.1396C29.0514 13.1396 29.9037 14.048 29.9037 15.1635Z" fill="#C7C7C7"/>
<path d="M26.1006 15.9844L26.6796 16.0079V17.213H26.1006V15.9844Z" fill="#A6A6A6"/>
<path d="M30.6416 16.5264H25.3574V21.32H30.6416V16.5264Z" fill="#039AE4"/>
<path opacity="0.1" d="M30.6421 16.5264H28V21.32H30.6421V16.5264Z" fill="black"/>
<path d="M28.2243 19.0996L28.4483 20.1479H27.5098L27.7338 19.0996C27.6469 19.0456 27.5799 18.9648 27.5431 18.8695C27.5062 18.7741 27.5014 18.6693 27.5295 18.5709C27.5575 18.4726 27.6168 18.386 27.6985 18.3244C27.7801 18.2628 27.8796 18.2295 27.9818 18.2295C28.0841 18.2295 28.1836 18.2628 28.2652 18.3244C28.3468 18.386 28.4062 18.4726 28.4342 18.5709C28.4623 18.6693 28.4575 18.7741 28.4206 18.8695C28.3838 18.9648 28.3168 19.0456 28.2299 19.0996H28.2243Z" fill="#263238"/>
<path d="M34.8054 26.6104H21.1963V28.94H34.8054V26.6104Z" fill="white"/>
<path d="M34.8596 28.9953H21.1396V26.5537H34.8596V28.9953ZM21.2516 28.8833H34.7476V26.6657H21.2516V28.8833Z" fill="#EBEBEB"/>
<path d="M22.6081 27.2529H22.4961V28.2486H22.6081V27.2529Z" fill="#37474F"/>
<path d="M23.0504 27.6943H22.0547V27.8063H23.0504V27.6943Z" fill="#37474F"/>
<path d="M22.8654 27.3577L22.1611 28.0615L22.2403 28.1407L22.9446 27.4369L22.8654 27.3577Z" fill="#37474F"/>
<path d="M22.2394 27.3583L22.1602 27.4375L22.8642 28.1416L22.9434 28.0624L22.2394 27.3583Z" fill="#37474F"/>
<path d="M24.2975 27.2529H24.1855V28.2486H24.2975V27.2529Z" fill="#37474F"/>
<path d="M24.7398 27.6943H23.7441V27.8063H24.7398V27.6943Z" fill="#37474F"/>
<path d="M24.5539 27.3597L23.8496 28.0635L23.9288 28.1427L24.6331 27.4389L24.5539 27.3597Z" fill="#37474F"/>
<path d="M23.9288 27.3583L23.8496 27.4375L24.5537 28.1416L24.6329 28.0624L23.9288 27.3583Z" fill="#37474F"/>
<path d="M25.986 27.2529H25.874V28.2486H25.986V27.2529Z" fill="#37474F"/>
<path d="M26.4283 27.6943H25.4326V27.8063H26.4283V27.6943Z" fill="#37474F"/>
<path d="M26.2424 27.3597L25.5381 28.0635L25.6173 28.1427L26.3216 27.4389L26.2424 27.3597Z" fill="#37474F"/>
<path d="M25.6183 27.3583L25.5391 27.4375L26.2431 28.1416L26.3223 28.0624L25.6183 27.3583Z" fill="#37474F"/>
<path d="M27.6765 27.2529H27.5645V28.2486H27.6765V27.2529Z" fill="#37474F"/>
<path d="M28.1178 27.6943H27.1221V27.8063H28.1178V27.6943Z" fill="#37474F"/>
<path d="M27.9328 27.3597L27.2285 28.0635L27.3077 28.1427L28.012 27.4389L27.9328 27.3597Z" fill="#37474F"/>
<path d="M27.3087 27.3593L27.2295 27.4385L27.9335 28.1425L28.0127 28.0633L27.3087 27.3593Z" fill="#37474F"/>
<path d="M29.3649 27.2529H29.2529V28.2486H29.3649V27.2529Z" fill="#37474F"/>
<path d="M29.8062 27.6943H28.8105V27.8063H29.8062V27.6943Z" fill="#37474F"/>
<path d="M29.6213 27.3597L28.917 28.0635L28.9962 28.1427L29.7005 27.4389L29.6213 27.3597Z" fill="#37474F"/>
<path d="M28.9962 27.3573L28.917 27.4365L29.621 28.1406L29.7002 28.0614L28.9962 27.3573Z" fill="#37474F"/>
<path d="M31.0544 27.2529H30.9424V28.2486H31.0544V27.2529Z" fill="#37474F"/>
<path d="M31.4967 27.6943H30.501V27.8063H31.4967V27.6943Z" fill="#37474F"/>
<path d="M31.3107 27.3587L30.6064 28.0625L30.6856 28.1417L31.3899 27.4379L31.3107 27.3587Z" fill="#37474F"/>
<path d="M30.6856 27.3573L30.6064 27.4365L31.3105 28.1406L31.3897 28.0614L30.6856 27.3573Z" fill="#37474F"/>
<path d="M33.643 28.1342C33.5215 28.1269 33.403 28.093 33.296 28.035C33.189 27.9769 33.096 27.8961 33.0237 27.7982L32.999 27.7646L33.0237 27.7321C33.0914 27.6309 33.1831 27.548 33.2905 27.4907C33.398 27.4333 33.5179 27.4033 33.6397 27.4033C33.7614 27.4033 33.8814 27.4333 33.9888 27.4907C34.0962 27.548 34.1879 27.6309 34.2557 27.7321L34.2792 27.7646L34.2557 27.7982C34.1841 27.8953 34.0922 27.9757 33.9864 28.0337C33.8806 28.0917 33.7634 28.126 33.643 28.1342ZM33.1413 27.7691C33.199 27.8487 33.2748 27.9134 33.3624 27.9581C33.45 28.0028 33.5469 28.0261 33.6453 28.0261C33.7436 28.0261 33.8405 28.0028 33.9281 27.9581C34.0157 27.9134 34.0915 27.8487 34.1493 27.7691C34.0915 27.6895 34.0157 27.6247 33.9281 27.58C33.8405 27.5354 33.7436 27.5121 33.6453 27.5121C33.5469 27.5121 33.45 27.5354 33.3624 27.58C33.2748 27.6247 33.199 27.6895 33.1413 27.7691Z" fill="#EBEBEB"/>
<path d="M33.6416 28.0216C33.7808 28.0216 33.8936 27.9088 33.8936 27.7696C33.8936 27.6304 33.7808 27.5176 33.6416 27.5176C33.5025 27.5176 33.3896 27.6304 33.3896 27.7696C33.3896 27.9088 33.5025 28.0216 33.6416 28.0216Z" fill="#EBEBEB"/>
<path d="M34.056 27.2643L33.1611 28.1592L33.2403 28.2384L34.1352 27.3435L34.056 27.2643Z" fill="#EBEBEB"/>
<path d="M24.3405 24.1847H24.1613V24.4994C24.1613 24.5208 24.1528 24.5413 24.1377 24.5564C24.1225 24.5715 24.102 24.58 24.0806 24.58C24.0593 24.58 24.0387 24.5715 24.0236 24.5564C24.0085 24.5413 24 24.5208 24 24.4994V23.6426C24 23.632 24.0021 23.6216 24.0062 23.6119C24.0102 23.6022 24.0162 23.5933 24.0237 23.586C24.0312 23.5786 24.0401 23.5727 24.0499 23.5688C24.0596 23.5649 24.0701 23.5629 24.0806 23.5631H24.3405C24.3829 23.5605 24.4253 23.5667 24.4652 23.5811C24.5052 23.5956 24.5417 23.6181 24.5726 23.6472C24.6035 23.6763 24.6282 23.7114 24.645 23.7504C24.6618 23.7894 24.6705 23.8314 24.6705 23.8739C24.6705 23.9163 24.6618 23.9583 24.645 23.9973C24.6282 24.0363 24.6035 24.0714 24.5726 24.1005C24.5417 24.1296 24.5052 24.1521 24.4652 24.1666C24.4253 24.1811 24.3829 24.1872 24.3405 24.1847ZM24.1613 24.0234H24.3405C24.3612 24.0252 24.3821 24.0226 24.4018 24.0159C24.4215 24.0092 24.4395 23.9985 24.4549 23.9845C24.4702 23.9704 24.4824 23.9533 24.4908 23.9343C24.4992 23.9152 24.5035 23.8947 24.5035 23.8739C24.5035 23.8531 24.4992 23.8325 24.4908 23.8134C24.4824 23.7944 24.4702 23.7773 24.4549 23.7633C24.4395 23.7492 24.4215 23.7385 24.4018 23.7318C24.3821 23.7251 24.3612 23.7225 24.3405 23.7243H24.1613V24.0234Z" fill="#039AE4"/>
<path d="M25.2651 24.3389H24.9123L24.8406 24.5282C24.8343 24.543 24.8239 24.5556 24.8105 24.5646C24.7972 24.5735 24.7816 24.5784 24.7655 24.5786C24.7563 24.5803 24.7468 24.5803 24.7375 24.5786C24.7174 24.5711 24.7011 24.5559 24.6921 24.5364C24.6831 24.5169 24.6821 24.4947 24.6894 24.4745L25.0108 23.6188C25.0173 23.6037 25.028 23.5908 25.0418 23.5818C25.0556 23.5729 25.0717 23.5682 25.0881 23.5684C25.1044 23.5679 25.1205 23.5725 25.1341 23.5816C25.1478 23.5906 25.1583 23.6036 25.1643 23.6188L25.4857 24.4745C25.493 24.4947 25.492 24.5169 25.483 24.5364C25.474 24.5559 25.4576 24.5711 25.4375 24.5786C25.4283 24.5806 25.4188 24.5806 25.4095 24.5786C25.3936 24.5786 25.378 24.5738 25.3648 24.5648C25.3516 24.5558 25.3415 24.5431 25.3356 24.5282L25.2651 24.3389ZM25.2057 24.1799L25.0881 23.8674L24.9761 24.1799H25.2057Z" fill="#039AE4"/>
<path d="M25.6275 24.3269C25.6338 24.3183 25.6418 24.3112 25.6511 24.306C25.6604 24.3008 25.6706 24.2976 25.6812 24.2966C25.6918 24.2957 25.7025 24.297 25.7125 24.3005C25.7226 24.3039 25.7318 24.3095 25.7395 24.3168C25.8175 24.3832 25.915 24.4225 26.0173 24.4288C26.0819 24.4302 26.1453 24.4114 26.1987 24.3751C26.2169 24.3641 26.2321 24.3489 26.243 24.3308C26.2539 24.3126 26.2603 24.2921 26.2614 24.2709C26.2618 24.2546 26.2571 24.2386 26.248 24.225C26.2367 24.2075 26.2218 24.1926 26.2043 24.1813C26.1427 24.1463 26.0751 24.1231 26.0049 24.113C25.9401 24.1019 25.8769 24.0827 25.8168 24.0559C25.7621 24.0323 25.7155 23.9934 25.6824 23.9439C25.6599 23.9084 25.6482 23.8671 25.6488 23.8251C25.6497 23.7834 25.6603 23.7425 25.6798 23.7056C25.6992 23.6687 25.7269 23.6367 25.7608 23.6123C25.8344 23.5614 25.9221 23.5348 26.0117 23.5362C26.1261 23.5411 26.2365 23.5801 26.3286 23.6482C26.3367 23.6536 26.3437 23.6606 26.3491 23.6687C26.3545 23.6768 26.3583 23.6859 26.3602 23.6955C26.362 23.7051 26.362 23.7149 26.3601 23.7245C26.3581 23.7341 26.3543 23.7432 26.3488 23.7512C26.3437 23.7596 26.3369 23.7669 26.3288 23.7727C26.3208 23.7784 26.3117 23.7824 26.3021 23.7845C26.2924 23.7866 26.2825 23.7867 26.2728 23.7848C26.2631 23.783 26.2539 23.7792 26.2457 23.7736C26.179 23.7195 26.0973 23.6871 26.0117 23.6807C25.9537 23.6797 25.8969 23.6969 25.8493 23.7299C25.8332 23.7395 25.8197 23.7528 25.8101 23.7689C25.8006 23.7849 25.7951 23.8031 25.7944 23.8218C25.7933 23.836 25.7969 23.8501 25.8045 23.8621C25.8149 23.8772 25.8282 23.8902 25.8437 23.9002C25.8995 23.933 25.9611 23.9546 26.0251 23.964C26.0941 23.9763 26.1614 23.9966 26.2256 24.0245C26.2845 24.0504 26.3349 24.0923 26.3712 24.1455C26.3937 24.1826 26.4057 24.2252 26.4059 24.2687C26.4043 24.3133 26.3921 24.3569 26.3702 24.3958C26.3484 24.4348 26.3177 24.468 26.2805 24.4927C26.2024 24.5482 26.1086 24.5773 26.0128 24.5755C25.8762 24.5693 25.7455 24.5181 25.6409 24.4299C25.6261 24.4177 25.6164 24.4002 25.6139 24.3811C25.6114 24.3619 25.6163 24.3426 25.6275 24.3269Z" fill="#039AE4"/>
<path d="M26.5829 24.3269C26.5891 24.3192 26.5968 24.3129 26.6055 24.3082C26.6141 24.3035 26.6237 24.3006 26.6335 24.2997C26.6433 24.2988 26.6532 24.2998 26.6626 24.3027C26.672 24.3057 26.6807 24.3105 26.6882 24.3168C26.7663 24.3832 26.8637 24.4225 26.966 24.4288C27.0306 24.4303 27.0941 24.4115 27.1474 24.3751C27.1656 24.3641 27.1808 24.3489 27.1917 24.3308C27.2027 24.3126 27.209 24.2921 27.2101 24.2709C27.2105 24.2546 27.2058 24.2386 27.1967 24.225C27.1857 24.2072 27.1708 24.1923 27.153 24.1813C27.0918 24.1463 27.0246 24.1231 26.9548 24.113C26.8902 24.1021 26.8274 24.0829 26.7677 24.0559C26.7129 24.032 26.666 23.9932 26.6322 23.9439C26.6101 23.9082 26.5985 23.8671 26.5986 23.8251C26.5996 23.7834 26.6102 23.7425 26.6296 23.7056C26.6491 23.6687 26.6768 23.6367 26.7106 23.6123C26.7843 23.5614 26.872 23.5348 26.9615 23.5362C27.076 23.5411 27.1863 23.5801 27.2785 23.6482C27.2866 23.6536 27.2936 23.6606 27.299 23.6687C27.3044 23.6768 27.3081 23.6859 27.31 23.6955C27.3119 23.7051 27.3118 23.7149 27.3099 23.7245C27.3079 23.7341 27.3041 23.7432 27.2986 23.7512C27.2935 23.7596 27.2867 23.7669 27.2787 23.7727C27.2707 23.7784 27.2615 23.7824 27.2519 23.7845C27.2423 23.7866 27.2323 23.7867 27.2226 23.7848C27.2129 23.783 27.2037 23.7792 27.1956 23.7736C27.1288 23.7195 27.0472 23.6871 26.9615 23.6807C26.9035 23.6797 26.8467 23.6969 26.7991 23.7299C26.783 23.7395 26.7696 23.7528 26.76 23.7689C26.7504 23.7849 26.745 23.8031 26.7442 23.8218C26.7432 23.836 26.7467 23.8501 26.7543 23.8621C26.7648 23.8772 26.7781 23.8902 26.7935 23.9002C26.8494 23.9328 26.911 23.9544 26.9749 23.964C27.0439 23.9763 27.1112 23.9966 27.1754 24.0245C27.2341 24.0502 27.2843 24.0922 27.3199 24.1455C27.3432 24.1823 27.3553 24.2251 27.3546 24.2687C27.3532 24.3132 27.3412 24.3568 27.3196 24.3957C27.298 24.4347 27.2674 24.4679 27.2303 24.4927C27.1519 24.5484 27.0577 24.5775 26.9615 24.5755C26.8249 24.5693 26.6942 24.5181 26.5897 24.4299C26.576 24.4166 26.5678 24.3987 26.5666 24.3797C26.5653 24.3607 26.5712 24.3419 26.5829 24.3269Z" fill="#039AE4"/>
<path d="M28.8868 23.6827L28.5307 24.5283C28.5292 24.5333 28.5265 24.538 28.5228 24.5417C28.5228 24.5417 28.5228 24.5473 28.5161 24.5507L28.506 24.5574C28.506 24.5574 28.4993 24.5653 28.4926 24.5664H28.4803H28.4455H28.4355C28.4304 24.565 28.426 24.5618 28.4231 24.5574L28.4131 24.5507C28.4131 24.5507 28.4131 24.5451 28.4075 24.5417C28.4068 24.5373 28.4068 24.5328 28.4075 24.5283L28.2171 24.0803L28.0267 24.5283C28.0267 24.5283 28.0267 24.5384 28.0211 24.5417L28.0121 24.5507C28.0087 24.5523 28.0056 24.5546 28.0031 24.5574L27.9919 24.5664C27.9883 24.5656 27.9844 24.5656 27.9807 24.5664H27.9449H27.9337C27.9286 24.5645 27.924 24.5614 27.9203 24.5574C27.9203 24.5574 27.9147 24.5574 27.9102 24.5507L27.9035 24.5417C27.9035 24.5417 27.9035 24.5328 27.8956 24.5283L27.5383 23.6816C27.5319 23.6624 27.533 23.6416 27.5413 23.6232C27.5497 23.6048 27.5647 23.5903 27.5834 23.5826C27.6021 23.575 27.6229 23.5746 27.6418 23.5818C27.6607 23.5889 27.6762 23.603 27.6851 23.6211L27.9695 24.2931L28.1577 23.8451C28.1639 23.8304 28.1744 23.8178 28.1877 23.809C28.2011 23.8003 28.2168 23.7957 28.2327 23.7958C28.2488 23.796 28.2645 23.8007 28.2779 23.8095C28.2914 23.8182 28.3022 23.8305 28.3089 23.8451L28.4959 24.2931L28.7793 23.6211C28.7877 23.6016 28.8035 23.5861 28.8232 23.5781C28.8429 23.5702 28.865 23.5703 28.8846 23.5785C28.8974 23.5927 28.9047 23.6111 28.9051 23.6302C28.9056 23.6493 28.8991 23.668 28.8868 23.6827Z" fill="#039AE4"/>
<path d="M29.9041 23.6878C29.9985 23.787 30.051 23.9188 30.051 24.0557C30.051 24.1926 29.9985 24.3243 29.9041 24.4236C29.86 24.4718 29.8064 24.5104 29.7466 24.537C29.6869 24.5636 29.6223 24.5776 29.5569 24.5782C29.4902 24.5778 29.4243 24.5639 29.363 24.5373C29.3018 24.5108 29.2466 24.4721 29.2008 24.4236C29.1087 24.3232 29.0576 24.1919 29.0576 24.0557C29.0576 23.9194 29.1087 23.7882 29.2008 23.6878C29.2465 23.6391 29.3016 23.6002 29.3629 23.5737C29.4241 23.5471 29.4902 23.5333 29.5569 23.5332C29.6224 23.5335 29.687 23.5473 29.7468 23.574C29.8066 23.6006 29.8602 23.6393 29.9041 23.6878ZM29.8851 24.0551C29.8851 23.9614 29.85 23.871 29.7866 23.802C29.7576 23.7697 29.7223 23.7438 29.6827 23.7261C29.6432 23.7083 29.6003 23.6991 29.5569 23.699C29.5127 23.6986 29.4689 23.7077 29.4284 23.7254C29.3878 23.7432 29.3515 23.7693 29.3217 23.802C29.258 23.8708 29.2227 23.9613 29.2232 24.0551C29.2223 24.149 29.2576 24.2397 29.3217 24.3082C29.3516 24.341 29.3879 24.3671 29.4284 24.3851C29.4689 24.403 29.5127 24.4123 29.5569 24.4124C29.6003 24.4118 29.6431 24.4022 29.6826 24.3843C29.7221 24.3664 29.7575 24.3405 29.7866 24.3082C29.8486 24.2387 29.8822 24.1483 29.8806 24.0551H29.8851Z" fill="#039AE4"/>
<path d="M31.0045 24.4591C31.008 24.469 31.0095 24.4795 31.0088 24.49C31.0082 24.5005 31.0054 24.5108 31.0007 24.5202C30.996 24.5296 30.9894 24.5379 30.9814 24.5448C30.9734 24.5516 30.9642 24.5567 30.9541 24.5599C30.9434 24.5616 30.9324 24.5616 30.9216 24.5599C30.9018 24.5603 30.8823 24.5549 30.8656 24.5442C30.8459 24.5317 30.8297 24.5144 30.8186 24.4938C30.7955 24.4386 30.7852 24.3789 30.7884 24.3191C30.7882 24.2969 30.782 24.2753 30.7704 24.2564C30.7596 24.2391 30.7446 24.2248 30.7268 24.2149C30.702 24.199 30.6747 24.1872 30.6461 24.1802H30.4748V24.4949C30.4746 24.5055 30.4724 24.516 30.4682 24.5257C30.464 24.5354 30.4579 24.5442 30.4504 24.5516C30.4428 24.559 30.4338 24.5648 30.424 24.5687C30.4141 24.5727 30.4036 24.5746 30.393 24.5744C30.3719 24.5744 30.3517 24.5661 30.3368 24.5512C30.3219 24.5362 30.3135 24.516 30.3135 24.4949V23.6381C30.3133 23.6276 30.3153 23.6172 30.3192 23.6075C30.3232 23.5978 30.329 23.589 30.3364 23.5816C30.3439 23.5741 30.3527 23.5683 30.3624 23.5643C30.3721 23.5604 30.3825 23.5585 30.393 23.5586H30.6528C30.7169 23.5583 30.7794 23.5779 30.8319 23.6146C30.8844 23.6513 30.9242 23.7034 30.946 23.7636C30.9677 23.8239 30.9702 23.8894 30.9532 23.9511C30.9362 24.0129 30.9006 24.0679 30.8511 24.1085C30.8704 24.1239 30.8873 24.142 30.9015 24.1623C30.933 24.2085 30.9498 24.2631 30.9496 24.3191C30.9475 24.348 30.9494 24.377 30.9552 24.4053C30.9674 24.4093 30.9783 24.4163 30.987 24.4257C30.9956 24.4351 31.0017 24.4466 31.0045 24.4591ZM30.7996 23.8744C30.7997 23.8547 30.7959 23.8351 30.7884 23.8168C30.781 23.7986 30.7699 23.782 30.7559 23.768C30.742 23.754 30.7254 23.743 30.7071 23.7355C30.6888 23.728 30.6692 23.7242 30.6495 23.7244H30.4714V24.0234H30.6495C30.6891 24.0234 30.7271 24.0077 30.7552 23.9798C30.7833 23.9519 30.7993 23.9141 30.7996 23.8744Z" fill="#039AE4"/>
<path d="M31.2412 24.4988V23.642C31.2411 23.6315 31.243 23.6211 31.247 23.6114C31.2509 23.6017 31.2568 23.5929 31.2642 23.5855C31.2716 23.578 31.2804 23.5722 31.2901 23.5683C31.2998 23.5643 31.3103 23.5624 31.3207 23.5625H31.4921C31.6227 23.5686 31.7459 23.6248 31.8361 23.7194C31.9264 23.814 31.9767 23.9397 31.9767 24.0704C31.9767 24.2012 31.9264 24.3269 31.8361 24.4214C31.7459 24.516 31.6227 24.5722 31.4921 24.5783H31.3207C31.2996 24.5783 31.2794 24.57 31.2645 24.5551C31.2496 24.5401 31.2412 24.5199 31.2412 24.4988ZM31.4025 24.4171H31.4921C31.5806 24.412 31.6639 24.3733 31.7248 24.3089C31.7857 24.2444 31.8196 24.1591 31.8196 24.0704C31.8196 23.9818 31.7857 23.8964 31.7248 23.832C31.6639 23.7675 31.5806 23.7288 31.4921 23.7238H31.4025V24.4171Z" fill="#039AE4"/>
<path d="M48.6155 11.231C48.6155 11.231 47.7609 18.0697 46.3564 19.6086C44.6764 21.4544 43.4444 21.1844 42.7724 22.1364C42.0915 21.1833 40.8684 21.4544 39.1884 19.6075C37.784 18.0686 36.9316 11.2299 36.9316 11.2299C40.6276 9.43788 42.778 7.42188 42.778 7.42188C42.834 7.48571 44.9732 9.46364 48.6155 11.231Z" fill="#37474F"/>
<path d="M42.7676 7.42412V22.1364C42.0866 21.1833 40.8636 21.4544 39.1836 19.6075C37.7791 18.0686 36.9268 11.2299 36.9268 11.2299C40.6228 9.43788 42.7732 7.42188 42.7732 7.42188L42.7676 7.42412Z" fill="#455A64"/>
<path d="M47.7121 11.7822C47.7121 11.7822 46.9908 17.5592 45.8081 18.8595C44.3823 20.4208 43.3441 20.1912 42.774 20.9953C42.1995 20.1912 41.1657 20.4208 39.7399 18.8595C38.555 17.5592 37.8359 11.7822 37.8359 11.7822C40.9607 10.2646 42.7751 8.56445 42.7751 8.56445C42.7751 8.56445 44.5817 10.2646 47.7121 11.7822Z" fill="#455A64"/>
<path d="M37.8281 11.7825C37.8281 11.7825 38.5494 17.5583 39.7321 18.8598C41.1556 20.4199 42.1883 20.1926 42.764 20.9945V8.5625C42.7124 8.6241 40.9048 10.2884 37.8281 11.7825Z" fill="#37474F"/>
<path d="M44.388 16.3998C45.2824 15.5054 45.2824 14.0552 44.388 13.1607C43.4935 12.2663 42.0433 12.2663 41.1489 13.1607C40.2544 14.0552 40.2544 15.5054 41.1489 16.3998C42.0433 17.2943 43.4935 17.2943 44.388 16.3998Z" fill="#039AE4"/>
<path d="M42.5066 16.2676L41.4863 15.2069L41.8649 14.8429L42.4271 15.4276L43.639 13.5684L44.0791 13.8551L42.5066 16.2676Z" fill="white"/>
<path d="M9.00145 27.6729H16.8594V26.0455H9.00145V27.6729Z" fill="#C7C7C7"/>
<path d="M14.751 27.6602L14.9705 29.74L17.6876 49.2101H18.4638L16.3201 29.74L16.1465 27.6602H14.751Z" fill="#C7C7C7"/>
<path d="M7.39551 49.2101H8.17279L10.8899 29.74L11.1094 27.6602H9.71391L9.54031 29.74L7.39551 49.2101Z" fill="#C7C7C7"/>
<path d="M8.70732 42.8496H17.375V42.3613H8.70732V42.8496Z" fill="#C7C7C7"/>
<path d="M16.3201 29.6672H14.9705L14.751 27.6602H16.1465L16.3201 29.6672Z" fill="#A6A6A6"/>
<path d="M9.54004 29.6672H10.8896L11.1092 27.6602H9.71364L9.54004 29.6672Z" fill="#A6A6A6"/>
<path d="M10.0503 18.225C10.3863 18.3975 10.4445 18.9922 11.4906 18.9597C11.6395 18.9597 11.7616 18.8959 11.8983 18.9463C12.0987 19.0191 12.2567 19.1792 12.4347 19.2957C12.578 19.392 12.741 19.4548 12.9119 19.4794C13.2396 19.5181 13.5706 19.4417 13.8482 19.2632C14.0195 19.158 14.1629 19.0124 14.3287 18.8981C14.4944 18.7839 15.4946 18.542 15.6637 17.9797C15.7757 17.6224 15.7544 17.2159 15.3277 16.694C15.2294 16.6009 15.1625 16.4795 15.1362 16.3468C15.1365 16.2304 15.1629 16.1156 15.2135 16.0108C15.2721 15.8918 15.2936 15.7579 15.2751 15.6266C15.2274 15.501 15.1507 15.3885 15.0511 15.2984C14.8943 15.1092 14.9234 14.8359 15.0511 14.4999C15.1017 14.3573 15.1189 14.205 15.1015 14.0547C15.084 13.9044 15.0322 13.7601 14.9503 13.633C14.8475 13.4873 14.7262 13.3556 14.5896 13.241C14.3981 13.0596 14.3656 12.8916 14.2794 12.6351C14.117 12.1423 13.8627 11.9216 13.5637 11.7693C13.2938 11.6338 13.3027 11.6853 13.0138 11.729C12.721 11.5503 12.3764 11.4761 12.036 11.5184C11.7202 11.5588 11.4592 11.7704 11.2207 11.9732C11.0079 12.1546 10.813 12.3495 10.8018 12.6552C10.7951 12.8311 10.8376 13.0058 10.8298 13.1816C10.8186 13.4056 10.6943 13.5479 10.5453 13.689C10.3232 13.8779 10.17 14.1351 10.1096 14.4204C10.0704 14.6589 10.3056 15.0296 10.0301 15.3824C9.78818 15.6938 9.3581 16.0544 9.2461 16.4442C8.9045 17.6616 9.7333 18.0592 10.0503 18.225Z" fill="#263238"/>
<path d="M14.1015 18.8813C14.582 18.8085 15.3201 18.8993 15.5754 18.3639C15.6765 18.2815 15.7565 18.1763 15.8089 18.057C15.8613 17.9376 15.8845 17.8075 15.8767 17.6773C15.8437 17.3994 15.715 17.1416 15.5127 16.9482C15.3953 16.8377 15.2929 16.7123 15.2081 16.5753C15.181 16.4685 15.1611 16.3599 15.1487 16.2505C15.1685 16.1103 15.2061 15.9733 15.2607 15.8428C15.1554 16.0668 15.058 16.3087 15.1554 16.5551C15.1697 16.5902 15.1866 16.6243 15.2058 16.657C15.2408 16.7866 15.2889 16.9123 15.3492 17.0322C15.5071 17.3458 15.6516 17.6292 15.6303 17.9954C15.6266 18.1178 15.5972 18.238 15.5441 18.3482C15.3362 18.5305 15.0766 18.6433 14.8015 18.6708C14.7948 18.6708 14.7948 18.6831 14.8015 18.682C15.0503 18.6568 15.2889 18.5702 15.4959 18.43C15.217 18.8298 14.5685 18.7749 14.0993 18.8679C14.0869 18.8679 14.0914 18.8825 14.1015 18.8813ZM15.6124 18.2732V18.2631C15.6956 17.9663 15.6742 17.65 15.5519 17.3671C15.4757 17.1801 15.3615 17.0121 15.2865 16.8239C15.2741 16.7914 15.2618 16.7589 15.2506 16.7253C15.3626 16.8721 15.5037 16.9941 15.609 17.1375C15.833 17.4489 15.9047 17.8196 15.6908 18.1567C15.6676 18.1974 15.6414 18.2364 15.6124 18.2732Z" fill="#263238"/>
<path d="M14.5265 13.1684C14.7058 13.3241 14.8767 13.4894 15.0383 13.6634C15.1512 13.7776 15.2188 13.9288 15.2287 14.089C15.2329 14.2504 15.182 14.4084 15.0843 14.537C15.0484 14.5908 15.0115 14.649 14.979 14.7016C14.9713 14.8059 14.9878 14.9105 15.0271 15.0074C15.1055 15.1922 15.2791 15.3064 15.3631 15.4935C15.4931 15.7959 15.3486 16.0445 15.2209 16.3144C15.3139 16.0904 15.4449 15.8743 15.371 15.6234C15.3127 15.4184 15.1627 15.3076 15.0495 15.1407C14.9807 15.0347 14.942 14.9119 14.9375 14.7856C14.8367 14.9895 14.802 15.2045 14.9801 15.4184C14.9879 15.4285 14.9801 15.442 14.9667 15.433C14.7427 15.209 14.8009 14.9279 14.9387 14.6871C14.9471 14.5448 14.9785 14.4049 15.0316 14.2727C15.0316 14.2592 15.0574 14.2727 15.0551 14.2828C15.035 14.388 15.0081 14.4933 14.9935 14.5975L15.0171 14.5628C15.1963 14.3063 15.2668 14.0028 15.0607 13.734C14.9062 13.529 14.6956 13.3677 14.5231 13.174C14.5153 13.1717 14.522 13.1639 14.5265 13.1684Z" fill="#263238"/>
<path d="M15.8741 34.3164C15.8741 34.3164 13.8682 38.7718 13.8659 38.7751C13.4784 39.6252 13.1525 40.3767 13.0215 40.7822C13.0206 40.7843 13.0206 40.7867 13.0215 40.7889C12.9801 40.8802 12.9605 40.9799 12.9643 41.0801C12.9643 41.0801 12.9643 41.0857 12.9643 41.0868C13.1391 41.3746 19.8411 44.6708 20.1144 44.71C20.3877 44.7492 20.512 43.973 20.3541 43.637C20.1962 43.301 18.1936 40.8908 18.1936 40.8908L20.1603 36.4175L15.8741 34.3164Z" fill="#EB9481"/>
<path d="M14.2776 37.8564C14.2776 37.8564 13.8677 38.7681 13.8655 38.7715C13.4779 39.6216 13.152 40.3731 13.021 40.7785C13.0201 40.7807 13.0201 40.7831 13.021 40.7852C12.9902 40.8796 12.971 40.9774 12.9639 41.0764C12.9639 41.0764 12.9639 41.082 12.9639 41.0832C13.1386 41.371 19.8407 44.6672 20.1139 44.7064C20.3872 44.7456 20.5115 43.9694 20.3536 43.6334C20.1957 43.2974 18.1931 40.8872 18.1931 40.8872L18.6243 39.9643L14.2776 37.8564Z" fill="#EBEBEB"/>
<path d="M20.1119 44.7008C19.8386 44.6649 13.1343 41.3721 12.9584 41.0843C12.8901 40.9723 13.3124 39.971 13.8544 38.7715L13.8712 38.7334L18.2213 40.8099L18.1832 40.8827C18.1832 40.8827 20.1869 43.2918 20.346 43.6278C20.505 43.9638 20.384 44.7377 20.1119 44.7008Z" fill="#263238"/>
<path d="M20.3329 44.51C20.4304 44.6152 20.2064 45.0061 20.1089 44.996C20.0115 44.986 12.7169 41.3628 12.6049 41.2732C12.4929 41.1836 12.7584 40.7613 12.914 40.8095C13.0697 40.8576 20.3329 44.51 20.3329 44.51Z" fill="#039AE4"/>
<path d="M18.5456 41.0745C18.1413 40.7733 17.5645 40.5739 17.0683 40.724C17.0493 40.724 17.0582 40.7576 17.075 40.7598C17.5674 40.8312 18.0507 40.9555 18.5165 41.1305C18.5235 41.1323 18.531 41.1316 18.5376 41.1286C18.5443 41.1256 18.5497 41.1204 18.553 41.114C18.5564 41.1075 18.5575 41.1001 18.5561 41.093C18.5548 41.0858 18.5511 41.0793 18.5456 41.0745Z" fill="white"/>
<path d="M18.7712 41.4262C18.3669 41.1238 17.7901 40.9256 17.2939 41.0757C17.2749 41.0813 17.2838 41.1082 17.3006 41.1115C17.793 41.1825 18.2763 41.3064 18.7421 41.4811C18.7492 41.4837 18.757 41.4837 18.7641 41.4809C18.7711 41.4782 18.777 41.4731 18.7805 41.4664C18.7841 41.4597 18.7851 41.4519 18.7834 41.4446C18.7816 41.4372 18.7773 41.4307 18.7712 41.4262Z" fill="white"/>
<path d="M18.9976 41.7767C18.5933 41.4754 18.0154 41.276 17.5203 41.4261C17.5013 41.4328 17.5091 41.4597 17.5203 41.462C18.0131 41.5332 18.4968 41.6575 18.9629 41.8327C18.9703 41.8373 18.9793 41.8388 18.9878 41.8368C18.9963 41.8348 19.0036 41.8295 19.0082 41.822C19.0128 41.8146 19.0143 41.8057 19.0123 41.7972C19.0103 41.7887 19.005 41.7813 18.9976 41.7767Z" fill="white"/>
<path d="M14.6149 40.0284C14.2475 39.5468 13.4949 40.1158 13.8656 40.5985C14.2363 41.0812 14.9823 40.5111 14.6149 40.0284Z" fill="white"/>
<path d="M17.0569 30.4426C17.0121 31.7384 14.5145 37.3351 14.5145 37.3351L18.8949 39.3511C18.8949 39.3511 22.4307 33.1272 22.1025 30.26C21.8225 27.8274 15.7017 23.3284 14.7195 22.0605C14.5739 21.8724 14.6232 21.1152 14.6232 21.1152H10.6494V22.0639C12.167 25.285 16.7064 29.149 17.0424 30.2836C17.0556 30.3355 17.0605 30.3891 17.0569 30.4426Z" fill="#37474F"/>
<path d="M18.8704 38.416C18.1491 38.0699 18.3608 38.1584 17.6384 37.8213C17.2834 37.6566 15.5026 36.8222 15.1442 36.7293C15.1423 36.7284 15.1401 36.7283 15.1381 36.729C15.1361 36.7297 15.1344 36.7312 15.1336 36.7332C15.1327 36.7351 15.1326 36.7373 15.1333 36.7393C15.134 36.7413 15.1355 36.7429 15.1375 36.7438C15.4443 36.9521 17.2442 37.744 17.6015 37.9019C18.3328 38.2245 18.1267 38.1259 18.8615 38.4373C18.8738 38.444 18.8839 38.4216 18.8704 38.416Z" fill="#263238"/>
<path d="M11.6485 22.7417C12.848 24.5698 14.189 26.3011 15.6592 27.9194C16.0199 28.3126 16.3906 28.6945 16.7613 29.0775C17.0749 29.4012 17.3952 29.7607 17.4725 30.221C17.5599 30.734 17.3605 31.2447 17.2004 31.723C17.0245 32.2494 16.8476 32.7746 16.6605 33.2977C16.4589 33.8577 15.6346 35.895 15.4991 36.1694C15.4308 36.306 16.59 33.3694 16.7781 32.8273C16.9663 32.2852 17.1567 31.7465 17.3168 31.1977C17.4096 30.9182 17.4477 30.6235 17.4288 30.3297C17.3925 30.0464 17.2794 29.7784 17.1018 29.5546C16.7792 29.1246 16.3604 28.7594 15.9941 28.3674C15.2348 27.5543 14.5109 26.7098 13.8224 25.834C13.039 24.8447 12.3078 23.8151 11.6317 22.7495C11.6312 22.7484 11.6309 22.7472 11.6309 22.746C11.6308 22.7448 11.631 22.7436 11.6314 22.7424C11.6318 22.7413 11.6325 22.7402 11.6333 22.7393C11.6341 22.7384 11.6351 22.7377 11.6362 22.7372C11.6373 22.7367 11.6385 22.7364 11.6397 22.7363C11.6409 22.7363 11.6422 22.7365 11.6433 22.7369C11.6444 22.7373 11.6455 22.7379 11.6464 22.7388C11.6473 22.7396 11.648 22.7406 11.6485 22.7417Z" fill="#263238"/>
<path d="M9.29659 44.0303C9.29659 44.0303 9.10171 48.9146 9.10059 48.918C9.12299 49.852 9.15883 50.6708 9.21259 51.0919C9.21213 51.0945 9.21213 51.0971 9.21259 51.0997C9.21776 51.2005 9.24654 51.2987 9.29659 51.3864V51.392C9.57883 51.5735 17.0492 51.616 17.3102 51.5298C17.5711 51.4436 17.346 50.692 17.0582 50.4591C16.7703 50.2261 13.9143 48.9314 13.9143 48.9314L14.0633 44.0504L9.29659 44.0303Z" fill="#EB9481"/>
<path d="M9.13588 47.9512C9.13588 47.9512 9.0978 48.9144 9.09668 48.9178C9.11908 49.8518 9.15492 50.6706 9.20868 51.0917C9.20822 51.0943 9.20822 51.0969 9.20868 51.0995C9.22658 51.1982 9.2559 51.2944 9.29604 51.3862V51.3918C9.57828 51.5733 17.0487 51.6158 17.3096 51.5296C17.5706 51.4434 17.3455 50.6918 17.0576 50.4589C16.7698 50.2259 13.9138 48.9312 13.9138 48.9312L13.944 47.9434L9.13588 47.9512Z" fill="#EBEBEB"/>
<path d="M17.3039 51.5205C17.043 51.6068 9.57592 51.5721 9.2892 51.3906C9.1772 51.3234 9.12232 50.2348 9.08984 48.9165V48.8751L13.9058 48.8438V48.9255C13.9058 48.9255 16.7596 50.218 17.0508 50.451C17.342 50.6839 17.566 51.4354 17.3039 51.5205Z" fill="#263238"/>
<path d="M17.4197 51.2539C17.553 51.3065 17.5227 51.7556 17.4253 51.7904C17.3279 51.8251 9.18435 51.7523 9.04547 51.7209C8.90659 51.6896 8.96035 51.1923 9.12163 51.1676C9.28291 51.143 17.4197 51.2539 17.4197 51.2539Z" fill="#039AE4"/>
<path d="M14.3119 48.9443C13.8168 48.8491 13.2098 48.923 12.8301 49.2736C12.8156 49.287 12.8301 49.3083 12.8503 49.3027C13.3237 49.1526 13.8118 49.0535 14.3063 49.007C14.3146 49.0078 14.3229 49.0052 14.3293 48.9998C14.3357 48.9945 14.3397 48.9868 14.3404 48.9785C14.3412 48.9702 14.3386 48.9619 14.3332 48.9555C14.3279 48.9491 14.3202 48.9451 14.3119 48.9443Z" fill="white"/>
<path d="M14.6722 49.1601C14.1772 49.0649 13.5712 49.1389 13.1904 49.4894C13.1759 49.5029 13.1904 49.5241 13.2117 49.5185C13.6851 49.3682 14.1732 49.2691 14.6677 49.2229C14.676 49.2235 14.6843 49.2207 14.6906 49.2153C14.6969 49.2098 14.7007 49.2021 14.7013 49.1937C14.7019 49.1854 14.6992 49.1772 14.6937 49.1709C14.6883 49.1646 14.6805 49.1607 14.6722 49.1601Z" fill="white"/>
<path d="M15.0253 49.3781C14.5302 49.2829 13.9232 49.3557 13.5435 49.7074C13.5278 49.7208 13.5435 49.7421 13.5637 49.7365C14.037 49.5861 14.5251 49.487 15.0197 49.4408C15.028 49.4415 15.0362 49.439 15.0427 49.4336C15.0491 49.4282 15.0531 49.4206 15.0538 49.4122C15.0546 49.4039 15.052 49.3957 15.0466 49.3892C15.0413 49.3828 15.0336 49.3788 15.0253 49.3781Z" fill="white"/>
<path d="M10.3186 49.718C9.7776 49.4447 9.352 50.2847 9.89296 50.558C10.4339 50.8313 10.864 49.9924 10.3186 49.718Z" fill="white"/>
<path d="M14.045 47.361L9.16175 47.4013C9.16175 47.4013 9.97487 27.4575 9.43055 26.8057C8.13583 25.2567 8.34191 23.1914 9.21439 21.1172H13.6642C13.6642 21.1172 13.4502 24.2666 13.4715 24.3585C14.8402 30.3281 14.045 47.361 14.045 47.361Z" fill="#37474F"/>
<path d="M13.776 46.3606C12.7109 46.2777 9.90528 46.3684 9.55136 46.4222C9.54971 46.423 9.54834 46.4243 9.54737 46.4259C9.54641 46.4275 9.5459 46.4293 9.5459 46.4312C9.5459 46.433 9.54641 46.4348 9.54737 46.4364C9.54834 46.438 9.54971 46.4393 9.55136 46.4401C9.90192 46.5107 13.1186 46.4099 13.7749 46.3841C13.7774 46.3835 13.7797 46.382 13.7814 46.38C13.783 46.3779 13.784 46.3754 13.7841 46.3728C13.7842 46.3701 13.7835 46.3675 13.7821 46.3653C13.7806 46.3631 13.7785 46.3615 13.776 46.3606Z" fill="#263238"/>
<path d="M13.7698 22.3408C13.725 22.9008 13.7474 23.8663 13.4215 23.8808C13.0956 23.8954 13.1527 22.7194 13.1437 22.4484C13.1348 22.2031 13.0508 22.2367 13.0418 22.5256C13.0172 23.3096 13.0418 24.0029 13.454 23.9704C13.8661 23.938 13.8673 22.7228 13.8572 22.445C13.8516 22.3016 13.7833 22.1628 13.7698 22.3408Z" fill="#263238"/>
<path d="M13.4404 23.9184C13.4201 24.1164 13.4242 24.3162 13.4527 24.5131C13.4583 24.5288 13.521 24.5131 13.5277 24.5031C13.5658 24.4213 13.5356 24.036 13.5457 23.9319C13.5474 23.9179 13.5436 23.9038 13.535 23.8927C13.5307 23.8872 13.5254 23.8825 13.5194 23.8791C13.5133 23.8756 13.5066 23.8734 13.4997 23.8725C13.4858 23.8707 13.4717 23.8746 13.4605 23.8832C13.4494 23.8918 13.4422 23.9045 13.4404 23.9184Z" fill="#263238"/>
<path d="M13.5802 24.6128C13.7191 25.1056 13.8613 26.0486 13.8277 26.2928C13.8277 26.3152 13.7919 26.323 13.7874 26.2995C13.7426 26.0352 13.5455 24.764 13.5253 24.6307C13.5052 24.4974 13.541 24.475 13.5802 24.6128Z" fill="#263238"/>
<path d="M12.7233 25.0013C12.7883 24.9376 12.858 24.8788 12.9317 24.8254C13.0045 24.7683 13.0773 24.7134 13.1557 24.6585C13.3102 24.5465 13.4693 24.4502 13.6317 24.3539C13.7941 24.2576 13.9531 24.1736 14.1189 24.0896C14.2846 24.0056 14.475 23.9361 14.6475 23.8499C14.6576 23.8443 14.6665 23.8589 14.6565 23.8645C14.4929 23.9552 14.3406 24.0683 14.1816 24.168C14.0225 24.2677 13.8635 24.3707 13.7033 24.4704C13.5432 24.5701 13.392 24.6675 13.2352 24.7638C13.1538 24.8146 13.0709 24.8639 12.9865 24.9117C12.911 24.9603 12.8325 25.0041 12.7513 25.0427C12.7245 25.0528 12.7088 25.0181 12.7233 25.0013Z" fill="#263238"/>
<path d="M9.89753 36.9835C9.96809 35.3852 10.0801 33.5999 10.107 32.0039C10.1197 31.2043 10.1256 30.4042 10.1249 29.6038C10.1249 28.8097 10.1249 27.7491 10.0891 26.9561C10.0678 26.5529 9.35769 26.2415 9.21321 25.0678C9.11311 24.3993 9.16635 23.7168 9.36889 23.0719C9.41928 22.9152 9.47874 22.7615 9.54697 22.6116C9.54697 22.6015 9.56601 22.6116 9.56153 22.6206C9.27732 23.2797 9.15925 23.9985 9.21769 24.7139C9.23834 25.0745 9.31388 25.4299 9.44169 25.7678C9.63209 26.2415 10.1014 26.6257 10.126 26.8777C10.163 27.2529 10.1686 27.5777 10.1731 27.9551C10.1775 28.3326 10.182 28.7391 10.1843 29.1311C10.1887 29.9316 10.1865 30.7316 10.1775 31.5313C10.1596 33.1239 10.1178 34.7158 10.0521 36.307C9.98489 37.8985 9.57273 45.8673 9.54585 46.051C9.54585 46.0711 9.51001 46.0667 9.51113 46.051C9.56041 45.2479 9.82585 38.5817 9.89753 36.9835Z" fill="#263238"/>
<path d="M12.5355 17.4406C13.595 19.6268 14.9402 21.9945 16.199 22.3686C17.3974 22.7214 19.7203 19.7792 20.455 19.0086C20.7171 18.7286 18.588 17.127 18.2576 17.37C17.6349 17.8281 16.516 19.0758 16.3278 19.0321C16.1397 18.9884 14.5683 17.4944 13.1526 16.24C12.2947 15.4795 11.8019 15.9252 12.5355 17.4406Z" fill="#EB9481"/>
<path d="M22.297 17.6212C22.5882 17.4991 24.8305 17.4274 24.8305 16.9414C24.8305 16.4553 21.9756 16.5919 21.9756 16.5919L22.297 17.6212Z" fill="#EB9481"/>
<path d="M17.9961 17.6787C18.3881 17.1915 18.7331 16.6707 19.0735 16.5699C19.3099 16.5027 21.8478 16.6125 22.2454 16.589C22.643 16.5655 24.0564 16.6013 24.09 16.9485C24.1359 17.4402 22.4604 17.4357 22.2823 17.6877C21.6652 18.5546 19.3188 19.8381 19.3188 19.8381L17.9961 17.6787Z" fill="#EB9481"/>
<path d="M24.1273 16.9562C24.1028 16.864 24.0449 16.7842 23.9649 16.7322C23.7913 16.6113 23.5629 16.6001 23.359 16.5844C23.0499 16.5555 22.739 16.5529 22.4294 16.5765C22.4279 16.5765 22.4265 16.5771 22.4255 16.5782C22.4244 16.5792 22.4238 16.5807 22.4238 16.5821C22.4238 16.5836 22.4244 16.5851 22.4255 16.5861C22.4265 16.5872 22.4279 16.5877 22.4294 16.5877C22.6613 16.5877 22.8931 16.5933 23.1249 16.6124C23.3373 16.6213 23.548 16.6536 23.7533 16.7087C23.8461 16.7334 23.9299 16.7839 23.9952 16.8543C24.0183 16.8789 24.0349 16.9089 24.0433 16.9416C24.0517 16.9743 24.0517 17.0086 24.0433 17.0413C23.975 17.2553 23.5528 17.3191 23.3579 17.3628C23.1037 17.4199 22.8393 17.4748 22.5829 17.5218C22.5717 17.5218 22.5829 17.542 22.5885 17.5397C22.8539 17.4871 23.135 17.4658 23.4016 17.4177C23.6177 17.3785 23.8496 17.3348 24.0243 17.1937C24.0619 17.1676 24.0915 17.1316 24.1097 17.0896C24.1279 17.0477 24.134 17.0015 24.1273 16.9562Z" fill="#263238"/>
<path d="M20.1807 15.8975L20.2545 15.5193L24.6668 16.381C24.7068 16.3888 24.742 16.4121 24.7647 16.4459C24.7874 16.4797 24.7958 16.5211 24.788 16.561L24.773 16.6379C24.7652 16.6779 24.7419 16.7131 24.7081 16.7358C24.6743 16.7585 24.6329 16.7669 24.593 16.7591L20.1807 15.8975Z" fill="#039AE4"/>
<path opacity="0.1" d="M20.2535 15.5203L20.1797 15.8984L20.7117 16.0023L20.7856 15.6242L20.2535 15.5203Z" fill="black"/>
<path d="M18.5662 15.0387L18.4362 15.7107C18.3917 15.9379 18.4392 16.1735 18.5684 16.3657C18.6976 16.5579 18.8978 16.6909 19.125 16.7355C19.3523 16.78 19.5879 16.7325 19.7801 16.6033C19.9723 16.4741 20.1053 16.2739 20.1498 16.0467L20.2809 15.3747C20.3029 15.2621 20.3026 15.1462 20.2799 15.0338C20.2572 14.9213 20.2126 14.8144 20.1486 14.7192C20.0845 14.624 20.0024 14.5423 19.9068 14.4789C19.8113 14.4154 19.7041 14.3714 19.5915 14.3493C19.4789 14.3273 19.3631 14.3276 19.2506 14.3503C19.1382 14.373 19.0313 14.4176 18.9361 14.4816C18.7438 14.6109 18.6107 14.8113 18.5662 15.0387ZM20.0065 15.2056C19.983 15.305 19.9292 15.3947 19.8526 15.4623C19.7759 15.5299 19.6802 15.5721 19.5786 15.583C19.6682 15.6319 19.7406 15.7071 19.7863 15.7984C19.8319 15.8897 19.8486 15.9927 19.834 16.0937C19.7814 16.3603 19.4879 16.5283 19.1777 16.4678C18.8674 16.4073 18.658 16.1408 18.7095 15.8753C18.7335 15.7759 18.7876 15.6864 18.8644 15.6188C18.9411 15.5513 19.0369 15.5091 19.1385 15.4979C19.0485 15.4494 18.9757 15.3743 18.93 15.2829C18.8843 15.1915 18.8679 15.0882 18.8831 14.9872C18.9358 14.7195 19.2292 14.5537 19.5394 14.6142C19.8497 14.6747 20.0591 14.939 20.0065 15.2056Z" fill="#039AE4"/>
<path d="M20.2869 15.3484L20.1463 16.0684C20.1389 16.1067 20.1638 16.1438 20.2021 16.1512L20.2372 16.1581C20.2755 16.1656 20.3125 16.1406 20.32 16.1024L20.4606 15.3824C20.4681 15.3441 20.4431 15.3071 20.4049 15.2996L20.3697 15.2927C20.3315 15.2852 20.2944 15.3102 20.2869 15.3484Z" fill="#039AE4"/>
<path d="M20.4608 15.3836L20.3202 16.1036C20.3127 16.1418 20.3376 16.1789 20.3759 16.1864L20.4111 16.1932C20.4493 16.2007 20.4864 16.1758 20.4938 16.1375L20.6344 15.4175C20.6419 15.3793 20.617 15.3422 20.5787 15.3347L20.5435 15.3279C20.5053 15.3204 20.4682 15.3454 20.4608 15.3836Z" fill="#039AE4"/>
<path d="M23.6096 16.0129L23.7407 16.0386L23.8146 15.6567L23.9277 15.6791L23.8885 15.8785L24.0196 15.9042L24.0588 15.7049L24.1573 15.7239L24.0968 16.0386L24.2279 16.0644L24.2895 15.7497L24.4306 15.7777L24.3488 16.1977L24.4799 16.2235L24.5616 15.8035L24.6949 15.8292L24.5908 16.3657L23.417 16.1372L23.5212 15.5996L23.6836 15.6321L23.6096 16.0129Z" fill="#039AE4"/>
<path d="M8.5752 21.7909L14.827 21.894L14.3365 20.0213C14.4996 19.7863 14.6093 19.5185 14.6578 19.2365C14.7064 18.9546 14.6927 18.6655 14.6176 18.3895C14.4675 17.8384 13.7563 17.013 13.3195 16.4855C12.2578 15.2087 11.3349 15.7855 11.0403 16.1136C9.91696 17.3714 8.5752 21.7909 8.5752 21.7909Z" fill="#039AE4"/>
<path d="M11.654 16.8415V16.4854L11.8903 16.7497L12.1457 16.6702L12.0213 16.8942L12.1412 17.0196L11.9553 17.0386V17.2806L11.7514 17.1103L11.5857 17.2481L11.6047 17.0442L11.3628 16.9322L11.654 16.8415ZM14.3173 20.8433L14.1202 21.0236L13.9388 20.9273L14.0026 21.1345L13.7674 21.2566L13.9914 21.3529L13.9365 21.5321L14.1001 21.4694L14.2613 21.6732L14.286 21.4066L14.622 21.2946L14.2949 21.1524L14.3173 20.8433ZM12.0314 19.5138L12.2229 19.8946L12.4122 19.5306L12.7729 19.5934L12.5813 19.2103L12.849 18.955L12.4693 18.9684L12.3932 18.5966L12.1938 18.9818L11.6876 18.9426L11.9855 19.2506L11.71 19.4623L12.0314 19.5138ZM13.5221 17.313L13.614 17.1585L13.4415 17.1742L13.3821 17.0319L13.2892 17.1865L13.138 17.1495L13.2287 17.2817L13.1167 17.3937L13.2993 17.3769L13.4001 17.565L13.4415 17.3903L13.5781 17.4396L13.5221 17.313ZM10.59 21.3921L10.6818 21.2386L10.5105 21.2532L10.45 21.111L10.3581 21.2666L10.2069 21.2286L10.2977 21.3607L10.1857 21.4727L10.3682 21.457L10.469 21.6452L10.5105 21.4694L10.6482 21.5198L10.59 21.3921ZM11.6181 18.6156L11.71 18.4622L11.5375 18.4767L11.4781 18.3345L11.3863 18.4902L11.234 18.4521L11.3247 18.5842L11.2127 18.6962L11.3953 18.6806L11.4961 18.8676L11.5375 18.6929L11.6753 18.7422L11.6181 18.6156ZM10.5049 19.0322L10.4735 18.9314L10.413 19.0132L10.3268 18.983L10.3581 19.0849L10.2831 19.1364L10.3761 19.1487V19.2428L10.4399 19.1554L10.562 19.1857L10.5015 19.0983L10.5777 19.0569L10.5049 19.0322ZM13.4068 21.4346L13.3754 21.3338L13.3138 21.4156L13.2287 21.3865L13.2601 21.4873L13.1839 21.5399L13.278 21.5511V21.6452L13.3418 21.559L13.4639 21.5881L13.4034 21.5007L13.4796 21.4604L13.4068 21.4346ZM14.2748 18.507L14.3543 18.4364L14.2546 18.4151L14.2457 18.3244L14.1661 18.395L14.0877 18.3479L14.1157 18.4375L14.0317 18.4801L14.137 18.5025L14.1605 18.6268L14.2154 18.535L14.2837 18.5876L14.2748 18.507ZM12.7068 20.3986L12.7852 20.3281L12.6855 20.3068L12.6765 20.2161L12.5981 20.2866L12.5186 20.2396L12.5466 20.3292L12.4626 20.3718L12.5679 20.3942L12.5914 20.5185L12.6463 20.4266L12.7146 20.4793L12.7068 20.3986ZM9.47894 20.9922L9.55734 20.9217L9.45766 20.8993L9.44982 20.8086L9.3703 20.8802L9.29638 20.8321L9.32326 20.9228L9.23926 20.9642L9.34454 20.9878L9.36918 21.111L9.42294 21.0202L9.49126 21.0729L9.47894 20.9922Z" fill="white"/>
<path d="M12.6641 19.9113C12.9314 19.8866 13.2002 19.8821 13.4682 19.8978C13.6015 19.9068 13.7337 19.9225 13.8658 19.9415C13.9308 19.9505 13.9969 19.9572 14.063 19.9639C14.1321 19.9723 14.2021 19.9723 14.2713 19.9639C14.2713 19.9639 14.2791 19.9717 14.2713 19.974C14.2074 19.9883 14.1427 19.9988 14.0775 20.0053C14.0137 20.0093 13.9498 20.0093 13.886 20.0053C13.7516 19.9964 13.6161 19.9818 13.4817 19.9729C13.2095 19.9527 12.9374 19.9337 12.6641 19.9337C12.6562 19.9359 12.6562 19.9124 12.6641 19.9113Z" fill="#263238"/>
<path d="M12.0574 20.262C12.2699 20.2001 12.4856 20.15 12.7036 20.1119C12.8156 20.094 12.9276 20.0817 13.0329 20.0727L13.1908 20.0615C13.2491 20.0615 13.3028 20.0615 13.3655 20.0615C13.3723 20.0615 13.3734 20.0705 13.3655 20.0716C13.3107 20.0772 13.2535 20.0918 13.202 20.0996L13.0385 20.1254L12.7115 20.1769C12.4934 20.2082 12.2754 20.2433 12.0574 20.2822C12.0484 20.2822 12.0462 20.2654 12.0574 20.262Z" fill="#263238"/>
<path d="M11.6487 16.0437C11.6756 16.1557 12.2087 16.8781 12.7183 16.8534C12.8841 16.8445 12.8796 15.9373 12.8796 15.9373L12.8941 15.8701L13.1047 14.9304L12.0026 14.2248L11.8436 14.1318C11.8436 14.1318 11.8033 14.3928 11.7562 14.7176C11.7562 14.7333 11.7562 14.7478 11.7562 14.7635C11.7562 14.7792 11.7495 14.7994 11.7473 14.8173C11.7394 14.8654 11.7316 14.9147 11.726 14.964C11.7204 15.0133 11.7159 15.039 11.7114 15.076L11.698 15.1947C11.6625 15.4763 11.6461 15.7599 11.6487 16.0437Z" fill="#EB9481"/>
<path d="M11.7607 14.7165C11.8563 14.98 12.008 15.2196 12.2052 15.4188C12.4024 15.618 12.6406 15.7719 12.9031 15.8701L13.1047 14.9304L12.0027 14.2248L11.8436 14.1318C11.8436 14.1318 11.8033 14.3917 11.7607 14.7165Z" fill="#263238"/>
<path d="M14.4297 13.3962C14.7578 15.0538 13.8013 15.4369 13.4441 15.5074C13.1204 15.5713 12.0071 15.746 11.5098 14.1321C11.0125 12.5182 11.6801 11.8417 12.4148 11.6569C13.1495 11.4721 14.1026 11.7398 14.4297 13.3962Z" fill="#EB9481"/>
<path d="M13.9457 13.1431C13.9088 13.1515 13.8714 13.1579 13.8337 13.1622C13.7945 13.1751 13.7521 13.1751 13.7128 13.1622C13.7014 13.1553 13.6927 13.1449 13.6878 13.1326C13.6829 13.1202 13.6823 13.1066 13.6859 13.0939C13.697 13.0697 13.7144 13.0489 13.7363 13.0338C13.7582 13.0186 13.7837 13.0096 13.8102 13.0076C13.8631 12.9953 13.9187 13.0033 13.9659 13.03C13.9756 13.0371 13.9831 13.0467 13.9876 13.0578C13.9921 13.0689 13.9934 13.0811 13.9913 13.0929C13.9892 13.1047 13.9838 13.1157 13.9757 13.1246C13.9677 13.1334 13.9573 13.1399 13.9457 13.1431Z" fill="#263238"/>
<path d="M12.768 13.4827C12.8057 13.4769 12.8431 13.4691 12.88 13.4592C12.9214 13.4568 12.9608 13.4406 12.992 13.4132C13.0005 13.403 13.0051 13.3901 13.0051 13.3768C13.0051 13.3636 13.0005 13.3507 12.992 13.3404C12.9731 13.3216 12.9495 13.3083 12.9236 13.302C12.8978 13.2957 12.8707 13.2966 12.8453 13.3046C12.7913 13.3116 12.7421 13.3388 12.7075 13.3808C12.6998 13.3909 12.6952 13.4031 12.6944 13.4158C12.6937 13.4286 12.6968 13.4412 12.7033 13.4522C12.7098 13.4631 12.7194 13.4719 12.731 13.4773C12.7425 13.4828 12.7554 13.4846 12.768 13.4827Z" fill="#263238"/>
<path d="M13.0169 13.6953C13.0169 13.6953 13.009 13.6953 13.0102 13.7065C13.0303 13.8185 13.0348 13.9529 12.9385 14.0056C12.9385 14.0056 12.9385 14.0134 12.9385 14.0123C13.0628 13.9753 13.055 13.7984 13.0169 13.6953Z" fill="#263238"/>
<path d="M12.8986 13.5911C12.7138 13.6045 12.7542 13.9741 12.9255 13.9607C13.0969 13.9472 13.0532 13.5799 12.8986 13.5911Z" fill="#263238"/>
<path d="M12.8275 13.6192C12.7973 13.6427 12.7704 13.683 12.7312 13.692C12.692 13.701 12.6494 13.6662 12.6192 13.6326C12.6259 13.7032 12.6606 13.7726 12.7379 13.7749C12.8152 13.7771 12.8499 13.7088 12.86 13.636C12.8533 13.627 12.8398 13.6091 12.8275 13.6192Z" fill="#263238"/>
<path d="M13.7187 13.5879C13.7187 13.5879 13.7277 13.5879 13.7277 13.5969C13.7366 13.7089 13.7646 13.8421 13.8722 13.869V13.8757C13.7434 13.8713 13.7075 13.6977 13.7187 13.5879Z" fill="#263238"/>
<path d="M13.809 13.4581C13.9916 13.4256 14.0431 13.7941 13.874 13.8232C13.7049 13.8523 13.6556 13.4861 13.809 13.4581Z" fill="#263238"/>
<path d="M13.888 13.4716C13.9205 13.4872 13.9541 13.5186 13.9888 13.5152C14.0235 13.5119 14.0538 13.4682 14.0739 13.4268C14.0739 13.4268 14.0739 13.4268 14.0807 13.4268C14.0919 13.4962 14.0807 13.5735 14.0135 13.5959C13.9463 13.6183 13.9015 13.5634 13.8735 13.4951C13.869 13.4861 13.8757 13.4648 13.888 13.4716Z" fill="#263238"/>
<path d="M13.2258 14.6616C13.2549 14.6874 13.2851 14.7221 13.3266 14.7232C13.3693 14.7193 13.4109 14.7068 13.4486 14.6863C13.4486 14.6863 13.4554 14.6863 13.4486 14.6863C13.4338 14.7098 13.4128 14.7289 13.3879 14.7416C13.3631 14.7542 13.3353 14.7598 13.3075 14.758C13.2861 14.7533 13.2664 14.7429 13.2504 14.728C13.2344 14.713 13.2228 14.6939 13.2168 14.6728C13.2168 14.6728 13.2168 14.6583 13.2258 14.6616Z" fill="#263238"/>
<path d="M13.6523 14.1906C13.6523 14.1906 13.6971 14.3575 13.7072 14.4382C13.7072 14.446 13.6892 14.4516 13.6612 14.4572C13.5936 14.4781 13.5215 14.4801 13.4528 14.4629C13.384 14.4458 13.3213 14.4101 13.2715 14.3598C13.2715 14.353 13.2715 14.343 13.2827 14.3474C13.3939 14.4051 13.5209 14.4252 13.6444 14.4046C13.6444 14.3822 13.5582 14.1201 13.5705 14.1178C13.6338 14.1158 13.6971 14.1222 13.7587 14.1369C13.6769 13.7852 13.5347 13.4492 13.4619 13.0975C13.4619 13.0852 13.4776 13.0785 13.482 13.0897C13.6413 13.4449 13.7644 13.8152 13.8494 14.1951C13.8595 14.2399 13.687 14.1996 13.6523 14.1906Z" fill="#263238"/>
<path d="M13.6501 14.4278C13.6135 14.4991 13.5591 14.5597 13.4922 14.6037C13.455 14.6268 13.4116 14.6378 13.3679 14.635C13.2738 14.6272 13.2559 14.5443 13.2559 14.4704C13.2588 14.4324 13.2659 14.3948 13.2771 14.3584C13.3907 14.4211 13.5215 14.4455 13.6501 14.4278Z" fill="#263238"/>
<path d="M13.4922 14.604C13.455 14.6271 13.4116 14.6381 13.3679 14.6353C13.2738 14.6275 13.2559 14.5446 13.2559 14.4707C13.3045 14.4626 13.3545 14.4714 13.3975 14.4957C13.4405 14.5199 13.4739 14.5581 13.4922 14.604Z" fill="#FF9ABB"/>
<path d="M11.6942 14.2778C12.0112 14.2778 11.9899 13.5498 11.9899 13.5498C11.9899 13.5498 13.2846 13.1365 13.2443 12.0423C13.4738 12.4575 13.8545 12.7684 14.3072 12.9103C14.3072 12.9103 14.0933 11.7343 13.1222 11.6368C13.1222 11.6368 11.8981 11.3781 11.3739 12.3951C10.8497 13.412 11.4814 14.2812 11.6942 14.2778Z" fill="#263238"/>
<path d="M13.2377 11.9619C13.2763 12.1262 13.2798 12.2968 13.2478 12.4626C13.2187 12.6311 13.1546 12.7918 13.0596 12.9341C13.0361 12.9697 13.0103 13.0037 12.9823 13.036L12.9431 13.0864C12.9286 13.1021 12.9129 13.1166 12.8972 13.1312C12.8815 13.1458 12.8367 13.1906 12.8054 13.2186L12.7023 13.2947C12.6855 13.307 12.6687 13.3194 12.6508 13.3306L12.5959 13.3619L12.4839 13.4235C12.4078 13.4571 12.3294 13.4862 12.251 13.5142C12.3227 13.4706 12.3966 13.4347 12.466 13.391L12.5691 13.3216L12.6195 13.2869C12.6363 13.2746 12.6508 13.2611 12.6665 13.2477L12.7595 13.1693C12.7897 13.1413 12.8166 13.111 12.8446 13.0819L12.8871 13.0382L12.9241 12.9901C12.9496 12.9591 12.9732 12.9265 12.9947 12.8926C13.0855 12.7558 13.1518 12.6042 13.1907 12.4446C13.2107 12.3656 13.2246 12.2851 13.2321 12.2038C13.2404 12.1235 13.2423 12.0426 13.2377 11.9619Z" fill="#263238"/>
<path d="M11.2005 13.2822L11.1221 13.4413L11.6462 13.8243L11.8142 13.467L11.2005 13.2822ZM11.6093 13.6608L11.2475 13.4256L11.2643 13.3886L11.6709 13.5353L11.6093 13.6608Z" fill="#039AE4"/>
<path d="M11.2223 13.0009L11.21 13.1779L11.8405 13.3358L11.8618 12.9404L11.2223 13.0009ZM11.7442 13.1969L11.3197 13.1163V13.0748L11.752 13.058L11.7442 13.1969Z" fill="#039AE4"/>
<path d="M11.9368 14.1357C11.9368 14.1357 11.5124 13.6508 11.2895 13.8076C11.0666 13.9644 11.4239 14.6946 11.714 14.7674C11.7506 14.7796 11.7892 14.7842 11.8277 14.781C11.8661 14.7778 11.9035 14.7668 11.9375 14.7486C11.9716 14.7305 12.0016 14.7057 12.0257 14.6756C12.0499 14.6455 12.0676 14.6108 12.078 14.5737L11.9368 14.1357Z" fill="#EB9481"/>
<path d="M11.3975 14.0147C11.3975 14.0147 11.3975 14.0203 11.3975 14.0214C11.492 14.0564 11.5781 14.1109 11.6503 14.1813C11.7225 14.2518 11.779 14.3365 11.8163 14.4302C11.8029 14.4119 11.7856 14.3967 11.7657 14.3857C11.7457 14.3747 11.7236 14.3682 11.701 14.3666C11.6783 14.365 11.6555 14.3683 11.6342 14.3764C11.6129 14.3845 11.5937 14.3971 11.5778 14.4134C11.5778 14.4134 11.5778 14.4246 11.5845 14.4235C11.6175 14.4087 11.6544 14.4045 11.6899 14.4115C11.7254 14.4186 11.7578 14.4364 11.7827 14.4627C11.8251 14.5071 11.8626 14.5559 11.8947 14.6083C11.9048 14.6251 11.9362 14.6083 11.9272 14.5926C11.9003 14.3361 11.6685 14.0102 11.3975 14.0147Z" fill="#263238"/>
<path d="M10.6687 16.4869C9.2441 18.9442 7.11498 24.5845 6.7297 25.3909C6.46874 25.9386 9.33146 27.3823 9.45354 26.9835C9.6081 26.4739 11.595 19.904 11.7249 16.973C11.7854 15.6155 11.1246 15.7007 10.6687 16.4869Z" fill="#EB9481"/>
<path d="M8.28856 28.2382C8.43976 28.106 8.51256 28.1844 8.44424 28.5339C8.37592 28.8833 7.82264 30.2139 8.302 30.3651C8.78136 30.5163 9.534 28.6358 9.60344 28.0455C9.67288 27.4553 9.56536 26.4775 9.56536 26.4775C9.34472 26.8158 8.73656 27.5819 8.28856 28.2382Z" fill="#EB9481"/>
<path d="M9.12833 30.2915L5.54433 29.6464C5.43233 29.6374 5.36401 29.5635 5.38305 29.4806L5.71121 28.0157C5.72917 27.9724 5.76106 27.9363 5.80184 27.9131C5.84262 27.89 5.88995 27.8812 5.93633 27.888L9.52033 28.5297C9.63233 28.5398 9.70065 28.6137 9.68161 28.6955L9.35345 30.1605C9.33658 30.2048 9.30503 30.2419 9.26406 30.2658C9.22309 30.2896 9.17519 30.2987 9.12833 30.2915Z" fill="#A6A6A6"/>
<path d="M9.16992 30.1192L5.5792 29.4741C5.4672 29.464 5.4 29.3901 5.41792 29.3083L5.7472 27.8434C5.76386 27.7992 5.7952 27.762 5.83598 27.7382C5.87676 27.7143 5.9245 27.7052 5.9712 27.7123L9.56192 28.3575C9.67392 28.3664 9.74112 28.4403 9.7232 28.5221L9.39728 29.9882C9.38015 30.0328 9.34822 30.0701 9.30682 30.094C9.26543 30.1178 9.2171 30.1268 9.16992 30.1192Z" fill="#C7C7C7"/>
<path d="M9.10264 29.6548C9.01976 29.6234 8.94136 29.6548 8.92792 29.7242C8.92612 29.764 8.93756 29.8033 8.96046 29.8359C8.98336 29.8686 9.01642 29.8927 9.05448 29.9045C9.13736 29.9359 9.21576 29.9045 9.2292 29.8362C9.23125 29.7962 9.21993 29.7566 9.19701 29.7238C9.17409 29.6909 9.14089 29.6666 9.10264 29.6548Z" fill="#263238"/>
<path d="M6.92112 25.1328C6.18976 26.1184 5.5424 27.2787 5.52672 28.5611C5.52198 28.7036 5.56494 28.8435 5.6488 28.9587C5.632 29.5322 5.89744 29.7136 5.89744 29.7136C6.04528 30.2523 6.34544 30.4002 6.34544 30.4002C6.34544 30.4002 6.388 30.8627 6.71392 30.856C7.03984 30.8493 7.21904 30.0911 7.49792 29.5378C8.15088 28.2677 9.33808 26.8251 9.56208 26.4779L6.92112 25.1328Z" fill="#EB9481"/>
<path d="M7.15397 27.9065C6.95916 28.2762 6.78965 28.6586 6.64661 29.0512C6.5164 29.4913 6.41906 29.9406 6.35541 30.3952C6.35541 30.3981 6.35423 30.401 6.35213 30.4031C6.35003 30.4052 6.34718 30.4064 6.34421 30.4064C6.34124 30.4064 6.33839 30.4052 6.33629 30.4031C6.33419 30.401 6.33301 30.3981 6.33301 30.3952C6.36866 29.507 6.64677 28.6456 7.13717 27.9043C7.14837 27.8808 7.16853 27.8886 7.15397 27.9065Z" fill="#263238"/>
<path d="M6.44491 27.4012C6.28587 27.7786 6.01035 28.4428 5.91067 29.7151C5.91067 29.7151 5.90395 29.7151 5.90283 29.7151C5.85926 28.9076 6.04071 28.1038 6.42699 27.3933C6.43931 27.3709 6.45611 27.3754 6.44491 27.4012Z" fill="#263238"/>
<path d="M6.05907 27.1364C5.81267 27.7883 5.73875 28.2307 5.65139 28.9553H5.64355C5.65699 28.1209 5.75555 27.8185 6.03779 27.1241C6.04787 27.1039 6.06803 27.1107 6.05907 27.1364Z" fill="#263238"/>
</svg>
