<svg width="400" height="400" viewBox="0 0 400 400" fill="none" xmlns="http://www.w3.org/2000/svg">
<path d="M314.28 124.2C314.28 124.2 281.04 78.6637 237.672 59.8797C194.304 41.0957 143.72 50.4797 110.472 85.8957C77.2243 121.312 90.9683 177.68 74.3443 228.992C57.7203 280.304 70.7283 332.336 124.936 347.512C179.144 362.688 192.864 325.832 250.68 311.376C308.496 296.92 386.552 232.608 314.28 124.2Z" fill="#039AE4"/>
<path opacity="0.7" d="M314.28 124.2C314.28 124.2 281.04 78.6637 237.672 59.8797C194.304 41.0957 143.72 50.4797 110.472 85.8957C77.2243 121.312 90.9683 177.68 74.3443 228.992C57.7203 280.304 70.7283 332.336 124.936 347.512C179.144 362.688 192.864 325.832 250.68 311.376C308.496 296.92 386.552 232.608 314.28 124.2Z" fill="white"/>
<path d="M214.943 335.577V328.305H193.503V335.577C193.505 337.952 192.704 340.258 191.231 342.121L190.287 343.313H218.159L217.223 342.121C215.744 340.26 214.94 337.953 214.943 335.577Z" fill="white" stroke="#263238" stroke-linecap="round" stroke-linejoin="round"/>
<g style="mix-blend-mode:multiply">
<path d="M192.191 340.681H216.263C215.396 339.12 214.941 337.363 214.943 335.577V328.305H193.503V335.577C193.504 337.362 193.053 339.118 192.191 340.681Z" fill="#039AE4"/>
</g>
<path d="M214.944 329.4H193.504V332.472H214.944V329.4Z" fill="#263238" stroke="#263238" stroke-width="1.09543" stroke-linecap="round" stroke-linejoin="round"/>
<path d="M239.872 265.977H168.576C164.471 265.977 161.144 269.304 161.144 273.409V323.169C161.144 327.273 164.471 330.601 168.576 330.601H239.872C243.976 330.601 247.304 327.273 247.304 323.169V273.409C247.304 269.304 243.976 265.977 239.872 265.977Z" fill="#263238" stroke="#263238" stroke-width="1.09543" stroke-linecap="round" stroke-linejoin="round"/>
<path d="M161.144 320.551H247.304V323.199C247.304 324.175 247.111 325.141 246.738 326.043C246.364 326.945 245.817 327.764 245.127 328.454C244.437 329.144 243.617 329.692 242.716 330.065C241.814 330.439 240.848 330.631 239.872 330.631H168.576C167.6 330.631 166.633 330.439 165.731 330.065C164.83 329.692 164.01 329.144 163.32 328.454C162.63 327.764 162.083 326.945 161.709 326.043C161.336 325.141 161.144 324.175 161.144 323.199V320.591V320.551Z" fill="white" stroke="#263238" stroke-linecap="round" stroke-linejoin="round"/>
<path d="M242.975 269.992H165.479V315.648H242.975V269.992Z" fill="#039AE4" stroke="#263238" stroke-width="1.09543" stroke-linecap="round" stroke-linejoin="round"/>
<path d="M205.815 325.6C205.815 325.284 205.721 324.974 205.546 324.711C205.37 324.448 205.12 324.243 204.828 324.122C204.535 324.001 204.213 323.969 203.903 324.031C203.593 324.092 203.308 324.245 203.084 324.469C202.86 324.692 202.708 324.977 202.646 325.288C202.584 325.598 202.616 325.92 202.737 326.212C202.858 326.505 203.063 326.755 203.326 326.93C203.589 327.106 203.899 327.2 204.215 327.2C204.64 327.2 205.047 327.031 205.347 326.731C205.647 326.431 205.815 326.024 205.815 325.6Z" fill="#263238" stroke="#263238" stroke-width="1.09543" stroke-linecap="round" stroke-linejoin="round"/>
<path d="M218.159 343.312H190.287V344.608H218.159V343.312Z" fill="white" stroke="#263238" stroke-linecap="round" stroke-linejoin="round"/>
<path d="M194.399 269.272C194.399 269.272 190.631 268.224 187.903 270.32C185.175 272.416 184.975 277.856 186.647 280.584C188.319 283.312 190.647 284.976 187.695 286.864C184.743 288.752 182.671 290.008 183.087 293.352C183.503 296.696 186.647 301.104 191.671 301.312C196.695 301.52 202.775 297.128 202.775 292.312C202.775 287.496 199.215 284.352 200.471 281.632C201.727 278.912 205.495 275.344 202.567 271.576C199.639 267.808 194.399 269.272 194.399 269.272Z" fill="#263238" stroke="#263238" stroke-linecap="round" stroke-linejoin="round"/>
<path d="M231.295 314.952L222.783 296.848H184.351L177.151 314.952H231.295Z" fill="white" stroke="#263238" stroke-linecap="round" stroke-linejoin="round"/>
<path d="M216.944 314.952L222.784 296.848L203.496 286.344L184.352 296.848L188.896 314.952H216.944Z" fill="white" stroke="#263238" stroke-linecap="round" stroke-linejoin="round"/>
<path d="M200.191 288.152L194.711 291.2C193.703 293.928 192.799 298.112 195.511 300.512C197.191 302.032 203.671 297.168 203.671 297.168C203.671 297.168 208.279 302.192 212.047 300.512C214.719 299.328 213.503 294.584 211.895 290.912L205.919 287.664L200.191 288.152Z" fill="white" stroke="#263238" stroke-linecap="round" stroke-linejoin="round"/>
<path d="M198.216 281.441V289.441L200.256 295.393C200.46 295.995 200.849 296.518 201.368 296.887C201.887 297.256 202.509 297.451 203.145 297.446C203.782 297.441 204.4 297.235 204.913 296.857C205.425 296.48 205.806 295.951 206 295.345L207.96 289.321V280.977L198.216 281.441Z" fill="white" stroke="#263238" stroke-linecap="round" stroke-linejoin="round"/>
<path d="M196.111 272.407C196.111 272.407 194.087 268.815 192.967 270.807C191.847 272.799 193.415 277.087 194.087 278.207C194.759 279.327 195.887 277.535 195.887 277.535" fill="white"/>
<path d="M196.111 272.407C196.111 272.407 194.087 268.815 192.967 270.807C191.847 272.799 193.415 277.087 194.087 278.207C194.759 279.327 195.887 277.535 195.887 277.535" stroke="#263238" stroke-linecap="round" stroke-linejoin="round"/>
<path d="M210.56 272.407C210.56 272.407 212.584 268.815 213.704 270.807C214.824 272.799 213.256 277.087 212.584 278.207C211.912 279.327 210.784 277.535 210.784 277.535" fill="white"/>
<path d="M210.56 272.407C210.56 272.407 212.584 268.815 213.704 270.807C214.824 272.799 213.256 277.087 212.584 278.207C211.912 279.327 210.784 277.535 210.784 277.535" stroke="#263238" stroke-linecap="round" stroke-linejoin="round"/>
<path d="M211.575 271.735C211.575 278.047 207.863 286.751 203.279 286.751C198.695 286.751 194.983 278.047 194.983 271.735C194.983 265.423 198.703 260.295 203.279 260.295C207.855 260.295 211.575 265.415 211.575 271.735Z" fill="white" stroke="#263238" stroke-linecap="round" stroke-linejoin="round"/>
<path d="M200.072 266.76C200.072 266.76 201.752 262.992 204.472 266.76C207.192 270.528 205.936 273.256 208.24 274.088C208.831 274.349 209.496 274.387 210.113 274.194C210.73 274.001 211.255 273.591 211.592 273.04C211.592 273.04 218.088 268.648 211.592 261.528C210.324 260.151 208.763 259.076 207.023 258.384C205.284 257.691 203.412 257.399 201.544 257.528C198.192 257.744 197.776 261.928 197.776 261.928C197.776 261.928 195.256 261.304 194.216 264.232C193.176 267.16 195.256 275.328 195.256 273.24C195.256 271.152 197.984 264.664 200.072 266.76Z" fill="#263238" stroke="#263238" stroke-linecap="round" stroke-linejoin="round"/>
<path d="M315.92 233.841V226.561H294.48V233.841C294.481 236.217 293.678 238.524 292.2 240.385L291.264 241.601H319.136L318.192 240.417C316.713 238.544 315.912 236.226 315.92 233.841Z" fill="white" stroke="#263238" stroke-linecap="round" stroke-linejoin="round"/>
<g style="mix-blend-mode:multiply">
<path d="M293.16 238.937H317.232C316.371 237.376 315.92 235.623 315.92 233.841V226.561H294.48V233.841C294.481 235.624 294.027 237.378 293.16 238.937Z" fill="#039AE4"/>
</g>
<path d="M315.92 227.656H294.48V230.728H315.92V227.656Z" fill="#263238" stroke="#263238" stroke-width="1.09543" stroke-linecap="round" stroke-linejoin="round"/>
<path d="M340.848 164.232H269.552C265.448 164.232 262.12 167.56 262.12 171.664V221.424C262.12 225.529 265.448 228.856 269.552 228.856H340.848C344.953 228.856 348.28 225.529 348.28 221.424V171.664C348.28 167.56 344.953 164.232 340.848 164.232Z" fill="#263238" stroke="#263238" stroke-width="1.09543" stroke-linecap="round" stroke-linejoin="round"/>
<path d="M262.12 218.809H348.28V221.417C348.28 222.393 348.088 223.359 347.714 224.261C347.341 225.162 346.793 225.982 346.103 226.672C345.413 227.362 344.594 227.909 343.692 228.283C342.791 228.656 341.824 228.849 340.848 228.849H269.552C268.576 228.849 267.61 228.656 266.708 228.283C265.806 227.909 264.987 227.362 264.297 226.672C263.607 225.982 263.059 225.162 262.686 224.261C262.312 223.359 262.12 222.393 262.12 221.417V218.809Z" fill="white" stroke="#263238" stroke-linecap="round" stroke-linejoin="round"/>
<path d="M343.944 168.256H266.448V213.912H343.944V168.256Z" fill="#039AE4" stroke="#263238" stroke-width="1.09543" stroke-linecap="round" stroke-linejoin="round"/>
<path d="M306.784 223.832C306.784 223.516 306.69 223.207 306.514 222.944C306.339 222.68 306.089 222.475 305.796 222.354C305.504 222.233 305.182 222.201 304.872 222.263C304.561 222.325 304.276 222.477 304.053 222.701C303.829 222.925 303.676 223.21 303.615 223.52C303.553 223.831 303.585 224.152 303.706 224.445C303.827 224.737 304.032 224.987 304.295 225.163C304.558 225.339 304.868 225.432 305.184 225.432C305.608 225.432 306.015 225.264 306.315 224.964C306.615 224.664 306.784 224.257 306.784 223.832Z" fill="#263238" stroke="#263238" stroke-width="1.09543" stroke-linecap="round" stroke-linejoin="round"/>
<path d="M319.136 241.568H291.264V242.864H319.136V241.568Z" fill="white" stroke="#263238" stroke-linecap="round" stroke-linejoin="round"/>
<path d="M332.12 213.583L323.752 195.791H285.32L278.256 213.583H332.12Z" fill="white" stroke="#263238" stroke-linecap="round" stroke-linejoin="round"/>
<path d="M323.752 213.583V195.791L308.872 187.255L304.464 185.287L299.504 187.255L285.32 195.791V213.583H323.752Z" fill="white" stroke="#263238" stroke-linecap="round" stroke-linejoin="round"/>
<path d="M301 198.399L303.624 202.527L302.312 213.399H307L304.752 202.527L307.752 198.215L303.816 193.711L301 198.399Z" fill="#263238" stroke="#263238" stroke-linecap="round" stroke-linejoin="round"/>
<path d="M304.176 197.272L300.064 200.464L297.064 189.024L299.504 187.256H308.872L310.936 188.656L309.248 200.648L304.176 197.272Z" fill="white" stroke="#263238" stroke-linecap="round" stroke-linejoin="round"/>
<path d="M299.185 180.384V188.392L304.177 197.272L308.937 188.28V179.92L299.185 180.384Z" fill="white" stroke="#263238" stroke-linecap="round" stroke-linejoin="round"/>
<path d="M297.08 171.352C297.08 171.352 295.064 167.76 293.944 169.752C292.824 171.744 294.392 176.024 295.064 177.152C295.736 178.28 296.856 176.48 296.856 176.48" fill="white"/>
<path d="M297.08 171.352C297.08 171.352 295.064 167.76 293.944 169.752C292.824 171.744 294.392 176.024 295.064 177.152C295.736 178.28 296.856 176.48 296.856 176.48" stroke="#263238" stroke-linecap="round" stroke-linejoin="round"/>
<path d="M311.536 171.352C311.536 171.352 313.552 167.76 314.672 169.752C315.792 171.744 314.224 176.024 313.552 177.152C312.88 178.28 311.76 176.48 311.76 176.48" fill="white"/>
<path d="M311.536 171.352C311.536 171.352 313.552 167.76 314.672 169.752C315.792 171.744 314.224 176.024 313.552 177.152C312.88 178.28 311.76 176.48 311.76 176.48" stroke="#263238" stroke-linecap="round" stroke-linejoin="round"/>
<path d="M312.552 170.68C312.552 176.992 308.84 185.704 304.256 185.704C299.672 185.704 296 176.992 296 170.68C296 164.368 299.712 159.24 304.296 159.24C308.88 159.24 312.552 164.36 312.552 170.68Z" fill="white" stroke="#263238" stroke-linecap="round" stroke-linejoin="round"/>
<path d="M294.256 204.96L300.16 213.584H308.52L314.688 207.208L310.752 202.336L315.624 201.96L315.064 191.088L310.936 188.656L304 213.4L297.064 189.024L293.688 191.088L292.376 200.84L296.504 201.584L294.256 204.96Z" fill="white" stroke="#263238" stroke-linecap="round" stroke-linejoin="round"/>
<path d="M295.944 172.344C295.944 172.344 297.8 172.584 297.44 171.968C297.08 171.352 297.44 169.16 297.44 169.16C297.868 168.818 298.192 168.363 298.377 167.848C298.753 166.912 297.816 165.592 297.816 164.472C297.816 163.352 303.625 165.592 304.561 165.592C305.497 165.592 310.753 164.28 310.753 164.28C310.753 164.28 309.809 167.656 310.377 168.032C310.945 168.408 311.313 170.096 311.313 170.096C311.313 170.096 310.753 173.096 310.937 173.656C311.121 174.216 312.248 174.592 312.44 174.032C312.632 173.472 312.625 168.592 312.625 168.592C312.625 168.592 313.937 168.784 313.937 166.192C313.937 163.6 312.441 157.752 309.809 156.632C307.177 155.512 301.193 155.504 298.753 156.816C296.313 158.128 294.624 164.128 295.192 166.192C295.604 168.22 295.855 170.277 295.944 172.344Z" fill="#263238" stroke="#263238" stroke-linecap="round" stroke-linejoin="round"/>
<path d="M214.943 134.561V127.281H193.503V134.561C193.503 136.934 192.703 139.236 191.231 141.097L190.287 142.289H218.159L217.223 141.097C215.746 139.239 214.942 136.935 214.943 134.561Z" fill="white" stroke="#263238" stroke-linecap="round" stroke-linejoin="round"/>
<g style="mix-blend-mode:multiply">
<path d="M192.191 139.657H216.263C215.397 138.099 214.942 136.345 214.943 134.561V127.281H193.503V134.561C193.503 136.343 193.052 138.097 192.191 139.657Z" fill="#039AE4"/>
</g>
<path d="M214.944 128.377H193.504V131.449H214.944V128.377Z" fill="#263238" stroke="#263238" stroke-width="1.09543" stroke-linecap="round" stroke-linejoin="round"/>
<path d="M239.872 64.9531H168.576C164.471 64.9531 161.144 68.2805 161.144 72.3851V122.145C161.144 126.25 164.471 129.577 168.576 129.577H239.872C243.976 129.577 247.304 126.25 247.304 122.145V72.3851C247.304 68.2805 243.976 64.9531 239.872 64.9531Z" fill="#263238" stroke="#263238" stroke-width="1.09543" stroke-linecap="round" stroke-linejoin="round"/>
<path d="M161.144 119.527H247.304V122.135C247.304 124.106 246.521 125.997 245.127 127.391C243.733 128.784 241.843 129.567 239.872 129.567H168.576C166.604 129.567 164.714 128.784 163.32 127.391C161.927 125.997 161.144 124.106 161.144 122.135V119.527Z" fill="white" stroke="#263238" stroke-linecap="round" stroke-linejoin="round"/>
<path d="M242.975 68.9688H165.479V114.625H242.975V68.9688Z" fill="#039AE4" stroke="#263238" stroke-width="1.09543" stroke-linecap="round" stroke-linejoin="round"/>
<path d="M204.224 126.145C205.103 126.145 205.816 125.432 205.816 124.553C205.816 123.674 205.103 122.961 204.224 122.961C203.345 122.961 202.632 123.674 202.632 124.553C202.632 125.432 203.345 126.145 204.224 126.145Z" fill="#263238" stroke="#263238" stroke-width="1.09543" stroke-linecap="round" stroke-linejoin="round"/>
<path d="M218.159 142.289H190.287V143.585H218.159V142.289Z" fill="white" stroke="#263238" stroke-linecap="round" stroke-linejoin="round"/>
<path d="M231.295 114.424L222.783 96.3203H184.351L177.151 114.424H231.295Z" fill="white" stroke="#263238" stroke-linecap="round" stroke-linejoin="round"/>
<path d="M190.632 73.6718C190.632 73.6718 189.248 80.1278 190.632 82.7598C192.016 85.3918 193.968 88.5438 192.912 90.8238C191.856 93.1038 190.808 93.6238 190.456 98.0238C190.104 102.424 197.12 111.168 205.184 110.288C213.248 109.408 217.984 102.752 216.576 97.3198C215.168 91.8878 212.896 91.1838 213.592 87.7198C214.288 84.2558 216.048 81.9358 215.192 77.2078C214.336 72.4798 210.112 64.7598 205.032 63.0078C199.952 61.2558 196.752 63.7118 194.864 67.0078C192.976 70.3038 190.968 72.3038 190.632 73.6718Z" fill="#263238" stroke="#263238" stroke-linecap="round" stroke-linejoin="round"/>
<path d="M216.944 114.424L222.784 96.3204L203.496 85.8164L184.352 96.3204L188.896 114.424H216.944Z" fill="white" stroke="#263238" stroke-linecap="round" stroke-linejoin="round"/>
<path d="M195.976 89.9444L193.976 96.0804L198.536 97.3044L194.504 100.288L202.92 108.52L210.808 101.16L206.952 97.4804L212.384 96.0804L210.96 89.8884L203.496 85.8164L195.976 89.9444Z" fill="white" stroke="#263238" stroke-linecap="round" stroke-linejoin="round"/>
<path d="M198.216 80.9132V88.9212L203.2 103.441L207.96 88.8012V80.4492L198.216 80.9132Z" fill="white" stroke="#263238" stroke-linecap="round" stroke-linejoin="round"/>
<path d="M196.111 71.8795C196.111 71.8795 194.087 68.2875 192.967 70.2795C191.847 72.2715 193.415 76.5515 194.087 77.6795C194.759 78.8075 195.887 76.9995 195.887 76.9995" fill="white"/>
<path d="M196.111 71.8795C196.111 71.8795 194.087 68.2875 192.967 70.2795C191.847 72.2715 193.415 76.5515 194.087 77.6795C194.759 78.8075 195.887 76.9995 195.887 76.9995" stroke="#263238" stroke-linecap="round" stroke-linejoin="round"/>
<path d="M210.56 71.8795C210.56 71.8795 212.584 68.2875 213.704 70.2795C214.824 72.2715 213.256 76.5515 212.584 77.6795C211.912 78.8075 210.784 76.9995 210.784 76.9995" fill="white"/>
<path d="M210.56 71.8795C210.56 71.8795 212.584 68.2875 213.704 70.2795C214.824 72.2715 213.256 76.5515 212.584 77.6795C211.912 78.8075 210.784 76.9995 210.784 76.9995" stroke="#263238" stroke-linecap="round" stroke-linejoin="round"/>
<path d="M211.575 71.1998C211.575 77.5118 207.863 86.2238 203.279 86.2238C198.695 86.2238 194.983 77.5198 194.983 71.1998C194.983 64.8798 198.703 59.7598 203.279 59.7598C207.855 59.7598 211.575 64.8878 211.575 71.1998Z" fill="white" stroke="#263238" stroke-linecap="round" stroke-linejoin="round"/>
<path d="M201.688 62.9514C201.688 61.0954 201.128 58.5994 198.552 59.4634C195.52 60.4954 193.52 66.9754 192.056 69.6154C191.305 70.8542 190.82 72.2354 190.632 73.6714C189.912 78.1514 193.632 81.8794 193.632 81.8794C193.632 81.8794 192.752 77.1514 193.28 73.9914C193.576 72.2314 194.464 71.5914 196.016 70.9594C199.568 69.5994 201.688 66.9754 201.688 62.9514Z" fill="#263238" stroke="#263238" stroke-linecap="round" stroke-linejoin="round"/>
<path d="M217.776 71.7603C216.643 69.855 215.236 68.127 213.6 66.6323C211.672 64.7043 210.624 59.9763 206.24 58.3923C201.856 56.8083 199.928 58.9203 200.104 62.0803C200.131 62.5856 200.195 63.0883 200.296 63.5843C200.292 63.6081 200.292 63.6324 200.296 63.6563C200.296 63.6563 200.296 63.7363 200.376 63.8883C200.506 64.7334 200.911 65.512 201.528 66.1043L201.64 66.1843C202.538 67.4795 203.556 68.6875 204.68 69.7923C208.36 73.4723 212.92 76.8003 213.096 80.6563C213.232 83.8083 212.104 86.2563 211.496 89.4563H211.344C210.997 91.1682 210.282 92.7842 209.248 94.1923C207.648 96.1203 207.488 97.5203 211.176 97.6963C216.104 97.9283 218.56 91.3923 219.24 87.4243C219.914 83.7533 219.941 79.9926 219.32 76.3123C219.05 74.7227 218.529 73.1861 217.776 71.7603Z" fill="#263238" stroke="#263238" stroke-linecap="round" stroke-linejoin="round"/>
<path d="M113.975 233.839V226.559H92.5353V233.839C92.5331 236.214 91.7298 238.52 90.2553 240.383L89.3193 241.599H117.183L116.247 240.415C114.768 238.542 113.967 236.224 113.975 233.839Z" fill="white" stroke="#263238" stroke-linecap="round" stroke-linejoin="round"/>
<g style="mix-blend-mode:multiply">
<path d="M91.2002 238.935H115.272C114.412 237.374 113.96 235.621 113.96 233.839V226.559H92.5202V233.839C92.5174 235.621 92.0633 237.375 91.2002 238.935Z" fill="#039AE4"/>
</g>
<path d="M113.976 227.656H92.5361V230.728H113.976V227.656Z" fill="#263238" stroke="#263238" stroke-width="1.09543" stroke-linecap="round" stroke-linejoin="round"/>
<path d="M138.904 164.232H67.6078C63.5032 164.232 60.1758 167.56 60.1758 171.664V221.424C60.1758 225.529 63.5032 228.856 67.6078 228.856H138.904C143.008 228.856 146.336 225.529 146.336 221.424V171.664C146.336 167.56 143.008 164.232 138.904 164.232Z" fill="#263238" stroke="#263238" stroke-width="1.09543" stroke-linecap="round" stroke-linejoin="round"/>
<path d="M60.1758 218.807H146.336V221.415C146.336 222.391 146.144 223.357 145.77 224.259C145.397 225.16 144.849 225.98 144.159 226.67C143.469 227.36 142.65 227.907 141.748 228.281C140.846 228.654 139.88 228.847 138.904 228.847H67.6078C66.6318 228.847 65.6654 228.654 64.7637 228.281C63.862 227.907 63.0427 227.36 62.3526 226.67C61.6624 225.98 61.115 225.16 60.7415 224.259C60.368 223.357 60.1758 222.391 60.1758 221.415V218.807Z" fill="white" stroke="#263238" stroke-linecap="round" stroke-linejoin="round"/>
<path d="M142 168.256H64.5039V213.912H142V168.256Z" fill="#039AE4" stroke="#263238" stroke-width="1.09543" stroke-linecap="round" stroke-linejoin="round"/>
<path d="M104.84 223.832C104.84 223.516 104.746 223.207 104.57 222.944C104.394 222.68 104.144 222.475 103.852 222.354C103.56 222.233 103.238 222.201 102.928 222.263C102.617 222.325 102.332 222.477 102.108 222.701C101.885 222.925 101.732 223.21 101.67 223.52C101.609 223.831 101.64 224.152 101.761 224.445C101.883 224.737 102.088 224.987 102.351 225.163C102.614 225.339 102.923 225.432 103.24 225.432C103.664 225.432 104.071 225.264 104.371 224.964C104.671 224.664 104.84 224.257 104.84 223.832Z" fill="#263238" stroke="#263238" stroke-width="1.09543" stroke-linecap="round" stroke-linejoin="round"/>
<path d="M117.191 241.568H89.3193V242.864H117.191V241.568Z" fill="white" stroke="#263238" stroke-linecap="round" stroke-linejoin="round"/>
<path d="M130.32 213.712L121.808 195.6H83.3756L76.1836 213.712H130.32Z" fill="white" stroke="#263238" stroke-linecap="round" stroke-linejoin="round"/>
<path d="M121.808 213.712V195.6L109.36 187.072L102.52 185.096L95.68 187.072L83.376 195.6V213.712H121.808Z" fill="white" stroke="#263238" stroke-linecap="round" stroke-linejoin="round"/>
<path d="M98.4003 183.512C98.4003 183.512 95.6642 184.312 95.1122 184.88C94.5602 185.448 94.1523 188.304 93.6083 189.808C93.0643 191.312 91.2803 193.912 91.8323 194.048C92.3843 194.184 97.0323 191.856 97.0323 191.856L102.368 197.904L107.432 191.584C107.432 191.584 111.432 194.6 111.672 194.184C111.912 193.768 109.896 188.848 109.76 186.792C109.624 184.736 106.608 184.056 104.832 183.92C103.056 183.784 98.4003 183.512 98.4003 183.512Z" fill="white" stroke="#263238" stroke-linecap="round" stroke-linejoin="round"/>
<path d="M97.2402 180.201V188.201L102.232 197.393L106.992 188.089V179.729L97.2402 180.201Z" fill="white" stroke="#263238" stroke-linecap="round" stroke-linejoin="round"/>
<path d="M95.1354 171.2C95.1354 171.2 93.1194 167.616 91.9994 169.6C90.8794 171.584 92.4474 175.88 93.1194 177C93.7914 178.12 94.9114 176.328 94.9114 176.328" fill="white"/>
<path d="M95.1354 171.2C95.1354 171.2 93.1194 167.616 91.9994 169.6C90.8794 171.584 92.4474 175.88 93.1194 177C93.7914 178.12 94.9114 176.328 94.9114 176.328" stroke="#263238" stroke-linecap="round" stroke-linejoin="round"/>
<path d="M109.6 171.2C109.6 171.2 111.616 167.616 112.736 169.6C113.856 171.584 112.288 175.88 111.616 177C110.944 178.12 109.824 176.328 109.824 176.328" fill="white"/>
<path d="M109.6 171.2C109.6 171.2 111.616 167.616 112.736 169.6C113.856 171.584 112.288 175.88 111.616 177C110.944 178.12 109.824 176.328 109.824 176.328" stroke="#263238" stroke-linecap="round" stroke-linejoin="round"/>
<path d="M110.608 170.487C110.608 176.799 106.896 185.511 102.312 185.511C97.7276 185.511 94.0156 176.799 94.0156 170.487C94.0156 164.175 97.7276 159.055 102.312 159.055C106.896 159.055 110.608 164.175 110.608 170.487Z" fill="white" stroke="#263238" stroke-linecap="round" stroke-linejoin="round"/>
<path d="M108.847 167.319C108.847 167.319 108.263 168.919 108.959 169.639C109.655 170.359 109.543 171.375 109.423 172.767C109.303 174.159 109.655 174.975 110.119 174.511C110.583 174.047 111.047 167.551 111.047 167.087C111.047 166.623 108.847 167.319 108.847 167.319Z" fill="#263238" stroke="#263238" stroke-linecap="round" stroke-linejoin="round"/>
<path d="M94.112 169.52L94.344 173.12C94.4353 173.152 94.5322 173.166 94.6289 173.16C94.7255 173.154 94.82 173.128 94.9067 173.085C94.9933 173.042 95.0703 172.981 95.1331 172.907C95.1959 172.834 95.2431 172.748 95.272 172.656C95.504 171.96 94.92 169.752 95.504 168.592C96.088 167.432 98.288 166.856 98.4 166.04C98.512 165.224 97.24 163.72 97.24 163.144C97.24 162.568 97.592 161.984 100.488 164.744C103.384 167.504 108.728 168.104 111.512 167.408C114.296 166.712 110.936 162.536 110.24 161.608C109.544 160.68 112.096 161.376 110.704 159.056C109.312 156.736 104.432 155.224 99.56 156.968C94.688 158.712 91.904 161.144 92.6 163.584C93.296 166.024 94.112 169.52 94.112 169.52Z" fill="#263238" stroke="#263238" stroke-linecap="round" stroke-linejoin="round"/>
<path d="M204.552 228.688V253.816" stroke="#263238" stroke-width="2" stroke-miterlimit="10"/>
<path d="M200.479 252.625L204.551 259.665L208.615 252.625H200.479Z" fill="#263238"/>
<path d="M204.552 174.888V149.76" stroke="#263238" stroke-width="2" stroke-miterlimit="10"/>
<path d="M208.615 150.952L204.551 143.912L200.479 150.952H208.615Z" fill="#263238"/>
<path d="M177.655 201.793H152.527" stroke="#263238" stroke-width="2" stroke-miterlimit="10"/>
<path d="M153.72 197.721L146.672 201.793L153.72 205.857V197.721Z" fill="#263238"/>
<path d="M160.823 138.793L142.447 157.169" stroke="#263238" stroke-width="2" stroke-miterlimit="10"/>
<path d="M157.104 136.752L164.96 134.648L162.856 142.512L157.104 136.752Z" fill="#263238"/>
<path d="M140.408 153.449L138.304 161.313L146.168 159.209L140.408 153.449Z" fill="#263238"/>
<path d="M249.544 138.793L267.92 157.169" stroke="#263238" stroke-width="2" stroke-miterlimit="10"/>
<path d="M247.503 142.512L245.399 134.648L253.255 136.76L247.503 142.512Z" fill="#263238"/>
<path d="M264.199 159.209L272.055 161.313L269.951 153.449L264.199 159.209Z" fill="#263238"/>
<path d="M160.823 261.272L142.447 242.896" stroke="#263238" stroke-width="2" stroke-miterlimit="10"/>
<path d="M162.856 257.561L164.968 265.417L157.104 263.313L162.856 257.561Z" fill="#263238"/>
<path d="M146.168 240.864L138.304 238.76L140.408 246.616L146.168 240.864Z" fill="#263238"/>
<path d="M249.544 261.272L267.92 242.896" stroke="#263238" stroke-width="2" stroke-miterlimit="10"/>
<path d="M253.255 263.313L245.399 265.417L247.503 257.561L253.255 263.313Z" fill="#263238"/>
<path d="M269.951 246.616L272.055 238.76L264.199 240.864L269.951 246.616Z" fill="#263238"/>
<path d="M231.447 201.793H256.575" stroke="#263238" stroke-width="2" stroke-miterlimit="10"/>
<path d="M255.384 205.857L262.432 201.793L255.384 197.721V205.857Z" fill="#263238"/>
<path d="M205.527 203.672H203.063V212.632H205.527C209.239 212.632 210.383 210.96 210.383 208C210.383 205.04 209.239 203.672 205.527 203.672Z" fill="#263238"/>
<path d="M204.224 169.953C198.006 169.953 191.927 171.797 186.757 175.252C181.587 178.706 177.557 183.617 175.177 189.362C172.798 195.106 172.175 201.428 173.388 207.527C174.601 213.626 177.596 219.228 181.993 223.625C186.39 228.022 191.992 231.016 198.091 232.229C204.189 233.442 210.511 232.82 216.256 230.44C222.001 228.06 226.911 224.031 230.366 218.86C233.82 213.69 235.664 207.611 235.664 201.393C235.664 193.055 232.352 185.058 226.456 179.162C220.559 173.266 212.563 169.953 204.224 169.953ZM204.224 228.201C198.92 228.201 193.736 226.628 189.326 223.682C184.916 220.735 181.479 216.547 179.449 211.647C177.42 206.747 176.889 201.355 177.923 196.154C178.958 190.952 181.512 186.174 185.262 182.423C189.013 178.673 193.791 176.119 198.993 175.084C204.194 174.05 209.586 174.581 214.486 176.61C219.386 178.64 223.574 182.077 226.521 186.487C229.467 190.897 231.04 196.081 231.04 201.385C231.034 208.495 228.207 215.312 223.179 220.34C218.151 225.367 211.334 228.195 204.224 228.201Z" fill="#263238"/>
<path d="M209.679 195.249C209.679 192.641 208.535 191.361 205.263 191.361H203.063V199.201H205.263C208.487 199.201 209.679 197.849 209.679 195.249Z" fill="#263238"/>
<path d="M204.223 176.416C199.283 176.414 194.453 177.878 190.344 180.622C186.236 183.366 183.033 187.266 181.142 191.83C179.251 196.395 178.755 201.417 179.719 206.263C180.682 211.108 183.061 215.559 186.555 219.053C190.048 222.546 194.499 224.925 199.345 225.888C204.19 226.852 209.213 226.357 213.777 224.465C218.341 222.574 222.242 219.371 224.985 215.263C227.729 211.154 229.193 206.324 229.191 201.384C229.185 194.764 226.552 188.417 221.871 183.736C217.19 179.055 210.843 176.422 204.223 176.416ZM209.231 216V221.6H206.031V216.224H203.087V221.6H199.887V216.232H192.807V212.016H194.199C194.504 211.966 194.784 211.819 194.999 211.597C195.213 211.375 195.351 211.09 195.391 210.784V192.984C195.352 192.678 195.215 192.392 195 192.17C194.785 191.948 194.504 191.801 194.199 191.752H192.807V187.568H199.887V182.16H203.087V187.568H205.599H206.095V182.16H209.295V187.808C214.295 188.52 216.935 190.856 216.935 194.944C216.935 198.552 214.887 200.32 211.119 201.096V201.256C215.503 201.912 217.919 204.048 217.919 207.936C217.855 212.592 214.615 215.272 209.231 216Z" fill="#263238"/>
</svg>
