<svg width="56" height="56" viewBox="0 0 56 56" fill="none" xmlns="http://www.w3.org/2000/svg">
<path d="M5.89355 27.209V28.8341" stroke="#263238" stroke-miterlimit="10"/>
<path d="M6.7052 28.0215H5.08008" stroke="#263238" stroke-miterlimit="10"/>
<path d="M42.8564 41.7168V42.7192" stroke="#263238" stroke-miterlimit="10"/>
<path d="M43.3567 42.2188H42.3555" stroke="#263238" stroke-miterlimit="10"/>
<path d="M48.1504 7.80078V8.80318" stroke="#263238" stroke-miterlimit="10"/>
<path d="M48.6528 8.30273H47.6504" stroke="#263238" stroke-miterlimit="10"/>
<path d="M34.6797 48.7109V49.7133" stroke="#263238" stroke-miterlimit="10"/>
<path d="M35.1811 49.2129H34.1787" stroke="#263238" stroke-miterlimit="10"/>
<path d="M47.5146 46.4785V48.91" stroke="#263238" stroke-miterlimit="10"/>
<path d="M48.7313 47.6934H46.2998" stroke="#263238" stroke-miterlimit="10"/>
<path d="M10.3438 11.4863V13.919" stroke="#263238" stroke-miterlimit="10"/>
<path d="M11.5606 12.7012H9.12793" stroke="#263238" stroke-miterlimit="10"/>
<path d="M6.4396 19.5269C6.4396 19.6138 6.41385 19.6986 6.36561 19.7708C6.31737 19.843 6.2488 19.8993 6.16858 19.9326C6.08835 19.9658 6.00008 19.9745 5.91491 19.9575C5.82975 19.9406 5.75152 19.8988 5.69012 19.8374C5.62871 19.776 5.5869 19.6978 5.56996 19.6126C5.55302 19.5274 5.56171 19.4391 5.59494 19.3589C5.62817 19.2787 5.68445 19.2101 5.75665 19.1619C5.82885 19.1136 5.91373 19.0879 6.00056 19.0879C6.117 19.0879 6.22868 19.1341 6.31101 19.2165C6.39335 19.2988 6.4396 19.4105 6.4396 19.5269Z" stroke="#263238" stroke-miterlimit="10"/>
<path d="M49.7711 45.0242C49.7711 45.0843 49.7533 45.1429 49.72 45.1928C49.6866 45.2428 49.6392 45.2817 49.5837 45.3046C49.5283 45.3276 49.4672 45.3336 49.4084 45.3219C49.3495 45.3102 49.2954 45.2813 49.253 45.2388C49.2105 45.1964 49.1816 45.1423 49.1699 45.0834C49.1582 45.0246 49.1642 44.9635 49.1872 44.9081C49.2101 44.8526 49.249 44.8052 49.299 44.7719C49.3489 44.7385 49.4076 44.7207 49.4676 44.7207C49.5481 44.7207 49.6253 44.7527 49.6822 44.8096C49.7391 44.8665 49.7711 44.9437 49.7711 45.0242Z" stroke="#263238" stroke-miterlimit="10"/>
<path d="M38.7118 47.1141C38.712 47.1744 38.6944 47.2334 38.661 47.2836C38.6277 47.3339 38.5802 47.3731 38.5245 47.3963C38.4689 47.4195 38.4076 47.4257 38.3484 47.4141C38.2893 47.4025 38.2349 47.3736 38.1922 47.331C38.1494 47.2884 38.1203 47.2342 38.1085 47.175C38.0966 47.1159 38.1026 47.0546 38.1256 46.9989C38.1486 46.9431 38.1877 46.8955 38.2378 46.862C38.2879 46.8284 38.3469 46.8105 38.4072 46.8105C38.4471 46.8104 38.4867 46.8181 38.5237 46.8333C38.5606 46.8485 38.5942 46.8709 38.6225 46.8991C38.6508 46.9272 38.6733 46.9608 38.6886 46.9977C38.7039 47.0346 38.7118 47.0741 38.7118 47.1141Z" stroke="#263238" stroke-miterlimit="10"/>
<path d="M7.61501 21.7078C7.83348 21.2173 7.61299 20.6426 7.12254 20.4242C6.63209 20.2057 6.05739 20.4262 5.83893 20.9166C5.62046 21.4071 5.84095 21.9818 6.3314 22.2003C6.82185 22.4187 7.39655 22.1982 7.61501 21.7078Z" stroke="#263238" stroke-miterlimit="10"/>
<path d="M51.1782 29.8877C51.7151 29.8877 52.1504 29.4524 52.1504 28.9155C52.1504 28.3786 51.7151 27.9434 51.1782 27.9434C50.6413 27.9434 50.2061 28.3786 50.2061 28.9155C50.2061 29.4524 50.6413 29.8877 51.1782 29.8877Z" stroke="#263238" stroke-miterlimit="10"/>
<path d="M21.0566 9.27987C21.1795 8.75721 20.8554 8.2339 20.3327 8.11102C19.8101 7.98815 19.2868 8.31223 19.1639 8.83489C19.041 9.35755 19.3651 9.88086 19.8878 10.0037C20.4104 10.1266 20.9337 9.80253 21.0566 9.27987Z" stroke="#263238" stroke-miterlimit="10"/>
<path d="M19.1134 14.3906C13.1002 14.3906 8.20801 19.1809 8.20801 25.0676V31.0562H11.3115V25.0676C11.3115 20.8586 14.8093 17.4337 19.109 17.4337C23.4086 17.4337 26.9053 20.8586 26.9053 25.0676V31.0562H30.0155V25.0676C30.0155 19.1809 25.1256 14.3906 19.1134 14.3906Z" stroke="#263238" stroke-miterlimit="10"/>
<path d="M30.8646 47.3549V31.0566H15.6326M14.6 31.0566H7.05566V50.753H30.8669V48.5342M20.0757 41.4693L20.5113 45.9437H17.176L17.6117 41.4693C17.2026 41.2566 16.8594 40.9361 16.6194 40.5425C16.3793 40.1489 16.2515 39.6971 16.2497 39.236C16.2638 38.5578 16.5431 37.9122 17.0277 37.4375C17.5124 36.9629 18.1637 36.6971 18.842 36.6971C19.5203 36.6971 20.1716 36.9629 20.6562 37.4375C21.1408 37.9122 21.4201 38.5578 21.4342 39.236C21.4325 39.6969 21.3047 40.1486 21.0649 40.5422C20.8251 40.9358 20.4822 41.2564 20.0734 41.4693H20.0757Z" stroke="#263238" stroke-miterlimit="10"/>
<path d="M20.0737 41.4695L20.5094 45.9439H17.1762L17.6119 41.4695C17.2028 41.2568 16.8597 40.9363 16.6196 40.5427C16.3796 40.149 16.2518 39.6972 16.25 39.2362C16.2641 38.558 16.5434 37.9124 17.028 37.4377C17.5126 36.9631 18.1639 36.6973 18.8422 36.6973C19.5206 36.6973 20.1719 36.9631 20.6565 37.4377C21.1411 37.9124 21.4204 38.558 21.4345 39.2362C21.4327 39.6971 21.305 40.1488 21.0652 40.5424C20.8253 40.936 20.4825 41.2566 20.0737 41.4695Z" stroke="#263238" stroke-miterlimit="10"/>
<path d="M20.0737 41.4695L20.5094 45.9439H17.1762L17.6119 41.4695C17.2028 41.2568 16.8597 40.9363 16.6196 40.5427C16.3796 40.149 16.2518 39.6972 16.25 39.2362C16.2641 38.558 16.5434 37.9124 17.028 37.4377C17.5126 36.9631 18.1639 36.6973 18.8422 36.6973C19.5206 36.6973 20.1719 36.9631 20.6565 37.4377C21.1411 37.9124 21.4204 38.558 21.4345 39.2362C21.4327 39.6971 21.305 40.1488 21.0652 40.5424C20.8253 40.936 20.4825 41.2566 20.0737 41.4695Z" stroke="#263238" stroke-miterlimit="10"/>
<path d="M45.1567 3.90143C44.6807 3.81183 44.0591 4.42335 43.8519 4.80415C43.834 4.83663 43.6134 5.38207 43.6223 5.38319C43.6313 5.38431 44.4713 5.44591 44.8263 5.31263C45.1287 5.20063 45.4815 4.96991 45.579 4.64063C45.604 4.5644 45.6128 4.48377 45.6047 4.40394C45.5967 4.32411 45.5719 4.24686 45.5321 4.17719C45.4923 4.10752 45.4384 4.04698 45.3737 3.99948C45.309 3.95198 45.2351 3.91857 45.1567 3.90143Z" fill="#263238"/>
<path d="M37.4222 11.9036C37.4535 12.1769 37.4894 12.4479 37.5342 12.7134C37.5577 12.8254 37.5734 12.9441 37.6025 13.0494C37.6316 13.1547 37.6551 13.2667 37.682 13.3742C37.7436 13.5982 37.7996 13.7987 37.8623 14.0025C37.8937 14.1044 37.9251 14.2019 37.9564 14.3015C37.8791 14.1436 37.7526 13.895 37.738 13.8737C37.5006 13.5131 36.8275 12.9553 36.3615 13.0897C36.2847 13.1133 36.2136 13.1529 36.1531 13.2058C36.0925 13.2588 36.0438 13.3239 36.0101 13.3969C35.9764 13.4699 35.9584 13.5492 35.9574 13.6296C35.9564 13.7101 35.9724 13.7898 36.0043 13.8636C36.1286 14.1817 36.5004 14.3799 36.8107 14.4673C37.1545 14.5636 37.906 14.4516 37.9979 14.4371C38.0516 14.6028 38.1043 14.7652 38.158 14.922H38.4582C38.3977 14.7585 38.3372 14.586 38.2767 14.4158C38.3607 14.3799 39.0115 14.0988 39.2735 13.8446C39.4813 13.9727 39.6967 14.0879 39.9187 14.1895C39.8492 14.4359 39.7843 14.6767 39.7271 14.9019C39.7266 14.9086 39.7266 14.9153 39.7271 14.922H40.0217C40.0654 14.7305 40.1147 14.5311 40.1673 14.3251C40.2603 14.343 41.0073 14.4763 41.3523 14.3911C41.6659 14.3127 42.0433 14.1257 42.1777 13.811C42.2117 13.738 42.2299 13.6587 42.2311 13.5782C42.2324 13.4977 42.2167 13.4179 42.1849 13.3439C42.1532 13.2699 42.1063 13.2034 42.0471 13.1488C41.988 13.0942 41.918 13.0527 41.8417 13.027C41.3791 12.8825 40.6903 13.419 40.4406 13.7729C40.4249 13.7953 40.267 14.0843 40.1897 14.2332C40.2244 14.0988 40.258 13.9655 40.3017 13.8267C40.3555 13.6262 40.4137 13.4156 40.4787 13.2118C40.5145 13.1076 40.5492 13.0023 40.5907 12.8948C40.6321 12.7873 40.6702 12.6876 40.7094 12.5812C40.771 12.4278 40.8427 12.2721 40.9132 12.1175C41.1137 12.1847 41.7073 12.3718 42.0187 12.3415C42.33 12.3113 42.7411 12.1847 42.9214 11.8935C42.9661 11.8267 42.9962 11.7511 43.0098 11.6718C43.0234 11.5925 43.0202 11.5113 43.0003 11.4333C42.9805 11.3554 42.9444 11.2825 42.8945 11.2194C42.8447 11.1562 42.7821 11.1043 42.7108 11.067C42.2751 10.8553 41.5124 11.282 41.2134 11.5934C41.2033 11.6035 41.1473 11.6763 41.0812 11.7625C41.154 11.6135 41.2279 11.4635 41.3052 11.3145C41.5292 10.8923 41.7745 10.4689 42.0175 10.0433C42.0679 9.95482 42.1161 9.86522 42.1665 9.77674C42.3356 9.83386 42.9763 10.0422 43.3022 10.0119C43.6281 9.9817 44.0257 9.85514 44.206 9.56394C44.2509 9.49673 44.281 9.42078 44.2944 9.34108C44.3078 9.26139 44.3042 9.17976 44.2838 9.10157C44.2633 9.02338 44.2266 8.9504 44.1759 8.88744C44.1253 8.82447 44.0619 8.77295 43.9899 8.73626C43.5553 8.52346 42.7926 8.95018 42.4924 9.26154C42.4823 9.27274 42.4151 9.35898 42.3401 9.45754C42.4689 9.22458 42.5943 8.9905 42.7108 8.75418C42.9122 8.35195 43.0861 7.93661 43.2316 7.51098C43.291 7.53114 44.0369 7.79098 44.3998 7.75738C44.7212 7.72714 45.1233 7.59946 45.3036 7.30938C45.3483 7.24243 45.3783 7.16683 45.3919 7.08749C45.4054 7.00816 45.402 6.92686 45.3821 6.8489C45.3621 6.77094 45.326 6.69805 45.276 6.63498C45.226 6.57191 45.1633 6.52006 45.0919 6.48282C44.6574 6.27114 43.8947 6.69674 43.5956 7.00922C43.5743 7.0305 43.3324 7.34522 43.2507 7.45722C43.252 7.45219 43.2539 7.44731 43.2563 7.44266C43.3904 7.0197 43.4867 6.58568 43.5441 6.1457C43.5974 5.75282 43.6277 5.35716 43.6348 4.96074C43.6449 4.59338 43.6348 4.25626 43.618 3.95834C43.6091 3.79706 43.599 3.65034 43.5867 3.51034L43.5945 3.51706C43.6023 3.51706 43.7939 2.96602 43.8017 2.92906C43.8947 2.50682 43.8275 1.63658 43.4097 1.3913C43.3389 1.3537 43.261 1.33134 43.181 1.32566C43.101 1.31998 43.0207 1.33111 42.9453 1.35833C42.8698 1.38554 42.8009 1.42825 42.743 1.48369C42.6851 1.53914 42.6394 1.6061 42.6089 1.68026C42.4678 1.9905 42.5843 2.39594 42.7377 2.6793C42.8911 2.96266 43.4332 3.39498 43.5676 3.49802C43.5777 3.64138 43.5855 3.7937 43.5911 3.96394C43.599 4.26074 43.6046 4.59674 43.5911 4.96298C43.5911 5.06042 43.5777 5.16458 43.571 5.2665C43.5475 5.0929 43.5105 4.85546 43.5049 4.83194C43.3929 4.41418 42.9315 3.67274 42.4476 3.64922C42.3673 3.64736 42.2875 3.66244 42.2134 3.69346C42.1392 3.72449 42.0725 3.77077 42.0175 3.8293C41.9624 3.88783 41.9203 3.9573 41.8939 4.03317C41.8675 4.10905 41.8573 4.18964 41.8641 4.2697C41.8809 4.6057 42.171 4.91706 42.4387 5.0985C42.7063 5.27994 43.4075 5.41658 43.5587 5.44346C43.5407 5.66746 43.5161 5.89818 43.4758 6.13674C43.4098 6.56994 43.3056 6.99646 43.1644 7.4113C43.1555 7.43594 43.1443 7.45946 43.1353 7.48298C43.1353 7.39562 43.1207 6.91178 43.1151 6.87818C43.0502 6.45146 42.6671 5.66298 42.1956 5.5857C42.1158 5.57498 42.0347 5.58118 41.9575 5.60388C41.8803 5.62659 41.8087 5.66529 41.7474 5.71748C41.6862 5.76967 41.6366 5.83417 41.6019 5.90679C41.5672 5.97941 41.5481 6.05852 41.546 6.13898C41.5259 6.47498 41.7801 6.81098 42.0265 7.02602C42.3099 7.26794 43.0995 7.49082 43.1286 7.49978C42.9763 7.90899 42.7975 8.30782 42.5932 8.6937C42.4431 8.98042 42.2796 9.2649 42.1127 9.54826C42.1127 9.43626 42.0971 8.98826 42.0926 8.95242C42.0276 8.52458 41.6502 7.73722 41.1719 7.65994C41.0923 7.64939 41.0112 7.65572 40.9342 7.6785C40.8571 7.70128 40.7856 7.74001 40.7245 7.79218C40.6634 7.84436 40.6139 7.9088 40.5792 7.98133C40.5446 8.05386 40.5256 8.13287 40.5235 8.21322C40.5033 8.54922 40.7575 8.88522 41.0028 9.10026C41.2795 9.33546 42.0355 9.54826 42.0993 9.57178C42.0231 9.70058 41.9481 9.82938 41.8753 9.95706C41.6233 10.3771 41.3702 10.7959 41.1327 11.2182C41.0499 11.3638 40.9748 11.5105 40.8975 11.6572C40.8975 11.4859 40.8819 11.1745 40.8785 11.1476C40.8135 10.7198 40.4305 9.93242 39.9579 9.85514C39.8782 9.84459 39.7972 9.85092 39.7201 9.8737C39.643 9.89648 39.5716 9.93521 39.5104 9.98738C39.4493 10.0396 39.3998 10.104 39.3651 10.1765C39.3305 10.2491 39.3115 10.3281 39.3094 10.4084C39.2892 10.7444 39.5435 11.0804 39.7887 11.2943C40.034 11.5083 40.6668 11.702 40.846 11.7547C40.7206 11.9999 40.6019 12.2463 40.4955 12.4939C40.4529 12.6059 40.4014 12.7089 40.3655 12.8153C40.3297 12.9217 40.2894 13.0259 40.2535 13.13C40.1841 13.3473 40.118 13.5489 40.0575 13.7539C40.0273 13.8569 40.0004 13.9543 39.9713 14.0551C39.9937 13.8804 40.0251 13.6071 40.0251 13.578C40.0251 13.1457 39.7719 12.3102 39.3116 12.1612C39.2344 12.1386 39.1534 12.1324 39.0736 12.1431C38.9939 12.1539 38.9173 12.1812 38.8489 12.2235C38.7805 12.2657 38.7217 12.3219 38.6763 12.3884C38.631 12.4548 38.6002 12.5301 38.5859 12.6092C38.5771 12.6505 38.5722 12.6925 38.5713 12.7347C38.3641 13.054 38.2422 13.4211 38.2174 13.8009C38.2174 13.8278 38.2431 14.1559 38.2611 14.3239C38.2163 14.1918 38.1703 14.0619 38.1267 13.9252C38.0606 13.7281 37.9979 13.5175 37.9351 13.3137C37.9071 13.2017 37.878 13.0998 37.85 12.9911C37.822 12.8825 37.8019 12.7739 37.7761 12.663C37.7425 12.5017 37.7167 12.327 37.6899 12.1635C37.8948 12.1097 38.4918 11.9395 38.7359 11.7423C38.9801 11.5452 39.2523 11.2126 39.2422 10.871C39.2418 10.7901 39.2243 10.7103 39.1909 10.6366C39.1575 10.563 39.1089 10.4973 39.0483 10.4438C38.9877 10.3903 38.9165 10.3502 38.8393 10.3261C38.7621 10.3021 38.6807 10.2946 38.6004 10.3043C38.1199 10.367 37.7201 11.1431 37.6417 11.5687C37.6417 11.5833 37.6316 11.674 37.6249 11.7827C37.6036 11.618 37.5823 11.4534 37.5667 11.2843C37.5219 10.8071 37.4916 10.3199 37.4547 9.82826C37.4479 9.72634 37.439 9.62442 37.4323 9.52362C37.6047 9.4777 38.2532 9.29962 38.5097 9.09354C38.7662 8.88746 39.026 8.56266 39.0159 8.22106C39.0162 8.14058 38.9995 8.06095 38.967 7.98734C38.9345 7.91373 38.8868 7.84778 38.8271 7.7938C38.7675 7.73982 38.6971 7.699 38.6206 7.67401C38.5441 7.64902 38.4632 7.64041 38.3831 7.64874C37.9038 7.71146 37.5028 8.48762 37.4244 8.91322C37.4244 8.92778 37.4143 9.03754 37.4054 9.15962C37.3841 8.8953 37.3595 8.63098 37.327 8.37562C37.2731 7.92709 37.1896 7.48261 37.0772 7.04506C37.1388 7.02938 37.9038 6.8345 38.1871 6.60602C38.4391 6.40442 38.7035 6.07626 38.6945 5.73466C38.6961 5.65376 38.6806 5.57342 38.649 5.49894C38.6174 5.42445 38.5703 5.35751 38.511 5.3025C38.4517 5.24749 38.3813 5.20566 38.3047 5.17977C38.228 5.15387 38.1467 5.1445 38.0662 5.15226C37.5868 5.21498 37.1859 5.99114 37.1075 6.41674C37.1019 6.44698 37.075 6.84234 37.0705 6.98458V6.9689C36.9494 6.54179 36.7901 6.12646 36.5945 5.72794C36.4226 5.37107 36.2296 5.02475 36.0166 4.69082C35.8228 4.37834 35.6268 4.10394 35.4499 3.86314C35.3535 3.73322 35.2639 3.61674 35.1777 3.5081H35.1878C35.1967 3.5081 35.05 2.93914 35.0366 2.90442C34.882 2.5001 34.3444 1.8113 33.8617 1.83818C33.7815 1.84473 33.7035 1.86813 33.6329 1.90686C33.5624 1.94559 33.5007 1.99877 33.4521 2.06293C33.4035 2.12709 33.369 2.20079 33.3508 2.27921C33.3326 2.35763 33.3311 2.439 33.3465 2.51802C33.3991 2.85402 33.7195 3.12842 34.0039 3.28074C34.2884 3.43306 34.9795 3.49354 35.1486 3.50474C35.2359 3.61674 35.3267 3.74106 35.4252 3.87994C35.5955 4.1241 35.7859 4.40074 35.9718 4.71546C36.0222 4.79946 36.0715 4.89242 36.1219 4.9809C36.0099 4.84874 35.8452 4.67066 35.8273 4.65498C35.5036 4.36826 34.7073 4.00426 34.2929 4.25066C34.2249 4.29364 34.1667 4.35043 34.122 4.41734C34.0773 4.48425 34.0472 4.5598 34.0336 4.63909C34.02 4.71838 34.0231 4.79964 34.0429 4.87763C34.0627 4.95561 34.0986 5.02857 34.1484 5.09178C34.3511 5.36618 34.7622 5.46138 35.0847 5.46586C35.4073 5.47034 36.0692 5.19594 36.2047 5.12986C36.3167 5.3281 36.4198 5.53418 36.5183 5.75482C36.7021 6.15154 36.8501 6.56383 36.9607 6.98682C36.9663 7.01034 36.9697 7.03722 36.9764 7.06186C36.9305 6.98682 36.6483 6.5937 36.6259 6.56906C36.3358 6.24762 35.5865 5.7985 35.1452 5.99786C35.0729 6.03305 35.0088 6.08307 34.957 6.14467C34.9053 6.20626 34.8671 6.27805 34.8449 6.35537C34.8227 6.43268 34.8171 6.51381 34.8283 6.59346C34.8395 6.67311 34.8673 6.74951 34.91 6.8177C35.0803 7.11338 35.4779 7.25338 35.7993 7.29258C36.1678 7.33738 36.9507 7.08874 36.9798 7.07866C37.0782 7.50445 37.1489 7.93619 37.1915 8.37114C37.2251 8.69258 37.2452 9.01962 37.2631 9.34778C37.2004 9.25258 36.9383 8.88746 36.9171 8.86282C36.627 8.5425 35.8777 8.09338 35.4364 8.29274C35.364 8.32783 35.2998 8.37777 35.2479 8.43932C35.1961 8.50087 35.1577 8.57264 35.1355 8.64997C35.1132 8.7273 35.1074 8.80845 35.1185 8.88815C35.1297 8.96786 35.1575 9.04432 35.2001 9.11258C35.3715 9.40826 35.7691 9.54714 36.0894 9.58634C36.45 9.63114 37.2004 9.39594 37.2643 9.37578C37.2721 9.52474 37.2799 9.6737 37.2867 9.82378C37.3091 10.3121 37.3292 10.8027 37.3628 11.2798C37.3751 11.4478 37.3931 11.6158 37.4099 11.7759C37.3124 11.6348 37.1299 11.3817 37.1119 11.3615C36.8219 11.0412 36.0726 10.5921 35.6313 10.7915C35.5588 10.8265 35.4946 10.8765 35.4428 10.938C35.3909 10.9996 35.3527 11.0714 35.3305 11.1488C35.3083 11.2262 35.3026 11.3074 35.3139 11.3871C35.3253 11.4668 35.3532 11.5432 35.3961 11.6113C35.5675 11.907 35.9639 12.0459 36.2854 12.0851C36.6068 12.1243 37.2441 11.9574 37.4222 11.9036Z" fill="#263238"/>
<path d="M36.23 5.05076C36.23 5.05076 36.9726 4.63524 37.1955 4.32836C37.3848 4.06628 37.5539 3.681 37.4531 3.35396C37.4323 3.27626 37.3953 3.20382 37.3446 3.14136C37.2939 3.0789 37.2307 3.02782 37.1589 2.99147C37.0871 2.95512 37.0085 2.9343 36.9282 2.93037C36.8478 2.92644 36.7676 2.9395 36.6926 2.96868C36.2446 3.15572 36.0654 4.01028 36.1024 4.44148C36.1057 4.47956 36.2222 5.05524 36.23 5.05076Z" fill="#263238"/>
<path d="M15.6582 39.2709C15.1621 39.1779 14.5136 39.8152 14.2985 40.2117C14.2795 40.2453 14.0499 40.8142 14.0588 40.8153C14.0678 40.8165 14.9436 40.8814 15.3132 40.7425C15.628 40.6238 15.9964 40.3853 16.0972 40.0437C16.1237 39.9641 16.1331 39.88 16.1249 39.7966C16.1167 39.7132 16.0911 39.6324 16.0497 39.5595C16.0083 39.4867 15.9521 39.4233 15.8846 39.3736C15.8172 39.3239 15.7401 39.2889 15.6582 39.2709Z" fill="#263238"/>
<path d="M7.59718 47.6088C7.62966 47.8933 7.66774 48.1755 7.71814 48.4522C7.74278 48.5709 7.75958 48.693 7.78982 48.8061C7.82006 48.9192 7.8447 49.0301 7.87158 49.1421C7.93654 49.3717 7.99478 49.5901 8.06086 49.7973C8.09334 49.9037 8.12582 50.0045 8.1583 50.1087C8.07766 49.944 7.9455 49.6853 7.9343 49.6607C7.68678 49.2855 6.98566 48.7042 6.49958 48.8397C6.41943 48.8644 6.34539 48.9058 6.28229 48.961C6.21918 49.0163 6.16844 49.0842 6.13336 49.1604C6.09827 49.2366 6.07964 49.3194 6.07867 49.4032C6.0777 49.4871 6.09442 49.5702 6.12774 49.6472C6.25766 49.9832 6.64406 50.1848 6.96886 50.2767C7.32614 50.3763 8.10902 50.2599 8.20086 50.2453C8.25686 50.4178 8.31286 50.5869 8.36662 50.7493H8.68022C8.6175 50.5805 8.5544 50.4047 8.49094 50.2218C8.57942 50.1848 9.25702 49.8925 9.52918 49.6271C9.74583 49.7602 9.97023 49.8802 10.2012 49.9866C10.1284 50.2431 10.0612 50.4939 10.0018 50.7291C10.0018 50.7359 10.0018 50.7426 10.0018 50.7493H10.3042C10.3501 50.5499 10.4005 50.3416 10.4554 50.1277C10.5529 50.1456 11.3313 50.2856 11.6874 50.196C12.0133 50.1143 12.4076 49.9205 12.5465 49.5923C12.5819 49.5164 12.6011 49.4339 12.6026 49.3502C12.6041 49.2664 12.5879 49.1832 12.5552 49.1061C12.5224 49.029 12.4738 48.9596 12.4125 48.9025C12.3512 48.8454 12.2785 48.8019 12.1993 48.7747C11.7177 48.6247 10.9997 49.1835 10.7433 49.552C10.7265 49.5767 10.5618 49.8768 10.4812 50.0325C10.517 49.8925 10.5529 49.7536 10.5932 49.6091C10.6492 49.3997 10.7153 49.1802 10.778 48.9685L10.89 48.6381C10.9258 48.5261 10.9729 48.4208 11.0143 48.3111C11.0793 48.1509 11.1532 47.9885 11.2271 47.8272C11.4365 47.8967 12.0537 48.0915 12.3785 48.0624C12.7033 48.0333 13.1322 47.8978 13.3193 47.5954C13.3659 47.5255 13.3973 47.4465 13.4113 47.3636C13.4253 47.2807 13.4216 47.1958 13.4004 47.1145C13.3792 47.0332 13.3411 46.9572 13.2885 46.8917C13.2359 46.8261 13.1701 46.7724 13.0953 46.7341C12.6473 46.5101 11.8476 46.9581 11.5351 47.2818C11.525 47.293 11.4657 47.368 11.3973 47.4587C11.4746 47.3031 11.5497 47.1474 11.6337 46.9917C11.8689 46.5515 12.1231 46.1103 12.3751 45.6667C12.4277 45.5749 12.4793 45.4819 12.5308 45.389C12.7077 45.4495 13.3741 45.6656 13.7146 45.6343C14.0551 45.6029 14.4684 45.4707 14.6554 45.1683C14.7019 45.0984 14.7331 45.0194 14.747 44.9366C14.7609 44.8537 14.7572 44.7689 14.736 44.6876C14.7149 44.6063 14.6768 44.5304 14.6243 44.4648C14.5718 44.3993 14.5061 44.3455 14.4314 44.3071C13.9834 44.0831 13.1837 44.5311 12.8713 44.8547C12.8601 44.8659 12.7895 44.9567 12.7122 45.0586C12.8466 44.8155 12.9765 44.5725 13.0986 44.3261C13.3096 43.9056 13.4925 43.4715 13.6463 43.0269C13.7079 43.0482 14.4852 43.3181 14.8637 43.2834C15.1997 43.252 15.6164 43.1199 15.8045 42.8163C15.8508 42.7464 15.8819 42.6675 15.8957 42.5848C15.9095 42.5021 15.9057 42.4174 15.8845 42.3363C15.8634 42.2551 15.8254 42.1793 15.773 42.1138C15.7206 42.0483 15.6551 41.9946 15.5805 41.9562C15.1269 41.7322 14.3317 42.1802 14.0204 42.5039C13.998 42.5263 13.7471 42.8555 13.6609 42.9754C13.6634 42.9704 13.6653 42.9651 13.6665 42.9597C13.8068 42.5194 13.9072 42.0673 13.9666 41.609C14.022 41.2005 14.0534 40.7891 14.0607 40.377C14.0719 39.9939 14.0607 39.6423 14.0439 39.332C14.0349 39.164 14.0237 39.0106 14.0114 38.8672L14.0193 38.8739C14.0271 38.8739 14.2276 38.2994 14.2354 38.2613C14.3329 37.8211 14.2623 36.9173 13.8266 36.6597C13.7531 36.6193 13.6719 36.5949 13.5883 36.588C13.5047 36.5811 13.4205 36.5919 13.3414 36.6197C13.2622 36.6474 13.1898 36.6916 13.1289 36.7493C13.068 36.8069 13.0199 36.8768 12.9877 36.9543C12.8399 37.2779 12.962 37.6991 13.121 37.9959C13.2801 38.2927 13.8468 38.7407 13.9868 38.8493C13.9969 38.9983 14.0058 39.1573 14.0114 39.3331C14.0193 39.6434 14.0249 39.9939 14.0114 40.3747C14.0114 40.4767 13.9969 40.5853 13.9901 40.6917C13.9655 40.5103 13.9274 40.2627 13.9207 40.2437C13.8087 39.808 13.3237 39.0352 12.8197 39.0117C12.7359 39.01 12.6527 39.0259 12.5754 39.0584C12.4982 39.091 12.4286 39.1394 12.3713 39.2005C12.3139 39.2617 12.2701 39.3342 12.2426 39.4134C12.215 39.4926 12.2045 39.5766 12.2116 39.6602C12.2295 40.0152 12.5308 40.3322 12.8097 40.5226C13.0885 40.713 13.8177 40.8586 13.9778 40.8821C13.9577 41.1162 13.933 41.357 13.8916 41.6056C13.8224 42.057 13.7137 42.5015 13.5668 42.9339C13.5578 42.9586 13.5455 42.9832 13.5365 43.0079C13.5365 42.916 13.5209 42.4131 13.5153 42.3784C13.4469 41.9304 13.0549 41.1117 12.5565 41.0344C12.4738 41.0239 12.3897 41.0309 12.3098 41.0548C12.2298 41.0788 12.1558 41.1193 12.0925 41.1736C12.0292 41.228 11.9779 41.295 11.9421 41.3704C11.9063 41.4458 11.8867 41.5278 11.8845 41.6112C11.8633 41.9663 12.1287 42.3168 12.3852 42.5352C12.6797 42.7872 13.5052 43.0191 13.5343 43.028C13.375 43.4546 13.1879 43.8702 12.9743 44.2723C12.8186 44.5714 12.6473 44.8682 12.4737 45.1683C12.4737 45.0496 12.458 44.5815 12.4524 44.5479C12.3852 44.0999 11.9921 43.2823 11.4937 43.2039C11.4109 43.1933 11.3268 43.2003 11.2469 43.2243C11.1669 43.2483 11.0929 43.2887 11.0296 43.3431C10.9663 43.3974 10.9151 43.4645 10.8792 43.5398C10.8434 43.6152 10.8238 43.6972 10.8217 43.7807C10.8004 44.1357 11.0658 44.4851 11.3223 44.7035C11.6101 44.9499 12.3975 45.1762 12.4647 45.1952C12.3852 45.3296 12.3068 45.464 12.2273 45.5973C11.9652 46.0352 11.7009 46.472 11.4533 46.9111C11.3671 47.0634 11.2887 47.2168 11.2092 47.3691C11.2092 47.1911 11.1924 46.8651 11.1879 46.8371C11.1207 46.3891 10.7276 45.5715 10.2292 45.4931C10.1464 45.4828 10.0624 45.4899 9.98257 45.5139C9.90271 45.538 9.82877 45.5785 9.76549 45.6328C9.7022 45.6871 9.65098 45.754 9.61511 45.8293C9.57923 45.9046 9.5595 45.9866 9.55718 46.0699C9.53702 46.425 9.80134 46.7755 10.0578 46.9939C10.3143 47.2123 10.9729 47.4184 11.1588 47.4733C11.0289 47.7287 10.9045 47.9851 10.7937 48.2439C10.7489 48.3559 10.6962 48.4679 10.6593 48.5799L10.5405 48.908C10.4677 49.132 10.3994 49.3448 10.3367 49.5576C10.3042 49.6696 10.2762 49.7671 10.246 49.8723C10.2695 49.6898 10.302 49.4019 10.302 49.3751C10.302 48.9271 10.0388 48.0535 9.5583 47.8989C9.47794 47.8752 9.3935 47.8688 9.31049 47.88C9.22748 47.8911 9.14775 47.9197 9.07652 47.9638C9.00529 48.0078 8.94415 48.0664 8.89709 48.1357C8.85003 48.205 8.81811 48.2835 8.80342 48.3659C8.79372 48.4093 8.78846 48.4536 8.78774 48.4981C8.57159 48.8304 8.44433 49.2125 8.41814 49.608C8.41814 49.6371 8.44614 49.9787 8.46406 50.1535C8.41702 50.0168 8.36998 49.8813 8.32406 49.7379C8.25574 49.533 8.18966 49.3135 8.1247 49.1018C8.09558 48.9898 8.06534 48.8778 8.0351 48.7658C8.00486 48.6538 7.9847 48.5418 7.95894 48.4298C7.92422 48.2607 7.89622 48.0848 7.86934 47.909C8.08214 47.853 8.70486 47.6738 8.9591 47.4699C9.21334 47.2661 9.4967 46.9178 9.48662 46.5616C9.48706 46.4778 9.46984 46.3947 9.43606 46.318C9.40229 46.2412 9.35272 46.1725 9.29059 46.1161C9.22845 46.0598 9.15515 46.0172 9.07546 45.9911C8.99577 45.965 8.91147 45.956 8.82806 45.9647C8.32742 46.0307 7.91078 46.8394 7.82902 47.2829C7.82902 47.2963 7.81894 47.3949 7.8111 47.5069C7.78982 47.3344 7.76742 47.1619 7.75062 46.9872C7.7047 46.4899 7.67334 45.9792 7.63862 45.473C7.6319 45.3666 7.62294 45.2613 7.61622 45.1549C7.79542 45.1079 8.4719 44.9208 8.73622 44.7069C9.00054 44.493 9.27382 44.1547 9.26374 43.7986C9.26401 43.7148 9.24667 43.6318 9.21283 43.5552C9.179 43.4785 9.12943 43.4098 9.06733 43.3535C9.00524 43.2972 8.93201 43.2546 8.8524 43.2285C8.77278 43.2023 8.68855 43.1931 8.60518 43.2016C8.10454 43.2677 7.68678 44.0763 7.60614 44.5199C7.60614 44.5355 7.59382 44.6487 7.58598 44.7763C7.56358 44.5008 7.53782 44.2253 7.5031 43.9531C7.4481 43.4856 7.36128 43.0223 7.24326 42.5666C7.3071 42.5509 8.10454 42.3426 8.40022 42.1096C8.66342 41.8991 8.93894 41.5575 8.92774 41.2013C8.92817 41.1175 8.91097 41.0346 8.87726 40.958C8.84355 40.8813 8.79409 40.8126 8.73208 40.7563C8.67007 40.7 8.59691 40.6573 8.51735 40.6312C8.4378 40.605 8.35362 40.5958 8.2703 40.6043C7.76966 40.6704 7.3519 41.4791 7.27126 41.9226C7.26454 41.9539 7.23654 42.3706 7.23206 42.5139C7.23206 42.5083 7.23206 42.5027 7.23206 42.4983C7.10596 42.0532 6.94029 41.6202 6.73702 41.2047C6.55652 40.8237 6.35344 40.4538 6.12886 40.097C5.92726 39.7711 5.7223 39.4855 5.53862 39.2346C5.43894 39.0991 5.34374 38.9781 5.25526 38.865H5.26422C5.2743 38.865 5.12086 38.2714 5.1063 38.2355C4.94502 37.8144 4.38614 37.0965 3.88214 37.1245C3.79862 37.1315 3.71751 37.156 3.64406 37.1963C3.57062 37.2367 3.50647 37.292 3.45578 37.3588C3.40509 37.4255 3.369 37.5021 3.34983 37.5837C3.33067 37.6653 3.32886 37.75 3.34454 37.8323C3.40054 38.184 3.7343 38.4696 4.0311 38.6275C4.3279 38.7855 5.04694 38.8515 5.2239 38.8616C5.31462 38.9803 5.4087 39.1091 5.51174 39.2525C5.6887 39.5067 5.88694 39.7957 6.0807 40.125C6.13334 40.2123 6.18486 40.3075 6.2375 40.4005C6.11766 40.2627 5.94854 40.0768 5.93062 40.0645C5.59462 39.7655 4.76582 39.3858 4.33126 39.6434C4.26031 39.688 4.19955 39.7471 4.15295 39.8168C4.10636 39.8865 4.07496 39.9652 4.0608 40.0478C4.04664 40.1304 4.05004 40.2151 4.07078 40.2963C4.09152 40.3776 4.12914 40.4535 4.18118 40.5192C4.39286 40.8059 4.8207 40.9045 5.1567 40.909C5.4927 40.9135 6.18262 40.6279 6.32934 40.564C6.44134 40.7701 6.55334 40.9851 6.65638 41.2147C6.84766 41.6293 7.00207 42.0599 7.11782 42.5016C7.11782 42.5274 7.1279 42.5543 7.1335 42.58C7.08534 42.5027 6.7919 42.0928 6.76838 42.0671C6.46598 41.7311 5.68534 41.2651 5.22502 41.4723C5.14965 41.5091 5.08285 41.5612 5.02894 41.6254C4.97503 41.6896 4.93522 41.7644 4.91209 41.845C4.88896 41.9256 4.88303 42.0101 4.89469 42.0931C4.90634 42.1762 4.93532 42.2558 4.97974 42.3269C5.15894 42.6349 5.57222 42.7749 5.9071 42.8208C6.29126 42.8679 7.10662 42.608 7.1391 42.5968C7.24292 43.0395 7.31774 43.4884 7.3631 43.9408C7.39782 44.2768 7.4191 44.6128 7.43814 44.9589C7.37318 44.8581 7.10214 44.4784 7.0775 44.4527C6.7751 44.1167 5.99446 43.6507 5.53414 43.8591C5.45868 43.8955 5.39177 43.9475 5.33777 44.0116C5.28376 44.0757 5.24389 44.1504 5.22074 44.231C5.19759 44.3115 5.19169 44.396 5.20343 44.479C5.21517 44.562 5.24428 44.6415 5.28886 44.7125C5.46694 45.0205 5.88134 45.1605 6.2151 45.2075C6.59142 45.2535 7.37318 45.0082 7.43926 44.9835C7.4471 45.1392 7.45606 45.2949 7.46278 45.4506C7.4863 45.9591 7.50646 46.4698 7.5423 46.9727C7.55462 47.1463 7.57366 47.3176 7.59158 47.489C7.48966 47.3423 7.30038 47.0779 7.28134 47.0578C6.97894 46.7218 6.1983 46.2559 5.73798 46.4631C5.66151 46.499 5.59357 46.5509 5.53866 46.6151C5.48376 46.6793 5.44315 46.7545 5.41953 46.8357C5.39591 46.9168 5.38982 47.002 5.40166 47.0857C5.4135 47.1694 5.44301 47.2496 5.48822 47.321C5.6663 47.6301 6.0807 47.7746 6.41446 47.816C6.74822 47.8575 7.41238 47.6648 7.59718 47.6088Z" fill="#263238"/>
<path d="M6.35554 40.4678C6.35554 40.4678 7.12946 40.0355 7.36354 39.7152C7.56178 39.443 7.73762 39.0432 7.63346 38.7005C7.61178 38.6194 7.57326 38.5439 7.52041 38.4787C7.46757 38.4136 7.40158 38.3603 7.32677 38.3223C7.25195 38.2844 7.16998 38.2627 7.08619 38.2585C7.00241 38.2544 6.91869 38.268 6.8405 38.2984C6.37458 38.4944 6.18642 39.3837 6.2245 39.8328C6.22562 39.8731 6.3477 40.4723 6.35554 40.4678Z" fill="#263238"/>
<path d="M24.626 10.6465H51.1285V42.0311C51.1285 42.3097 51.0179 42.577 50.8208 42.774C50.6238 42.971 50.3566 43.0817 50.078 43.0817H25.6777C25.399 43.0817 25.1318 42.971 24.9348 42.774C24.7378 42.577 24.6271 42.3097 24.6271 42.0311V10.6465H24.626Z" fill="#263238" stroke="#263238" stroke-linecap="round" stroke-linejoin="round"/>
<path d="M24.0713 10.1621H50.5738V41.5467C50.5738 41.8254 50.4632 42.0926 50.2661 42.2896C50.0691 42.4866 49.8019 42.5973 49.5233 42.5973H25.123C24.8443 42.5973 24.5771 42.4866 24.3801 42.2896C24.1831 42.0926 24.0724 41.8254 24.0724 41.5467V10.1621H24.0713Z" fill="white" stroke="#263238" stroke-miterlimit="10"/>
<path d="M49.542 10.1621V42.5973H49.598C49.8567 42.5973 50.1048 42.4945 50.2878 42.3116C50.4707 42.1286 50.5735 41.8805 50.5735 41.6218V10.1621H49.542Z" fill="white" stroke="#263238" stroke-miterlimit="10"/>
<path d="M50.5735 18.7969H49.542V25.4956H50.5735V18.7969Z" fill="white" stroke="#263238" stroke-miterlimit="10"/>
<path d="M50.5738 10.1621H24.0713V12.4559H50.5738V10.1621Z" fill="#263238" stroke="#263238" stroke-miterlimit="10"/>
<path d="M47.6713 11.3324C47.6715 11.2672 47.6524 11.2034 47.6163 11.1491C47.5803 11.0948 47.5289 11.0524 47.4688 11.0273C47.4086 11.0022 47.3424 10.9956 47.2784 11.0081C47.2145 11.0207 47.1557 11.052 47.1095 11.098C47.0634 11.144 47.0319 11.2027 47.0191 11.2666C47.0063 11.3305 47.0128 11.3968 47.0377 11.457C47.0625 11.5172 47.1047 11.5687 47.1589 11.6049C47.2131 11.6412 47.2768 11.6605 47.342 11.6605C47.4291 11.6605 47.5127 11.626 47.5744 11.5645C47.6361 11.503 47.671 11.4195 47.6713 11.3324Z" fill="white" stroke="#263238" stroke-miterlimit="10"/>
<path d="M48.3741 11.6602C48.5553 11.6602 48.7022 11.5133 48.7022 11.3321C48.7022 11.1508 48.5553 11.0039 48.3741 11.0039C48.1928 11.0039 48.0459 11.1508 48.0459 11.3321C48.0459 11.5133 48.1928 11.6602 48.3741 11.6602Z" fill="white" stroke="#263238" stroke-miterlimit="10"/>
<path d="M49.4073 11.6602C49.5885 11.6602 49.7354 11.5133 49.7354 11.3321C49.7354 11.1508 49.5885 11.0039 49.4073 11.0039C49.226 11.0039 49.0791 11.1508 49.0791 11.3321C49.0791 11.5133 49.226 11.6602 49.4073 11.6602Z" fill="white" stroke="#263238" stroke-miterlimit="10"/>
<path d="M36.0428 35.7958C33.618 34.3398 31.7073 32.5769 30.3655 30.5587C29.3373 29.012 29.0215 27.864 28.9666 27.6467L28.8994 27.3757V17.0661L37.2188 13.5078L45.5381 17.0661V27.379L45.4698 27.6501C45.4172 27.864 45.1002 29.012 44.0709 30.5621C42.7269 32.5781 40.8229 34.3421 38.3948 35.7992L37.2188 36.5048L36.0428 35.7958Z" fill="#CFCFCF" stroke="white" stroke-linecap="round" stroke-linejoin="round"/>
<path d="M36.631 34.8167C31.1598 31.5318 30.117 27.5435 30.0756 27.3755L30.042 27.24V17.8208L37.219 14.752L44.3959 17.8208V27.24L44.3623 27.3755C44.3209 27.5435 43.277 31.5318 37.807 34.8167L37.219 35.1684L36.631 34.8167Z" fill="white"/>
<path d="M37.2193 16.0312L31.1836 18.5221V27.1036C31.1836 27.1036 32.0919 30.7615 37.2193 33.8404C42.3466 30.7581 43.2538 27.1036 43.2538 27.1036V18.5221L37.2193 16.0312Z" fill="#039AE4"/>
<path d="M40.1782 26.367C41.8469 24.6984 41.8469 21.993 40.1782 20.3244C38.5096 18.6557 35.8042 18.6557 34.1356 20.3244C32.467 21.993 32.467 24.6984 34.1356 26.367C35.8042 28.0357 38.5096 28.0357 40.1782 26.367Z" fill="white"/>
<path d="M38.7534 22.228C38.9734 21.3477 38.438 20.4556 37.5577 20.2357C36.6773 20.0157 35.7853 20.551 35.5653 21.4314C35.3453 22.3117 35.8807 23.2037 36.761 23.4237C37.6414 23.6437 38.5334 23.1084 38.7534 22.228Z" fill="#263238"/>
<path d="M37.1572 27.618C38.2537 27.6196 39.3085 27.1979 40.1017 26.4409C40.0161 25.7203 39.6691 25.0561 39.1265 24.5742C38.5839 24.0923 37.8835 23.8262 37.1578 23.8262C36.4321 23.8262 35.7316 24.0923 35.1891 24.5742C34.6465 25.0561 34.2995 25.7203 34.2139 26.4409C35.0068 27.1977 36.0611 27.6193 37.1572 27.618Z" fill="#263238"/>
<path opacity="0.19" d="M38.3947 35.7958C40.8195 34.3398 42.7291 32.5769 44.0709 30.5587C45.1002 29.012 45.4149 27.864 45.4698 27.6467L45.5381 27.3757V17.0661L37.2188 13.5078V36.5014L38.3947 35.7958Z" fill="black"/>
<path d="M27.1172 40.644V37.8642H27.8071C27.9462 37.8575 28.0844 37.8889 28.2069 37.9549C28.306 38.0167 28.3823 38.1091 28.4242 38.2181C28.4731 38.351 28.4963 38.492 28.4925 38.6336C28.4956 38.7647 28.4692 38.8948 28.4153 39.0144C28.3682 39.1185 28.29 39.2054 28.1913 39.263C28.0754 39.325 27.9451 39.3551 27.8138 39.3504H27.5081V40.644H27.1172ZM27.5047 39.076H27.6828C27.7725 39.0791 27.862 39.0662 27.9471 39.0379C27.9778 39.0264 28.0059 39.0087 28.0296 38.986C28.0533 38.9633 28.0721 38.936 28.0849 38.9058C28.1159 38.8208 28.13 38.7307 28.1263 38.6403C28.1293 38.5376 28.1195 38.4349 28.0972 38.3346C28.089 38.3024 28.0739 38.2725 28.0528 38.2469C28.0317 38.2213 28.0051 38.2008 27.9751 38.1867C27.8823 38.1545 27.7842 38.1404 27.6861 38.1453H27.5047V39.076Z" fill="#263238"/>
<path d="M28.7637 40.6437V37.8638H29.3237C29.48 37.8591 29.6359 37.8842 29.7829 37.9378C29.8985 37.9818 29.9944 38.0661 30.0528 38.1752C30.1163 38.3082 30.1463 38.4547 30.1401 38.6019C30.1414 38.7008 30.1297 38.7995 30.1054 38.8954C30.0855 38.9775 30.0472 39.0541 29.9934 39.1194C29.941 39.181 29.8723 39.2268 29.7952 39.2515L30.1894 40.6448H29.8154L29.4558 39.34H29.1546V40.6437H28.7637ZM29.1523 39.0622H29.299C29.39 39.065 29.4808 39.0509 29.5667 39.0208C29.6335 38.9952 29.6877 38.9446 29.7179 38.8797C29.7543 38.7918 29.7707 38.6969 29.7661 38.6019C29.7767 38.478 29.7451 38.354 29.6765 38.2502C29.6171 38.1786 29.4995 38.1382 29.3237 38.1382H29.1523V39.0622Z" fill="#263238"/>
<path d="M30.5654 40.6431V37.8633H30.9462V40.6431H30.5654Z" fill="#263238"/>
<path d="M31.8793 40.6431L31.2588 37.8633H31.6217L32.0618 39.9118L32.4796 37.8633H32.8335L32.2197 40.6431H31.8793Z" fill="#263238"/>
<path d="M32.8818 40.6431L33.4721 37.8633H33.8462L34.4398 40.6431H34.0724L33.9458 39.9431H33.3758L33.2425 40.6431H32.8818ZM33.4306 39.6654H33.8943L33.6602 38.4154L33.4306 39.6654Z" fill="#263238"/>
<path d="M35.4042 40.6743C35.2421 40.6846 35.0812 40.6413 34.9461 40.5511C34.8369 40.4665 34.7582 40.3485 34.7221 40.2151C34.6788 40.0633 34.6577 39.906 34.6594 39.7481V38.7669C34.6568 38.6013 34.6779 38.4361 34.7221 38.2764C34.7579 38.1459 34.8369 38.0314 34.9461 37.9516C35.0837 37.8681 35.2436 37.829 35.4042 37.8396C35.5483 37.8319 35.6916 37.8653 35.8175 37.9359C35.9211 37.9994 36 38.0961 36.0415 38.2103C36.0894 38.3481 36.1121 38.4934 36.1087 38.6393V38.8633H35.7413V38.6673C35.7419 38.5763 35.7366 38.4854 35.7256 38.3951C35.7205 38.3258 35.6907 38.2607 35.6416 38.2114C35.5762 38.1612 35.4942 38.1376 35.412 38.1453C35.3258 38.1379 35.2399 38.1631 35.1712 38.2159C35.1171 38.2694 35.0828 38.3397 35.0738 38.4153C35.058 38.5145 35.0505 38.6149 35.0514 38.7154V39.8164C35.0476 39.9294 35.0592 40.0425 35.0861 40.1524C35.1007 40.2221 35.1406 40.284 35.1981 40.326C35.2627 40.3631 35.3365 40.381 35.4109 40.3775C35.4511 40.3811 35.4915 40.3767 35.53 40.3646C35.5684 40.3525 35.6041 40.3329 35.6349 40.3069C35.6834 40.2532 35.7133 40.1852 35.72 40.1132C35.733 40.0178 35.739 39.9216 35.738 39.8253V39.6193H36.1053V39.8253C36.1079 39.977 36.0867 40.1282 36.0426 40.2733C36.0076 40.3949 35.9331 40.5013 35.8309 40.5757C35.7022 40.6517 35.5532 40.6861 35.4042 40.6743Z" fill="#263238"/>
<path d="M36.8991 40.6431V39.662L36.2988 37.8633H36.6595L37.0851 39.2073L37.5039 37.8633H37.8668L37.2699 39.662V40.6431H36.8991Z" fill="#263238"/>
<path d="M38.9111 40.6441V37.8642H39.5999C39.739 37.8573 39.8773 37.8887 39.9998 37.9549C40.0994 38.0164 40.1762 38.1089 40.2182 38.2181C40.267 38.3511 40.2902 38.4921 40.2865 38.6337C40.2896 38.7648 40.2632 38.8949 40.2092 39.0145C40.1616 39.1182 40.0835 39.205 39.9852 39.2631C39.8693 39.3249 39.7391 39.355 39.6078 39.3505H39.302V40.6441H38.9111ZM39.2987 39.0761H39.4767C39.5664 39.0792 39.6559 39.0663 39.741 39.038C39.7718 39.0265 39.7998 39.0088 39.8235 38.9861C39.8472 38.9633 39.866 38.936 39.8788 38.9058C39.9094 38.8208 39.9231 38.7306 39.9191 38.6404C39.9227 38.5376 39.9129 38.4349 39.89 38.3346C39.8827 38.3023 39.8679 38.2721 39.8469 38.2465C39.826 38.2208 39.7993 38.2004 39.769 38.1868C39.6763 38.1546 39.5782 38.1406 39.4801 38.1453H39.2987V39.0761Z" fill="#263238"/>
<path d="M41.2677 40.6747C41.1106 40.6819 40.9549 40.6429 40.8197 40.5627C40.7062 40.4887 40.6216 40.378 40.58 40.2491C40.5288 40.0949 40.5041 39.9332 40.5072 39.7708V38.7192C40.5035 38.5588 40.5285 38.3991 40.5811 38.2476C40.6252 38.1227 40.71 38.0162 40.8219 37.9452C40.9586 37.8693 41.1138 37.8332 41.2699 37.8411C41.4264 37.8324 41.582 37.8694 41.7179 37.9475C41.8283 38.019 41.9121 38.1249 41.9565 38.2488C42.0085 38.4 42.0332 38.5593 42.0293 38.7192V39.7764C42.0327 39.9374 42.0081 40.0977 41.9565 40.2502C41.9128 40.3777 41.8291 40.4877 41.7179 40.5638C41.5823 40.645 41.4255 40.6836 41.2677 40.6747ZM41.2677 40.37C41.3507 40.3759 41.4332 40.3534 41.5017 40.3062C41.5561 40.2603 41.5935 40.1977 41.6082 40.1281C41.6273 40.0394 41.6363 39.9489 41.635 39.8582V38.6408C41.6364 38.5512 41.6274 38.4617 41.6082 38.3742C41.5934 38.3065 41.5559 38.246 41.5017 38.2028C41.4301 38.1631 41.3496 38.1423 41.2677 38.1423C41.1858 38.1423 41.1052 38.1631 41.0336 38.2028C40.9765 38.2443 40.9367 38.3053 40.9216 38.3742C40.9023 38.4617 40.8933 38.5512 40.8947 38.6408V39.8582C40.8935 39.9489 40.9025 40.0394 40.9216 40.1281C40.9366 40.1989 40.9763 40.262 41.0336 40.3062C41.1021 40.3534 41.1847 40.3759 41.2677 40.37Z" fill="#263238"/>
<path d="M42.4062 40.6431V37.8633H42.7949V40.3654H43.505V40.6431H42.4062Z" fill="#263238"/>
<path d="M43.792 40.6431V37.8633H44.1728V40.6431H43.792Z" fill="#263238"/>
<path d="M45.3174 40.6743C45.1553 40.6846 44.9943 40.6413 44.8593 40.5511C44.7501 40.4665 44.6714 40.3485 44.6353 40.2151C44.5914 40.0634 44.5703 39.906 44.5726 39.7481V38.7669C44.5694 38.6012 44.5905 38.436 44.6353 38.2764C44.6711 38.1459 44.75 38.0314 44.8593 37.9516C44.9969 37.8681 45.1568 37.829 45.3174 37.8396C45.4615 37.8319 45.6048 37.8653 45.7307 37.9359C45.8342 37.9994 45.9132 38.0961 45.9547 38.2103C46.0026 38.3481 46.0253 38.4934 46.0219 38.6393V38.8633H45.6545V38.6673C45.655 38.5763 45.6498 38.4854 45.6388 38.3951C45.6336 38.3258 45.6038 38.2607 45.5548 38.2114C45.4894 38.1612 45.4073 38.1376 45.3252 38.1453C45.239 38.1379 45.153 38.1631 45.0844 38.2159C45.0303 38.2694 44.9959 38.3397 44.987 38.4153C44.9712 38.5145 44.9637 38.6149 44.9646 38.7154V39.8164C44.9607 39.9294 44.9724 40.0425 44.9993 40.1524C45.0139 40.2221 45.0538 40.284 45.1113 40.326C45.1759 40.3631 45.2497 40.381 45.3241 40.3775C45.3642 40.3811 45.4047 40.3767 45.4431 40.3646C45.4816 40.3525 45.5173 40.3329 45.5481 40.3069C45.5966 40.2532 45.6265 40.1852 45.6332 40.1132C45.6462 40.0178 45.6522 39.9216 45.6511 39.8253V39.6193H46.0185V39.8253C46.0211 39.977 45.9999 40.1282 45.9558 40.2733C45.9211 40.3953 45.8461 40.5019 45.743 40.5757C45.6147 40.6519 45.466 40.6863 45.3174 40.6743Z" fill="#263238"/>
<path d="M46.8161 40.6431V39.662L46.2158 37.8633H46.5765L47.0021 39.2073L47.4198 37.8633H47.7838L47.1869 39.662V40.6431H46.8161Z" fill="#263238"/>
<path d="M21.3202 38.9883C21.3202 38.9883 21.1813 41.0726 21.4814 42.1142C21.7816 43.1558 23.6822 48.1129 23.6822 48.1129C23.6822 48.1129 23.7282 48.9921 23.6587 49.0851C23.5893 49.178 23.2645 49.6876 22.8254 49.896C22.3864 50.1043 21.459 50.6363 21.6674 50.7057C21.8757 50.7752 23.7282 50.5668 23.9365 50.6598C24.1448 50.7528 25.071 50.382 25.3029 50.2891C25.5347 50.1961 25.3029 49.6171 25.3029 49.6171C25.0215 48.6567 24.7897 47.6825 24.6085 46.6984C24.4002 45.4249 24.0754 43.6654 23.8906 42.7851C23.773 42.2439 23.5941 41.7178 23.3574 41.2171L23.5893 39.0409L21.3202 38.9883Z" fill="white" stroke="#263238" stroke-miterlimit="10"/>
<path d="M23.126 50.1956L22.8886 49.8596C22.8673 49.8719 22.8471 49.8831 22.8259 49.8932C22.3857 50.1015 21.4595 50.6335 21.6678 50.703C21.8761 50.7724 23.7286 50.5641 23.9369 50.657C24.1452 50.75 25.0715 50.3793 25.3033 50.2863C25.5351 50.1934 25.3033 49.6143 25.3033 49.6143C25.3033 49.6143 25.2798 49.5359 25.2417 49.4004C24.9245 49.5421 24.6262 49.7227 24.3535 49.938C23.8675 50.358 23.126 50.1956 23.126 50.1956Z" fill="#263238" stroke="#263238" stroke-miterlimit="10"/>
<path d="M22.7911 39.1505C22.7911 39.1505 22.9759 41.2785 23.2536 42.0222C23.5314 42.7659 23.5314 47.8115 23.5314 48.2281C23.5314 48.6448 22.8594 49.3168 22.8594 49.3168C22.8594 49.3168 21.7013 50.1736 21.3776 50.2665C21.054 50.3595 20.7986 50.4748 20.9599 50.6137C21.1212 50.7526 22.7205 50.7526 23.276 50.7526C23.8316 50.7526 24.5495 50.775 24.62 50.6596C24.677 50.5105 24.7146 50.3547 24.732 50.196C24.732 50.196 24.5932 48.9001 24.6391 48.3211C24.685 47.742 25.5194 44.2219 25.45 43.0414C25.3931 42.2567 25.253 41.4803 25.0322 40.7252C25.0098 40.6323 25.1946 39.0352 25.1946 39.0352L22.7911 39.1505Z" fill="white" stroke="#263238" stroke-miterlimit="10"/>
<path d="M24.7365 50.1967C24.7365 50.1967 24.7298 50.1418 24.7208 50.0488C23.6803 50.1295 22.3274 50.1967 22.3274 50.1967L22.1706 49.8047C21.8592 50.0152 21.5288 50.2236 21.3787 50.2672C21.0539 50.3591 20.7997 50.4756 20.961 50.6144C21.1222 50.7533 22.7216 50.7533 23.2771 50.7533C23.8326 50.7533 24.5506 50.7757 24.6211 50.6604C24.6792 50.5114 24.718 50.3555 24.7365 50.1967Z" fill="#263238" stroke="#263238" stroke-miterlimit="10"/>
<path d="M20.5018 33.4387C20.5018 33.4387 20.3394 35.1086 20.4089 35.8501C20.4783 36.5915 20.6721 40.2718 20.6721 40.2718C20.6721 40.2718 21.9858 41.0805 23.1686 41.1499C24.3513 41.2194 26.1377 40.5899 26.1377 40.5899C26.1377 40.5899 26.5319 36.2219 26.3001 35.0582C26.0682 33.8946 25.9518 33.3424 25.9518 33.3424C25.9518 33.3424 22.8158 33.18 22.0094 32.9717C21.203 32.7634 21.0013 32.6446 21.0013 32.6446L20.7348 32.6133L20.5018 33.4387Z" fill="#263238" stroke="#263238" stroke-linecap="round" stroke-linejoin="round"/>
<path d="M20.9883 33.0056C20.9883 33.0056 22.1945 33.5847 23.9798 33.3528L23.8678 29.9671L24.6574 24.8408L23.3817 24.7949L21.9436 25.3056L21.0857 31.8016L20.9883 33.0056Z" fill="white" stroke="#263238" stroke-linecap="round" stroke-linejoin="round"/>
<path d="M22.1369 24.2917C22.1369 24.2917 21.8266 25.695 21.8815 25.8765C21.9364 26.0579 22.5009 27.0245 22.8839 26.9517C23.2669 26.8789 24.0868 25.5483 24.1965 25.2941C24.3063 25.0398 24.0845 24.6008 24.0689 24.5101C24.0532 24.4193 23.8314 23.4707 23.8314 23.4707C23.8314 23.4707 22.9601 24.2189 22.1369 24.2917Z" fill="white" stroke="#263238" stroke-linecap="round" stroke-linejoin="round"/>
<path d="M22.2446 25.1406C22.2446 25.1406 21.9086 27.879 21.8896 28.9486C21.8705 30.0182 21.2624 34.9059 21.2624 34.9059C21.2624 34.9059 21.1795 35.0515 20.6352 34.8846C20.3155 34.7892 20.0318 34.6 19.8209 34.3414C19.8209 34.3414 20.7606 30.8302 20.7819 30.6633C20.8032 30.4965 20.615 28.8657 20.615 28.8657L18.7334 30.4953C18.7334 30.4953 18.776 29.6173 18.9428 29.4291C19.1097 29.2409 20.3641 26.9001 20.4683 26.6705C20.5724 26.4409 20.447 25.751 20.8233 25.5416C21.1996 25.3321 22.2446 25.1406 22.2446 25.1406Z" fill="#039AE4" stroke="#263238" stroke-linecap="round" stroke-linejoin="round"/>
<path d="M20.4199 32.7109L21.2151 32.9753L21.186 33.1813L20.4782 33.0055" stroke="#263238" stroke-linecap="round" stroke-linejoin="round"/>
<path d="M21.7845 30.1375C21.7845 30.1375 21.4485 26.8974 21.4922 26.166L21.7845 30.1375Z" fill="white"/>
<path d="M21.7845 30.1375C21.7845 30.1375 21.4485 26.8974 21.4922 26.166" stroke="#263238" stroke-linecap="round" stroke-linejoin="round"/>
<path d="M24.1677 24.9779C24.1677 24.9779 23.0186 28.9069 23.0186 29.8051C23.0186 30.7033 23.2426 35.1005 23.2426 35.1005C23.2426 35.1005 24.283 35.4118 25.0984 35.3065C25.9138 35.2013 27.0024 34.7387 27.0024 34.7387L25.8947 31.4358C25.8947 31.4358 27.6643 27.2112 27.6643 26.9189C27.6643 26.6265 27.8939 26.0833 27.6643 25.9366C27.4347 25.7899 25.449 25.1213 25.1768 24.9958C24.9046 24.8704 24.5026 24.6822 24.1677 24.9779Z" fill="#039AE4" stroke="#263238" stroke-linecap="round" stroke-linejoin="round"/>
<path d="M25.899 33.0938L23.9805 33.3536L24.1025 33.6246L25.1923 33.507" stroke="#263238" stroke-linecap="round" stroke-linejoin="round"/>
<path d="M25.2615 25.0325C25.2234 25.0168 25.191 25.0045 25.1708 24.9944C24.8986 24.8689 24.4988 24.6808 24.1628 24.9742C24.1628 24.9742 23.0137 28.9032 23.0137 29.8014C23.0137 29.9515 23.026 30.1979 23.0473 30.5037C23.1414 30.1889 23.3542 29.6973 23.745 28.6937C24.258 27.3901 24.9994 25.6485 25.2615 25.0325Z" fill="#039AE4" stroke="#263238" stroke-linecap="round" stroke-linejoin="round"/>
<path d="M21.2214 19.6722C21.2214 19.6722 20.0779 20.4338 20.0085 20.9882C19.939 21.5426 19.9905 21.8719 19.9905 22.4095C19.9905 22.9471 19.696 24.6271 19.9737 25.251C20.2515 25.8748 20.6457 26.4292 21.2057 26.5849C21.7657 26.7406 22.1073 26.6028 22.2451 26.4639C22.3474 26.3452 22.4295 26.2105 22.4881 26.0652C22.4881 26.0652 22.1936 26.0999 22.1936 25.7538C22.1936 25.4078 22.5229 24.3505 22.5229 24.3505C22.5229 24.3505 21.7781 23.9686 21.6392 23.6046C21.5003 23.2406 21.0848 21.3175 21.1195 21.1618C21.1542 21.0062 21.7781 20.659 21.7915 20.2266C21.8049 19.7943 21.5328 19.5334 21.2214 19.6722Z" fill="#263238" stroke="#263238" stroke-linecap="round" stroke-linejoin="round"/>
<path d="M21.1177 20.4348C21.1177 20.4348 20.8231 21.0765 20.9094 21.5962C20.9956 22.1159 21.1692 23.0164 21.2566 23.3804C21.3439 23.7444 21.793 24.1431 22.0182 24.3514C22.2433 24.5598 22.642 24.8532 22.9366 24.7838C23.2311 24.7143 23.6646 23.9998 23.6646 23.9998C23.6646 23.9998 24.0107 23.601 24.098 23.2549C24.1854 22.9089 23.8897 22.3018 23.6993 21.6612C23.6078 21.3197 23.4259 21.0091 23.1729 20.7621C22.9198 20.5152 22.6049 20.341 22.2612 20.2578C21.4817 20.0708 21.2387 20.3138 21.1177 20.4348Z" fill="white" stroke="#263238" stroke-linecap="round" stroke-linejoin="round"/>
<path d="M21.7764 22.2715C21.7764 22.2715 22.0183 22.6702 22.0004 22.7912C21.9824 22.9121 21.8615 23.4329 21.9309 23.4632C22.0004 23.4934 22.2423 23.4452 22.2423 23.4452" stroke="#263238" stroke-linecap="round" stroke-linejoin="round"/>
<path d="M22.2432 23.8132C22.2432 23.8132 22.6072 23.8479 22.9152 23.4492" stroke="#263238" stroke-linecap="round" stroke-linejoin="round"/>
<path d="M21.654 22.2533C21.654 22.2533 21.3594 22.1312 21.2217 22.3743" stroke="#263238" stroke-linecap="round" stroke-linejoin="round"/>
<path d="M22.1396 22.1851C22.1396 22.1851 22.1912 21.9421 22.6246 22.063" stroke="#263238" stroke-linecap="round" stroke-linejoin="round"/>
<path d="M22.6234 22.5123C22.6547 22.6031 22.6357 22.6915 22.5808 22.7106C22.5259 22.7296 22.4576 22.6714 22.4262 22.5807C22.3949 22.4899 22.4139 22.4015 22.4688 22.3824C22.5237 22.3634 22.5875 22.4239 22.6234 22.5123Z" fill="#263238"/>
<path d="M21.6887 22.6862C21.72 22.7769 21.701 22.8654 21.6472 22.8845C21.5935 22.9035 21.524 22.8453 21.4927 22.7545C21.4613 22.6638 21.4804 22.5753 21.5341 22.5563C21.5879 22.5373 21.6584 22.5966 21.6887 22.6862Z" fill="#263238"/>
<path d="M20.9269 20.3301C20.9269 20.3301 21.619 21.3381 22.3123 21.7861C23.0056 22.2341 23.681 22.3461 23.6989 22.756C23.7168 23.1659 23.3864 24.1078 23.6474 24.7832C23.9083 25.4585 24.3922 25.7016 25.0675 25.5672C25.7429 25.4328 26.0554 24.8045 26.0554 24.8045C26.0554 24.8045 25.6746 25.0643 25.5525 24.7697C25.4304 24.4752 25.1538 24.0417 25.501 23.3317C25.8482 22.6216 26.0554 22.2923 25.4147 21.1141C24.7741 19.9358 24.0102 19.256 23.4077 18.9961C22.8051 18.7363 20.909 19.1529 20.9269 20.3301Z" fill="#263238" stroke="#263238" stroke-linecap="round" stroke-linejoin="round"/>
<path d="M20.6728 30.0109L20.5922 29.2012L20.2842 29.5092L20.6728 30.0109Z" fill="white" stroke="#263238" stroke-linecap="round" stroke-linejoin="round"/>
<path d="M19.7935 28.0105L20.1295 28.4585L19.8685 28.8606C19.8685 28.8606 19.8327 28.9087 20.0108 29.1966C20.1352 29.3878 20.2781 29.5664 20.4375 29.7297C20.4375 29.7297 21.0042 28.5369 21.0468 28.3219C21.0893 28.1068 20.0993 26.8457 20.0993 26.8457C20.0993 26.8457 19.7588 27.5009 19.7935 28.0105Z" fill="white" stroke="#263238" stroke-linecap="round" stroke-linejoin="round"/>
<path d="M18.8438 25.7312L20.5193 27.7214L21.6303 27.7931L20.041 25.6875L18.8438 25.7312Z" fill="white" stroke="#263238" stroke-linecap="round" stroke-linejoin="round"/>
<path d="M19.7028 26.8613C19.7028 26.8613 19.4934 26.9901 19.5427 27.1032C19.5919 27.2164 19.9447 27.4728 20.2023 27.5053C20.4599 27.5378 20.3334 27.381 20.3323 27.2981C20.3311 27.2152 19.7028 26.8613 19.7028 26.8613Z" fill="white" stroke="#263238" stroke-linecap="round" stroke-linejoin="round"/>
<path d="M19.6233 27.2324C19.6233 27.2324 19.462 27.4094 19.5113 27.5382C19.5606 27.667 20.1721 27.8439 20.2841 27.8607C20.3146 27.8663 20.3461 27.8606 20.3728 27.8448C20.3994 27.829 20.4195 27.8042 20.4293 27.7747C20.4391 27.7453 20.438 27.7134 20.4261 27.6847C20.4143 27.6561 20.3925 27.6327 20.3648 27.6188C20.2024 27.5057 19.6233 27.2324 19.6233 27.2324Z" fill="white" stroke="#263238" stroke-linecap="round" stroke-linejoin="round"/>
<path d="M19.6392 27.6992C19.6392 27.6992 19.591 27.9232 19.703 28.005C19.815 28.0867 20.3381 28.0251 20.4243 27.9915C20.5106 27.9579 20.2832 27.8605 20.2832 27.8605L19.6392 27.6992Z" fill="white" stroke="#263238" stroke-linecap="round" stroke-linejoin="round"/>
<path d="M23.048 28.7391L22.4276 28.1556C22.4276 28.1556 22.2271 27.4836 22.1364 27.2808C22.0456 27.0781 21.9728 27.0255 21.7533 26.825C21.5338 26.6245 21.3893 26.713 21.3524 26.844L21.3165 26.9717C21.3165 26.9717 20.2592 26.9168 20.0957 26.844C19.9322 26.7712 19.7496 26.6066 19.6578 26.7164C19.566 26.8261 19.6948 26.9717 19.8404 27.0624C19.9928 27.1631 20.1582 27.2426 20.332 27.2988C20.4776 27.3357 20.6602 27.3716 20.6602 27.3716L19.8952 27.2596C19.8856 27.292 19.8856 27.3266 19.8954 27.3591C19.9051 27.3915 19.9242 27.4204 19.9501 27.4421L20.1864 27.6784C20.25 27.7929 20.33 27.8974 20.4239 27.9887C20.5212 28.0727 20.6307 28.1415 20.7487 28.1925C20.9021 28.2653 21.0432 28.3168 21.0432 28.3168C20.9028 28.3162 20.7627 28.3038 20.6244 28.2799C20.4418 28.2429 20.2772 28.1522 20.2962 28.2799C20.3152 28.4076 20.4418 28.4624 20.6423 28.4983C20.8428 28.5341 21.6996 28.6439 21.7724 28.6629C21.8452 28.682 22.7927 29.5589 22.7927 29.5589L23.048 28.7391Z" fill="white" stroke="#263238" stroke-linecap="round" stroke-linejoin="round"/>
<path d="M21.3164 26.9707C21.4898 27.0199 21.6554 27.0934 21.8081 27.1891L21.3164 26.9707Z" fill="white"/>
<path d="M21.3164 26.9707C21.4898 27.0199 21.6554 27.0934 21.8081 27.1891" stroke="#263238" stroke-linecap="round" stroke-linejoin="round"/>
<path d="M20.6602 27.3711L21.1339 27.4809" stroke="#263238" stroke-linecap="round" stroke-linejoin="round"/>
<path d="M20.1865 27.6816C20.1865 27.6816 20.788 27.8821 21.0982 27.9549" stroke="#263238" stroke-linecap="round" stroke-linejoin="round"/>
<path d="M27.7582 26.1816C27.6363 27.1829 27.439 28.1736 27.1679 29.1452C26.7513 30.5832 26.5351 31.878 26.4489 31.9788C26.3627 32.0796 25.4275 31.7189 24.6659 31.2586C23.9043 30.7983 22.3643 29.6906 22.3643 29.6906L23.0116 28.453L25.2987 29.8194C25.2987 29.8194 25.3703 29.6615 25.4711 29.6324C25.5314 29.6157 25.5893 29.5916 25.6436 29.5607L25.8598 26.7988" fill="#039AE4"/>
<path d="M27.7582 26.1816C27.6363 27.1829 27.439 28.1736 27.1679 29.1452C26.7513 30.5832 26.5351 31.878 26.4489 31.9788C26.3627 32.0796 25.4275 31.7189 24.6659 31.2586C23.9043 30.7983 22.3643 29.6906 22.3643 29.6906L23.0116 28.453L25.2987 29.8194C25.2987 29.8194 25.3703 29.6615 25.4711 29.6324C25.5314 29.6157 25.5893 29.5916 25.6436 29.5607L25.8598 26.7988" stroke="#263238" stroke-linecap="round" stroke-linejoin="round"/>
<path d="M19.8653 28.8613L20.6728 30.0093C20.6728 30.0093 20.4298 30.7541 20.1867 31.0453C19.9437 31.3365 19.1507 31.4664 18.892 31.1573C18.6333 30.8482 18.6971 30.38 18.8438 30.1213C18.9906 29.8626 19.8653 28.8613 19.8653 28.8613Z" fill="#039AE4" stroke="#263238" stroke-linecap="round" stroke-linejoin="round"/>
<path d="M2.30078 50.752H52.3581" stroke="#263238" stroke-miterlimit="10"/>
</svg>
