<svg width="430" height="215" viewBox="0 0 430 215" fill="none" xmlns="http://www.w3.org/2000/svg">
<g style="mix-blend-mode:multiply">
<path d="M-742 105.377C-734.357 107.548 -726.509 110.593 -718.3 114.433C-704.563 120.857 -690.827 127.282 -677.09 128.73C-664.487 130.058 -650.124 123.618 -633.179 116.021C-611.806 106.439 -586.326 95.0151 -555.09 95.0151C-532.783 95.0151 -513.65 102.784 -495.225 110.265C-467.395 121.564 -441.182 132.207 -408.09 114.433C-353.09 84.89 -318.59 85.7058 -273.09 118.014C-227.59 150.323 -190.515 144.288 -160.251 129.585C-157.319 128.161 -154.418 126.669 -151.537 125.188C-140.05 119.279 -128.894 113.541 -117.501 112.981C-101.532 112.085 -85.5626 120.232 -69.5936 128.379C-57.0624 134.772 -44.5311 141.166 -32.0001 143.189C-16.1513 145.748 -0.302551 141.254 15.5462 136.76C28.1974 133.173 40.8486 129.585 53.4998 129.585C66.6647 129.585 79.8297 133.47 92.9946 137.354C108.33 141.879 123.665 146.404 139 144.789C152.736 143.343 166.473 136.924 180.209 130.505C194.973 123.606 209.736 116.707 224.5 115.982C246.3 114.758 265.122 121.455 283.899 128.135C306.988 136.35 330.007 144.54 358.409 137.947C373.759 134.385 388.434 128.627 402.913 122.946C437.454 109.394 470.883 96.2776 509.7 114.433C523.437 120.857 537.173 127.282 550.91 128.73C566.245 130.346 581.58 125.817 596.915 121.288C624.505 113.14 646.712 112.846 674.363 120.693C690.212 125.191 706.061 129.689 721.91 127.128C734.441 125.103 746.972 118.704 759.503 112.305C793.94 94.7192 816.408 94.6608 850.16 113.512C853.267 115.248 856.494 117.189 859.787 119.17C871.596 126.273 884.267 133.894 895.41 134.442C979.985 134.442 979.96 137.163 978.756 267.083C978.594 284.632 978.41 304.502 978.41 327L-742 327V105.377Z" fill="#039AE4"/>
</g>
<g style="mix-blend-mode:multiply">
<path d="M-684 70.3768C-675.762 72.5479 -667.303 75.5929 -658.454 79.4327C-643.648 85.8574 -628.842 92.282 -614.036 93.7296C-600.452 95.0578 -584.97 88.6182 -566.706 81.0212C-543.669 71.4389 -516.205 60.0151 -482.537 60.0151C-458.493 60.0151 -437.87 67.7837 -418.011 75.2646C-388.014 86.5642 -359.76 97.2075 -324.091 79.4327C-264.809 49.89 -227.623 50.7058 -178.58 83.0144C-129.537 115.323 -89.5748 109.288 -56.9546 94.5855C-53.7952 93.1615 -50.6677 91.6692 -47.5627 90.1875C-35.1814 84.2794 -23.156 78.5411 -10.876 77.9813C6.3363 77.0846 23.5487 85.2319 40.7611 93.3792C54.2681 99.7725 67.775 106.166 81.2817 108.189C98.3645 110.748 115.447 106.254 132.53 101.76C146.166 98.1727 159.803 94.5855 173.439 94.5855C187.629 94.5855 201.819 98.4699 216.009 102.354C232.538 106.879 249.067 111.404 265.596 109.789C280.402 108.343 295.208 101.924 310.014 95.5052C325.927 88.6063 341.84 81.7075 357.753 80.9821C381.251 79.7579 401.539 86.4547 421.777 93.1352C446.664 101.35 471.475 109.54 502.089 102.947C518.634 99.3846 534.451 93.6269 550.058 87.9457C587.288 74.3936 623.32 61.2776 665.16 79.4327C679.966 85.8574 694.772 92.282 709.578 93.7296C726.107 95.3457 742.636 90.8169 759.165 86.2881C788.904 78.1399 812.84 77.8456 842.644 85.693C859.727 90.1909 876.809 94.6888 893.892 92.1278C907.399 90.1029 920.906 83.7039 934.412 77.3049C971.531 59.7192 995.748 59.6608 1032.13 78.5122C1035.48 80.2479 1038.96 82.1888 1042.51 84.1699C1055.23 91.273 1068.89 98.8945 1080.9 99.4425C1172.06 99.4425 1172.03 102.163 1170.74 232.083C1170.56 249.632 1170.36 269.502 1170.36 292L-684 292V70.3768Z" fill="#039AE4"/>
</g>
<g style="mix-blend-mode:multiply">
<path d="M-684 45.4297C-674.678 47.61 -665.107 50.6681 -655.094 54.5243C-638.341 60.9764 -621.587 67.4285 -604.833 68.8823C-589.462 70.2162 -571.944 63.7491 -551.278 56.1196C-525.211 46.4963 -494.134 35.0237 -456.037 35.0237C-428.831 35.0237 -405.495 42.8255 -383.024 50.3384C-349.081 61.6862 -317.11 72.375 -276.75 54.5243C-209.67 24.8553 -167.593 25.6746 -112.099 58.1213C-56.6055 90.568 -11.3865 84.5073 25.5247 69.7418C29.0996 68.3117 32.6383 66.813 36.1519 65.3251C50.1617 59.3917 63.7689 53.6289 77.6642 53.0667C97.1405 52.1662 116.617 60.3483 136.094 68.5304C151.377 74.951 166.661 81.3717 181.944 83.4034C201.274 85.973 220.604 81.4599 239.933 76.9469C255.363 73.3444 270.793 69.7418 286.223 69.7418C302.28 69.7418 318.336 73.6429 334.393 77.544C353.096 82.0881 371.799 86.6321 390.502 85.0106C407.256 83.5581 424.009 77.1118 440.763 70.6654C458.769 63.7371 476.775 56.8088 494.781 56.0803C521.37 54.8509 544.326 61.5763 567.227 68.2854C595.387 76.5353 623.462 84.7605 658.103 78.1396C676.824 74.5615 694.722 68.7791 712.382 63.0737C754.509 49.4637 795.28 36.2916 842.623 54.5243C859.377 60.9764 876.13 67.4285 892.884 68.8823C911.587 70.5053 930.29 65.9571 948.994 61.409C982.644 53.226 1009.73 52.9304 1043.45 60.8114C1062.78 65.3285 1082.11 69.8456 1101.44 67.2737C1116.73 65.2401 1132.01 58.8138 1147.29 52.3874C1189.29 34.7266 1216.7 34.6679 1257.86 53.5998C1261.65 55.343 1265.59 57.2921 1269.6 59.2817C1284.01 66.4152 1299.46 74.0692 1313.05 74.6196C1416.2 74.6196 1416.17 77.3516 1414.7 207.827C1414.5 225.451 1414.28 245.406 1414.28 268L-684 268V45.4297Z" fill="#039AE4"/>
</g>
<g style="mix-blend-mode:multiply">
<path d="M-533 12.3768C-523.785 14.5479 -514.323 17.5929 -504.425 21.4327C-487.863 27.8574 -471.301 34.282 -454.739 35.7296C-439.543 37.0578 -422.226 30.6182 -401.795 23.0212C-376.026 13.4389 -345.305 2.01507 -307.644 2.01507C-280.749 2.01507 -257.68 9.78366 -235.465 17.2646C-201.911 28.5642 -170.305 39.2075 -130.407 21.4327C-64.0936 -8.11 -22.4972 -7.29418 32.3619 25.0144C87.2211 57.323 131.923 51.2881 168.412 36.5855C171.946 35.1615 175.444 33.6692 178.918 32.1875C192.767 26.2794 206.219 20.5411 219.955 19.9813C239.209 19.0846 258.463 27.2319 277.717 35.3792C292.825 41.7725 307.934 48.1658 323.043 50.1889C342.152 52.7476 361.26 48.2537 380.369 43.7599C395.623 40.1727 410.876 36.5855 426.13 36.5855C442.003 36.5855 457.875 40.4699 473.748 44.3544C492.238 48.8792 510.727 53.4039 529.216 51.7893C545.778 50.343 562.34 43.9241 578.902 37.5052C596.703 30.6063 614.503 23.7075 632.303 22.9821C658.588 21.7579 681.282 28.4547 703.92 35.1352C731.758 43.3501 759.513 51.5402 793.758 44.9475C812.264 41.3846 829.958 35.6269 847.416 29.9457C889.061 16.3936 929.366 3.27761 976.168 21.4327C992.73 27.8574 1009.29 34.282 1025.85 35.7296C1044.34 37.3457 1062.83 32.8169 1081.32 28.2881C1114.59 20.1399 1141.36 19.8456 1174.7 27.693C1193.81 32.1909 1212.92 36.6888 1232.03 34.1278C1247.14 32.1029 1262.24 25.7039 1277.35 19.3049C1318.87 1.71923 1345.96 1.66075 1386.66 20.5122C1390.4 22.2479 1394.3 24.1888 1398.27 26.1699C1412.5 33.273 1427.78 40.8945 1441.22 41.4425C1543.19 41.4425 1543.16 44.1629 1541.71 174.083C1541.51 191.632 1541.29 211.502 1541.29 234L-533 234V12.3768Z" fill="#039AE4"/>
</g>
</svg>
